G04 EAGLE Gerber RS-274X export*
G75*
%MOMM*%
%FSLAX34Y34*%
%LPD*%
%INBottom Copper*%
%IPPOS*%
%AMOC8*
5,1,8,0,0,1.08239X$1,22.5*%
G01*
%ADD10R,1.258000X1.258000*%
%ADD11C,1.258000*%
%ADD12C,2.550000*%
%ADD13P,1.632244X8X112.500000*%
%ADD14C,0.756400*%
%ADD15C,0.152400*%

G36*
X355620Y-2498D02*
X355620Y-2498D01*
X355639Y-2500D01*
X355741Y-2478D01*
X355843Y-2461D01*
X355860Y-2452D01*
X355880Y-2448D01*
X355969Y-2395D01*
X356060Y-2346D01*
X356074Y-2332D01*
X356091Y-2322D01*
X356158Y-2243D01*
X356230Y-2168D01*
X356238Y-2150D01*
X356251Y-2135D01*
X356290Y-2039D01*
X356333Y-1945D01*
X356335Y-1925D01*
X356343Y-1907D01*
X356361Y-1740D01*
X356361Y3476D01*
X356359Y3491D01*
X356361Y3507D01*
X356335Y3673D01*
X354839Y9256D01*
X354839Y16144D01*
X356335Y21727D01*
X356337Y21743D01*
X356343Y21758D01*
X356361Y21924D01*
X356361Y37339D01*
X371776Y37339D01*
X371791Y37341D01*
X371807Y37339D01*
X371973Y37365D01*
X377556Y38861D01*
X384444Y38861D01*
X390027Y37365D01*
X390043Y37363D01*
X390058Y37357D01*
X390224Y37339D01*
X395440Y37339D01*
X395460Y37342D01*
X395479Y37340D01*
X395581Y37362D01*
X395683Y37379D01*
X395700Y37388D01*
X395720Y37392D01*
X395809Y37445D01*
X395900Y37494D01*
X395914Y37508D01*
X395931Y37518D01*
X395998Y37597D01*
X396069Y37672D01*
X396078Y37690D01*
X396091Y37705D01*
X396130Y37801D01*
X396173Y37895D01*
X396175Y37915D01*
X396183Y37933D01*
X396201Y38100D01*
X396201Y241300D01*
X396198Y241320D01*
X396200Y241339D01*
X396178Y241441D01*
X396161Y241543D01*
X396152Y241560D01*
X396148Y241580D01*
X396095Y241669D01*
X396046Y241760D01*
X396032Y241774D01*
X396022Y241791D01*
X395943Y241858D01*
X395868Y241930D01*
X395850Y241938D01*
X395835Y241951D01*
X395739Y241990D01*
X395645Y242033D01*
X395625Y242035D01*
X395607Y242043D01*
X395440Y242061D01*
X390224Y242061D01*
X390209Y242059D01*
X390193Y242061D01*
X390027Y242035D01*
X384444Y240539D01*
X377556Y240539D01*
X371973Y242035D01*
X371957Y242037D01*
X371942Y242043D01*
X371776Y242061D01*
X356361Y242061D01*
X356361Y257476D01*
X356359Y257491D01*
X356361Y257507D01*
X356335Y257673D01*
X354839Y263256D01*
X354839Y270144D01*
X356335Y275727D01*
X356337Y275743D01*
X356343Y275758D01*
X356361Y275924D01*
X356361Y281140D01*
X356358Y281160D01*
X356360Y281179D01*
X356338Y281281D01*
X356322Y281383D01*
X356312Y281400D01*
X356308Y281420D01*
X356255Y281509D01*
X356206Y281600D01*
X356192Y281614D01*
X356182Y281631D01*
X356103Y281698D01*
X356028Y281769D01*
X356010Y281778D01*
X355995Y281791D01*
X355899Y281830D01*
X355805Y281873D01*
X355785Y281875D01*
X355767Y281883D01*
X355600Y281901D01*
X50800Y281901D01*
X50780Y281898D01*
X50761Y281900D01*
X50659Y281878D01*
X50557Y281861D01*
X50540Y281852D01*
X50520Y281848D01*
X50431Y281795D01*
X50340Y281746D01*
X50326Y281732D01*
X50309Y281722D01*
X50242Y281643D01*
X50170Y281568D01*
X50162Y281550D01*
X50149Y281535D01*
X50110Y281439D01*
X50067Y281345D01*
X50065Y281325D01*
X50057Y281307D01*
X50039Y281140D01*
X50039Y275924D01*
X50041Y275909D01*
X50039Y275893D01*
X50065Y275727D01*
X51561Y270144D01*
X51561Y263256D01*
X50065Y257673D01*
X50063Y257657D01*
X50057Y257642D01*
X50039Y257476D01*
X50039Y242061D01*
X34624Y242061D01*
X34609Y242059D01*
X34593Y242061D01*
X34427Y242035D01*
X28844Y240539D01*
X21956Y240539D01*
X16373Y242035D01*
X16357Y242037D01*
X16342Y242043D01*
X16176Y242061D01*
X10960Y242061D01*
X10940Y242058D01*
X10921Y242060D01*
X10819Y242038D01*
X10717Y242022D01*
X10700Y242012D01*
X10680Y242008D01*
X10591Y241955D01*
X10500Y241906D01*
X10486Y241892D01*
X10469Y241882D01*
X10402Y241803D01*
X10331Y241728D01*
X10322Y241710D01*
X10309Y241695D01*
X10270Y241599D01*
X10227Y241505D01*
X10225Y241485D01*
X10217Y241467D01*
X10199Y241300D01*
X10199Y38100D01*
X10202Y38080D01*
X10200Y38061D01*
X10222Y37959D01*
X10239Y37857D01*
X10248Y37840D01*
X10252Y37820D01*
X10305Y37731D01*
X10354Y37640D01*
X10368Y37626D01*
X10378Y37609D01*
X10457Y37542D01*
X10532Y37471D01*
X10550Y37462D01*
X10565Y37449D01*
X10661Y37410D01*
X10755Y37367D01*
X10775Y37365D01*
X10793Y37357D01*
X10960Y37339D01*
X16176Y37339D01*
X16191Y37341D01*
X16207Y37339D01*
X16373Y37365D01*
X21956Y38861D01*
X28844Y38861D01*
X34427Y37365D01*
X34443Y37363D01*
X34458Y37357D01*
X34624Y37339D01*
X50039Y37339D01*
X50039Y21924D01*
X50041Y21909D01*
X50039Y21893D01*
X50065Y21727D01*
X51561Y16144D01*
X51561Y9256D01*
X50065Y3673D01*
X50063Y3657D01*
X50057Y3642D01*
X50039Y3476D01*
X50039Y-1740D01*
X50042Y-1760D01*
X50040Y-1779D01*
X50062Y-1881D01*
X50079Y-1983D01*
X50088Y-2000D01*
X50092Y-2020D01*
X50145Y-2109D01*
X50194Y-2200D01*
X50208Y-2214D01*
X50218Y-2231D01*
X50297Y-2298D01*
X50372Y-2369D01*
X50390Y-2378D01*
X50405Y-2391D01*
X50501Y-2430D01*
X50595Y-2473D01*
X50615Y-2475D01*
X50633Y-2483D01*
X50800Y-2501D01*
X355600Y-2501D01*
X355620Y-2498D01*
G37*
%LPC*%
G36*
X340011Y92925D02*
X340011Y92925D01*
X334764Y95098D01*
X330748Y99114D01*
X328541Y104443D01*
X328479Y104543D01*
X328419Y104643D01*
X328415Y104647D01*
X328411Y104652D01*
X328322Y104727D01*
X328233Y104803D01*
X328227Y104805D01*
X328222Y104809D01*
X328114Y104851D01*
X328004Y104895D01*
X327997Y104896D01*
X327992Y104897D01*
X327974Y104898D01*
X327838Y104913D01*
X323653Y104913D01*
X304076Y124490D01*
X304002Y124543D01*
X303932Y124603D01*
X303902Y124615D01*
X303876Y124634D01*
X303789Y124661D01*
X303704Y124695D01*
X303663Y124699D01*
X303641Y124706D01*
X303609Y124705D01*
X303537Y124713D01*
X149526Y124713D01*
X149506Y124710D01*
X149487Y124712D01*
X149385Y124690D01*
X149283Y124674D01*
X149266Y124664D01*
X149246Y124660D01*
X149157Y124607D01*
X149066Y124558D01*
X149052Y124544D01*
X149035Y124534D01*
X148968Y124455D01*
X148896Y124380D01*
X148888Y124362D01*
X148875Y124347D01*
X148836Y124251D01*
X148793Y124157D01*
X148791Y124137D01*
X148783Y124119D01*
X148765Y123952D01*
X148765Y123245D01*
X143455Y117935D01*
X135945Y117935D01*
X130635Y123245D01*
X130635Y130755D01*
X135945Y136065D01*
X143455Y136065D01*
X148765Y130755D01*
X148765Y130048D01*
X148768Y130028D01*
X148766Y130009D01*
X148788Y129907D01*
X148804Y129805D01*
X148814Y129788D01*
X148818Y129768D01*
X148871Y129679D01*
X148920Y129588D01*
X148934Y129574D01*
X148944Y129557D01*
X149023Y129490D01*
X149098Y129418D01*
X149116Y129410D01*
X149131Y129397D01*
X149227Y129358D01*
X149321Y129315D01*
X149341Y129313D01*
X149359Y129305D01*
X149526Y129287D01*
X305747Y129287D01*
X325324Y109710D01*
X325398Y109657D01*
X325468Y109597D01*
X325498Y109585D01*
X325524Y109566D01*
X325611Y109539D01*
X325696Y109505D01*
X325737Y109501D01*
X325759Y109494D01*
X325791Y109495D01*
X325863Y109487D01*
X327838Y109487D01*
X327952Y109506D01*
X328069Y109523D01*
X328074Y109525D01*
X328080Y109526D01*
X328183Y109581D01*
X328288Y109634D01*
X328292Y109639D01*
X328298Y109642D01*
X328378Y109726D01*
X328460Y109810D01*
X328464Y109816D01*
X328467Y109820D01*
X328475Y109837D01*
X328541Y109957D01*
X330748Y115286D01*
X334764Y119302D01*
X340011Y121475D01*
X371189Y121475D01*
X376436Y119302D01*
X380452Y115286D01*
X382625Y110039D01*
X382625Y104361D01*
X380452Y99114D01*
X376436Y95098D01*
X371189Y92925D01*
X340011Y92925D01*
G37*
%LPD*%
%LPC*%
G36*
X340011Y132525D02*
X340011Y132525D01*
X334764Y134698D01*
X330748Y138714D01*
X328575Y143961D01*
X328575Y149352D01*
X328572Y149372D01*
X328574Y149391D01*
X328552Y149493D01*
X328536Y149595D01*
X328526Y149612D01*
X328522Y149632D01*
X328469Y149721D01*
X328420Y149812D01*
X328406Y149826D01*
X328396Y149843D01*
X328317Y149910D01*
X328242Y149982D01*
X328224Y149990D01*
X328209Y150003D01*
X328113Y150042D01*
X328019Y150085D01*
X327999Y150087D01*
X327981Y150095D01*
X327814Y150113D01*
X149526Y150113D01*
X149506Y150110D01*
X149487Y150112D01*
X149385Y150090D01*
X149283Y150074D01*
X149266Y150064D01*
X149246Y150060D01*
X149157Y150007D01*
X149066Y149958D01*
X149052Y149944D01*
X149035Y149934D01*
X148968Y149855D01*
X148896Y149780D01*
X148888Y149762D01*
X148875Y149747D01*
X148836Y149651D01*
X148793Y149557D01*
X148791Y149537D01*
X148783Y149519D01*
X148765Y149352D01*
X148765Y148645D01*
X143455Y143335D01*
X135945Y143335D01*
X130635Y148645D01*
X130635Y156155D01*
X135945Y161465D01*
X143455Y161465D01*
X148765Y156155D01*
X148765Y155448D01*
X148768Y155428D01*
X148766Y155409D01*
X148788Y155307D01*
X148804Y155205D01*
X148814Y155188D01*
X148818Y155168D01*
X148871Y155079D01*
X148920Y154988D01*
X148934Y154974D01*
X148944Y154957D01*
X149023Y154890D01*
X149098Y154818D01*
X149116Y154810D01*
X149131Y154797D01*
X149227Y154758D01*
X149321Y154715D01*
X149341Y154713D01*
X149359Y154705D01*
X149526Y154687D01*
X330234Y154687D01*
X330324Y154701D01*
X330415Y154709D01*
X330445Y154721D01*
X330477Y154726D01*
X330557Y154769D01*
X330641Y154805D01*
X330673Y154831D01*
X330694Y154842D01*
X330716Y154865D01*
X330772Y154910D01*
X334764Y158902D01*
X340011Y161075D01*
X371189Y161075D01*
X376436Y158902D01*
X380452Y154886D01*
X382625Y149639D01*
X382625Y143961D01*
X380452Y138714D01*
X376436Y134698D01*
X371189Y132525D01*
X340011Y132525D01*
G37*
%LPD*%
%LPC*%
G36*
X35211Y92925D02*
X35211Y92925D01*
X29964Y95098D01*
X25948Y99114D01*
X23775Y104361D01*
X23775Y110039D01*
X25948Y115286D01*
X29964Y119302D01*
X35211Y121475D01*
X66389Y121475D01*
X71636Y119302D01*
X75652Y115286D01*
X77825Y110039D01*
X77825Y104361D01*
X75652Y99114D01*
X71636Y95098D01*
X66389Y92925D01*
X35211Y92925D01*
G37*
%LPD*%
%LPC*%
G36*
X35211Y132525D02*
X35211Y132525D01*
X29964Y134698D01*
X25948Y138714D01*
X23775Y143961D01*
X23775Y149639D01*
X25948Y154886D01*
X29964Y158902D01*
X35211Y161075D01*
X66389Y161075D01*
X71636Y158902D01*
X75652Y154886D01*
X77825Y149639D01*
X77825Y143961D01*
X75652Y138714D01*
X71636Y134698D01*
X66389Y132525D01*
X35211Y132525D01*
G37*
%LPD*%
%LPC*%
G36*
X35211Y172125D02*
X35211Y172125D01*
X29964Y174298D01*
X25948Y178314D01*
X23775Y183561D01*
X23775Y189239D01*
X25948Y194486D01*
X29964Y198502D01*
X35211Y200675D01*
X66389Y200675D01*
X71636Y198502D01*
X75652Y194486D01*
X77825Y189239D01*
X77825Y183561D01*
X75652Y178314D01*
X71636Y174298D01*
X66389Y172125D01*
X35211Y172125D01*
G37*
%LPD*%
%LPC*%
G36*
X340011Y53325D02*
X340011Y53325D01*
X334764Y55498D01*
X330748Y59514D01*
X328575Y64761D01*
X328575Y70439D01*
X330748Y75686D01*
X334764Y79702D01*
X340011Y81875D01*
X371189Y81875D01*
X376436Y79702D01*
X380452Y75686D01*
X382625Y70439D01*
X382625Y64761D01*
X380452Y59514D01*
X376436Y55498D01*
X371189Y53325D01*
X340011Y53325D01*
G37*
%LPD*%
%LPC*%
G36*
X135945Y67135D02*
X135945Y67135D01*
X130635Y72445D01*
X130635Y79955D01*
X135945Y85265D01*
X143455Y85265D01*
X148765Y79955D01*
X148765Y79248D01*
X148768Y79228D01*
X148766Y79209D01*
X148788Y79107D01*
X148804Y79005D01*
X148814Y78988D01*
X148818Y78968D01*
X148871Y78879D01*
X148920Y78788D01*
X148934Y78774D01*
X148944Y78757D01*
X149023Y78690D01*
X149098Y78618D01*
X149116Y78610D01*
X149131Y78597D01*
X149227Y78558D01*
X149321Y78515D01*
X149341Y78513D01*
X149359Y78505D01*
X149526Y78487D01*
X252737Y78487D01*
X252828Y78501D01*
X252918Y78509D01*
X252948Y78521D01*
X252980Y78526D01*
X253061Y78569D01*
X253145Y78605D01*
X253177Y78631D01*
X253198Y78642D01*
X253220Y78665D01*
X253276Y78710D01*
X286570Y112004D01*
X286623Y112078D01*
X286683Y112148D01*
X286695Y112178D01*
X286714Y112204D01*
X286741Y112291D01*
X286775Y112376D01*
X286779Y112417D01*
X286786Y112439D01*
X286785Y112471D01*
X286793Y112543D01*
X286793Y116498D01*
X289902Y119607D01*
X294298Y119607D01*
X297407Y116498D01*
X297407Y112102D01*
X294298Y108993D01*
X290343Y108993D01*
X290252Y108979D01*
X290162Y108971D01*
X290132Y108959D01*
X290100Y108954D01*
X290019Y108911D01*
X289935Y108875D01*
X289903Y108849D01*
X289882Y108838D01*
X289860Y108815D01*
X289804Y108770D01*
X254947Y73913D01*
X149526Y73913D01*
X149506Y73910D01*
X149487Y73912D01*
X149385Y73890D01*
X149283Y73874D01*
X149266Y73864D01*
X149246Y73860D01*
X149157Y73807D01*
X149066Y73758D01*
X149052Y73744D01*
X149035Y73734D01*
X148968Y73655D01*
X148896Y73580D01*
X148888Y73562D01*
X148875Y73547D01*
X148836Y73451D01*
X148793Y73357D01*
X148791Y73337D01*
X148783Y73319D01*
X148765Y73152D01*
X148765Y72445D01*
X143455Y67135D01*
X135945Y67135D01*
G37*
%LPD*%
%LPC*%
G36*
X52323Y69123D02*
X52323Y69123D01*
X52323Y82891D01*
X64753Y82891D01*
X67131Y82514D01*
X69420Y81770D01*
X71564Y80678D01*
X73511Y79263D01*
X75213Y77561D01*
X76628Y75614D01*
X77720Y73470D01*
X78464Y71181D01*
X78790Y69123D01*
X52323Y69123D01*
G37*
%LPD*%
%LPC*%
G36*
X357123Y187923D02*
X357123Y187923D01*
X357123Y201691D01*
X369553Y201691D01*
X371931Y201314D01*
X374220Y200570D01*
X376364Y199478D01*
X378311Y198063D01*
X380013Y196361D01*
X381428Y194414D01*
X382520Y192270D01*
X383264Y189981D01*
X383590Y187923D01*
X357123Y187923D01*
G37*
%LPD*%
%LPC*%
G36*
X327610Y187923D02*
X327610Y187923D01*
X327936Y189981D01*
X328680Y192270D01*
X329772Y194414D01*
X331187Y196361D01*
X332889Y198063D01*
X334836Y199478D01*
X336980Y200570D01*
X339269Y201314D01*
X341647Y201691D01*
X354077Y201691D01*
X354077Y187923D01*
X327610Y187923D01*
G37*
%LPD*%
%LPC*%
G36*
X22810Y69123D02*
X22810Y69123D01*
X23136Y71181D01*
X23880Y73470D01*
X24972Y75614D01*
X26387Y77561D01*
X28089Y79263D01*
X30036Y80678D01*
X32180Y81770D01*
X34469Y82514D01*
X36847Y82891D01*
X49277Y82891D01*
X49277Y69123D01*
X22810Y69123D01*
G37*
%LPD*%
%LPC*%
G36*
X357123Y171109D02*
X357123Y171109D01*
X357123Y184877D01*
X383590Y184877D01*
X383264Y182819D01*
X382520Y180530D01*
X381428Y178386D01*
X380013Y176439D01*
X378311Y174737D01*
X376364Y173322D01*
X374220Y172230D01*
X371931Y171486D01*
X369553Y171109D01*
X357123Y171109D01*
G37*
%LPD*%
%LPC*%
G36*
X52323Y52309D02*
X52323Y52309D01*
X52323Y66077D01*
X78790Y66077D01*
X78464Y64019D01*
X77720Y61730D01*
X76628Y59586D01*
X75213Y57639D01*
X73511Y55937D01*
X71564Y54522D01*
X69420Y53430D01*
X67131Y52686D01*
X64753Y52309D01*
X52323Y52309D01*
G37*
%LPD*%
%LPC*%
G36*
X36847Y52309D02*
X36847Y52309D01*
X34469Y52686D01*
X32180Y53430D01*
X30036Y54522D01*
X28089Y55937D01*
X26387Y57639D01*
X24972Y59586D01*
X23880Y61730D01*
X23136Y64019D01*
X22810Y66077D01*
X49277Y66077D01*
X49277Y52309D01*
X36847Y52309D01*
G37*
%LPD*%
%LPC*%
G36*
X341647Y171109D02*
X341647Y171109D01*
X339269Y171486D01*
X336980Y172230D01*
X334836Y173322D01*
X332889Y174737D01*
X331187Y176439D01*
X329772Y178386D01*
X328680Y180530D01*
X327936Y182819D01*
X327610Y184877D01*
X354077Y184877D01*
X354077Y171109D01*
X341647Y171109D01*
G37*
%LPD*%
%LPC*%
G36*
X135945Y168735D02*
X135945Y168735D01*
X130635Y174045D01*
X130635Y181555D01*
X135945Y186865D01*
X143455Y186865D01*
X148765Y181555D01*
X148765Y174045D01*
X143455Y168735D01*
X135945Y168735D01*
G37*
%LPD*%
%LPC*%
G36*
X135945Y194135D02*
X135945Y194135D01*
X130635Y199445D01*
X130635Y206955D01*
X135945Y212265D01*
X143455Y212265D01*
X148765Y206955D01*
X148765Y199445D01*
X143455Y194135D01*
X135945Y194135D01*
G37*
%LPD*%
%LPC*%
G36*
X164528Y233485D02*
X164528Y233485D01*
X163635Y234378D01*
X163635Y248222D01*
X164528Y249115D01*
X178372Y249115D01*
X179265Y248222D01*
X179265Y234378D01*
X178372Y233485D01*
X164528Y233485D01*
G37*
%LPD*%
%LPC*%
G36*
X234378Y233485D02*
X234378Y233485D01*
X233485Y234378D01*
X233485Y248222D01*
X234378Y249115D01*
X248222Y249115D01*
X249115Y248222D01*
X249115Y234378D01*
X248222Y233485D01*
X234378Y233485D01*
G37*
%LPD*%
%LPC*%
G36*
X234378Y30285D02*
X234378Y30285D01*
X233485Y31178D01*
X233485Y45022D01*
X234378Y45915D01*
X248222Y45915D01*
X249115Y45022D01*
X249115Y31178D01*
X248222Y30285D01*
X234378Y30285D01*
G37*
%LPD*%
%LPC*%
G36*
X158178Y30285D02*
X158178Y30285D01*
X157285Y31178D01*
X157285Y45022D01*
X158178Y45915D01*
X172022Y45915D01*
X172915Y45022D01*
X172915Y31178D01*
X172022Y30285D01*
X158178Y30285D01*
G37*
%LPD*%
%LPC*%
G36*
X141223Y103123D02*
X141223Y103123D01*
X141223Y111681D01*
X143876Y111681D01*
X149781Y105776D01*
X149781Y103123D01*
X141223Y103123D01*
G37*
%LPD*%
%LPC*%
G36*
X141223Y100077D02*
X141223Y100077D01*
X149781Y100077D01*
X149781Y97424D01*
X143876Y91519D01*
X141223Y91519D01*
X141223Y100077D01*
G37*
%LPD*%
%LPC*%
G36*
X129619Y103123D02*
X129619Y103123D01*
X129619Y105776D01*
X135524Y111681D01*
X138177Y111681D01*
X138177Y103123D01*
X129619Y103123D01*
G37*
%LPD*%
%LPC*%
G36*
X135524Y91519D02*
X135524Y91519D01*
X129619Y97424D01*
X129619Y100077D01*
X138177Y100077D01*
X138177Y91519D01*
X135524Y91519D01*
G37*
%LPD*%
%LPC*%
G36*
X172973Y262823D02*
X172973Y262823D01*
X172973Y270001D01*
X174026Y269791D01*
X175633Y269126D01*
X177079Y268159D01*
X178309Y266929D01*
X179276Y265483D01*
X179941Y263876D01*
X180151Y262823D01*
X172973Y262823D01*
G37*
%LPD*%
%LPC*%
G36*
X242823Y19623D02*
X242823Y19623D01*
X242823Y26801D01*
X243876Y26591D01*
X245483Y25926D01*
X246929Y24959D01*
X248159Y23729D01*
X249126Y22283D01*
X249791Y20676D01*
X250001Y19623D01*
X242823Y19623D01*
G37*
%LPD*%
%LPC*%
G36*
X242823Y262823D02*
X242823Y262823D01*
X242823Y270001D01*
X243876Y269791D01*
X245483Y269126D01*
X246929Y268159D01*
X248159Y266929D01*
X249126Y265483D01*
X249791Y263876D01*
X250001Y262823D01*
X242823Y262823D01*
G37*
%LPD*%
%LPC*%
G36*
X166623Y19623D02*
X166623Y19623D01*
X166623Y26801D01*
X167676Y26591D01*
X169283Y25926D01*
X170729Y24959D01*
X171959Y23729D01*
X172926Y22283D01*
X173591Y20676D01*
X173801Y19623D01*
X166623Y19623D01*
G37*
%LPD*%
%LPC*%
G36*
X232599Y262823D02*
X232599Y262823D01*
X232809Y263876D01*
X233474Y265483D01*
X234441Y266929D01*
X235671Y268159D01*
X237117Y269126D01*
X238724Y269791D01*
X239777Y270001D01*
X239777Y262823D01*
X232599Y262823D01*
G37*
%LPD*%
%LPC*%
G36*
X172973Y259777D02*
X172973Y259777D01*
X180151Y259777D01*
X179941Y258724D01*
X179276Y257117D01*
X178309Y255671D01*
X177079Y254441D01*
X175633Y253474D01*
X174026Y252809D01*
X172973Y252599D01*
X172973Y259777D01*
G37*
%LPD*%
%LPC*%
G36*
X162749Y262823D02*
X162749Y262823D01*
X162959Y263876D01*
X163624Y265483D01*
X164591Y266929D01*
X165821Y268159D01*
X167267Y269126D01*
X168874Y269791D01*
X169927Y270001D01*
X169927Y262823D01*
X162749Y262823D01*
G37*
%LPD*%
%LPC*%
G36*
X242823Y16577D02*
X242823Y16577D01*
X250001Y16577D01*
X249791Y15524D01*
X249126Y13917D01*
X248159Y12471D01*
X246929Y11241D01*
X245483Y10274D01*
X243876Y9609D01*
X242823Y9399D01*
X242823Y16577D01*
G37*
%LPD*%
%LPC*%
G36*
X232599Y19623D02*
X232599Y19623D01*
X232809Y20676D01*
X233474Y22283D01*
X234441Y23729D01*
X235671Y24959D01*
X237117Y25926D01*
X238724Y26591D01*
X239777Y26801D01*
X239777Y19623D01*
X232599Y19623D01*
G37*
%LPD*%
%LPC*%
G36*
X166623Y16577D02*
X166623Y16577D01*
X173801Y16577D01*
X173591Y15524D01*
X172926Y13917D01*
X171959Y12471D01*
X170729Y11241D01*
X169283Y10274D01*
X167676Y9609D01*
X166623Y9399D01*
X166623Y16577D01*
G37*
%LPD*%
%LPC*%
G36*
X156399Y19623D02*
X156399Y19623D01*
X156609Y20676D01*
X157274Y22283D01*
X158241Y23729D01*
X159471Y24959D01*
X160917Y25926D01*
X162524Y26591D01*
X163577Y26801D01*
X163577Y19623D01*
X156399Y19623D01*
G37*
%LPD*%
%LPC*%
G36*
X242823Y259777D02*
X242823Y259777D01*
X250001Y259777D01*
X249791Y258724D01*
X249126Y257117D01*
X248159Y255671D01*
X246929Y254441D01*
X245483Y253474D01*
X243876Y252809D01*
X242823Y252599D01*
X242823Y259777D01*
G37*
%LPD*%
%LPC*%
G36*
X238724Y252809D02*
X238724Y252809D01*
X237117Y253474D01*
X235671Y254441D01*
X234441Y255671D01*
X233474Y257117D01*
X232809Y258724D01*
X232599Y259777D01*
X239777Y259777D01*
X239777Y252599D01*
X238724Y252809D01*
G37*
%LPD*%
%LPC*%
G36*
X168874Y252809D02*
X168874Y252809D01*
X167267Y253474D01*
X165821Y254441D01*
X164591Y255671D01*
X163624Y257117D01*
X162959Y258724D01*
X162749Y259777D01*
X169927Y259777D01*
X169927Y252599D01*
X168874Y252809D01*
G37*
%LPD*%
%LPC*%
G36*
X162524Y9609D02*
X162524Y9609D01*
X160917Y10274D01*
X159471Y11241D01*
X158241Y12471D01*
X157274Y13917D01*
X156609Y15524D01*
X156399Y16577D01*
X163577Y16577D01*
X163577Y9399D01*
X162524Y9609D01*
G37*
%LPD*%
%LPC*%
G36*
X238724Y9609D02*
X238724Y9609D01*
X237117Y10274D01*
X235671Y11241D01*
X234441Y12471D01*
X233474Y13917D01*
X232809Y15524D01*
X232599Y16577D01*
X239777Y16577D01*
X239777Y9399D01*
X238724Y9609D01*
G37*
%LPD*%
%LPC*%
G36*
X139699Y101599D02*
X139699Y101599D01*
X139699Y101601D01*
X139701Y101601D01*
X139701Y101599D01*
X139699Y101599D01*
G37*
%LPD*%
%LPC*%
G36*
X241299Y18099D02*
X241299Y18099D01*
X241299Y18101D01*
X241301Y18101D01*
X241301Y18099D01*
X241299Y18099D01*
G37*
%LPD*%
%LPC*%
G36*
X165099Y18099D02*
X165099Y18099D01*
X165099Y18101D01*
X165101Y18101D01*
X165101Y18099D01*
X165099Y18099D01*
G37*
%LPD*%
%LPC*%
G36*
X171449Y261299D02*
X171449Y261299D01*
X171449Y261301D01*
X171451Y261301D01*
X171451Y261299D01*
X171449Y261299D01*
G37*
%LPD*%
%LPC*%
G36*
X50799Y67599D02*
X50799Y67599D01*
X50799Y67601D01*
X50801Y67601D01*
X50801Y67599D01*
X50799Y67599D01*
G37*
%LPD*%
%LPC*%
G36*
X355599Y186399D02*
X355599Y186399D01*
X355599Y186401D01*
X355601Y186401D01*
X355601Y186399D01*
X355599Y186399D01*
G37*
%LPD*%
%LPC*%
G36*
X241299Y261299D02*
X241299Y261299D01*
X241299Y261301D01*
X241301Y261301D01*
X241301Y261299D01*
X241299Y261299D01*
G37*
%LPD*%
D10*
X171450Y241300D03*
D11*
X171450Y261300D03*
D10*
X241300Y241300D03*
D11*
X241300Y261300D03*
D10*
X165100Y38100D03*
D11*
X165100Y18100D03*
D10*
X241300Y38100D03*
D11*
X241300Y18100D03*
D12*
X342850Y67600D02*
X368350Y67600D01*
X368350Y107200D02*
X342850Y107200D01*
X342850Y146800D02*
X368350Y146800D01*
X368350Y186400D02*
X342850Y186400D01*
X63550Y186400D02*
X38050Y186400D01*
X38050Y146800D02*
X63550Y146800D01*
X63550Y107200D02*
X38050Y107200D01*
X38050Y67600D02*
X63550Y67600D01*
D13*
X139700Y76200D03*
X139700Y101600D03*
X139700Y127000D03*
X139700Y152400D03*
X139700Y177800D03*
X139700Y203200D03*
D14*
X317500Y266700D03*
X88900Y241300D03*
X114300Y50800D03*
X330200Y12700D03*
D15*
X335800Y146800D02*
X355600Y146800D01*
X335800Y146800D02*
X330200Y152400D01*
X139700Y152400D01*
X324600Y107200D02*
X355600Y107200D01*
X324600Y107200D02*
X304800Y127000D01*
X139700Y127000D01*
D14*
X292100Y114300D03*
D15*
X254000Y76200D01*
X139700Y76200D01*
M02*
