G04 EAGLE Gerber RS-274X export*
G75*
%MOMM*%
%FSLAX34Y34*%
%LPD*%
%INTop Copper*%
%IPPOS*%
%AMOC8*
5,1,8,0,0,1.08239X$1,22.5*%
G01*
%ADD10R,1.258000X1.258000*%
%ADD11C,1.258000*%
%ADD12R,1.000000X1.100000*%
%ADD13R,0.800000X0.800000*%
%ADD14R,2.100000X1.000000*%
%ADD15R,5.850000X4.900000*%
%ADD16C,2.550000*%
%ADD17P,1.632244X8X112.500000*%
%ADD18C,0.152400*%
%ADD19C,0.756400*%

G36*
X355620Y-2498D02*
X355620Y-2498D01*
X355639Y-2500D01*
X355741Y-2478D01*
X355843Y-2461D01*
X355860Y-2452D01*
X355880Y-2448D01*
X355969Y-2395D01*
X356060Y-2346D01*
X356074Y-2332D01*
X356091Y-2322D01*
X356158Y-2243D01*
X356230Y-2168D01*
X356238Y-2150D01*
X356251Y-2135D01*
X356290Y-2039D01*
X356333Y-1945D01*
X356335Y-1925D01*
X356343Y-1907D01*
X356361Y-1740D01*
X356361Y3476D01*
X356359Y3491D01*
X356361Y3507D01*
X356335Y3673D01*
X354839Y9256D01*
X354839Y16144D01*
X356335Y21727D01*
X356337Y21743D01*
X356343Y21758D01*
X356361Y21924D01*
X356361Y37339D01*
X371776Y37339D01*
X371791Y37341D01*
X371807Y37339D01*
X371973Y37365D01*
X377556Y38861D01*
X384444Y38861D01*
X390027Y37365D01*
X390043Y37363D01*
X390058Y37357D01*
X390224Y37339D01*
X395440Y37339D01*
X395460Y37342D01*
X395479Y37340D01*
X395581Y37362D01*
X395683Y37379D01*
X395700Y37388D01*
X395720Y37392D01*
X395809Y37445D01*
X395900Y37494D01*
X395914Y37508D01*
X395931Y37518D01*
X395998Y37597D01*
X396069Y37672D01*
X396078Y37690D01*
X396091Y37705D01*
X396130Y37801D01*
X396173Y37895D01*
X396175Y37915D01*
X396183Y37933D01*
X396201Y38100D01*
X396201Y241300D01*
X396198Y241320D01*
X396200Y241339D01*
X396178Y241441D01*
X396161Y241543D01*
X396152Y241560D01*
X396148Y241580D01*
X396095Y241669D01*
X396046Y241760D01*
X396032Y241774D01*
X396022Y241791D01*
X395943Y241858D01*
X395868Y241930D01*
X395850Y241938D01*
X395835Y241951D01*
X395739Y241990D01*
X395645Y242033D01*
X395625Y242035D01*
X395607Y242043D01*
X395440Y242061D01*
X390224Y242061D01*
X390209Y242059D01*
X390193Y242061D01*
X390027Y242035D01*
X384444Y240539D01*
X377556Y240539D01*
X371973Y242035D01*
X371957Y242037D01*
X371942Y242043D01*
X371776Y242061D01*
X356361Y242061D01*
X356361Y257476D01*
X356359Y257491D01*
X356361Y257507D01*
X356335Y257673D01*
X354839Y263256D01*
X354839Y270144D01*
X356335Y275727D01*
X356337Y275743D01*
X356343Y275758D01*
X356361Y275924D01*
X356361Y281140D01*
X356358Y281160D01*
X356360Y281179D01*
X356338Y281281D01*
X356322Y281383D01*
X356312Y281400D01*
X356308Y281420D01*
X356255Y281509D01*
X356206Y281600D01*
X356192Y281614D01*
X356182Y281631D01*
X356103Y281698D01*
X356028Y281769D01*
X356010Y281778D01*
X355995Y281791D01*
X355899Y281830D01*
X355805Y281873D01*
X355785Y281875D01*
X355767Y281883D01*
X355600Y281901D01*
X50800Y281901D01*
X50780Y281898D01*
X50761Y281900D01*
X50659Y281878D01*
X50557Y281861D01*
X50540Y281852D01*
X50520Y281848D01*
X50431Y281795D01*
X50340Y281746D01*
X50326Y281732D01*
X50309Y281722D01*
X50242Y281643D01*
X50170Y281568D01*
X50162Y281550D01*
X50149Y281535D01*
X50110Y281439D01*
X50067Y281345D01*
X50065Y281325D01*
X50057Y281307D01*
X50039Y281140D01*
X50039Y275924D01*
X50041Y275909D01*
X50039Y275893D01*
X50065Y275727D01*
X51561Y270144D01*
X51561Y263256D01*
X50065Y257673D01*
X50063Y257657D01*
X50057Y257642D01*
X50039Y257476D01*
X50039Y242061D01*
X34624Y242061D01*
X34609Y242059D01*
X34593Y242061D01*
X34427Y242035D01*
X28844Y240539D01*
X21956Y240539D01*
X16373Y242035D01*
X16357Y242037D01*
X16342Y242043D01*
X16176Y242061D01*
X10960Y242061D01*
X10940Y242058D01*
X10921Y242060D01*
X10819Y242038D01*
X10717Y242022D01*
X10700Y242012D01*
X10680Y242008D01*
X10591Y241955D01*
X10500Y241906D01*
X10486Y241892D01*
X10469Y241882D01*
X10402Y241803D01*
X10331Y241728D01*
X10322Y241710D01*
X10309Y241695D01*
X10270Y241599D01*
X10227Y241505D01*
X10225Y241485D01*
X10217Y241467D01*
X10199Y241300D01*
X10199Y38100D01*
X10202Y38080D01*
X10200Y38061D01*
X10222Y37959D01*
X10239Y37857D01*
X10248Y37840D01*
X10252Y37820D01*
X10305Y37731D01*
X10354Y37640D01*
X10368Y37626D01*
X10378Y37609D01*
X10457Y37542D01*
X10532Y37471D01*
X10550Y37462D01*
X10565Y37449D01*
X10661Y37410D01*
X10755Y37367D01*
X10775Y37365D01*
X10793Y37357D01*
X10960Y37339D01*
X16176Y37339D01*
X16191Y37341D01*
X16207Y37339D01*
X16373Y37365D01*
X21956Y38861D01*
X28844Y38861D01*
X34427Y37365D01*
X34443Y37363D01*
X34458Y37357D01*
X34624Y37339D01*
X50039Y37339D01*
X50039Y21924D01*
X50041Y21909D01*
X50039Y21893D01*
X50065Y21727D01*
X51561Y16144D01*
X51561Y9256D01*
X50065Y3673D01*
X50063Y3657D01*
X50057Y3642D01*
X50039Y3476D01*
X50039Y-1740D01*
X50042Y-1760D01*
X50040Y-1779D01*
X50062Y-1881D01*
X50079Y-1983D01*
X50088Y-2000D01*
X50092Y-2020D01*
X50145Y-2109D01*
X50194Y-2200D01*
X50208Y-2214D01*
X50218Y-2231D01*
X50297Y-2298D01*
X50372Y-2369D01*
X50390Y-2378D01*
X50405Y-2391D01*
X50501Y-2430D01*
X50595Y-2473D01*
X50615Y-2475D01*
X50633Y-2483D01*
X50800Y-2501D01*
X355600Y-2501D01*
X355620Y-2498D01*
G37*
%LPC*%
G36*
X161518Y75575D02*
X161518Y75575D01*
X160625Y76468D01*
X160625Y98552D01*
X160622Y98572D01*
X160624Y98591D01*
X160602Y98693D01*
X160586Y98795D01*
X160576Y98812D01*
X160572Y98832D01*
X160519Y98921D01*
X160470Y99012D01*
X160456Y99026D01*
X160446Y99043D01*
X160367Y99110D01*
X160292Y99182D01*
X160274Y99190D01*
X160259Y99203D01*
X160163Y99242D01*
X160069Y99285D01*
X160049Y99287D01*
X160031Y99295D01*
X159864Y99313D01*
X149526Y99313D01*
X149506Y99310D01*
X149487Y99312D01*
X149385Y99290D01*
X149283Y99274D01*
X149266Y99264D01*
X149246Y99260D01*
X149157Y99207D01*
X149066Y99158D01*
X149052Y99144D01*
X149035Y99134D01*
X148968Y99055D01*
X148896Y98980D01*
X148888Y98962D01*
X148875Y98947D01*
X148836Y98851D01*
X148793Y98757D01*
X148791Y98737D01*
X148783Y98719D01*
X148765Y98552D01*
X148765Y97845D01*
X143455Y92535D01*
X135945Y92535D01*
X130635Y97845D01*
X130635Y105355D01*
X135945Y110665D01*
X143455Y110665D01*
X148765Y105355D01*
X148765Y104648D01*
X148768Y104628D01*
X148766Y104609D01*
X148788Y104507D01*
X148804Y104405D01*
X148814Y104388D01*
X148818Y104368D01*
X148871Y104279D01*
X148920Y104188D01*
X148934Y104174D01*
X148944Y104157D01*
X149023Y104090D01*
X149098Y104018D01*
X149116Y104010D01*
X149131Y103997D01*
X149227Y103958D01*
X149321Y103915D01*
X149341Y103913D01*
X149359Y103905D01*
X149526Y103887D01*
X159864Y103887D01*
X159884Y103890D01*
X159903Y103888D01*
X160005Y103910D01*
X160107Y103926D01*
X160124Y103936D01*
X160144Y103940D01*
X160233Y103993D01*
X160324Y104042D01*
X160338Y104056D01*
X160355Y104066D01*
X160422Y104145D01*
X160494Y104220D01*
X160502Y104238D01*
X160515Y104253D01*
X160554Y104349D01*
X160597Y104443D01*
X160599Y104463D01*
X160607Y104481D01*
X160625Y104648D01*
X160625Y126732D01*
X161518Y127625D01*
X188352Y127625D01*
X188372Y127628D01*
X188391Y127626D01*
X188493Y127648D01*
X188595Y127664D01*
X188612Y127674D01*
X188632Y127678D01*
X188721Y127731D01*
X188812Y127780D01*
X188826Y127794D01*
X188843Y127804D01*
X188910Y127883D01*
X188982Y127958D01*
X188990Y127976D01*
X189003Y127991D01*
X189042Y128087D01*
X189085Y128181D01*
X189087Y128201D01*
X189095Y128219D01*
X189113Y128386D01*
X189113Y151014D01*
X189110Y151034D01*
X189112Y151053D01*
X189090Y151155D01*
X189074Y151257D01*
X189064Y151274D01*
X189060Y151294D01*
X189007Y151383D01*
X188958Y151474D01*
X188944Y151488D01*
X188934Y151505D01*
X188855Y151572D01*
X188780Y151644D01*
X188762Y151652D01*
X188747Y151665D01*
X188651Y151704D01*
X188557Y151747D01*
X188537Y151749D01*
X188519Y151757D01*
X188352Y151775D01*
X161518Y151775D01*
X160625Y152668D01*
X160625Y202932D01*
X161518Y203825D01*
X221282Y203825D01*
X222175Y202932D01*
X222175Y152668D01*
X221282Y151775D01*
X194448Y151775D01*
X194428Y151772D01*
X194409Y151774D01*
X194307Y151752D01*
X194205Y151736D01*
X194188Y151726D01*
X194168Y151722D01*
X194079Y151669D01*
X193988Y151620D01*
X193974Y151606D01*
X193957Y151596D01*
X193890Y151517D01*
X193818Y151442D01*
X193810Y151424D01*
X193797Y151409D01*
X193758Y151313D01*
X193715Y151219D01*
X193713Y151199D01*
X193705Y151181D01*
X193687Y151014D01*
X193687Y128386D01*
X193690Y128366D01*
X193688Y128347D01*
X193710Y128245D01*
X193726Y128143D01*
X193736Y128126D01*
X193740Y128106D01*
X193793Y128017D01*
X193842Y127926D01*
X193856Y127912D01*
X193866Y127895D01*
X193945Y127828D01*
X194020Y127756D01*
X194038Y127748D01*
X194053Y127735D01*
X194149Y127696D01*
X194243Y127653D01*
X194263Y127651D01*
X194281Y127643D01*
X194448Y127625D01*
X221282Y127625D01*
X222175Y126732D01*
X222175Y76468D01*
X221282Y75575D01*
X161518Y75575D01*
G37*
%LPD*%
%LPC*%
G36*
X299168Y26875D02*
X299168Y26875D01*
X298275Y27768D01*
X298275Y40032D01*
X299168Y40925D01*
X301752Y40925D01*
X301772Y40928D01*
X301791Y40926D01*
X301893Y40948D01*
X301995Y40964D01*
X302012Y40974D01*
X302032Y40978D01*
X302121Y41031D01*
X302212Y41080D01*
X302226Y41094D01*
X302243Y41104D01*
X302310Y41183D01*
X302382Y41258D01*
X302390Y41276D01*
X302403Y41291D01*
X302442Y41387D01*
X302485Y41481D01*
X302487Y41501D01*
X302495Y41519D01*
X302513Y41686D01*
X302513Y64447D01*
X307953Y69887D01*
X308842Y69887D01*
X308912Y69898D01*
X308984Y69900D01*
X309033Y69918D01*
X309084Y69926D01*
X309148Y69960D01*
X309215Y69985D01*
X309256Y70017D01*
X309302Y70042D01*
X309351Y70093D01*
X309407Y70138D01*
X309435Y70182D01*
X309471Y70220D01*
X309501Y70285D01*
X309540Y70345D01*
X309553Y70396D01*
X309575Y70443D01*
X309583Y70514D01*
X309600Y70584D01*
X309596Y70636D01*
X309602Y70687D01*
X309587Y70758D01*
X309581Y70829D01*
X309561Y70877D01*
X309550Y70928D01*
X309513Y70989D01*
X309485Y71055D01*
X309440Y71111D01*
X309423Y71139D01*
X309406Y71154D01*
X309380Y71186D01*
X297086Y83480D01*
X297028Y83522D01*
X296976Y83571D01*
X296929Y83593D01*
X296887Y83623D01*
X296818Y83644D01*
X296753Y83675D01*
X296701Y83680D01*
X296651Y83696D01*
X296580Y83694D01*
X296509Y83702D01*
X296458Y83691D01*
X296406Y83689D01*
X296338Y83665D01*
X296268Y83650D01*
X296224Y83623D01*
X296175Y83605D01*
X296119Y83560D01*
X296057Y83523D01*
X296023Y83484D01*
X295983Y83451D01*
X295944Y83391D01*
X295897Y83336D01*
X295878Y83288D01*
X295850Y83244D01*
X295832Y83175D01*
X295805Y83108D01*
X295797Y83037D01*
X295789Y83006D01*
X295791Y82982D01*
X295787Y82942D01*
X295787Y76653D01*
X267647Y48513D01*
X255263Y48513D01*
X255172Y48499D01*
X255082Y48491D01*
X255052Y48479D01*
X255020Y48474D01*
X254939Y48431D01*
X254855Y48395D01*
X254823Y48369D01*
X254802Y48358D01*
X254793Y48348D01*
X254792Y48348D01*
X254778Y48333D01*
X254724Y48290D01*
X249338Y42904D01*
X249285Y42830D01*
X249225Y42760D01*
X249213Y42730D01*
X249194Y42704D01*
X249167Y42617D01*
X249133Y42532D01*
X249129Y42491D01*
X249122Y42469D01*
X249123Y42437D01*
X249115Y42365D01*
X249115Y31178D01*
X248222Y30285D01*
X234378Y30285D01*
X233485Y31178D01*
X233485Y45022D01*
X234378Y45915D01*
X245565Y45915D01*
X245656Y45929D01*
X245746Y45937D01*
X245776Y45949D01*
X245808Y45954D01*
X245889Y45997D01*
X245973Y46033D01*
X246005Y46059D01*
X246026Y46070D01*
X246048Y46093D01*
X246104Y46138D01*
X253053Y53087D01*
X265437Y53087D01*
X265528Y53101D01*
X265618Y53109D01*
X265648Y53121D01*
X265680Y53126D01*
X265761Y53169D01*
X265845Y53205D01*
X265877Y53231D01*
X265898Y53242D01*
X265920Y53265D01*
X265976Y53310D01*
X290990Y78324D01*
X291043Y78398D01*
X291103Y78468D01*
X291115Y78498D01*
X291134Y78524D01*
X291161Y78611D01*
X291195Y78696D01*
X291199Y78737D01*
X291206Y78759D01*
X291205Y78791D01*
X291213Y78863D01*
X291213Y89038D01*
X291199Y89128D01*
X291191Y89219D01*
X291179Y89248D01*
X291174Y89280D01*
X291131Y89361D01*
X291095Y89445D01*
X291069Y89477D01*
X291058Y89498D01*
X291035Y89520D01*
X290990Y89576D01*
X262914Y117652D01*
X262840Y117705D01*
X262770Y117765D01*
X262740Y117777D01*
X262714Y117796D01*
X262627Y117823D01*
X262542Y117857D01*
X262501Y117861D01*
X262479Y117868D01*
X262447Y117867D01*
X262376Y117875D01*
X248268Y117875D01*
X247375Y118768D01*
X247375Y130032D01*
X248268Y130925D01*
X270532Y130925D01*
X271425Y130032D01*
X271425Y118768D01*
X270383Y117727D01*
X270372Y117711D01*
X270356Y117698D01*
X270300Y117611D01*
X270240Y117527D01*
X270234Y117508D01*
X270223Y117492D01*
X270198Y117391D01*
X270167Y117292D01*
X270168Y117272D01*
X270163Y117253D01*
X270171Y117150D01*
X270174Y117046D01*
X270181Y117028D01*
X270182Y117008D01*
X270223Y116913D01*
X270258Y116815D01*
X270271Y116800D01*
X270279Y116781D01*
X270383Y116651D01*
X294224Y92810D01*
X296010Y91024D01*
X316924Y70110D01*
X316998Y70057D01*
X317068Y69997D01*
X317098Y69985D01*
X317124Y69966D01*
X317211Y69939D01*
X317296Y69905D01*
X317337Y69901D01*
X317359Y69894D01*
X317391Y69895D01*
X317462Y69887D01*
X327838Y69887D01*
X327952Y69906D01*
X328069Y69923D01*
X328074Y69925D01*
X328080Y69926D01*
X328183Y69981D01*
X328288Y70034D01*
X328292Y70039D01*
X328298Y70042D01*
X328378Y70126D01*
X328460Y70210D01*
X328464Y70216D01*
X328467Y70220D01*
X328475Y70237D01*
X328541Y70357D01*
X330748Y75686D01*
X334764Y79702D01*
X340011Y81875D01*
X371189Y81875D01*
X376436Y79702D01*
X380452Y75686D01*
X382625Y70439D01*
X382625Y64761D01*
X380452Y59514D01*
X376436Y55498D01*
X371189Y53325D01*
X340011Y53325D01*
X334764Y55498D01*
X330748Y59514D01*
X328541Y64843D01*
X328479Y64943D01*
X328419Y65043D01*
X328415Y65047D01*
X328411Y65052D01*
X328322Y65127D01*
X328233Y65203D01*
X328227Y65205D01*
X328222Y65209D01*
X328114Y65251D01*
X328004Y65295D01*
X327997Y65296D01*
X327992Y65297D01*
X327974Y65298D01*
X327838Y65313D01*
X310163Y65313D01*
X310072Y65299D01*
X309982Y65291D01*
X309952Y65279D01*
X309920Y65274D01*
X309839Y65231D01*
X309755Y65195D01*
X309723Y65169D01*
X309702Y65158D01*
X309680Y65135D01*
X309624Y65090D01*
X307310Y62776D01*
X307257Y62702D01*
X307197Y62632D01*
X307185Y62602D01*
X307166Y62576D01*
X307139Y62489D01*
X307105Y62404D01*
X307101Y62363D01*
X307094Y62341D01*
X307095Y62309D01*
X307087Y62237D01*
X307087Y41686D01*
X307090Y41666D01*
X307088Y41647D01*
X307110Y41545D01*
X307126Y41443D01*
X307136Y41426D01*
X307140Y41406D01*
X307193Y41317D01*
X307242Y41226D01*
X307256Y41212D01*
X307266Y41195D01*
X307345Y41128D01*
X307420Y41056D01*
X307438Y41048D01*
X307453Y41035D01*
X307549Y40996D01*
X307643Y40953D01*
X307663Y40951D01*
X307681Y40943D01*
X307848Y40925D01*
X310432Y40925D01*
X311325Y40032D01*
X311325Y27768D01*
X310432Y26875D01*
X299168Y26875D01*
G37*
%LPD*%
%LPC*%
G36*
X35211Y92925D02*
X35211Y92925D01*
X29964Y95098D01*
X25948Y99114D01*
X23775Y104361D01*
X23775Y110039D01*
X25948Y115286D01*
X29964Y119302D01*
X35211Y121475D01*
X66389Y121475D01*
X71636Y119302D01*
X75652Y115286D01*
X77825Y110039D01*
X77825Y104648D01*
X77828Y104628D01*
X77826Y104609D01*
X77848Y104507D01*
X77864Y104405D01*
X77874Y104388D01*
X77878Y104368D01*
X77931Y104279D01*
X77980Y104188D01*
X77994Y104174D01*
X78004Y104157D01*
X78083Y104090D01*
X78158Y104018D01*
X78176Y104010D01*
X78191Y103997D01*
X78287Y103958D01*
X78381Y103915D01*
X78401Y103913D01*
X78419Y103905D01*
X78586Y103887D01*
X87637Y103887D01*
X87728Y103901D01*
X87818Y103909D01*
X87848Y103921D01*
X87880Y103926D01*
X87961Y103969D01*
X88045Y104005D01*
X88077Y104031D01*
X88098Y104042D01*
X88120Y104065D01*
X88176Y104110D01*
X111790Y127724D01*
X111843Y127798D01*
X111903Y127868D01*
X111915Y127898D01*
X111934Y127924D01*
X111961Y128011D01*
X111995Y128096D01*
X111999Y128137D01*
X112006Y128159D01*
X112005Y128191D01*
X112013Y128263D01*
X112013Y153347D01*
X113576Y154910D01*
X131135Y172469D01*
X131147Y172485D01*
X131162Y172498D01*
X131218Y172585D01*
X131279Y172669D01*
X131284Y172688D01*
X131295Y172705D01*
X131321Y172805D01*
X131351Y172904D01*
X131350Y172924D01*
X131355Y172943D01*
X131347Y173046D01*
X131345Y173150D01*
X131338Y173168D01*
X131336Y173188D01*
X131296Y173283D01*
X131260Y173381D01*
X131248Y173396D01*
X131240Y173415D01*
X131135Y173546D01*
X130635Y174045D01*
X130635Y181555D01*
X135945Y186865D01*
X143455Y186865D01*
X148765Y181555D01*
X148765Y174045D01*
X143455Y168735D01*
X135945Y168735D01*
X135446Y169235D01*
X135429Y169247D01*
X135417Y169262D01*
X135330Y169318D01*
X135246Y169379D01*
X135227Y169384D01*
X135210Y169395D01*
X135110Y169421D01*
X135011Y169451D01*
X134991Y169450D01*
X134971Y169455D01*
X134868Y169447D01*
X134765Y169445D01*
X134746Y169438D01*
X134726Y169436D01*
X134631Y169396D01*
X134534Y169360D01*
X134518Y169348D01*
X134500Y169340D01*
X134369Y169235D01*
X116810Y151676D01*
X116757Y151602D01*
X116697Y151532D01*
X116685Y151502D01*
X116666Y151476D01*
X116639Y151389D01*
X116605Y151304D01*
X116601Y151263D01*
X116594Y151241D01*
X116595Y151209D01*
X116587Y151137D01*
X116587Y126053D01*
X89847Y99313D01*
X76166Y99313D01*
X76076Y99299D01*
X75985Y99291D01*
X75955Y99279D01*
X75923Y99274D01*
X75843Y99231D01*
X75759Y99195D01*
X75727Y99169D01*
X75706Y99158D01*
X75684Y99135D01*
X75628Y99090D01*
X71636Y95098D01*
X66389Y92925D01*
X35211Y92925D01*
G37*
%LPD*%
%LPC*%
G36*
X35211Y132525D02*
X35211Y132525D01*
X29964Y134698D01*
X25948Y138714D01*
X23775Y143961D01*
X23775Y149639D01*
X25948Y154886D01*
X29964Y158902D01*
X35211Y161075D01*
X66389Y161075D01*
X71636Y158902D01*
X75652Y154886D01*
X77825Y149639D01*
X77825Y146396D01*
X77836Y146326D01*
X77838Y146254D01*
X77856Y146205D01*
X77864Y146154D01*
X77898Y146090D01*
X77923Y146023D01*
X77955Y145982D01*
X77980Y145936D01*
X78031Y145887D01*
X78076Y145831D01*
X78120Y145803D01*
X78158Y145767D01*
X78223Y145737D01*
X78283Y145698D01*
X78334Y145685D01*
X78381Y145663D01*
X78452Y145655D01*
X78522Y145638D01*
X78574Y145642D01*
X78625Y145636D01*
X78696Y145651D01*
X78767Y145657D01*
X78815Y145677D01*
X78866Y145688D01*
X78927Y145725D01*
X78993Y145753D01*
X79049Y145798D01*
X79077Y145815D01*
X79092Y145832D01*
X79124Y145858D01*
X131135Y197869D01*
X131147Y197885D01*
X131162Y197898D01*
X131218Y197985D01*
X131279Y198069D01*
X131284Y198088D01*
X131295Y198105D01*
X131321Y198205D01*
X131351Y198304D01*
X131350Y198324D01*
X131355Y198343D01*
X131347Y198446D01*
X131345Y198550D01*
X131338Y198568D01*
X131336Y198588D01*
X131296Y198683D01*
X131260Y198781D01*
X131248Y198796D01*
X131240Y198815D01*
X131135Y198946D01*
X130635Y199445D01*
X130635Y206955D01*
X135945Y212265D01*
X143455Y212265D01*
X148765Y206955D01*
X148765Y199445D01*
X143455Y194135D01*
X135945Y194135D01*
X135446Y194635D01*
X135429Y194647D01*
X135417Y194662D01*
X135330Y194718D01*
X135246Y194779D01*
X135227Y194784D01*
X135210Y194795D01*
X135110Y194821D01*
X135011Y194851D01*
X134991Y194850D01*
X134971Y194855D01*
X134868Y194847D01*
X134765Y194845D01*
X134746Y194838D01*
X134726Y194836D01*
X134631Y194796D01*
X134534Y194760D01*
X134518Y194748D01*
X134500Y194740D01*
X134369Y194635D01*
X77147Y137413D01*
X74666Y137413D01*
X74576Y137399D01*
X74485Y137391D01*
X74455Y137379D01*
X74423Y137374D01*
X74343Y137331D01*
X74259Y137295D01*
X74227Y137269D01*
X74206Y137258D01*
X74184Y137235D01*
X74128Y137190D01*
X71636Y134698D01*
X66389Y132525D01*
X35211Y132525D01*
G37*
%LPD*%
%LPC*%
G36*
X289902Y108993D02*
X289902Y108993D01*
X286793Y112102D01*
X286793Y116498D01*
X289590Y119295D01*
X289643Y119369D01*
X289703Y119439D01*
X289715Y119469D01*
X289734Y119495D01*
X289761Y119582D01*
X289795Y119667D01*
X289799Y119708D01*
X289806Y119730D01*
X289805Y119762D01*
X289813Y119833D01*
X289813Y208542D01*
X289802Y208612D01*
X289800Y208684D01*
X289782Y208733D01*
X289774Y208784D01*
X289740Y208848D01*
X289715Y208915D01*
X289683Y208956D01*
X289658Y209002D01*
X289606Y209051D01*
X289562Y209107D01*
X289518Y209135D01*
X289480Y209171D01*
X289415Y209201D01*
X289355Y209240D01*
X289304Y209253D01*
X289257Y209275D01*
X289186Y209283D01*
X289116Y209300D01*
X289064Y209296D01*
X289013Y209302D01*
X288942Y209287D01*
X288871Y209281D01*
X288823Y209261D01*
X288772Y209250D01*
X288711Y209213D01*
X288645Y209185D01*
X288589Y209140D01*
X288561Y209123D01*
X288546Y209106D01*
X288514Y209080D01*
X279310Y199876D01*
X277747Y198313D01*
X272186Y198313D01*
X272166Y198310D01*
X272147Y198312D01*
X272045Y198290D01*
X271943Y198274D01*
X271926Y198264D01*
X271906Y198260D01*
X271817Y198207D01*
X271726Y198158D01*
X271712Y198144D01*
X271695Y198134D01*
X271628Y198055D01*
X271556Y197980D01*
X271548Y197962D01*
X271535Y197947D01*
X271496Y197851D01*
X271453Y197757D01*
X271451Y197737D01*
X271443Y197719D01*
X271425Y197552D01*
X271425Y194968D01*
X270532Y194075D01*
X248268Y194075D01*
X247375Y194968D01*
X247375Y206232D01*
X248268Y207125D01*
X256352Y207125D01*
X256372Y207128D01*
X256391Y207126D01*
X256493Y207148D01*
X256595Y207164D01*
X256612Y207174D01*
X256632Y207178D01*
X256721Y207231D01*
X256812Y207280D01*
X256826Y207294D01*
X256843Y207304D01*
X256910Y207383D01*
X256982Y207458D01*
X256990Y207476D01*
X257003Y207491D01*
X257042Y207587D01*
X257085Y207681D01*
X257087Y207701D01*
X257095Y207719D01*
X257113Y207886D01*
X257113Y221937D01*
X257099Y222028D01*
X257091Y222118D01*
X257079Y222148D01*
X257074Y222180D01*
X257031Y222261D01*
X256995Y222345D01*
X256969Y222377D01*
X256958Y222398D01*
X256935Y222420D01*
X256890Y222476D01*
X246104Y233262D01*
X246030Y233315D01*
X245960Y233375D01*
X245930Y233387D01*
X245904Y233406D01*
X245817Y233433D01*
X245732Y233467D01*
X245691Y233471D01*
X245669Y233478D01*
X245637Y233477D01*
X245566Y233485D01*
X234378Y233485D01*
X233485Y234378D01*
X233485Y248222D01*
X234378Y249115D01*
X248222Y249115D01*
X249115Y248222D01*
X249115Y237034D01*
X249129Y236944D01*
X249137Y236853D01*
X249149Y236824D01*
X249154Y236792D01*
X249197Y236711D01*
X249233Y236627D01*
X249259Y236595D01*
X249270Y236574D01*
X249293Y236552D01*
X249338Y236496D01*
X260124Y225710D01*
X261687Y224147D01*
X261687Y207886D01*
X261690Y207866D01*
X261688Y207847D01*
X261710Y207745D01*
X261726Y207643D01*
X261736Y207626D01*
X261740Y207606D01*
X261793Y207517D01*
X261842Y207426D01*
X261856Y207412D01*
X261866Y207395D01*
X261945Y207328D01*
X262020Y207256D01*
X262038Y207248D01*
X262053Y207235D01*
X262149Y207196D01*
X262243Y207153D01*
X262263Y207151D01*
X262281Y207143D01*
X262448Y207125D01*
X270532Y207125D01*
X271425Y206232D01*
X271425Y203648D01*
X271428Y203628D01*
X271426Y203609D01*
X271448Y203507D01*
X271464Y203405D01*
X271474Y203388D01*
X271478Y203368D01*
X271531Y203279D01*
X271580Y203188D01*
X271594Y203174D01*
X271604Y203157D01*
X271683Y203090D01*
X271758Y203018D01*
X271776Y203010D01*
X271791Y202997D01*
X271887Y202958D01*
X271981Y202915D01*
X272001Y202913D01*
X272019Y202905D01*
X272186Y202887D01*
X275537Y202887D01*
X275628Y202901D01*
X275718Y202909D01*
X275748Y202921D01*
X275780Y202926D01*
X275861Y202969D01*
X275945Y203005D01*
X275977Y203031D01*
X275998Y203042D01*
X276020Y203065D01*
X276076Y203110D01*
X289590Y216624D01*
X289643Y216698D01*
X289703Y216768D01*
X289715Y216798D01*
X289734Y216824D01*
X289761Y216911D01*
X289795Y216996D01*
X289799Y217037D01*
X289806Y217059D01*
X289805Y217091D01*
X289813Y217163D01*
X289813Y237714D01*
X289810Y237734D01*
X289812Y237753D01*
X289790Y237855D01*
X289774Y237957D01*
X289764Y237974D01*
X289760Y237994D01*
X289707Y238083D01*
X289658Y238174D01*
X289644Y238188D01*
X289634Y238205D01*
X289555Y238272D01*
X289480Y238344D01*
X289462Y238352D01*
X289447Y238365D01*
X289351Y238404D01*
X289257Y238447D01*
X289237Y238449D01*
X289219Y238457D01*
X289052Y238475D01*
X286468Y238475D01*
X285575Y239368D01*
X285575Y251632D01*
X286468Y252525D01*
X297732Y252525D01*
X298625Y251632D01*
X298625Y239368D01*
X297732Y238475D01*
X295148Y238475D01*
X295128Y238472D01*
X295109Y238474D01*
X295007Y238452D01*
X294905Y238436D01*
X294888Y238426D01*
X294868Y238422D01*
X294779Y238369D01*
X294688Y238320D01*
X294674Y238306D01*
X294657Y238296D01*
X294590Y238217D01*
X294518Y238142D01*
X294510Y238124D01*
X294497Y238109D01*
X294458Y238013D01*
X294415Y237919D01*
X294413Y237899D01*
X294405Y237881D01*
X294387Y237714D01*
X294387Y119833D01*
X294401Y119743D01*
X294409Y119652D01*
X294421Y119623D01*
X294426Y119591D01*
X294469Y119510D01*
X294505Y119426D01*
X294531Y119394D01*
X294542Y119373D01*
X294565Y119351D01*
X294610Y119295D01*
X297407Y116498D01*
X297407Y112102D01*
X294298Y108993D01*
X289902Y108993D01*
G37*
%LPD*%
%LPC*%
G36*
X35211Y53325D02*
X35211Y53325D01*
X29964Y55498D01*
X25948Y59514D01*
X23775Y64761D01*
X23775Y70439D01*
X25948Y75686D01*
X29964Y79702D01*
X35211Y81875D01*
X66389Y81875D01*
X71636Y79702D01*
X75652Y75686D01*
X77825Y70439D01*
X77825Y64761D01*
X75652Y59514D01*
X71636Y55498D01*
X66389Y53325D01*
X35211Y53325D01*
G37*
%LPD*%
%LPC*%
G36*
X340011Y132525D02*
X340011Y132525D01*
X334764Y134698D01*
X330748Y138714D01*
X328575Y143961D01*
X328575Y149639D01*
X330748Y154886D01*
X334764Y158902D01*
X340011Y161075D01*
X371189Y161075D01*
X376436Y158902D01*
X380452Y154886D01*
X382625Y149639D01*
X382625Y143961D01*
X380452Y138714D01*
X376436Y134698D01*
X371189Y132525D01*
X340011Y132525D01*
G37*
%LPD*%
%LPC*%
G36*
X340011Y92925D02*
X340011Y92925D01*
X334764Y95098D01*
X330748Y99114D01*
X328575Y104361D01*
X328575Y110039D01*
X330748Y115286D01*
X334764Y119302D01*
X340011Y121475D01*
X371189Y121475D01*
X376436Y119302D01*
X380452Y115286D01*
X382625Y110039D01*
X382625Y104361D01*
X380452Y99114D01*
X376436Y95098D01*
X371189Y92925D01*
X340011Y92925D01*
G37*
%LPD*%
%LPC*%
G36*
X340011Y172125D02*
X340011Y172125D01*
X334764Y174298D01*
X330748Y178314D01*
X328575Y183561D01*
X328575Y189239D01*
X330748Y194486D01*
X334764Y198502D01*
X340011Y200675D01*
X371189Y200675D01*
X376436Y198502D01*
X380452Y194486D01*
X382625Y189239D01*
X382625Y183561D01*
X380452Y178314D01*
X376436Y174298D01*
X371189Y172125D01*
X340011Y172125D01*
G37*
%LPD*%
%LPC*%
G36*
X71568Y212075D02*
X71568Y212075D01*
X70675Y212968D01*
X70675Y222232D01*
X71568Y223125D01*
X78175Y223125D01*
X78266Y223139D01*
X78356Y223147D01*
X78386Y223159D01*
X78418Y223164D01*
X78499Y223207D01*
X78583Y223243D01*
X78615Y223269D01*
X78636Y223280D01*
X78658Y223303D01*
X78714Y223348D01*
X86390Y231024D01*
X86443Y231098D01*
X86503Y231168D01*
X86515Y231198D01*
X86534Y231224D01*
X86561Y231311D01*
X86595Y231396D01*
X86599Y231437D01*
X86606Y231459D01*
X86605Y231491D01*
X86613Y231563D01*
X86613Y235767D01*
X86608Y235801D01*
X86609Y235810D01*
X86599Y235855D01*
X86599Y235857D01*
X86591Y235948D01*
X86579Y235977D01*
X86574Y236009D01*
X86559Y236036D01*
X86556Y236050D01*
X86527Y236100D01*
X86495Y236174D01*
X86469Y236206D01*
X86458Y236227D01*
X86441Y236244D01*
X86430Y236261D01*
X86415Y236274D01*
X86390Y236305D01*
X84040Y238655D01*
X83982Y238697D01*
X83930Y238746D01*
X83883Y238768D01*
X83841Y238798D01*
X83772Y238820D01*
X83707Y238850D01*
X83655Y238855D01*
X83605Y238871D01*
X83534Y238869D01*
X83463Y238877D01*
X83412Y238866D01*
X83360Y238864D01*
X83292Y238840D01*
X83222Y238825D01*
X83177Y238798D01*
X83129Y238780D01*
X83073Y238735D01*
X83011Y238698D01*
X82977Y238659D01*
X82937Y238626D01*
X82898Y238566D01*
X82851Y238511D01*
X82832Y238463D01*
X82804Y238419D01*
X82786Y238350D01*
X82759Y238283D01*
X82751Y238212D01*
X82743Y238181D01*
X82745Y238158D01*
X82741Y238117D01*
X82741Y235266D01*
X82568Y234619D01*
X82233Y234040D01*
X81760Y233567D01*
X81181Y233232D01*
X80534Y233059D01*
X77723Y233059D01*
X77723Y238838D01*
X77721Y238848D01*
X77722Y238855D01*
X77720Y238862D01*
X77722Y238877D01*
X77700Y238979D01*
X77683Y239081D01*
X77674Y239098D01*
X77670Y239118D01*
X77617Y239207D01*
X77568Y239298D01*
X77554Y239312D01*
X77544Y239329D01*
X77465Y239396D01*
X77390Y239467D01*
X77372Y239476D01*
X77357Y239489D01*
X77261Y239528D01*
X77167Y239571D01*
X77147Y239573D01*
X77129Y239581D01*
X76962Y239599D01*
X76199Y239599D01*
X76199Y239601D01*
X76962Y239601D01*
X76982Y239604D01*
X77001Y239602D01*
X77103Y239624D01*
X77205Y239641D01*
X77222Y239650D01*
X77242Y239654D01*
X77331Y239707D01*
X77422Y239756D01*
X77436Y239770D01*
X77453Y239780D01*
X77520Y239859D01*
X77591Y239934D01*
X77600Y239952D01*
X77613Y239967D01*
X77652Y240063D01*
X77695Y240157D01*
X77697Y240177D01*
X77705Y240195D01*
X77723Y240362D01*
X77723Y246141D01*
X80534Y246141D01*
X81181Y245968D01*
X81760Y245633D01*
X82233Y245160D01*
X82568Y244581D01*
X82672Y244192D01*
X82711Y244105D01*
X82744Y244015D01*
X82761Y243993D01*
X82773Y243967D01*
X82838Y243898D01*
X82897Y243823D01*
X82921Y243808D01*
X82940Y243787D01*
X83024Y243742D01*
X83104Y243690D01*
X83132Y243683D01*
X83157Y243670D01*
X83250Y243653D01*
X83343Y243630D01*
X83371Y243632D01*
X83399Y243627D01*
X83493Y243642D01*
X83588Y243649D01*
X83614Y243660D01*
X83642Y243664D01*
X83727Y243708D01*
X83814Y243745D01*
X83842Y243768D01*
X83861Y243777D01*
X83884Y243801D01*
X83945Y243850D01*
X86702Y246607D01*
X91098Y246607D01*
X93895Y243810D01*
X93969Y243757D01*
X94039Y243697D01*
X94069Y243685D01*
X94095Y243666D01*
X94182Y243639D01*
X94267Y243605D01*
X94308Y243601D01*
X94330Y243594D01*
X94362Y243595D01*
X94433Y243587D01*
X107815Y243587D01*
X107905Y243601D01*
X107996Y243609D01*
X108026Y243621D01*
X108058Y243626D01*
X108139Y243669D01*
X108222Y243705D01*
X108255Y243731D01*
X108275Y243742D01*
X108297Y243765D01*
X108353Y243810D01*
X108668Y244125D01*
X119932Y244125D01*
X120825Y243232D01*
X120825Y230968D01*
X119932Y230075D01*
X108668Y230075D01*
X107775Y230968D01*
X107775Y238252D01*
X107772Y238272D01*
X107774Y238291D01*
X107752Y238393D01*
X107736Y238495D01*
X107726Y238512D01*
X107722Y238532D01*
X107669Y238621D01*
X107620Y238712D01*
X107606Y238726D01*
X107596Y238743D01*
X107517Y238810D01*
X107442Y238882D01*
X107424Y238890D01*
X107409Y238903D01*
X107313Y238942D01*
X107219Y238985D01*
X107199Y238987D01*
X107181Y238995D01*
X107014Y239013D01*
X94433Y239013D01*
X94343Y238999D01*
X94252Y238991D01*
X94223Y238979D01*
X94191Y238974D01*
X94110Y238931D01*
X94026Y238895D01*
X93994Y238869D01*
X93973Y238858D01*
X93951Y238835D01*
X93895Y238790D01*
X91410Y236305D01*
X91367Y236246D01*
X91322Y236198D01*
X91314Y236181D01*
X91297Y236161D01*
X91285Y236131D01*
X91266Y236105D01*
X91241Y236024D01*
X91218Y235975D01*
X91217Y235963D01*
X91205Y235933D01*
X91201Y235892D01*
X91194Y235870D01*
X91195Y235838D01*
X91187Y235767D01*
X91187Y229353D01*
X81948Y220114D01*
X81895Y220040D01*
X81835Y219970D01*
X81823Y219940D01*
X81804Y219914D01*
X81777Y219827D01*
X81743Y219742D01*
X81739Y219701D01*
X81732Y219679D01*
X81733Y219647D01*
X81725Y219575D01*
X81725Y212968D01*
X80832Y212075D01*
X71568Y212075D01*
G37*
%LPD*%
%LPC*%
G36*
X286468Y255475D02*
X286468Y255475D01*
X285575Y256368D01*
X285575Y268632D01*
X286468Y269525D01*
X297732Y269525D01*
X298047Y269210D01*
X298121Y269157D01*
X298190Y269097D01*
X298220Y269085D01*
X298246Y269066D01*
X298333Y269039D01*
X298418Y269005D01*
X298459Y269001D01*
X298481Y268994D01*
X298514Y268995D01*
X298585Y268987D01*
X311967Y268987D01*
X312057Y269001D01*
X312148Y269009D01*
X312177Y269021D01*
X312209Y269026D01*
X312290Y269069D01*
X312374Y269105D01*
X312406Y269131D01*
X312427Y269142D01*
X312449Y269165D01*
X312505Y269210D01*
X315302Y272007D01*
X319698Y272007D01*
X322495Y269210D01*
X322569Y269157D01*
X322639Y269097D01*
X322669Y269085D01*
X322695Y269066D01*
X322782Y269039D01*
X322867Y269005D01*
X322908Y269001D01*
X322930Y268994D01*
X322962Y268995D01*
X323033Y268987D01*
X323914Y268987D01*
X323934Y268990D01*
X323953Y268988D01*
X324055Y269010D01*
X324157Y269026D01*
X324174Y269036D01*
X324194Y269040D01*
X324283Y269093D01*
X324374Y269142D01*
X324388Y269156D01*
X324405Y269166D01*
X324472Y269245D01*
X324544Y269320D01*
X324552Y269338D01*
X324565Y269353D01*
X324604Y269449D01*
X324647Y269543D01*
X324649Y269563D01*
X324657Y269581D01*
X324661Y269617D01*
X325568Y270525D01*
X334832Y270525D01*
X335725Y269632D01*
X335725Y260368D01*
X334832Y259475D01*
X325568Y259475D01*
X324675Y260368D01*
X324675Y263652D01*
X324672Y263672D01*
X324674Y263691D01*
X324652Y263793D01*
X324636Y263895D01*
X324626Y263912D01*
X324622Y263932D01*
X324569Y264021D01*
X324520Y264112D01*
X324506Y264126D01*
X324496Y264143D01*
X324417Y264210D01*
X324342Y264282D01*
X324324Y264290D01*
X324309Y264303D01*
X324213Y264342D01*
X324119Y264385D01*
X324099Y264387D01*
X324081Y264395D01*
X323914Y264413D01*
X323033Y264413D01*
X322943Y264399D01*
X322852Y264391D01*
X322823Y264379D01*
X322791Y264374D01*
X322710Y264331D01*
X322626Y264295D01*
X322594Y264269D01*
X322573Y264258D01*
X322551Y264235D01*
X322495Y264190D01*
X319698Y261393D01*
X315302Y261393D01*
X312505Y264190D01*
X312431Y264243D01*
X312361Y264303D01*
X312331Y264315D01*
X312305Y264334D01*
X312218Y264361D01*
X312133Y264395D01*
X312092Y264399D01*
X312070Y264406D01*
X312038Y264405D01*
X311967Y264413D01*
X299386Y264413D01*
X299366Y264410D01*
X299347Y264412D01*
X299245Y264390D01*
X299143Y264374D01*
X299126Y264364D01*
X299106Y264360D01*
X299017Y264307D01*
X298926Y264258D01*
X298912Y264244D01*
X298895Y264234D01*
X298828Y264155D01*
X298756Y264080D01*
X298748Y264062D01*
X298735Y264047D01*
X298696Y263951D01*
X298653Y263857D01*
X298651Y263837D01*
X298643Y263819D01*
X298625Y263652D01*
X298625Y256368D01*
X297732Y255475D01*
X286468Y255475D01*
G37*
%LPD*%
%LPC*%
G36*
X328002Y7393D02*
X328002Y7393D01*
X325205Y10190D01*
X325131Y10243D01*
X325061Y10303D01*
X325031Y10315D01*
X325005Y10334D01*
X324918Y10361D01*
X324833Y10395D01*
X324792Y10399D01*
X324770Y10406D01*
X324738Y10405D01*
X324667Y10413D01*
X311285Y10413D01*
X311195Y10399D01*
X311104Y10391D01*
X311074Y10379D01*
X311042Y10374D01*
X310962Y10331D01*
X310878Y10295D01*
X310845Y10269D01*
X310825Y10258D01*
X310803Y10235D01*
X310747Y10190D01*
X310432Y9875D01*
X299168Y9875D01*
X298275Y10768D01*
X298275Y23032D01*
X299168Y23925D01*
X310432Y23925D01*
X311325Y23032D01*
X311325Y15748D01*
X311327Y15737D01*
X311326Y15729D01*
X311327Y15722D01*
X311326Y15709D01*
X311348Y15607D01*
X311364Y15505D01*
X311374Y15488D01*
X311378Y15468D01*
X311431Y15379D01*
X311480Y15288D01*
X311494Y15274D01*
X311504Y15257D01*
X311583Y15190D01*
X311658Y15118D01*
X311676Y15110D01*
X311691Y15097D01*
X311787Y15058D01*
X311881Y15015D01*
X311901Y15013D01*
X311919Y15005D01*
X312086Y14987D01*
X324667Y14987D01*
X324757Y15001D01*
X324848Y15009D01*
X324877Y15021D01*
X324909Y15026D01*
X324990Y15069D01*
X325074Y15105D01*
X325106Y15131D01*
X325127Y15142D01*
X325145Y15161D01*
X325148Y15162D01*
X325153Y15168D01*
X325205Y15210D01*
X328002Y18007D01*
X332398Y18007D01*
X335507Y14898D01*
X335507Y10502D01*
X332398Y7393D01*
X328002Y7393D01*
G37*
%LPD*%
%LPC*%
G36*
X52323Y187923D02*
X52323Y187923D01*
X52323Y201691D01*
X64753Y201691D01*
X67131Y201314D01*
X69420Y200570D01*
X71564Y199478D01*
X73511Y198063D01*
X75213Y196361D01*
X76628Y194414D01*
X77720Y192270D01*
X78464Y189981D01*
X78790Y187923D01*
X52323Y187923D01*
G37*
%LPD*%
%LPC*%
G36*
X22810Y187923D02*
X22810Y187923D01*
X23136Y189981D01*
X23880Y192270D01*
X24972Y194414D01*
X26387Y196361D01*
X28089Y198063D01*
X30036Y199478D01*
X32180Y200570D01*
X34469Y201314D01*
X36847Y201691D01*
X49277Y201691D01*
X49277Y187923D01*
X22810Y187923D01*
G37*
%LPD*%
%LPC*%
G36*
X52323Y171109D02*
X52323Y171109D01*
X52323Y184877D01*
X78790Y184877D01*
X78464Y182819D01*
X77720Y180530D01*
X76628Y178386D01*
X75213Y176439D01*
X73511Y174737D01*
X71564Y173322D01*
X69420Y172230D01*
X67131Y171486D01*
X64753Y171109D01*
X52323Y171109D01*
G37*
%LPD*%
%LPC*%
G36*
X36847Y171109D02*
X36847Y171109D01*
X34469Y171486D01*
X32180Y172230D01*
X30036Y173322D01*
X28089Y174737D01*
X26387Y176439D01*
X24972Y178386D01*
X23880Y180530D01*
X23136Y182819D01*
X22810Y184877D01*
X49277Y184877D01*
X49277Y171109D01*
X36847Y171109D01*
G37*
%LPD*%
%LPC*%
G36*
X95968Y26875D02*
X95968Y26875D01*
X95075Y27768D01*
X95075Y40032D01*
X95968Y40925D01*
X105075Y40925D01*
X105166Y40939D01*
X105256Y40947D01*
X105286Y40959D01*
X105318Y40964D01*
X105399Y41007D01*
X105483Y41043D01*
X105515Y41069D01*
X105536Y41080D01*
X105558Y41103D01*
X105614Y41148D01*
X110492Y46026D01*
X110504Y46042D01*
X110520Y46055D01*
X110576Y46142D01*
X110636Y46226D01*
X110642Y46245D01*
X110653Y46262D01*
X110678Y46362D01*
X110708Y46461D01*
X110708Y46481D01*
X110713Y46500D01*
X110705Y46603D01*
X110702Y46707D01*
X110695Y46726D01*
X110693Y46746D01*
X110653Y46840D01*
X110617Y46938D01*
X110605Y46954D01*
X110597Y46972D01*
X110492Y47103D01*
X108993Y48602D01*
X108993Y52998D01*
X112102Y56107D01*
X116498Y56107D01*
X119607Y52998D01*
X119607Y48602D01*
X116413Y45408D01*
X116335Y45375D01*
X116303Y45349D01*
X116282Y45338D01*
X116260Y45315D01*
X116204Y45270D01*
X108348Y37414D01*
X108295Y37340D01*
X108235Y37270D01*
X108223Y37240D01*
X108204Y37214D01*
X108177Y37127D01*
X108143Y37042D01*
X108139Y37001D01*
X108132Y36979D01*
X108133Y36947D01*
X108125Y36875D01*
X108125Y27768D01*
X107232Y26875D01*
X95968Y26875D01*
G37*
%LPD*%
%LPC*%
G36*
X135945Y117935D02*
X135945Y117935D01*
X130635Y123245D01*
X130635Y130755D01*
X135945Y136065D01*
X143455Y136065D01*
X148765Y130755D01*
X148765Y123245D01*
X143455Y117935D01*
X135945Y117935D01*
G37*
%LPD*%
%LPC*%
G36*
X135945Y67135D02*
X135945Y67135D01*
X130635Y72445D01*
X130635Y79955D01*
X135945Y85265D01*
X143455Y85265D01*
X148765Y79955D01*
X148765Y72445D01*
X143455Y67135D01*
X135945Y67135D01*
G37*
%LPD*%
%LPC*%
G36*
X135945Y143335D02*
X135945Y143335D01*
X130635Y148645D01*
X130635Y156155D01*
X135945Y161465D01*
X143455Y161465D01*
X148765Y156155D01*
X148765Y148645D01*
X143455Y143335D01*
X135945Y143335D01*
G37*
%LPD*%
%LPC*%
G36*
X169896Y253485D02*
X169896Y253485D01*
X167023Y254675D01*
X164825Y256873D01*
X163635Y259746D01*
X163635Y262854D01*
X164825Y265727D01*
X167023Y267925D01*
X169896Y269115D01*
X173004Y269115D01*
X175877Y267925D01*
X178075Y265727D01*
X179265Y262854D01*
X179265Y259746D01*
X178075Y256873D01*
X175877Y254675D01*
X173004Y253485D01*
X169896Y253485D01*
G37*
%LPD*%
%LPC*%
G36*
X239746Y253485D02*
X239746Y253485D01*
X236873Y254675D01*
X234675Y256873D01*
X233485Y259746D01*
X233485Y262854D01*
X234675Y265727D01*
X236873Y267925D01*
X239746Y269115D01*
X242854Y269115D01*
X245727Y267925D01*
X247925Y265727D01*
X249115Y262854D01*
X249115Y259746D01*
X247925Y256873D01*
X245727Y254675D01*
X242854Y253485D01*
X239746Y253485D01*
G37*
%LPD*%
%LPC*%
G36*
X239746Y10285D02*
X239746Y10285D01*
X236873Y11475D01*
X234675Y13673D01*
X233485Y16546D01*
X233485Y19654D01*
X234675Y22527D01*
X236873Y24725D01*
X239746Y25915D01*
X242854Y25915D01*
X245727Y24725D01*
X247925Y22527D01*
X249115Y19654D01*
X249115Y16546D01*
X247925Y13673D01*
X245727Y11475D01*
X242854Y10285D01*
X239746Y10285D01*
G37*
%LPD*%
%LPC*%
G36*
X163546Y10285D02*
X163546Y10285D01*
X160673Y11475D01*
X158475Y13673D01*
X157285Y16546D01*
X157285Y19654D01*
X158475Y22527D01*
X160673Y24725D01*
X163546Y25915D01*
X166654Y25915D01*
X169527Y24725D01*
X171725Y22527D01*
X172915Y19654D01*
X172915Y16546D01*
X171725Y13673D01*
X169527Y11475D01*
X166654Y10285D01*
X163546Y10285D01*
G37*
%LPD*%
%LPC*%
G36*
X260923Y156523D02*
X260923Y156523D01*
X260923Y162541D01*
X270234Y162541D01*
X270881Y162368D01*
X271460Y162033D01*
X271933Y161560D01*
X272268Y160981D01*
X272441Y160334D01*
X272441Y156523D01*
X260923Y156523D01*
G37*
%LPD*%
%LPC*%
G36*
X260923Y80323D02*
X260923Y80323D01*
X260923Y86341D01*
X270234Y86341D01*
X270881Y86168D01*
X271460Y85833D01*
X271933Y85360D01*
X272268Y84781D01*
X272441Y84134D01*
X272441Y80323D01*
X260923Y80323D01*
G37*
%LPD*%
%LPC*%
G36*
X246359Y80323D02*
X246359Y80323D01*
X246359Y84134D01*
X246532Y84781D01*
X246867Y85360D01*
X247340Y85833D01*
X247919Y86168D01*
X248566Y86341D01*
X257877Y86341D01*
X257877Y80323D01*
X246359Y80323D01*
G37*
%LPD*%
%LPC*%
G36*
X246359Y156523D02*
X246359Y156523D01*
X246359Y160334D01*
X246532Y160981D01*
X246867Y161560D01*
X247340Y162033D01*
X247919Y162368D01*
X248566Y162541D01*
X257877Y162541D01*
X257877Y156523D01*
X246359Y156523D01*
G37*
%LPD*%
%LPC*%
G36*
X260923Y147459D02*
X260923Y147459D01*
X260923Y153477D01*
X272441Y153477D01*
X272441Y149666D01*
X272268Y149019D01*
X271933Y148440D01*
X271460Y147967D01*
X270881Y147632D01*
X270234Y147459D01*
X260923Y147459D01*
G37*
%LPD*%
%LPC*%
G36*
X260923Y71259D02*
X260923Y71259D01*
X260923Y77277D01*
X272441Y77277D01*
X272441Y73466D01*
X272268Y72819D01*
X271933Y72240D01*
X271460Y71767D01*
X270881Y71432D01*
X270234Y71259D01*
X260923Y71259D01*
G37*
%LPD*%
%LPC*%
G36*
X248566Y71259D02*
X248566Y71259D01*
X247919Y71432D01*
X247340Y71767D01*
X246867Y72240D01*
X246532Y72819D01*
X246359Y73466D01*
X246359Y77277D01*
X257877Y77277D01*
X257877Y71259D01*
X248566Y71259D01*
G37*
%LPD*%
%LPC*%
G36*
X248566Y147459D02*
X248566Y147459D01*
X247919Y147632D01*
X247340Y147967D01*
X246867Y148440D01*
X246532Y149019D01*
X246359Y149666D01*
X246359Y153477D01*
X257877Y153477D01*
X257877Y147459D01*
X248566Y147459D01*
G37*
%LPD*%
%LPC*%
G36*
X166623Y39623D02*
X166623Y39623D01*
X166623Y46931D01*
X171724Y46931D01*
X172371Y46758D01*
X172950Y46423D01*
X173423Y45950D01*
X173758Y45371D01*
X173931Y44724D01*
X173931Y39623D01*
X166623Y39623D01*
G37*
%LPD*%
%LPC*%
G36*
X172973Y242823D02*
X172973Y242823D01*
X172973Y250131D01*
X178074Y250131D01*
X178721Y249958D01*
X179300Y249623D01*
X179773Y249150D01*
X180108Y248571D01*
X180281Y247924D01*
X180281Y242823D01*
X172973Y242823D01*
G37*
%LPD*%
%LPC*%
G36*
X156269Y39623D02*
X156269Y39623D01*
X156269Y44724D01*
X156442Y45371D01*
X156777Y45950D01*
X157250Y46423D01*
X157829Y46758D01*
X158476Y46931D01*
X163577Y46931D01*
X163577Y39623D01*
X156269Y39623D01*
G37*
%LPD*%
%LPC*%
G36*
X166623Y29269D02*
X166623Y29269D01*
X166623Y36577D01*
X173931Y36577D01*
X173931Y31476D01*
X173758Y30829D01*
X173423Y30250D01*
X172950Y29777D01*
X172371Y29442D01*
X171724Y29269D01*
X166623Y29269D01*
G37*
%LPD*%
%LPC*%
G36*
X162619Y242823D02*
X162619Y242823D01*
X162619Y247924D01*
X162792Y248571D01*
X163127Y249150D01*
X163600Y249623D01*
X164179Y249958D01*
X164826Y250131D01*
X169927Y250131D01*
X169927Y242823D01*
X162619Y242823D01*
G37*
%LPD*%
%LPC*%
G36*
X172973Y232469D02*
X172973Y232469D01*
X172973Y239777D01*
X180281Y239777D01*
X180281Y234676D01*
X180108Y234029D01*
X179773Y233450D01*
X179300Y232977D01*
X178721Y232642D01*
X178074Y232469D01*
X172973Y232469D01*
G37*
%LPD*%
%LPC*%
G36*
X164826Y232469D02*
X164826Y232469D01*
X164179Y232642D01*
X163600Y232977D01*
X163127Y233450D01*
X162792Y234029D01*
X162619Y234676D01*
X162619Y239777D01*
X169927Y239777D01*
X169927Y232469D01*
X164826Y232469D01*
G37*
%LPD*%
%LPC*%
G36*
X158476Y29269D02*
X158476Y29269D01*
X157829Y29442D01*
X157250Y29777D01*
X156777Y30250D01*
X156442Y30829D01*
X156269Y31476D01*
X156269Y36577D01*
X163577Y36577D01*
X163577Y29269D01*
X158476Y29269D01*
G37*
%LPD*%
%LPC*%
G36*
X103123Y18423D02*
X103123Y18423D01*
X103123Y24941D01*
X106935Y24941D01*
X107581Y24768D01*
X108160Y24433D01*
X108633Y23960D01*
X108968Y23381D01*
X109141Y22734D01*
X109141Y18423D01*
X103123Y18423D01*
G37*
%LPD*%
%LPC*%
G36*
X115823Y221623D02*
X115823Y221623D01*
X115823Y228141D01*
X119635Y228141D01*
X120281Y227968D01*
X120860Y227633D01*
X121333Y227160D01*
X121668Y226581D01*
X121841Y225934D01*
X121841Y221623D01*
X115823Y221623D01*
G37*
%LPD*%
%LPC*%
G36*
X103123Y8859D02*
X103123Y8859D01*
X103123Y15377D01*
X109141Y15377D01*
X109141Y11066D01*
X108968Y10419D01*
X108633Y9840D01*
X108160Y9367D01*
X107581Y9032D01*
X106934Y8859D01*
X103123Y8859D01*
G37*
%LPD*%
%LPC*%
G36*
X115823Y212059D02*
X115823Y212059D01*
X115823Y218577D01*
X121841Y218577D01*
X121841Y214266D01*
X121668Y213619D01*
X121333Y213040D01*
X120860Y212567D01*
X120281Y212232D01*
X119634Y212059D01*
X115823Y212059D01*
G37*
%LPD*%
%LPC*%
G36*
X106759Y221623D02*
X106759Y221623D01*
X106759Y225934D01*
X106932Y226581D01*
X107267Y227160D01*
X107740Y227633D01*
X108319Y227968D01*
X108966Y228141D01*
X112777Y228141D01*
X112777Y221623D01*
X106759Y221623D01*
G37*
%LPD*%
%LPC*%
G36*
X94059Y18423D02*
X94059Y18423D01*
X94059Y22734D01*
X94232Y23381D01*
X94567Y23960D01*
X95040Y24433D01*
X95619Y24768D01*
X96266Y24941D01*
X100077Y24941D01*
X100077Y18423D01*
X94059Y18423D01*
G37*
%LPD*%
%LPC*%
G36*
X96266Y8859D02*
X96266Y8859D01*
X95619Y9032D01*
X95040Y9367D01*
X94567Y9840D01*
X94232Y10419D01*
X94059Y11066D01*
X94059Y15377D01*
X100077Y15377D01*
X100077Y8859D01*
X96266Y8859D01*
G37*
%LPD*%
%LPC*%
G36*
X108966Y212059D02*
X108966Y212059D01*
X108319Y212232D01*
X107740Y212567D01*
X107267Y213040D01*
X106932Y213619D01*
X106759Y214266D01*
X106759Y218577D01*
X112777Y218577D01*
X112777Y212059D01*
X108966Y212059D01*
G37*
%LPD*%
%LPC*%
G36*
X331723Y244523D02*
X331723Y244523D01*
X331723Y249541D01*
X334534Y249541D01*
X335181Y249368D01*
X335760Y249033D01*
X336233Y248560D01*
X336568Y247981D01*
X336741Y247334D01*
X336741Y244523D01*
X331723Y244523D01*
G37*
%LPD*%
%LPC*%
G36*
X331723Y241477D02*
X331723Y241477D01*
X336741Y241477D01*
X336741Y238666D01*
X336568Y238019D01*
X336233Y237440D01*
X335760Y236967D01*
X335181Y236632D01*
X334534Y236459D01*
X331723Y236459D01*
X331723Y241477D01*
G37*
%LPD*%
%LPC*%
G36*
X323659Y244523D02*
X323659Y244523D01*
X323659Y247334D01*
X323832Y247981D01*
X324167Y248560D01*
X324640Y249033D01*
X325219Y249368D01*
X325866Y249541D01*
X328677Y249541D01*
X328677Y244523D01*
X323659Y244523D01*
G37*
%LPD*%
%LPC*%
G36*
X69659Y241123D02*
X69659Y241123D01*
X69659Y243934D01*
X69832Y244581D01*
X70167Y245160D01*
X70640Y245633D01*
X71219Y245968D01*
X71866Y246141D01*
X74677Y246141D01*
X74677Y241123D01*
X69659Y241123D01*
G37*
%LPD*%
%LPC*%
G36*
X325866Y236459D02*
X325866Y236459D01*
X325219Y236632D01*
X324640Y236967D01*
X324167Y237440D01*
X323832Y238019D01*
X323659Y238666D01*
X323659Y241477D01*
X328677Y241477D01*
X328677Y236459D01*
X325866Y236459D01*
G37*
%LPD*%
%LPC*%
G36*
X71866Y233059D02*
X71866Y233059D01*
X71219Y233232D01*
X70640Y233567D01*
X70167Y234040D01*
X69832Y234619D01*
X69659Y235266D01*
X69659Y238077D01*
X74677Y238077D01*
X74677Y233059D01*
X71866Y233059D01*
G37*
%LPD*%
%LPC*%
G36*
X165099Y38099D02*
X165099Y38099D01*
X165099Y38101D01*
X165101Y38101D01*
X165101Y38099D01*
X165099Y38099D01*
G37*
%LPD*%
%LPC*%
G36*
X171449Y241299D02*
X171449Y241299D01*
X171449Y241301D01*
X171451Y241301D01*
X171451Y241299D01*
X171449Y241299D01*
G37*
%LPD*%
%LPC*%
G36*
X50799Y186399D02*
X50799Y186399D01*
X50799Y186401D01*
X50801Y186401D01*
X50801Y186399D01*
X50799Y186399D01*
G37*
%LPD*%
%LPC*%
G36*
X259399Y78799D02*
X259399Y78799D01*
X259399Y78801D01*
X259401Y78801D01*
X259401Y78799D01*
X259399Y78799D01*
G37*
%LPD*%
%LPC*%
G36*
X259399Y154999D02*
X259399Y154999D01*
X259399Y155001D01*
X259401Y155001D01*
X259401Y154999D01*
X259399Y154999D01*
G37*
%LPD*%
%LPC*%
G36*
X101599Y16899D02*
X101599Y16899D01*
X101599Y16901D01*
X101601Y16901D01*
X101601Y16899D01*
X101599Y16899D01*
G37*
%LPD*%
%LPC*%
G36*
X114299Y220099D02*
X114299Y220099D01*
X114299Y220101D01*
X114301Y220101D01*
X114301Y220099D01*
X114299Y220099D01*
G37*
%LPD*%
%LPC*%
G36*
X330199Y242999D02*
X330199Y242999D01*
X330199Y243001D01*
X330201Y243001D01*
X330201Y242999D01*
X330199Y242999D01*
G37*
%LPD*%
D10*
X171450Y241300D03*
D11*
X171450Y261300D03*
D12*
X101600Y16900D03*
X101600Y33900D03*
X292100Y245500D03*
X292100Y262500D03*
D10*
X241300Y241300D03*
D11*
X241300Y261300D03*
D10*
X165100Y38100D03*
D11*
X165100Y18100D03*
D12*
X114300Y220100D03*
X114300Y237100D03*
X304800Y33900D03*
X304800Y16900D03*
D10*
X241300Y38100D03*
D11*
X241300Y18100D03*
D13*
X330200Y265000D03*
X330200Y243000D03*
X76200Y217600D03*
X76200Y239600D03*
D14*
X259400Y155000D03*
X259400Y200600D03*
D15*
X191400Y177800D03*
D14*
X259400Y78800D03*
X259400Y124400D03*
D15*
X191400Y101600D03*
D16*
X342850Y67600D02*
X368350Y67600D01*
X368350Y107200D02*
X342850Y107200D01*
X342850Y146800D02*
X368350Y146800D01*
X368350Y186400D02*
X342850Y186400D01*
X63550Y186400D02*
X38050Y186400D01*
X38050Y146800D02*
X63550Y146800D01*
X63550Y107200D02*
X38050Y107200D01*
X38050Y67600D02*
X63550Y67600D01*
D17*
X139700Y76200D03*
X139700Y101600D03*
X139700Y127000D03*
X139700Y152400D03*
X139700Y177800D03*
X139700Y203200D03*
D18*
X259400Y124400D02*
X293500Y90300D01*
X316200Y67600D01*
X317500Y67600D01*
X355600Y67600D01*
X254000Y50800D02*
X241300Y38100D01*
X254000Y50800D02*
X266700Y50800D01*
X293500Y77600D02*
X293500Y90300D01*
X293500Y77600D02*
X266700Y50800D01*
X304800Y63500D02*
X304800Y33900D01*
X304800Y63500D02*
X308900Y67600D01*
X316200Y67600D01*
X191400Y101600D02*
X139700Y101600D01*
X191400Y101600D02*
X191400Y177800D01*
X292100Y262500D02*
X296300Y266700D01*
X317500Y266700D01*
X330200Y266700D01*
X330200Y265000D01*
D19*
X317500Y266700D03*
D18*
X88900Y241300D02*
X88900Y230300D01*
X76200Y217600D01*
X110100Y241300D02*
X114300Y237100D01*
X110100Y241300D02*
X88900Y241300D01*
D19*
X88900Y241300D03*
D18*
X114300Y46600D02*
X101600Y33900D01*
X114300Y46600D02*
X114300Y50800D01*
D19*
X114300Y50800D03*
D18*
X304800Y16900D02*
X309000Y12700D01*
X330200Y12700D01*
D19*
X330200Y12700D03*
D18*
X139700Y177800D02*
X114300Y152400D01*
X114300Y127000D01*
X88900Y101600D01*
X56400Y101600D01*
X50800Y107200D01*
X57900Y139700D02*
X76200Y139700D01*
X57900Y139700D02*
X50800Y146800D01*
X76200Y139700D02*
X139700Y203200D01*
X241300Y241300D02*
X259400Y223200D01*
X259400Y200600D01*
X292100Y215900D02*
X292100Y245500D01*
X292100Y215900D02*
X276800Y200600D01*
X259400Y200600D01*
X292100Y215900D02*
X292100Y114300D01*
D19*
X292100Y114300D03*
M02*
