G04 EAGLE Gerber RS-274X export*
G75*
%MOMM*%
%FSLAX34Y34*%
%LPD*%
%IN*%
%IPPOS*%
%AMOC8*
5,1,8,0,0,1.08239X$1,22.5*%
G01*
%ADD10C,0.254000*%


D10*
X0Y-12700D02*
X406400Y-12700D01*
X406400Y292100D01*
X0Y292100D01*
X0Y-12700D01*
X41400Y266176D02*
X41332Y265131D01*
X41195Y264092D01*
X40990Y263065D01*
X40719Y262053D01*
X40383Y261061D01*
X39982Y260093D01*
X39518Y259154D01*
X38995Y258246D01*
X38413Y257375D01*
X37775Y256544D01*
X37084Y255757D01*
X36343Y255016D01*
X35556Y254325D01*
X34725Y253688D01*
X33854Y253106D01*
X32946Y252582D01*
X32007Y252118D01*
X31039Y251717D01*
X30047Y251381D01*
X29035Y251110D01*
X28008Y250905D01*
X26969Y250769D01*
X25924Y250700D01*
X24876Y250700D01*
X23831Y250769D01*
X22792Y250905D01*
X21765Y251110D01*
X20753Y251381D01*
X19761Y251717D01*
X18793Y252118D01*
X17854Y252582D01*
X16946Y253106D01*
X16075Y253688D01*
X15244Y254325D01*
X14457Y255016D01*
X13716Y255757D01*
X13025Y256544D01*
X12388Y257375D01*
X11806Y258246D01*
X11282Y259154D01*
X10818Y260093D01*
X10417Y261061D01*
X10081Y262053D01*
X9810Y263065D01*
X9605Y264092D01*
X9469Y265131D01*
X9400Y266176D01*
X9400Y267224D01*
X9469Y268269D01*
X9605Y269308D01*
X9810Y270335D01*
X10081Y271347D01*
X10417Y272339D01*
X10818Y273307D01*
X11282Y274246D01*
X11806Y275154D01*
X12388Y276025D01*
X13025Y276856D01*
X13716Y277643D01*
X14457Y278384D01*
X15244Y279075D01*
X16075Y279713D01*
X16946Y280295D01*
X17854Y280818D01*
X18793Y281282D01*
X19761Y281683D01*
X20753Y282019D01*
X21765Y282290D01*
X22792Y282495D01*
X23831Y282632D01*
X24876Y282700D01*
X25924Y282700D01*
X26969Y282632D01*
X28008Y282495D01*
X29035Y282290D01*
X30047Y282019D01*
X31039Y281683D01*
X32007Y281282D01*
X32946Y280818D01*
X33854Y280295D01*
X34725Y279713D01*
X35556Y279075D01*
X36343Y278384D01*
X37084Y277643D01*
X37775Y276856D01*
X38413Y276025D01*
X38995Y275154D01*
X39518Y274246D01*
X39982Y273307D01*
X40383Y272339D01*
X40719Y271347D01*
X40990Y270335D01*
X41195Y269308D01*
X41332Y268269D01*
X41400Y267224D01*
X41400Y266176D01*
X397000Y266176D02*
X396932Y265131D01*
X396795Y264092D01*
X396590Y263065D01*
X396319Y262053D01*
X395983Y261061D01*
X395582Y260093D01*
X395118Y259154D01*
X394595Y258246D01*
X394013Y257375D01*
X393375Y256544D01*
X392684Y255757D01*
X391943Y255016D01*
X391156Y254325D01*
X390325Y253688D01*
X389454Y253106D01*
X388546Y252582D01*
X387607Y252118D01*
X386639Y251717D01*
X385647Y251381D01*
X384635Y251110D01*
X383608Y250905D01*
X382569Y250769D01*
X381524Y250700D01*
X380476Y250700D01*
X379431Y250769D01*
X378392Y250905D01*
X377365Y251110D01*
X376353Y251381D01*
X375361Y251717D01*
X374393Y252118D01*
X373454Y252582D01*
X372546Y253106D01*
X371675Y253688D01*
X370844Y254325D01*
X370057Y255016D01*
X369316Y255757D01*
X368625Y256544D01*
X367988Y257375D01*
X367406Y258246D01*
X366882Y259154D01*
X366418Y260093D01*
X366017Y261061D01*
X365681Y262053D01*
X365410Y263065D01*
X365205Y264092D01*
X365069Y265131D01*
X365000Y266176D01*
X365000Y267224D01*
X365069Y268269D01*
X365205Y269308D01*
X365410Y270335D01*
X365681Y271347D01*
X366017Y272339D01*
X366418Y273307D01*
X366882Y274246D01*
X367406Y275154D01*
X367988Y276025D01*
X368625Y276856D01*
X369316Y277643D01*
X370057Y278384D01*
X370844Y279075D01*
X371675Y279713D01*
X372546Y280295D01*
X373454Y280818D01*
X374393Y281282D01*
X375361Y281683D01*
X376353Y282019D01*
X377365Y282290D01*
X378392Y282495D01*
X379431Y282632D01*
X380476Y282700D01*
X381524Y282700D01*
X382569Y282632D01*
X383608Y282495D01*
X384635Y282290D01*
X385647Y282019D01*
X386639Y281683D01*
X387607Y281282D01*
X388546Y280818D01*
X389454Y280295D01*
X390325Y279713D01*
X391156Y279075D01*
X391943Y278384D01*
X392684Y277643D01*
X393375Y276856D01*
X394013Y276025D01*
X394595Y275154D01*
X395118Y274246D01*
X395582Y273307D01*
X395983Y272339D01*
X396319Y271347D01*
X396590Y270335D01*
X396795Y269308D01*
X396932Y268269D01*
X397000Y267224D01*
X397000Y266176D01*
X397000Y12176D02*
X396932Y11131D01*
X396795Y10092D01*
X396590Y9065D01*
X396319Y8053D01*
X395983Y7061D01*
X395582Y6093D01*
X395118Y5154D01*
X394595Y4246D01*
X394013Y3375D01*
X393375Y2544D01*
X392684Y1757D01*
X391943Y1016D01*
X391156Y325D01*
X390325Y-313D01*
X389454Y-895D01*
X388546Y-1418D01*
X387607Y-1882D01*
X386639Y-2283D01*
X385647Y-2619D01*
X384635Y-2890D01*
X383608Y-3095D01*
X382569Y-3232D01*
X381524Y-3300D01*
X380476Y-3300D01*
X379431Y-3232D01*
X378392Y-3095D01*
X377365Y-2890D01*
X376353Y-2619D01*
X375361Y-2283D01*
X374393Y-1882D01*
X373454Y-1418D01*
X372546Y-895D01*
X371675Y-313D01*
X370844Y325D01*
X370057Y1016D01*
X369316Y1757D01*
X368625Y2544D01*
X367988Y3375D01*
X367406Y4246D01*
X366882Y5154D01*
X366418Y6093D01*
X366017Y7061D01*
X365681Y8053D01*
X365410Y9065D01*
X365205Y10092D01*
X365069Y11131D01*
X365000Y12176D01*
X365000Y13224D01*
X365069Y14269D01*
X365205Y15308D01*
X365410Y16335D01*
X365681Y17347D01*
X366017Y18339D01*
X366418Y19307D01*
X366882Y20246D01*
X367406Y21154D01*
X367988Y22025D01*
X368625Y22856D01*
X369316Y23643D01*
X370057Y24384D01*
X370844Y25075D01*
X371675Y25713D01*
X372546Y26295D01*
X373454Y26818D01*
X374393Y27282D01*
X375361Y27683D01*
X376353Y28019D01*
X377365Y28290D01*
X378392Y28495D01*
X379431Y28632D01*
X380476Y28700D01*
X381524Y28700D01*
X382569Y28632D01*
X383608Y28495D01*
X384635Y28290D01*
X385647Y28019D01*
X386639Y27683D01*
X387607Y27282D01*
X388546Y26818D01*
X389454Y26295D01*
X390325Y25713D01*
X391156Y25075D01*
X391943Y24384D01*
X392684Y23643D01*
X393375Y22856D01*
X394013Y22025D01*
X394595Y21154D01*
X395118Y20246D01*
X395582Y19307D01*
X395983Y18339D01*
X396319Y17347D01*
X396590Y16335D01*
X396795Y15308D01*
X396932Y14269D01*
X397000Y13224D01*
X397000Y12176D01*
X41400Y12176D02*
X41332Y11131D01*
X41195Y10092D01*
X40990Y9065D01*
X40719Y8053D01*
X40383Y7061D01*
X39982Y6093D01*
X39518Y5154D01*
X38995Y4246D01*
X38413Y3375D01*
X37775Y2544D01*
X37084Y1757D01*
X36343Y1016D01*
X35556Y325D01*
X34725Y-313D01*
X33854Y-895D01*
X32946Y-1418D01*
X32007Y-1882D01*
X31039Y-2283D01*
X30047Y-2619D01*
X29035Y-2890D01*
X28008Y-3095D01*
X26969Y-3232D01*
X25924Y-3300D01*
X24876Y-3300D01*
X23831Y-3232D01*
X22792Y-3095D01*
X21765Y-2890D01*
X20753Y-2619D01*
X19761Y-2283D01*
X18793Y-1882D01*
X17854Y-1418D01*
X16946Y-895D01*
X16075Y-313D01*
X15244Y325D01*
X14457Y1016D01*
X13716Y1757D01*
X13025Y2544D01*
X12388Y3375D01*
X11806Y4246D01*
X11282Y5154D01*
X10818Y6093D01*
X10417Y7061D01*
X10081Y8053D01*
X9810Y9065D01*
X9605Y10092D01*
X9469Y11131D01*
X9400Y12176D01*
X9400Y13224D01*
X9469Y14269D01*
X9605Y15308D01*
X9810Y16335D01*
X10081Y17347D01*
X10417Y18339D01*
X10818Y19307D01*
X11282Y20246D01*
X11806Y21154D01*
X12388Y22025D01*
X13025Y22856D01*
X13716Y23643D01*
X14457Y24384D01*
X15244Y25075D01*
X16075Y25713D01*
X16946Y26295D01*
X17854Y26818D01*
X18793Y27282D01*
X19761Y27683D01*
X20753Y28019D01*
X21765Y28290D01*
X22792Y28495D01*
X23831Y28632D01*
X24876Y28700D01*
X25924Y28700D01*
X26969Y28632D01*
X28008Y28495D01*
X29035Y28290D01*
X30047Y28019D01*
X31039Y27683D01*
X32007Y27282D01*
X32946Y26818D01*
X33854Y26295D01*
X34725Y25713D01*
X35556Y25075D01*
X36343Y24384D01*
X37084Y23643D01*
X37775Y22856D01*
X38413Y22025D01*
X38995Y21154D01*
X39518Y20246D01*
X39982Y19307D01*
X40383Y18339D01*
X40719Y17347D01*
X40990Y16335D01*
X41195Y15308D01*
X41332Y14269D01*
X41400Y13224D01*
X41400Y12176D01*
M02*
