G04 EAGLE Gerber RS-274X export*
G75*
%MOMM*%
%FSLAX34Y34*%
%LPD*%
%INSilkscreen Top*%
%IPPOS*%
%AMOC8*
5,1,8,0,0,1.08239X$1,22.5*%
G01*
%ADD10C,0.101600*%
%ADD11C,0.152400*%
%ADD12C,0.050000*%
%ADD13C,0.200000*%
%ADD14C,0.254000*%
%ADD15C,0.250000*%
%ADD16C,0.203200*%
%ADD17C,0.127000*%


D10*
X44958Y285242D02*
X48853Y273558D01*
X52747Y285242D01*
X59600Y273558D02*
X62197Y273558D01*
X59600Y273558D02*
X59501Y273560D01*
X59401Y273566D01*
X59302Y273575D01*
X59204Y273588D01*
X59106Y273605D01*
X59008Y273626D01*
X58912Y273651D01*
X58817Y273679D01*
X58723Y273711D01*
X58630Y273746D01*
X58538Y273785D01*
X58448Y273828D01*
X58360Y273873D01*
X58273Y273923D01*
X58189Y273975D01*
X58106Y274031D01*
X58026Y274089D01*
X57948Y274151D01*
X57873Y274216D01*
X57800Y274284D01*
X57730Y274354D01*
X57662Y274427D01*
X57597Y274502D01*
X57535Y274580D01*
X57477Y274660D01*
X57421Y274743D01*
X57369Y274827D01*
X57319Y274914D01*
X57274Y275002D01*
X57231Y275092D01*
X57192Y275184D01*
X57157Y275277D01*
X57125Y275371D01*
X57097Y275466D01*
X57072Y275562D01*
X57051Y275660D01*
X57034Y275758D01*
X57021Y275856D01*
X57012Y275955D01*
X57006Y276055D01*
X57004Y276154D01*
X57004Y282646D01*
X57006Y282745D01*
X57012Y282845D01*
X57021Y282944D01*
X57034Y283042D01*
X57051Y283140D01*
X57072Y283238D01*
X57097Y283334D01*
X57125Y283429D01*
X57157Y283523D01*
X57192Y283616D01*
X57231Y283708D01*
X57274Y283798D01*
X57319Y283886D01*
X57369Y283973D01*
X57421Y284057D01*
X57477Y284140D01*
X57535Y284220D01*
X57597Y284298D01*
X57662Y284373D01*
X57730Y284446D01*
X57800Y284516D01*
X57873Y284584D01*
X57948Y284649D01*
X58026Y284711D01*
X58106Y284769D01*
X58189Y284825D01*
X58273Y284877D01*
X58360Y284927D01*
X58448Y284972D01*
X58538Y285015D01*
X58630Y285054D01*
X58722Y285089D01*
X58817Y285121D01*
X58912Y285149D01*
X59008Y285174D01*
X59106Y285195D01*
X59204Y285212D01*
X59302Y285225D01*
X59401Y285234D01*
X59501Y285240D01*
X59600Y285242D01*
X62197Y285242D01*
X66943Y285242D02*
X66943Y276804D01*
X66945Y276691D01*
X66951Y276578D01*
X66961Y276465D01*
X66975Y276352D01*
X66992Y276240D01*
X67014Y276129D01*
X67039Y276019D01*
X67069Y275909D01*
X67102Y275801D01*
X67139Y275694D01*
X67179Y275588D01*
X67224Y275484D01*
X67272Y275381D01*
X67323Y275280D01*
X67378Y275181D01*
X67436Y275084D01*
X67498Y274989D01*
X67563Y274896D01*
X67631Y274806D01*
X67702Y274718D01*
X67777Y274632D01*
X67854Y274549D01*
X67934Y274469D01*
X68017Y274392D01*
X68103Y274317D01*
X68191Y274246D01*
X68281Y274178D01*
X68374Y274113D01*
X68469Y274051D01*
X68566Y273993D01*
X68665Y273938D01*
X68766Y273887D01*
X68869Y273839D01*
X68973Y273794D01*
X69079Y273754D01*
X69186Y273717D01*
X69294Y273684D01*
X69404Y273654D01*
X69514Y273629D01*
X69625Y273607D01*
X69737Y273590D01*
X69850Y273576D01*
X69963Y273566D01*
X70076Y273560D01*
X70189Y273558D01*
X70302Y273560D01*
X70415Y273566D01*
X70528Y273576D01*
X70641Y273590D01*
X70753Y273607D01*
X70864Y273629D01*
X70974Y273654D01*
X71084Y273684D01*
X71192Y273717D01*
X71299Y273754D01*
X71405Y273794D01*
X71509Y273839D01*
X71612Y273887D01*
X71713Y273938D01*
X71812Y273993D01*
X71909Y274051D01*
X72004Y274113D01*
X72097Y274178D01*
X72187Y274246D01*
X72275Y274317D01*
X72361Y274392D01*
X72444Y274469D01*
X72524Y274549D01*
X72601Y274632D01*
X72676Y274718D01*
X72747Y274806D01*
X72815Y274896D01*
X72880Y274989D01*
X72942Y275084D01*
X73000Y275181D01*
X73055Y275280D01*
X73106Y275381D01*
X73154Y275484D01*
X73199Y275588D01*
X73239Y275694D01*
X73276Y275801D01*
X73309Y275909D01*
X73339Y276019D01*
X73364Y276129D01*
X73386Y276240D01*
X73403Y276352D01*
X73417Y276465D01*
X73427Y276578D01*
X73433Y276691D01*
X73435Y276804D01*
X73434Y276804D02*
X73434Y285242D01*
X85400Y280049D02*
X88646Y280049D01*
X88646Y280050D02*
X88759Y280048D01*
X88872Y280042D01*
X88985Y280032D01*
X89098Y280018D01*
X89210Y280001D01*
X89321Y279979D01*
X89431Y279954D01*
X89541Y279924D01*
X89649Y279891D01*
X89756Y279854D01*
X89862Y279814D01*
X89966Y279769D01*
X90069Y279721D01*
X90170Y279670D01*
X90269Y279615D01*
X90366Y279557D01*
X90461Y279495D01*
X90554Y279430D01*
X90644Y279362D01*
X90732Y279291D01*
X90818Y279216D01*
X90901Y279139D01*
X90981Y279059D01*
X91058Y278976D01*
X91133Y278890D01*
X91204Y278802D01*
X91272Y278712D01*
X91337Y278619D01*
X91399Y278524D01*
X91457Y278427D01*
X91512Y278328D01*
X91563Y278227D01*
X91611Y278124D01*
X91656Y278020D01*
X91696Y277914D01*
X91733Y277807D01*
X91766Y277699D01*
X91796Y277589D01*
X91821Y277479D01*
X91843Y277368D01*
X91860Y277256D01*
X91874Y277143D01*
X91884Y277030D01*
X91890Y276917D01*
X91892Y276804D01*
X91890Y276691D01*
X91884Y276578D01*
X91874Y276465D01*
X91860Y276352D01*
X91843Y276240D01*
X91821Y276129D01*
X91796Y276019D01*
X91766Y275909D01*
X91733Y275801D01*
X91696Y275694D01*
X91656Y275588D01*
X91611Y275484D01*
X91563Y275381D01*
X91512Y275280D01*
X91457Y275181D01*
X91399Y275084D01*
X91337Y274989D01*
X91272Y274896D01*
X91204Y274806D01*
X91133Y274718D01*
X91058Y274632D01*
X90981Y274549D01*
X90901Y274469D01*
X90818Y274392D01*
X90732Y274317D01*
X90644Y274246D01*
X90554Y274178D01*
X90461Y274113D01*
X90366Y274051D01*
X90269Y273993D01*
X90170Y273938D01*
X90069Y273887D01*
X89966Y273839D01*
X89862Y273794D01*
X89756Y273754D01*
X89649Y273717D01*
X89541Y273684D01*
X89431Y273654D01*
X89321Y273629D01*
X89210Y273607D01*
X89098Y273590D01*
X88985Y273576D01*
X88872Y273566D01*
X88759Y273560D01*
X88646Y273558D01*
X85400Y273558D01*
X85400Y285242D01*
X88646Y285242D01*
X88747Y285240D01*
X88847Y285234D01*
X88947Y285224D01*
X89047Y285211D01*
X89146Y285193D01*
X89245Y285172D01*
X89342Y285147D01*
X89439Y285118D01*
X89534Y285085D01*
X89628Y285049D01*
X89720Y285009D01*
X89811Y284966D01*
X89900Y284919D01*
X89987Y284869D01*
X90073Y284815D01*
X90156Y284758D01*
X90236Y284698D01*
X90315Y284635D01*
X90391Y284568D01*
X90464Y284499D01*
X90534Y284427D01*
X90602Y284353D01*
X90667Y284276D01*
X90728Y284196D01*
X90787Y284114D01*
X90842Y284030D01*
X90894Y283944D01*
X90943Y283856D01*
X90988Y283766D01*
X91030Y283674D01*
X91068Y283581D01*
X91102Y283486D01*
X91133Y283391D01*
X91160Y283294D01*
X91183Y283196D01*
X91203Y283097D01*
X91218Y282997D01*
X91230Y282897D01*
X91238Y282797D01*
X91242Y282696D01*
X91242Y282596D01*
X91238Y282495D01*
X91230Y282395D01*
X91218Y282295D01*
X91203Y282195D01*
X91183Y282096D01*
X91160Y281998D01*
X91133Y281901D01*
X91102Y281806D01*
X91068Y281711D01*
X91030Y281618D01*
X90988Y281526D01*
X90943Y281436D01*
X90894Y281348D01*
X90842Y281262D01*
X90787Y281178D01*
X90728Y281096D01*
X90667Y281016D01*
X90602Y280939D01*
X90534Y280865D01*
X90464Y280793D01*
X90391Y280724D01*
X90315Y280657D01*
X90236Y280594D01*
X90156Y280534D01*
X90073Y280477D01*
X89987Y280423D01*
X89900Y280373D01*
X89811Y280326D01*
X89720Y280283D01*
X89628Y280243D01*
X89534Y280207D01*
X89439Y280174D01*
X89342Y280145D01*
X89245Y280120D01*
X89146Y280099D01*
X89047Y280081D01*
X88947Y280068D01*
X88847Y280058D01*
X88747Y280052D01*
X88646Y280050D01*
X96548Y281347D02*
X96548Y275505D01*
X96550Y275418D01*
X96556Y275330D01*
X96566Y275244D01*
X96579Y275157D01*
X96597Y275072D01*
X96618Y274987D01*
X96643Y274903D01*
X96672Y274821D01*
X96705Y274740D01*
X96741Y274660D01*
X96780Y274582D01*
X96824Y274506D01*
X96870Y274432D01*
X96920Y274361D01*
X96973Y274291D01*
X97029Y274224D01*
X97088Y274160D01*
X97150Y274098D01*
X97214Y274039D01*
X97281Y273983D01*
X97351Y273930D01*
X97422Y273880D01*
X97496Y273834D01*
X97572Y273790D01*
X97650Y273751D01*
X97730Y273715D01*
X97811Y273682D01*
X97893Y273653D01*
X97977Y273628D01*
X98062Y273607D01*
X98147Y273589D01*
X98234Y273576D01*
X98320Y273566D01*
X98408Y273560D01*
X98495Y273558D01*
X101741Y273558D01*
X101741Y281347D01*
X107809Y278102D02*
X111054Y276804D01*
X107809Y278101D02*
X107734Y278134D01*
X107660Y278170D01*
X107588Y278209D01*
X107518Y278252D01*
X107451Y278298D01*
X107385Y278348D01*
X107323Y278400D01*
X107262Y278456D01*
X107205Y278514D01*
X107150Y278575D01*
X107099Y278639D01*
X107051Y278705D01*
X107006Y278774D01*
X106964Y278844D01*
X106926Y278917D01*
X106891Y278991D01*
X106860Y279067D01*
X106833Y279144D01*
X106810Y279223D01*
X106790Y279302D01*
X106775Y279383D01*
X106763Y279464D01*
X106755Y279546D01*
X106751Y279627D01*
X106752Y279709D01*
X106756Y279791D01*
X106764Y279873D01*
X106776Y279954D01*
X106792Y280034D01*
X106812Y280114D01*
X106836Y280192D01*
X106864Y280269D01*
X106895Y280345D01*
X106930Y280419D01*
X106968Y280491D01*
X107010Y280562D01*
X107056Y280630D01*
X107104Y280696D01*
X107156Y280759D01*
X107211Y280820D01*
X107269Y280878D01*
X107329Y280934D01*
X107392Y280986D01*
X107458Y281035D01*
X107526Y281081D01*
X107596Y281123D01*
X107668Y281163D01*
X107742Y281198D01*
X107817Y281230D01*
X107894Y281258D01*
X107972Y281282D01*
X108052Y281303D01*
X108132Y281320D01*
X108213Y281332D01*
X108294Y281341D01*
X108376Y281346D01*
X108458Y281347D01*
X108635Y281343D01*
X108812Y281334D01*
X108989Y281320D01*
X109166Y281303D01*
X109341Y281281D01*
X109517Y281256D01*
X109691Y281225D01*
X109865Y281191D01*
X110038Y281153D01*
X110210Y281110D01*
X110381Y281063D01*
X110551Y281013D01*
X110720Y280958D01*
X110887Y280899D01*
X111052Y280836D01*
X111217Y280769D01*
X111379Y280698D01*
X111054Y276804D02*
X111129Y276771D01*
X111203Y276735D01*
X111275Y276696D01*
X111345Y276653D01*
X111412Y276607D01*
X111478Y276557D01*
X111540Y276505D01*
X111601Y276449D01*
X111658Y276391D01*
X111713Y276330D01*
X111764Y276266D01*
X111812Y276200D01*
X111857Y276131D01*
X111899Y276061D01*
X111937Y275988D01*
X111972Y275914D01*
X112003Y275838D01*
X112030Y275761D01*
X112053Y275682D01*
X112073Y275603D01*
X112088Y275522D01*
X112100Y275441D01*
X112108Y275359D01*
X112112Y275278D01*
X112111Y275196D01*
X112107Y275114D01*
X112099Y275032D01*
X112087Y274951D01*
X112071Y274871D01*
X112051Y274791D01*
X112027Y274713D01*
X111999Y274636D01*
X111968Y274560D01*
X111933Y274486D01*
X111895Y274414D01*
X111853Y274343D01*
X111807Y274275D01*
X111759Y274209D01*
X111707Y274146D01*
X111652Y274085D01*
X111594Y274027D01*
X111534Y273971D01*
X111471Y273919D01*
X111405Y273870D01*
X111337Y273824D01*
X111267Y273782D01*
X111195Y273742D01*
X111121Y273707D01*
X111046Y273675D01*
X110969Y273647D01*
X110891Y273623D01*
X110811Y273602D01*
X110731Y273585D01*
X110650Y273573D01*
X110569Y273564D01*
X110487Y273559D01*
X110405Y273558D01*
X110145Y273565D01*
X109885Y273578D01*
X109625Y273597D01*
X109366Y273622D01*
X109107Y273654D01*
X108850Y273691D01*
X108593Y273735D01*
X108337Y273784D01*
X108083Y273840D01*
X107830Y273901D01*
X107579Y273969D01*
X107329Y274043D01*
X107081Y274122D01*
X106835Y274207D01*
X119417Y273558D02*
X122014Y273558D01*
X119417Y273558D02*
X119318Y273560D01*
X119218Y273566D01*
X119119Y273575D01*
X119021Y273588D01*
X118923Y273605D01*
X118825Y273626D01*
X118729Y273651D01*
X118634Y273679D01*
X118540Y273711D01*
X118447Y273746D01*
X118355Y273785D01*
X118265Y273828D01*
X118177Y273873D01*
X118090Y273923D01*
X118006Y273975D01*
X117923Y274031D01*
X117843Y274089D01*
X117765Y274151D01*
X117690Y274216D01*
X117617Y274284D01*
X117547Y274354D01*
X117479Y274427D01*
X117414Y274502D01*
X117352Y274580D01*
X117294Y274660D01*
X117238Y274743D01*
X117186Y274827D01*
X117136Y274914D01*
X117091Y275002D01*
X117048Y275092D01*
X117009Y275184D01*
X116974Y275277D01*
X116942Y275371D01*
X116914Y275466D01*
X116889Y275562D01*
X116868Y275660D01*
X116851Y275758D01*
X116838Y275856D01*
X116829Y275955D01*
X116823Y276055D01*
X116821Y276154D01*
X116821Y282646D01*
X116823Y282745D01*
X116829Y282845D01*
X116838Y282944D01*
X116851Y283042D01*
X116868Y283140D01*
X116889Y283238D01*
X116914Y283334D01*
X116942Y283429D01*
X116974Y283523D01*
X117009Y283616D01*
X117048Y283708D01*
X117091Y283798D01*
X117136Y283886D01*
X117186Y283973D01*
X117238Y284057D01*
X117294Y284140D01*
X117352Y284220D01*
X117414Y284298D01*
X117479Y284373D01*
X117547Y284446D01*
X117617Y284516D01*
X117690Y284584D01*
X117765Y284649D01*
X117843Y284711D01*
X117923Y284769D01*
X118006Y284825D01*
X118090Y284877D01*
X118177Y284927D01*
X118265Y284972D01*
X118355Y285015D01*
X118447Y285054D01*
X118539Y285089D01*
X118634Y285121D01*
X118729Y285149D01*
X118825Y285174D01*
X118923Y285195D01*
X119021Y285212D01*
X119119Y285225D01*
X119218Y285234D01*
X119318Y285240D01*
X119417Y285242D01*
X122014Y285242D01*
X129625Y285242D02*
X125730Y273558D01*
X133519Y273558D02*
X129625Y285242D01*
X132546Y276479D02*
X126704Y276479D01*
X138190Y273558D02*
X138190Y285242D01*
X144681Y273558D01*
X144681Y285242D01*
X48853Y262297D02*
X44958Y262297D01*
X46256Y266192D02*
X46256Y256455D01*
X46257Y256455D02*
X46259Y256368D01*
X46265Y256280D01*
X46275Y256194D01*
X46288Y256107D01*
X46306Y256022D01*
X46327Y255937D01*
X46352Y255853D01*
X46381Y255771D01*
X46414Y255690D01*
X46450Y255610D01*
X46489Y255532D01*
X46533Y255456D01*
X46579Y255382D01*
X46629Y255311D01*
X46682Y255241D01*
X46738Y255174D01*
X46797Y255110D01*
X46859Y255048D01*
X46923Y254989D01*
X46990Y254933D01*
X47060Y254880D01*
X47131Y254830D01*
X47205Y254784D01*
X47281Y254740D01*
X47359Y254701D01*
X47439Y254665D01*
X47520Y254632D01*
X47602Y254603D01*
X47686Y254578D01*
X47771Y254557D01*
X47856Y254539D01*
X47943Y254526D01*
X48029Y254516D01*
X48117Y254510D01*
X48204Y254508D01*
X48853Y254508D01*
X53164Y257104D02*
X53164Y259701D01*
X53165Y259701D02*
X53167Y259802D01*
X53173Y259902D01*
X53183Y260002D01*
X53196Y260102D01*
X53214Y260201D01*
X53235Y260300D01*
X53260Y260397D01*
X53289Y260494D01*
X53322Y260589D01*
X53358Y260683D01*
X53398Y260775D01*
X53441Y260866D01*
X53488Y260955D01*
X53538Y261042D01*
X53592Y261128D01*
X53649Y261211D01*
X53709Y261291D01*
X53772Y261370D01*
X53839Y261446D01*
X53908Y261519D01*
X53980Y261589D01*
X54054Y261657D01*
X54131Y261722D01*
X54211Y261783D01*
X54293Y261842D01*
X54377Y261897D01*
X54463Y261949D01*
X54551Y261998D01*
X54641Y262043D01*
X54733Y262085D01*
X54826Y262123D01*
X54921Y262157D01*
X55016Y262188D01*
X55113Y262215D01*
X55211Y262238D01*
X55310Y262258D01*
X55410Y262273D01*
X55510Y262285D01*
X55610Y262293D01*
X55711Y262297D01*
X55811Y262297D01*
X55912Y262293D01*
X56012Y262285D01*
X56112Y262273D01*
X56212Y262258D01*
X56311Y262238D01*
X56409Y262215D01*
X56506Y262188D01*
X56601Y262157D01*
X56696Y262123D01*
X56789Y262085D01*
X56881Y262043D01*
X56971Y261998D01*
X57059Y261949D01*
X57145Y261897D01*
X57229Y261842D01*
X57311Y261783D01*
X57391Y261722D01*
X57468Y261657D01*
X57542Y261589D01*
X57614Y261519D01*
X57683Y261446D01*
X57750Y261370D01*
X57813Y261291D01*
X57873Y261211D01*
X57930Y261128D01*
X57984Y261042D01*
X58034Y260955D01*
X58081Y260866D01*
X58124Y260775D01*
X58164Y260683D01*
X58200Y260589D01*
X58233Y260494D01*
X58262Y260397D01*
X58287Y260300D01*
X58308Y260201D01*
X58326Y260102D01*
X58339Y260002D01*
X58349Y259902D01*
X58355Y259802D01*
X58357Y259701D01*
X58357Y257104D01*
X58355Y257003D01*
X58349Y256903D01*
X58339Y256803D01*
X58326Y256703D01*
X58308Y256604D01*
X58287Y256505D01*
X58262Y256408D01*
X58233Y256311D01*
X58200Y256216D01*
X58164Y256122D01*
X58124Y256030D01*
X58081Y255939D01*
X58034Y255850D01*
X57984Y255763D01*
X57930Y255677D01*
X57873Y255594D01*
X57813Y255514D01*
X57750Y255435D01*
X57683Y255359D01*
X57614Y255286D01*
X57542Y255216D01*
X57468Y255148D01*
X57391Y255083D01*
X57311Y255022D01*
X57229Y254963D01*
X57145Y254908D01*
X57059Y254856D01*
X56971Y254807D01*
X56881Y254762D01*
X56789Y254720D01*
X56696Y254682D01*
X56601Y254648D01*
X56506Y254617D01*
X56409Y254590D01*
X56311Y254567D01*
X56212Y254547D01*
X56112Y254532D01*
X56012Y254520D01*
X55912Y254512D01*
X55811Y254508D01*
X55711Y254508D01*
X55610Y254512D01*
X55510Y254520D01*
X55410Y254532D01*
X55310Y254547D01*
X55211Y254567D01*
X55113Y254590D01*
X55016Y254617D01*
X54921Y254648D01*
X54826Y254682D01*
X54733Y254720D01*
X54641Y254762D01*
X54551Y254807D01*
X54463Y254856D01*
X54377Y254908D01*
X54293Y254963D01*
X54211Y255022D01*
X54131Y255083D01*
X54054Y255148D01*
X53980Y255216D01*
X53908Y255286D01*
X53839Y255359D01*
X53772Y255435D01*
X53709Y255514D01*
X53649Y255594D01*
X53592Y255677D01*
X53538Y255763D01*
X53488Y255850D01*
X53441Y255939D01*
X53398Y256030D01*
X53358Y256122D01*
X53322Y256216D01*
X53289Y256311D01*
X53260Y256408D01*
X53235Y256505D01*
X53214Y256604D01*
X53196Y256703D01*
X53183Y256803D01*
X53173Y256903D01*
X53167Y257003D01*
X53165Y257104D01*
X72793Y254508D02*
X72892Y254510D01*
X72992Y254516D01*
X73091Y254525D01*
X73189Y254538D01*
X73287Y254555D01*
X73385Y254576D01*
X73481Y254601D01*
X73576Y254629D01*
X73670Y254661D01*
X73763Y254696D01*
X73855Y254735D01*
X73945Y254778D01*
X74033Y254823D01*
X74120Y254873D01*
X74204Y254925D01*
X74287Y254981D01*
X74367Y255039D01*
X74445Y255101D01*
X74520Y255166D01*
X74593Y255234D01*
X74663Y255304D01*
X74731Y255377D01*
X74796Y255452D01*
X74858Y255530D01*
X74916Y255610D01*
X74972Y255693D01*
X75024Y255777D01*
X75074Y255864D01*
X75119Y255952D01*
X75162Y256042D01*
X75201Y256134D01*
X75236Y256227D01*
X75268Y256321D01*
X75296Y256416D01*
X75321Y256512D01*
X75342Y256610D01*
X75359Y256708D01*
X75372Y256806D01*
X75381Y256905D01*
X75387Y257005D01*
X75389Y257104D01*
X72793Y254508D02*
X72649Y254510D01*
X72504Y254516D01*
X72360Y254525D01*
X72217Y254538D01*
X72073Y254555D01*
X71930Y254576D01*
X71788Y254601D01*
X71647Y254629D01*
X71506Y254661D01*
X71366Y254697D01*
X71227Y254736D01*
X71089Y254779D01*
X70953Y254826D01*
X70817Y254876D01*
X70683Y254930D01*
X70551Y254987D01*
X70420Y255048D01*
X70291Y255112D01*
X70163Y255180D01*
X70037Y255250D01*
X69913Y255325D01*
X69792Y255402D01*
X69672Y255483D01*
X69554Y255566D01*
X69439Y255653D01*
X69326Y255743D01*
X69215Y255836D01*
X69107Y255931D01*
X69001Y256030D01*
X68898Y256131D01*
X69223Y263596D02*
X69225Y263695D01*
X69231Y263795D01*
X69240Y263894D01*
X69253Y263992D01*
X69270Y264090D01*
X69291Y264188D01*
X69316Y264284D01*
X69344Y264379D01*
X69376Y264473D01*
X69411Y264566D01*
X69450Y264658D01*
X69493Y264748D01*
X69538Y264836D01*
X69588Y264923D01*
X69640Y265007D01*
X69696Y265090D01*
X69754Y265170D01*
X69816Y265248D01*
X69881Y265323D01*
X69949Y265396D01*
X70019Y265466D01*
X70092Y265534D01*
X70167Y265599D01*
X70245Y265661D01*
X70325Y265719D01*
X70408Y265775D01*
X70492Y265827D01*
X70579Y265877D01*
X70667Y265922D01*
X70757Y265965D01*
X70849Y266004D01*
X70942Y266039D01*
X71036Y266071D01*
X71131Y266099D01*
X71228Y266124D01*
X71325Y266145D01*
X71423Y266162D01*
X71521Y266175D01*
X71620Y266184D01*
X71720Y266190D01*
X71819Y266192D01*
X71955Y266190D01*
X72091Y266184D01*
X72227Y266175D01*
X72363Y266162D01*
X72498Y266144D01*
X72632Y266124D01*
X72766Y266099D01*
X72900Y266071D01*
X73032Y266038D01*
X73163Y266003D01*
X73294Y265963D01*
X73423Y265920D01*
X73551Y265874D01*
X73677Y265823D01*
X73803Y265770D01*
X73926Y265712D01*
X74048Y265652D01*
X74168Y265588D01*
X74287Y265520D01*
X74403Y265450D01*
X74517Y265376D01*
X74630Y265299D01*
X74740Y265218D01*
X70521Y261324D02*
X70435Y261377D01*
X70351Y261434D01*
X70269Y261493D01*
X70189Y261556D01*
X70112Y261622D01*
X70037Y261690D01*
X69965Y261762D01*
X69896Y261836D01*
X69830Y261913D01*
X69767Y261992D01*
X69707Y262074D01*
X69650Y262158D01*
X69596Y262244D01*
X69546Y262332D01*
X69499Y262422D01*
X69455Y262513D01*
X69416Y262607D01*
X69379Y262701D01*
X69347Y262797D01*
X69318Y262895D01*
X69293Y262993D01*
X69272Y263092D01*
X69254Y263192D01*
X69241Y263292D01*
X69231Y263393D01*
X69225Y263495D01*
X69223Y263596D01*
X74091Y259376D02*
X74177Y259323D01*
X74261Y259266D01*
X74343Y259207D01*
X74423Y259144D01*
X74500Y259078D01*
X74575Y259010D01*
X74647Y258938D01*
X74716Y258864D01*
X74782Y258787D01*
X74845Y258708D01*
X74905Y258626D01*
X74962Y258542D01*
X75016Y258456D01*
X75066Y258368D01*
X75113Y258278D01*
X75157Y258187D01*
X75196Y258093D01*
X75233Y257999D01*
X75265Y257903D01*
X75294Y257805D01*
X75319Y257707D01*
X75340Y257608D01*
X75358Y257508D01*
X75371Y257408D01*
X75381Y257307D01*
X75387Y257205D01*
X75389Y257104D01*
X74091Y259376D02*
X70521Y261324D01*
X81795Y254508D02*
X84391Y254508D01*
X81795Y254508D02*
X81708Y254510D01*
X81620Y254516D01*
X81534Y254526D01*
X81447Y254539D01*
X81362Y254557D01*
X81277Y254578D01*
X81193Y254603D01*
X81111Y254632D01*
X81030Y254665D01*
X80950Y254701D01*
X80872Y254740D01*
X80796Y254784D01*
X80722Y254830D01*
X80651Y254880D01*
X80581Y254933D01*
X80514Y254989D01*
X80450Y255048D01*
X80388Y255110D01*
X80329Y255174D01*
X80273Y255241D01*
X80220Y255311D01*
X80170Y255382D01*
X80124Y255456D01*
X80080Y255532D01*
X80041Y255610D01*
X80005Y255690D01*
X79972Y255771D01*
X79943Y255853D01*
X79918Y255937D01*
X79897Y256022D01*
X79879Y256107D01*
X79866Y256194D01*
X79856Y256280D01*
X79850Y256368D01*
X79848Y256455D01*
X79848Y260350D01*
X79850Y260437D01*
X79856Y260525D01*
X79866Y260611D01*
X79879Y260698D01*
X79897Y260783D01*
X79918Y260868D01*
X79943Y260952D01*
X79972Y261034D01*
X80005Y261115D01*
X80041Y261195D01*
X80080Y261273D01*
X80124Y261349D01*
X80170Y261423D01*
X80220Y261494D01*
X80273Y261564D01*
X80329Y261631D01*
X80388Y261695D01*
X80450Y261757D01*
X80514Y261816D01*
X80581Y261872D01*
X80651Y261925D01*
X80722Y261975D01*
X80796Y262021D01*
X80872Y262065D01*
X80950Y262104D01*
X81030Y262140D01*
X81111Y262173D01*
X81193Y262202D01*
X81277Y262227D01*
X81362Y262248D01*
X81447Y262266D01*
X81534Y262279D01*
X81620Y262289D01*
X81708Y262295D01*
X81795Y262297D01*
X84391Y262297D01*
X89045Y262297D02*
X89045Y254508D01*
X89045Y262297D02*
X92939Y262297D01*
X92939Y260999D01*
X98546Y254508D02*
X101791Y254508D01*
X98546Y254508D02*
X98459Y254510D01*
X98371Y254516D01*
X98285Y254526D01*
X98198Y254539D01*
X98113Y254557D01*
X98028Y254578D01*
X97944Y254603D01*
X97862Y254632D01*
X97781Y254665D01*
X97701Y254701D01*
X97623Y254740D01*
X97547Y254784D01*
X97473Y254830D01*
X97402Y254880D01*
X97332Y254933D01*
X97265Y254989D01*
X97201Y255048D01*
X97139Y255110D01*
X97080Y255174D01*
X97024Y255241D01*
X96971Y255311D01*
X96921Y255382D01*
X96875Y255456D01*
X96831Y255532D01*
X96792Y255610D01*
X96756Y255690D01*
X96723Y255771D01*
X96694Y255853D01*
X96669Y255937D01*
X96648Y256022D01*
X96630Y256107D01*
X96617Y256194D01*
X96607Y256280D01*
X96601Y256368D01*
X96599Y256455D01*
X96598Y256455D02*
X96598Y259701D01*
X96599Y259701D02*
X96601Y259802D01*
X96607Y259902D01*
X96617Y260002D01*
X96630Y260102D01*
X96648Y260201D01*
X96669Y260300D01*
X96694Y260397D01*
X96723Y260494D01*
X96756Y260589D01*
X96792Y260683D01*
X96832Y260775D01*
X96875Y260866D01*
X96922Y260955D01*
X96972Y261042D01*
X97026Y261128D01*
X97083Y261211D01*
X97143Y261291D01*
X97206Y261370D01*
X97273Y261446D01*
X97342Y261519D01*
X97414Y261589D01*
X97488Y261657D01*
X97565Y261722D01*
X97645Y261783D01*
X97727Y261842D01*
X97811Y261897D01*
X97897Y261949D01*
X97985Y261998D01*
X98075Y262043D01*
X98167Y262085D01*
X98260Y262123D01*
X98355Y262157D01*
X98450Y262188D01*
X98547Y262215D01*
X98645Y262238D01*
X98744Y262258D01*
X98844Y262273D01*
X98944Y262285D01*
X99044Y262293D01*
X99145Y262297D01*
X99245Y262297D01*
X99346Y262293D01*
X99446Y262285D01*
X99546Y262273D01*
X99646Y262258D01*
X99745Y262238D01*
X99843Y262215D01*
X99940Y262188D01*
X100035Y262157D01*
X100130Y262123D01*
X100223Y262085D01*
X100315Y262043D01*
X100405Y261998D01*
X100493Y261949D01*
X100579Y261897D01*
X100663Y261842D01*
X100745Y261783D01*
X100825Y261722D01*
X100902Y261657D01*
X100976Y261589D01*
X101048Y261519D01*
X101117Y261446D01*
X101184Y261370D01*
X101247Y261291D01*
X101307Y261211D01*
X101364Y261128D01*
X101418Y261042D01*
X101468Y260955D01*
X101515Y260866D01*
X101558Y260775D01*
X101598Y260683D01*
X101634Y260589D01*
X101667Y260494D01*
X101696Y260397D01*
X101721Y260300D01*
X101742Y260201D01*
X101760Y260102D01*
X101773Y260002D01*
X101783Y259902D01*
X101789Y259802D01*
X101791Y259701D01*
X101791Y258403D01*
X96598Y258403D01*
X108452Y254508D02*
X111697Y254508D01*
X108452Y254508D02*
X108365Y254510D01*
X108277Y254516D01*
X108191Y254526D01*
X108104Y254539D01*
X108019Y254557D01*
X107934Y254578D01*
X107850Y254603D01*
X107768Y254632D01*
X107687Y254665D01*
X107607Y254701D01*
X107529Y254740D01*
X107453Y254784D01*
X107379Y254830D01*
X107308Y254880D01*
X107238Y254933D01*
X107171Y254989D01*
X107107Y255048D01*
X107045Y255110D01*
X106986Y255174D01*
X106930Y255241D01*
X106877Y255311D01*
X106827Y255382D01*
X106781Y255456D01*
X106737Y255532D01*
X106698Y255610D01*
X106662Y255690D01*
X106629Y255771D01*
X106600Y255853D01*
X106575Y255937D01*
X106554Y256022D01*
X106536Y256107D01*
X106523Y256194D01*
X106513Y256280D01*
X106507Y256368D01*
X106505Y256455D01*
X106504Y256455D02*
X106504Y259701D01*
X106505Y259701D02*
X106507Y259802D01*
X106513Y259902D01*
X106523Y260002D01*
X106536Y260102D01*
X106554Y260201D01*
X106575Y260300D01*
X106600Y260397D01*
X106629Y260494D01*
X106662Y260589D01*
X106698Y260683D01*
X106738Y260775D01*
X106781Y260866D01*
X106828Y260955D01*
X106878Y261042D01*
X106932Y261128D01*
X106989Y261211D01*
X107049Y261291D01*
X107112Y261370D01*
X107179Y261446D01*
X107248Y261519D01*
X107320Y261589D01*
X107394Y261657D01*
X107471Y261722D01*
X107551Y261783D01*
X107633Y261842D01*
X107717Y261897D01*
X107803Y261949D01*
X107891Y261998D01*
X107981Y262043D01*
X108073Y262085D01*
X108166Y262123D01*
X108261Y262157D01*
X108356Y262188D01*
X108453Y262215D01*
X108551Y262238D01*
X108650Y262258D01*
X108750Y262273D01*
X108850Y262285D01*
X108950Y262293D01*
X109051Y262297D01*
X109151Y262297D01*
X109252Y262293D01*
X109352Y262285D01*
X109452Y262273D01*
X109552Y262258D01*
X109651Y262238D01*
X109749Y262215D01*
X109846Y262188D01*
X109941Y262157D01*
X110036Y262123D01*
X110129Y262085D01*
X110221Y262043D01*
X110311Y261998D01*
X110399Y261949D01*
X110485Y261897D01*
X110569Y261842D01*
X110651Y261783D01*
X110731Y261722D01*
X110808Y261657D01*
X110882Y261589D01*
X110954Y261519D01*
X111023Y261446D01*
X111090Y261370D01*
X111153Y261291D01*
X111213Y261211D01*
X111270Y261128D01*
X111324Y261042D01*
X111374Y260955D01*
X111421Y260866D01*
X111464Y260775D01*
X111504Y260683D01*
X111540Y260589D01*
X111573Y260494D01*
X111602Y260397D01*
X111627Y260300D01*
X111648Y260201D01*
X111666Y260102D01*
X111679Y260002D01*
X111689Y259902D01*
X111695Y259802D01*
X111697Y259701D01*
X111697Y258403D01*
X106504Y258403D01*
X116791Y254508D02*
X116791Y262297D01*
X120037Y262297D01*
X120124Y262295D01*
X120212Y262289D01*
X120298Y262279D01*
X120385Y262266D01*
X120470Y262248D01*
X120555Y262227D01*
X120639Y262202D01*
X120721Y262173D01*
X120802Y262140D01*
X120882Y262104D01*
X120960Y262065D01*
X121036Y262021D01*
X121110Y261975D01*
X121181Y261925D01*
X121251Y261872D01*
X121318Y261816D01*
X121382Y261757D01*
X121444Y261696D01*
X121503Y261631D01*
X121559Y261564D01*
X121612Y261494D01*
X121662Y261423D01*
X121708Y261349D01*
X121752Y261273D01*
X121791Y261195D01*
X121827Y261115D01*
X121860Y261034D01*
X121889Y260952D01*
X121914Y260868D01*
X121935Y260783D01*
X121953Y260698D01*
X121966Y260611D01*
X121976Y260525D01*
X121982Y260437D01*
X121984Y260350D01*
X121984Y254508D01*
X135771Y254508D02*
X135771Y266192D01*
X139016Y266192D02*
X132525Y266192D01*
X145677Y266192D02*
X145677Y254508D01*
X142431Y266192D02*
X148922Y266192D01*
X153503Y266192D02*
X153503Y254508D01*
X158695Y254508D01*
D11*
X146050Y247650D02*
X0Y247650D01*
X146050Y247650D02*
X158750Y260350D01*
X158750Y292100D01*
D12*
X140200Y251300D02*
X140209Y252067D01*
X140238Y252833D01*
X140285Y253599D01*
X140350Y254363D01*
X140435Y255125D01*
X140538Y255885D01*
X140660Y256643D01*
X140800Y257397D01*
X140959Y258147D01*
X141137Y258893D01*
X141332Y259635D01*
X141546Y260371D01*
X141777Y261103D01*
X142027Y261828D01*
X142294Y262547D01*
X142579Y263259D01*
X142881Y263964D01*
X143200Y264661D01*
X143537Y265350D01*
X143890Y266031D01*
X144260Y266703D01*
X144646Y267366D01*
X145048Y268019D01*
X145467Y268662D01*
X145900Y269294D01*
X146350Y269916D01*
X146814Y270526D01*
X147293Y271125D01*
X147787Y271712D01*
X148295Y272286D01*
X148817Y272848D01*
X149353Y273397D01*
X149902Y273933D01*
X150464Y274455D01*
X151038Y274963D01*
X151625Y275457D01*
X152224Y275936D01*
X152834Y276400D01*
X153456Y276850D01*
X154088Y277283D01*
X154731Y277702D01*
X155384Y278104D01*
X156047Y278490D01*
X156719Y278860D01*
X157400Y279213D01*
X158089Y279550D01*
X158786Y279869D01*
X159491Y280171D01*
X160203Y280456D01*
X160922Y280723D01*
X161647Y280973D01*
X162379Y281204D01*
X163115Y281418D01*
X163857Y281613D01*
X164603Y281791D01*
X165353Y281950D01*
X166107Y282090D01*
X166865Y282212D01*
X167625Y282315D01*
X168387Y282400D01*
X169151Y282465D01*
X169917Y282512D01*
X170683Y282541D01*
X171450Y282550D01*
X172217Y282541D01*
X172983Y282512D01*
X173749Y282465D01*
X174513Y282400D01*
X175275Y282315D01*
X176035Y282212D01*
X176793Y282090D01*
X177547Y281950D01*
X178297Y281791D01*
X179043Y281613D01*
X179785Y281418D01*
X180521Y281204D01*
X181253Y280973D01*
X181978Y280723D01*
X182697Y280456D01*
X183409Y280171D01*
X184114Y279869D01*
X184811Y279550D01*
X185500Y279213D01*
X186181Y278860D01*
X186853Y278490D01*
X187516Y278104D01*
X188169Y277702D01*
X188812Y277283D01*
X189444Y276850D01*
X190066Y276400D01*
X190676Y275936D01*
X191275Y275457D01*
X191862Y274963D01*
X192436Y274455D01*
X192998Y273933D01*
X193547Y273397D01*
X194083Y272848D01*
X194605Y272286D01*
X195113Y271712D01*
X195607Y271125D01*
X196086Y270526D01*
X196550Y269916D01*
X197000Y269294D01*
X197433Y268662D01*
X197852Y268019D01*
X198254Y267366D01*
X198640Y266703D01*
X199010Y266031D01*
X199363Y265350D01*
X199700Y264661D01*
X200019Y263964D01*
X200321Y263259D01*
X200606Y262547D01*
X200873Y261828D01*
X201123Y261103D01*
X201354Y260371D01*
X201568Y259635D01*
X201763Y258893D01*
X201941Y258147D01*
X202100Y257397D01*
X202240Y256643D01*
X202362Y255885D01*
X202465Y255125D01*
X202550Y254363D01*
X202615Y253599D01*
X202662Y252833D01*
X202691Y252067D01*
X202700Y251300D01*
X202691Y250533D01*
X202662Y249767D01*
X202615Y249001D01*
X202550Y248237D01*
X202465Y247475D01*
X202362Y246715D01*
X202240Y245957D01*
X202100Y245203D01*
X201941Y244453D01*
X201763Y243707D01*
X201568Y242965D01*
X201354Y242229D01*
X201123Y241497D01*
X200873Y240772D01*
X200606Y240053D01*
X200321Y239341D01*
X200019Y238636D01*
X199700Y237939D01*
X199363Y237250D01*
X199010Y236569D01*
X198640Y235897D01*
X198254Y235234D01*
X197852Y234581D01*
X197433Y233938D01*
X197000Y233306D01*
X196550Y232684D01*
X196086Y232074D01*
X195607Y231475D01*
X195113Y230888D01*
X194605Y230314D01*
X194083Y229752D01*
X193547Y229203D01*
X192998Y228667D01*
X192436Y228145D01*
X191862Y227637D01*
X191275Y227143D01*
X190676Y226664D01*
X190066Y226200D01*
X189444Y225750D01*
X188812Y225317D01*
X188169Y224898D01*
X187516Y224496D01*
X186853Y224110D01*
X186181Y223740D01*
X185500Y223387D01*
X184811Y223050D01*
X184114Y222731D01*
X183409Y222429D01*
X182697Y222144D01*
X181978Y221877D01*
X181253Y221627D01*
X180521Y221396D01*
X179785Y221182D01*
X179043Y220987D01*
X178297Y220809D01*
X177547Y220650D01*
X176793Y220510D01*
X176035Y220388D01*
X175275Y220285D01*
X174513Y220200D01*
X173749Y220135D01*
X172983Y220088D01*
X172217Y220059D01*
X171450Y220050D01*
X170683Y220059D01*
X169917Y220088D01*
X169151Y220135D01*
X168387Y220200D01*
X167625Y220285D01*
X166865Y220388D01*
X166107Y220510D01*
X165353Y220650D01*
X164603Y220809D01*
X163857Y220987D01*
X163115Y221182D01*
X162379Y221396D01*
X161647Y221627D01*
X160922Y221877D01*
X160203Y222144D01*
X159491Y222429D01*
X158786Y222731D01*
X158089Y223050D01*
X157400Y223387D01*
X156719Y223740D01*
X156047Y224110D01*
X155384Y224496D01*
X154731Y224898D01*
X154088Y225317D01*
X153456Y225750D01*
X152834Y226200D01*
X152224Y226664D01*
X151625Y227143D01*
X151038Y227637D01*
X150464Y228145D01*
X149902Y228667D01*
X149353Y229203D01*
X148817Y229752D01*
X148295Y230314D01*
X147787Y230888D01*
X147293Y231475D01*
X146814Y232074D01*
X146350Y232684D01*
X145900Y233306D01*
X145467Y233938D01*
X145048Y234581D01*
X144646Y235234D01*
X144260Y235897D01*
X143890Y236569D01*
X143537Y237250D01*
X143200Y237939D01*
X142881Y238636D01*
X142579Y239341D01*
X142294Y240053D01*
X142027Y240772D01*
X141777Y241497D01*
X141546Y242229D01*
X141332Y242965D01*
X141137Y243707D01*
X140959Y244453D01*
X140800Y245203D01*
X140660Y245957D01*
X140538Y246715D01*
X140435Y247475D01*
X140350Y248237D01*
X140285Y249001D01*
X140238Y249767D01*
X140209Y250533D01*
X140200Y251300D01*
D13*
X145200Y251300D02*
X145208Y251944D01*
X145232Y252588D01*
X145271Y253231D01*
X145326Y253873D01*
X145397Y254513D01*
X145484Y255152D01*
X145586Y255788D01*
X145704Y256421D01*
X145838Y257051D01*
X145987Y257678D01*
X146151Y258301D01*
X146330Y258920D01*
X146525Y259534D01*
X146734Y260143D01*
X146959Y260747D01*
X147198Y261345D01*
X147452Y261938D01*
X147720Y262523D01*
X148003Y263102D01*
X148300Y263674D01*
X148610Y264239D01*
X148935Y264795D01*
X149273Y265344D01*
X149624Y265884D01*
X149988Y266415D01*
X150366Y266937D01*
X150756Y267450D01*
X151158Y267953D01*
X151573Y268446D01*
X152000Y268928D01*
X152439Y269400D01*
X152888Y269862D01*
X153350Y270311D01*
X153822Y270750D01*
X154304Y271177D01*
X154797Y271592D01*
X155300Y271994D01*
X155813Y272384D01*
X156335Y272762D01*
X156866Y273126D01*
X157406Y273477D01*
X157955Y273815D01*
X158511Y274140D01*
X159076Y274450D01*
X159648Y274747D01*
X160227Y275030D01*
X160812Y275298D01*
X161405Y275552D01*
X162003Y275791D01*
X162607Y276016D01*
X163216Y276225D01*
X163830Y276420D01*
X164449Y276599D01*
X165072Y276763D01*
X165699Y276912D01*
X166329Y277046D01*
X166962Y277164D01*
X167598Y277266D01*
X168237Y277353D01*
X168877Y277424D01*
X169519Y277479D01*
X170162Y277518D01*
X170806Y277542D01*
X171450Y277550D01*
X172094Y277542D01*
X172738Y277518D01*
X173381Y277479D01*
X174023Y277424D01*
X174663Y277353D01*
X175302Y277266D01*
X175938Y277164D01*
X176571Y277046D01*
X177201Y276912D01*
X177828Y276763D01*
X178451Y276599D01*
X179070Y276420D01*
X179684Y276225D01*
X180293Y276016D01*
X180897Y275791D01*
X181495Y275552D01*
X182088Y275298D01*
X182673Y275030D01*
X183252Y274747D01*
X183824Y274450D01*
X184389Y274140D01*
X184945Y273815D01*
X185494Y273477D01*
X186034Y273126D01*
X186565Y272762D01*
X187087Y272384D01*
X187600Y271994D01*
X188103Y271592D01*
X188596Y271177D01*
X189078Y270750D01*
X189550Y270311D01*
X190012Y269862D01*
X190461Y269400D01*
X190900Y268928D01*
X191327Y268446D01*
X191742Y267953D01*
X192144Y267450D01*
X192534Y266937D01*
X192912Y266415D01*
X193276Y265884D01*
X193627Y265344D01*
X193965Y264795D01*
X194290Y264239D01*
X194600Y263674D01*
X194897Y263102D01*
X195180Y262523D01*
X195448Y261938D01*
X195702Y261345D01*
X195941Y260747D01*
X196166Y260143D01*
X196375Y259534D01*
X196570Y258920D01*
X196749Y258301D01*
X196913Y257678D01*
X197062Y257051D01*
X197196Y256421D01*
X197314Y255788D01*
X197416Y255152D01*
X197503Y254513D01*
X197574Y253873D01*
X197629Y253231D01*
X197668Y252588D01*
X197692Y251944D01*
X197700Y251300D01*
X197692Y250656D01*
X197668Y250012D01*
X197629Y249369D01*
X197574Y248727D01*
X197503Y248087D01*
X197416Y247448D01*
X197314Y246812D01*
X197196Y246179D01*
X197062Y245549D01*
X196913Y244922D01*
X196749Y244299D01*
X196570Y243680D01*
X196375Y243066D01*
X196166Y242457D01*
X195941Y241853D01*
X195702Y241255D01*
X195448Y240662D01*
X195180Y240077D01*
X194897Y239498D01*
X194600Y238926D01*
X194290Y238361D01*
X193965Y237805D01*
X193627Y237256D01*
X193276Y236716D01*
X192912Y236185D01*
X192534Y235663D01*
X192144Y235150D01*
X191742Y234647D01*
X191327Y234154D01*
X190900Y233672D01*
X190461Y233200D01*
X190012Y232738D01*
X189550Y232289D01*
X189078Y231850D01*
X188596Y231423D01*
X188103Y231008D01*
X187600Y230606D01*
X187087Y230216D01*
X186565Y229838D01*
X186034Y229474D01*
X185494Y229123D01*
X184945Y228785D01*
X184389Y228460D01*
X183824Y228150D01*
X183252Y227853D01*
X182673Y227570D01*
X182088Y227302D01*
X181495Y227048D01*
X180897Y226809D01*
X180293Y226584D01*
X179684Y226375D01*
X179070Y226180D01*
X178451Y226001D01*
X177828Y225837D01*
X177201Y225688D01*
X176571Y225554D01*
X175938Y225436D01*
X175302Y225334D01*
X174663Y225247D01*
X174023Y225176D01*
X173381Y225121D01*
X172738Y225082D01*
X172094Y225058D01*
X171450Y225050D01*
X170806Y225058D01*
X170162Y225082D01*
X169519Y225121D01*
X168877Y225176D01*
X168237Y225247D01*
X167598Y225334D01*
X166962Y225436D01*
X166329Y225554D01*
X165699Y225688D01*
X165072Y225837D01*
X164449Y226001D01*
X163830Y226180D01*
X163216Y226375D01*
X162607Y226584D01*
X162003Y226809D01*
X161405Y227048D01*
X160812Y227302D01*
X160227Y227570D01*
X159648Y227853D01*
X159076Y228150D01*
X158511Y228460D01*
X157955Y228785D01*
X157406Y229123D01*
X156866Y229474D01*
X156335Y229838D01*
X155813Y230216D01*
X155300Y230606D01*
X154797Y231008D01*
X154304Y231423D01*
X153822Y231850D01*
X153350Y232289D01*
X152888Y232738D01*
X152439Y233200D01*
X152000Y233672D01*
X151573Y234154D01*
X151158Y234647D01*
X150756Y235150D01*
X150366Y235663D01*
X149988Y236185D01*
X149624Y236716D01*
X149273Y237256D01*
X148935Y237805D01*
X148610Y238361D01*
X148300Y238926D01*
X148003Y239498D01*
X147720Y240077D01*
X147452Y240662D01*
X147198Y241255D01*
X146959Y241853D01*
X146734Y242457D01*
X146525Y243066D01*
X146330Y243680D01*
X146151Y244299D01*
X145987Y244922D01*
X145838Y245549D01*
X145704Y246179D01*
X145586Y246812D01*
X145484Y247448D01*
X145397Y248087D01*
X145326Y248727D01*
X145271Y249369D01*
X145232Y250012D01*
X145208Y250656D01*
X145200Y251300D01*
D10*
X191422Y260858D02*
X194018Y260858D01*
X191422Y260858D02*
X191323Y260860D01*
X191223Y260866D01*
X191124Y260875D01*
X191026Y260888D01*
X190928Y260905D01*
X190830Y260926D01*
X190734Y260951D01*
X190639Y260979D01*
X190545Y261011D01*
X190452Y261046D01*
X190360Y261085D01*
X190270Y261128D01*
X190182Y261173D01*
X190095Y261223D01*
X190011Y261275D01*
X189928Y261331D01*
X189848Y261389D01*
X189770Y261451D01*
X189695Y261516D01*
X189622Y261584D01*
X189552Y261654D01*
X189484Y261727D01*
X189419Y261802D01*
X189357Y261880D01*
X189299Y261960D01*
X189243Y262043D01*
X189191Y262127D01*
X189141Y262214D01*
X189096Y262302D01*
X189053Y262392D01*
X189014Y262484D01*
X188979Y262577D01*
X188947Y262671D01*
X188919Y262766D01*
X188894Y262862D01*
X188873Y262960D01*
X188856Y263058D01*
X188843Y263156D01*
X188834Y263255D01*
X188828Y263355D01*
X188826Y263454D01*
X188825Y263454D02*
X188825Y269946D01*
X188826Y269946D02*
X188828Y270045D01*
X188834Y270145D01*
X188843Y270244D01*
X188856Y270342D01*
X188873Y270440D01*
X188894Y270538D01*
X188919Y270634D01*
X188947Y270729D01*
X188979Y270823D01*
X189014Y270916D01*
X189053Y271008D01*
X189096Y271098D01*
X189141Y271186D01*
X189191Y271273D01*
X189243Y271357D01*
X189299Y271440D01*
X189357Y271520D01*
X189419Y271598D01*
X189484Y271673D01*
X189552Y271746D01*
X189622Y271816D01*
X189695Y271884D01*
X189770Y271949D01*
X189848Y272011D01*
X189928Y272069D01*
X190011Y272125D01*
X190095Y272177D01*
X190182Y272227D01*
X190270Y272272D01*
X190360Y272315D01*
X190452Y272354D01*
X190544Y272389D01*
X190639Y272421D01*
X190734Y272449D01*
X190830Y272474D01*
X190928Y272495D01*
X191026Y272512D01*
X191124Y272525D01*
X191223Y272534D01*
X191323Y272540D01*
X191422Y272542D01*
X194018Y272542D01*
X198384Y269946D02*
X201629Y272542D01*
X201629Y260858D01*
X198384Y260858D02*
X204875Y260858D01*
X71186Y19558D02*
X68589Y19558D01*
X68490Y19560D01*
X68390Y19566D01*
X68291Y19575D01*
X68193Y19588D01*
X68095Y19605D01*
X67997Y19626D01*
X67901Y19651D01*
X67806Y19679D01*
X67712Y19711D01*
X67619Y19746D01*
X67527Y19785D01*
X67437Y19828D01*
X67349Y19873D01*
X67262Y19923D01*
X67178Y19975D01*
X67095Y20031D01*
X67015Y20089D01*
X66937Y20151D01*
X66862Y20216D01*
X66789Y20284D01*
X66719Y20354D01*
X66651Y20427D01*
X66586Y20502D01*
X66524Y20580D01*
X66466Y20660D01*
X66410Y20743D01*
X66358Y20827D01*
X66308Y20914D01*
X66263Y21002D01*
X66220Y21092D01*
X66181Y21184D01*
X66146Y21277D01*
X66114Y21371D01*
X66086Y21466D01*
X66061Y21562D01*
X66040Y21660D01*
X66023Y21758D01*
X66010Y21856D01*
X66001Y21955D01*
X65995Y22055D01*
X65993Y22154D01*
X65993Y28646D01*
X65995Y28745D01*
X66001Y28845D01*
X66010Y28944D01*
X66023Y29042D01*
X66040Y29140D01*
X66061Y29238D01*
X66086Y29334D01*
X66114Y29429D01*
X66146Y29523D01*
X66181Y29616D01*
X66220Y29708D01*
X66263Y29798D01*
X66308Y29886D01*
X66358Y29973D01*
X66410Y30057D01*
X66466Y30140D01*
X66524Y30220D01*
X66586Y30298D01*
X66651Y30373D01*
X66719Y30446D01*
X66789Y30516D01*
X66862Y30584D01*
X66937Y30649D01*
X67015Y30711D01*
X67095Y30769D01*
X67178Y30825D01*
X67262Y30877D01*
X67349Y30927D01*
X67437Y30972D01*
X67527Y31015D01*
X67619Y31054D01*
X67711Y31089D01*
X67806Y31121D01*
X67901Y31149D01*
X67997Y31174D01*
X68095Y31195D01*
X68193Y31212D01*
X68291Y31225D01*
X68390Y31234D01*
X68490Y31240D01*
X68589Y31242D01*
X71186Y31242D01*
X79121Y31242D02*
X79228Y31240D01*
X79334Y31234D01*
X79440Y31224D01*
X79546Y31211D01*
X79652Y31193D01*
X79756Y31172D01*
X79860Y31147D01*
X79963Y31118D01*
X80064Y31086D01*
X80164Y31049D01*
X80263Y31009D01*
X80361Y30966D01*
X80457Y30919D01*
X80551Y30868D01*
X80643Y30814D01*
X80733Y30757D01*
X80821Y30697D01*
X80906Y30633D01*
X80989Y30566D01*
X81070Y30496D01*
X81148Y30424D01*
X81224Y30348D01*
X81296Y30270D01*
X81366Y30189D01*
X81433Y30106D01*
X81497Y30021D01*
X81557Y29933D01*
X81614Y29843D01*
X81668Y29751D01*
X81719Y29657D01*
X81766Y29561D01*
X81809Y29463D01*
X81849Y29364D01*
X81886Y29264D01*
X81918Y29163D01*
X81947Y29060D01*
X81972Y28956D01*
X81993Y28852D01*
X82011Y28746D01*
X82024Y28640D01*
X82034Y28534D01*
X82040Y28428D01*
X82042Y28321D01*
X79121Y31242D02*
X79000Y31240D01*
X78879Y31234D01*
X78759Y31224D01*
X78638Y31211D01*
X78519Y31193D01*
X78399Y31172D01*
X78281Y31147D01*
X78164Y31118D01*
X78047Y31085D01*
X77932Y31049D01*
X77818Y31008D01*
X77705Y30965D01*
X77593Y30917D01*
X77484Y30866D01*
X77376Y30811D01*
X77269Y30753D01*
X77165Y30692D01*
X77063Y30627D01*
X76963Y30559D01*
X76865Y30488D01*
X76769Y30414D01*
X76676Y30337D01*
X76586Y30256D01*
X76498Y30173D01*
X76413Y30087D01*
X76330Y29998D01*
X76251Y29907D01*
X76174Y29813D01*
X76101Y29717D01*
X76031Y29619D01*
X75964Y29518D01*
X75900Y29415D01*
X75840Y29310D01*
X75783Y29203D01*
X75729Y29095D01*
X75679Y28985D01*
X75633Y28873D01*
X75590Y28760D01*
X75551Y28645D01*
X81069Y26049D02*
X81148Y26126D01*
X81224Y26207D01*
X81297Y26290D01*
X81367Y26375D01*
X81434Y26463D01*
X81498Y26553D01*
X81558Y26645D01*
X81615Y26740D01*
X81669Y26836D01*
X81720Y26934D01*
X81767Y27034D01*
X81811Y27136D01*
X81851Y27239D01*
X81887Y27343D01*
X81919Y27449D01*
X81948Y27555D01*
X81973Y27663D01*
X81995Y27771D01*
X82012Y27881D01*
X82026Y27990D01*
X82035Y28100D01*
X82041Y28211D01*
X82043Y28321D01*
X81068Y26049D02*
X75551Y19558D01*
X82042Y19558D01*
X301554Y222758D02*
X304151Y222758D01*
X301554Y222758D02*
X301455Y222760D01*
X301355Y222766D01*
X301256Y222775D01*
X301158Y222788D01*
X301060Y222805D01*
X300962Y222826D01*
X300866Y222851D01*
X300771Y222879D01*
X300677Y222911D01*
X300584Y222946D01*
X300492Y222985D01*
X300402Y223028D01*
X300314Y223073D01*
X300227Y223123D01*
X300143Y223175D01*
X300060Y223231D01*
X299980Y223289D01*
X299902Y223351D01*
X299827Y223416D01*
X299754Y223484D01*
X299684Y223554D01*
X299616Y223627D01*
X299551Y223702D01*
X299489Y223780D01*
X299431Y223860D01*
X299375Y223943D01*
X299323Y224027D01*
X299273Y224114D01*
X299228Y224202D01*
X299185Y224292D01*
X299146Y224384D01*
X299111Y224477D01*
X299079Y224571D01*
X299051Y224666D01*
X299026Y224762D01*
X299005Y224860D01*
X298988Y224958D01*
X298975Y225056D01*
X298966Y225155D01*
X298960Y225255D01*
X298958Y225354D01*
X298958Y231846D01*
X298960Y231945D01*
X298966Y232045D01*
X298975Y232144D01*
X298988Y232242D01*
X299005Y232340D01*
X299026Y232438D01*
X299051Y232534D01*
X299079Y232629D01*
X299111Y232723D01*
X299146Y232816D01*
X299185Y232908D01*
X299228Y232998D01*
X299273Y233086D01*
X299323Y233173D01*
X299375Y233257D01*
X299431Y233340D01*
X299489Y233420D01*
X299551Y233498D01*
X299616Y233573D01*
X299684Y233646D01*
X299754Y233716D01*
X299827Y233784D01*
X299902Y233849D01*
X299980Y233911D01*
X300060Y233969D01*
X300143Y234025D01*
X300227Y234077D01*
X300314Y234127D01*
X300402Y234172D01*
X300492Y234215D01*
X300584Y234254D01*
X300676Y234289D01*
X300771Y234321D01*
X300866Y234349D01*
X300962Y234374D01*
X301060Y234395D01*
X301158Y234412D01*
X301256Y234425D01*
X301355Y234434D01*
X301455Y234440D01*
X301554Y234442D01*
X304151Y234442D01*
X308516Y222758D02*
X311762Y222758D01*
X311875Y222760D01*
X311988Y222766D01*
X312101Y222776D01*
X312214Y222790D01*
X312326Y222807D01*
X312437Y222829D01*
X312547Y222854D01*
X312657Y222884D01*
X312765Y222917D01*
X312872Y222954D01*
X312978Y222994D01*
X313082Y223039D01*
X313185Y223087D01*
X313286Y223138D01*
X313385Y223193D01*
X313482Y223251D01*
X313577Y223313D01*
X313670Y223378D01*
X313760Y223446D01*
X313848Y223517D01*
X313934Y223592D01*
X314017Y223669D01*
X314097Y223749D01*
X314174Y223832D01*
X314249Y223918D01*
X314320Y224006D01*
X314388Y224096D01*
X314453Y224189D01*
X314515Y224284D01*
X314573Y224381D01*
X314628Y224480D01*
X314679Y224581D01*
X314727Y224684D01*
X314772Y224788D01*
X314812Y224894D01*
X314849Y225001D01*
X314882Y225109D01*
X314912Y225219D01*
X314937Y225329D01*
X314959Y225440D01*
X314976Y225552D01*
X314990Y225665D01*
X315000Y225778D01*
X315006Y225891D01*
X315008Y226004D01*
X315006Y226117D01*
X315000Y226230D01*
X314990Y226343D01*
X314976Y226456D01*
X314959Y226568D01*
X314937Y226679D01*
X314912Y226789D01*
X314882Y226899D01*
X314849Y227007D01*
X314812Y227114D01*
X314772Y227220D01*
X314727Y227324D01*
X314679Y227427D01*
X314628Y227528D01*
X314573Y227627D01*
X314515Y227724D01*
X314453Y227819D01*
X314388Y227912D01*
X314320Y228002D01*
X314249Y228090D01*
X314174Y228176D01*
X314097Y228259D01*
X314017Y228339D01*
X313934Y228416D01*
X313848Y228491D01*
X313760Y228562D01*
X313670Y228630D01*
X313577Y228695D01*
X313482Y228757D01*
X313385Y228815D01*
X313286Y228870D01*
X313185Y228921D01*
X313082Y228969D01*
X312978Y229014D01*
X312872Y229054D01*
X312765Y229091D01*
X312657Y229124D01*
X312547Y229154D01*
X312437Y229179D01*
X312326Y229201D01*
X312214Y229218D01*
X312101Y229232D01*
X311988Y229242D01*
X311875Y229248D01*
X311762Y229250D01*
X312411Y234442D02*
X308516Y234442D01*
X312411Y234442D02*
X312512Y234440D01*
X312612Y234434D01*
X312712Y234424D01*
X312812Y234411D01*
X312911Y234393D01*
X313010Y234372D01*
X313107Y234347D01*
X313204Y234318D01*
X313299Y234285D01*
X313393Y234249D01*
X313485Y234209D01*
X313576Y234166D01*
X313665Y234119D01*
X313752Y234069D01*
X313838Y234015D01*
X313921Y233958D01*
X314001Y233898D01*
X314080Y233835D01*
X314156Y233768D01*
X314229Y233699D01*
X314299Y233627D01*
X314367Y233553D01*
X314432Y233476D01*
X314493Y233396D01*
X314552Y233314D01*
X314607Y233230D01*
X314659Y233144D01*
X314708Y233056D01*
X314753Y232966D01*
X314795Y232874D01*
X314833Y232781D01*
X314867Y232686D01*
X314898Y232591D01*
X314925Y232494D01*
X314948Y232396D01*
X314968Y232297D01*
X314983Y232197D01*
X314995Y232097D01*
X315003Y231997D01*
X315007Y231896D01*
X315007Y231796D01*
X315003Y231695D01*
X314995Y231595D01*
X314983Y231495D01*
X314968Y231395D01*
X314948Y231296D01*
X314925Y231198D01*
X314898Y231101D01*
X314867Y231006D01*
X314833Y230911D01*
X314795Y230818D01*
X314753Y230726D01*
X314708Y230636D01*
X314659Y230548D01*
X314607Y230462D01*
X314552Y230378D01*
X314493Y230296D01*
X314432Y230216D01*
X314367Y230139D01*
X314299Y230065D01*
X314229Y229993D01*
X314156Y229924D01*
X314080Y229857D01*
X314001Y229794D01*
X313921Y229734D01*
X313838Y229677D01*
X313752Y229623D01*
X313665Y229573D01*
X313576Y229526D01*
X313485Y229483D01*
X313393Y229443D01*
X313299Y229407D01*
X313204Y229374D01*
X313107Y229345D01*
X313010Y229320D01*
X312911Y229299D01*
X312812Y229281D01*
X312712Y229268D01*
X312612Y229258D01*
X312512Y229252D01*
X312411Y229250D01*
X312411Y229249D02*
X309814Y229249D01*
D12*
X210050Y251300D02*
X210059Y252067D01*
X210088Y252833D01*
X210135Y253599D01*
X210200Y254363D01*
X210285Y255125D01*
X210388Y255885D01*
X210510Y256643D01*
X210650Y257397D01*
X210809Y258147D01*
X210987Y258893D01*
X211182Y259635D01*
X211396Y260371D01*
X211627Y261103D01*
X211877Y261828D01*
X212144Y262547D01*
X212429Y263259D01*
X212731Y263964D01*
X213050Y264661D01*
X213387Y265350D01*
X213740Y266031D01*
X214110Y266703D01*
X214496Y267366D01*
X214898Y268019D01*
X215317Y268662D01*
X215750Y269294D01*
X216200Y269916D01*
X216664Y270526D01*
X217143Y271125D01*
X217637Y271712D01*
X218145Y272286D01*
X218667Y272848D01*
X219203Y273397D01*
X219752Y273933D01*
X220314Y274455D01*
X220888Y274963D01*
X221475Y275457D01*
X222074Y275936D01*
X222684Y276400D01*
X223306Y276850D01*
X223938Y277283D01*
X224581Y277702D01*
X225234Y278104D01*
X225897Y278490D01*
X226569Y278860D01*
X227250Y279213D01*
X227939Y279550D01*
X228636Y279869D01*
X229341Y280171D01*
X230053Y280456D01*
X230772Y280723D01*
X231497Y280973D01*
X232229Y281204D01*
X232965Y281418D01*
X233707Y281613D01*
X234453Y281791D01*
X235203Y281950D01*
X235957Y282090D01*
X236715Y282212D01*
X237475Y282315D01*
X238237Y282400D01*
X239001Y282465D01*
X239767Y282512D01*
X240533Y282541D01*
X241300Y282550D01*
X242067Y282541D01*
X242833Y282512D01*
X243599Y282465D01*
X244363Y282400D01*
X245125Y282315D01*
X245885Y282212D01*
X246643Y282090D01*
X247397Y281950D01*
X248147Y281791D01*
X248893Y281613D01*
X249635Y281418D01*
X250371Y281204D01*
X251103Y280973D01*
X251828Y280723D01*
X252547Y280456D01*
X253259Y280171D01*
X253964Y279869D01*
X254661Y279550D01*
X255350Y279213D01*
X256031Y278860D01*
X256703Y278490D01*
X257366Y278104D01*
X258019Y277702D01*
X258662Y277283D01*
X259294Y276850D01*
X259916Y276400D01*
X260526Y275936D01*
X261125Y275457D01*
X261712Y274963D01*
X262286Y274455D01*
X262848Y273933D01*
X263397Y273397D01*
X263933Y272848D01*
X264455Y272286D01*
X264963Y271712D01*
X265457Y271125D01*
X265936Y270526D01*
X266400Y269916D01*
X266850Y269294D01*
X267283Y268662D01*
X267702Y268019D01*
X268104Y267366D01*
X268490Y266703D01*
X268860Y266031D01*
X269213Y265350D01*
X269550Y264661D01*
X269869Y263964D01*
X270171Y263259D01*
X270456Y262547D01*
X270723Y261828D01*
X270973Y261103D01*
X271204Y260371D01*
X271418Y259635D01*
X271613Y258893D01*
X271791Y258147D01*
X271950Y257397D01*
X272090Y256643D01*
X272212Y255885D01*
X272315Y255125D01*
X272400Y254363D01*
X272465Y253599D01*
X272512Y252833D01*
X272541Y252067D01*
X272550Y251300D01*
X272541Y250533D01*
X272512Y249767D01*
X272465Y249001D01*
X272400Y248237D01*
X272315Y247475D01*
X272212Y246715D01*
X272090Y245957D01*
X271950Y245203D01*
X271791Y244453D01*
X271613Y243707D01*
X271418Y242965D01*
X271204Y242229D01*
X270973Y241497D01*
X270723Y240772D01*
X270456Y240053D01*
X270171Y239341D01*
X269869Y238636D01*
X269550Y237939D01*
X269213Y237250D01*
X268860Y236569D01*
X268490Y235897D01*
X268104Y235234D01*
X267702Y234581D01*
X267283Y233938D01*
X266850Y233306D01*
X266400Y232684D01*
X265936Y232074D01*
X265457Y231475D01*
X264963Y230888D01*
X264455Y230314D01*
X263933Y229752D01*
X263397Y229203D01*
X262848Y228667D01*
X262286Y228145D01*
X261712Y227637D01*
X261125Y227143D01*
X260526Y226664D01*
X259916Y226200D01*
X259294Y225750D01*
X258662Y225317D01*
X258019Y224898D01*
X257366Y224496D01*
X256703Y224110D01*
X256031Y223740D01*
X255350Y223387D01*
X254661Y223050D01*
X253964Y222731D01*
X253259Y222429D01*
X252547Y222144D01*
X251828Y221877D01*
X251103Y221627D01*
X250371Y221396D01*
X249635Y221182D01*
X248893Y220987D01*
X248147Y220809D01*
X247397Y220650D01*
X246643Y220510D01*
X245885Y220388D01*
X245125Y220285D01*
X244363Y220200D01*
X243599Y220135D01*
X242833Y220088D01*
X242067Y220059D01*
X241300Y220050D01*
X240533Y220059D01*
X239767Y220088D01*
X239001Y220135D01*
X238237Y220200D01*
X237475Y220285D01*
X236715Y220388D01*
X235957Y220510D01*
X235203Y220650D01*
X234453Y220809D01*
X233707Y220987D01*
X232965Y221182D01*
X232229Y221396D01*
X231497Y221627D01*
X230772Y221877D01*
X230053Y222144D01*
X229341Y222429D01*
X228636Y222731D01*
X227939Y223050D01*
X227250Y223387D01*
X226569Y223740D01*
X225897Y224110D01*
X225234Y224496D01*
X224581Y224898D01*
X223938Y225317D01*
X223306Y225750D01*
X222684Y226200D01*
X222074Y226664D01*
X221475Y227143D01*
X220888Y227637D01*
X220314Y228145D01*
X219752Y228667D01*
X219203Y229203D01*
X218667Y229752D01*
X218145Y230314D01*
X217637Y230888D01*
X217143Y231475D01*
X216664Y232074D01*
X216200Y232684D01*
X215750Y233306D01*
X215317Y233938D01*
X214898Y234581D01*
X214496Y235234D01*
X214110Y235897D01*
X213740Y236569D01*
X213387Y237250D01*
X213050Y237939D01*
X212731Y238636D01*
X212429Y239341D01*
X212144Y240053D01*
X211877Y240772D01*
X211627Y241497D01*
X211396Y242229D01*
X211182Y242965D01*
X210987Y243707D01*
X210809Y244453D01*
X210650Y245203D01*
X210510Y245957D01*
X210388Y246715D01*
X210285Y247475D01*
X210200Y248237D01*
X210135Y249001D01*
X210088Y249767D01*
X210059Y250533D01*
X210050Y251300D01*
D13*
X215050Y251300D02*
X215058Y251944D01*
X215082Y252588D01*
X215121Y253231D01*
X215176Y253873D01*
X215247Y254513D01*
X215334Y255152D01*
X215436Y255788D01*
X215554Y256421D01*
X215688Y257051D01*
X215837Y257678D01*
X216001Y258301D01*
X216180Y258920D01*
X216375Y259534D01*
X216584Y260143D01*
X216809Y260747D01*
X217048Y261345D01*
X217302Y261938D01*
X217570Y262523D01*
X217853Y263102D01*
X218150Y263674D01*
X218460Y264239D01*
X218785Y264795D01*
X219123Y265344D01*
X219474Y265884D01*
X219838Y266415D01*
X220216Y266937D01*
X220606Y267450D01*
X221008Y267953D01*
X221423Y268446D01*
X221850Y268928D01*
X222289Y269400D01*
X222738Y269862D01*
X223200Y270311D01*
X223672Y270750D01*
X224154Y271177D01*
X224647Y271592D01*
X225150Y271994D01*
X225663Y272384D01*
X226185Y272762D01*
X226716Y273126D01*
X227256Y273477D01*
X227805Y273815D01*
X228361Y274140D01*
X228926Y274450D01*
X229498Y274747D01*
X230077Y275030D01*
X230662Y275298D01*
X231255Y275552D01*
X231853Y275791D01*
X232457Y276016D01*
X233066Y276225D01*
X233680Y276420D01*
X234299Y276599D01*
X234922Y276763D01*
X235549Y276912D01*
X236179Y277046D01*
X236812Y277164D01*
X237448Y277266D01*
X238087Y277353D01*
X238727Y277424D01*
X239369Y277479D01*
X240012Y277518D01*
X240656Y277542D01*
X241300Y277550D01*
X241944Y277542D01*
X242588Y277518D01*
X243231Y277479D01*
X243873Y277424D01*
X244513Y277353D01*
X245152Y277266D01*
X245788Y277164D01*
X246421Y277046D01*
X247051Y276912D01*
X247678Y276763D01*
X248301Y276599D01*
X248920Y276420D01*
X249534Y276225D01*
X250143Y276016D01*
X250747Y275791D01*
X251345Y275552D01*
X251938Y275298D01*
X252523Y275030D01*
X253102Y274747D01*
X253674Y274450D01*
X254239Y274140D01*
X254795Y273815D01*
X255344Y273477D01*
X255884Y273126D01*
X256415Y272762D01*
X256937Y272384D01*
X257450Y271994D01*
X257953Y271592D01*
X258446Y271177D01*
X258928Y270750D01*
X259400Y270311D01*
X259862Y269862D01*
X260311Y269400D01*
X260750Y268928D01*
X261177Y268446D01*
X261592Y267953D01*
X261994Y267450D01*
X262384Y266937D01*
X262762Y266415D01*
X263126Y265884D01*
X263477Y265344D01*
X263815Y264795D01*
X264140Y264239D01*
X264450Y263674D01*
X264747Y263102D01*
X265030Y262523D01*
X265298Y261938D01*
X265552Y261345D01*
X265791Y260747D01*
X266016Y260143D01*
X266225Y259534D01*
X266420Y258920D01*
X266599Y258301D01*
X266763Y257678D01*
X266912Y257051D01*
X267046Y256421D01*
X267164Y255788D01*
X267266Y255152D01*
X267353Y254513D01*
X267424Y253873D01*
X267479Y253231D01*
X267518Y252588D01*
X267542Y251944D01*
X267550Y251300D01*
X267542Y250656D01*
X267518Y250012D01*
X267479Y249369D01*
X267424Y248727D01*
X267353Y248087D01*
X267266Y247448D01*
X267164Y246812D01*
X267046Y246179D01*
X266912Y245549D01*
X266763Y244922D01*
X266599Y244299D01*
X266420Y243680D01*
X266225Y243066D01*
X266016Y242457D01*
X265791Y241853D01*
X265552Y241255D01*
X265298Y240662D01*
X265030Y240077D01*
X264747Y239498D01*
X264450Y238926D01*
X264140Y238361D01*
X263815Y237805D01*
X263477Y237256D01*
X263126Y236716D01*
X262762Y236185D01*
X262384Y235663D01*
X261994Y235150D01*
X261592Y234647D01*
X261177Y234154D01*
X260750Y233672D01*
X260311Y233200D01*
X259862Y232738D01*
X259400Y232289D01*
X258928Y231850D01*
X258446Y231423D01*
X257953Y231008D01*
X257450Y230606D01*
X256937Y230216D01*
X256415Y229838D01*
X255884Y229474D01*
X255344Y229123D01*
X254795Y228785D01*
X254239Y228460D01*
X253674Y228150D01*
X253102Y227853D01*
X252523Y227570D01*
X251938Y227302D01*
X251345Y227048D01*
X250747Y226809D01*
X250143Y226584D01*
X249534Y226375D01*
X248920Y226180D01*
X248301Y226001D01*
X247678Y225837D01*
X247051Y225688D01*
X246421Y225554D01*
X245788Y225436D01*
X245152Y225334D01*
X244513Y225247D01*
X243873Y225176D01*
X243231Y225121D01*
X242588Y225082D01*
X241944Y225058D01*
X241300Y225050D01*
X240656Y225058D01*
X240012Y225082D01*
X239369Y225121D01*
X238727Y225176D01*
X238087Y225247D01*
X237448Y225334D01*
X236812Y225436D01*
X236179Y225554D01*
X235549Y225688D01*
X234922Y225837D01*
X234299Y226001D01*
X233680Y226180D01*
X233066Y226375D01*
X232457Y226584D01*
X231853Y226809D01*
X231255Y227048D01*
X230662Y227302D01*
X230077Y227570D01*
X229498Y227853D01*
X228926Y228150D01*
X228361Y228460D01*
X227805Y228785D01*
X227256Y229123D01*
X226716Y229474D01*
X226185Y229838D01*
X225663Y230216D01*
X225150Y230606D01*
X224647Y231008D01*
X224154Y231423D01*
X223672Y231850D01*
X223200Y232289D01*
X222738Y232738D01*
X222289Y233200D01*
X221850Y233672D01*
X221423Y234154D01*
X221008Y234647D01*
X220606Y235150D01*
X220216Y235663D01*
X219838Y236185D01*
X219474Y236716D01*
X219123Y237256D01*
X218785Y237805D01*
X218460Y238361D01*
X218150Y238926D01*
X217853Y239498D01*
X217570Y240077D01*
X217302Y240662D01*
X217048Y241255D01*
X216809Y241853D01*
X216584Y242457D01*
X216375Y243066D01*
X216180Y243680D01*
X216001Y244299D01*
X215837Y244922D01*
X215688Y245549D01*
X215554Y246179D01*
X215436Y246812D01*
X215334Y247448D01*
X215247Y248087D01*
X215176Y248727D01*
X215121Y249369D01*
X215082Y250012D01*
X215058Y250656D01*
X215050Y251300D01*
D10*
X213068Y222758D02*
X210472Y222758D01*
X210373Y222760D01*
X210273Y222766D01*
X210174Y222775D01*
X210076Y222788D01*
X209978Y222805D01*
X209880Y222826D01*
X209784Y222851D01*
X209689Y222879D01*
X209595Y222911D01*
X209502Y222946D01*
X209410Y222985D01*
X209320Y223028D01*
X209232Y223073D01*
X209145Y223123D01*
X209061Y223175D01*
X208978Y223231D01*
X208898Y223289D01*
X208820Y223351D01*
X208745Y223416D01*
X208672Y223484D01*
X208602Y223554D01*
X208534Y223627D01*
X208469Y223702D01*
X208407Y223780D01*
X208349Y223860D01*
X208293Y223943D01*
X208241Y224027D01*
X208191Y224114D01*
X208146Y224202D01*
X208103Y224292D01*
X208064Y224384D01*
X208029Y224477D01*
X207997Y224571D01*
X207969Y224666D01*
X207944Y224762D01*
X207923Y224860D01*
X207906Y224958D01*
X207893Y225056D01*
X207884Y225155D01*
X207878Y225255D01*
X207876Y225354D01*
X207875Y225354D02*
X207875Y231846D01*
X207876Y231846D02*
X207878Y231945D01*
X207884Y232045D01*
X207893Y232144D01*
X207906Y232242D01*
X207923Y232340D01*
X207944Y232438D01*
X207969Y232534D01*
X207997Y232629D01*
X208029Y232723D01*
X208064Y232816D01*
X208103Y232908D01*
X208146Y232998D01*
X208191Y233086D01*
X208241Y233173D01*
X208293Y233257D01*
X208349Y233340D01*
X208407Y233420D01*
X208469Y233498D01*
X208534Y233573D01*
X208602Y233646D01*
X208672Y233716D01*
X208745Y233784D01*
X208820Y233849D01*
X208898Y233911D01*
X208978Y233969D01*
X209061Y234025D01*
X209145Y234077D01*
X209232Y234127D01*
X209320Y234172D01*
X209410Y234215D01*
X209502Y234254D01*
X209594Y234289D01*
X209689Y234321D01*
X209784Y234349D01*
X209880Y234374D01*
X209978Y234395D01*
X210076Y234412D01*
X210174Y234425D01*
X210273Y234434D01*
X210373Y234440D01*
X210472Y234442D01*
X213068Y234442D01*
X220030Y234442D02*
X217434Y225354D01*
X223925Y225354D01*
X221977Y222758D02*
X221977Y227951D01*
D12*
X133850Y28100D02*
X133859Y28867D01*
X133888Y29633D01*
X133935Y30399D01*
X134000Y31163D01*
X134085Y31925D01*
X134188Y32685D01*
X134310Y33443D01*
X134450Y34197D01*
X134609Y34947D01*
X134787Y35693D01*
X134982Y36435D01*
X135196Y37171D01*
X135427Y37903D01*
X135677Y38628D01*
X135944Y39347D01*
X136229Y40059D01*
X136531Y40764D01*
X136850Y41461D01*
X137187Y42150D01*
X137540Y42831D01*
X137910Y43503D01*
X138296Y44166D01*
X138698Y44819D01*
X139117Y45462D01*
X139550Y46094D01*
X140000Y46716D01*
X140464Y47326D01*
X140943Y47925D01*
X141437Y48512D01*
X141945Y49086D01*
X142467Y49648D01*
X143003Y50197D01*
X143552Y50733D01*
X144114Y51255D01*
X144688Y51763D01*
X145275Y52257D01*
X145874Y52736D01*
X146484Y53200D01*
X147106Y53650D01*
X147738Y54083D01*
X148381Y54502D01*
X149034Y54904D01*
X149697Y55290D01*
X150369Y55660D01*
X151050Y56013D01*
X151739Y56350D01*
X152436Y56669D01*
X153141Y56971D01*
X153853Y57256D01*
X154572Y57523D01*
X155297Y57773D01*
X156029Y58004D01*
X156765Y58218D01*
X157507Y58413D01*
X158253Y58591D01*
X159003Y58750D01*
X159757Y58890D01*
X160515Y59012D01*
X161275Y59115D01*
X162037Y59200D01*
X162801Y59265D01*
X163567Y59312D01*
X164333Y59341D01*
X165100Y59350D01*
X165867Y59341D01*
X166633Y59312D01*
X167399Y59265D01*
X168163Y59200D01*
X168925Y59115D01*
X169685Y59012D01*
X170443Y58890D01*
X171197Y58750D01*
X171947Y58591D01*
X172693Y58413D01*
X173435Y58218D01*
X174171Y58004D01*
X174903Y57773D01*
X175628Y57523D01*
X176347Y57256D01*
X177059Y56971D01*
X177764Y56669D01*
X178461Y56350D01*
X179150Y56013D01*
X179831Y55660D01*
X180503Y55290D01*
X181166Y54904D01*
X181819Y54502D01*
X182462Y54083D01*
X183094Y53650D01*
X183716Y53200D01*
X184326Y52736D01*
X184925Y52257D01*
X185512Y51763D01*
X186086Y51255D01*
X186648Y50733D01*
X187197Y50197D01*
X187733Y49648D01*
X188255Y49086D01*
X188763Y48512D01*
X189257Y47925D01*
X189736Y47326D01*
X190200Y46716D01*
X190650Y46094D01*
X191083Y45462D01*
X191502Y44819D01*
X191904Y44166D01*
X192290Y43503D01*
X192660Y42831D01*
X193013Y42150D01*
X193350Y41461D01*
X193669Y40764D01*
X193971Y40059D01*
X194256Y39347D01*
X194523Y38628D01*
X194773Y37903D01*
X195004Y37171D01*
X195218Y36435D01*
X195413Y35693D01*
X195591Y34947D01*
X195750Y34197D01*
X195890Y33443D01*
X196012Y32685D01*
X196115Y31925D01*
X196200Y31163D01*
X196265Y30399D01*
X196312Y29633D01*
X196341Y28867D01*
X196350Y28100D01*
X196341Y27333D01*
X196312Y26567D01*
X196265Y25801D01*
X196200Y25037D01*
X196115Y24275D01*
X196012Y23515D01*
X195890Y22757D01*
X195750Y22003D01*
X195591Y21253D01*
X195413Y20507D01*
X195218Y19765D01*
X195004Y19029D01*
X194773Y18297D01*
X194523Y17572D01*
X194256Y16853D01*
X193971Y16141D01*
X193669Y15436D01*
X193350Y14739D01*
X193013Y14050D01*
X192660Y13369D01*
X192290Y12697D01*
X191904Y12034D01*
X191502Y11381D01*
X191083Y10738D01*
X190650Y10106D01*
X190200Y9484D01*
X189736Y8874D01*
X189257Y8275D01*
X188763Y7688D01*
X188255Y7114D01*
X187733Y6552D01*
X187197Y6003D01*
X186648Y5467D01*
X186086Y4945D01*
X185512Y4437D01*
X184925Y3943D01*
X184326Y3464D01*
X183716Y3000D01*
X183094Y2550D01*
X182462Y2117D01*
X181819Y1698D01*
X181166Y1296D01*
X180503Y910D01*
X179831Y540D01*
X179150Y187D01*
X178461Y-150D01*
X177764Y-469D01*
X177059Y-771D01*
X176347Y-1056D01*
X175628Y-1323D01*
X174903Y-1573D01*
X174171Y-1804D01*
X173435Y-2018D01*
X172693Y-2213D01*
X171947Y-2391D01*
X171197Y-2550D01*
X170443Y-2690D01*
X169685Y-2812D01*
X168925Y-2915D01*
X168163Y-3000D01*
X167399Y-3065D01*
X166633Y-3112D01*
X165867Y-3141D01*
X165100Y-3150D01*
X164333Y-3141D01*
X163567Y-3112D01*
X162801Y-3065D01*
X162037Y-3000D01*
X161275Y-2915D01*
X160515Y-2812D01*
X159757Y-2690D01*
X159003Y-2550D01*
X158253Y-2391D01*
X157507Y-2213D01*
X156765Y-2018D01*
X156029Y-1804D01*
X155297Y-1573D01*
X154572Y-1323D01*
X153853Y-1056D01*
X153141Y-771D01*
X152436Y-469D01*
X151739Y-150D01*
X151050Y187D01*
X150369Y540D01*
X149697Y910D01*
X149034Y1296D01*
X148381Y1698D01*
X147738Y2117D01*
X147106Y2550D01*
X146484Y3000D01*
X145874Y3464D01*
X145275Y3943D01*
X144688Y4437D01*
X144114Y4945D01*
X143552Y5467D01*
X143003Y6003D01*
X142467Y6552D01*
X141945Y7114D01*
X141437Y7688D01*
X140943Y8275D01*
X140464Y8874D01*
X140000Y9484D01*
X139550Y10106D01*
X139117Y10738D01*
X138698Y11381D01*
X138296Y12034D01*
X137910Y12697D01*
X137540Y13369D01*
X137187Y14050D01*
X136850Y14739D01*
X136531Y15436D01*
X136229Y16141D01*
X135944Y16853D01*
X135677Y17572D01*
X135427Y18297D01*
X135196Y19029D01*
X134982Y19765D01*
X134787Y20507D01*
X134609Y21253D01*
X134450Y22003D01*
X134310Y22757D01*
X134188Y23515D01*
X134085Y24275D01*
X134000Y25037D01*
X133935Y25801D01*
X133888Y26567D01*
X133859Y27333D01*
X133850Y28100D01*
D13*
X138850Y28100D02*
X138858Y28744D01*
X138882Y29388D01*
X138921Y30031D01*
X138976Y30673D01*
X139047Y31313D01*
X139134Y31952D01*
X139236Y32588D01*
X139354Y33221D01*
X139488Y33851D01*
X139637Y34478D01*
X139801Y35101D01*
X139980Y35720D01*
X140175Y36334D01*
X140384Y36943D01*
X140609Y37547D01*
X140848Y38145D01*
X141102Y38738D01*
X141370Y39323D01*
X141653Y39902D01*
X141950Y40474D01*
X142260Y41039D01*
X142585Y41595D01*
X142923Y42144D01*
X143274Y42684D01*
X143638Y43215D01*
X144016Y43737D01*
X144406Y44250D01*
X144808Y44753D01*
X145223Y45246D01*
X145650Y45728D01*
X146089Y46200D01*
X146538Y46662D01*
X147000Y47111D01*
X147472Y47550D01*
X147954Y47977D01*
X148447Y48392D01*
X148950Y48794D01*
X149463Y49184D01*
X149985Y49562D01*
X150516Y49926D01*
X151056Y50277D01*
X151605Y50615D01*
X152161Y50940D01*
X152726Y51250D01*
X153298Y51547D01*
X153877Y51830D01*
X154462Y52098D01*
X155055Y52352D01*
X155653Y52591D01*
X156257Y52816D01*
X156866Y53025D01*
X157480Y53220D01*
X158099Y53399D01*
X158722Y53563D01*
X159349Y53712D01*
X159979Y53846D01*
X160612Y53964D01*
X161248Y54066D01*
X161887Y54153D01*
X162527Y54224D01*
X163169Y54279D01*
X163812Y54318D01*
X164456Y54342D01*
X165100Y54350D01*
X165744Y54342D01*
X166388Y54318D01*
X167031Y54279D01*
X167673Y54224D01*
X168313Y54153D01*
X168952Y54066D01*
X169588Y53964D01*
X170221Y53846D01*
X170851Y53712D01*
X171478Y53563D01*
X172101Y53399D01*
X172720Y53220D01*
X173334Y53025D01*
X173943Y52816D01*
X174547Y52591D01*
X175145Y52352D01*
X175738Y52098D01*
X176323Y51830D01*
X176902Y51547D01*
X177474Y51250D01*
X178039Y50940D01*
X178595Y50615D01*
X179144Y50277D01*
X179684Y49926D01*
X180215Y49562D01*
X180737Y49184D01*
X181250Y48794D01*
X181753Y48392D01*
X182246Y47977D01*
X182728Y47550D01*
X183200Y47111D01*
X183662Y46662D01*
X184111Y46200D01*
X184550Y45728D01*
X184977Y45246D01*
X185392Y44753D01*
X185794Y44250D01*
X186184Y43737D01*
X186562Y43215D01*
X186926Y42684D01*
X187277Y42144D01*
X187615Y41595D01*
X187940Y41039D01*
X188250Y40474D01*
X188547Y39902D01*
X188830Y39323D01*
X189098Y38738D01*
X189352Y38145D01*
X189591Y37547D01*
X189816Y36943D01*
X190025Y36334D01*
X190220Y35720D01*
X190399Y35101D01*
X190563Y34478D01*
X190712Y33851D01*
X190846Y33221D01*
X190964Y32588D01*
X191066Y31952D01*
X191153Y31313D01*
X191224Y30673D01*
X191279Y30031D01*
X191318Y29388D01*
X191342Y28744D01*
X191350Y28100D01*
X191342Y27456D01*
X191318Y26812D01*
X191279Y26169D01*
X191224Y25527D01*
X191153Y24887D01*
X191066Y24248D01*
X190964Y23612D01*
X190846Y22979D01*
X190712Y22349D01*
X190563Y21722D01*
X190399Y21099D01*
X190220Y20480D01*
X190025Y19866D01*
X189816Y19257D01*
X189591Y18653D01*
X189352Y18055D01*
X189098Y17462D01*
X188830Y16877D01*
X188547Y16298D01*
X188250Y15726D01*
X187940Y15161D01*
X187615Y14605D01*
X187277Y14056D01*
X186926Y13516D01*
X186562Y12985D01*
X186184Y12463D01*
X185794Y11950D01*
X185392Y11447D01*
X184977Y10954D01*
X184550Y10472D01*
X184111Y10000D01*
X183662Y9538D01*
X183200Y9089D01*
X182728Y8650D01*
X182246Y8223D01*
X181753Y7808D01*
X181250Y7406D01*
X180737Y7016D01*
X180215Y6638D01*
X179684Y6274D01*
X179144Y5923D01*
X178595Y5585D01*
X178039Y5260D01*
X177474Y4950D01*
X176902Y4653D01*
X176323Y4370D01*
X175738Y4102D01*
X175145Y3848D01*
X174547Y3609D01*
X173943Y3384D01*
X173334Y3175D01*
X172720Y2980D01*
X172101Y2801D01*
X171478Y2637D01*
X170851Y2488D01*
X170221Y2354D01*
X169588Y2236D01*
X168952Y2134D01*
X168313Y2047D01*
X167673Y1976D01*
X167031Y1921D01*
X166388Y1882D01*
X165744Y1858D01*
X165100Y1850D01*
X164456Y1858D01*
X163812Y1882D01*
X163169Y1921D01*
X162527Y1976D01*
X161887Y2047D01*
X161248Y2134D01*
X160612Y2236D01*
X159979Y2354D01*
X159349Y2488D01*
X158722Y2637D01*
X158099Y2801D01*
X157480Y2980D01*
X156866Y3175D01*
X156257Y3384D01*
X155653Y3609D01*
X155055Y3848D01*
X154462Y4102D01*
X153877Y4370D01*
X153298Y4653D01*
X152726Y4950D01*
X152161Y5260D01*
X151605Y5585D01*
X151056Y5923D01*
X150516Y6274D01*
X149985Y6638D01*
X149463Y7016D01*
X148950Y7406D01*
X148447Y7808D01*
X147954Y8223D01*
X147472Y8650D01*
X147000Y9089D01*
X146538Y9538D01*
X146089Y10000D01*
X145650Y10472D01*
X145223Y10954D01*
X144808Y11447D01*
X144406Y11950D01*
X144016Y12463D01*
X143638Y12985D01*
X143274Y13516D01*
X142923Y14056D01*
X142585Y14605D01*
X142260Y15161D01*
X141950Y15726D01*
X141653Y16298D01*
X141370Y16877D01*
X141102Y17462D01*
X140848Y18055D01*
X140609Y18653D01*
X140384Y19257D01*
X140175Y19866D01*
X139980Y20480D01*
X139801Y21099D01*
X139637Y21722D01*
X139488Y22349D01*
X139354Y22979D01*
X139236Y23612D01*
X139134Y24248D01*
X139047Y24887D01*
X138976Y25527D01*
X138921Y26169D01*
X138882Y26812D01*
X138858Y27456D01*
X138850Y28100D01*
D10*
X136868Y-5842D02*
X134272Y-5842D01*
X134173Y-5840D01*
X134073Y-5834D01*
X133974Y-5825D01*
X133876Y-5812D01*
X133778Y-5795D01*
X133680Y-5774D01*
X133584Y-5749D01*
X133489Y-5721D01*
X133395Y-5689D01*
X133302Y-5654D01*
X133210Y-5615D01*
X133120Y-5572D01*
X133032Y-5527D01*
X132945Y-5477D01*
X132861Y-5425D01*
X132778Y-5369D01*
X132698Y-5311D01*
X132620Y-5249D01*
X132545Y-5184D01*
X132472Y-5116D01*
X132402Y-5046D01*
X132334Y-4973D01*
X132269Y-4898D01*
X132207Y-4820D01*
X132149Y-4740D01*
X132093Y-4657D01*
X132041Y-4573D01*
X131991Y-4486D01*
X131946Y-4398D01*
X131903Y-4308D01*
X131864Y-4216D01*
X131829Y-4123D01*
X131797Y-4029D01*
X131769Y-3934D01*
X131744Y-3838D01*
X131723Y-3740D01*
X131706Y-3642D01*
X131693Y-3544D01*
X131684Y-3445D01*
X131678Y-3345D01*
X131676Y-3246D01*
X131675Y-3246D02*
X131675Y3246D01*
X131676Y3246D02*
X131678Y3345D01*
X131684Y3445D01*
X131693Y3544D01*
X131706Y3642D01*
X131723Y3740D01*
X131744Y3838D01*
X131769Y3934D01*
X131797Y4029D01*
X131829Y4123D01*
X131864Y4216D01*
X131903Y4308D01*
X131946Y4398D01*
X131991Y4486D01*
X132041Y4573D01*
X132093Y4657D01*
X132149Y4740D01*
X132207Y4820D01*
X132269Y4898D01*
X132334Y4973D01*
X132402Y5046D01*
X132472Y5116D01*
X132545Y5184D01*
X132620Y5249D01*
X132698Y5311D01*
X132778Y5369D01*
X132861Y5425D01*
X132945Y5477D01*
X133032Y5527D01*
X133120Y5572D01*
X133210Y5615D01*
X133302Y5654D01*
X133394Y5689D01*
X133489Y5721D01*
X133584Y5749D01*
X133680Y5774D01*
X133778Y5795D01*
X133876Y5812D01*
X133974Y5825D01*
X134073Y5834D01*
X134173Y5840D01*
X134272Y5842D01*
X136868Y5842D01*
X141234Y-5842D02*
X145128Y-5842D01*
X145227Y-5840D01*
X145327Y-5834D01*
X145426Y-5825D01*
X145524Y-5812D01*
X145622Y-5795D01*
X145720Y-5774D01*
X145816Y-5749D01*
X145911Y-5721D01*
X146005Y-5689D01*
X146098Y-5654D01*
X146190Y-5615D01*
X146280Y-5572D01*
X146368Y-5527D01*
X146455Y-5477D01*
X146539Y-5425D01*
X146622Y-5369D01*
X146702Y-5311D01*
X146780Y-5249D01*
X146855Y-5184D01*
X146928Y-5116D01*
X146998Y-5046D01*
X147066Y-4973D01*
X147131Y-4898D01*
X147193Y-4820D01*
X147251Y-4740D01*
X147307Y-4657D01*
X147359Y-4573D01*
X147409Y-4486D01*
X147454Y-4398D01*
X147497Y-4308D01*
X147536Y-4216D01*
X147571Y-4123D01*
X147603Y-4029D01*
X147631Y-3934D01*
X147656Y-3838D01*
X147677Y-3740D01*
X147694Y-3642D01*
X147707Y-3544D01*
X147716Y-3445D01*
X147722Y-3345D01*
X147724Y-3246D01*
X147725Y-3246D02*
X147725Y-1947D01*
X147724Y-1947D02*
X147722Y-1848D01*
X147716Y-1748D01*
X147707Y-1649D01*
X147694Y-1551D01*
X147677Y-1453D01*
X147656Y-1355D01*
X147631Y-1259D01*
X147603Y-1164D01*
X147571Y-1070D01*
X147536Y-977D01*
X147497Y-885D01*
X147454Y-795D01*
X147409Y-707D01*
X147359Y-620D01*
X147307Y-536D01*
X147251Y-453D01*
X147193Y-373D01*
X147131Y-295D01*
X147066Y-220D01*
X146998Y-147D01*
X146928Y-77D01*
X146855Y-9D01*
X146780Y56D01*
X146702Y118D01*
X146622Y176D01*
X146539Y232D01*
X146455Y284D01*
X146368Y334D01*
X146280Y379D01*
X146190Y422D01*
X146098Y461D01*
X146005Y496D01*
X145911Y528D01*
X145816Y556D01*
X145720Y581D01*
X145622Y602D01*
X145524Y619D01*
X145426Y632D01*
X145327Y641D01*
X145227Y647D01*
X145128Y649D01*
X141234Y649D01*
X141234Y5842D01*
X147725Y5842D01*
X107301Y197358D02*
X104704Y197358D01*
X104605Y197360D01*
X104505Y197366D01*
X104406Y197375D01*
X104308Y197388D01*
X104210Y197405D01*
X104112Y197426D01*
X104016Y197451D01*
X103921Y197479D01*
X103827Y197511D01*
X103734Y197546D01*
X103642Y197585D01*
X103552Y197628D01*
X103464Y197673D01*
X103377Y197723D01*
X103293Y197775D01*
X103210Y197831D01*
X103130Y197889D01*
X103052Y197951D01*
X102977Y198016D01*
X102904Y198084D01*
X102834Y198154D01*
X102766Y198227D01*
X102701Y198302D01*
X102639Y198380D01*
X102581Y198460D01*
X102525Y198543D01*
X102473Y198627D01*
X102423Y198714D01*
X102378Y198802D01*
X102335Y198892D01*
X102296Y198984D01*
X102261Y199077D01*
X102229Y199171D01*
X102201Y199266D01*
X102176Y199362D01*
X102155Y199460D01*
X102138Y199558D01*
X102125Y199656D01*
X102116Y199755D01*
X102110Y199855D01*
X102108Y199954D01*
X102108Y206446D01*
X102110Y206545D01*
X102116Y206645D01*
X102125Y206744D01*
X102138Y206842D01*
X102155Y206940D01*
X102176Y207038D01*
X102201Y207134D01*
X102229Y207229D01*
X102261Y207323D01*
X102296Y207416D01*
X102335Y207508D01*
X102378Y207598D01*
X102423Y207686D01*
X102473Y207773D01*
X102525Y207857D01*
X102581Y207940D01*
X102639Y208020D01*
X102701Y208098D01*
X102766Y208173D01*
X102834Y208246D01*
X102904Y208316D01*
X102977Y208384D01*
X103052Y208449D01*
X103130Y208511D01*
X103210Y208569D01*
X103293Y208625D01*
X103377Y208677D01*
X103464Y208727D01*
X103552Y208772D01*
X103642Y208815D01*
X103734Y208854D01*
X103826Y208889D01*
X103921Y208921D01*
X104016Y208949D01*
X104112Y208974D01*
X104210Y208995D01*
X104308Y209012D01*
X104406Y209025D01*
X104505Y209034D01*
X104605Y209040D01*
X104704Y209042D01*
X107301Y209042D01*
X111666Y203849D02*
X115561Y203849D01*
X115660Y203847D01*
X115760Y203841D01*
X115859Y203832D01*
X115957Y203819D01*
X116055Y203802D01*
X116153Y203781D01*
X116249Y203756D01*
X116344Y203728D01*
X116438Y203696D01*
X116531Y203661D01*
X116623Y203622D01*
X116713Y203579D01*
X116801Y203534D01*
X116888Y203484D01*
X116972Y203432D01*
X117055Y203376D01*
X117135Y203318D01*
X117213Y203256D01*
X117288Y203191D01*
X117361Y203123D01*
X117431Y203053D01*
X117499Y202980D01*
X117564Y202905D01*
X117626Y202827D01*
X117684Y202747D01*
X117740Y202664D01*
X117792Y202580D01*
X117842Y202493D01*
X117887Y202405D01*
X117930Y202315D01*
X117969Y202223D01*
X118004Y202130D01*
X118036Y202036D01*
X118064Y201941D01*
X118089Y201845D01*
X118110Y201747D01*
X118127Y201649D01*
X118140Y201551D01*
X118149Y201452D01*
X118155Y201352D01*
X118157Y201253D01*
X118157Y200604D01*
X118158Y200604D02*
X118156Y200491D01*
X118150Y200378D01*
X118140Y200265D01*
X118126Y200152D01*
X118109Y200040D01*
X118087Y199929D01*
X118062Y199819D01*
X118032Y199709D01*
X117999Y199601D01*
X117962Y199494D01*
X117922Y199388D01*
X117877Y199284D01*
X117829Y199181D01*
X117778Y199080D01*
X117723Y198981D01*
X117665Y198884D01*
X117603Y198789D01*
X117538Y198696D01*
X117470Y198606D01*
X117399Y198518D01*
X117324Y198432D01*
X117247Y198349D01*
X117167Y198269D01*
X117084Y198192D01*
X116998Y198117D01*
X116910Y198046D01*
X116820Y197978D01*
X116727Y197913D01*
X116632Y197851D01*
X116535Y197793D01*
X116436Y197738D01*
X116335Y197687D01*
X116232Y197639D01*
X116128Y197594D01*
X116022Y197554D01*
X115915Y197517D01*
X115807Y197484D01*
X115697Y197454D01*
X115587Y197429D01*
X115476Y197407D01*
X115364Y197390D01*
X115251Y197376D01*
X115138Y197366D01*
X115025Y197360D01*
X114912Y197358D01*
X114799Y197360D01*
X114686Y197366D01*
X114573Y197376D01*
X114460Y197390D01*
X114348Y197407D01*
X114237Y197429D01*
X114127Y197454D01*
X114017Y197484D01*
X113909Y197517D01*
X113802Y197554D01*
X113696Y197594D01*
X113592Y197639D01*
X113489Y197687D01*
X113388Y197738D01*
X113289Y197793D01*
X113192Y197851D01*
X113097Y197913D01*
X113004Y197978D01*
X112914Y198046D01*
X112826Y198117D01*
X112740Y198192D01*
X112657Y198269D01*
X112577Y198349D01*
X112500Y198432D01*
X112425Y198518D01*
X112354Y198606D01*
X112286Y198696D01*
X112221Y198789D01*
X112159Y198884D01*
X112101Y198981D01*
X112046Y199080D01*
X111995Y199181D01*
X111947Y199284D01*
X111902Y199388D01*
X111862Y199494D01*
X111825Y199601D01*
X111792Y199709D01*
X111762Y199819D01*
X111737Y199929D01*
X111715Y200040D01*
X111698Y200152D01*
X111684Y200265D01*
X111674Y200378D01*
X111668Y200491D01*
X111666Y200604D01*
X111666Y203849D01*
X111668Y203992D01*
X111674Y204135D01*
X111684Y204278D01*
X111698Y204420D01*
X111715Y204562D01*
X111737Y204704D01*
X111762Y204845D01*
X111792Y204985D01*
X111825Y205124D01*
X111862Y205262D01*
X111903Y205399D01*
X111947Y205535D01*
X111996Y205670D01*
X112048Y205803D01*
X112103Y205935D01*
X112163Y206065D01*
X112226Y206194D01*
X112292Y206321D01*
X112362Y206445D01*
X112435Y206568D01*
X112512Y206689D01*
X112592Y206808D01*
X112675Y206924D01*
X112761Y207039D01*
X112850Y207150D01*
X112943Y207260D01*
X113038Y207366D01*
X113137Y207470D01*
X113238Y207571D01*
X113342Y207670D01*
X113448Y207765D01*
X113558Y207858D01*
X113669Y207947D01*
X113784Y208033D01*
X113900Y208116D01*
X114019Y208196D01*
X114140Y208273D01*
X114262Y208346D01*
X114387Y208416D01*
X114514Y208482D01*
X114643Y208545D01*
X114773Y208605D01*
X114905Y208660D01*
X115038Y208712D01*
X115173Y208761D01*
X115309Y208805D01*
X115446Y208846D01*
X115584Y208883D01*
X115723Y208916D01*
X115863Y208946D01*
X116004Y208971D01*
X116146Y208993D01*
X116288Y209010D01*
X116430Y209024D01*
X116573Y209034D01*
X116716Y209040D01*
X116859Y209042D01*
X276154Y6858D02*
X278751Y6858D01*
X276154Y6858D02*
X276055Y6860D01*
X275955Y6866D01*
X275856Y6875D01*
X275758Y6888D01*
X275660Y6905D01*
X275562Y6926D01*
X275466Y6951D01*
X275371Y6979D01*
X275277Y7011D01*
X275184Y7046D01*
X275092Y7085D01*
X275002Y7128D01*
X274914Y7173D01*
X274827Y7223D01*
X274743Y7275D01*
X274660Y7331D01*
X274580Y7389D01*
X274502Y7451D01*
X274427Y7516D01*
X274354Y7584D01*
X274284Y7654D01*
X274216Y7727D01*
X274151Y7802D01*
X274089Y7880D01*
X274031Y7960D01*
X273975Y8043D01*
X273923Y8127D01*
X273873Y8214D01*
X273828Y8302D01*
X273785Y8392D01*
X273746Y8484D01*
X273711Y8577D01*
X273679Y8671D01*
X273651Y8766D01*
X273626Y8862D01*
X273605Y8960D01*
X273588Y9058D01*
X273575Y9156D01*
X273566Y9255D01*
X273560Y9355D01*
X273558Y9454D01*
X273558Y15946D01*
X273560Y16045D01*
X273566Y16145D01*
X273575Y16244D01*
X273588Y16342D01*
X273605Y16440D01*
X273626Y16538D01*
X273651Y16634D01*
X273679Y16729D01*
X273711Y16823D01*
X273746Y16916D01*
X273785Y17008D01*
X273828Y17098D01*
X273873Y17186D01*
X273923Y17273D01*
X273975Y17357D01*
X274031Y17440D01*
X274089Y17520D01*
X274151Y17598D01*
X274216Y17673D01*
X274284Y17746D01*
X274354Y17816D01*
X274427Y17884D01*
X274502Y17949D01*
X274580Y18011D01*
X274660Y18069D01*
X274743Y18125D01*
X274827Y18177D01*
X274914Y18227D01*
X275002Y18272D01*
X275092Y18315D01*
X275184Y18354D01*
X275276Y18389D01*
X275371Y18421D01*
X275466Y18449D01*
X275562Y18474D01*
X275660Y18495D01*
X275758Y18512D01*
X275856Y18525D01*
X275955Y18534D01*
X276055Y18540D01*
X276154Y18542D01*
X278751Y18542D01*
X283116Y18542D02*
X283116Y17244D01*
X283116Y18542D02*
X289607Y18542D01*
X286362Y6858D01*
D12*
X210050Y28100D02*
X210059Y28867D01*
X210088Y29633D01*
X210135Y30399D01*
X210200Y31163D01*
X210285Y31925D01*
X210388Y32685D01*
X210510Y33443D01*
X210650Y34197D01*
X210809Y34947D01*
X210987Y35693D01*
X211182Y36435D01*
X211396Y37171D01*
X211627Y37903D01*
X211877Y38628D01*
X212144Y39347D01*
X212429Y40059D01*
X212731Y40764D01*
X213050Y41461D01*
X213387Y42150D01*
X213740Y42831D01*
X214110Y43503D01*
X214496Y44166D01*
X214898Y44819D01*
X215317Y45462D01*
X215750Y46094D01*
X216200Y46716D01*
X216664Y47326D01*
X217143Y47925D01*
X217637Y48512D01*
X218145Y49086D01*
X218667Y49648D01*
X219203Y50197D01*
X219752Y50733D01*
X220314Y51255D01*
X220888Y51763D01*
X221475Y52257D01*
X222074Y52736D01*
X222684Y53200D01*
X223306Y53650D01*
X223938Y54083D01*
X224581Y54502D01*
X225234Y54904D01*
X225897Y55290D01*
X226569Y55660D01*
X227250Y56013D01*
X227939Y56350D01*
X228636Y56669D01*
X229341Y56971D01*
X230053Y57256D01*
X230772Y57523D01*
X231497Y57773D01*
X232229Y58004D01*
X232965Y58218D01*
X233707Y58413D01*
X234453Y58591D01*
X235203Y58750D01*
X235957Y58890D01*
X236715Y59012D01*
X237475Y59115D01*
X238237Y59200D01*
X239001Y59265D01*
X239767Y59312D01*
X240533Y59341D01*
X241300Y59350D01*
X242067Y59341D01*
X242833Y59312D01*
X243599Y59265D01*
X244363Y59200D01*
X245125Y59115D01*
X245885Y59012D01*
X246643Y58890D01*
X247397Y58750D01*
X248147Y58591D01*
X248893Y58413D01*
X249635Y58218D01*
X250371Y58004D01*
X251103Y57773D01*
X251828Y57523D01*
X252547Y57256D01*
X253259Y56971D01*
X253964Y56669D01*
X254661Y56350D01*
X255350Y56013D01*
X256031Y55660D01*
X256703Y55290D01*
X257366Y54904D01*
X258019Y54502D01*
X258662Y54083D01*
X259294Y53650D01*
X259916Y53200D01*
X260526Y52736D01*
X261125Y52257D01*
X261712Y51763D01*
X262286Y51255D01*
X262848Y50733D01*
X263397Y50197D01*
X263933Y49648D01*
X264455Y49086D01*
X264963Y48512D01*
X265457Y47925D01*
X265936Y47326D01*
X266400Y46716D01*
X266850Y46094D01*
X267283Y45462D01*
X267702Y44819D01*
X268104Y44166D01*
X268490Y43503D01*
X268860Y42831D01*
X269213Y42150D01*
X269550Y41461D01*
X269869Y40764D01*
X270171Y40059D01*
X270456Y39347D01*
X270723Y38628D01*
X270973Y37903D01*
X271204Y37171D01*
X271418Y36435D01*
X271613Y35693D01*
X271791Y34947D01*
X271950Y34197D01*
X272090Y33443D01*
X272212Y32685D01*
X272315Y31925D01*
X272400Y31163D01*
X272465Y30399D01*
X272512Y29633D01*
X272541Y28867D01*
X272550Y28100D01*
X272541Y27333D01*
X272512Y26567D01*
X272465Y25801D01*
X272400Y25037D01*
X272315Y24275D01*
X272212Y23515D01*
X272090Y22757D01*
X271950Y22003D01*
X271791Y21253D01*
X271613Y20507D01*
X271418Y19765D01*
X271204Y19029D01*
X270973Y18297D01*
X270723Y17572D01*
X270456Y16853D01*
X270171Y16141D01*
X269869Y15436D01*
X269550Y14739D01*
X269213Y14050D01*
X268860Y13369D01*
X268490Y12697D01*
X268104Y12034D01*
X267702Y11381D01*
X267283Y10738D01*
X266850Y10106D01*
X266400Y9484D01*
X265936Y8874D01*
X265457Y8275D01*
X264963Y7688D01*
X264455Y7114D01*
X263933Y6552D01*
X263397Y6003D01*
X262848Y5467D01*
X262286Y4945D01*
X261712Y4437D01*
X261125Y3943D01*
X260526Y3464D01*
X259916Y3000D01*
X259294Y2550D01*
X258662Y2117D01*
X258019Y1698D01*
X257366Y1296D01*
X256703Y910D01*
X256031Y540D01*
X255350Y187D01*
X254661Y-150D01*
X253964Y-469D01*
X253259Y-771D01*
X252547Y-1056D01*
X251828Y-1323D01*
X251103Y-1573D01*
X250371Y-1804D01*
X249635Y-2018D01*
X248893Y-2213D01*
X248147Y-2391D01*
X247397Y-2550D01*
X246643Y-2690D01*
X245885Y-2812D01*
X245125Y-2915D01*
X244363Y-3000D01*
X243599Y-3065D01*
X242833Y-3112D01*
X242067Y-3141D01*
X241300Y-3150D01*
X240533Y-3141D01*
X239767Y-3112D01*
X239001Y-3065D01*
X238237Y-3000D01*
X237475Y-2915D01*
X236715Y-2812D01*
X235957Y-2690D01*
X235203Y-2550D01*
X234453Y-2391D01*
X233707Y-2213D01*
X232965Y-2018D01*
X232229Y-1804D01*
X231497Y-1573D01*
X230772Y-1323D01*
X230053Y-1056D01*
X229341Y-771D01*
X228636Y-469D01*
X227939Y-150D01*
X227250Y187D01*
X226569Y540D01*
X225897Y910D01*
X225234Y1296D01*
X224581Y1698D01*
X223938Y2117D01*
X223306Y2550D01*
X222684Y3000D01*
X222074Y3464D01*
X221475Y3943D01*
X220888Y4437D01*
X220314Y4945D01*
X219752Y5467D01*
X219203Y6003D01*
X218667Y6552D01*
X218145Y7114D01*
X217637Y7688D01*
X217143Y8275D01*
X216664Y8874D01*
X216200Y9484D01*
X215750Y10106D01*
X215317Y10738D01*
X214898Y11381D01*
X214496Y12034D01*
X214110Y12697D01*
X213740Y13369D01*
X213387Y14050D01*
X213050Y14739D01*
X212731Y15436D01*
X212429Y16141D01*
X212144Y16853D01*
X211877Y17572D01*
X211627Y18297D01*
X211396Y19029D01*
X211182Y19765D01*
X210987Y20507D01*
X210809Y21253D01*
X210650Y22003D01*
X210510Y22757D01*
X210388Y23515D01*
X210285Y24275D01*
X210200Y25037D01*
X210135Y25801D01*
X210088Y26567D01*
X210059Y27333D01*
X210050Y28100D01*
D13*
X215050Y28100D02*
X215058Y28744D01*
X215082Y29388D01*
X215121Y30031D01*
X215176Y30673D01*
X215247Y31313D01*
X215334Y31952D01*
X215436Y32588D01*
X215554Y33221D01*
X215688Y33851D01*
X215837Y34478D01*
X216001Y35101D01*
X216180Y35720D01*
X216375Y36334D01*
X216584Y36943D01*
X216809Y37547D01*
X217048Y38145D01*
X217302Y38738D01*
X217570Y39323D01*
X217853Y39902D01*
X218150Y40474D01*
X218460Y41039D01*
X218785Y41595D01*
X219123Y42144D01*
X219474Y42684D01*
X219838Y43215D01*
X220216Y43737D01*
X220606Y44250D01*
X221008Y44753D01*
X221423Y45246D01*
X221850Y45728D01*
X222289Y46200D01*
X222738Y46662D01*
X223200Y47111D01*
X223672Y47550D01*
X224154Y47977D01*
X224647Y48392D01*
X225150Y48794D01*
X225663Y49184D01*
X226185Y49562D01*
X226716Y49926D01*
X227256Y50277D01*
X227805Y50615D01*
X228361Y50940D01*
X228926Y51250D01*
X229498Y51547D01*
X230077Y51830D01*
X230662Y52098D01*
X231255Y52352D01*
X231853Y52591D01*
X232457Y52816D01*
X233066Y53025D01*
X233680Y53220D01*
X234299Y53399D01*
X234922Y53563D01*
X235549Y53712D01*
X236179Y53846D01*
X236812Y53964D01*
X237448Y54066D01*
X238087Y54153D01*
X238727Y54224D01*
X239369Y54279D01*
X240012Y54318D01*
X240656Y54342D01*
X241300Y54350D01*
X241944Y54342D01*
X242588Y54318D01*
X243231Y54279D01*
X243873Y54224D01*
X244513Y54153D01*
X245152Y54066D01*
X245788Y53964D01*
X246421Y53846D01*
X247051Y53712D01*
X247678Y53563D01*
X248301Y53399D01*
X248920Y53220D01*
X249534Y53025D01*
X250143Y52816D01*
X250747Y52591D01*
X251345Y52352D01*
X251938Y52098D01*
X252523Y51830D01*
X253102Y51547D01*
X253674Y51250D01*
X254239Y50940D01*
X254795Y50615D01*
X255344Y50277D01*
X255884Y49926D01*
X256415Y49562D01*
X256937Y49184D01*
X257450Y48794D01*
X257953Y48392D01*
X258446Y47977D01*
X258928Y47550D01*
X259400Y47111D01*
X259862Y46662D01*
X260311Y46200D01*
X260750Y45728D01*
X261177Y45246D01*
X261592Y44753D01*
X261994Y44250D01*
X262384Y43737D01*
X262762Y43215D01*
X263126Y42684D01*
X263477Y42144D01*
X263815Y41595D01*
X264140Y41039D01*
X264450Y40474D01*
X264747Y39902D01*
X265030Y39323D01*
X265298Y38738D01*
X265552Y38145D01*
X265791Y37547D01*
X266016Y36943D01*
X266225Y36334D01*
X266420Y35720D01*
X266599Y35101D01*
X266763Y34478D01*
X266912Y33851D01*
X267046Y33221D01*
X267164Y32588D01*
X267266Y31952D01*
X267353Y31313D01*
X267424Y30673D01*
X267479Y30031D01*
X267518Y29388D01*
X267542Y28744D01*
X267550Y28100D01*
X267542Y27456D01*
X267518Y26812D01*
X267479Y26169D01*
X267424Y25527D01*
X267353Y24887D01*
X267266Y24248D01*
X267164Y23612D01*
X267046Y22979D01*
X266912Y22349D01*
X266763Y21722D01*
X266599Y21099D01*
X266420Y20480D01*
X266225Y19866D01*
X266016Y19257D01*
X265791Y18653D01*
X265552Y18055D01*
X265298Y17462D01*
X265030Y16877D01*
X264747Y16298D01*
X264450Y15726D01*
X264140Y15161D01*
X263815Y14605D01*
X263477Y14056D01*
X263126Y13516D01*
X262762Y12985D01*
X262384Y12463D01*
X261994Y11950D01*
X261592Y11447D01*
X261177Y10954D01*
X260750Y10472D01*
X260311Y10000D01*
X259862Y9538D01*
X259400Y9089D01*
X258928Y8650D01*
X258446Y8223D01*
X257953Y7808D01*
X257450Y7406D01*
X256937Y7016D01*
X256415Y6638D01*
X255884Y6274D01*
X255344Y5923D01*
X254795Y5585D01*
X254239Y5260D01*
X253674Y4950D01*
X253102Y4653D01*
X252523Y4370D01*
X251938Y4102D01*
X251345Y3848D01*
X250747Y3609D01*
X250143Y3384D01*
X249534Y3175D01*
X248920Y2980D01*
X248301Y2801D01*
X247678Y2637D01*
X247051Y2488D01*
X246421Y2354D01*
X245788Y2236D01*
X245152Y2134D01*
X244513Y2047D01*
X243873Y1976D01*
X243231Y1921D01*
X242588Y1882D01*
X241944Y1858D01*
X241300Y1850D01*
X240656Y1858D01*
X240012Y1882D01*
X239369Y1921D01*
X238727Y1976D01*
X238087Y2047D01*
X237448Y2134D01*
X236812Y2236D01*
X236179Y2354D01*
X235549Y2488D01*
X234922Y2637D01*
X234299Y2801D01*
X233680Y2980D01*
X233066Y3175D01*
X232457Y3384D01*
X231853Y3609D01*
X231255Y3848D01*
X230662Y4102D01*
X230077Y4370D01*
X229498Y4653D01*
X228926Y4950D01*
X228361Y5260D01*
X227805Y5585D01*
X227256Y5923D01*
X226716Y6274D01*
X226185Y6638D01*
X225663Y7016D01*
X225150Y7406D01*
X224647Y7808D01*
X224154Y8223D01*
X223672Y8650D01*
X223200Y9089D01*
X222738Y9538D01*
X222289Y10000D01*
X221850Y10472D01*
X221423Y10954D01*
X221008Y11447D01*
X220606Y11950D01*
X220216Y12463D01*
X219838Y12985D01*
X219474Y13516D01*
X219123Y14056D01*
X218785Y14605D01*
X218460Y15161D01*
X218150Y15726D01*
X217853Y16298D01*
X217570Y16877D01*
X217302Y17462D01*
X217048Y18055D01*
X216809Y18653D01*
X216584Y19257D01*
X216375Y19866D01*
X216180Y20480D01*
X216001Y21099D01*
X215837Y21722D01*
X215688Y22349D01*
X215554Y22979D01*
X215436Y23612D01*
X215334Y24248D01*
X215247Y24887D01*
X215176Y25527D01*
X215121Y26169D01*
X215082Y26812D01*
X215058Y27456D01*
X215050Y28100D01*
D10*
X213068Y-5842D02*
X210472Y-5842D01*
X210373Y-5840D01*
X210273Y-5834D01*
X210174Y-5825D01*
X210076Y-5812D01*
X209978Y-5795D01*
X209880Y-5774D01*
X209784Y-5749D01*
X209689Y-5721D01*
X209595Y-5689D01*
X209502Y-5654D01*
X209410Y-5615D01*
X209320Y-5572D01*
X209232Y-5527D01*
X209145Y-5477D01*
X209061Y-5425D01*
X208978Y-5369D01*
X208898Y-5311D01*
X208820Y-5249D01*
X208745Y-5184D01*
X208672Y-5116D01*
X208602Y-5046D01*
X208534Y-4973D01*
X208469Y-4898D01*
X208407Y-4820D01*
X208349Y-4740D01*
X208293Y-4657D01*
X208241Y-4573D01*
X208191Y-4486D01*
X208146Y-4398D01*
X208103Y-4308D01*
X208064Y-4216D01*
X208029Y-4123D01*
X207997Y-4029D01*
X207969Y-3934D01*
X207944Y-3838D01*
X207923Y-3740D01*
X207906Y-3642D01*
X207893Y-3544D01*
X207884Y-3445D01*
X207878Y-3345D01*
X207876Y-3246D01*
X207875Y-3246D02*
X207875Y3246D01*
X207876Y3246D02*
X207878Y3345D01*
X207884Y3445D01*
X207893Y3544D01*
X207906Y3642D01*
X207923Y3740D01*
X207944Y3838D01*
X207969Y3934D01*
X207997Y4029D01*
X208029Y4123D01*
X208064Y4216D01*
X208103Y4308D01*
X208146Y4398D01*
X208191Y4486D01*
X208241Y4573D01*
X208293Y4657D01*
X208349Y4740D01*
X208407Y4820D01*
X208469Y4898D01*
X208534Y4973D01*
X208602Y5046D01*
X208672Y5116D01*
X208745Y5184D01*
X208820Y5249D01*
X208898Y5311D01*
X208978Y5369D01*
X209061Y5425D01*
X209145Y5477D01*
X209232Y5527D01*
X209320Y5572D01*
X209410Y5615D01*
X209502Y5654D01*
X209594Y5689D01*
X209689Y5721D01*
X209784Y5749D01*
X209880Y5774D01*
X209978Y5795D01*
X210076Y5812D01*
X210174Y5825D01*
X210273Y5834D01*
X210373Y5840D01*
X210472Y5842D01*
X213068Y5842D01*
X217433Y-2596D02*
X217435Y-2483D01*
X217441Y-2370D01*
X217451Y-2257D01*
X217465Y-2144D01*
X217482Y-2032D01*
X217504Y-1921D01*
X217529Y-1811D01*
X217559Y-1701D01*
X217592Y-1593D01*
X217629Y-1486D01*
X217669Y-1380D01*
X217714Y-1276D01*
X217762Y-1173D01*
X217813Y-1072D01*
X217868Y-973D01*
X217926Y-876D01*
X217988Y-781D01*
X218053Y-688D01*
X218121Y-598D01*
X218192Y-510D01*
X218267Y-424D01*
X218344Y-341D01*
X218424Y-261D01*
X218507Y-184D01*
X218593Y-109D01*
X218681Y-38D01*
X218771Y30D01*
X218864Y95D01*
X218959Y157D01*
X219056Y215D01*
X219155Y270D01*
X219256Y321D01*
X219359Y369D01*
X219463Y414D01*
X219569Y454D01*
X219676Y491D01*
X219784Y524D01*
X219894Y554D01*
X220004Y579D01*
X220115Y601D01*
X220227Y618D01*
X220340Y632D01*
X220453Y642D01*
X220566Y648D01*
X220679Y650D01*
X220792Y648D01*
X220905Y642D01*
X221018Y632D01*
X221131Y618D01*
X221243Y601D01*
X221354Y579D01*
X221464Y554D01*
X221574Y524D01*
X221682Y491D01*
X221789Y454D01*
X221895Y414D01*
X221999Y369D01*
X222102Y321D01*
X222203Y270D01*
X222302Y215D01*
X222399Y157D01*
X222494Y95D01*
X222587Y30D01*
X222677Y-38D01*
X222765Y-109D01*
X222851Y-184D01*
X222934Y-261D01*
X223014Y-341D01*
X223091Y-424D01*
X223166Y-510D01*
X223237Y-598D01*
X223305Y-688D01*
X223370Y-781D01*
X223432Y-876D01*
X223490Y-973D01*
X223545Y-1072D01*
X223596Y-1173D01*
X223644Y-1276D01*
X223689Y-1380D01*
X223729Y-1486D01*
X223766Y-1593D01*
X223799Y-1701D01*
X223829Y-1811D01*
X223854Y-1921D01*
X223876Y-2032D01*
X223893Y-2144D01*
X223907Y-2257D01*
X223917Y-2370D01*
X223923Y-2483D01*
X223925Y-2596D01*
X223923Y-2709D01*
X223917Y-2822D01*
X223907Y-2935D01*
X223893Y-3048D01*
X223876Y-3160D01*
X223854Y-3271D01*
X223829Y-3381D01*
X223799Y-3491D01*
X223766Y-3599D01*
X223729Y-3706D01*
X223689Y-3812D01*
X223644Y-3916D01*
X223596Y-4019D01*
X223545Y-4120D01*
X223490Y-4219D01*
X223432Y-4316D01*
X223370Y-4411D01*
X223305Y-4504D01*
X223237Y-4594D01*
X223166Y-4682D01*
X223091Y-4768D01*
X223014Y-4851D01*
X222934Y-4931D01*
X222851Y-5008D01*
X222765Y-5083D01*
X222677Y-5154D01*
X222587Y-5222D01*
X222494Y-5287D01*
X222399Y-5349D01*
X222302Y-5407D01*
X222203Y-5462D01*
X222102Y-5513D01*
X221999Y-5561D01*
X221895Y-5606D01*
X221789Y-5646D01*
X221682Y-5683D01*
X221574Y-5716D01*
X221464Y-5746D01*
X221354Y-5771D01*
X221243Y-5793D01*
X221131Y-5810D01*
X221018Y-5824D01*
X220905Y-5834D01*
X220792Y-5840D01*
X220679Y-5842D01*
X220566Y-5840D01*
X220453Y-5834D01*
X220340Y-5824D01*
X220227Y-5810D01*
X220115Y-5793D01*
X220004Y-5771D01*
X219894Y-5746D01*
X219784Y-5716D01*
X219676Y-5683D01*
X219569Y-5646D01*
X219463Y-5606D01*
X219359Y-5561D01*
X219256Y-5513D01*
X219155Y-5462D01*
X219056Y-5407D01*
X218959Y-5349D01*
X218864Y-5287D01*
X218771Y-5222D01*
X218681Y-5154D01*
X218593Y-5083D01*
X218507Y-5008D01*
X218424Y-4931D01*
X218344Y-4851D01*
X218267Y-4768D01*
X218192Y-4682D01*
X218121Y-4594D01*
X218053Y-4504D01*
X217988Y-4411D01*
X217926Y-4316D01*
X217868Y-4219D01*
X217813Y-4120D01*
X217762Y-4019D01*
X217714Y-3916D01*
X217669Y-3812D01*
X217629Y-3706D01*
X217592Y-3599D01*
X217559Y-3491D01*
X217529Y-3381D01*
X217504Y-3271D01*
X217482Y-3160D01*
X217465Y-3048D01*
X217451Y-2935D01*
X217441Y-2822D01*
X217435Y-2709D01*
X217433Y-2596D01*
X218083Y3246D02*
X218085Y3347D01*
X218091Y3447D01*
X218101Y3547D01*
X218114Y3647D01*
X218132Y3746D01*
X218153Y3845D01*
X218178Y3942D01*
X218207Y4039D01*
X218240Y4134D01*
X218276Y4228D01*
X218316Y4320D01*
X218359Y4411D01*
X218406Y4500D01*
X218456Y4587D01*
X218510Y4673D01*
X218567Y4756D01*
X218627Y4836D01*
X218690Y4915D01*
X218757Y4991D01*
X218826Y5064D01*
X218898Y5134D01*
X218972Y5202D01*
X219049Y5267D01*
X219129Y5328D01*
X219211Y5387D01*
X219295Y5442D01*
X219381Y5494D01*
X219469Y5543D01*
X219559Y5588D01*
X219651Y5630D01*
X219744Y5668D01*
X219839Y5702D01*
X219934Y5733D01*
X220031Y5760D01*
X220129Y5783D01*
X220228Y5803D01*
X220328Y5818D01*
X220428Y5830D01*
X220528Y5838D01*
X220629Y5842D01*
X220729Y5842D01*
X220830Y5838D01*
X220930Y5830D01*
X221030Y5818D01*
X221130Y5803D01*
X221229Y5783D01*
X221327Y5760D01*
X221424Y5733D01*
X221519Y5702D01*
X221614Y5668D01*
X221707Y5630D01*
X221799Y5588D01*
X221889Y5543D01*
X221977Y5494D01*
X222063Y5442D01*
X222147Y5387D01*
X222229Y5328D01*
X222309Y5267D01*
X222386Y5202D01*
X222460Y5134D01*
X222532Y5064D01*
X222601Y4991D01*
X222668Y4915D01*
X222731Y4836D01*
X222791Y4756D01*
X222848Y4673D01*
X222902Y4587D01*
X222952Y4500D01*
X222999Y4411D01*
X223042Y4320D01*
X223082Y4228D01*
X223118Y4134D01*
X223151Y4039D01*
X223180Y3942D01*
X223205Y3845D01*
X223226Y3746D01*
X223244Y3647D01*
X223257Y3547D01*
X223267Y3447D01*
X223273Y3347D01*
X223275Y3246D01*
X223273Y3145D01*
X223267Y3045D01*
X223257Y2945D01*
X223244Y2845D01*
X223226Y2746D01*
X223205Y2647D01*
X223180Y2550D01*
X223151Y2453D01*
X223118Y2358D01*
X223082Y2264D01*
X223042Y2172D01*
X222999Y2081D01*
X222952Y1992D01*
X222902Y1905D01*
X222848Y1819D01*
X222791Y1736D01*
X222731Y1656D01*
X222668Y1577D01*
X222601Y1501D01*
X222532Y1428D01*
X222460Y1358D01*
X222386Y1290D01*
X222309Y1225D01*
X222229Y1164D01*
X222147Y1105D01*
X222063Y1050D01*
X221977Y998D01*
X221889Y949D01*
X221799Y904D01*
X221707Y862D01*
X221614Y824D01*
X221519Y790D01*
X221424Y759D01*
X221327Y732D01*
X221229Y709D01*
X221130Y689D01*
X221030Y674D01*
X220930Y662D01*
X220830Y654D01*
X220729Y650D01*
X220629Y650D01*
X220528Y654D01*
X220428Y662D01*
X220328Y674D01*
X220228Y689D01*
X220129Y709D01*
X220031Y732D01*
X219934Y759D01*
X219839Y790D01*
X219744Y824D01*
X219651Y862D01*
X219559Y904D01*
X219469Y949D01*
X219381Y998D01*
X219295Y1050D01*
X219211Y1105D01*
X219129Y1164D01*
X219049Y1225D01*
X218972Y1290D01*
X218898Y1358D01*
X218826Y1428D01*
X218757Y1501D01*
X218690Y1577D01*
X218627Y1656D01*
X218567Y1736D01*
X218510Y1819D01*
X218456Y1905D01*
X218406Y1992D01*
X218359Y2081D01*
X218316Y2172D01*
X218276Y2264D01*
X218240Y2358D01*
X218207Y2453D01*
X218178Y2550D01*
X218153Y2647D01*
X218132Y2746D01*
X218114Y2845D01*
X218101Y2945D01*
X218091Y3045D01*
X218085Y3145D01*
X218083Y3246D01*
D14*
X323700Y245250D02*
X323700Y262750D01*
X336700Y262750D02*
X336700Y245250D01*
D10*
X330519Y274618D02*
X330519Y286302D01*
X333765Y286302D01*
X333878Y286300D01*
X333991Y286294D01*
X334104Y286284D01*
X334217Y286270D01*
X334329Y286253D01*
X334440Y286231D01*
X334550Y286206D01*
X334660Y286176D01*
X334768Y286143D01*
X334875Y286106D01*
X334981Y286066D01*
X335085Y286021D01*
X335188Y285973D01*
X335289Y285922D01*
X335388Y285867D01*
X335485Y285809D01*
X335580Y285747D01*
X335673Y285682D01*
X335763Y285614D01*
X335851Y285543D01*
X335937Y285468D01*
X336020Y285391D01*
X336100Y285311D01*
X336177Y285228D01*
X336252Y285142D01*
X336323Y285054D01*
X336391Y284964D01*
X336456Y284871D01*
X336518Y284776D01*
X336576Y284679D01*
X336631Y284580D01*
X336682Y284479D01*
X336730Y284376D01*
X336775Y284272D01*
X336815Y284166D01*
X336852Y284059D01*
X336885Y283951D01*
X336915Y283841D01*
X336940Y283731D01*
X336962Y283620D01*
X336979Y283508D01*
X336993Y283395D01*
X337003Y283282D01*
X337009Y283169D01*
X337011Y283056D01*
X337010Y283056D02*
X337010Y277864D01*
X337011Y277864D02*
X337009Y277751D01*
X337003Y277638D01*
X336993Y277525D01*
X336979Y277412D01*
X336962Y277300D01*
X336940Y277189D01*
X336915Y277079D01*
X336885Y276969D01*
X336852Y276861D01*
X336815Y276754D01*
X336775Y276648D01*
X336730Y276544D01*
X336682Y276441D01*
X336631Y276340D01*
X336576Y276241D01*
X336518Y276144D01*
X336456Y276049D01*
X336391Y275956D01*
X336323Y275866D01*
X336252Y275778D01*
X336177Y275692D01*
X336100Y275609D01*
X336020Y275529D01*
X335937Y275452D01*
X335851Y275377D01*
X335763Y275306D01*
X335673Y275238D01*
X335580Y275173D01*
X335485Y275111D01*
X335388Y275053D01*
X335289Y274998D01*
X335188Y274947D01*
X335085Y274899D01*
X334981Y274854D01*
X334875Y274814D01*
X334768Y274777D01*
X334660Y274744D01*
X334550Y274714D01*
X334440Y274689D01*
X334329Y274667D01*
X334217Y274650D01*
X334104Y274636D01*
X333991Y274626D01*
X333878Y274620D01*
X333765Y274618D01*
X330519Y274618D01*
X342330Y283706D02*
X345575Y286302D01*
X345575Y274618D01*
X342330Y274618D02*
X348821Y274618D01*
D14*
X82700Y237350D02*
X82700Y219850D01*
X69700Y219850D02*
X69700Y237350D01*
D10*
X51229Y233382D02*
X51229Y221698D01*
X51229Y233382D02*
X54475Y233382D01*
X54588Y233380D01*
X54701Y233374D01*
X54814Y233364D01*
X54927Y233350D01*
X55039Y233333D01*
X55150Y233311D01*
X55260Y233286D01*
X55370Y233256D01*
X55478Y233223D01*
X55585Y233186D01*
X55691Y233146D01*
X55795Y233101D01*
X55898Y233053D01*
X55999Y233002D01*
X56098Y232947D01*
X56195Y232889D01*
X56290Y232827D01*
X56383Y232762D01*
X56473Y232694D01*
X56561Y232623D01*
X56647Y232548D01*
X56730Y232471D01*
X56810Y232391D01*
X56887Y232308D01*
X56962Y232222D01*
X57033Y232134D01*
X57101Y232044D01*
X57166Y231951D01*
X57228Y231856D01*
X57286Y231759D01*
X57341Y231660D01*
X57392Y231559D01*
X57440Y231456D01*
X57485Y231352D01*
X57525Y231246D01*
X57562Y231139D01*
X57595Y231031D01*
X57625Y230921D01*
X57650Y230811D01*
X57672Y230700D01*
X57689Y230588D01*
X57703Y230475D01*
X57713Y230362D01*
X57719Y230249D01*
X57721Y230136D01*
X57720Y230136D02*
X57720Y224944D01*
X57721Y224944D02*
X57719Y224831D01*
X57713Y224718D01*
X57703Y224605D01*
X57689Y224492D01*
X57672Y224380D01*
X57650Y224269D01*
X57625Y224159D01*
X57595Y224049D01*
X57562Y223941D01*
X57525Y223834D01*
X57485Y223728D01*
X57440Y223624D01*
X57392Y223521D01*
X57341Y223420D01*
X57286Y223321D01*
X57228Y223224D01*
X57166Y223129D01*
X57101Y223036D01*
X57033Y222946D01*
X56962Y222858D01*
X56887Y222772D01*
X56810Y222689D01*
X56730Y222609D01*
X56647Y222532D01*
X56561Y222457D01*
X56473Y222386D01*
X56383Y222318D01*
X56290Y222253D01*
X56195Y222191D01*
X56098Y222133D01*
X55999Y222078D01*
X55898Y222027D01*
X55795Y221979D01*
X55691Y221934D01*
X55585Y221894D01*
X55478Y221857D01*
X55370Y221824D01*
X55260Y221794D01*
X55150Y221769D01*
X55039Y221747D01*
X54927Y221730D01*
X54814Y221716D01*
X54701Y221706D01*
X54588Y221700D01*
X54475Y221698D01*
X51229Y221698D01*
X66610Y233382D02*
X66717Y233380D01*
X66823Y233374D01*
X66929Y233364D01*
X67035Y233351D01*
X67141Y233333D01*
X67245Y233312D01*
X67349Y233287D01*
X67452Y233258D01*
X67553Y233226D01*
X67653Y233189D01*
X67752Y233149D01*
X67850Y233106D01*
X67946Y233059D01*
X68040Y233008D01*
X68132Y232954D01*
X68222Y232897D01*
X68310Y232837D01*
X68395Y232773D01*
X68478Y232706D01*
X68559Y232636D01*
X68637Y232564D01*
X68713Y232488D01*
X68785Y232410D01*
X68855Y232329D01*
X68922Y232246D01*
X68986Y232161D01*
X69046Y232073D01*
X69103Y231983D01*
X69157Y231891D01*
X69208Y231797D01*
X69255Y231701D01*
X69298Y231603D01*
X69338Y231504D01*
X69375Y231404D01*
X69407Y231303D01*
X69436Y231200D01*
X69461Y231096D01*
X69482Y230992D01*
X69500Y230886D01*
X69513Y230780D01*
X69523Y230674D01*
X69529Y230568D01*
X69531Y230461D01*
X66610Y233382D02*
X66489Y233380D01*
X66368Y233374D01*
X66248Y233364D01*
X66127Y233351D01*
X66008Y233333D01*
X65888Y233312D01*
X65770Y233287D01*
X65653Y233258D01*
X65536Y233225D01*
X65421Y233189D01*
X65307Y233148D01*
X65194Y233105D01*
X65082Y233057D01*
X64973Y233006D01*
X64865Y232951D01*
X64758Y232893D01*
X64654Y232832D01*
X64552Y232767D01*
X64452Y232699D01*
X64354Y232628D01*
X64258Y232554D01*
X64165Y232477D01*
X64075Y232396D01*
X63987Y232313D01*
X63902Y232227D01*
X63819Y232138D01*
X63740Y232047D01*
X63663Y231953D01*
X63590Y231857D01*
X63520Y231759D01*
X63453Y231658D01*
X63389Y231555D01*
X63329Y231450D01*
X63272Y231343D01*
X63218Y231235D01*
X63168Y231125D01*
X63122Y231013D01*
X63079Y230900D01*
X63040Y230785D01*
X68558Y228189D02*
X68637Y228266D01*
X68713Y228347D01*
X68786Y228430D01*
X68856Y228515D01*
X68923Y228603D01*
X68987Y228693D01*
X69047Y228785D01*
X69104Y228880D01*
X69158Y228976D01*
X69209Y229074D01*
X69256Y229174D01*
X69300Y229276D01*
X69340Y229379D01*
X69376Y229483D01*
X69408Y229589D01*
X69437Y229695D01*
X69462Y229803D01*
X69484Y229911D01*
X69501Y230021D01*
X69515Y230130D01*
X69524Y230240D01*
X69530Y230351D01*
X69532Y230461D01*
X68557Y228189D02*
X63040Y221698D01*
X69531Y221698D01*
D12*
X212400Y177800D02*
X212402Y177918D01*
X212408Y178036D01*
X212418Y178154D01*
X212432Y178271D01*
X212450Y178388D01*
X212472Y178505D01*
X212497Y178620D01*
X212527Y178734D01*
X212561Y178848D01*
X212598Y178960D01*
X212639Y179071D01*
X212684Y179180D01*
X212732Y179288D01*
X212784Y179394D01*
X212840Y179499D01*
X212899Y179601D01*
X212961Y179701D01*
X213027Y179799D01*
X213096Y179895D01*
X213169Y179989D01*
X213244Y180080D01*
X213323Y180168D01*
X213404Y180254D01*
X213489Y180337D01*
X213576Y180417D01*
X213665Y180494D01*
X213758Y180568D01*
X213852Y180638D01*
X213949Y180706D01*
X214049Y180770D01*
X214150Y180831D01*
X214253Y180888D01*
X214359Y180942D01*
X214466Y180993D01*
X214574Y181039D01*
X214684Y181082D01*
X214796Y181121D01*
X214909Y181157D01*
X215023Y181188D01*
X215138Y181216D01*
X215253Y181240D01*
X215370Y181260D01*
X215487Y181276D01*
X215605Y181288D01*
X215723Y181296D01*
X215841Y181300D01*
X215959Y181300D01*
X216077Y181296D01*
X216195Y181288D01*
X216313Y181276D01*
X216430Y181260D01*
X216547Y181240D01*
X216662Y181216D01*
X216777Y181188D01*
X216891Y181157D01*
X217004Y181121D01*
X217116Y181082D01*
X217226Y181039D01*
X217334Y180993D01*
X217441Y180942D01*
X217547Y180888D01*
X217650Y180831D01*
X217751Y180770D01*
X217851Y180706D01*
X217948Y180638D01*
X218042Y180568D01*
X218135Y180494D01*
X218224Y180417D01*
X218311Y180337D01*
X218396Y180254D01*
X218477Y180168D01*
X218556Y180080D01*
X218631Y179989D01*
X218704Y179895D01*
X218773Y179799D01*
X218839Y179701D01*
X218901Y179601D01*
X218960Y179499D01*
X219016Y179394D01*
X219068Y179288D01*
X219116Y179180D01*
X219161Y179071D01*
X219202Y178960D01*
X219239Y178848D01*
X219273Y178734D01*
X219303Y178620D01*
X219328Y178505D01*
X219350Y178388D01*
X219368Y178271D01*
X219382Y178154D01*
X219392Y178036D01*
X219398Y177918D01*
X219400Y177800D01*
X219398Y177682D01*
X219392Y177564D01*
X219382Y177446D01*
X219368Y177329D01*
X219350Y177212D01*
X219328Y177095D01*
X219303Y176980D01*
X219273Y176866D01*
X219239Y176752D01*
X219202Y176640D01*
X219161Y176529D01*
X219116Y176420D01*
X219068Y176312D01*
X219016Y176206D01*
X218960Y176101D01*
X218901Y175999D01*
X218839Y175899D01*
X218773Y175801D01*
X218704Y175705D01*
X218631Y175611D01*
X218556Y175520D01*
X218477Y175432D01*
X218396Y175346D01*
X218311Y175263D01*
X218224Y175183D01*
X218135Y175106D01*
X218042Y175032D01*
X217948Y174962D01*
X217851Y174894D01*
X217751Y174830D01*
X217650Y174769D01*
X217547Y174712D01*
X217441Y174658D01*
X217334Y174607D01*
X217226Y174561D01*
X217116Y174518D01*
X217004Y174479D01*
X216891Y174443D01*
X216777Y174412D01*
X216662Y174384D01*
X216547Y174360D01*
X216430Y174340D01*
X216313Y174324D01*
X216195Y174312D01*
X216077Y174304D01*
X215959Y174300D01*
X215841Y174300D01*
X215723Y174304D01*
X215605Y174312D01*
X215487Y174324D01*
X215370Y174340D01*
X215253Y174360D01*
X215138Y174384D01*
X215023Y174412D01*
X214909Y174443D01*
X214796Y174479D01*
X214684Y174518D01*
X214574Y174561D01*
X214466Y174607D01*
X214359Y174658D01*
X214253Y174712D01*
X214150Y174769D01*
X214049Y174830D01*
X213949Y174894D01*
X213852Y174962D01*
X213758Y175032D01*
X213665Y175106D01*
X213576Y175183D01*
X213489Y175263D01*
X213404Y175346D01*
X213323Y175432D01*
X213244Y175520D01*
X213169Y175611D01*
X213096Y175705D01*
X213027Y175801D01*
X212961Y175899D01*
X212899Y175999D01*
X212840Y176101D01*
X212784Y176206D01*
X212732Y176312D01*
X212684Y176420D01*
X212639Y176529D01*
X212598Y176640D01*
X212561Y176752D01*
X212527Y176866D01*
X212497Y176980D01*
X212472Y177095D01*
X212450Y177212D01*
X212432Y177329D01*
X212418Y177446D01*
X212408Y177564D01*
X212402Y177682D01*
X212400Y177800D01*
D13*
X224400Y210300D02*
X245400Y210300D01*
X245400Y145300D01*
X224400Y145300D01*
D15*
X266150Y144800D02*
X266152Y144870D01*
X266158Y144940D01*
X266168Y145009D01*
X266181Y145078D01*
X266199Y145146D01*
X266220Y145213D01*
X266245Y145278D01*
X266274Y145342D01*
X266306Y145405D01*
X266342Y145465D01*
X266381Y145523D01*
X266423Y145579D01*
X266468Y145633D01*
X266516Y145684D01*
X266567Y145732D01*
X266621Y145777D01*
X266677Y145819D01*
X266735Y145858D01*
X266795Y145894D01*
X266858Y145926D01*
X266922Y145955D01*
X266987Y145980D01*
X267054Y146001D01*
X267122Y146019D01*
X267191Y146032D01*
X267260Y146042D01*
X267330Y146048D01*
X267400Y146050D01*
X267470Y146048D01*
X267540Y146042D01*
X267609Y146032D01*
X267678Y146019D01*
X267746Y146001D01*
X267813Y145980D01*
X267878Y145955D01*
X267942Y145926D01*
X268005Y145894D01*
X268065Y145858D01*
X268123Y145819D01*
X268179Y145777D01*
X268233Y145732D01*
X268284Y145684D01*
X268332Y145633D01*
X268377Y145579D01*
X268419Y145523D01*
X268458Y145465D01*
X268494Y145405D01*
X268526Y145342D01*
X268555Y145278D01*
X268580Y145213D01*
X268601Y145146D01*
X268619Y145078D01*
X268632Y145009D01*
X268642Y144940D01*
X268648Y144870D01*
X268650Y144800D01*
X268648Y144730D01*
X268642Y144660D01*
X268632Y144591D01*
X268619Y144522D01*
X268601Y144454D01*
X268580Y144387D01*
X268555Y144322D01*
X268526Y144258D01*
X268494Y144195D01*
X268458Y144135D01*
X268419Y144077D01*
X268377Y144021D01*
X268332Y143967D01*
X268284Y143916D01*
X268233Y143868D01*
X268179Y143823D01*
X268123Y143781D01*
X268065Y143742D01*
X268005Y143706D01*
X267942Y143674D01*
X267878Y143645D01*
X267813Y143620D01*
X267746Y143599D01*
X267678Y143581D01*
X267609Y143568D01*
X267540Y143558D01*
X267470Y143552D01*
X267400Y143550D01*
X267330Y143552D01*
X267260Y143558D01*
X267191Y143568D01*
X267122Y143581D01*
X267054Y143599D01*
X266987Y143620D01*
X266922Y143645D01*
X266858Y143674D01*
X266795Y143706D01*
X266735Y143742D01*
X266677Y143781D01*
X266621Y143823D01*
X266567Y143868D01*
X266516Y143916D01*
X266468Y143967D01*
X266423Y144021D01*
X266381Y144077D01*
X266342Y144135D01*
X266306Y144195D01*
X266274Y144258D01*
X266245Y144322D01*
X266220Y144387D01*
X266199Y144454D01*
X266181Y144522D01*
X266168Y144591D01*
X266158Y144660D01*
X266152Y144730D01*
X266150Y144800D01*
D10*
X172657Y145542D02*
X169411Y142946D01*
X172657Y145542D02*
X172657Y133858D01*
X175902Y133858D02*
X169411Y133858D01*
X184411Y145542D02*
X184518Y145540D01*
X184624Y145534D01*
X184730Y145524D01*
X184836Y145511D01*
X184942Y145493D01*
X185046Y145472D01*
X185150Y145447D01*
X185253Y145418D01*
X185354Y145386D01*
X185454Y145349D01*
X185553Y145309D01*
X185651Y145266D01*
X185747Y145219D01*
X185841Y145168D01*
X185933Y145114D01*
X186023Y145057D01*
X186111Y144997D01*
X186196Y144933D01*
X186279Y144866D01*
X186360Y144796D01*
X186438Y144724D01*
X186514Y144648D01*
X186586Y144570D01*
X186656Y144489D01*
X186723Y144406D01*
X186787Y144321D01*
X186847Y144233D01*
X186904Y144143D01*
X186958Y144051D01*
X187009Y143957D01*
X187056Y143861D01*
X187099Y143763D01*
X187139Y143664D01*
X187176Y143564D01*
X187208Y143463D01*
X187237Y143360D01*
X187262Y143256D01*
X187283Y143152D01*
X187301Y143046D01*
X187314Y142940D01*
X187324Y142834D01*
X187330Y142728D01*
X187332Y142621D01*
X184411Y145542D02*
X184290Y145540D01*
X184169Y145534D01*
X184049Y145524D01*
X183928Y145511D01*
X183809Y145493D01*
X183689Y145472D01*
X183571Y145447D01*
X183454Y145418D01*
X183337Y145385D01*
X183222Y145349D01*
X183108Y145308D01*
X182995Y145265D01*
X182883Y145217D01*
X182774Y145166D01*
X182666Y145111D01*
X182559Y145053D01*
X182455Y144992D01*
X182353Y144927D01*
X182253Y144859D01*
X182155Y144788D01*
X182059Y144714D01*
X181966Y144637D01*
X181876Y144556D01*
X181788Y144473D01*
X181703Y144387D01*
X181620Y144298D01*
X181541Y144207D01*
X181464Y144113D01*
X181391Y144017D01*
X181321Y143919D01*
X181254Y143818D01*
X181190Y143715D01*
X181130Y143610D01*
X181073Y143503D01*
X181019Y143395D01*
X180969Y143285D01*
X180923Y143173D01*
X180880Y143060D01*
X180841Y142945D01*
X186359Y140349D02*
X186438Y140426D01*
X186514Y140507D01*
X186587Y140590D01*
X186657Y140675D01*
X186724Y140763D01*
X186788Y140853D01*
X186848Y140945D01*
X186905Y141040D01*
X186959Y141136D01*
X187010Y141234D01*
X187057Y141334D01*
X187101Y141436D01*
X187141Y141539D01*
X187177Y141643D01*
X187209Y141749D01*
X187238Y141855D01*
X187263Y141963D01*
X187285Y142071D01*
X187302Y142181D01*
X187316Y142290D01*
X187325Y142400D01*
X187331Y142511D01*
X187333Y142621D01*
X186358Y140349D02*
X180841Y133858D01*
X187332Y133858D01*
X195517Y133858D02*
X191622Y145542D01*
X199411Y145542D02*
X195517Y133858D01*
X208717Y141647D02*
X212611Y141647D01*
X210015Y145542D02*
X210015Y135805D01*
X210017Y135718D01*
X210023Y135630D01*
X210033Y135544D01*
X210046Y135457D01*
X210064Y135372D01*
X210085Y135287D01*
X210110Y135203D01*
X210139Y135121D01*
X210172Y135040D01*
X210208Y134960D01*
X210247Y134882D01*
X210291Y134806D01*
X210337Y134732D01*
X210387Y134661D01*
X210440Y134591D01*
X210496Y134524D01*
X210555Y134460D01*
X210617Y134398D01*
X210681Y134339D01*
X210748Y134283D01*
X210818Y134230D01*
X210889Y134180D01*
X210963Y134134D01*
X211039Y134090D01*
X211117Y134051D01*
X211197Y134015D01*
X211278Y133982D01*
X211360Y133953D01*
X211444Y133928D01*
X211529Y133907D01*
X211614Y133889D01*
X211701Y133876D01*
X211787Y133866D01*
X211875Y133860D01*
X211962Y133858D01*
X212611Y133858D01*
X216923Y136454D02*
X216923Y139051D01*
X216925Y139152D01*
X216931Y139252D01*
X216941Y139352D01*
X216954Y139452D01*
X216972Y139551D01*
X216993Y139650D01*
X217018Y139747D01*
X217047Y139844D01*
X217080Y139939D01*
X217116Y140033D01*
X217156Y140125D01*
X217199Y140216D01*
X217246Y140305D01*
X217296Y140392D01*
X217350Y140478D01*
X217407Y140561D01*
X217467Y140641D01*
X217530Y140720D01*
X217597Y140796D01*
X217666Y140869D01*
X217738Y140939D01*
X217812Y141007D01*
X217889Y141072D01*
X217969Y141133D01*
X218051Y141192D01*
X218135Y141247D01*
X218221Y141299D01*
X218309Y141348D01*
X218399Y141393D01*
X218491Y141435D01*
X218584Y141473D01*
X218679Y141507D01*
X218774Y141538D01*
X218871Y141565D01*
X218969Y141588D01*
X219068Y141608D01*
X219168Y141623D01*
X219268Y141635D01*
X219368Y141643D01*
X219469Y141647D01*
X219569Y141647D01*
X219670Y141643D01*
X219770Y141635D01*
X219870Y141623D01*
X219970Y141608D01*
X220069Y141588D01*
X220167Y141565D01*
X220264Y141538D01*
X220359Y141507D01*
X220454Y141473D01*
X220547Y141435D01*
X220639Y141393D01*
X220729Y141348D01*
X220817Y141299D01*
X220903Y141247D01*
X220987Y141192D01*
X221069Y141133D01*
X221149Y141072D01*
X221226Y141007D01*
X221300Y140939D01*
X221372Y140869D01*
X221441Y140796D01*
X221508Y140720D01*
X221571Y140641D01*
X221631Y140561D01*
X221688Y140478D01*
X221742Y140392D01*
X221792Y140305D01*
X221839Y140216D01*
X221882Y140125D01*
X221922Y140033D01*
X221958Y139939D01*
X221991Y139844D01*
X222020Y139747D01*
X222045Y139650D01*
X222066Y139551D01*
X222084Y139452D01*
X222097Y139352D01*
X222107Y139252D01*
X222113Y139152D01*
X222115Y139051D01*
X222116Y139051D02*
X222116Y136454D01*
X222115Y136454D02*
X222113Y136353D01*
X222107Y136253D01*
X222097Y136153D01*
X222084Y136053D01*
X222066Y135954D01*
X222045Y135855D01*
X222020Y135758D01*
X221991Y135661D01*
X221958Y135566D01*
X221922Y135472D01*
X221882Y135380D01*
X221839Y135289D01*
X221792Y135200D01*
X221742Y135113D01*
X221688Y135027D01*
X221631Y134944D01*
X221571Y134864D01*
X221508Y134785D01*
X221441Y134709D01*
X221372Y134636D01*
X221300Y134566D01*
X221226Y134498D01*
X221149Y134433D01*
X221069Y134372D01*
X220987Y134313D01*
X220903Y134258D01*
X220817Y134206D01*
X220729Y134157D01*
X220639Y134112D01*
X220547Y134070D01*
X220454Y134032D01*
X220359Y133998D01*
X220264Y133967D01*
X220167Y133940D01*
X220069Y133917D01*
X219970Y133897D01*
X219870Y133882D01*
X219770Y133870D01*
X219670Y133862D01*
X219569Y133858D01*
X219469Y133858D01*
X219368Y133862D01*
X219268Y133870D01*
X219168Y133882D01*
X219068Y133897D01*
X218969Y133917D01*
X218871Y133940D01*
X218774Y133967D01*
X218679Y133998D01*
X218584Y134032D01*
X218491Y134070D01*
X218399Y134112D01*
X218309Y134157D01*
X218221Y134206D01*
X218135Y134258D01*
X218051Y134313D01*
X217969Y134372D01*
X217889Y134433D01*
X217812Y134498D01*
X217738Y134566D01*
X217666Y134636D01*
X217597Y134709D01*
X217530Y134785D01*
X217467Y134864D01*
X217407Y134944D01*
X217350Y135027D01*
X217296Y135113D01*
X217246Y135200D01*
X217199Y135289D01*
X217156Y135380D01*
X217116Y135472D01*
X217080Y135566D01*
X217047Y135661D01*
X217018Y135758D01*
X216993Y135855D01*
X216972Y135954D01*
X216954Y136053D01*
X216941Y136153D01*
X216931Y136253D01*
X216925Y136353D01*
X216923Y136454D01*
X233038Y133858D02*
X236283Y133858D01*
X236396Y133860D01*
X236509Y133866D01*
X236622Y133876D01*
X236735Y133890D01*
X236847Y133907D01*
X236958Y133929D01*
X237068Y133954D01*
X237178Y133984D01*
X237286Y134017D01*
X237393Y134054D01*
X237499Y134094D01*
X237603Y134139D01*
X237706Y134187D01*
X237807Y134238D01*
X237906Y134293D01*
X238003Y134351D01*
X238098Y134413D01*
X238191Y134478D01*
X238281Y134546D01*
X238369Y134617D01*
X238455Y134692D01*
X238538Y134769D01*
X238618Y134849D01*
X238695Y134932D01*
X238770Y135018D01*
X238841Y135106D01*
X238909Y135196D01*
X238974Y135289D01*
X239036Y135384D01*
X239094Y135481D01*
X239149Y135580D01*
X239200Y135681D01*
X239248Y135784D01*
X239293Y135888D01*
X239333Y135994D01*
X239370Y136101D01*
X239403Y136209D01*
X239433Y136319D01*
X239458Y136429D01*
X239480Y136540D01*
X239497Y136652D01*
X239511Y136765D01*
X239521Y136878D01*
X239527Y136991D01*
X239529Y137104D01*
X239527Y137217D01*
X239521Y137330D01*
X239511Y137443D01*
X239497Y137556D01*
X239480Y137668D01*
X239458Y137779D01*
X239433Y137889D01*
X239403Y137999D01*
X239370Y138107D01*
X239333Y138214D01*
X239293Y138320D01*
X239248Y138424D01*
X239200Y138527D01*
X239149Y138628D01*
X239094Y138727D01*
X239036Y138824D01*
X238974Y138919D01*
X238909Y139012D01*
X238841Y139102D01*
X238770Y139190D01*
X238695Y139276D01*
X238618Y139359D01*
X238538Y139439D01*
X238455Y139516D01*
X238369Y139591D01*
X238281Y139662D01*
X238191Y139730D01*
X238098Y139795D01*
X238003Y139857D01*
X237906Y139915D01*
X237807Y139970D01*
X237706Y140021D01*
X237603Y140069D01*
X237499Y140114D01*
X237393Y140154D01*
X237286Y140191D01*
X237178Y140224D01*
X237068Y140254D01*
X236958Y140279D01*
X236847Y140301D01*
X236735Y140318D01*
X236622Y140332D01*
X236509Y140342D01*
X236396Y140348D01*
X236283Y140350D01*
X236933Y145542D02*
X233038Y145542D01*
X236933Y145542D02*
X237034Y145540D01*
X237134Y145534D01*
X237234Y145524D01*
X237334Y145511D01*
X237433Y145493D01*
X237532Y145472D01*
X237629Y145447D01*
X237726Y145418D01*
X237821Y145385D01*
X237915Y145349D01*
X238007Y145309D01*
X238098Y145266D01*
X238187Y145219D01*
X238274Y145169D01*
X238360Y145115D01*
X238443Y145058D01*
X238523Y144998D01*
X238602Y144935D01*
X238678Y144868D01*
X238751Y144799D01*
X238821Y144727D01*
X238889Y144653D01*
X238954Y144576D01*
X239015Y144496D01*
X239074Y144414D01*
X239129Y144330D01*
X239181Y144244D01*
X239230Y144156D01*
X239275Y144066D01*
X239317Y143974D01*
X239355Y143881D01*
X239389Y143786D01*
X239420Y143691D01*
X239447Y143594D01*
X239470Y143496D01*
X239490Y143397D01*
X239505Y143297D01*
X239517Y143197D01*
X239525Y143097D01*
X239529Y142996D01*
X239529Y142896D01*
X239525Y142795D01*
X239517Y142695D01*
X239505Y142595D01*
X239490Y142495D01*
X239470Y142396D01*
X239447Y142298D01*
X239420Y142201D01*
X239389Y142106D01*
X239355Y142011D01*
X239317Y141918D01*
X239275Y141826D01*
X239230Y141736D01*
X239181Y141648D01*
X239129Y141562D01*
X239074Y141478D01*
X239015Y141396D01*
X238954Y141316D01*
X238889Y141239D01*
X238821Y141165D01*
X238751Y141093D01*
X238678Y141024D01*
X238602Y140957D01*
X238523Y140894D01*
X238443Y140834D01*
X238360Y140777D01*
X238274Y140723D01*
X238187Y140673D01*
X238098Y140626D01*
X238007Y140583D01*
X237915Y140543D01*
X237821Y140507D01*
X237726Y140474D01*
X237629Y140445D01*
X237532Y140420D01*
X237433Y140399D01*
X237334Y140381D01*
X237234Y140368D01*
X237134Y140358D01*
X237034Y140352D01*
X236933Y140350D01*
X236933Y140349D02*
X234336Y140349D01*
X243819Y145542D02*
X247713Y133858D01*
X251608Y145542D01*
X255898Y133858D02*
X259143Y133858D01*
X259256Y133860D01*
X259369Y133866D01*
X259482Y133876D01*
X259595Y133890D01*
X259707Y133907D01*
X259818Y133929D01*
X259928Y133954D01*
X260038Y133984D01*
X260146Y134017D01*
X260253Y134054D01*
X260359Y134094D01*
X260463Y134139D01*
X260566Y134187D01*
X260667Y134238D01*
X260766Y134293D01*
X260863Y134351D01*
X260958Y134413D01*
X261051Y134478D01*
X261141Y134546D01*
X261229Y134617D01*
X261315Y134692D01*
X261398Y134769D01*
X261478Y134849D01*
X261555Y134932D01*
X261630Y135018D01*
X261701Y135106D01*
X261769Y135196D01*
X261834Y135289D01*
X261896Y135384D01*
X261954Y135481D01*
X262009Y135580D01*
X262060Y135681D01*
X262108Y135784D01*
X262153Y135888D01*
X262193Y135994D01*
X262230Y136101D01*
X262263Y136209D01*
X262293Y136319D01*
X262318Y136429D01*
X262340Y136540D01*
X262357Y136652D01*
X262371Y136765D01*
X262381Y136878D01*
X262387Y136991D01*
X262389Y137104D01*
X262387Y137217D01*
X262381Y137330D01*
X262371Y137443D01*
X262357Y137556D01*
X262340Y137668D01*
X262318Y137779D01*
X262293Y137889D01*
X262263Y137999D01*
X262230Y138107D01*
X262193Y138214D01*
X262153Y138320D01*
X262108Y138424D01*
X262060Y138527D01*
X262009Y138628D01*
X261954Y138727D01*
X261896Y138824D01*
X261834Y138919D01*
X261769Y139012D01*
X261701Y139102D01*
X261630Y139190D01*
X261555Y139276D01*
X261478Y139359D01*
X261398Y139439D01*
X261315Y139516D01*
X261229Y139591D01*
X261141Y139662D01*
X261051Y139730D01*
X260958Y139795D01*
X260863Y139857D01*
X260766Y139915D01*
X260667Y139970D01*
X260566Y140021D01*
X260463Y140069D01*
X260359Y140114D01*
X260253Y140154D01*
X260146Y140191D01*
X260038Y140224D01*
X259928Y140254D01*
X259818Y140279D01*
X259707Y140301D01*
X259595Y140318D01*
X259482Y140332D01*
X259369Y140342D01*
X259256Y140348D01*
X259143Y140350D01*
X259793Y145542D02*
X255898Y145542D01*
X259793Y145542D02*
X259894Y145540D01*
X259994Y145534D01*
X260094Y145524D01*
X260194Y145511D01*
X260293Y145493D01*
X260392Y145472D01*
X260489Y145447D01*
X260586Y145418D01*
X260681Y145385D01*
X260775Y145349D01*
X260867Y145309D01*
X260958Y145266D01*
X261047Y145219D01*
X261134Y145169D01*
X261220Y145115D01*
X261303Y145058D01*
X261383Y144998D01*
X261462Y144935D01*
X261538Y144868D01*
X261611Y144799D01*
X261681Y144727D01*
X261749Y144653D01*
X261814Y144576D01*
X261875Y144496D01*
X261934Y144414D01*
X261989Y144330D01*
X262041Y144244D01*
X262090Y144156D01*
X262135Y144066D01*
X262177Y143974D01*
X262215Y143881D01*
X262249Y143786D01*
X262280Y143691D01*
X262307Y143594D01*
X262330Y143496D01*
X262350Y143397D01*
X262365Y143297D01*
X262377Y143197D01*
X262385Y143097D01*
X262389Y142996D01*
X262389Y142896D01*
X262385Y142795D01*
X262377Y142695D01*
X262365Y142595D01*
X262350Y142495D01*
X262330Y142396D01*
X262307Y142298D01*
X262280Y142201D01*
X262249Y142106D01*
X262215Y142011D01*
X262177Y141918D01*
X262135Y141826D01*
X262090Y141736D01*
X262041Y141648D01*
X261989Y141562D01*
X261934Y141478D01*
X261875Y141396D01*
X261814Y141316D01*
X261749Y141239D01*
X261681Y141165D01*
X261611Y141093D01*
X261538Y141024D01*
X261462Y140957D01*
X261383Y140894D01*
X261303Y140834D01*
X261220Y140777D01*
X261134Y140723D01*
X261047Y140673D01*
X260958Y140626D01*
X260867Y140583D01*
X260775Y140543D01*
X260681Y140507D01*
X260586Y140474D01*
X260489Y140445D01*
X260392Y140420D01*
X260293Y140399D01*
X260194Y140381D01*
X260094Y140368D01*
X259994Y140358D01*
X259894Y140352D01*
X259793Y140350D01*
X259793Y140349D02*
X257196Y140349D01*
D12*
X212400Y101600D02*
X212402Y101718D01*
X212408Y101836D01*
X212418Y101954D01*
X212432Y102071D01*
X212450Y102188D01*
X212472Y102305D01*
X212497Y102420D01*
X212527Y102534D01*
X212561Y102648D01*
X212598Y102760D01*
X212639Y102871D01*
X212684Y102980D01*
X212732Y103088D01*
X212784Y103194D01*
X212840Y103299D01*
X212899Y103401D01*
X212961Y103501D01*
X213027Y103599D01*
X213096Y103695D01*
X213169Y103789D01*
X213244Y103880D01*
X213323Y103968D01*
X213404Y104054D01*
X213489Y104137D01*
X213576Y104217D01*
X213665Y104294D01*
X213758Y104368D01*
X213852Y104438D01*
X213949Y104506D01*
X214049Y104570D01*
X214150Y104631D01*
X214253Y104688D01*
X214359Y104742D01*
X214466Y104793D01*
X214574Y104839D01*
X214684Y104882D01*
X214796Y104921D01*
X214909Y104957D01*
X215023Y104988D01*
X215138Y105016D01*
X215253Y105040D01*
X215370Y105060D01*
X215487Y105076D01*
X215605Y105088D01*
X215723Y105096D01*
X215841Y105100D01*
X215959Y105100D01*
X216077Y105096D01*
X216195Y105088D01*
X216313Y105076D01*
X216430Y105060D01*
X216547Y105040D01*
X216662Y105016D01*
X216777Y104988D01*
X216891Y104957D01*
X217004Y104921D01*
X217116Y104882D01*
X217226Y104839D01*
X217334Y104793D01*
X217441Y104742D01*
X217547Y104688D01*
X217650Y104631D01*
X217751Y104570D01*
X217851Y104506D01*
X217948Y104438D01*
X218042Y104368D01*
X218135Y104294D01*
X218224Y104217D01*
X218311Y104137D01*
X218396Y104054D01*
X218477Y103968D01*
X218556Y103880D01*
X218631Y103789D01*
X218704Y103695D01*
X218773Y103599D01*
X218839Y103501D01*
X218901Y103401D01*
X218960Y103299D01*
X219016Y103194D01*
X219068Y103088D01*
X219116Y102980D01*
X219161Y102871D01*
X219202Y102760D01*
X219239Y102648D01*
X219273Y102534D01*
X219303Y102420D01*
X219328Y102305D01*
X219350Y102188D01*
X219368Y102071D01*
X219382Y101954D01*
X219392Y101836D01*
X219398Y101718D01*
X219400Y101600D01*
X219398Y101482D01*
X219392Y101364D01*
X219382Y101246D01*
X219368Y101129D01*
X219350Y101012D01*
X219328Y100895D01*
X219303Y100780D01*
X219273Y100666D01*
X219239Y100552D01*
X219202Y100440D01*
X219161Y100329D01*
X219116Y100220D01*
X219068Y100112D01*
X219016Y100006D01*
X218960Y99901D01*
X218901Y99799D01*
X218839Y99699D01*
X218773Y99601D01*
X218704Y99505D01*
X218631Y99411D01*
X218556Y99320D01*
X218477Y99232D01*
X218396Y99146D01*
X218311Y99063D01*
X218224Y98983D01*
X218135Y98906D01*
X218042Y98832D01*
X217948Y98762D01*
X217851Y98694D01*
X217751Y98630D01*
X217650Y98569D01*
X217547Y98512D01*
X217441Y98458D01*
X217334Y98407D01*
X217226Y98361D01*
X217116Y98318D01*
X217004Y98279D01*
X216891Y98243D01*
X216777Y98212D01*
X216662Y98184D01*
X216547Y98160D01*
X216430Y98140D01*
X216313Y98124D01*
X216195Y98112D01*
X216077Y98104D01*
X215959Y98100D01*
X215841Y98100D01*
X215723Y98104D01*
X215605Y98112D01*
X215487Y98124D01*
X215370Y98140D01*
X215253Y98160D01*
X215138Y98184D01*
X215023Y98212D01*
X214909Y98243D01*
X214796Y98279D01*
X214684Y98318D01*
X214574Y98361D01*
X214466Y98407D01*
X214359Y98458D01*
X214253Y98512D01*
X214150Y98569D01*
X214049Y98630D01*
X213949Y98694D01*
X213852Y98762D01*
X213758Y98832D01*
X213665Y98906D01*
X213576Y98983D01*
X213489Y99063D01*
X213404Y99146D01*
X213323Y99232D01*
X213244Y99320D01*
X213169Y99411D01*
X213096Y99505D01*
X213027Y99601D01*
X212961Y99699D01*
X212899Y99799D01*
X212840Y99901D01*
X212784Y100006D01*
X212732Y100112D01*
X212684Y100220D01*
X212639Y100329D01*
X212598Y100440D01*
X212561Y100552D01*
X212527Y100666D01*
X212497Y100780D01*
X212472Y100895D01*
X212450Y101012D01*
X212432Y101129D01*
X212418Y101246D01*
X212408Y101364D01*
X212402Y101482D01*
X212400Y101600D01*
D13*
X224400Y134100D02*
X245400Y134100D01*
X245400Y69100D01*
X224400Y69100D01*
D15*
X266150Y68600D02*
X266152Y68670D01*
X266158Y68740D01*
X266168Y68809D01*
X266181Y68878D01*
X266199Y68946D01*
X266220Y69013D01*
X266245Y69078D01*
X266274Y69142D01*
X266306Y69205D01*
X266342Y69265D01*
X266381Y69323D01*
X266423Y69379D01*
X266468Y69433D01*
X266516Y69484D01*
X266567Y69532D01*
X266621Y69577D01*
X266677Y69619D01*
X266735Y69658D01*
X266795Y69694D01*
X266858Y69726D01*
X266922Y69755D01*
X266987Y69780D01*
X267054Y69801D01*
X267122Y69819D01*
X267191Y69832D01*
X267260Y69842D01*
X267330Y69848D01*
X267400Y69850D01*
X267470Y69848D01*
X267540Y69842D01*
X267609Y69832D01*
X267678Y69819D01*
X267746Y69801D01*
X267813Y69780D01*
X267878Y69755D01*
X267942Y69726D01*
X268005Y69694D01*
X268065Y69658D01*
X268123Y69619D01*
X268179Y69577D01*
X268233Y69532D01*
X268284Y69484D01*
X268332Y69433D01*
X268377Y69379D01*
X268419Y69323D01*
X268458Y69265D01*
X268494Y69205D01*
X268526Y69142D01*
X268555Y69078D01*
X268580Y69013D01*
X268601Y68946D01*
X268619Y68878D01*
X268632Y68809D01*
X268642Y68740D01*
X268648Y68670D01*
X268650Y68600D01*
X268648Y68530D01*
X268642Y68460D01*
X268632Y68391D01*
X268619Y68322D01*
X268601Y68254D01*
X268580Y68187D01*
X268555Y68122D01*
X268526Y68058D01*
X268494Y67995D01*
X268458Y67935D01*
X268419Y67877D01*
X268377Y67821D01*
X268332Y67767D01*
X268284Y67716D01*
X268233Y67668D01*
X268179Y67623D01*
X268123Y67581D01*
X268065Y67542D01*
X268005Y67506D01*
X267942Y67474D01*
X267878Y67445D01*
X267813Y67420D01*
X267746Y67399D01*
X267678Y67381D01*
X267609Y67368D01*
X267540Y67358D01*
X267470Y67352D01*
X267400Y67350D01*
X267330Y67352D01*
X267260Y67358D01*
X267191Y67368D01*
X267122Y67381D01*
X267054Y67399D01*
X266987Y67420D01*
X266922Y67445D01*
X266858Y67474D01*
X266795Y67506D01*
X266735Y67542D01*
X266677Y67581D01*
X266621Y67623D01*
X266567Y67668D01*
X266516Y67716D01*
X266468Y67767D01*
X266423Y67821D01*
X266381Y67877D01*
X266342Y67935D01*
X266306Y67995D01*
X266274Y68058D01*
X266245Y68122D01*
X266220Y68187D01*
X266199Y68254D01*
X266181Y68322D01*
X266168Y68391D01*
X266158Y68460D01*
X266152Y68530D01*
X266150Y68600D01*
D10*
X178047Y69342D02*
X174801Y66746D01*
X178047Y69342D02*
X178047Y57658D01*
X174801Y57658D02*
X181293Y57658D01*
X192723Y66421D02*
X192721Y66528D01*
X192715Y66634D01*
X192705Y66740D01*
X192692Y66846D01*
X192674Y66952D01*
X192653Y67056D01*
X192628Y67160D01*
X192599Y67263D01*
X192567Y67364D01*
X192530Y67464D01*
X192490Y67563D01*
X192447Y67661D01*
X192400Y67757D01*
X192349Y67851D01*
X192295Y67943D01*
X192238Y68033D01*
X192178Y68121D01*
X192114Y68206D01*
X192047Y68289D01*
X191977Y68370D01*
X191905Y68448D01*
X191829Y68524D01*
X191751Y68596D01*
X191670Y68666D01*
X191587Y68733D01*
X191502Y68797D01*
X191414Y68857D01*
X191324Y68914D01*
X191232Y68968D01*
X191138Y69019D01*
X191042Y69066D01*
X190944Y69109D01*
X190845Y69149D01*
X190745Y69186D01*
X190644Y69218D01*
X190541Y69247D01*
X190437Y69272D01*
X190333Y69293D01*
X190227Y69311D01*
X190121Y69324D01*
X190015Y69334D01*
X189909Y69340D01*
X189802Y69342D01*
X189681Y69340D01*
X189560Y69334D01*
X189440Y69324D01*
X189319Y69311D01*
X189200Y69293D01*
X189080Y69272D01*
X188962Y69247D01*
X188845Y69218D01*
X188728Y69185D01*
X188613Y69149D01*
X188499Y69108D01*
X188386Y69065D01*
X188274Y69017D01*
X188165Y68966D01*
X188057Y68911D01*
X187950Y68853D01*
X187846Y68792D01*
X187744Y68727D01*
X187644Y68659D01*
X187546Y68588D01*
X187450Y68514D01*
X187357Y68437D01*
X187267Y68356D01*
X187179Y68273D01*
X187094Y68187D01*
X187011Y68098D01*
X186932Y68007D01*
X186855Y67913D01*
X186782Y67817D01*
X186712Y67719D01*
X186645Y67618D01*
X186581Y67515D01*
X186521Y67410D01*
X186464Y67303D01*
X186410Y67195D01*
X186360Y67085D01*
X186314Y66973D01*
X186271Y66860D01*
X186232Y66745D01*
X191749Y64149D02*
X191828Y64226D01*
X191904Y64307D01*
X191977Y64390D01*
X192047Y64475D01*
X192114Y64563D01*
X192178Y64653D01*
X192238Y64745D01*
X192295Y64840D01*
X192349Y64936D01*
X192400Y65034D01*
X192447Y65134D01*
X192491Y65236D01*
X192531Y65339D01*
X192567Y65443D01*
X192599Y65549D01*
X192628Y65655D01*
X192653Y65763D01*
X192675Y65871D01*
X192692Y65981D01*
X192706Y66090D01*
X192715Y66200D01*
X192721Y66311D01*
X192723Y66421D01*
X191749Y64149D02*
X186231Y57658D01*
X192723Y57658D01*
X200907Y57658D02*
X197012Y69342D01*
X204802Y69342D02*
X200907Y57658D01*
X214107Y65447D02*
X218002Y65447D01*
X215405Y69342D02*
X215405Y59605D01*
X215406Y59605D02*
X215408Y59518D01*
X215414Y59430D01*
X215424Y59344D01*
X215437Y59257D01*
X215455Y59172D01*
X215476Y59087D01*
X215501Y59003D01*
X215530Y58921D01*
X215563Y58840D01*
X215599Y58760D01*
X215638Y58682D01*
X215682Y58606D01*
X215728Y58532D01*
X215778Y58461D01*
X215831Y58391D01*
X215887Y58324D01*
X215946Y58260D01*
X216008Y58198D01*
X216072Y58139D01*
X216139Y58083D01*
X216209Y58030D01*
X216280Y57980D01*
X216354Y57934D01*
X216430Y57890D01*
X216508Y57851D01*
X216588Y57815D01*
X216669Y57782D01*
X216751Y57753D01*
X216835Y57728D01*
X216920Y57707D01*
X217005Y57689D01*
X217092Y57676D01*
X217178Y57666D01*
X217266Y57660D01*
X217353Y57658D01*
X218002Y57658D01*
X222313Y60254D02*
X222313Y62851D01*
X222314Y62851D02*
X222316Y62952D01*
X222322Y63052D01*
X222332Y63152D01*
X222345Y63252D01*
X222363Y63351D01*
X222384Y63450D01*
X222409Y63547D01*
X222438Y63644D01*
X222471Y63739D01*
X222507Y63833D01*
X222547Y63925D01*
X222590Y64016D01*
X222637Y64105D01*
X222687Y64192D01*
X222741Y64278D01*
X222798Y64361D01*
X222858Y64441D01*
X222921Y64520D01*
X222988Y64596D01*
X223057Y64669D01*
X223129Y64739D01*
X223203Y64807D01*
X223280Y64872D01*
X223360Y64933D01*
X223442Y64992D01*
X223526Y65047D01*
X223612Y65099D01*
X223700Y65148D01*
X223790Y65193D01*
X223882Y65235D01*
X223975Y65273D01*
X224070Y65307D01*
X224165Y65338D01*
X224262Y65365D01*
X224360Y65388D01*
X224459Y65408D01*
X224559Y65423D01*
X224659Y65435D01*
X224759Y65443D01*
X224860Y65447D01*
X224960Y65447D01*
X225061Y65443D01*
X225161Y65435D01*
X225261Y65423D01*
X225361Y65408D01*
X225460Y65388D01*
X225558Y65365D01*
X225655Y65338D01*
X225750Y65307D01*
X225845Y65273D01*
X225938Y65235D01*
X226030Y65193D01*
X226120Y65148D01*
X226208Y65099D01*
X226294Y65047D01*
X226378Y64992D01*
X226460Y64933D01*
X226540Y64872D01*
X226617Y64807D01*
X226691Y64739D01*
X226763Y64669D01*
X226832Y64596D01*
X226899Y64520D01*
X226962Y64441D01*
X227022Y64361D01*
X227079Y64278D01*
X227133Y64192D01*
X227183Y64105D01*
X227230Y64016D01*
X227273Y63925D01*
X227313Y63833D01*
X227349Y63739D01*
X227382Y63644D01*
X227411Y63547D01*
X227436Y63450D01*
X227457Y63351D01*
X227475Y63252D01*
X227488Y63152D01*
X227498Y63052D01*
X227504Y62952D01*
X227506Y62851D01*
X227506Y60254D01*
X227504Y60153D01*
X227498Y60053D01*
X227488Y59953D01*
X227475Y59853D01*
X227457Y59754D01*
X227436Y59655D01*
X227411Y59558D01*
X227382Y59461D01*
X227349Y59366D01*
X227313Y59272D01*
X227273Y59180D01*
X227230Y59089D01*
X227183Y59000D01*
X227133Y58913D01*
X227079Y58827D01*
X227022Y58744D01*
X226962Y58664D01*
X226899Y58585D01*
X226832Y58509D01*
X226763Y58436D01*
X226691Y58366D01*
X226617Y58298D01*
X226540Y58233D01*
X226460Y58172D01*
X226378Y58113D01*
X226294Y58058D01*
X226208Y58006D01*
X226120Y57957D01*
X226030Y57912D01*
X225938Y57870D01*
X225845Y57832D01*
X225750Y57798D01*
X225655Y57767D01*
X225558Y57740D01*
X225460Y57717D01*
X225361Y57697D01*
X225261Y57682D01*
X225161Y57670D01*
X225061Y57662D01*
X224960Y57658D01*
X224860Y57658D01*
X224759Y57662D01*
X224659Y57670D01*
X224559Y57682D01*
X224459Y57697D01*
X224360Y57717D01*
X224262Y57740D01*
X224165Y57767D01*
X224070Y57798D01*
X223975Y57832D01*
X223882Y57870D01*
X223790Y57912D01*
X223700Y57957D01*
X223612Y58006D01*
X223526Y58058D01*
X223442Y58113D01*
X223360Y58172D01*
X223280Y58233D01*
X223203Y58298D01*
X223129Y58366D01*
X223057Y58436D01*
X222988Y58509D01*
X222921Y58585D01*
X222858Y58664D01*
X222798Y58744D01*
X222741Y58827D01*
X222687Y58913D01*
X222637Y59000D01*
X222590Y59089D01*
X222547Y59180D01*
X222507Y59272D01*
X222471Y59366D01*
X222438Y59461D01*
X222409Y59558D01*
X222384Y59655D01*
X222363Y59754D01*
X222345Y59853D01*
X222332Y59953D01*
X222322Y60053D01*
X222316Y60153D01*
X222314Y60254D01*
X238428Y57658D02*
X242323Y57658D01*
X242422Y57660D01*
X242522Y57666D01*
X242621Y57675D01*
X242719Y57688D01*
X242817Y57705D01*
X242915Y57726D01*
X243011Y57751D01*
X243106Y57779D01*
X243200Y57811D01*
X243293Y57846D01*
X243385Y57885D01*
X243475Y57928D01*
X243563Y57973D01*
X243650Y58023D01*
X243734Y58075D01*
X243817Y58131D01*
X243897Y58189D01*
X243975Y58251D01*
X244050Y58316D01*
X244123Y58384D01*
X244193Y58454D01*
X244261Y58527D01*
X244326Y58602D01*
X244388Y58680D01*
X244446Y58760D01*
X244502Y58843D01*
X244554Y58927D01*
X244604Y59014D01*
X244649Y59102D01*
X244692Y59192D01*
X244731Y59284D01*
X244766Y59377D01*
X244798Y59471D01*
X244826Y59566D01*
X244851Y59662D01*
X244872Y59760D01*
X244889Y59858D01*
X244902Y59956D01*
X244911Y60055D01*
X244917Y60155D01*
X244919Y60254D01*
X244919Y61553D01*
X244917Y61652D01*
X244911Y61752D01*
X244902Y61851D01*
X244889Y61949D01*
X244872Y62047D01*
X244851Y62145D01*
X244826Y62241D01*
X244798Y62336D01*
X244766Y62430D01*
X244731Y62523D01*
X244692Y62615D01*
X244649Y62705D01*
X244604Y62793D01*
X244554Y62880D01*
X244502Y62964D01*
X244446Y63047D01*
X244388Y63127D01*
X244326Y63205D01*
X244261Y63280D01*
X244193Y63353D01*
X244123Y63423D01*
X244050Y63491D01*
X243975Y63556D01*
X243897Y63618D01*
X243817Y63676D01*
X243734Y63732D01*
X243650Y63784D01*
X243563Y63834D01*
X243475Y63879D01*
X243385Y63922D01*
X243293Y63961D01*
X243200Y63996D01*
X243106Y64028D01*
X243011Y64056D01*
X242915Y64081D01*
X242817Y64102D01*
X242719Y64119D01*
X242621Y64132D01*
X242522Y64141D01*
X242422Y64147D01*
X242323Y64149D01*
X238428Y64149D01*
X238428Y69342D01*
X244919Y69342D01*
X249209Y69342D02*
X253104Y57658D01*
X256999Y69342D01*
D16*
X306100Y186700D02*
X306100Y204700D01*
X306100Y186700D02*
X306100Y67550D01*
X306100Y49550D01*
X403850Y49550D01*
X403850Y204700D01*
X306100Y204700D01*
X330350Y186700D02*
X330350Y67550D01*
X330350Y186700D02*
X306100Y186700D01*
X306100Y67550D02*
X330350Y67550D01*
X100300Y67300D02*
X100300Y49300D01*
X100300Y67300D02*
X100300Y186450D01*
X100300Y204450D01*
X2550Y204450D01*
X2550Y49300D01*
X100300Y49300D01*
X76050Y67300D02*
X76050Y186450D01*
X76050Y67300D02*
X100300Y67300D01*
X100300Y186450D02*
X76050Y186450D01*
X128150Y217190D02*
X128150Y62210D01*
X128150Y217190D02*
X151250Y217190D01*
X151250Y62210D01*
X128150Y62210D01*
D17*
X154051Y76059D02*
X157494Y71755D01*
X154051Y76059D02*
X169545Y76059D01*
X169545Y71755D02*
X169545Y80363D01*
M02*
