G04 EAGLE Gerber RS-274X export*
G75*
%MOMM*%
%FSLAX34Y34*%
%LPD*%
%INSoldermask Top*%
%IPPOS*%
%AMOC8*
5,1,8,0,0,1.08239X$1,22.5*%
G01*
%ADD10C,3.403200*%
%ADD11R,1.461200X1.461200*%
%ADD12C,1.461200*%
%ADD13R,1.203200X1.303200*%
%ADD14R,1.003200X1.003200*%
%ADD15R,2.303200X1.203200*%
%ADD16R,6.053200X5.103200*%
%ADD17C,2.753200*%
%ADD18P,1.852186X8X112.500000*%
%ADD19C,0.959600*%


D10*
X25400Y266700D03*
X381000Y266700D03*
X381000Y12700D03*
X25400Y12700D03*
D11*
X171450Y241300D03*
D12*
X171450Y261300D03*
D13*
X101600Y16900D03*
X101600Y33900D03*
X292100Y245500D03*
X292100Y262500D03*
D11*
X241300Y241300D03*
D12*
X241300Y261300D03*
D11*
X165100Y38100D03*
D12*
X165100Y18100D03*
D13*
X114300Y220100D03*
X114300Y237100D03*
X304800Y33900D03*
X304800Y16900D03*
D11*
X241300Y38100D03*
D12*
X241300Y18100D03*
D14*
X330200Y265000D03*
X330200Y243000D03*
X76200Y217600D03*
X76200Y239600D03*
D15*
X259400Y155000D03*
X259400Y200600D03*
D16*
X191400Y177800D03*
D15*
X259400Y78800D03*
X259400Y124400D03*
D16*
X191400Y101600D03*
D17*
X342850Y67600D02*
X368350Y67600D01*
X368350Y107200D02*
X342850Y107200D01*
X342850Y146800D02*
X368350Y146800D01*
X368350Y186400D02*
X342850Y186400D01*
X63550Y186400D02*
X38050Y186400D01*
X38050Y146800D02*
X63550Y146800D01*
X63550Y107200D02*
X38050Y107200D01*
X38050Y67600D02*
X63550Y67600D01*
D18*
X139700Y76200D03*
X139700Y101600D03*
X139700Y127000D03*
X139700Y152400D03*
X139700Y177800D03*
X139700Y203200D03*
D19*
X317500Y266700D03*
X88900Y241300D03*
X114300Y50800D03*
X330200Y12700D03*
X292100Y114300D03*
M02*
