<?xml version="1.0" encoding="utf-8" ?><!DOCTYPE svg PUBLIC "-//W3C//DTD SVG 1.1//EN" "http://www.w3.org/Graphics/SVG/1.1/DTD/svg11.dtd" 
[ <!ATTLIST svg 
  xmlns:dsy CDATA #FIXED "http://www.3ds.com/print"  
    dsy:text-version CDATA #IMPLIED > 

  <!ATTLIST text 
  xmlns:dsy CDATA #FIXED "http://www.3ds.com/print" 
    dsy:text-version CDATA #IMPLIED > 
]><svg xmlns="http://www.w3.org/2000/svg" xmlns:dsy="http://www.3ds.com/print" dsy:text-version="18000" width="297" height="210" viewBox="0 0 297 210" version="1.1"><g stroke="rgb(0, 0, 0)" stroke-width="0.35" stroke-linecap="butt" stroke-linejoin="miter" fill="none"><path d="M 122.538 159.681 L 119.064 170.777"/><path d="M 126.117 160.802 L 122.52 172.291"/><path d="M 127.8 147.11 L 127.923 147.682 L 128.031 148.191 L 128.135 148.735 L 128.183 149.025 L 128.225 149.313 L 128.263 149.602 L 128.305 149.978 L 128.338 150.356 L 128.362 150.729 L 128.377 151.103 L 128.383 151.472 L 128.38 151.841 L 128.368 152.205 L 128.346 152.568 L 128.323 152.851 L 128.293 153.134 L 128.258 153.413 L 128.216 153.691 L 128.131 154.16 L 128.029 154.617 L 127.971 154.846 L 127.907 155.074 L 127.78 155.488 L 127.166 157.451 L 126.117 160.802"/><path d="M 124.664 132.529 L 127.8 147.11"/><path d="M 121.528 117.947 L 124.664 132.529"/><path d="M 113.505 104.287 L 113.842 104.531 L 114.175 104.785 L 114.503 105.05 L 114.827 105.325 L 115.259 105.715 L 115.682 106.122 L 116.094 106.547 L 116.496 106.987 L 116.835 107.381 L 117.165 107.786 L 117.485 108.202 L 117.796 108.627 L 118.097 109.062 L 118.387 109.505 L 118.666 109.957 L 118.935 110.416 L 119.191 110.882 L 119.437 111.355 L 119.669 111.833 L 119.89 112.317 L 120.098 112.805 L 120.292 113.297 L 120.474 113.792 L 120.642 114.291 L 120.796 114.791 L 120.936 115.293 L 121.051 115.75 L 121.141 116.148 L 121.332 117.035 L 121.528 117.947"/><path d="M 101.463 99.9099 L 109.154 102.263 L 109.66 102.417 L 110.032 102.532 L 110.217 102.592 L 110.519 102.699 L 110.818 102.814 L 111.118 102.939 L 111.415 103.072 L 111.683 103.201 L 111.948 103.336 L 112.213 103.478 L 112.474 103.627 L 112.736 103.783 L 112.994 103.944 L 113.251 104.113 L 113.505 104.287"/><path d="M 89.2222 97.1199 L 89.4192 97.0877 L 89.6169 97.0607 L 89.8161 97.0386 L 90.0157 97.0216 L 90.2167 97.0096 L 90.4178 97.0025 L 90.8225 97.0032 L 91.0403 97.0115 L 91.2578 97.0254 L 91.4763 97.0447 L 91.6943 97.0695 L 91.9132 97.0996 L 92.1314 97.135 L 92.3503 97.1758 L 92.5681 97.2215 L 92.8931 97.2993 L 93.2154 97.3879 L 93.5057 97.4756 L 96.1756 98.2924 L 101.463 99.9099"/><path d="M 89.2222 97.1199 A 12.7617 9.55991 -297.795 0 0 87.0655 97.8579"/><path d="M 86.3232 108.06 L 86.415 106.183 L 86.4321 105.857 L 86.4708 105.409 L 86.5133 105.079 L 86.5672 104.757 L 86.608 104.552 L 86.6532 104.353 L 86.7028 104.159 L 86.7564 103.971 L 86.814 103.788 L 86.8755 103.61 L 86.9406 103.438 L 87.0692 103.137 L 87.2087 102.856 L 87.307 102.68 L 87.4648 102.428 L 87.5785 102.266 L 87.6961 102.114 L 87.8795 101.902 L 87.9967 101.781 L 88.1168 101.668 L 88.2397 101.561 L 88.3653 101.462 L 88.4765 101.382 L 88.5898 101.307 L 88.7053 101.236 L 88.8234 101.17"/><path d="M 85.6661 121.481 L 86.3232 108.06"/><path d="M 85.1044 132.953 L 85.6661 121.481"/><path d="M 88.9399 148.175 L 86.8911 143.167 L 86.3749 141.906 L 86.1373 141.325 L 86.005 140.994 L 85.8449 140.565 L 85.7536 140.302 L 85.6601 140.017 L 85.5718 139.73 L 85.4887 139.441 L 85.4113 139.149 L 85.301 138.689 L 85.2112 138.256 L 85.1358 137.826 L 85.0749 137.4"/><path d="M 94.8046 162.509 L 92.7606 157.513"/><path d="M 91.3816 154.143 L 89.7538 150.164 L 89.4825 149.501 L 89.2112 148.838 L 88.9382 148.177"/><path d="M 124.134 147.899 L 124.305 148.695 L 124.374 149.024 L 124.454 149.456"/><path d="M 124.578 152.613 L 124.525 153.02 L 124.467 153.358 L 124.398 153.677 L 124.32 153.979 L 124.221 154.306 L 123.749 155.813 L 122.993 158.226 L 122.842 158.711 L 122.69 159.196 L 122.539 159.692"/><path d="M 120.998 133.317 L 123.48 144.861 L 123.872 146.684 L 124.134 147.896"/><path d="M 118.209 120.349 L 120.467 130.847 L 120.732 132.082 L 120.998 133.315"/><path d="M 111.35 107.357 L 111.62 107.552 L 111.889 107.759 L 112.157 107.976 L 112.431 108.212 L 112.801 108.551 L 113.153 108.897 L 113.502 109.266 L 113.815 109.619 L 114.102 109.961 L 114.381 110.314"/><path d="M 100.366 103.496 L 107.096 105.555 L 108.057 105.849 L 108.564 106.004 L 108.869 106.097 L 109.223 106.218 L 109.423 106.295 L 109.629 106.381 L 109.833 106.472 L 110.022 106.563 L 110.209 106.658 L 110.399 106.761 L 110.588 106.867 L 110.969 107.101 L 111.35 107.356"/><path d="M 89.8747 100.813 L 90.0775 100.782 L 90.287 100.762 L 90.5034 100.752 L 90.7265 100.752 L 90.973 100.765 L 91.2269 100.79 L 91.4881 100.829 L 91.7562 100.883 L 91.9563 100.93 L 92.1602 100.986 L 92.4053 101.061 L 93.6364 101.437 L 97.9626 102.761 L 98.924 103.055 L 99.4047 103.202 L 99.8854 103.349 L 100.358 103.489"/><path d="M 88.8234 101.17 L 89.0131 101.077 L 89.2091 100.995 L 89.4077 100.926 L 89.6032 100.871 L 89.67 100.855 L 89.7374 100.84 L 89.8367 100.816 L 89.868 100.808"/><path d="M 84.5018 100.121 L 84.7282 99.8207 L 84.9673 99.5327 L 85.0916 99.3934 L 85.2883 99.1866 L 85.5417 98.9407 L 85.7991 98.7137 L 86.0704 98.4961 L 86.3108 98.3202 L 86.5562 98.1557 L 86.808 98.0014 L 87.0655 97.8579"/><path d="M 81.9206 121.298 L 82.2485 114.6"/><path d="M 81.2635 134.719 L 81.811 123.535 L 81.8932 121.857 L 81.9207 121.3"/><path d="M 90.7257 162.443 L 88.4403 156.857"/><path d="M 87.0612 153.486 L 85.4692 149.595"/><path d="M 85.4709 149.593 L 85.2104 148.962 L 84.9515 148.33 L 84.175 146.432 L 83.1396 143.901 L 82.878 143.262 L 82.6332 142.663 L 82.5163 142.369 L 82.4033 142.073 L 82.2823 141.739 L 82.1675 141.403 L 82.0537 141.05 L 81.9466 140.695 L 81.8454 140.334 L 81.7509 139.971"/><path d="M 81.2253 135.953 L 81.2295 135.498 L 81.2443 135.106 L 81.2636 134.722"/><path d="M 149.58 76.6088 L 199.029 91.7361"/><path d="M 148.483 80.1947 L 199.524 95.8092"/><path d="M 30.4531 139.934 A 1.75 0.994576 -126.046 0 0 29.7222 139.988"/><path d="M 29.7222 139.988 A 1.75 0.994576 -126.046 0 0 29.4858 141"/><path d="M 29.4858 141 A 1.75 0.994576 -126.046 0 0 29.4863 141.002"/><path d="M 30.3146 140.048 A 1.5625 0.888016 -126.046 0 0 29.8325 140.14"/><path d="M 29.8325 140.14 A 1.5625 0.888016 -126.046 0 0 29.5855 140.714"/><path d="M 84.9858 99.7687 L 29.7222 139.988"/><path d="M 87.0454 102.599 L 34.6005 140.767"/><path d="M 65.2296 151.936 A 1.75 1.03703 -127.714 0 0 62.8462 150.165"/><path d="M 65.089 151.894 A 1.5625 0.925911 -127.714 0 0 63.6526 150.238"/><path d="M 115.779 109.233 L 62.8462 150.165"/><path d="M 117.92 112.001 L 65.6675 152.408"/><path d="M 62.7366 151.991 A 1.75 0.579994 -179.872 0 0 65.6694 151.57"/><path d="M 62.6418 194.448 A 1.75 0.579994 -179.872 0 0 65.5745 194.026"/><path d="M 64.7549 151.13 A 1.5625 0.517853 -179.872 0 0 63.0118 151.143"/><path d="M 62.8633 151.945 A 1.5625 0.517853 -179.872 0 0 65.4819 151.569"/><path d="M 65.6694 151.57 L 65.5745 194.026"/><path d="M 62.1694 151.562 L 62.0745 194.019"/><path d="M 29.0037 141.416 A 1.75 0.579994 -179.872 0 0 29.5709 141.845"/><path d="M 29.4822 141.019 A 1.75 0.579994 -179.872 0 0 29.0037 141.416"/><path d="M 28.9088 183.873 A 1.75 0.579994 -179.872 0 0 29.4761 184.302"/><path d="M 29.1912 141.416 A 1.5625 0.517853 -179.872 0 0 29.5727 141.757"/><path d="M 29.7066 141.033 A 1.5625 0.517853 -179.872 0 0 29.1912 141.416"/><path d="M 32.4902 147.47 L 32.4117 182.583"/><path d="M 29.0037 141.416 L 28.9088 183.873"/><path d="M 29.4761 184.302 A 1.75 1.11503 -252.99 0 0 30.1469 185.55"/><path d="M 62.6418 194.448 A 1.75 1.11503 -252.99 0 0 63.3126 195.696"/><path d="M 63.3126 195.696 A 1.75 1.11503 -252.99 0 0 64.0802 195.54"/><path d="M 62.7699 194.483 A 1.5625 0.99556 -252.99 0 0 63.3675 195.517"/><path d="M 63.3675 195.517 A 1.5625 0.99556 -252.99 0 0 64.7006 194.526"/><path d="M 31.1707 182.203 L 59.8407 190.974"/><path d="M 30.1469 185.55 L 63.3126 195.696"/><path d="M 31.2656 139.746 A 1.75 1.11503 -252.99 0 0 29.5709 141.845"/><path d="M 64.4313 149.892 A 1.75 1.11503 -252.99 0 0 62.7366 151.991"/><path d="M 64.3764 150.072 A 1.5625 0.99556 -252.99 0 0 62.8633 151.945"/><path d="M 31.2656 139.746 L 63.5482 149.622"/><path d="M 30.2418 143.093 L 62.1665 152.86"/><path d="M 88.2076 101.588 L 98.4089 122.665"/><path d="M 99.9671 125.884 L 101.204 128.44"/><path d="M 86.4272 105.943 L 95.5794 124.853"/><path d="M 95.5821 129.275 L 97.3022 128.412"/><path d="M 100.431 126.843 L 115.106 119.481"/><path d="M 123.569 115.236 L 140.426 106.779"/><path d="M 85.2358 138.381 L 100.899 130.524"/><path d="M 101.11 130.418 L 114.999 123.45"/><path d="M 118.168 121.86 L 118.498 121.695"/><path d="M 121.96 119.958 L 122.795 119.54"/><path d="M 126.055 117.904 L 137.87 111.977"/><path d="M 97.1695 132.395 L 92.9726 154.385"/><path d="M 101.281 129.523 L 96.4353 154.911"/><path d="M 95.8491 157.983 L 95.0936 161.941"/><path d="M 104.183 128.876 L 114.759 132.389"/><path d="M 117.857 133.418 L 121.263 134.55"/><path d="M 125.394 135.922 L 143.723 142.01"/><path d="M 100.908 131.476 L 114.66 136.044"/><path d="M 117.758 137.074 L 122.117 138.521"/><path d="M 126.248 139.893 L 138.516 143.969"/><path d="M 118.692 109.999 L 149.25 142.809"/><path d="M 121.593 118.249 L 144.793 143.158"/><path d="M 128.066 148.362 L 148.302 142.066"/><path d="M 148.501 142.004 L 201.988 125.364"/><path d="M 128.378 151.93 L 203.711 128.493"/><path d="M 196.267 160.614 A 1.75 1.3157 -251.718 0 0 196.548 160.04"/><path d="M 153.709 144.05 L 195.847 157.971"/><path d="M 148.423 145.989 L 194.749 161.294"/><path d="M 141.78 147.761 L 124.774 165.089"/><path d="M 149.191 145.206 L 122.442 172.463"/><path d="M 95.3595 160.548 L 99.5834 158.925"/><path d="M 124.018 149.538 L 124.44 149.376"/><path d="M 103.926 161.006 L 124.513 153.097"/><path d="M 121.033 173.467 A 1.75 1.04759 -279.225 0 0 121.628 172.962"/><path d="M 120.747 173.45 A 1.75 1.04759 -279.225 0 0 121.033 173.467"/><path d="M 195.574 161.361 A 1.75 1.04759 -279.225 0 0 196.267 160.614"/><path d="M 125.676 169.167 L 187.961 159.052"/><path d="M 121.033 173.467 L 195.574 161.361"/><path d="M 190.233 19.1124 A 1.75 1.0255 -214.037 0 0 190.656 17.6613"/><path d="M 227.932 74.9261 A 1.75 1.0255 -214.037 0 0 228.354 73.4751"/><path d="M 190.123 19.0618 A 1.5625 0.915627 -214.037 0 0 190.5 17.7663"/><path d="M 190.656 17.6613 L 228.354 73.4751"/><path d="M 194.545 29.6723 L 224.996 74.7562"/><path d="M 175.808 14.6586 L 194.574 55.1116"/><path d="M 173.511 18.0254 L 195.846 66.1689"/><path d="M 62.8462 194.933 A 1.75 0.378326 -212.157 0 0 63.0497 194.857"/><path d="M 62.8279 194.872 A 1.5625 0.337791 -212.157 0 0 63.0204 194.811"/><path d="M 34.7375 144.469 L 62.088 187.972"/><path d="M 29.2721 142.351 L 62.343 194.954"/><path d="M 56.7033 145.447 L 55.4636 147.149"/><path d="M 53.2835 150.142 L 45.244 161.18"/><path d="M 43.025 164.227 L 32.4202 178.787"/><path d="M 56.4451 151.109 L 47.035 164.029"/><path d="M 44.8161 167.076 L 33.3192 182.86"/><path d="M 61.1278 143.968 L 61.7679 149.078"/><path d="M 58.9697 151.882 L 61.5285 172.31"/><path d="M 59.3614 142.561 L 69.9511 137.502"/><path d="M 61.2711 145.112 L 71.2983 140.321"/><path d="M 30.1547 140.036 A 1.5625 1.31931 -84.5586 0 0 29.4624 141.11"/><path d="M 29.4624 141.11 A 1.5625 1.31931 -84.5586 0 0 29.4464 141.701"/><path d="M 30.0782 140.312 A 1.375 1.161 -84.5586 0 0 29.591 141.54"/><path d="M 59.7281 142.596 L 35.2861 140.268"/><path d="M 59.4319 145.707 L 46.8234 144.506"/><path d="M 69.3847 137.772 L 82.4025 105.978"/><path d="M 72.0511 139.507 L 87.3367 102.174"/><path d="M 81.0385 136.097 L 73.0644 137.032"/><path d="M 76.2423 139.806 L 71.1192 140.407"/><path d="M 34.7161 180.943 L 50.3663 175.904"/><path d="M 53.8046 174.797 L 62.1234 172.118"/><path d="M 36.2098 183.745 L 52.0828 178.634"/><path d="M 55.5211 177.527 L 62.1161 175.404"/><path d="M 65.6261 170.943 L 92.613 161.803"/><path d="M 71.6608 172.199 L 92.3394 165.195"/><path d="M 62.8636 151.923 A 1.5625 1.05361 -81.3563 0 0 62.8658 151.946"/><path d="M 64.9097 151.968 A 1.5625 1.05361 -81.3563 0 0 64.9142 151.952"/><path d="M 63.7194 150.26 A 1.375 0.927177 -81.3563 0 0 63.0031 151.984"/><path d="M 64.7661 152.003 A 1.375 0.927177 -81.3563 0 0 64.7953 151.903"/><path d="M 64.7953 151.903 A 1.375 0.927177 -81.3563 0 0 64.8611 151.303"/><path d="M 103.618 156.003 L 68.017 150.591"/><path d="M 103.149 159.092 L 65.6653 153.394"/><path d="M 63.7055 194.601 A 1.375 0.510979 -132.667 0 0 64.6724 195.064"/><path d="M 64.8309 194.765 A 1.375 0.510979 -132.667 0 0 64.7677 194.513"/><path d="M 99.9324 158.604 L 65.5829 190.264"/><path d="M 104.442 158.697 L 64.8874 195.155"/><path d="M 116.335 154.177 A 1.5625 1.00465 -291.423 0 0 116.859 153.094"/><path d="M 104.39 157.981 A 1.375 0.884094 -291.423 0 0 104.389 157.893"/><path d="M 103.263 155.949 L 115.194 151.267"/><path d="M 104.662 158.757 L 116.335 154.177"/><path d="M 116.822 153.523 A 1.5625 1.22032 -100.771 0 0 116.943 153.032"/><path d="M 126.164 149.13 L 117.389 150.8"/><path d="M 126.748 152.2 L 116.314 154.185"/><path d="M 117.333 152.753 A 1.5625 0.0612183 -358.457 0 0 116.806 152.697"/><path d="M 114.24 151.642 L 115.252 114.065"/><path d="M 117.336 152.757 L 118.47 110.668"/><path d="M 64.3882 195.496 A 1.5625 1.11555 -289.284 0 0 65.042 194.442"/><path d="M 62.8636 194.505 A 1.5625 1.11555 -289.284 0 0 64.3882 195.496"/><path d="M 95.5843 184.581 A 1.5625 1.11555 -289.284 0 0 96.2407 183.451"/><path d="M 64.3263 195.319 A 1.375 0.981682 -289.284 0 0 64.8937 194.484"/><path d="M 63.0246 194.537 A 1.375 0.981682 -289.284 0 0 64.3263 195.319"/><path d="M 70.3862 190.086 L 94.5522 181.631"/><path d="M 64.3882 195.496 L 95.5843 184.581"/><path d="M 95.7016 184.534 A 1.5625 1.1423 -293.874 0 0 96.2902 183.431"/><path d="M 95.6415 184.558 A 1.5625 1.1423 -293.874 0 0 95.7016 184.534"/><path d="M 97.623 180.267 L 120.123 170.308"/><path d="M 95.7016 184.534 L 121.388 173.166"/><path d="M 100.077 162.72 L 93.8026 181.893"/><path d="M 104.899 158.032 L 96.5403 183.575"/><path d="M 225.087 74.5556 L 205.877 116.976"/><path d="M 228.278 75.0856 L 205.804 124.711"/><path d="M 195.319 65.0339 L 171.469 83.3049"/><path d="M 167.811 86.1073 L 143.449 104.77"/><path d="M 196.18 68.3111 L 175.141 84.4283"/><path d="M 171.483 87.2307 L 145.049 107.481"/><path d="M 231.351 148.299 A 1.5625 0.0497818 -337.499 0 0 231.647 148.389"/><path d="M 243.682 118.53 A 1.5625 0.0497818 -337.499 0 0 243.978 118.621"/><path d="M 243.703 118.525 A 1.375 0.043808 -337.499 0 0 243.805 118.549"/><path d="M 229.031 146.539 L 238.513 123.649"/><path d="M 231.647 148.389 L 243.978 118.621"/><path d="M 243.682 118.53 A 1.5625 0.761993 -311.372 0 0 243.641 118.391"/><path d="M 195.097 157.723 L 236.952 120.859"/><path d="M 196.327 160.804 L 243.571 119.194"/><path d="M 149.513 140.229 L 178.115 130.528"/><path d="M 188 101.253 A 1.5625 0.137413 -345.826 0 0 187.824 101.139"/><path d="M 177.314 130.799 L 178.898 124.528"/><path d="M 179.358 122.708 L 181.62 113.752"/><path d="M 182.556 110.047 L 183.247 107.307"/><path d="M 180.831 129.638 L 181.89 125.443"/><path d="M 182.35 123.623 L 184.748 114.127"/><path d="M 185.262 112.093 L 186.239 108.222"/><path d="M 186.699 106.402 L 187.015 105.151"/><path d="M 147.595 105.53 L 169.182 102.066"/><path d="M 171.214 101.74 L 185.429 99.4583"/><path d="M 150.837 108.175 L 172.398 104.715"/><path d="M 143.428 141.912 L 143.533 141.806"/><path d="M 147.407 137.914 L 164.972 120.268"/><path d="M 166.468 118.764 L 172.54 112.664"/><path d="M 174.219 110.977 L 176.993 108.19"/><path d="M 178.328 106.849 L 179.127 106.046"/><path d="M 148.136 141.612 L 168.352 121.302"/><path d="M 169.848 119.798 L 176.479 113.136"/><path d="M 178.158 111.449 L 179.508 110.093"/><path d="M 180.843 108.751 L 182.507 107.08"/><path d="M 243.676 117.717 A 1.5625 0.174477 -19.7381 0 0 244.003 117.477"/><path d="M 244.003 117.477 L 228.435 74.0881"/><path d="M 240.376 116.621 L 226.713 78.541"/><path d="M 222.837 71.5588 L 199.484 64.4146"/><path d="M 224.705 75.3984 L 199.896 67.8089"/><path d="M 185.223 99.4915 L 187.496 92.1295"/><path d="M 188.603 88.5465 L 194.442 69.6427"/><path d="M 187.963 101.209 L 190.485 93.0437"/><path d="M 191.591 89.4607 L 196.729 72.8263"/><path d="M 196.179 160.836 A 1.5625 1.09464 -288.735 0 0 196.387 160.417"/><path d="M 230.71 149.27 A 1.5625 1.09464 -288.735 0 0 231.36 148.142"/><path d="M 202.186 155.644 L 229.706 146.31"/><path d="M 196.074 161.017 L 230.71 149.27"/><path d="M 243.693 118.576 A 1.5625 1.19715 -282.605 0 0 243.727 118.344"/><path d="M 205.849 124.612 L 234.636 118.175"/><path d="M 204.776 128.055 L 242.857 119.539"/><path d="M 65.6219 172.808 L 79.8119 177.149"/><path d="M 83.2738 178.208 L 93.9408 181.471"/><path d="M 65.6161 175.42 L 77.6822 179.112"/><path d="M 81.1442 180.171 L 90.5245 183.04"/><path d="M 186.788 158.664 L 134.137 160.546"/><path d="M 129.055 160.727 L 126.107 160.833"/><path d="M 122.133 160.975 L 103.721 161.633"/><path d="M 96.3606 161.896 L 94.5796 161.959"/><path d="M 171.601 161.708 L 131.593 163.138"/><path d="M 125.978 163.339 L 125.315 163.363"/><path d="M 121.341 163.505 L 102.893 164.164"/><path d="M 137.772 149.008 L 128.099 160.761"/><path d="M 127.94 160.955 L 124.92 164.625"/><path d="M 93.9707 162.254 L 95.4731 162.714"/><path d="M 98.935 163.773 L 99.66 163.994"/><path d="M 102.649 164.909 L 119.306 170.004"/><path d="M 96.8054 165.736 L 98.8823 166.371"/><path d="M 101.871 167.285 L 113.97 170.986"/><path d="M 229.118 146.329 L 230.363 134.446"/><path d="M 232.483 138.205 L 232.829 134.909"/><path d="M 230.502 133.895 L 235.549 126.259"/><path d="M 232.605 135.248 L 235.561 130.775"/><path d="M 262.467 125.153 A 1.25 0.873047 -289.207 0 0 262.977 124.255"/><path d="M 234.613 132.209 L 235.027 132.065"/><path d="M 238.98 130.688 L 261.49 122.846"/><path d="M 232.767 135.5 L 233.745 135.159"/><path d="M 237.698 133.782 L 262.467 125.153"/><path d="M 227.427 112.089 L 240.146 115.98"/><path d="M 246.452 117.909 L 261.479 122.506"/><path d="M 227.114 114.608 L 235.173 117.073"/><path d="M 243.557 119.638 L 258.008 124.059"/><path d="M 273.19 107.012 A 1.25 0.806328 -148.36 0 0 273.158 106.973"/><path d="M 273.378 107.961 A 1.25 0.806328 -148.36 0 0 273.19 107.012"/><path d="M 262.828 124.845 A 1.25 0.806328 -148.36 0 0 263.118 124.611"/><path d="M 273.218 107.862 A 1.0625 0.685379 -148.36 0 0 273.116 107.132"/><path d="M 273.125 107.97 A 1.0625 0.685379 -148.36 0 0 273.218 107.862"/><path d="M 269.391 109.664 L 261.209 122.944"/><path d="M 273.378 107.961 L 263.118 124.611"/><path d="M 272.682 108.482 A 1.25 0.869789 -109.769 0 0 273.057 106.957"/><path d="M 271.836 106.129 L 244.187 116.067"/><path d="M 272.682 108.482 L 243.892 118.829"/><path d="M 273.157 106.971 A 1.25 0.796448 -72.9902 0 0 273.123 106.68"/><path d="M 258.416 101.746 L 247.476 98.3996"/><path d="M 245.07 97.6636 L 235.886 94.854"/><path d="M 232.156 93.7131 L 223.078 90.9358"/><path d="M 217.398 89.1983 L 217.095 89.1055"/><path d="M 272.639 107.699 A 1.25 0.529228 -53.7585 0 0 273.015 106.294"/><path d="M 248.625 89.0058 A 1.25 0.529228 -53.7585 0 0 248.571 88.3763"/><path d="M 248.571 88.3763 A 1.25 0.529228 -53.7585 0 0 248.515 88.3463"/><path d="M 273.015 106.294 L 248.571 88.3763"/><path d="M 269.639 106.919 L 248.741 91.6009"/><path d="M 242.277 112.667 L 246.5 89.9799"/><path d="M 243.952 117.334 L 249.109 89.6278"/><path d="M 233.891 83.804 L 231.678 83.1272"/><path d="M 227.949 81.9863 L 225.493 81.2349"/><path d="M 222.48 80.3132 L 215.247 78.1006"/><path d="M 211.666 77.0049 L 211.57 76.9757"/><path d="M 246.448 90.2599 L 232.732 86.0639"/><path d="M 229.003 84.923 L 224.453 83.5312"/><path d="M 221.44 82.6094 L 210.652 79.3092"/><path d="M 211.614 77.0168 L 203.339 69.2852"/><path d="M 210.107 79.0299 L 200.127 69.7058"/><path d="M 248.547 88.3687 L 228.447 74.0309"/><path d="M 246.669 90.1 L 229.884 78.1269"/><path d="M 189.444 96.4145 L 192.436 93.6407"/><path d="M 195.617 90.6922 L 198.569 87.9559"/><path d="M 201.964 84.8091 L 209.157 78.1422"/><path d="M 187.99 101.171 L 195.201 94.4865"/><path d="M 198.382 91.5381 L 198.942 91.0193"/><path d="M 202.337 87.8725 L 211.346 79.5216"/><path d="M 214.512 89.4345 L 203.029 93.5619"/><path d="M 198.04 95.3549 L 191.873 97.5715"/><path d="M 216.552 91.3578 L 203.338 96.1072"/><path d="M 199.719 97.4081 L 188.162 101.562"/><path d="M 217.138 89.2046 L 213.236 80.2299"/><path d="M 215.045 90.6602 L 210.53 80.2777"/><path d="M 219.55 94.357 L 227.958 112.251"/><path d="M 215.548 91.7186 L 216.448 93.6327"/><path d="M 218.195 97.3506 L 225.348 112.575"/><path d="M 198.339 121.984 L 202.466 120.546"/><path d="M 208.669 118.386 L 211.644 117.35"/><path d="M 216.712 115.584 L 226.703 112.103"/><path d="M 200.735 123.797 L 202.27 123.262"/><path d="M 207.245 121.529 L 214.357 119.052"/><path d="M 220.205 117.014 L 227.413 114.503"/><path d="M 196.606 120.674 L 194.215 115.261"/><path d="M 193.334 113.267 L 191.865 109.943"/><path d="M 190.864 107.676 L 187.981 101.151"/><path d="M 195.014 123.257 L 194.061 121.1"/><path d="M 192.501 117.569 L 191.329 114.915"/><path d="M 190.448 112.921 L 188.705 108.976"/><path d="M 178.755 130.572 L 186.809 126.948"/><path d="M 189.403 125.781 L 196.121 122.758"/><path d="M 183.954 130.974 L 190.436 128.058"/><path d="M 193.03 126.89 L 196.732 125.225"/><path d="M 231.026 133.102 L 228.617 132.365"/><path d="M 225.108 131.291 L 210.41 126.795"/><path d="M 202.058 124.24 L 200.82 123.861"/><path d="M 230.255 135.48 L 226.414 134.305"/><path d="M 222.905 133.232 L 205.473 127.899"/><path d="M 199.607 126.104 L 196.263 125.081"/><path d="M 65.6229 172.372 L 85.6161 171.799"/><path d="M 100.534 171.371 L 118.911 170.845"/><path d="M 69.9257 174.124 L 83.5156 173.735"/><path d="M 88.2745 173.599 L 93.1531 173.459"/><path d="M 95.0319 173.405 L 96.5951 173.36"/><path d="M 99.9143 173.265 L 114.379 172.85"/><path d="M 94.4871 167.872 L 94.8477 171.534"/><path d="M 94.8661 171.721 L 95.3901 177.042"/><path d="M 92.2053 163.833 L 92.3761 165.568"/><path d="M 92.7598 169.464 L 92.9689 171.588"/><path d="M 92.9874 171.775 L 93.9418 181.468"/><path d="M 136.908 109.722 L 195.072 127.515"/><path d="M 136.359 111.515 L 191.895 128.504"/><path d="M 219.751 116.605 A 0.9375 0.412834 -227.994 0 0 219.497 116.564"/><path d="M 219.751 116.605 L 224.108 120.529"/><path d="M 219.01 118.461 L 221.864 121.031"/><path d="M 219.398 116.405 A 0.9375 0.597336 -72.9902 0 0 219.14 116.412"/><path d="M 219.605 116.552 A 0.9375 0.597336 -72.9902 0 0 219.398 116.405"/><path d="M 171.492 101.75 A 0.9375 0.597336 -72.9902 0 0 171.234 101.757"/><path d="M 219.398 116.405 L 210.762 113.763"/><path d="M 207.749 112.842 L 205.282 112.087"/><path d="M 201.358 110.887 L 171.492 101.75"/><path d="M 206.969 114.564 L 205.53 114.123"/><path d="M 201.606 112.923 L 176.003 105.091"/><path d="M 142.873 107.221 L 201.771 114.278"/><path d="M 205.604 114.738 L 206.824 114.884"/><path d="M 210.078 115.274 L 219.235 116.371"/><path d="M 145.493 109.423 L 184.859 114.14"/><path d="M 188.553 114.583 L 202.004 116.195"/><path d="M 205.837 116.654 L 206.013 116.675"/><path d="M 209.267 117.065 L 216.28 117.905"/><path d="M 201.928 124.699 L 171.783 101.899"/><path d="M 200.366 125.868 L 184.563 113.916"/><path d="M 181.893 111.896 L 170.778 103.489"/><path d="M 219.497 116.564 A 0.9375 0.792877 -300.801 0 0 219.139 116.412"/><path d="M 206.152 123.943 L 218.643 116.496"/><path d="M 210.396 123.596 L 219.604 118.107"/><path d="M 171.233 101.757 A 0.9375 0.479065 -280.374 0 0 171.049 101.724"/><path d="M 146.76 106.17 L 171.049 101.724"/><path d="M 148.048 107.841 L 170.981 103.643"/><path d="M 171.255 101.751 A 0.9375 0.671631 -105.93 0 0 171.17 101.732"/><path d="M 171.025 103.676 L 166.158 105.065"/><path d="M 213.101 71.8485 L 219.928 75.0926"/><path d="M 222.651 76.3868 L 223.973 77.0151"/><path d="M 230.618 80.1729 L 237.011 83.2111"/><path d="M 200.839 68.0973 L 223.2 78.7234"/><path d="M 226.023 80.0649 L 227.514 80.7736"/><path d="M 231.516 82.6756 L 245.729 89.4299"/><path d="M 216.99 75.7726 L 210.781 77.2097"/><path d="M 224.446 75.9715 L 220.007 76.9988"/><path d="M 219.714 77.0668 L 211.204 79.0364"/><path d="M 221.936 89.088 L 230.423 88.8819"/><path d="M 221.078 90.9844 L 231.09 90.7412"/><path d="M 234.382 90.6612 L 235.103 90.6437"/><path d="M 262.222 101.482 L 248.15 94.7804"/><path d="M 245.814 93.668 L 239.252 90.5429"/><path d="M 269.433 106.993 L 247.795 96.6881"/><path d="M 245.459 95.5757 L 234.901 90.5475"/><path d="M 224.664 83.5959 L 229.322 85.8142"/><path d="M 233.327 87.7212 L 235.505 88.7584"/><path d="M 241.096 88.6226 L 235.281 88.7638"/><path d="M 246.428 90.3686 L 235.326 90.6383"/><path d="M 196.127 130.853 A 1.75 1.25556 -113.497 0 0 197.456 131.206"/><path d="M 200.191 130.018 L 197.456 131.206"/><path d="M 147.217 114.836 A 1.75 0.674225 -223.629 0 0 146.906 115.977"/><path d="M 146.906 115.977 A 1.75 0.674225 -223.629 0 0 147.12 116.07"/><path d="M 145.242 114.232 L 146.906 115.977"/><path d="M 143.664 107.504 L 149.347 113.465"/><path d="M 229.535 119.11 A 1.5625 1.01271 -75.3165 0 0 229.55 119.312"/><path d="M 230.987 117.219 A 1.5625 1.01271 -75.3165 0 0 229.535 119.11"/><path d="M 234.997 118.27 L 230.987 117.219"/><path d="M 242.364 116.448 L 231.318 117.408"/><path d="M 182.375 102.699 A 1.3125 0.833023 -250.271 0 0 181.032 104.249"/><path d="M 181.032 104.249 A 1.3125 0.833023 -250.271 0 0 181.084 104.684"/><path d="M 182.459 102.464 A 1.5625 0.991692 -250.271 0 0 180.877 104.621"/><path d="M 182.842 102.804 A 1.5625 0.991692 -250.271 0 0 182.459 102.464"/><path d="M 177.953 100.848 L 182.459 102.464"/><path d="M 201.875 124.867 A 1.875 0.767487 -341.924 0 0 203.019 126.076"/><path d="M 203.019 126.076 A 1.875 0.767487 -341.924 0 0 205.423 126.072"/><path d="M 191.533 156.545 L 200.347 129.54"/><path d="M 201.678 125.46 L 201.858 124.909"/><path d="M 195.093 157.722 L 205.408 126.118"/><path d="M 201.861 124.911 A 1.875 0.767487 -341.924 0 0 204.929 126.396"/><path d="M 202.409 119.123 A 1.875 0.113266 -6.93483 0 0 205.594 118.788"/><path d="M 204.929 126.396 A 1.875 0.767487 -341.924 0 0 205.426 126.075"/><path d="M 205.594 118.788 A 1.875 0.113266 -6.93483 0 0 206.08 118.645"/><path d="M 202.362 119.11 L 202.404 119.504 L 202.436 119.898 L 202.458 120.291 L 202.469 120.683 L 202.47 121.073 L 202.46 121.46 L 202.439 121.844 L 202.409 122.225 L 202.368 122.601 L 202.317 122.973 L 202.256 123.339 L 202.166 123.789 L 202.088 124.119 L 202.003 124.441 L 201.911 124.756 L 201.861 124.911"/><path d="M 205.426 126.075 A 14.3635 10.8522 -281.105 0 0 206.084 118.651"/><path d="M 202.51 119.13 A 1.875 0.113266 -6.93483 0 0 206.08 118.651"/><path d="M 192.329 35.4244 A 1.875 0.113266 -6.93483 0 0 195.885 34.934"/><path d="M 202.358 119.104 A 1.875 0.113266 -6.93483 0 0 202.51 119.13"/><path d="M 206.08 118.651 L 195.899 34.9457"/><path d="M 202.358 119.104 L 192.178 35.4111"/><path d="M 192.421 35.4252 A 1.875 0.113266 -6.93483 0 0 195.886 34.9465"/><path d="M 195.067 31.2906 A 1.875 0.232346 -18.3411 0 0 191.716 32.2776"/><path d="M 192.163 35.3993 A 1.875 0.113266 -6.93483 0 0 192.421 35.4252"/><path d="M 191.716 32.2776 A 1.875 0.232346 -18.3411 0 0 191.508 32.4707"/><path d="M 195.886 34.9466 A 18.8893 18.8893 0 0 0 195.067 31.2906"/><path d="M 192.163 35.3994 A 15.1394 15.1394 0 0 0 191.508 32.4706"/><path d="M 195.076 31.3154 A 1.875 0.232346 -18.3411 0 0 191.787 32.239"/><path d="M 190.257 18.9118 A 1.875 0.232346 -18.3411 0 0 187.67 19.8208"/><path d="M 187.67 19.8208 A 1.875 0.232346 -18.3411 0 0 187.403 20.0469"/><path d="M 195.079 31.285 L 190.963 18.8668"/><path d="M 191.512 32.4402 L 187.403 20.0469"/><path d="M 190.257 18.9118 A 1.875 0.232346 -18.3411 0 0 187.781 19.7627"/><path d="M 171.886 13.63 A 1.875 1.01358 -147.147 0 0 172.346 15.0409"/><path d="M 187.781 19.7627 A 1.875 0.232346 -18.3411 0 0 187.403 20.0469"/><path d="M 172.346 15.0409 A 1.875 1.01358 -147.147 0 0 175.036 15.6643"/><path d="M 171.886 13.63 L 172.043 13.3931 L 172.205 13.1609 L 172.372 12.9336 L 172.543 12.7114 L 172.72 12.495 L 172.899 12.2855 L 173.18 11.9781 L 173.471 11.6835 L 173.773 11.4023 L 174.08 11.1379 L 174.34 10.9312 L 174.64 10.7098 L 174.947 10.5011 L 175.262 10.3054 L 175.423 10.2119 L 175.631 10.0972 L 175.84 9.98952 L 176.104 9.86314 L 176.366 9.74794 L 176.633 9.64059 L 176.881 9.55017 L 177.179 9.45258 L 177.484 9.36481 L 177.732 9.30258 L 177.97 9.24989 L 178.212 9.20378 L 178.441 9.16666 L 178.813 9.11977 L 179.189 9.08904 L 179.406 9.07881 L 179.619 9.07407 L 179.833 9.07457 L 180.05 9.08043 L 180.287 9.09297 L 180.522 9.11171 L 180.76 9.1371 L 181.14 9.19084 L 181.472 9.25125 L 181.799 9.32315 L 182.122 9.40648 L 182.444 9.50139 L 182.763 9.6077 L 182.948 9.67516 L 183.208 9.77629 L 183.588 9.93948 L 183.963 10.1185 L 184.333 10.3131 L 184.706 10.5284 L 184.934 10.6692 L 185.159 10.8159 L 185.405 10.9845 L 185.644 11.1572 L 185.885 11.3413 L 186.252 11.6389 L 186.578 11.9237 L 186.897 12.221 L 187.213 12.5347 L 187.57 12.9158 L 187.814 13.1936 L 188.003 13.4179 L 188.179 13.6353 L 188.504 14.0603 L 188.767 14.4284 L 189.021 14.806 L 189.265 15.1925 L 189.5 15.5876 L 189.725 15.9907 L 189.94 16.4015 L 190.144 16.8196 L 190.338 17.2445 L 190.431 17.4594"/><path d="M 175.036 15.6643 L 175.253 15.3454 L 175.479 15.0451 L 175.713 14.7645 L 175.894 14.5658 L 176.079 14.378 L 176.268 14.2012 L 176.528 13.9808 L 176.708 13.8421 L 176.89 13.7124 L 177.075 13.5919 L 177.261 13.4804 L 177.5 13.3523 L 177.648 13.2804 L 177.798 13.2138 L 177.948 13.1526 L 178.183 13.0681 L 178.436 12.9921 L 178.702 12.928 L 178.971 12.8791 L 179.179 12.852 L 179.388 12.8338 L 179.629 12.8242 L 179.872 12.8264 L 180.141 12.8426 L 180.413 12.8733 L 180.706 12.9223 L 180.998 12.9878 L 181.291 13.0699 L 181.586 13.1691 L 181.878 13.2843 L 182.119 13.3915 L 182.36 13.5104 L 182.6 13.6409 L 182.869 13.8005 L 183.181 14.0057 L 183.345 14.122 L 183.509 14.2438 L 183.788 14.4665 L 184.019 14.6656 L 184.248 14.8759 L 184.473 15.097 L 184.75 15.3886 L 185.047 15.7278 L 185.308 16.0521 L 185.537 16.3569 L 185.735 16.6377 L 185.927 16.9274 L 186.113 17.2257 L 186.292 17.532 L 186.465 17.8461 L 186.63 18.1675 L 186.788 18.4958 L 186.939 18.8306 L 187.082 19.1714 L 187.217 19.5178 L 187.343 19.8693 L 187.403 20.0469"/><path d="M 139.99 106.794 A 1.875 0.113075 -186.941 0 0 143.56 106.315"/><path d="M 139.838 106.768 A 1.875 0.113075 -186.941 0 0 139.99 106.794"/><path d="M 144.496 114.004 L 147.815 141.268"/><path d="M 139.838 106.768 L 139.873 107.057"/><path d="M 140.322 110.747 L 140.324 110.767"/><path d="M 140.572 112.803 L 143.47 136.602"/><path d="M 144.189 142.51 L 144.287 143.315"/><path d="M 140.509 99.3009 A 1.875 0.767334 -161.932 0 0 141.01 100.158"/><path d="M 139.834 106.768 A 1.875 0.113075 -186.941 0 0 143.069 106.452"/><path d="M 140.491 99.3446 A 14.3632 10.8517 -281.104 0 0 139.834 106.768"/><path d="M 144.042 100.552 L 143.94 100.886 L 143.847 101.228 L 143.763 101.577 L 143.689 101.932 L 143.625 102.294 L 143.57 102.661 L 143.525 103.033 L 143.49 103.409 L 143.466 103.789 L 143.451 104.173 L 143.447 104.559 L 143.453 104.947 L 143.47 105.337 L 143.497 105.728 L 143.534 106.119 L 143.557 106.315"/><path d="M 171.886 13.63 A 1.875 1.01358 -147.147 0 0 172.488 15.1765"/><path d="M 165.869 22.948 A 1.875 1.01358 -147.147 0 0 166.471 24.4946"/><path d="M 172.488 15.1765 A 1.875 1.01358 -147.147 0 0 175.036 15.6644"/><path d="M 166.471 24.4946 A 1.875 1.01358 -147.147 0 0 169.019 24.9824"/><path d="M 171.886 13.63 L 165.869 22.948"/><path d="M 175.036 15.6644 L 169.019 24.9824"/><path d="M 164.441 25.9857 A 1.875 0.767334 -161.932 0 0 165.561 27.2357"/><path d="M 140.494 99.3468 A 1.875 0.767334 -161.932 0 0 141.656 100.513"/><path d="M 141.656 100.513 A 1.875 0.767334 -161.932 0 0 144.059 100.51"/><path d="M 164.4 26.069 L 140.494 99.3468"/><path d="M 167.934 27.327 L 151.65 77.2419"/><path d="M 150.487 80.8076 L 144.059 100.51"/><path d="M 166.197 24.2144 A 1.875 1.01358 -147.147 0 0 166.573 24.5858"/><path d="M 164.412 26.0777 A 1.875 0.767334 -161.932 0 0 165.369 27.1495"/><path d="M 166.573 24.5858 A 1.875 1.01358 -147.147 0 0 169.087 24.876"/><path d="M 165.369 27.1495 A 1.875 0.767334 -161.932 0 0 167.977 27.2408"/><path d="M 165.81 23.0684 A 14.8425 11.3211 -283.561 0 0 164.412 26.0777"/><path d="M 169.029 24.9949 A 10.008 6.889 -276.889 0 0 167.977 27.2408"/><path d="M 194.632 131.325 L 194.874 131.328 L 195.36 131.325 L 195.673 131.32 L 196.298 131.305"/><path d="M 194.611 131.324 A 0.43026 0.43026 0 0 0 194.632 131.325"/></g><g stroke="rgb(0, 0, 0)" stroke-width="0.13" stroke-linecap="butt" stroke-linejoin="miter" fill="none"><path d="M 196.298 131.305 L 196.223 131.115"/></g><g stroke="rgb(0, 0, 0)" stroke-width="0.35" stroke-linecap="butt" stroke-linejoin="miter" fill="none"><path d="M 196.298 131.305 L 196.4 131.3 L 196.438 131.295 L 196.464 131.289 L 196.471 131.285 L 196.475 131.279 L 196.475 131.273"/><path d="M 196.475 131.273 L 196.472 131.269 L 196.462 131.258 L 196.444 131.245 L 196.392 131.214 L 196.204 131.104"/></g><g stroke="rgb(0, 0, 0)" stroke-width="0.13" stroke-linecap="butt" stroke-linejoin="miter" fill="none"><path d="M 194.632 131.325 A 0.907242 0.650917 -293.497 0 0 194.88 131.371"/></g><g stroke="rgb(0, 0, 0)" stroke-width="0.35" stroke-linecap="butt" stroke-linejoin="miter" fill="none"><path d="M 195.946 130.909 A 1.65234 1.1855 -293.497 0 0 196.204 131.104"/><path d="M 196.127 130.853 A 1.75 1.25556 -293.497 0 0 197.122 131.282"/><path d="M 197.122 131.282 A 1.75 1.25556 -293.497 0 0 197.457 131.206"/><path d="M 194.579 131.334 A 0.937538 0.937538 0 0 0 194.88 131.371"/><path d="M 194.88 131.371 L 197.122 131.282"/><path d="M 227.81 117.758 A 0.5625 0.391403 -109.769 1 0 228.191 118.817"/><path d="M 228.191 118.817 A 0.5625 0.391403 -109.769 0 0 228.415 118.396"/><path d="M 228.415 118.396 A 0.5625 0.391403 -109.769 0 0 227.81 117.758"/><path d="M 227.847 117.561 L 228.126 117.544 L 228.687 117.519 L 229.445 117.496"/><path d="M 227.469 117.931 A 0.749619 0.521446 -289.742 0 0 227.504 118.448"/><path d="M 227.847 117.561 A 0.750046 0.521896 -289.771 0 0 227.469 117.931"/><path d="M 227.504 118.448 A 0.750076 0.521973 -289.764 0 0 227.818 118.901"/><path d="M 227.818 118.901 A 0.666855 0.666855 0 0 0 227.88 118.943"/><path d="M 227.88 118.943 A 33.4694 33.4694 0 0 0 228.212 119.135"/><path d="M 228.212 119.135 A 55.4537 55.4537 0 0 0 228.819 119.476"/></g><g stroke="rgb(0, 0, 0)" stroke-width="0.13" stroke-linecap="butt" stroke-linejoin="miter" fill="none"><path d="M 229.445 117.496 L 229.461 118.168"/><path d="M 227.88 118.943 A 0.918938 0.595596 -255.316 0 0 227.915 118.965"/></g><g stroke="rgb(0, 0, 0)" stroke-width="0.35" stroke-linecap="butt" stroke-linejoin="miter" fill="none"><path d="M 229.491 118.096 A 1.48674 0.963608 -255.316 0 0 229.349 119.357"/><path d="M 230.987 117.219 A 1.5625 1.01271 -255.316 0 0 230.812 117.197"/><path d="M 230.812 117.197 A 1.5625 1.01271 -255.316 0 0 229.55 119.312"/><path d="M 229.491 118.096 L 229.56 117.934 L 229.592 117.856 L 229.63 117.745 L 229.643 117.687 L 229.647 117.634"/><path d="M 229.647 117.634 L 229.641 117.589 L 229.622 117.553 L 229.592 117.526 L 229.566 117.513 L 229.537 117.504 L 229.493 117.497 L 229.445 117.496"/></g><g stroke="rgb(0, 0, 0)" stroke-width="0.13" stroke-linecap="butt" stroke-linejoin="miter" fill="none"><path d="M 228.374 117.214 A 0.918938 0.595596 -255.316 0 0 227.847 117.561"/></g><g stroke="rgb(0, 0, 0)" stroke-width="0.35" stroke-linecap="butt" stroke-linejoin="miter" fill="none"><path d="M 227.915 118.965 L 228.212 119.135"/><path d="M 227.818 118.901 A 0.9375 0.9375 0 0 0 227.915 118.965"/><path d="M 228.374 117.214 L 230.812 117.197"/><path d="M 228.374 117.214 A 0.9375 0.9375 0 0 0 227.469 117.931"/><path d="M 183.498 105.145 A 0.5625 0.391403 -289.769 1 0 183.117 104.086"/><path d="M 182.893 104.47 A 0.5625 0.391403 -289.769 0 0 183.498 105.145"/><path d="M 183.117 104.086 A 0.5625 0.391403 -289.769 0 0 182.893 104.47"/></g><g stroke="rgb(0, 0, 0)" stroke-width="0.13" stroke-linecap="butt" stroke-linejoin="miter" fill="none"><path d="M 181.869 102.942 L 181.811 104.907"/></g><g stroke="rgb(0, 0, 0)" stroke-width="0.35" stroke-linecap="butt" stroke-linejoin="miter" fill="none"><path d="M 183.215 105.336 A 20.2198 20.2198 0 0 0 183.425 105.343"/><path d="M 183.425 105.343 A 0.750069 0.521904 -289.772 0 0 183.803 105.079"/><path d="M 183.803 105.079 A 0.75 0.521873 -109.769 0 0 183.464 103.984"/><path d="M 183.464 103.984 L 183.185 103.796 L 182.625 103.428 L 181.869 102.942"/><path d="M 184.105 103.63 L 183.526 103.246 L 182.629 102.668"/><path d="M 184.58 104.231 A 0.750061 0.521957 -289.766 0 0 184.251 103.729"/><path d="M 184.599 104.699 A 0.749405 0.521248 -289.727 0 0 184.58 104.231"/></g><g stroke="rgb(0, 0, 0)" stroke-width="0.13" stroke-linecap="butt" stroke-linejoin="miter" fill="none"><path d="M 183.425 105.343 A 0.918938 0.574738 -250.72 0 0 183.613 105.413"/><path d="M 184.212 103.701 A 0.918938 0.574738 -250.72 0 0 183.464 103.984"/></g><g stroke="rgb(0, 0, 0)" stroke-width="0.35" stroke-linecap="butt" stroke-linejoin="miter" fill="none"><path d="M 183.613 105.413 L 183.415 105.397"/><path d="M 183.613 105.413 A 0.9375 0.9375 0 0 0 184.599 104.699"/><path d="M 184.212 103.701 L 184.105 103.63"/><path d="M 182.281 102.4 L 182.137 102.303"/><path d="M 184.251 103.729 A 0.937515 0.937515 0 0 0 184.212 103.701"/><path d="M 149.983 117.407 A 0.5625 0.391403 -289.769 1 0 149.602 116.349"/><path d="M 149.434 116.502 A 0.5625 0.391403 -289.769 0 0 149.983 117.407"/><path d="M 150.055 116.546 A 0.5625 0.391403 -289.769 0 0 150.206 116.967"/><path d="M 149.602 116.349 A 0.5625 0.391403 -289.769 0 0 149.434 116.502"/></g><g stroke="rgb(0, 0, 0)" stroke-width="0.13" stroke-linecap="butt" stroke-linejoin="miter" fill="none"><path d="M 147.998 116.529 L 148.659 115.277"/></g><g stroke="rgb(0, 0, 0)" stroke-width="0.35" stroke-linecap="butt" stroke-linejoin="miter" fill="none"><path d="M 150.224 116.503 A 66.8371 66.8371 0 0 0 149.675 115.588"/><path d="M 150.298 117.408 A 0.793037 0.551819 -289.77 0 0 150.224 116.503"/><path d="M 149.688 117.583 A 0.793213 0.551865 -289.767 0 0 150.298 117.408"/><path d="M 149.662 117.568 A 0.650307 0.650307 0 0 0 149.688 117.583"/><path d="M 149.662 117.568 L 149.42 117.422 L 148.934 117.122 L 147.998 116.529"/><path d="M 147.998 116.529 L 147.874 116.456 L 147.738 116.387 L 147.592 116.32 L 147.453 116.258 L 147.341 116.2"/><path d="M 147.341 116.2 L 147.287 116.164 L 147.25 116.128"/></g><g stroke="rgb(0, 0, 0)" stroke-width="0.13" stroke-linecap="butt" stroke-linejoin="miter" fill="none"><path d="M 147.25 116.128 L 147.832 115.024"/></g><g stroke="rgb(0, 0, 0)" stroke-width="0.35" stroke-linecap="butt" stroke-linejoin="miter" fill="none"><path d="M 150.998 117.112 A 0.729576 0.729576 0 0 0 151.044 116.94"/><path d="M 147.246 114.845 A 1.75 0.674225 -223.629 0 0 147.012 116.006"/><path d="M 147.634 114.964 A 1.65234 0.636604 -223.629 0 0 147.25 116.128"/><path d="M 149.514 113.578 A 1.75 0.674225 -223.629 0 0 149.12 113.457"/></g><g stroke="rgb(0, 0, 0)" stroke-width="0.13" stroke-linecap="butt" stroke-linejoin="miter" fill="none"><path d="M 150.9 116.26 A 0.907242 0.349533 -223.629 0 0 150.224 116.503"/></g><g stroke="rgb(0, 0, 0)" stroke-width="0.35" stroke-linecap="butt" stroke-linejoin="miter" fill="none"><path d="M 151.044 116.94 A 0.793083 0.551888 -289.772 0 0 150.9 116.26"/><path d="M 150.9 116.26 A 50.1726 50.1726 0 0 0 150.684 115.897"/><path d="M 151.007 117.089 L 150.998 117.112"/><path d="M 149.688 117.583 A 0.9375 0.9375 0 0 0 150.998 117.112"/><path d="M 147.341 116.2 L 147.012 116.006"/></g></svg>