<?xml version="1.0" encoding="utf-8" ?><!DOCTYPE svg PUBLIC "-//W3C//DTD SVG 1.1//EN" "http://www.w3.org/Graphics/SVG/1.1/DTD/svg11.dtd" 
[ <!ATTLIST svg 
  xmlns:dsy CDATA #FIXED "http://www.3ds.com/print"  
    dsy:text-version CDATA #IMPLIED > 

  <!ATTLIST text 
  xmlns:dsy CDATA #FIXED "http://www.3ds.com/print" 
    dsy:text-version CDATA #IMPLIED > 
]><svg xmlns="http://www.w3.org/2000/svg" xmlns:dsy="http://www.3ds.com/print" dsy:text-version="18000" width="1189" height="841" viewBox="0 0 1189 841" version="1.1"><g stroke="rgb(0, 0, 0)" stroke-width="0.35" stroke-linecap="butt" stroke-linejoin="miter" fill="none"><path d="M 477.788 676.069 L 463.893 720.451"/><path d="M 492.102 680.55 L 477.715 726.506"/><path d="M 498.836 625.784 L 499.328 628.071 L 499.761 630.106 L 500.175 632.282 L 500.366 633.442 L 500.537 634.595 L 500.689 635.751 L 500.856 637.257 L 500.988 638.767 L 501.084 640.26 L 501.145 641.755 L 501.169 643.231 L 501.157 644.707 L 501.108 646.162 L 501.021 647.615 L 500.926 648.749 L 500.808 649.88 L 500.666 650.995 L 500.5 652.107 L 500.16 653.983 L 499.753 655.81 L 499.519 656.728 L 499.265 657.639 L 498.758 659.297 L 496.299 667.146 L 492.102 680.55"/><path d="M 486.291 567.458 L 498.836 625.784"/><path d="M 473.747 509.131 L 486.291 567.458"/><path d="M 441.655 454.493 L 443.003 455.467 L 444.335 456.485 L 445.649 457.544 L 446.944 458.644 L 448.673 460.204 L 450.364 461.833 L 452.013 463.53 L 453.619 465.291 L 454.974 466.868 L 456.294 468.488 L 457.576 470.15 L 458.819 471.852 L 460.022 473.59 L 461.183 475.364 L 462.301 477.17 L 463.374 479.007 L 464.402 480.872 L 465.382 482.762 L 466.314 484.675 L 467.196 486.61 L 468.027 488.562 L 468.806 490.531 L 469.531 492.513 L 470.203 494.506 L 470.819 496.508 L 471.379 498.513 L 471.839 500.342 L 472.2 501.937 L 472.963 505.485 L 473.747 509.131"/><path d="M 393.488 436.983 L 424.252 446.394 L 426.277 447.013 L 427.764 447.472 L 428.503 447.713 L 429.712 448.138 L 430.909 448.599 L 432.109 449.1 L 433.295 449.632 L 434.367 450.147 L 435.427 450.686 L 436.486 451.256 L 437.533 451.849 L 438.578 452.473 L 439.61 453.12 L 440.64 453.796 L 441.655 454.493"/><path d="M 344.525 425.823 L 345.313 425.694 L 346.103 425.586 L 346.9 425.498 L 347.699 425.43 L 348.503 425.382 L 349.307 425.354 L 350.926 425.356 L 351.797 425.389 L 352.667 425.445 L 353.541 425.522 L 354.413 425.621 L 355.289 425.742 L 356.161 425.883 L 357.037 426.046 L 357.908 426.229 L 359.208 426.541 L 360.497 426.895 L 361.658 427.246 L 372.338 430.513 L 393.488 436.983"/><path d="M 344.525 425.823 A 51.0469 38.2397 -297.795 0 0 335.898 428.775"/><path d="M 332.929 469.582 L 333.296 462.077 L 333.364 460.773 L 333.519 458.98 L 333.689 457.661 L 333.904 456.37 L 334.068 455.553 L 334.249 454.757 L 334.447 453.981 L 334.661 453.226 L 334.892 452.494 L 335.138 451.783 L 335.398 451.095 L 335.913 449.892 L 336.471 448.767 L 336.864 448.063 L 337.495 447.055 L 337.95 446.408 L 338.42 445.798 L 339.154 444.951 L 339.623 444.467 L 340.103 444.014 L 340.595 443.589 L 341.097 443.192 L 341.542 442.871 L 341.995 442.569 L 342.457 442.288 L 342.929 442.025"/><path d="M 330.3 523.268 L 332.929 469.582"/><path d="M 328.053 569.156 L 330.3 523.268"/><path d="M 343.396 630.043 L 335.2 610.013 L 333.136 604.966 L 332.185 602.643 L 331.656 601.318 L 331.016 599.605 L 330.65 598.551 L 330.276 597.411 L 329.923 596.265 L 329.591 595.105 L 329.281 593.94 L 328.84 592.101 L 328.481 590.366 L 328.179 588.646 L 327.936 586.945"/><path d="M 366.854 687.38 L 358.678 667.397"/><path d="M 353.162 653.914 L 346.651 638 L 345.566 635.348 L 344.481 632.696 L 343.389 630.051"/><path d="M 484.171 628.938 L 484.855 632.124 L 485.131 633.439 L 485.45 635.166"/><path d="M 485.947 647.796 L 485.737 649.425 L 485.504 650.774 L 485.228 652.052 L 484.916 653.26 L 484.52 654.567 L 482.632 660.595 L 479.609 670.249 L 479.002 672.189 L 478.395 674.129 L 477.79 676.112"/><path d="M 471.627 570.612 L 481.558 616.787 L 483.126 624.078 L 484.173 628.929"/><path d="M 460.471 518.741 L 469.502 560.731 L 470.564 565.671 L 471.629 570.602"/><path d="M 433.037 466.77 L 434.116 467.552 L 435.192 468.378 L 436.262 469.247 L 437.361 470.192 L 438.839 471.547 L 440.246 472.933 L 441.644 474.408 L 442.898 475.819 L 444.042 477.187 L 445.158 478.601"/><path d="M 389.1 451.327 L 416.018 459.562 L 419.864 460.738 L 421.89 461.357 L 423.11 461.731 L 424.526 462.214 L 425.328 462.522 L 426.153 462.866 L 426.969 463.233 L 427.724 463.595 L 428.471 463.975 L 429.234 464.386 L 429.987 464.813 L 431.511 465.745 L 433.035 466.769"/><path d="M 347.135 440.594 L 347.946 440.473 L 348.784 440.391 L 349.649 440.35 L 350.542 440.351 L 351.528 440.402 L 352.544 440.504 L 353.588 440.661 L 354.661 440.874 L 355.461 441.064 L 356.277 441.289 L 357.257 441.586 L 362.181 443.092 L 379.486 448.386 L 383.332 449.562 L 385.255 450.15 L 387.177 450.739 L 389.066 451.301"/><path d="M 342.929 442.025 L 343.688 441.652 L 344.472 441.325 L 345.267 441.049 L 346.049 440.827 L 346.316 440.762 L 346.585 440.702 L 346.983 440.608 L 347.108 440.577"/><path d="M 325.643 437.827 L 326.549 436.626 L 327.505 435.474 L 328.002 434.917 L 328.789 434.09 L 329.803 433.106 L 330.832 432.198 L 331.917 431.328 L 332.879 430.624 L 333.86 429.966 L 334.868 429.349 L 335.898 428.775"/><path d="M 315.318 522.534 L 316.63 495.744"/><path d="M 312.69 576.219 L 314.88 531.482 L 315.209 524.771 L 315.319 522.545"/><path d="M 350.539 687.114 L 341.397 664.77"/><path d="M 335.881 651.288 L 329.513 635.723"/><path d="M 329.52 635.715 L 328.477 633.193 L 327.442 630.662 L 324.336 623.071 L 320.194 612.948 L 319.148 610.39 L 318.169 607.995 L 317.701 606.818 L 317.249 605.635 L 316.765 604.299 L 316.306 602.954 L 315.851 601.543 L 315.422 600.122 L 315.018 598.678 L 314.64 597.227"/><path d="M 312.537 581.155 L 312.554 579.335 L 312.613 577.769 L 312.69 576.23"/><path d="M 585.957 343.778 L 783.752 404.288"/><path d="M 581.569 358.122 L 785.734 420.58"/><path d="M 109.448 597.078 A 7 3.9783 -126.046 0 0 106.525 597.296"/><path d="M 106.525 597.296 A 7 3.9783 -126.046 0 0 105.579 601.344"/><path d="M 105.579 601.344 A 7 3.9783 -126.046 0 0 105.581 601.352"/><path d="M 108.894 597.535 A 6.25 3.55206 -126.046 0 0 106.966 597.903"/><path d="M 106.966 597.903 A 6.25 3.55206 -126.046 0 0 105.978 600.199"/><path d="M 327.579 436.418 L 106.525 597.296"/><path d="M 335.817 447.738 L 126.038 600.41"/><path d="M 248.554 645.086 A 7 4.1481 -127.714 0 0 239.021 638.004"/><path d="M 247.992 644.92 A 6.25 3.70364 -127.714 0 0 242.246 638.294"/><path d="M 450.753 474.274 L 239.021 638.004"/><path d="M 459.317 485.349 L 250.306 646.975"/><path d="M 238.582 645.308 A 7 2.31998 -179.872 0 0 250.313 643.623"/><path d="M 238.203 815.134 A 7 2.31998 -179.872 0 0 249.934 813.449"/><path d="M 246.656 641.863 A 6.25 2.07141 -179.872 0 0 239.683 641.914"/><path d="M 239.089 645.125 A 6.25 2.07141 -179.872 0 0 249.563 643.621"/><path d="M 250.313 643.623 L 249.934 813.449"/><path d="M 236.313 643.591 L 235.934 813.418"/><path d="M 103.651 603.007 A 7 2.31998 -179.872 0 0 105.919 604.724"/><path d="M 105.564 601.419 A 7 2.31998 -179.872 0 0 103.651 603.007"/><path d="M 103.271 772.834 A 7 2.31998 -179.872 0 0 105.54 774.55"/><path d="M 104.401 603.009 A 6.25 2.07141 -179.872 0 0 105.927 604.37"/><path d="M 106.462 601.477 A 6.25 2.07141 -179.872 0 0 104.401 603.009"/><path d="M 117.597 627.223 L 117.283 767.674"/><path d="M 103.651 603.007 L 103.271 772.834"/><path d="M 105.54 774.55 A 7 4.46011 -252.99 0 0 108.224 779.543"/><path d="M 238.203 815.134 A 7 4.46011 -252.99 0 0 240.886 820.127"/><path d="M 240.886 820.127 A 7 4.46011 -252.99 0 0 243.957 819.504"/><path d="M 238.716 815.276 A 6.25 3.98224 -252.99 0 0 241.106 819.41"/><path d="M 241.106 819.41 A 6.25 3.98224 -252.99 0 0 246.438 815.449"/><path d="M 112.319 766.156 L 226.999 801.238"/><path d="M 108.224 779.543 L 240.886 820.127"/><path d="M 112.698 596.329 A 7 4.46011 -252.99 0 0 105.919 604.724"/><path d="M 245.361 636.913 A 7 4.46011 -252.99 0 0 238.582 645.308"/><path d="M 245.142 637.63 A 6.25 3.98224 -252.99 0 0 239.089 645.125"/><path d="M 112.698 596.329 L 241.829 635.833"/><path d="M 108.603 609.717 L 236.302 648.782"/><path d="M 340.466 443.695 L 381.271 528.003"/><path d="M 387.504 540.881 L 392.452 551.104"/><path d="M 333.345 461.116 L 369.954 536.755"/><path d="M 369.964 554.444 L 376.845 550.993"/><path d="M 389.36 544.715 L 448.061 515.267"/><path d="M 481.912 498.285 L 549.342 464.459"/><path d="M 328.579 590.868 L 391.231 559.438"/><path d="M 392.076 559.015 L 447.633 531.144"/><path d="M 460.309 524.785 L 461.629 524.123"/><path d="M 475.478 517.176 L 478.815 515.502"/><path d="M 491.854 508.961 L 539.118 485.251"/><path d="M 376.314 566.922 L 359.526 654.882"/><path d="M 392.759 555.437 L 373.377 656.987"/><path d="M 371.032 669.274 L 368.01 685.107"/><path d="M 404.368 552.849 L 446.67 566.9"/><path d="M 459.064 571.017 L 472.687 575.542"/><path d="M 489.21 581.03 L 562.53 605.384"/><path d="M 391.268 563.249 L 446.276 581.521"/><path d="M 458.67 585.638 L 476.103 591.429"/><path d="M 492.627 596.917 L 541.702 613.218"/><path d="M 462.402 477.338 L 584.637 608.579"/><path d="M 474.008 510.34 L 566.806 609.976"/><path d="M 499.898 630.792 L 580.845 605.608"/><path d="M 581.639 605.361 L 795.589 538.798"/><path d="M 501.148 645.065 L 802.481 551.315"/><path d="M 772.703 679.799 A 7 5.26279 -251.718 0 0 773.829 677.505"/><path d="M 602.471 613.542 L 771.022 669.226"/><path d="M 581.326 621.3 L 766.63 682.519"/><path d="M 554.756 628.386 L 486.733 697.7"/><path d="M 584.401 618.167 L 477.402 727.196"/><path d="M 369.074 679.535 L 385.97 673.044"/><path d="M 483.708 635.497 L 485.396 634.848"/><path d="M 403.339 681.369 L 485.689 649.733"/><path d="M 471.766 731.213 A 7 4.19037 -279.225 0 0 474.148 729.193"/><path d="M 470.623 731.142 A 7 4.19037 -279.225 0 0 471.766 731.213"/><path d="M 769.934 682.787 A 7 4.19037 -279.225 0 0 772.703 679.799"/><path d="M 490.34 714.012 L 739.479 673.549"/><path d="M 471.766 731.212 L 769.934 682.787"/><path d="M 748.569 113.793 A 7 4.10199 -214.037 0 0 750.259 107.989"/><path d="M 899.364 337.048 A 7 4.10199 -214.037 0 0 901.054 331.244"/><path d="M 748.128 113.591 A 6.25 3.66251 -214.037 0 0 749.637 108.409"/><path d="M 750.259 107.989 L 901.054 331.244"/><path d="M 765.815 156.033 L 887.621 336.368"/><path d="M 690.867 95.9779 L 765.933 257.79"/><path d="M 681.681 109.445 L 771.019 302.019"/><path d="M 239.021 817.076 A 7 1.51331 -212.157 0 0 239.835 816.772"/><path d="M 238.947 816.831 A 6.25 1.35117 -212.157 0 0 239.718 816.589"/><path d="M 126.586 615.218 L 235.988 789.233"/><path d="M 104.724 606.749 L 237.008 817.159"/><path d="M 214.449 619.131 L 209.49 625.94"/><path d="M 200.77 637.912 L 168.612 682.064"/><path d="M 159.736 694.25 L 117.317 752.49"/><path d="M 213.416 641.781 L 175.776 693.46"/><path d="M 166.9 705.646 L 120.913 768.785"/><path d="M 232.147 613.214 L 234.707 633.654"/><path d="M 223.515 644.87 L 233.75 726.583"/><path d="M 225.081 607.588 L 267.44 587.35"/><path d="M 232.72 617.791 L 272.829 598.628"/><path d="M 108.255 597.489 A 6.25 5.27725 -84.5586 0 0 105.485 601.784"/><path d="M 105.485 601.784 A 6.25 5.27725 -84.5586 0 0 105.421 604.147"/><path d="M 107.949 598.59 A 5.5 4.64398 -84.5586 0 0 106 603.505"/><path d="M 226.548 607.727 L 128.78 598.414"/><path d="M 225.363 620.171 L 174.929 615.367"/><path d="M 265.175 588.432 L 317.246 461.254"/><path d="M 275.84 595.372 L 336.983 446.039"/><path d="M 311.79 581.732 L 279.893 585.472"/><path d="M 292.605 596.568 L 272.113 598.971"/><path d="M 126.5 761.113 L 189.101 740.958"/><path d="M 202.854 736.531 L 236.13 725.817"/><path d="M 132.475 772.322 L 195.967 751.88"/><path d="M 209.72 747.452 L 236.1 738.958"/><path d="M 250.14 721.117 L 358.088 684.556"/><path d="M 274.279 726.139 L 356.993 698.125"/><path d="M 239.09 645.036 A 6.25 4.21445 -81.3563 0 0 239.099 645.128"/><path d="M 247.275 645.217 A 6.25 4.21445 -81.3563 0 0 247.293 645.15"/><path d="M 242.514 638.384 A 5.5 3.70871 -81.3563 0 0 239.648 645.278"/><path d="M 246.7 645.354 A 5.5 3.70871 -81.3563 0 0 246.817 644.956"/><path d="M 246.817 644.956 A 5.5 3.70871 -81.3563 0 0 247.08 642.557"/><path d="M 402.109 661.355 L 259.704 639.708"/><path d="M 400.23 673.713 L 250.297 650.921"/><path d="M 242.458 815.747 A 5.5 2.04391 -132.667 0 0 246.325 817.6"/><path d="M 246.96 816.403 A 5.5 2.04391 -132.667 0 0 246.707 815.395"/><path d="M 387.366 671.758 L 249.968 798.398"/><path d="M 405.405 672.13 L 247.185 817.962"/><path d="M 452.977 654.05 A 6.25 4.01862 -291.423 0 0 455.071 649.719"/><path d="M 405.194 669.269 A 5.5 3.53638 -291.423 0 0 405.191 668.916"/><path d="M 400.686 661.139 L 448.411 642.413"/><path d="M 406.284 672.37 L 452.977 654.05"/><path d="M 454.925 651.437 A 6.25 4.88129 -100.771 0 0 455.407 649.47"/><path d="M 492.291 633.864 L 457.191 640.542"/><path d="M 494.627 646.144 L 452.891 654.084"/><path d="M 456.968 648.357 A 6.25 0.244873 -358.457 0 0 454.858 648.132"/><path d="M 444.596 643.911 L 448.645 493.602"/><path d="M 456.98 648.373 L 461.516 480.014"/><path d="M 245.189 819.326 A 6.25 4.46222 -289.284 0 0 247.804 815.11"/><path d="M 239.09 815.365 A 6.25 4.46222 -289.284 0 0 245.189 819.326"/><path d="M 369.973 775.666 A 6.25 4.46222 -289.284 0 0 372.599 771.146"/><path d="M 244.941 818.618 A 5.5 3.92673 -289.284 0 0 247.211 815.279"/><path d="M 239.734 815.491 A 5.5 3.92673 -289.284 0 0 244.941 818.618"/><path d="M 269.181 797.689 L 365.845 763.868"/><path d="M 245.189 819.326 L 369.973 775.666"/><path d="M 370.442 775.481 A 6.25 4.56918 -293.874 0 0 372.797 771.068"/><path d="M 370.202 775.576 A 6.25 4.56918 -293.874 0 0 370.442 775.481"/><path d="M 378.128 758.41 L 468.127 718.577"/><path d="M 370.442 775.481 L 473.186 730.007"/><path d="M 387.944 688.224 L 362.846 764.917"/><path d="M 407.233 669.471 L 373.797 771.644"/><path d="M 887.984 335.566 L 811.142 505.249"/><path d="M 900.746 337.686 L 810.853 536.189"/><path d="M 768.913 297.479 L 673.512 370.563"/><path d="M 658.879 381.773 L 561.432 456.424"/><path d="M 772.355 310.588 L 688.201 375.056"/><path d="M 673.568 386.266 L 567.83 467.269"/><path d="M 913.041 630.539 A 6.25 0.199127 -337.499 0 0 914.224 630.901"/><path d="M 962.365 511.464 A 6.25 0.199127 -337.499 0 0 963.549 511.825"/><path d="M 962.449 511.442 A 5.5 0.175232 -337.499 0 0 962.856 511.538"/><path d="M 903.76 623.501 L 941.687 531.941"/><path d="M 914.224 630.901 L 963.549 511.825"/><path d="M 962.365 511.464 A 6.25 3.04797 -311.372 0 0 962.199 510.906"/><path d="M 768.025 668.236 L 935.445 520.78"/><path d="M 772.945 680.56 L 961.92 514.12"/><path d="M 585.686 598.258 L 700.097 559.454"/><path d="M 739.634 442.354 A 6.25 0.549652 -345.826 0 0 738.933 441.901"/><path d="M 696.892 560.541 L 703.228 535.455"/><path d="M 705.067 528.174 L 714.115 492.351"/><path d="M 717.858 477.53 L 720.626 466.571"/><path d="M 710.958 555.896 L 715.196 539.116"/><path d="M 717.035 531.836 L 726.628 493.85"/><path d="M 728.683 485.717 L 732.593 470.232"/><path d="M 734.432 462.951 L 735.696 457.948"/><path d="M 578.017 459.465 L 664.363 445.607"/><path d="M 672.491 444.303 L 729.353 435.177"/><path d="M 590.986 470.043 L 677.228 456.202"/><path d="M 561.348 604.992 L 561.769 604.568"/><path d="M 577.264 589.001 L 647.522 518.414"/><path d="M 653.507 512.401 L 677.795 487.999"/><path d="M 684.512 481.25 L 695.607 470.104"/><path d="M 700.947 464.739 L 704.142 461.528"/><path d="M 580.178 603.792 L 661.042 522.55"/><path d="M 667.026 516.537 L 693.552 489.887"/><path d="M 700.27 483.138 L 705.669 477.714"/><path d="M 711.009 472.349 L 717.662 465.664"/><path d="M 962.34 508.212 A 6.25 0.697906 -19.7381 0 0 963.649 507.253"/><path d="M 963.649 507.253 L 901.376 333.696"/><path d="M 949.14 503.828 L 894.487 351.508"/><path d="M 878.982 323.579 L 785.57 295.002"/><path d="M 886.457 338.937 L 787.221 308.579"/><path d="M 728.527 435.309 L 737.622 405.861"/><path d="M 742.048 391.529 L 765.402 315.914"/><path d="M 739.487 442.18 L 749.575 409.518"/><path d="M 754.002 395.186 L 774.552 328.649"/><path d="M 772.352 680.687 A 6.25 4.37857 -288.735 0 0 773.183 679.013"/><path d="M 910.476 634.422 A 6.25 4.37857 -288.735 0 0 913.075 629.912"/><path d="M 796.378 659.921 L 906.462 622.584"/><path d="M 771.933 681.412 L 910.476 634.422"/><path d="M 962.408 511.648 A 6.25 4.7886 -282.605 0 0 962.544 510.718"/><path d="M 811.032 535.793 L 926.181 510.043"/><path d="M 806.74 549.562 L 959.064 515.499"/><path d="M 250.123 728.574 L 306.883 745.938"/><path d="M 320.731 750.175 L 363.399 763.228"/><path d="M 250.1 739.025 L 298.365 753.79"/><path d="M 312.212 758.026 L 349.734 769.505"/><path d="M 734.789 672 L 524.184 679.526"/><path d="M 503.856 680.252 L 492.064 680.674"/><path d="M 476.168 681.242 L 402.52 683.874"/><path d="M 373.078 684.926 L 365.954 685.18"/><path d="M 674.042 684.177 L 514.007 689.896"/><path d="M 491.549 690.699 L 488.895 690.793"/><path d="M 473 691.361 L 399.206 693.999"/><path d="M 538.723 633.374 L 500.033 680.389"/><path d="M 499.397 681.162 L 487.314 695.845"/><path d="M 363.519 686.359 L 369.528 688.198"/><path d="M 383.376 692.434 L 386.276 693.321"/><path d="M 398.231 696.979 L 464.859 717.361"/><path d="M 374.858 700.286 L 383.165 702.827"/><path d="M 395.12 706.484 L 443.514 721.289"/><path d="M 904.109 622.658 L 909.09 575.126"/><path d="M 917.569 590.164 L 918.951 576.978"/><path d="M 909.643 572.924 L 929.832 542.381"/><path d="M 918.054 578.334 L 929.879 560.445"/><path d="M 1037.5 537.956 A 5 3.49219 -289.207 0 0 1039.54 534.362"/><path d="M 926.089 566.179 L 927.742 565.603"/><path d="M 943.554 560.095 L 1033.59 528.728"/><path d="M 918.703 579.342 L 922.616 577.978"/><path d="M 938.428 572.47 L 1037.5 537.956"/><path d="M 897.343 485.699 L 948.219 501.263"/><path d="M 973.444 508.98 L 1033.55 527.368"/><path d="M 896.091 495.774 L 928.329 505.636"/><path d="M 961.863 515.895 L 1019.67 533.579"/><path d="M 1080.4 465.389 A 5 3.22531 -148.36 0 0 1080.27 465.234"/><path d="M 1081.15 469.186 A 5 3.22531 -148.36 0 0 1080.4 465.389"/><path d="M 1038.95 536.722 A 5 3.22531 -148.36 0 0 1040.11 535.788"/><path d="M 1080.51 468.793 A 4.25 2.74152 -148.36 0 0 1080.1 465.87"/><path d="M 1080.14 469.224 A 4.25 2.74152 -148.36 0 0 1080.51 468.793"/><path d="M 1065.2 476.001 L 1032.47 529.119"/><path d="M 1081.15 469.186 L 1040.11 535.788"/><path d="M 1078.36 471.27 A 5 3.47916 -109.769 0 0 1079.86 465.173"/><path d="M 1074.98 461.859 L 964.386 501.609"/><path d="M 1078.36 471.27 L 963.203 512.661"/><path d="M 1080.26 465.229 A 5 3.18579 -72.9902 0 0 1080.13 464.062"/><path d="M 1021.3 444.328 L 977.54 430.942"/><path d="M 967.916 427.998 L 931.179 416.759"/><path d="M 916.262 412.196 L 879.948 401.087"/><path d="M 857.229 394.137 L 856.016 393.766"/><path d="M 1078.19 468.14 A 5 2.11691 -53.7585 0 0 1079.7 462.518"/><path d="M 982.135 393.366 A 5 2.11691 -53.7585 0 0 981.92 390.848"/><path d="M 981.92 390.848 A 5 2.11691 -53.7585 0 0 981.697 390.728"/><path d="M 1079.7 462.518 L 981.92 390.848"/><path d="M 1066.19 465.018 L 982.602 403.747"/><path d="M 956.745 488.012 L 973.637 397.263"/><path d="M 963.442 506.678 L 984.071 395.855"/><path d="M 923.199 372.56 L 914.349 369.852"/><path d="M 899.431 365.289 L 889.607 362.283"/><path d="M 877.555 358.596 L 848.624 349.746"/><path d="M 834.298 345.363 L 833.916 345.246"/><path d="M 973.429 398.383 L 918.564 381.599"/><path d="M 903.646 377.035 L 885.447 371.468"/><path d="M 873.395 367.781 L 830.244 354.58"/><path d="M 834.092 345.411 L 800.991 314.484"/><path d="M 828.063 353.463 L 788.144 316.167"/><path d="M 981.822 390.818 L 901.425 333.467"/><path d="M 974.31 397.743 L 907.173 349.851"/><path d="M 745.411 423.001 L 757.381 411.906"/><path d="M 770.104 400.112 L 781.913 389.167"/><path d="M 795.492 376.58 L 824.262 349.912"/><path d="M 739.595 442.027 L 768.441 415.29"/><path d="M 781.164 403.496 L 783.403 401.421"/><path d="M 796.983 388.834 L 833.02 355.43"/><path d="M 845.684 395.082 L 799.751 411.591"/><path d="M 779.796 418.763 L 755.128 427.629"/><path d="M 853.845 402.775 L 800.989 421.772"/><path d="M 786.511 426.976 L 740.286 443.59"/><path d="M 856.189 394.162 L 840.579 358.263"/><path d="M 847.816 399.984 L 829.757 358.454"/><path d="M 865.837 414.772 L 899.467 486.349"/><path d="M 849.83 404.218 L 853.427 411.874"/><path d="M 860.414 426.746 L 889.027 487.645"/><path d="M 780.991 525.281 L 797.502 519.529"/><path d="M 822.311 510.887 L 834.21 506.741"/><path d="M 854.486 499.678 L 894.449 485.756"/><path d="M 790.576 532.531 L 796.714 530.393"/><path d="M 816.617 523.459 L 845.064 513.55"/><path d="M 868.457 505.4 L 897.29 495.356"/><path d="M 774.06 520.039 L 764.495 498.388"/><path d="M 760.971 490.412 L 755.097 477.116"/><path d="M 751.091 468.048 L 739.559 441.946"/><path d="M 767.692 530.369 L 763.881 521.743"/><path d="M 757.641 507.62 L 752.951 497.005"/><path d="M 749.428 489.029 L 742.456 473.249"/><path d="M 702.655 559.632 L 734.873 545.136"/><path d="M 745.249 540.467 L 772.121 528.376"/><path d="M 723.451 561.241 L 749.381 549.574"/><path d="M 759.757 544.905 L 774.564 538.243"/><path d="M 911.741 569.75 L 902.105 566.802"/><path d="M 888.068 562.508 L 829.275 544.522"/><path d="M 795.866 534.302 L 790.914 532.787"/><path d="M 908.656 579.264 L 893.292 574.564"/><path d="M 879.255 570.27 L 809.527 548.938"/><path d="M 786.064 541.761 L 772.686 537.668"/><path d="M 250.127 726.831 L 330.1 724.539"/><path d="M 389.772 722.829 L 463.278 720.723"/><path d="M 267.339 733.841 L 321.698 732.283"/><path d="M 340.734 731.738 L 360.248 731.178"/><path d="M 367.763 730.963 L 374.016 730.784"/><path d="M 387.293 730.403 L 445.152 728.745"/><path d="M 365.584 708.833 L 367.027 723.481"/><path d="M 367.1 724.229 L 369.196 745.512"/><path d="M 356.457 692.677 L 357.14 699.616"/><path d="M 358.675 715.201 L 359.512 723.696"/><path d="M 359.585 724.445 L 363.403 763.214"/><path d="M 535.267 476.23 L 767.925 547.404"/><path d="M 533.073 483.402 L 755.215 551.359"/><path d="M 866.639 503.764 A 3.75 1.65134 -227.994 0 0 865.624 503.598"/><path d="M 866.639 503.763 L 884.069 519.461"/><path d="M 863.675 511.187 L 875.091 521.468"/><path d="M 865.227 502.964 A 3.75 2.38934 -72.9902 0 0 864.196 502.992"/><path d="M 866.057 503.553 A 3.75 2.38934 -72.9902 0 0 865.227 502.964"/><path d="M 673.603 444.343 A 3.75 2.38934 -72.9902 0 0 672.572 444.371"/><path d="M 865.227 502.964 L 830.684 492.397"/><path d="M 818.632 488.71 L 808.764 485.691"/><path d="M 793.069 480.89 L 673.603 444.343"/><path d="M 815.513 495.599 L 809.754 493.837"/><path d="M 794.06 489.036 L 691.65 457.707"/><path d="M 559.127 466.226 L 794.719 494.456"/><path d="M 810.053 496.293 L 814.933 496.878"/><path d="M 827.949 498.438 L 864.576 502.827"/><path d="M 569.609 475.036 L 727.074 493.904"/><path d="M 741.847 495.674 L 795.651 502.121"/><path d="M 810.985 503.959 L 811.689 504.043"/><path d="M 824.704 505.603 L 852.757 508.964"/><path d="M 795.348 536.141 L 674.768 444.938"/><path d="M 789.098 540.817 L 725.887 493.006"/><path d="M 715.207 484.928 L 670.747 451.3"/><path d="M 865.624 503.598 A 3.75 3.17151 -300.801 0 0 864.193 502.992"/><path d="M 812.246 533.114 L 862.209 503.329"/><path d="M 829.222 531.726 L 866.05 509.771"/><path d="M 672.569 444.371 A 3.75 1.91626 -280.374 0 0 671.83 444.24"/><path d="M 574.675 462.025 L 671.83 444.24"/><path d="M 579.828 468.706 L 671.559 451.914"/><path d="M 672.654 444.346 A 3.75 2.68652 -105.93 0 0 672.316 444.27"/><path d="M 671.736 452.048 L 652.269 457.605"/><path d="M 840.041 324.737 L 867.347 337.714"/><path d="M 878.241 342.891 L 883.529 345.404"/><path d="M 910.109 358.035 L 935.682 370.188"/><path d="M 790.993 309.733 L 880.434 352.237"/><path d="M 891.726 357.603 L 897.691 360.438"/><path d="M 913.701 368.046 L 970.553 395.063"/><path d="M 855.596 340.434 L 830.759 346.182"/><path d="M 885.419 341.229 L 867.665 345.339"/><path d="M 866.49 345.611 L 832.45 353.489"/><path d="M 875.381 393.695 L 909.328 392.871"/><path d="M 871.946 401.281 L 911.996 400.308"/><path d="M 925.162 399.988 L 928.046 399.918"/><path d="M 1036.52 443.273 L 980.234 416.465"/><path d="M 970.891 412.015 L 944.643 399.515"/><path d="M 1065.37 465.315 L 978.814 424.096"/><path d="M 969.471 419.646 L 927.238 399.533"/><path d="M 886.293 371.727 L 904.925 380.6"/><path d="M 920.942 388.228 L 929.654 392.377"/><path d="M 952.019 391.834 L 928.759 392.399"/><path d="M 973.348 398.818 L 928.941 399.897"/><path d="M 772.142 560.754 A 7 5.02225 -113.497 0 0 777.462 562.169"/><path d="M 788.399 557.414 L 777.462 562.169"/><path d="M 576.503 496.688 A 7 2.6969 -223.629 0 0 575.259 501.253"/><path d="M 575.259 501.253 A 7 2.6969 -223.629 0 0 576.116 501.623"/><path d="M 568.604 494.271 L 575.259 501.253"/><path d="M 562.293 467.361 L 585.023 491.205"/><path d="M 905.774 513.782 A 6.25 4.05084 -75.3165 0 0 905.835 514.593"/><path d="M 911.582 506.218 A 6.25 4.05084 -75.3165 0 0 905.774 513.782"/><path d="M 927.625 510.422 L 911.582 506.218"/><path d="M 957.093 503.137 L 912.906 506.976"/><path d="M 717.135 448.139 A 5.25 3.33209 -250.271 0 0 711.763 454.341"/><path d="M 711.763 454.341 A 5.25 3.33209 -250.271 0 0 711.97 456.08"/><path d="M 717.473 447.198 A 6.25 3.96677 -250.271 0 0 711.145 455.828"/><path d="M 719.005 448.56 A 6.25 3.96677 -250.271 0 0 717.473 447.198"/><path d="M 699.447 440.734 L 717.473 447.198"/><path d="M 795.137 536.81 A 7.5 3.06995 -341.924 0 0 799.713 541.646"/><path d="M 799.713 541.646 A 7.5 3.06995 -341.924 0 0 809.328 541.633"/><path d="M 753.766 663.525 L 789.022 555.503"/><path d="M 794.349 539.184 L 795.068 536.979"/><path d="M 768.009 668.231 L 809.268 541.817"/><path d="M 795.081 536.987 A 7.5 3.06995 -341.924 0 0 807.35 542.926"/><path d="M 797.271 513.835 A 7.5 0.453064 -6.93483 0 0 810.013 512.497"/><path d="M 807.35 542.926 A 7.5 3.06995 -341.924 0 0 809.34 541.642"/><path d="M 810.013 512.497 A 7.5 0.453064 -6.93483 0 0 811.954 511.923"/><path d="M 797.084 513.785 L 797.254 515.36 L 797.382 516.936 L 797.468 518.508 L 797.512 520.074 L 797.514 521.634 L 797.475 523.183 L 797.393 524.72 L 797.271 526.242 L 797.107 527.747 L 796.903 529.234 L 796.659 530.698 L 796.299 532.499 L 795.989 533.82 L 795.65 535.107 L 795.278 536.367 L 795.081 536.987"/><path d="M 809.341 541.642 A 57.4542 43.4087 -281.105 0 0 811.971 511.948"/><path d="M 797.677 513.863 A 7.5 0.453064 -6.93483 0 0 811.957 511.949"/><path d="M 756.952 179.041 A 7.5 0.453064 -6.93483 0 0 771.174 177.079"/><path d="M 797.067 513.76 A 7.5 0.453064 -6.93483 0 0 797.677 513.863"/><path d="M 811.957 511.949 L 771.233 177.126"/><path d="M 797.067 513.76 L 756.349 178.988"/><path d="M 757.319 179.044 A 7.5 0.453064 -6.93483 0 0 771.18 177.13"/><path d="M 767.905 162.506 A 7.5 0.929382 -18.3411 0 0 754.5 166.454"/><path d="M 756.29 178.941 A 7.5 0.453064 -6.93483 0 0 757.319 179.044"/><path d="M 754.5 166.454 A 7.5 0.929382 -18.3411 0 0 753.667 167.226"/><path d="M 771.18 177.13 A 75.5572 75.5572 0 0 0 767.905 162.506"/><path d="M 756.289 178.941 A 60.5574 60.5574 0 0 0 753.667 167.226"/><path d="M 767.938 162.605 A 7.5 0.929382 -18.3411 0 0 754.782 166.299"/><path d="M 748.662 112.991 A 7.5 0.929382 -18.3411 0 0 738.315 116.627"/><path d="M 738.315 116.627 A 7.5 0.929382 -18.3411 0 0 737.248 117.531"/><path d="M 767.954 162.483 L 751.486 112.811"/><path d="M 753.683 167.104 L 737.248 117.531"/><path d="M 748.662 112.991 A 7.5 0.929382 -18.3411 0 0 738.761 116.394"/><path d="M 675.179 91.8635 A 7.5 4.05432 -147.147 0 0 677.022 97.5072"/><path d="M 738.761 116.394 A 7.5 0.929382 -18.3411 0 0 737.249 117.531"/><path d="M 677.022 97.5072 A 7.5 4.05432 -147.147 0 0 687.78 100.001"/><path d="M 675.179 91.8635 L 675.807 90.9156 L 676.455 89.987 L 677.122 89.078 L 677.81 88.1892 L 678.514 87.3235 L 679.232 86.4856 L 680.356 85.256 L 681.521 84.0776 L 682.727 82.9527 L 683.958 81.895 L 684.996 81.0684 L 686.196 80.1826 L 687.425 79.3477 L 688.683 78.5649 L 689.327 78.1911 L 690.161 77.7321 L 690.996 77.3015 L 692.05 76.796 L 693.098 76.3352 L 694.169 75.9058 L 695.159 75.5441 L 696.351 75.1537 L 697.574 74.8027 L 698.562 74.5538 L 699.517 74.343 L 700.483 74.1586 L 701.398 74.0101 L 702.886 73.8225 L 704.392 73.6996 L 705.259 73.6587 L 706.114 73.6397 L 706.969 73.6417 L 707.834 73.6652 L 708.785 73.7153 L 709.725 73.7903 L 710.676 73.8918 L 712.196 74.1068 L 713.522 74.3484 L 714.831 74.636 L 716.125 74.9694 L 717.412 75.349 L 718.689 75.7742 L 719.429 76.0441 L 720.469 76.4486 L 721.988 77.1014 L 723.487 77.8176 L 724.966 78.5958 L 726.46 79.4569 L 727.371 80.0202 L 728.271 80.6069 L 729.255 81.2813 L 730.21 81.9723 L 731.177 82.7088 L 732.644 83.8992 L 733.95 85.0383 L 735.225 86.2275 L 736.486 87.4822 L 737.915 89.0068 L 738.892 90.1177 L 739.647 91.0151 L 740.35 91.8848 L 741.65 93.5847 L 742.703 95.0571 L 743.719 96.5673 L 744.697 98.1135 L 745.636 99.6939 L 746.535 101.306 L 747.394 102.95 L 748.212 104.622 L 748.989 106.322 L 749.361 107.181"/><path d="M 687.78 100.001 L 688.647 98.7251 L 689.551 97.5238 L 690.487 96.4012 L 691.212 95.6065 L 691.954 94.8556 L 692.71 94.1484 L 693.748 93.2667 L 694.468 92.7117 L 695.197 92.1932 L 695.934 91.7112 L 696.68 91.2651 L 697.635 90.7526 L 698.228 90.4652 L 698.827 90.1987 L 699.428 89.9539 L 700.369 89.616 L 701.379 89.312 L 702.443 89.0555 L 703.518 88.8599 L 704.351 88.7513 L 705.19 88.6788 L 706.153 88.6403 L 707.125 88.6491 L 708.201 88.7137 L 709.288 88.8366 L 710.458 89.0328 L 711.627 89.2946 L 712.799 89.623 L 713.978 90.0199 L 715.149 90.4805 L 716.112 90.9095 L 717.075 91.3851 L 718.038 91.9069 L 719.111 92.5453 L 720.361 93.3663 L 721.018 93.8315 L 721.67 94.3187 L 722.787 95.2095 L 723.713 96.006 L 724.627 96.847 L 725.528 97.7313 L 726.635 98.8978 L 727.822 100.255 L 728.87 101.552 L 729.785 102.771 L 730.576 103.894 L 731.344 105.053 L 732.087 106.246 L 732.804 107.472 L 733.495 108.728 L 734.157 110.013 L 734.789 111.327 L 735.392 112.666 L 735.963 114.029 L 736.502 115.415 L 737.008 116.821 L 737.249 117.531"/><path d="M 547.596 464.519 A 7.5 0.452301 -186.941 0 0 561.876 462.603"/><path d="M 546.986 464.416 A 7.5 0.452301 -186.941 0 0 547.596 464.519"/><path d="M 565.62 493.358 L 578.897 602.416"/><path d="M 546.986 464.416 L 547.127 465.57"/><path d="M 548.924 480.332 L 548.933 480.41"/><path d="M 549.925 488.557 L 561.514 583.753"/><path d="M 564.391 607.383 L 564.783 610.605"/><path d="M 549.671 434.547 A 7.5 3.06934 -161.932 0 0 551.676 437.977"/><path d="M 546.973 464.416 A 7.5 0.452301 -186.941 0 0 559.91 463.151"/><path d="M 549.599 434.722 A 57.4529 43.407 -281.104 0 0 546.973 464.416"/><path d="M 563.803 439.55 L 563.395 440.887 L 563.024 442.254 L 562.689 443.65 L 562.393 445.072 L 562.134 446.518 L 561.915 447.986 L 561.736 449.474 L 561.597 450.979 L 561.498 452.5 L 561.44 454.034 L 561.424 455.579 L 561.449 457.132 L 561.515 458.692 L 561.623 460.256 L 561.773 461.821 L 561.863 462.604"/><path d="M 675.179 91.8635 A 7.5 4.05432 -147.147 0 0 677.589 98.0496"/><path d="M 651.11 129.136 A 7.5 4.05432 -147.147 0 0 653.521 135.322"/><path d="M 677.589 98.0496 A 7.5 4.05432 -147.147 0 0 687.78 100.001"/><path d="M 653.521 135.322 A 7.5 4.05432 -147.147 0 0 663.711 137.273"/><path d="M 675.179 91.8635 L 651.11 129.135"/><path d="M 687.78 100.001 L 663.711 137.273"/><path d="M 645.401 141.286 A 7.5 3.06934 -161.932 0 0 649.882 146.286"/><path d="M 549.612 434.731 A 7.5 3.06934 -161.932 0 0 554.258 439.397"/><path d="M 554.258 439.397 A 7.5 3.06934 -161.932 0 0 563.872 439.383"/><path d="M 645.235 141.62 L 549.612 434.731"/><path d="M 659.372 146.651 L 594.236 346.311"/><path d="M 589.583 360.574 L 563.872 439.383"/><path d="M 652.424 134.201 A 7.5 4.05432 -147.147 0 0 653.927 135.687"/><path d="M 645.285 141.654 A 7.5 3.06934 -161.932 0 0 649.111 145.941"/><path d="M 653.927 135.687 A 7.5 4.05432 -147.147 0 0 663.986 136.847"/><path d="M 649.111 145.941 A 7.5 3.06934 -161.932 0 0 659.545 146.307"/><path d="M 650.877 129.617 A 59.3702 45.2844 -283.561 0 0 645.285 141.654"/><path d="M 663.754 137.323 A 40.0322 27.556 -276.889 0 0 659.545 146.307"/><path d="M 766.162 562.644 L 767.134 562.654 L 769.077 562.643 L 770.328 562.623 L 772.827 562.562"/><path d="M 766.079 562.641 A 1.72104 1.72104 0 0 0 766.162 562.644"/></g><g stroke="rgb(0, 0, 0)" stroke-width="0.13" stroke-linecap="butt" stroke-linejoin="miter" fill="none"><path d="M 772.827 562.562 L 772.527 561.804"/></g><g stroke="rgb(0, 0, 0)" stroke-width="0.35" stroke-linecap="butt" stroke-linejoin="miter" fill="none"><path d="M 772.827 562.562 L 773.236 562.541 L 773.388 562.524 L 773.491 562.498 L 773.522 562.482 L 773.537 562.461 L 773.536 562.436"/><path d="M 773.536 562.436 L 773.525 562.418 L 773.482 562.376 L 773.413 562.325 L 773.205 562.198 L 772.451 561.758"/></g><g stroke="rgb(0, 0, 0)" stroke-width="0.13" stroke-linecap="butt" stroke-linejoin="miter" fill="none"><path d="M 766.163 562.644 A 3.62897 2.60367 -293.497 0 0 767.155 562.829"/></g><g stroke="rgb(0, 0, 0)" stroke-width="0.35" stroke-linecap="butt" stroke-linejoin="miter" fill="none"><path d="M 771.419 560.979 A 6.60938 4.742 -293.497 0 0 772.451 561.758"/><path d="M 772.142 560.754 A 7 5.02225 -293.497 0 0 776.125 562.47"/><path d="M 776.125 562.47 A 7 5.02225 -293.497 0 0 777.462 562.169"/><path d="M 765.951 562.68 A 3.75015 3.75015 0 0 0 767.155 562.829"/><path d="M 767.155 562.829 L 776.124 562.47"/><path d="M 898.877 508.377 A 2.25 1.56561 -109.769 1 0 900.398 512.611"/><path d="M 900.398 512.611 A 2.25 1.56561 -109.769 0 0 901.295 510.928"/><path d="M 901.295 510.928 A 2.25 1.56561 -109.769 0 0 898.877 508.377"/><path d="M 899.023 507.587 L 900.14 507.52 L 902.386 507.419 L 905.416 507.328"/><path d="M 897.513 509.068 A 2.99847 2.08578 -289.742 0 0 897.65 511.134"/><path d="M 899.023 507.587 A 3.00018 2.08759 -289.771 0 0 897.513 509.068"/><path d="M 897.65 511.134 A 3.00031 2.08789 -289.764 0 0 898.907 512.947"/><path d="M 898.907 512.947 A 2.66742 2.66742 0 0 0 899.158 513.114"/><path d="M 899.158 513.114 A 133.877 133.877 0 0 0 900.485 513.882"/><path d="M 900.485 513.882 A 221.815 221.815 0 0 0 902.912 515.247"/></g><g stroke="rgb(0, 0, 0)" stroke-width="0.13" stroke-linecap="butt" stroke-linejoin="miter" fill="none"><path d="M 905.416 507.328 L 905.482 510.017"/><path d="M 899.158 513.114 A 3.67575 2.38239 -255.316 0 0 899.297 513.203"/></g><g stroke="rgb(0, 0, 0)" stroke-width="0.35" stroke-linecap="butt" stroke-linejoin="miter" fill="none"><path d="M 905.6 509.726 A 5.94696 3.85443 -255.316 0 0 905.033 514.773"/><path d="M 911.582 506.218 A 6.25 4.05084 -255.316 0 0 910.885 506.131"/><path d="M 910.885 506.131 A 6.25 4.05084 -255.316 0 0 905.835 514.593"/><path d="M 905.6 509.727 L 905.878 509.08 L 906.005 508.767 L 906.157 508.324 L 906.21 508.09 L 906.226 507.88"/><path d="M 906.226 507.88 L 906.198 507.7 L 906.123 507.556 L 906.002 507.448 L 905.901 507.397 L 905.784 507.361 L 905.609 507.333 L 905.416 507.328"/></g><g stroke="rgb(0, 0, 0)" stroke-width="0.13" stroke-linecap="butt" stroke-linejoin="miter" fill="none"><path d="M 901.133 506.198 A 3.67575 2.38239 -255.316 0 0 899.023 507.587"/></g><g stroke="rgb(0, 0, 0)" stroke-width="0.35" stroke-linecap="butt" stroke-linejoin="miter" fill="none"><path d="M 899.297 513.203 L 900.485 513.882"/><path d="M 898.907 512.947 A 3.75 3.75 0 0 0 899.297 513.203"/><path d="M 901.133 506.198 L 910.885 506.131"/><path d="M 901.133 506.198 A 3.75 3.75 0 0 0 897.513 509.068"/><path d="M 721.628 457.922 A 2.25 1.56561 -289.769 1 0 720.106 453.687"/><path d="M 719.21 455.225 A 2.25 1.56561 -289.769 0 0 721.628 457.922"/><path d="M 720.106 453.687 A 2.25 1.56561 -289.769 0 0 719.21 455.225"/></g><g stroke="rgb(0, 0, 0)" stroke-width="0.13" stroke-linecap="butt" stroke-linejoin="miter" fill="none"><path d="M 715.11 449.11 L 714.88 456.97"/></g><g stroke="rgb(0, 0, 0)" stroke-width="0.35" stroke-linecap="butt" stroke-linejoin="miter" fill="none"><path d="M 720.494 458.689 A 80.8793 80.8793 0 0 0 721.334 458.714"/><path d="M 721.334 458.714 A 3.00027 2.08762 -289.772 0 0 722.849 457.659"/><path d="M 722.849 457.659 A 3 2.08749 -109.769 0 0 721.493 453.278"/><path d="M 721.493 453.278 L 720.378 452.527 L 718.136 451.054 L 715.11 449.11"/><path d="M 724.057 451.861 L 721.74 450.326 L 718.152 448.017"/><path d="M 725.957 454.267 A 3.00024 2.08783 -289.766 0 0 724.639 452.259"/><path d="M 726.033 456.138 A 2.99762 2.08499 -289.727 0 0 725.957 454.267"/></g><g stroke="rgb(0, 0, 0)" stroke-width="0.13" stroke-linecap="butt" stroke-linejoin="miter" fill="none"><path d="M 721.334 458.714 A 3.67575 2.29895 -250.72 0 0 722.088 458.996"/><path d="M 724.483 452.149 A 3.67575 2.29895 -250.72 0 0 721.493 453.278"/></g><g stroke="rgb(0, 0, 0)" stroke-width="0.35" stroke-linecap="butt" stroke-linejoin="miter" fill="none"><path d="M 722.088 458.996 L 721.295 458.933"/><path d="M 722.088 458.996 A 3.75 3.75 0 0 0 726.033 456.138"/><path d="M 724.483 452.149 L 724.057 451.861"/><path d="M 716.759 446.942 L 716.183 446.554"/><path d="M 724.639 452.259 A 3.75006 3.75006 0 0 0 724.483 452.149"/><path d="M 587.567 506.972 A 2.25 1.56561 -289.769 1 0 586.045 502.738"/><path d="M 585.374 503.352 A 2.25 1.56561 -289.769 0 0 587.567 506.972"/><path d="M 587.855 503.527 A 2.25 1.56561 -289.769 0 0 588.461 505.212"/><path d="M 586.045 502.738 A 2.25 1.56561 -289.769 0 0 585.374 503.352"/></g><g stroke="rgb(0, 0, 0)" stroke-width="0.13" stroke-linecap="butt" stroke-linejoin="miter" fill="none"><path d="M 579.629 503.46 L 582.271 498.452"/></g><g stroke="rgb(0, 0, 0)" stroke-width="0.35" stroke-linecap="butt" stroke-linejoin="miter" fill="none"><path d="M 588.532 503.356 A 267.348 267.348 0 0 0 586.337 499.697"/><path d="M 588.826 506.974 A 3.17215 2.20728 -289.77 0 0 588.532 503.356"/><path d="M 586.386 507.674 A 3.17285 2.20746 -289.767 0 0 588.826 506.974"/><path d="M 586.284 507.616 A 2.60123 2.60123 0 0 0 586.387 507.674"/><path d="M 586.284 507.616 L 585.314 507.032 L 583.374 505.833 L 579.629 503.46"/><path d="M 579.629 503.46 L 579.133 503.168 L 578.586 502.891 L 578.006 502.625 L 577.447 502.374 L 577 502.144"/><path d="M 577 502.144 L 576.785 501.999 L 576.634 501.854"/></g><g stroke="rgb(0, 0, 0)" stroke-width="0.13" stroke-linecap="butt" stroke-linejoin="miter" fill="none"><path d="M 576.634 501.854 L 578.963 497.44"/></g><g stroke="rgb(0, 0, 0)" stroke-width="0.35" stroke-linecap="butt" stroke-linejoin="miter" fill="none"><path d="M 591.628 505.791 A 2.9183 2.9183 0 0 0 591.811 505.104"/><path d="M 576.619 496.723 A 7 2.6969 -223.629 0 0 575.683 501.367"/><path d="M 578.173 497.199 A 6.60938 2.54642 -223.629 0 0 576.634 501.854"/><path d="M 585.691 491.655 A 7 2.6969 -223.629 0 0 584.116 491.173"/></g><g stroke="rgb(0, 0, 0)" stroke-width="0.13" stroke-linecap="butt" stroke-linejoin="miter" fill="none"><path d="M 591.236 502.384 A 3.62897 1.39813 -223.629 0 0 588.532 503.356"/></g><g stroke="rgb(0, 0, 0)" stroke-width="0.35" stroke-linecap="butt" stroke-linejoin="miter" fill="none"><path d="M 591.812 505.104 A 3.17233 2.20755 -289.772 0 0 591.236 502.384"/><path d="M 591.236 502.384 A 200.691 200.691 0 0 0 590.374 500.931"/><path d="M 591.663 505.7 L 591.628 505.79"/><path d="M 586.387 507.674 A 3.75 3.75 0 0 0 591.628 505.79"/><path d="M 577 502.144 L 575.683 501.367"/></g></svg>