G04 EAGLE Gerber RS-274X export*
G75*
%MOMM*%
%FSLAX34Y34*%
%LPD*%
%INTop Copper*%
%IPPOS*%
%AMOC8*
5,1,8,0,0,1.08239X$1,22.5*%
G01*
%ADD10R,1.258000X1.258000*%
%ADD11C,1.258000*%
%ADD12R,1.000000X1.100000*%
%ADD13R,0.800000X0.800000*%
%ADD14R,1.200000X0.750000*%
%ADD15R,2.100000X1.000000*%
%ADD16R,5.850000X4.900000*%
%ADD17R,0.600000X1.150000*%
%ADD18R,1.981200X0.558800*%
%ADD19C,2.100000*%
%ADD20C,3.400000*%
%ADD21R,0.650000X1.200000*%
%ADD22R,1.200000X0.650000*%
%ADD23R,1.100000X1.000000*%
%ADD24C,1.508000*%
%ADD25C,0.508000*%
%ADD26C,0.152400*%
%ADD27C,0.756400*%


D10*
X431800Y57150D03*
D11*
X431800Y37150D03*
D10*
X355600Y38100D03*
D11*
X355600Y58100D03*
D12*
X508000Y65650D03*
X508000Y48650D03*
X311150Y67700D03*
X311150Y84700D03*
X330200Y296300D03*
X330200Y313300D03*
D13*
X376350Y88900D03*
X398350Y88900D03*
D14*
X391650Y361950D03*
X357650Y361950D03*
X398000Y234950D03*
X364000Y234950D03*
D15*
X399100Y116900D03*
X399100Y162500D03*
D16*
X331100Y139700D03*
D17*
X111100Y216200D03*
X101600Y216200D03*
X92100Y216200D03*
X92100Y190200D03*
X111100Y190200D03*
D18*
X253238Y203200D03*
X253238Y215900D03*
X253238Y228600D03*
X253238Y241300D03*
X203962Y241300D03*
X203962Y228600D03*
X203962Y215900D03*
X203962Y203200D03*
D17*
X327000Y267000D03*
X317500Y267000D03*
X308000Y267000D03*
X308000Y241000D03*
X327000Y241000D03*
D19*
X443950Y288300D03*
D20*
X488950Y261300D03*
X542950Y314800D03*
X488950Y368300D03*
D19*
X443950Y348300D03*
X443950Y135900D03*
D20*
X488950Y108900D03*
X542950Y162400D03*
X488950Y215900D03*
D19*
X443950Y195900D03*
D21*
X307900Y357800D03*
X327100Y357800D03*
X317500Y378800D03*
D22*
X357800Y301700D03*
X357800Y282500D03*
X378800Y292100D03*
D12*
X110100Y38100D03*
X93100Y38100D03*
X131200Y139700D03*
X148200Y139700D03*
X110100Y165100D03*
X93100Y165100D03*
X148200Y342900D03*
X131200Y342900D03*
X131200Y368300D03*
X148200Y368300D03*
X93100Y368300D03*
X110100Y368300D03*
X148200Y317500D03*
X131200Y317500D03*
X110100Y317500D03*
X93100Y317500D03*
X93100Y342900D03*
X110100Y342900D03*
X110100Y292100D03*
X93100Y292100D03*
X148200Y292100D03*
X131200Y292100D03*
X148200Y38100D03*
X131200Y38100D03*
X93100Y266700D03*
X110100Y266700D03*
X148200Y266700D03*
X131200Y266700D03*
X93100Y241300D03*
X110100Y241300D03*
D23*
X139700Y186300D03*
X139700Y169300D03*
X304800Y313300D03*
X304800Y296300D03*
D12*
X326000Y215900D03*
X309000Y215900D03*
X309000Y190500D03*
X326000Y190500D03*
X326000Y336550D03*
X309000Y336550D03*
X376800Y330200D03*
X359800Y330200D03*
X131200Y63500D03*
X148200Y63500D03*
X110100Y63500D03*
X93100Y63500D03*
X93100Y88900D03*
X110100Y88900D03*
X131200Y88900D03*
X148200Y88900D03*
X131200Y114300D03*
X148200Y114300D03*
X93100Y114300D03*
X110100Y114300D03*
X110100Y139700D03*
X93100Y139700D03*
D24*
X45640Y279400D02*
X30560Y279400D01*
X30560Y304800D02*
X45640Y304800D01*
X45640Y342900D02*
X30560Y342900D01*
X30560Y368300D02*
X45640Y368300D01*
X45640Y120650D02*
X30560Y120650D01*
X30560Y146050D02*
X45640Y146050D01*
X45640Y57150D02*
X30560Y57150D01*
X30560Y82550D02*
X45640Y82550D01*
X602060Y82550D02*
X617140Y82550D01*
X617140Y57150D02*
X602060Y57150D01*
X602060Y215900D02*
X617140Y215900D01*
X617140Y190500D02*
X602060Y190500D01*
X602060Y165100D02*
X617140Y165100D01*
X617140Y139700D02*
X602060Y139700D01*
X602060Y342900D02*
X617140Y342900D01*
X617140Y317500D02*
X602060Y317500D01*
X602060Y292100D02*
X617140Y292100D01*
X617140Y266700D02*
X602060Y266700D01*
D25*
X609600Y317500D02*
X590550Y317500D01*
X584200Y311150D01*
X584200Y298450D01*
X590550Y292100D01*
X609600Y292100D01*
X558800Y260350D02*
X552450Y260350D01*
X489900Y260350D01*
X488950Y261300D01*
X558800Y260350D02*
X590550Y292100D01*
X488950Y177800D02*
X488950Y108900D01*
X488950Y177800D02*
X520700Y209550D01*
X520700Y228600D01*
X552450Y260350D01*
D26*
X400050Y88900D02*
X431800Y57150D01*
X400050Y88900D02*
X398350Y88900D01*
X399100Y89650D02*
X399100Y116900D01*
X399100Y89650D02*
X398350Y88900D01*
X399100Y116900D02*
X399100Y132400D01*
X443950Y177250D02*
X443950Y195900D01*
X443950Y177250D02*
X399100Y132400D01*
X398000Y234950D02*
X404900Y234950D01*
X443950Y195900D01*
X400050Y237000D02*
X398000Y234950D01*
X400050Y260350D02*
X412750Y273050D01*
X412750Y323850D01*
X437200Y348300D01*
X400050Y260350D02*
X400050Y237000D01*
X400050Y361950D02*
X391650Y361950D01*
X412750Y349250D02*
X412750Y323850D01*
X412750Y349250D02*
X400050Y361950D01*
X440300Y65650D02*
X431800Y57150D01*
X440300Y65650D02*
X508000Y65650D01*
X590550Y82550D02*
X609600Y82550D01*
X573650Y65650D02*
X508000Y65650D01*
X573650Y65650D02*
X590550Y82550D01*
X443950Y348300D02*
X437200Y348300D01*
D25*
X590550Y342900D02*
X609600Y342900D01*
X565150Y368300D02*
X488950Y368300D01*
X565150Y368300D02*
X590550Y342900D01*
X590550Y266700D02*
X609600Y266700D01*
X590550Y266700D02*
X546100Y222250D01*
X546100Y165550D02*
X542950Y162400D01*
X546100Y165550D02*
X546100Y222250D01*
D26*
X93100Y38100D02*
X74050Y57150D01*
X38100Y57150D01*
X38100Y82550D01*
X57150Y165100D02*
X93100Y165100D01*
X57150Y165100D02*
X38100Y146050D01*
X38100Y120650D01*
X38100Y368300D02*
X93100Y368300D01*
X38100Y368300D02*
X38100Y342900D01*
X165100Y241300D02*
X203962Y241300D01*
X165100Y241300D02*
X152400Y228600D01*
X110178Y228600D02*
X101600Y220022D01*
X101600Y216200D01*
X139700Y228600D02*
X152400Y228600D01*
D27*
X139700Y228600D03*
D26*
X110178Y228600D01*
D27*
X152400Y190500D03*
D26*
X148200Y186300D01*
X139700Y186300D01*
X93100Y241300D02*
X82550Y241300D01*
D27*
X82550Y241300D03*
D26*
X486800Y48650D02*
X508000Y48650D01*
X475300Y37150D02*
X431800Y37150D01*
X475300Y37150D02*
X486800Y48650D01*
X376350Y88900D02*
X375500Y88050D01*
X355600Y68150D01*
X355600Y58100D01*
X329000Y84700D02*
X311150Y84700D01*
X329000Y84700D02*
X355600Y58100D01*
X311150Y84700D02*
X311150Y119750D01*
X331100Y139700D01*
X327100Y337650D02*
X327100Y357800D01*
X327100Y337650D02*
X326000Y336550D01*
X327100Y316400D02*
X330200Y313300D01*
X327100Y316400D02*
X327100Y337650D01*
X330200Y313300D02*
X336550Y313300D01*
X370450Y313300D01*
X376800Y319650D02*
X376800Y330200D01*
X376800Y319650D02*
X370450Y313300D01*
X354550Y285750D02*
X357800Y282500D01*
X354550Y285750D02*
X349250Y285750D01*
X342900Y292100D01*
X342900Y306950D02*
X336550Y313300D01*
X342900Y306950D02*
X342900Y292100D01*
X317500Y273050D02*
X317500Y267000D01*
X326950Y282500D02*
X357800Y282500D01*
X326950Y282500D02*
X317500Y273050D01*
X292100Y241300D02*
X253238Y241300D01*
X309000Y224400D02*
X309000Y215900D01*
X298450Y234950D02*
X292100Y241300D01*
X298450Y234950D02*
X309000Y224400D01*
X317500Y153300D02*
X331100Y139700D01*
X317500Y207400D02*
X309000Y215900D01*
X317500Y207400D02*
X317500Y153300D01*
X380900Y88050D02*
X431800Y37150D01*
X380900Y88050D02*
X375500Y88050D01*
X317500Y260350D02*
X317500Y267000D01*
X317500Y260350D02*
X311150Y254000D01*
X304800Y254000D01*
X298450Y247650D01*
X298450Y234950D01*
X508000Y48650D02*
X510150Y50800D01*
X577850Y50800D02*
X584200Y57150D01*
X609600Y57150D01*
X577850Y50800D02*
X510150Y50800D01*
X311150Y50800D02*
X311150Y67700D01*
X311150Y50800D02*
X323850Y38100D01*
X355600Y38100D01*
D27*
X323850Y228600D03*
D26*
X327000Y231750D01*
X327000Y241000D01*
D27*
X374650Y152400D03*
D26*
X384750Y162500D02*
X399100Y162500D01*
X384750Y162500D02*
X374650Y152400D01*
X310075Y189425D02*
X309000Y190500D01*
X310075Y189425D02*
X311150Y188350D01*
X311150Y177800D01*
D27*
X311150Y177800D03*
D26*
X298450Y203200D02*
X253238Y203200D01*
X298450Y203200D02*
X310075Y191575D01*
X310075Y189425D01*
X131200Y38100D02*
X110100Y38100D01*
X148200Y38100D02*
X148200Y63500D01*
X131200Y63500D02*
X110100Y63500D01*
X93100Y63500D02*
X93100Y88900D01*
X110100Y88900D02*
X131200Y88900D01*
X148200Y88900D02*
X148200Y114300D01*
X131200Y114300D02*
X110100Y114300D01*
X93100Y114300D02*
X93100Y139700D01*
X110100Y139700D02*
X131200Y139700D01*
X110100Y172200D02*
X92100Y190200D01*
X110100Y172200D02*
X110100Y165100D01*
X114300Y169300D01*
X139700Y169300D01*
X148200Y160800D02*
X148200Y139700D01*
X148200Y160800D02*
X139700Y169300D01*
X131200Y368300D02*
X110100Y368300D01*
X148200Y368300D02*
X148200Y342900D01*
X131200Y342900D02*
X110100Y342900D01*
X93100Y342900D02*
X93100Y317500D01*
X110100Y317500D02*
X131200Y317500D01*
X148200Y317500D02*
X148200Y292100D01*
X131200Y292100D02*
X110100Y292100D01*
X93100Y292100D02*
X93100Y266700D01*
X110100Y266700D02*
X131200Y266700D01*
X92100Y223300D02*
X92100Y216200D01*
X92100Y223300D02*
X109025Y240225D01*
X110100Y241300D01*
X148200Y249800D02*
X148200Y266700D01*
X138625Y240225D02*
X109025Y240225D01*
X138625Y240225D02*
X148200Y249800D01*
X124100Y203200D02*
X111100Y190200D01*
X124100Y203200D02*
X203962Y203200D01*
X164800Y216200D02*
X111100Y216200D01*
X165100Y215900D02*
X203962Y215900D01*
X165100Y215900D02*
X164800Y216200D01*
X304800Y296300D02*
X330200Y296300D01*
X308000Y293100D02*
X304800Y296300D01*
X308000Y293100D02*
X308000Y267000D01*
X298450Y215900D02*
X253238Y215900D01*
D27*
X298450Y215900D03*
X304800Y323850D03*
D26*
X309000Y328050D01*
X309000Y336550D01*
X304800Y323850D02*
X304800Y313300D01*
X309000Y336550D02*
X309000Y356700D01*
X307900Y357800D01*
X308000Y233900D02*
X326000Y215900D01*
X308000Y233900D02*
X308000Y241000D01*
X326000Y215900D02*
X326000Y190500D01*
X378800Y249750D02*
X378800Y292100D01*
X378800Y249750D02*
X364000Y234950D01*
X364000Y220200D01*
X374650Y209550D01*
D27*
X374650Y209550D03*
D26*
X336250Y267000D02*
X327000Y267000D01*
X336250Y267000D02*
X336550Y266700D01*
X342900Y273050D01*
D27*
X342900Y273050D03*
X349250Y330200D03*
D26*
X359800Y330200D01*
X357800Y301700D02*
X357800Y294300D01*
X355600Y292100D01*
D27*
X355600Y292100D03*
D26*
X332400Y378800D02*
X317500Y378800D01*
X349250Y361950D02*
X355600Y361950D01*
X357650Y361950D01*
X349250Y361950D02*
X332400Y378800D01*
D27*
X361950Y349250D03*
D26*
X355600Y355600D01*
X355600Y361950D01*
D25*
X590550Y215900D02*
X609600Y215900D01*
X590550Y215900D02*
X584200Y209550D01*
X584200Y190500D01*
X609600Y190500D01*
X609600Y165100D02*
X584200Y165100D01*
X584200Y190500D01*
X590550Y139700D02*
X609600Y139700D01*
X590550Y139700D02*
X584200Y146050D01*
X584200Y165100D01*
M02*
