G04 EAGLE Gerber RS-274X export*
G75*
%MOMM*%
%FSLAX34Y34*%
%LPD*%
%IN*%
%IPPOS*%
%AMOC8*
5,1,8,0,0,1.08239X$1,22.5*%
G01*
%ADD10C,0.254000*%


D10*
X0Y-12700D02*
X647702Y-12700D01*
X647702Y444400D01*
X0Y444400D01*
X0Y-12700D01*
X41400Y418576D02*
X41332Y417531D01*
X41195Y416492D01*
X40990Y415465D01*
X40719Y414453D01*
X40383Y413461D01*
X39982Y412493D01*
X39518Y411554D01*
X38995Y410646D01*
X38413Y409775D01*
X37775Y408944D01*
X37084Y408157D01*
X36343Y407416D01*
X35556Y406725D01*
X34725Y406088D01*
X33854Y405506D01*
X32946Y404982D01*
X32007Y404518D01*
X31039Y404117D01*
X30047Y403781D01*
X29035Y403510D01*
X28008Y403305D01*
X26969Y403169D01*
X25924Y403100D01*
X24876Y403100D01*
X23831Y403169D01*
X22792Y403305D01*
X21765Y403510D01*
X20753Y403781D01*
X19761Y404117D01*
X18793Y404518D01*
X17854Y404982D01*
X16946Y405506D01*
X16075Y406088D01*
X15244Y406725D01*
X14457Y407416D01*
X13716Y408157D01*
X13025Y408944D01*
X12388Y409775D01*
X11806Y410646D01*
X11282Y411554D01*
X10818Y412493D01*
X10417Y413461D01*
X10081Y414453D01*
X9810Y415465D01*
X9605Y416492D01*
X9469Y417531D01*
X9400Y418576D01*
X9400Y419624D01*
X9469Y420669D01*
X9605Y421708D01*
X9810Y422735D01*
X10081Y423747D01*
X10417Y424739D01*
X10818Y425707D01*
X11282Y426646D01*
X11806Y427554D01*
X12388Y428425D01*
X13025Y429256D01*
X13716Y430043D01*
X14457Y430784D01*
X15244Y431475D01*
X16075Y432113D01*
X16946Y432695D01*
X17854Y433218D01*
X18793Y433682D01*
X19761Y434083D01*
X20753Y434419D01*
X21765Y434690D01*
X22792Y434895D01*
X23831Y435032D01*
X24876Y435100D01*
X25924Y435100D01*
X26969Y435032D01*
X28008Y434895D01*
X29035Y434690D01*
X30047Y434419D01*
X31039Y434083D01*
X32007Y433682D01*
X32946Y433218D01*
X33854Y432695D01*
X34725Y432113D01*
X35556Y431475D01*
X36343Y430784D01*
X37084Y430043D01*
X37775Y429256D01*
X38413Y428425D01*
X38995Y427554D01*
X39518Y426646D01*
X39982Y425707D01*
X40383Y424739D01*
X40719Y423747D01*
X40990Y422735D01*
X41195Y421708D01*
X41332Y420669D01*
X41400Y419624D01*
X41400Y418576D01*
X638300Y12176D02*
X638232Y11131D01*
X638095Y10092D01*
X637890Y9065D01*
X637619Y8053D01*
X637283Y7061D01*
X636882Y6093D01*
X636418Y5154D01*
X635895Y4246D01*
X635313Y3375D01*
X634675Y2544D01*
X633984Y1757D01*
X633243Y1016D01*
X632456Y325D01*
X631625Y-313D01*
X630754Y-895D01*
X629846Y-1418D01*
X628907Y-1882D01*
X627939Y-2283D01*
X626947Y-2619D01*
X625935Y-2890D01*
X624908Y-3095D01*
X623869Y-3232D01*
X622824Y-3300D01*
X621776Y-3300D01*
X620731Y-3232D01*
X619692Y-3095D01*
X618665Y-2890D01*
X617653Y-2619D01*
X616661Y-2283D01*
X615693Y-1882D01*
X614754Y-1418D01*
X613846Y-895D01*
X612975Y-313D01*
X612144Y325D01*
X611357Y1016D01*
X610616Y1757D01*
X609925Y2544D01*
X609288Y3375D01*
X608706Y4246D01*
X608182Y5154D01*
X607718Y6093D01*
X607317Y7061D01*
X606981Y8053D01*
X606710Y9065D01*
X606505Y10092D01*
X606369Y11131D01*
X606300Y12176D01*
X606300Y13224D01*
X606369Y14269D01*
X606505Y15308D01*
X606710Y16335D01*
X606981Y17347D01*
X607317Y18339D01*
X607718Y19307D01*
X608182Y20246D01*
X608706Y21154D01*
X609288Y22025D01*
X609925Y22856D01*
X610616Y23643D01*
X611357Y24384D01*
X612144Y25075D01*
X612975Y25713D01*
X613846Y26295D01*
X614754Y26818D01*
X615693Y27282D01*
X616661Y27683D01*
X617653Y28019D01*
X618665Y28290D01*
X619692Y28495D01*
X620731Y28632D01*
X621776Y28700D01*
X622824Y28700D01*
X623869Y28632D01*
X624908Y28495D01*
X625935Y28290D01*
X626947Y28019D01*
X627939Y27683D01*
X628907Y27282D01*
X629846Y26818D01*
X630754Y26295D01*
X631625Y25713D01*
X632456Y25075D01*
X633243Y24384D01*
X633984Y23643D01*
X634675Y22856D01*
X635313Y22025D01*
X635895Y21154D01*
X636418Y20246D01*
X636882Y19307D01*
X637283Y18339D01*
X637619Y17347D01*
X637890Y16335D01*
X638095Y15308D01*
X638232Y14269D01*
X638300Y13224D01*
X638300Y12176D01*
X41400Y12176D02*
X41332Y11131D01*
X41195Y10092D01*
X40990Y9065D01*
X40719Y8053D01*
X40383Y7061D01*
X39982Y6093D01*
X39518Y5154D01*
X38995Y4246D01*
X38413Y3375D01*
X37775Y2544D01*
X37084Y1757D01*
X36343Y1016D01*
X35556Y325D01*
X34725Y-313D01*
X33854Y-895D01*
X32946Y-1418D01*
X32007Y-1882D01*
X31039Y-2283D01*
X30047Y-2619D01*
X29035Y-2890D01*
X28008Y-3095D01*
X26969Y-3232D01*
X25924Y-3300D01*
X24876Y-3300D01*
X23831Y-3232D01*
X22792Y-3095D01*
X21765Y-2890D01*
X20753Y-2619D01*
X19761Y-2283D01*
X18793Y-1882D01*
X17854Y-1418D01*
X16946Y-895D01*
X16075Y-313D01*
X15244Y325D01*
X14457Y1016D01*
X13716Y1757D01*
X13025Y2544D01*
X12388Y3375D01*
X11806Y4246D01*
X11282Y5154D01*
X10818Y6093D01*
X10417Y7061D01*
X10081Y8053D01*
X9810Y9065D01*
X9605Y10092D01*
X9469Y11131D01*
X9400Y12176D01*
X9400Y13224D01*
X9469Y14269D01*
X9605Y15308D01*
X9810Y16335D01*
X10081Y17347D01*
X10417Y18339D01*
X10818Y19307D01*
X11282Y20246D01*
X11806Y21154D01*
X12388Y22025D01*
X13025Y22856D01*
X13716Y23643D01*
X14457Y24384D01*
X15244Y25075D01*
X16075Y25713D01*
X16946Y26295D01*
X17854Y26818D01*
X18793Y27282D01*
X19761Y27683D01*
X20753Y28019D01*
X21765Y28290D01*
X22792Y28495D01*
X23831Y28632D01*
X24876Y28700D01*
X25924Y28700D01*
X26969Y28632D01*
X28008Y28495D01*
X29035Y28290D01*
X30047Y28019D01*
X31039Y27683D01*
X32007Y27282D01*
X32946Y26818D01*
X33854Y26295D01*
X34725Y25713D01*
X35556Y25075D01*
X36343Y24384D01*
X37084Y23643D01*
X37775Y22856D01*
X38413Y22025D01*
X38995Y21154D01*
X39518Y20246D01*
X39982Y19307D01*
X40383Y18339D01*
X40719Y17347D01*
X40990Y16335D01*
X41195Y15308D01*
X41332Y14269D01*
X41400Y13224D01*
X41400Y12176D01*
X638300Y418576D02*
X638232Y417531D01*
X638095Y416492D01*
X637890Y415465D01*
X637619Y414453D01*
X637283Y413461D01*
X636882Y412493D01*
X636418Y411554D01*
X635895Y410646D01*
X635313Y409775D01*
X634675Y408944D01*
X633984Y408157D01*
X633243Y407416D01*
X632456Y406725D01*
X631625Y406088D01*
X630754Y405506D01*
X629846Y404982D01*
X628907Y404518D01*
X627939Y404117D01*
X626947Y403781D01*
X625935Y403510D01*
X624908Y403305D01*
X623869Y403169D01*
X622824Y403100D01*
X621776Y403100D01*
X620731Y403169D01*
X619692Y403305D01*
X618665Y403510D01*
X617653Y403781D01*
X616661Y404117D01*
X615693Y404518D01*
X614754Y404982D01*
X613846Y405506D01*
X612975Y406088D01*
X612144Y406725D01*
X611357Y407416D01*
X610616Y408157D01*
X609925Y408944D01*
X609288Y409775D01*
X608706Y410646D01*
X608182Y411554D01*
X607718Y412493D01*
X607317Y413461D01*
X606981Y414453D01*
X606710Y415465D01*
X606505Y416492D01*
X606369Y417531D01*
X606300Y418576D01*
X606300Y419624D01*
X606369Y420669D01*
X606505Y421708D01*
X606710Y422735D01*
X606981Y423747D01*
X607317Y424739D01*
X607718Y425707D01*
X608182Y426646D01*
X608706Y427554D01*
X609288Y428425D01*
X609925Y429256D01*
X610616Y430043D01*
X611357Y430784D01*
X612144Y431475D01*
X612975Y432113D01*
X613846Y432695D01*
X614754Y433218D01*
X615693Y433682D01*
X616661Y434083D01*
X617653Y434419D01*
X618665Y434690D01*
X619692Y434895D01*
X620731Y435032D01*
X621776Y435100D01*
X622824Y435100D01*
X623869Y435032D01*
X624908Y434895D01*
X625935Y434690D01*
X626947Y434419D01*
X627939Y434083D01*
X628907Y433682D01*
X629846Y433218D01*
X630754Y432695D01*
X631625Y432113D01*
X632456Y431475D01*
X633243Y430784D01*
X633984Y430043D01*
X634675Y429256D01*
X635313Y428425D01*
X635895Y427554D01*
X636418Y426646D01*
X636882Y425707D01*
X637283Y424739D01*
X637619Y423747D01*
X637890Y422735D01*
X638095Y421708D01*
X638232Y420669D01*
X638300Y419624D01*
X638300Y418576D01*
M02*
