G04 EAGLE Gerber RS-274X export*
G75*
%MOMM*%
%FSLAX34Y34*%
%LPD*%
%INSoldermask Bottom*%
%IPPOS*%
%AMOC8*
5,1,8,0,0,1.08239X$1,22.5*%
G01*
%ADD10C,3.403200*%
%ADD11R,1.461200X1.461200*%
%ADD12C,1.461200*%
%ADD13C,2.303200*%
%ADD14C,3.603200*%
%ADD15C,1.711200*%
%ADD16C,0.959600*%


D10*
X25400Y419100D03*
X622300Y12700D03*
X25400Y12700D03*
X622300Y419100D03*
D11*
X431800Y57150D03*
D12*
X431800Y37150D03*
D11*
X355600Y38100D03*
D12*
X355600Y58100D03*
D13*
X443950Y288300D03*
D14*
X488950Y261300D03*
X542950Y314800D03*
X488950Y368300D03*
D13*
X443950Y348300D03*
X443950Y135900D03*
D14*
X488950Y108900D03*
X542950Y162400D03*
X488950Y215900D03*
D13*
X443950Y195900D03*
D15*
X45640Y279400D02*
X30560Y279400D01*
X30560Y304800D02*
X45640Y304800D01*
X45640Y342900D02*
X30560Y342900D01*
X30560Y368300D02*
X45640Y368300D01*
X45640Y120650D02*
X30560Y120650D01*
X30560Y146050D02*
X45640Y146050D01*
X45640Y57150D02*
X30560Y57150D01*
X30560Y82550D02*
X45640Y82550D01*
X602060Y82550D02*
X617140Y82550D01*
X617140Y57150D02*
X602060Y57150D01*
X602060Y215900D02*
X617140Y215900D01*
X617140Y190500D02*
X602060Y190500D01*
X602060Y165100D02*
X617140Y165100D01*
X617140Y139700D02*
X602060Y139700D01*
X602060Y342900D02*
X617140Y342900D01*
X617140Y317500D02*
X602060Y317500D01*
X602060Y292100D02*
X617140Y292100D01*
X617140Y266700D02*
X602060Y266700D01*
D16*
X139700Y228600D03*
X152400Y190500D03*
X82550Y241300D03*
X323850Y228600D03*
X374650Y152400D03*
X311150Y177800D03*
X298450Y215900D03*
X304800Y323850D03*
X374650Y209550D03*
X342900Y273050D03*
X349250Y330200D03*
X355600Y292100D03*
X361950Y349250D03*
M02*
