<?xml version="1.0" encoding="utf-8" ?><!DOCTYPE svg PUBLIC "-//W3C//DTD SVG 1.1//EN" "http://www.w3.org/Graphics/SVG/1.1/DTD/svg11.dtd" 
[ <!ATTLIST svg 
  xmlns:dsy CDATA #FIXED "http://www.3ds.com/print"  
    dsy:text-version CDATA #IMPLIED > 

  <!ATTLIST text 
  xmlns:dsy CDATA #FIXED "http://www.3ds.com/print" 
    dsy:text-version CDATA #IMPLIED > 
]><svg xmlns="http://www.w3.org/2000/svg" xmlns:dsy="http://www.3ds.com/print" dsy:text-version="18000" width="841" height="594" viewBox="0 0 841 594" version="1.1"><g stroke="rgb(0, 0, 0)" stroke-width="0.13" stroke-linecap="butt" stroke-linejoin="miter" fill="none"><path d="M 395.5 270 L 395.5 246.569"/><path d="M 445.5 270 L 445.5 246.569"/></g><g stroke="rgb(0, 0, 0)" stroke-width="0.35" stroke-linecap="butt" stroke-linejoin="miter" fill="none"><path d="M 425.5 301.107 L 395.5 301.107"/><path d="M 395.5 301.107 L 395.5 272"/><path d="M 445.5 278.909 A 14 14 0 1 0 445.5 306.071"/><path d="M 425.5 305.107 L 395.5 305.107"/><path d="M 445.5 278.909 L 445.5 272"/><path d="M 445.5 322 L 445.5 306.071"/><path d="M 445.5 322 L 395.5 322"/><path d="M 395.5 322 L 395.5 305.107"/><path d="M 395.5 272 L 445.5 272"/><path d="M 425.5 301.107 L 425.5 305.107"/></g><g stroke="rgb(0, 0, 0)" stroke-width="0.13" stroke-linecap="butt" stroke-linejoin="miter" fill="none"><path d="M 417.381 245.656 L 417.492 246.07 L 417.739 246.392 L 418.102 246.594 L 418.566 246.67 L 419.076 246.579 L 419.474 246.332 L 419.726 245.939 L 419.822 245.434 L 419.736 244.965 L 419.494 244.597 L 419.116 244.36 L 418.627 244.274 L 418.249 244.335 L 417.956 244.501 L 418.097 243.558 L 419.631 243.558 L 419.631 243.145 L 417.76 243.145 L 417.482 245 L 417.886 245 L 418.178 244.763 L 418.551 244.678 L 418.874 244.733 L 419.121 244.895 L 419.278 245.142 L 419.333 245.459 L 419.278 245.777 L 419.116 246.024 L 418.869 246.181 L 418.551 246.236 L 418.284 246.201 L 418.077 246.085 L 417.926 245.903 L 417.85 245.656 L 417.381 245.656 L 417.381 245.656 z M 421.153 244.859 L 421.228 245.651 L 421.465 246.216 L 421.844 246.559 L 422.368 246.67 L 422.887 246.559 L 423.266 246.216 L 423.498 245.651 L 423.578 244.859 L 423.498 244.073 L 423.402 243.76 L 423.266 243.503 L 422.887 243.16 L 422.368 243.044 L 421.844 243.16 L 421.465 243.508 L 421.228 244.073 L 421.153 244.859 L 421.153 244.859 z M 421.637 244.859 L 421.677 244.249 L 421.803 243.81 L 422.03 243.553 L 422.368 243.462 L 422.701 243.553 L 422.928 243.81 L 423.054 244.249 L 423.094 244.859 L 423.054 245.475 L 422.928 245.913 L 422.701 246.171 L 422.368 246.256 L 422.03 246.171 L 421.803 245.913 L 421.677 245.475 L 421.637 244.859 L 421.637 244.859 z" stroke="none" fill-rule="evenodd" fill="rgb(0, 0, 0)"/><path d="M 443.568 249.087 L 445.5 248.569 L 443.568 248.051"/><path d="M 397.432 248.051 L 395.5 248.569 L 397.432 249.087"/><path d="M 395.5 248.569 L 445.5 248.569"/></g></svg>