<?xml version="1.0" encoding="utf-8" ?><!DOCTYPE svg PUBLIC "-//W3C//DTD SVG 1.1//EN" "http://www.w3.org/Graphics/SVG/1.1/DTD/svg11.dtd" 
[ <!ATTLIST svg 
  xmlns:dsy CDATA #FIXED "http://www.3ds.com/print"  
    dsy:text-version CDATA #IMPLIED > 

  <!ATTLIST text 
  xmlns:dsy CDATA #FIXED "http://www.3ds.com/print" 
    dsy:text-version CDATA #IMPLIED > 
]><svg xmlns="http://www.w3.org/2000/svg" xmlns:dsy="http://www.3ds.com/print" dsy:text-version="18000" width="841" height="594" viewBox="0 0 841 594" version="1.1"><g stroke="rgb(0, 0, 0)" stroke-width="0.13" stroke-linecap="butt" stroke-linejoin="miter" fill="none"><path d="M 375.421 241.646 L 375.397 273.788"/><path d="M 495.259 241.737 L 495.234 273.879"/></g><g stroke="rgb(0, 0, 0)" stroke-width="0.35" stroke-linecap="butt" stroke-linejoin="miter" fill="none"><path d="M 375.422 239.646 L 495.26 239.737"/><path d="M 345.74 160.004 L 375.422 239.646"/><path d="M 345.74 99.7038 L 345.74 160.004"/><path d="M 355.532 89.6236 L 345.74 99.7038"/><path d="M 495.26 89.6236 L 355.532 89.6236"/><path d="M 495.26 239.737 L 495.26 89.6236"/><circle cx="480.564" cy="181.254" r="5"/><circle cx="480.294" cy="144.02" r="5"/></g><g stroke="rgb(0, 0, 0)" stroke-width="0.13" stroke-linecap="butt" stroke-linejoin="miter" fill="none"><path d="M 425.888 269.827 L 426.347 269.827 L 426.349 266.302 L 426.006 266.301 L 425.915 266.609 L 425.734 266.816 L 425.456 266.937 L 425.073 266.977 L 425.073 267.335 L 425.89 267.335 L 425.888 269.827 L 425.888 269.827 z M 429.624 269.829 L 430.083 269.83 L 430.085 266.305 L 429.742 266.304 L 429.651 266.612 L 429.47 266.819 L 429.192 266.939 L 428.809 266.979 L 428.809 267.337 L 429.626 267.338 L 429.624 269.829 L 429.624 269.829 z M 432.241 268.964 L 432.316 269.362 L 432.533 269.67 L 432.876 269.862 L 433.329 269.933 L 433.627 269.898 L 433.894 269.807 L 434.121 269.651 L 434.313 269.43 L 434.465 269.152 L 434.576 268.809 L 434.642 268.416 L 434.667 267.962 L 434.582 267.251 L 434.335 266.731 L 433.942 266.418 L 433.403 266.307 L 432.908 266.398 L 432.535 266.639 L 432.293 267.012 L 432.212 267.481 L 432.292 267.965 L 432.529 268.334 L 432.882 268.566 L 433.33 268.642 L 433.805 268.547 L 434.163 268.254 L 434.082 268.814 L 433.92 269.212 L 433.673 269.449 L 433.335 269.525 L 433.073 269.489 L 432.881 269.378 L 432.755 269.201 L 432.705 268.964 L 432.241 268.964 L 432.241 268.964 z M 432.701 267.477 L 432.752 267.164 L 432.893 266.917 L 433.115 266.761 L 433.402 266.706 L 433.7 266.761 L 433.927 266.918 L 434.068 267.16 L 434.123 267.473 L 434.067 267.79 L 433.926 268.027 L 433.694 268.173 L 433.386 268.224 L 433.109 268.173 L 432.892 268.026 L 432.751 267.794 L 432.701 267.477 L 432.701 267.477 z M 436.839 269.835 L 437.535 269.835 L 437.535 269.084 L 436.839 269.083 L 436.839 269.835 L 436.839 269.835 z M 440.299 267.951 L 440.041 268.092 L 439.865 268.289 L 439.754 268.536 L 439.718 268.834 L 439.798 269.282 L 440.03 269.631 L 440.408 269.853 L 440.922 269.939 L 441.432 269.854 L 441.81 269.632 L 442.043 269.284 L 442.129 268.835 L 442.089 268.538 L 441.983 268.291 L 441.801 268.094 L 441.549 267.952 L 441.751 267.831 L 441.892 267.665 L 441.978 267.463 L 442.009 267.216 L 441.928 266.858 L 441.717 266.571 L 441.374 266.384 L 440.925 266.313 L 440.471 266.383 L 440.128 266.569 L 439.911 266.857 L 439.835 267.215 L 439.86 267.462 L 439.946 267.664 L 440.299 267.951 L 440.299 267.951 z M 440.202 268.824 L 440.248 268.557 L 440.394 268.355 L 440.621 268.224 L 440.924 268.179 L 441.221 268.224 L 441.448 268.356 L 441.594 268.558 L 441.645 268.825 L 441.594 269.112 L 441.447 269.329 L 441.22 269.47 L 440.923 269.515 L 440.62 269.47 L 440.393 269.328 L 440.247 269.111 L 440.202 268.824 L 440.202 268.824 z M 440.314 267.255 L 440.355 267.034 L 440.476 266.862 L 440.668 266.756 L 440.925 266.716 L 441.177 266.757 L 441.369 266.863 L 441.49 267.034 L 441.535 267.256 L 441.489 267.483 L 441.368 267.66 L 441.176 267.776 L 440.924 267.811 L 440.667 267.77 L 440.475 267.659 L 440.354 267.482 L 440.314 267.255 L 440.314 267.255 z M 444.936 269.841 L 445.39 269.841 L 445.391 268.974 L 445.89 268.974 L 445.89 268.571 L 445.391 268.571 L 445.392 266.417 L 444.934 266.417 L 443.399 268.529 L 443.398 268.972 L 444.937 268.974 L 444.936 269.841 L 444.936 269.841 z M 443.822 268.569 L 444.938 267.002 L 444.937 268.57 L 443.822 268.569 L 443.822 268.569 z" stroke="none" fill-rule="evenodd" fill="rgb(0, 0, 0)"/><path d="M 493.304 272.395 L 495.236 271.879 L 493.304 271.36"/><path d="M 377.33 271.272 L 375.398 271.788 L 377.33 272.307"/><path d="M 375.398 271.788 L 495.236 271.879"/></g></svg>