<?xml version="1.0" encoding="utf-8" ?><!DOCTYPE svg PUBLIC "-//W3C//DTD SVG 1.1//EN" "http://www.w3.org/Graphics/SVG/1.1/DTD/svg11.dtd" 
[ <!ATTLIST svg 
  xmlns:dsy CDATA #FIXED "http://www.3ds.com/print"  
    dsy:text-version CDATA #IMPLIED > 

  <!ATTLIST text 
  xmlns:dsy CDATA #FIXED "http://www.3ds.com/print" 
    dsy:text-version CDATA #IMPLIED > 
]><svg xmlns="http://www.w3.org/2000/svg" xmlns:dsy="http://www.3ds.com/print" dsy:text-version="18000" width="297" height="210" viewBox="0 0 297 210" version="1.1"><g stroke="rgb(0, 0, 0)" stroke-width="0.13" stroke-linecap="butt" stroke-linejoin="miter" fill="none"><path d="M 144.5 95 L 144.5 69.7327"/><path d="M 152.5 95 L 152.5 69.7327"/></g><g stroke="rgb(0, 0, 0)" stroke-width="0.35" stroke-linecap="butt" stroke-linejoin="miter" fill="none"><path d="M 156.5 97 L 156.5 93"/><path d="M 156.5 97 L 152.5 97"/><path d="M 156.5 93 L 140.5 93"/><path d="M 144.5 97 L 140.5 97"/><path d="M 140.5 97 L 140.5 93"/><path d="M 144.5 115.322 L 144.5 97"/><path d="M 146.5 117 L 144.5 115.322"/><path d="M 152.5 115.322 L 152.5 97"/><path d="M 150.5 117 L 146.5 117"/><path d="M 150.5 117 L 152.5 115.322"/></g><g stroke="rgb(0, 0, 0)" stroke-width="0.13" stroke-linecap="butt" stroke-linejoin="miter" fill="none"><path d="M 147.875 67.8465 L 147.617 67.9877 L 147.441 68.1844 L 147.33 68.4315 L 147.295 68.7291 L 147.375 69.1779 L 147.607 69.5259 L 147.986 69.7478 L 148.5 69.8335 L 149.009 69.7478 L 149.388 69.5259 L 149.62 69.1779 L 149.705 68.7291 L 149.665 68.4315 L 149.559 68.1844 L 149.378 67.9877 L 149.125 67.8465 L 149.327 67.7255 L 149.468 67.5591 L 149.554 67.3573 L 149.584 67.1102 L 149.504 66.7521 L 149.292 66.4647 L 148.949 66.2781 L 148.5 66.2075 L 148.046 66.2781 L 147.703 66.4647 L 147.486 66.7521 L 147.411 67.1102 L 147.436 67.3573 L 147.522 67.5591 L 147.875 67.8465 L 147.875 67.8465 z M 147.779 68.719 L 147.824 68.4517 L 147.97 68.25 L 148.197 68.1189 L 148.5 68.0735 L 148.798 68.1189 L 149.025 68.25 L 149.171 68.4517 L 149.221 68.719 L 149.171 69.0065 L 149.025 69.2233 L 148.798 69.3645 L 148.5 69.4099 L 148.197 69.3645 L 147.97 69.2233 L 147.824 69.0065 L 147.779 68.719 L 147.779 68.719 z M 147.89 67.1505 L 147.93 66.9286 L 148.051 66.7572 L 148.243 66.6513 L 148.5 66.6109 L 148.752 66.6513 L 148.944 66.7572 L 149.065 66.9286 L 149.11 67.1505 L 149.065 67.3775 L 148.944 67.554 L 148.752 67.67 L 148.5 67.7053 L 148.243 67.665 L 148.051 67.554 L 147.93 67.3775 L 147.89 67.1505 L 147.89 67.1505 z" stroke="none" fill-rule="evenodd" fill="rgb(0, 0, 0)"/><path d="M 154.432 71.215 L 152.5 71.7327 L 154.432 72.2503"/><path d="M 142.568 72.2503 L 144.5 71.7327 L 142.568 71.215"/><path d="M 139.5 71.7327 L 157.5 71.7327"/></g></svg>