<?xml version="1.0" encoding="utf-8" ?><!DOCTYPE svg PUBLIC "-//W3C//DTD SVG 1.1//EN" "http://www.w3.org/Graphics/SVG/1.1/DTD/svg11.dtd" 
[ <!ATTLIST svg 
  xmlns:dsy CDATA #FIXED "http://www.3ds.com/print"  
    dsy:text-version CDATA #IMPLIED > 

  <!ATTLIST text 
  xmlns:dsy CDATA #FIXED "http://www.3ds.com/print" 
    dsy:text-version CDATA #IMPLIED > 
]><svg xmlns="http://www.w3.org/2000/svg" xmlns:dsy="http://www.3ds.com/print" dsy:text-version="18000" width="420" height="297" viewBox="0 0 420 297" version="1.1"><g stroke="rgb(0, 0, 0)" stroke-width="0.35" stroke-linecap="butt" stroke-linejoin="miter" fill="none"><path d="M 308.635 120.033 L 308.635 130.033"/><path d="M 308.635 130.033 L 284.192 130.033"/><path d="M 284.192 130.033 L 284.192 120.033"/><path d="M 284.192 120.033 L 177.103 120.033"/><path d="M 177.103 120.033 L 177.103 130.033"/><path d="M 177.103 130.033 L 152.928 130.033"/><path d="M 152.928 130.033 L 152.928 120.033"/><path d="M 62.7576 120.033 L 62.7576 85.0334"/><path d="M 62.7576 85.0334 L 226.295 85.0334"/><path d="M 226.295 100.033 L 226.295 85.0334"/><path d="M 232.195 100.033 L 226.295 100.033"/><path d="M 232.195 85.0334 L 232.195 100.033"/><path d="M 232.195 85.0334 L 362.758 85.0334"/><path d="M 362.758 85.0334 L 362.758 120.033"/><path d="M 362.758 120.033 L 351.512 120.033"/><path d="M 351.508 120.033 L 351.512 120.033"/><path d="M 83.77 120.033 L 62.7576 120.033"/><path d="M 152.928 120.033 L 109.207 120.033"/><path d="M 351.506 119.92 A 12.5626 12.5626 0 0 0 351.377 118.71"/><path d="M 351.506 119.92 L 351.512 120.033"/><path d="M 351.508 120.033 A 12.4968 12.4968 0 0 0 326.54 120.034"/><path d="M 326.54 120.033 L 308.635 120.033"/><path d="M 109.207 120.033 A 12.7256 12.7256 0 1 0 83.77 120.033"/><circle cx="123.686" cy="100.679" r="4.19997"/><circle cx="350.968" cy="93.2013" r="4.19997"/><path d="M 160.905 119.538 L 168.805 119.538"/><path d="M 168.805 119.538 L 168.805 111.638"/><path d="M 168.805 111.638 L 160.905 111.638"/><path d="M 160.905 111.638 L 160.905 119.538"/><path d="M 291.788 111.638 L 291.788 119.538"/><path d="M 291.788 119.538 L 299.688 119.538"/><path d="M 299.688 119.538 L 299.688 111.638"/><path d="M 299.688 111.638 L 291.788 111.638"/></g></svg>