<?xml version="1.0" encoding="utf-8" ?><!DOCTYPE svg PUBLIC "-//W3C//DTD SVG 1.1//EN" "http://www.w3.org/Graphics/SVG/1.1/DTD/svg11.dtd" 
[ <!ATTLIST svg 
  xmlns:dsy CDATA #FIXED "http://www.3ds.com/print"  
    dsy:text-version CDATA #IMPLIED > 

  <!ATTLIST text 
  xmlns:dsy CDATA #FIXED "http://www.3ds.com/print" 
    dsy:text-version CDATA #IMPLIED > 
]><svg xmlns="http://www.w3.org/2000/svg" xmlns:dsy="http://www.3ds.com/print" dsy:text-version="18000" width="841" height="594" viewBox="0 0 841 594" version="1.1"><g stroke="rgb(0, 0, 0)" stroke-width="0.13" stroke-linecap="butt" stroke-linejoin="miter" fill="none"><path d="M 445 334.5 L 457.536 334.5"/><path d="M 445 259.5 L 457.536 259.5"/></g><g stroke="rgb(0, 0, 0)" stroke-width="0.35" stroke-linecap="butt" stroke-linejoin="miter" fill="none"><path d="M 398 259.5 L 398 334.5"/><path d="M 398 334.5 L 422.5 334.5"/><path d="M 422.5 334.5 L 422.5 324.5"/><path d="M 422.5 324.5 L 428.5 324.5"/><path d="M 428.5 324.5 L 428.5 334.5"/><path d="M 428.5 334.5 L 443 334.5"/><path d="M 443 334.5 L 443 259.5"/><path d="M 408 266.5 A 12.5 12.5 0 1 0 433 266.5"/><path d="M 443 259.5 L 433 259.5"/><path d="M 408 259.5 L 398 259.5"/><path d="M 433 266.5 L 433 259.5"/><path d="M 408 259.5 L 408 266.5"/></g><g stroke="rgb(0, 0, 0)" stroke-width="0.13" stroke-linecap="butt" stroke-linejoin="miter" fill="none"><path d="M 453.536 299.569 L 453.536 299.06 L 452.704 298.893 L 451.927 298.601 L 451.206 298.187 L 450.53 297.648 L 450.111 297.648 L 450.111 300.048 L 450.57 300.048 L 450.57 298.132 L 451.251 298.686 L 451.962 299.105 L 452.719 299.398 L 453.536 299.569 L 453.536 299.569 z M 452.623 296.383 L 453.036 296.272 L 453.359 296.025 L 453.561 295.662 L 453.637 295.198 L 453.546 294.688 L 453.299 294.29 L 452.905 294.038 L 452.401 293.942 L 451.932 294.028 L 451.564 294.27 L 451.327 294.648 L 451.241 295.137 L 451.302 295.515 L 451.468 295.808 L 450.525 295.667 L 450.525 294.133 L 450.111 294.133 L 450.111 296.004 L 451.967 296.282 L 451.967 295.878 L 451.73 295.586 L 451.645 295.213 L 451.7 294.89 L 451.861 294.643 L 452.108 294.486 L 452.426 294.431 L 452.744 294.486 L 452.991 294.648 L 453.147 294.895 L 453.203 295.213 L 453.168 295.48 L 453.052 295.687 L 452.87 295.838 L 452.623 295.914 L 452.623 296.383 L 452.623 296.383 z" stroke="none" fill-rule="evenodd" fill="rgb(0, 0, 0)"/><path d="M 455.018 332.568 L 455.536 334.5 L 456.053 332.568"/><path d="M 456.053 261.432 L 455.536 259.5 L 455.018 261.432"/><path d="M 455.536 334.5 L 455.536 259.5"/></g></svg>