<?xml version="1.0" encoding="utf-8" ?><!DOCTYPE svg PUBLIC "-//W3C//DTD SVG 1.1//EN" "http://www.w3.org/Graphics/SVG/1.1/DTD/svg11.dtd" 
[ <!ATTLIST svg 
  xmlns:dsy CDATA #FIXED "http://www.3ds.com/print"  
    dsy:text-version CDATA #IMPLIED > 

  <!ATTLIST text 
  xmlns:dsy CDATA #FIXED "http://www.3ds.com/print" 
    dsy:text-version CDATA #IMPLIED > 
]><svg xmlns="http://www.w3.org/2000/svg" xmlns:dsy="http://www.3ds.com/print" dsy:text-version="18000" width="841" height="594" viewBox="0 0 841 594" version="1.1"><g stroke="rgb(0, 0, 0)" stroke-width="0.13" stroke-linecap="butt" stroke-linejoin="miter" fill="none"><path d="M 396 331 L 355.081 331"/><path d="M 396 263 L 355.081 263"/></g><g stroke="rgb(0, 0, 0)" stroke-width="0.35" stroke-linecap="butt" stroke-linejoin="miter" fill="none"><path d="M 398 263 L 398 331"/><path d="M 398 331 L 422.5 331"/><path d="M 422.5 331 L 422.5 321"/><path d="M 422.5 321 L 428.5 321"/><path d="M 428.5 321 L 428.5 331"/><path d="M 428.5 331 L 443 331"/><path d="M 443 331 L 443 263"/><path d="M 408 263 L 398 263"/><path d="M 443 263 L 433 263"/><path d="M 408 263 A 12.5 12.5 0 1 0 433 263"/></g><g stroke="rgb(0, 0, 0)" stroke-width="0.13" stroke-linecap="butt" stroke-linejoin="miter" fill="none"><path d="M 352.524 297.658 L 352.115 297.753 L 351.813 297.975 L 351.621 298.318 L 351.556 298.762 L 351.591 299.06 L 351.687 299.317 L 351.843 299.544 L 352.065 299.735 L 352.342 299.887 L 352.68 299.998 L 353.079 300.068 L 353.528 300.088 L 354.244 300.008 L 354.763 299.761 L 355.076 299.362 L 355.182 298.818 L 355.091 298.328 L 354.854 297.955 L 354.481 297.713 L 354.007 297.627 L 353.528 297.713 L 353.159 297.945 L 352.927 298.303 L 352.847 298.747 L 352.948 299.226 L 353.235 299.584 L 352.68 299.508 L 352.282 299.347 L 352.045 299.1 L 351.964 298.757 L 352.005 298.505 L 352.11 298.313 L 352.287 298.187 L 352.524 298.122 L 352.524 297.658 L 352.524 297.658 z M 354.012 298.117 L 354.329 298.172 L 354.572 298.313 L 354.733 298.54 L 354.783 298.823 L 354.733 299.12 L 354.577 299.347 L 354.335 299.493 L 354.017 299.539 L 353.704 299.488 L 353.467 299.347 L 353.316 299.115 L 353.26 298.802 L 353.316 298.53 L 353.462 298.313 L 353.699 298.172 L 354.012 298.117 L 354.012 298.117 z M 353.195 295.757 L 353.336 296.015 L 353.533 296.191 L 353.78 296.302 L 354.077 296.337 L 354.526 296.257 L 354.874 296.025 L 355.096 295.646 L 355.182 295.132 L 355.096 294.623 L 354.874 294.244 L 354.526 294.012 L 354.077 293.927 L 353.78 293.967 L 353.533 294.073 L 353.336 294.254 L 353.195 294.507 L 353.074 294.305 L 352.907 294.164 L 352.706 294.078 L 352.458 294.048 L 352.1 294.128 L 351.813 294.34 L 351.626 294.683 L 351.556 295.132 L 351.626 295.586 L 351.813 295.929 L 352.1 296.146 L 352.458 296.221 L 352.706 296.196 L 352.907 296.11 L 353.195 295.757 L 353.195 295.757 z M 354.067 295.853 L 353.8 295.808 L 353.598 295.662 L 353.467 295.435 L 353.422 295.132 L 353.467 294.834 L 353.598 294.607 L 353.8 294.461 L 354.067 294.411 L 354.355 294.461 L 354.572 294.607 L 354.713 294.834 L 354.758 295.132 L 354.713 295.435 L 354.572 295.662 L 354.355 295.808 L 354.067 295.853 L 354.067 295.853 z M 352.499 295.742 L 352.277 295.702 L 352.105 295.581 L 352 295.389 L 351.959 295.132 L 352 294.88 L 352.105 294.688 L 352.277 294.567 L 352.499 294.522 L 352.726 294.567 L 352.902 294.688 L 353.018 294.88 L 353.054 295.132 L 353.013 295.389 L 352.902 295.581 L 352.726 295.702 L 352.499 295.742 L 352.499 295.742 z" stroke="none" fill-rule="evenodd" fill="rgb(0, 0, 0)"/><path d="M 357.599 264.932 L 357.081 263 L 356.563 264.932"/><path d="M 356.563 329.068 L 357.081 331 L 357.599 329.068"/><path d="M 357.081 331 L 357.081 263"/></g></svg>