<?xml version="1.0" encoding="utf-8" ?><!DOCTYPE svg PUBLIC "-//W3C//DTD SVG 1.1//EN" "http://www.w3.org/Graphics/SVG/1.1/DTD/svg11.dtd" 
[ <!ATTLIST svg 
  xmlns:dsy CDATA #FIXED "http://www.3ds.com/print"  
    dsy:text-version CDATA #IMPLIED > 

  <!ATTLIST text 
  xmlns:dsy CDATA #FIXED "http://www.3ds.com/print" 
    dsy:text-version CDATA #IMPLIED > 
]><svg xmlns="http://www.w3.org/2000/svg" xmlns:dsy="http://www.3ds.com/print" dsy:text-version="18000" width="841" height="594" viewBox="0 0 841 594" version="1.1"><g stroke="rgb(0, 0, 0)" stroke-width="0.13" stroke-linecap="butt" stroke-linejoin="miter" fill="none"><path d="M 453 346.843 L 488.791 346.843"/><path d="M 453 247.157 L 488.791 247.157"/></g><g stroke="rgb(0, 0, 0)" stroke-width="0.35" stroke-linecap="butt" stroke-linejoin="miter" fill="none"><path d="M 390 346.843 L 430 346.843"/><path d="M 430 346.843 L 425.995 337.68"/><path d="M 425.995 337.68 L 431.492 335.277"/><path d="M 431.492 335.277 L 436.548 346.843"/><path d="M 436.548 346.843 L 451 346.843"/><path d="M 451 346.843 L 451 247.157"/><path d="M 397.926 247.157 L 451 247.157"/><circle cx="408.893" cy="338.843" r="4.20007"/><path d="M 394.817 286.254 L 390 346.843"/><path d="M 397.926 247.157 L 395.293 280.272"/><path d="M 395.293 280.272 L 405.262 281.065"/><path d="M 404.786 287.046 L 405.262 281.065"/><path d="M 404.786 287.046 L 394.817 286.254"/></g><g stroke="rgb(0, 0, 0)" stroke-width="0.13" stroke-linecap="butt" stroke-linejoin="miter" fill="none"><path d="M 483.924 305.682 L 484.322 305.607 L 484.63 305.39 L 484.821 305.047 L 484.892 304.593 L 484.857 304.296 L 484.766 304.028 L 484.609 303.801 L 484.387 303.61 L 484.11 303.458 L 483.767 303.347 L 483.374 303.282 L 482.92 303.257 L 482.209 303.342 L 481.689 303.59 L 481.377 303.983 L 481.266 304.523 L 481.357 305.017 L 481.599 305.39 L 481.972 305.632 L 482.441 305.713 L 482.925 305.632 L 483.293 305.395 L 483.525 305.042 L 483.601 304.593 L 483.505 304.119 L 483.212 303.761 L 483.772 303.842 L 484.171 304.003 L 484.408 304.25 L 484.483 304.588 L 484.448 304.85 L 484.337 305.042 L 484.161 305.168 L 483.924 305.219 L 483.924 305.682 L 483.924 305.682 z M 482.436 305.224 L 482.123 305.173 L 481.876 305.032 L 481.72 304.81 L 481.664 304.523 L 481.72 304.225 L 481.876 303.998 L 482.118 303.857 L 482.431 303.801 L 482.748 303.857 L 482.985 303.998 L 483.132 304.23 L 483.182 304.538 L 483.132 304.815 L 482.985 305.032 L 482.753 305.173 L 482.436 305.224 L 482.436 305.224 z M 483.924 301.946 L 484.322 301.871 L 484.63 301.654 L 484.821 301.311 L 484.892 300.857 L 484.857 300.56 L 484.766 300.292 L 484.609 300.065 L 484.387 299.874 L 484.11 299.722 L 483.767 299.611 L 483.374 299.546 L 482.92 299.521 L 482.209 299.606 L 481.689 299.853 L 481.377 300.247 L 481.266 300.786 L 481.357 301.281 L 481.599 301.654 L 481.972 301.896 L 482.441 301.977 L 482.925 301.896 L 483.293 301.659 L 483.525 301.306 L 483.601 300.857 L 483.505 300.383 L 483.212 300.025 L 483.772 300.106 L 484.171 300.267 L 484.408 300.514 L 484.483 300.852 L 484.448 301.114 L 484.337 301.306 L 484.161 301.432 L 483.924 301.482 L 483.924 301.946 L 483.924 301.946 z M 482.436 301.487 L 482.123 301.437 L 481.876 301.296 L 481.72 301.074 L 481.664 300.786 L 481.72 300.489 L 481.876 300.262 L 482.118 300.121 L 482.431 300.065 L 482.748 300.121 L 482.985 300.262 L 483.132 300.494 L 483.182 300.802 L 483.132 301.079 L 482.985 301.296 L 482.753 301.437 L 482.436 301.487 L 482.436 301.487 z M 484.791 297.348 L 484.791 296.652 L 484.04 296.652 L 484.04 297.348 L 484.791 297.348 L 484.791 297.348 z M 482.234 292.054 L 481.826 292.149 L 481.523 292.371 L 481.331 292.714 L 481.266 293.158 L 481.301 293.456 L 481.397 293.713 L 481.553 293.94 L 481.775 294.131 L 482.052 294.283 L 482.39 294.394 L 482.789 294.464 L 483.238 294.484 L 483.954 294.404 L 484.473 294.157 L 484.786 293.758 L 484.892 293.214 L 484.801 292.724 L 484.564 292.351 L 484.191 292.109 L 483.717 292.023 L 483.238 292.109 L 482.869 292.341 L 482.637 292.699 L 482.557 293.143 L 482.658 293.622 L 482.945 293.98 L 482.39 293.904 L 481.992 293.743 L 481.755 293.496 L 481.674 293.153 L 481.715 292.901 L 481.82 292.709 L 481.997 292.583 L 482.234 292.518 L 482.234 292.054 L 482.234 292.054 z M 483.722 292.512 L 484.04 292.568 L 484.282 292.709 L 484.443 292.936 L 484.493 293.219 L 484.443 293.516 L 484.287 293.743 L 484.045 293.889 L 483.727 293.935 L 483.414 293.884 L 483.177 293.743 L 483.026 293.511 L 482.97 293.198 L 483.026 292.926 L 483.172 292.709 L 483.409 292.568 L 483.722 292.512 L 483.722 292.512 z M 483.924 290.738 L 484.322 290.663 L 484.63 290.446 L 484.821 290.103 L 484.892 289.649 L 484.857 289.351 L 484.766 289.084 L 484.609 288.857 L 484.387 288.665 L 484.11 288.514 L 483.767 288.403 L 483.374 288.338 L 482.92 288.312 L 482.209 288.398 L 481.689 288.645 L 481.377 289.039 L 481.266 289.578 L 481.357 290.073 L 481.599 290.446 L 481.972 290.688 L 482.441 290.769 L 482.925 290.688 L 483.293 290.451 L 483.525 290.098 L 483.601 289.649 L 483.505 289.175 L 483.212 288.817 L 483.772 288.897 L 484.171 289.059 L 484.408 289.306 L 484.483 289.644 L 484.448 289.906 L 484.337 290.098 L 484.161 290.224 L 483.924 290.274 L 483.924 290.738 L 483.924 290.738 z M 482.436 290.279 L 482.123 290.229 L 481.876 290.088 L 481.72 289.866 L 481.664 289.578 L 481.72 289.281 L 481.876 289.054 L 482.118 288.913 L 482.431 288.857 L 482.748 288.913 L 482.985 289.054 L 483.132 289.286 L 483.182 289.593 L 483.132 289.871 L 482.985 290.088 L 482.753 290.229 L 482.436 290.279 L 482.436 290.279 z" stroke="none" fill-rule="evenodd" fill="rgb(0, 0, 0)"/><path d="M 486.273 344.911 L 486.791 346.843 L 487.309 344.911"/><path d="M 487.309 249.089 L 486.791 247.157 L 486.273 249.089"/><path d="M 486.791 346.843 L 486.791 247.157"/></g></svg>