<?xml version="1.0" encoding="utf-8" ?><!DOCTYPE svg PUBLIC "-//W3C//DTD SVG 1.1//EN" "http://www.w3.org/Graphics/SVG/1.1/DTD/svg11.dtd" 
[ <!ATTLIST svg 
  xmlns:dsy CDATA #FIXED "http://www.3ds.com/print"  
    dsy:text-version CDATA #IMPLIED > 

  <!ATTLIST text 
  xmlns:dsy CDATA #FIXED "http://www.3ds.com/print" 
    dsy:text-version CDATA #IMPLIED > 
]><svg xmlns="http://www.w3.org/2000/svg" xmlns:dsy="http://www.3ds.com/print" dsy:text-version="18000" width="841" height="594" viewBox="0 0 841 594" version="1.1"><g stroke="rgb(0, 0, 0)" stroke-width="0.13" stroke-linecap="butt" stroke-linejoin="miter" fill="none"><path d="M 445 324.5 L 458.085 324.5"/><path d="M 445 269.5 L 458.085 269.5"/></g><g stroke="rgb(0, 0, 0)" stroke-width="0.35" stroke-linecap="butt" stroke-linejoin="miter" fill="none"><path d="M 398 269.5 L 398 324.5"/><path d="M 398 324.5 L 422.5 324.5"/><path d="M 422.5 324.5 L 422.5 314.5"/><path d="M 422.5 314.5 L 428.5 314.5"/><path d="M 428.5 314.5 L 428.5 324.5"/><path d="M 428.5 324.5 L 443 324.5"/><path d="M 443 324.5 L 443 269.5"/><path d="M 406.581 279.875 A 14 14 0 0 0 434.419 279.875"/><path d="M 443 269.5 L 434.5 269.5"/><path d="M 406.5 269.5 L 398 269.5"/><path d="M 434.5 279.875 L 434.5 269.5"/><path d="M 434.5 279.875 L 434.419 279.875"/><path d="M 406.581 279.875 L 406.5 279.875"/><path d="M 406.5 269.5 L 406.5 279.875"/></g><g stroke="rgb(0, 0, 0)" stroke-width="0.13" stroke-linecap="butt" stroke-linejoin="miter" fill="none"><path d="M 453.172 300.119 L 453.586 300.008 L 453.908 299.761 L 454.11 299.398 L 454.186 298.934 L 454.095 298.424 L 453.848 298.026 L 453.454 297.774 L 452.95 297.678 L 452.481 297.764 L 452.113 298.006 L 451.876 298.384 L 451.79 298.873 L 451.851 299.251 L 452.017 299.544 L 451.074 299.403 L 451.074 297.869 L 450.661 297.869 L 450.661 299.74 L 452.516 300.018 L 452.516 299.614 L 452.279 299.322 L 452.194 298.949 L 452.249 298.626 L 452.411 298.379 L 452.658 298.222 L 452.975 298.167 L 453.293 298.222 L 453.54 298.384 L 453.697 298.631 L 453.752 298.949 L 453.717 299.216 L 453.601 299.423 L 453.419 299.574 L 453.172 299.65 L 453.172 300.119 L 453.172 300.119 z M 453.172 296.383 L 453.586 296.272 L 453.908 296.025 L 454.11 295.662 L 454.186 295.198 L 454.095 294.688 L 453.848 294.29 L 453.454 294.038 L 452.95 293.942 L 452.481 294.028 L 452.113 294.27 L 451.876 294.648 L 451.79 295.137 L 451.851 295.515 L 452.017 295.808 L 451.074 295.667 L 451.074 294.133 L 450.661 294.133 L 450.661 296.004 L 452.516 296.282 L 452.516 295.878 L 452.279 295.586 L 452.194 295.213 L 452.249 294.89 L 452.411 294.643 L 452.658 294.486 L 452.975 294.431 L 453.293 294.486 L 453.54 294.648 L 453.697 294.895 L 453.752 295.213 L 453.717 295.48 L 453.601 295.687 L 453.419 295.838 L 453.172 295.914 L 453.172 296.383 L 453.172 296.383 z" stroke="none" fill-rule="evenodd" fill="rgb(0, 0, 0)"/><path d="M 455.567 322.568 L 456.085 324.5 L 456.603 322.568"/><path d="M 456.603 271.432 L 456.085 269.5 L 455.567 271.432"/><path d="M 456.085 324.5 L 456.085 269.5"/></g></svg>