<?xml version="1.0" encoding="utf-8" ?><!DOCTYPE svg PUBLIC "-//W3C//DTD SVG 1.1//EN" "http://www.w3.org/Graphics/SVG/1.1/DTD/svg11.dtd" 
[ <!ATTLIST svg 
  xmlns:dsy CDATA #FIXED "http://www.3ds.com/print"  
    dsy:text-version CDATA #IMPLIED > 

  <!ATTLIST text 
  xmlns:dsy CDATA #FIXED "http://www.3ds.com/print" 
    dsy:text-version CDATA #IMPLIED > 
]><svg xmlns="http://www.w3.org/2000/svg" xmlns:dsy="http://www.3ds.com/print" dsy:text-version="18000" width="841" height="594" viewBox="0 0 841 594" version="1.1"><g stroke="rgb(0, 0, 0)" stroke-width="0.13" stroke-linecap="butt" stroke-linejoin="miter" fill="none"><path d="M 445 320.063 L 476.501 320.063"/><path d="M 445 273.938 L 476.501 273.938"/></g><g stroke="rgb(0, 0, 0)" stroke-width="0.35" stroke-linecap="butt" stroke-linejoin="miter" fill="none"><path d="M 398 273.938 L 398 320.063"/><path d="M 398 320.063 L 422.5 320.063"/><path d="M 422.5 320.063 L 422.5 310.063"/><path d="M 422.5 310.063 L 428.5 310.063"/><path d="M 428.5 310.063 L 428.5 320.063"/><path d="M 428.5 320.063 L 443 320.063"/><path d="M 443 320.063 L 443 273.938"/><path d="M 406.5 273.938 L 398 273.938"/><path d="M 443 273.938 L 434.5 273.938"/><path d="M 406.5 273.938 A 14 14 0 1 0 434.5 273.938"/></g><g stroke="rgb(0, 0, 0)" stroke-width="0.13" stroke-linecap="butt" stroke-linejoin="miter" fill="none"><path d="M 472.501 304.195 L 472.501 303.741 L 471.634 303.741 L 471.634 303.241 L 471.23 303.241 L 471.23 303.741 L 469.077 303.741 L 469.077 304.2 L 471.19 305.733 L 471.634 305.733 L 471.634 304.195 L 472.501 304.195 L 472.501 304.195 z M 471.23 305.309 L 469.662 304.195 L 471.23 304.195 L 471.23 305.309 L 471.23 305.309 z M 469.944 299.526 L 469.536 299.621 L 469.233 299.843 L 469.041 300.186 L 468.976 300.63 L 469.011 300.928 L 469.107 301.185 L 469.263 301.412 L 469.485 301.603 L 469.763 301.755 L 470.101 301.866 L 470.499 301.936 L 470.948 301.956 L 471.664 301.876 L 472.183 301.629 L 472.496 301.23 L 472.602 300.686 L 472.511 300.196 L 472.274 299.823 L 471.901 299.581 L 471.427 299.495 L 470.948 299.581 L 470.58 299.813 L 470.348 300.171 L 470.267 300.615 L 470.368 301.094 L 470.655 301.452 L 470.101 301.376 L 469.702 301.215 L 469.465 300.968 L 469.384 300.625 L 469.425 300.373 L 469.531 300.181 L 469.707 300.055 L 469.944 299.99 L 469.944 299.526 L 469.944 299.526 z M 471.432 299.985 L 471.75 300.04 L 471.992 300.181 L 472.153 300.408 L 472.204 300.691 L 472.153 300.988 L 471.997 301.215 L 471.755 301.361 L 471.437 301.407 L 471.124 301.356 L 470.887 301.215 L 470.736 300.983 L 470.681 300.67 L 470.736 300.398 L 470.882 300.181 L 471.119 300.04 L 471.432 299.985 L 471.432 299.985 z M 472.501 297.348 L 472.501 296.652 L 471.75 296.652 L 471.75 297.348 L 472.501 297.348 L 472.501 297.348 z M 472.501 293.355 L 472.501 292.896 L 468.976 292.896 L 468.976 293.239 L 469.284 293.329 L 469.49 293.511 L 469.611 293.788 L 469.652 294.172 L 470.01 294.172 L 470.01 293.355 L 472.501 293.355 L 472.501 293.355 z M 471.402 290.799 L 471.437 290.799 L 471.921 290.718 L 472.284 290.481 L 472.516 290.108 L 472.602 289.614 L 472.516 289.089 L 472.294 288.696 L 471.941 288.444 L 471.487 288.353 L 471.19 288.393 L 470.948 288.504 L 470.761 288.686 L 470.625 288.928 L 470.353 288.6 L 469.919 288.484 L 469.526 288.56 L 469.228 288.776 L 469.041 289.13 L 468.976 289.614 L 469.057 290.068 L 469.279 290.416 L 469.632 290.642 L 470.101 290.718 L 470.136 290.718 L 470.136 290.269 L 469.813 290.229 L 469.581 290.098 L 469.44 289.886 L 469.389 289.588 L 469.43 289.326 L 469.536 289.135 L 469.707 289.019 L 469.939 288.973 L 470.186 289.019 L 470.353 289.14 L 470.454 289.351 L 470.484 289.639 L 470.479 289.836 L 470.877 289.836 L 470.867 289.588 L 470.913 289.271 L 471.034 289.034 L 471.23 288.892 L 471.487 288.842 L 471.78 288.898 L 471.997 289.044 L 472.133 289.276 L 472.178 289.583 L 472.128 289.901 L 471.977 290.133 L 471.735 290.279 L 471.402 290.335 L 471.402 290.799 L 471.402 290.799 z" stroke="none" fill-rule="evenodd" fill="rgb(0, 0, 0)"/><path d="M 473.983 318.131 L 474.501 320.063 L 475.019 318.131"/><path d="M 475.019 275.869 L 474.501 273.938 L 473.983 275.869"/><path d="M 474.501 320.063 L 474.501 273.938"/></g></svg>