G04 EAGLE Gerber RS-274X export*
G75*
%MOMM*%
%FSLAX34Y34*%
%LPD*%
%IN*%
%IPPOS*%
%AMOC8*
5,1,8,0,0,1.08239X$1,22.5*%
G01*
%ADD10C,0.254000*%


D10*
X25400Y0D02*
X990600Y0D01*
X990600Y800100D01*
X25400Y800100D01*
X25400Y0D01*
X66800Y774176D02*
X66732Y773131D01*
X66595Y772092D01*
X66390Y771065D01*
X66119Y770053D01*
X65783Y769061D01*
X65382Y768093D01*
X64918Y767154D01*
X64395Y766246D01*
X63813Y765375D01*
X63175Y764544D01*
X62484Y763757D01*
X61743Y763016D01*
X60956Y762325D01*
X60125Y761688D01*
X59254Y761106D01*
X58346Y760582D01*
X57407Y760118D01*
X56439Y759717D01*
X55447Y759381D01*
X54435Y759110D01*
X53408Y758905D01*
X52369Y758769D01*
X51324Y758700D01*
X50276Y758700D01*
X49231Y758769D01*
X48192Y758905D01*
X47165Y759110D01*
X46153Y759381D01*
X45161Y759717D01*
X44193Y760118D01*
X43254Y760582D01*
X42346Y761106D01*
X41475Y761688D01*
X40644Y762325D01*
X39857Y763016D01*
X39116Y763757D01*
X38425Y764544D01*
X37788Y765375D01*
X37206Y766246D01*
X36682Y767154D01*
X36218Y768093D01*
X35817Y769061D01*
X35481Y770053D01*
X35210Y771065D01*
X35005Y772092D01*
X34869Y773131D01*
X34800Y774176D01*
X34800Y775224D01*
X34869Y776269D01*
X35005Y777308D01*
X35210Y778335D01*
X35481Y779347D01*
X35817Y780339D01*
X36218Y781307D01*
X36682Y782246D01*
X37206Y783154D01*
X37788Y784025D01*
X38425Y784856D01*
X39116Y785643D01*
X39857Y786384D01*
X40644Y787075D01*
X41475Y787713D01*
X42346Y788295D01*
X43254Y788818D01*
X44193Y789282D01*
X45161Y789683D01*
X46153Y790019D01*
X47165Y790290D01*
X48192Y790495D01*
X49231Y790632D01*
X50276Y790700D01*
X51324Y790700D01*
X52369Y790632D01*
X53408Y790495D01*
X54435Y790290D01*
X55447Y790019D01*
X56439Y789683D01*
X57407Y789282D01*
X58346Y788818D01*
X59254Y788295D01*
X60125Y787713D01*
X60956Y787075D01*
X61743Y786384D01*
X62484Y785643D01*
X63175Y784856D01*
X63813Y784025D01*
X64395Y783154D01*
X64918Y782246D01*
X65382Y781307D01*
X65783Y780339D01*
X66119Y779347D01*
X66390Y778335D01*
X66595Y777308D01*
X66732Y776269D01*
X66800Y775224D01*
X66800Y774176D01*
X66800Y24876D02*
X66732Y23831D01*
X66595Y22792D01*
X66390Y21765D01*
X66119Y20753D01*
X65783Y19761D01*
X65382Y18793D01*
X64918Y17854D01*
X64395Y16946D01*
X63813Y16075D01*
X63175Y15244D01*
X62484Y14457D01*
X61743Y13716D01*
X60956Y13025D01*
X60125Y12388D01*
X59254Y11806D01*
X58346Y11282D01*
X57407Y10818D01*
X56439Y10417D01*
X55447Y10081D01*
X54435Y9810D01*
X53408Y9605D01*
X52369Y9469D01*
X51324Y9400D01*
X50276Y9400D01*
X49231Y9469D01*
X48192Y9605D01*
X47165Y9810D01*
X46153Y10081D01*
X45161Y10417D01*
X44193Y10818D01*
X43254Y11282D01*
X42346Y11806D01*
X41475Y12388D01*
X40644Y13025D01*
X39857Y13716D01*
X39116Y14457D01*
X38425Y15244D01*
X37788Y16075D01*
X37206Y16946D01*
X36682Y17854D01*
X36218Y18793D01*
X35817Y19761D01*
X35481Y20753D01*
X35210Y21765D01*
X35005Y22792D01*
X34869Y23831D01*
X34800Y24876D01*
X34800Y25924D01*
X34869Y26969D01*
X35005Y28008D01*
X35210Y29035D01*
X35481Y30047D01*
X35817Y31039D01*
X36218Y32007D01*
X36682Y32946D01*
X37206Y33854D01*
X37788Y34725D01*
X38425Y35556D01*
X39116Y36343D01*
X39857Y37084D01*
X40644Y37775D01*
X41475Y38413D01*
X42346Y38995D01*
X43254Y39518D01*
X44193Y39982D01*
X45161Y40383D01*
X46153Y40719D01*
X47165Y40990D01*
X48192Y41195D01*
X49231Y41332D01*
X50276Y41400D01*
X51324Y41400D01*
X52369Y41332D01*
X53408Y41195D01*
X54435Y40990D01*
X55447Y40719D01*
X56439Y40383D01*
X57407Y39982D01*
X58346Y39518D01*
X59254Y38995D01*
X60125Y38413D01*
X60956Y37775D01*
X61743Y37084D01*
X62484Y36343D01*
X63175Y35556D01*
X63813Y34725D01*
X64395Y33854D01*
X64918Y32946D01*
X65382Y32007D01*
X65783Y31039D01*
X66119Y30047D01*
X66390Y29035D01*
X66595Y28008D01*
X66732Y26969D01*
X66800Y25924D01*
X66800Y24876D01*
X981200Y24876D02*
X981132Y23831D01*
X980995Y22792D01*
X980790Y21765D01*
X980519Y20753D01*
X980183Y19761D01*
X979782Y18793D01*
X979318Y17854D01*
X978795Y16946D01*
X978213Y16075D01*
X977575Y15244D01*
X976884Y14457D01*
X976143Y13716D01*
X975356Y13025D01*
X974525Y12388D01*
X973654Y11806D01*
X972746Y11282D01*
X971807Y10818D01*
X970839Y10417D01*
X969847Y10081D01*
X968835Y9810D01*
X967808Y9605D01*
X966769Y9469D01*
X965724Y9400D01*
X964676Y9400D01*
X963631Y9469D01*
X962592Y9605D01*
X961565Y9810D01*
X960553Y10081D01*
X959561Y10417D01*
X958593Y10818D01*
X957654Y11282D01*
X956746Y11806D01*
X955875Y12388D01*
X955044Y13025D01*
X954257Y13716D01*
X953516Y14457D01*
X952825Y15244D01*
X952188Y16075D01*
X951606Y16946D01*
X951082Y17854D01*
X950618Y18793D01*
X950217Y19761D01*
X949881Y20753D01*
X949610Y21765D01*
X949405Y22792D01*
X949269Y23831D01*
X949200Y24876D01*
X949200Y25924D01*
X949269Y26969D01*
X949405Y28008D01*
X949610Y29035D01*
X949881Y30047D01*
X950217Y31039D01*
X950618Y32007D01*
X951082Y32946D01*
X951606Y33854D01*
X952188Y34725D01*
X952825Y35556D01*
X953516Y36343D01*
X954257Y37084D01*
X955044Y37775D01*
X955875Y38413D01*
X956746Y38995D01*
X957654Y39518D01*
X958593Y39982D01*
X959561Y40383D01*
X960553Y40719D01*
X961565Y40990D01*
X962592Y41195D01*
X963631Y41332D01*
X964676Y41400D01*
X965724Y41400D01*
X966769Y41332D01*
X967808Y41195D01*
X968835Y40990D01*
X969847Y40719D01*
X970839Y40383D01*
X971807Y39982D01*
X972746Y39518D01*
X973654Y38995D01*
X974525Y38413D01*
X975356Y37775D01*
X976143Y37084D01*
X976884Y36343D01*
X977575Y35556D01*
X978213Y34725D01*
X978795Y33854D01*
X979318Y32946D01*
X979782Y32007D01*
X980183Y31039D01*
X980519Y30047D01*
X980790Y29035D01*
X980995Y28008D01*
X981132Y26969D01*
X981200Y25924D01*
X981200Y24876D01*
X981200Y774176D02*
X981132Y773131D01*
X980995Y772092D01*
X980790Y771065D01*
X980519Y770053D01*
X980183Y769061D01*
X979782Y768093D01*
X979318Y767154D01*
X978795Y766246D01*
X978213Y765375D01*
X977575Y764544D01*
X976884Y763757D01*
X976143Y763016D01*
X975356Y762325D01*
X974525Y761688D01*
X973654Y761106D01*
X972746Y760582D01*
X971807Y760118D01*
X970839Y759717D01*
X969847Y759381D01*
X968835Y759110D01*
X967808Y758905D01*
X966769Y758769D01*
X965724Y758700D01*
X964676Y758700D01*
X963631Y758769D01*
X962592Y758905D01*
X961565Y759110D01*
X960553Y759381D01*
X959561Y759717D01*
X958593Y760118D01*
X957654Y760582D01*
X956746Y761106D01*
X955875Y761688D01*
X955044Y762325D01*
X954257Y763016D01*
X953516Y763757D01*
X952825Y764544D01*
X952188Y765375D01*
X951606Y766246D01*
X951082Y767154D01*
X950618Y768093D01*
X950217Y769061D01*
X949881Y770053D01*
X949610Y771065D01*
X949405Y772092D01*
X949269Y773131D01*
X949200Y774176D01*
X949200Y775224D01*
X949269Y776269D01*
X949405Y777308D01*
X949610Y778335D01*
X949881Y779347D01*
X950217Y780339D01*
X950618Y781307D01*
X951082Y782246D01*
X951606Y783154D01*
X952188Y784025D01*
X952825Y784856D01*
X953516Y785643D01*
X954257Y786384D01*
X955044Y787075D01*
X955875Y787713D01*
X956746Y788295D01*
X957654Y788818D01*
X958593Y789282D01*
X959561Y789683D01*
X960553Y790019D01*
X961565Y790290D01*
X962592Y790495D01*
X963631Y790632D01*
X964676Y790700D01*
X965724Y790700D01*
X966769Y790632D01*
X967808Y790495D01*
X968835Y790290D01*
X969847Y790019D01*
X970839Y789683D01*
X971807Y789282D01*
X972746Y788818D01*
X973654Y788295D01*
X974525Y787713D01*
X975356Y787075D01*
X976143Y786384D01*
X976884Y785643D01*
X977575Y784856D01*
X978213Y784025D01*
X978795Y783154D01*
X979318Y782246D01*
X979782Y781307D01*
X980183Y780339D01*
X980519Y779347D01*
X980790Y778335D01*
X980995Y777308D01*
X981132Y776269D01*
X981200Y775224D01*
X981200Y774176D01*
M02*
