G04 EAGLE Gerber RS-274X export*
G75*
%MOMM*%
%FSLAX34Y34*%
%LPD*%
%INSoldermask Top*%
%IPPOS*%
%AMOC8*
5,1,8,0,0,1.08239X$1,22.5*%
G01*
%ADD10C,3.403200*%
%ADD11R,1.203200X1.303200*%
%ADD12R,1.461200X1.461200*%
%ADD13C,1.461200*%
%ADD14R,1.303200X1.203200*%
%ADD15R,1.003200X1.003200*%
%ADD16R,1.203200X2.303200*%
%ADD17R,5.103200X6.053200*%
%ADD18P,1.852186X8X112.500000*%
%ADD19P,1.852186X8X292.500000*%
%ADD20C,1.711200*%
%ADD21C,0.959600*%


D10*
X50800Y774700D03*
X50800Y25400D03*
X965200Y25400D03*
X965200Y774700D03*
D11*
X635000Y160900D03*
X635000Y143900D03*
X736600Y448700D03*
X736600Y465700D03*
X787400Y474100D03*
X787400Y491100D03*
X736600Y512200D03*
X736600Y529200D03*
X787400Y550300D03*
X787400Y567300D03*
X736600Y575700D03*
X736600Y592700D03*
X787400Y601100D03*
X787400Y618100D03*
X736600Y626500D03*
X736600Y643500D03*
X787400Y664600D03*
X787400Y681600D03*
X736600Y690000D03*
X736600Y707000D03*
X787400Y715400D03*
X787400Y732400D03*
X736600Y182000D03*
X736600Y199000D03*
X736600Y740800D03*
X736600Y757800D03*
X266700Y766200D03*
X266700Y783200D03*
X215900Y745100D03*
X215900Y728100D03*
X266700Y715400D03*
X266700Y732400D03*
X215900Y694300D03*
X215900Y677300D03*
X266700Y664600D03*
X266700Y681600D03*
X215900Y643500D03*
X215900Y626500D03*
X266700Y613800D03*
X266700Y630800D03*
X215900Y592700D03*
X215900Y575700D03*
X266700Y563000D03*
X266700Y580000D03*
X736600Y220100D03*
X736600Y237100D03*
X215900Y524900D03*
X215900Y541900D03*
X266700Y499500D03*
X266700Y516500D03*
X215900Y478400D03*
X215900Y461400D03*
X266700Y448700D03*
X266700Y465700D03*
X215900Y427600D03*
X215900Y410600D03*
X266700Y397900D03*
X266700Y414900D03*
X215900Y376800D03*
X215900Y359800D03*
X266700Y347100D03*
X266700Y364100D03*
X215900Y326000D03*
X215900Y309000D03*
X266700Y296300D03*
X266700Y313300D03*
X736600Y258200D03*
X736600Y275200D03*
X215900Y275200D03*
X215900Y258200D03*
D12*
X330200Y50800D03*
D13*
X330200Y70800D03*
D12*
X596900Y50800D03*
D13*
X596900Y70800D03*
D12*
X698500Y50800D03*
D13*
X698500Y70800D03*
D14*
X707000Y114300D03*
X690000Y114300D03*
X588400Y114300D03*
X605400Y114300D03*
D12*
X495300Y50800D03*
D13*
X495300Y70800D03*
D14*
X321700Y114300D03*
X338700Y114300D03*
X516500Y114300D03*
X499500Y114300D03*
D11*
X787400Y283600D03*
X787400Y300600D03*
X736600Y309000D03*
X736600Y326000D03*
X787400Y334400D03*
X787400Y351400D03*
X736600Y359800D03*
X736600Y376800D03*
X787400Y397900D03*
X787400Y414900D03*
D15*
X266700Y52500D03*
X266700Y74500D03*
D16*
X383600Y32700D03*
X429200Y32700D03*
D17*
X406400Y100700D03*
D18*
X914400Y279400D03*
X889000Y279400D03*
X914400Y304800D03*
X889000Y304800D03*
X914400Y330200D03*
X889000Y330200D03*
X914400Y355600D03*
X889000Y355600D03*
X914400Y381000D03*
X889000Y381000D03*
X914400Y406400D03*
X889000Y406400D03*
X914400Y431800D03*
X889000Y431800D03*
X914400Y457200D03*
X889000Y457200D03*
X914400Y482600D03*
X889000Y482600D03*
X914400Y508000D03*
X889000Y508000D03*
X914400Y533400D03*
X889000Y533400D03*
X914400Y558800D03*
X889000Y558800D03*
X914400Y584200D03*
X889000Y584200D03*
X914400Y609600D03*
X889000Y609600D03*
X914400Y635000D03*
X889000Y635000D03*
X914400Y660400D03*
X889000Y660400D03*
X914400Y685800D03*
X889000Y685800D03*
X914400Y711200D03*
X889000Y711200D03*
X914400Y736600D03*
X889000Y736600D03*
X914400Y762000D03*
X889000Y762000D03*
D19*
X101600Y762000D03*
X127000Y762000D03*
X101600Y736600D03*
X127000Y736600D03*
X101600Y711200D03*
X127000Y711200D03*
X101600Y685800D03*
X127000Y685800D03*
X101600Y660400D03*
X127000Y660400D03*
X101600Y635000D03*
X127000Y635000D03*
X101600Y609600D03*
X127000Y609600D03*
X101600Y584200D03*
X127000Y584200D03*
X101600Y558800D03*
X127000Y558800D03*
X101600Y533400D03*
X127000Y533400D03*
X101600Y508000D03*
X127000Y508000D03*
X101600Y482600D03*
X127000Y482600D03*
X101600Y457200D03*
X127000Y457200D03*
X101600Y431800D03*
X127000Y431800D03*
X101600Y406400D03*
X127000Y406400D03*
X101600Y381000D03*
X127000Y381000D03*
X101600Y355600D03*
X127000Y355600D03*
X101600Y330200D03*
X127000Y330200D03*
X101600Y304800D03*
X127000Y304800D03*
X101600Y279400D03*
X127000Y279400D03*
D14*
X685800Y143900D03*
X685800Y160900D03*
X762000Y465700D03*
X762000Y448700D03*
X812800Y491100D03*
X812800Y474100D03*
X762000Y529200D03*
X762000Y512200D03*
X812800Y567300D03*
X812800Y550300D03*
X762000Y592700D03*
X762000Y575700D03*
X812800Y618100D03*
X812800Y601100D03*
X762000Y643500D03*
X762000Y626500D03*
X812800Y681600D03*
X812800Y664600D03*
X762000Y707000D03*
X762000Y690000D03*
X812800Y732400D03*
X812800Y715400D03*
X762000Y199000D03*
X762000Y182000D03*
X762000Y757800D03*
X762000Y740800D03*
X241300Y783200D03*
X241300Y766200D03*
X190500Y728100D03*
X190500Y745100D03*
X241300Y732400D03*
X241300Y715400D03*
X190500Y677300D03*
X190500Y694300D03*
X241300Y681600D03*
X241300Y664600D03*
X190500Y626500D03*
X190500Y643500D03*
X241300Y630800D03*
X241300Y613800D03*
X190500Y575700D03*
X190500Y592700D03*
X241300Y580000D03*
X241300Y563000D03*
X762000Y237100D03*
X762000Y220100D03*
X190500Y541900D03*
X190500Y524900D03*
X241300Y516500D03*
X241300Y499500D03*
X190500Y461400D03*
X190500Y478400D03*
X241300Y465700D03*
X241300Y448700D03*
X190500Y410600D03*
X190500Y427600D03*
X241300Y414900D03*
X241300Y397900D03*
X190500Y359800D03*
X190500Y376800D03*
X241300Y364100D03*
X241300Y347100D03*
X190500Y309000D03*
X190500Y326000D03*
X241300Y313300D03*
X241300Y296300D03*
X762000Y275200D03*
X762000Y258200D03*
X190500Y258200D03*
X190500Y275200D03*
X812800Y300600D03*
X812800Y283600D03*
X762000Y326000D03*
X762000Y309000D03*
X812800Y351400D03*
X812800Y334400D03*
X762000Y376800D03*
X762000Y359800D03*
X812800Y414900D03*
X812800Y397900D03*
D19*
X685800Y774700D03*
X685800Y749300D03*
X685800Y723900D03*
X685800Y698500D03*
X685800Y673100D03*
X685800Y647700D03*
X685800Y622300D03*
X685800Y596900D03*
X685800Y571500D03*
X685800Y546100D03*
X685800Y520700D03*
X685800Y495300D03*
X685800Y469900D03*
X685800Y444500D03*
X685800Y419100D03*
X685800Y393700D03*
X685800Y368300D03*
X685800Y342900D03*
X685800Y317500D03*
X685800Y292100D03*
X685800Y266700D03*
X685800Y241300D03*
X685800Y215900D03*
X685800Y190500D03*
D18*
X533400Y190500D03*
X533400Y215900D03*
X533400Y241300D03*
X533400Y266700D03*
X533400Y292100D03*
X533400Y317500D03*
X533400Y342900D03*
X533400Y368300D03*
X533400Y393700D03*
X533400Y419100D03*
X533400Y444500D03*
X533400Y469900D03*
X533400Y495300D03*
X533400Y520700D03*
X533400Y546100D03*
X533400Y571500D03*
X533400Y596900D03*
X533400Y622300D03*
X533400Y647700D03*
X533400Y673100D03*
X533400Y698500D03*
X533400Y723900D03*
X533400Y749300D03*
X533400Y774700D03*
X330200Y190500D03*
X330200Y215900D03*
X330200Y241300D03*
X330200Y266700D03*
X330200Y292100D03*
X330200Y317500D03*
X330200Y342900D03*
X330200Y368300D03*
X330200Y393700D03*
X330200Y419100D03*
X330200Y444500D03*
X330200Y469900D03*
X330200Y495300D03*
X330200Y520700D03*
X330200Y546100D03*
X330200Y571500D03*
X330200Y596900D03*
X330200Y622300D03*
X330200Y647700D03*
X330200Y673100D03*
X330200Y698500D03*
X330200Y723900D03*
X330200Y749300D03*
X330200Y774700D03*
D19*
X482600Y774700D03*
X482600Y749300D03*
X482600Y723900D03*
X482600Y698500D03*
X482600Y673100D03*
X482600Y647700D03*
X482600Y622300D03*
X482600Y596900D03*
X482600Y571500D03*
X482600Y546100D03*
X482600Y520700D03*
X482600Y495300D03*
X482600Y469900D03*
X482600Y444500D03*
X482600Y419100D03*
X482600Y393700D03*
X482600Y368300D03*
X482600Y342900D03*
X482600Y317500D03*
X482600Y292100D03*
X482600Y266700D03*
X482600Y241300D03*
X482600Y215900D03*
X482600Y190500D03*
D20*
X215900Y58340D02*
X215900Y43260D01*
X190500Y43260D02*
X190500Y58340D01*
X152400Y58340D02*
X152400Y43260D01*
X127000Y43260D02*
X127000Y58340D01*
D18*
X914400Y101600D03*
X914400Y127000D03*
X914400Y152400D03*
X914400Y177800D03*
X914400Y203200D03*
X914400Y228600D03*
X101600Y114300D03*
X101600Y139700D03*
X101600Y165100D03*
X101600Y190500D03*
X101600Y215900D03*
X101600Y241300D03*
D21*
X787400Y254000D03*
X787400Y317500D03*
X787400Y368300D03*
X787400Y444500D03*
X787400Y508000D03*
X787400Y584200D03*
X787400Y647700D03*
X787400Y698500D03*
X292100Y774700D03*
X635000Y190500D03*
X584200Y190500D03*
X152400Y139700D03*
X127000Y203200D03*
X635000Y215900D03*
X584200Y215900D03*
X127000Y152400D03*
X292100Y101600D03*
X673100Y88900D03*
X558800Y114300D03*
X723900Y114300D03*
X609600Y609600D03*
M02*
