M48
;GenerationSoftware,Autodesk,EAGLE,9.6.2*%
;CreationDate,2021-12-28T11:36:27Z*%
FMAT,2
ICI,OFF
METRIC,TZ,000.000
T4C0.350
T3C0.750
T2C1.000
T1C3.200
%
G90
M71
T1
X3810Y6350
X3810Y26670
X41910Y6350
X41910Y26670
T2
X5080Y17526
X5080Y20066
X5080Y11684
X5080Y14224
X40640Y17780
X40640Y15240
X40640Y12700
T3
X35560Y7620
X37560Y7620
X35560Y22860
X37560Y22860
T4
X30099Y12700
X11684Y6008
X14986Y12573
X15621Y13970
X15397Y8763
M30