<?xml version="1.0" encoding="utf-8" ?><!DOCTYPE svg PUBLIC "-//W3C//DTD SVG 1.1//EN" "http://www.w3.org/Graphics/SVG/1.1/DTD/svg11.dtd" 
[ <!ATTLIST svg 
  xmlns:dsy CDATA #FIXED "http://www.3ds.com/print"  
    dsy:text-version CDATA #IMPLIED > 

  <!ATTLIST text 
  xmlns:dsy CDATA #FIXED "http://www.3ds.com/print" 
    dsy:text-version CDATA #IMPLIED > 
]><svg xmlns="http://www.w3.org/2000/svg" xmlns:dsy="http://www.3ds.com/print" dsy:text-version="18000" width="841" height="594" viewBox="0 0 841 594" version="1.1"><g stroke="rgb(0, 0, 0)" stroke-width="0.13" stroke-linecap="butt" stroke-linejoin="miter" fill="none"><path d="M 264.229 285.397 L 264.229 240.822"/><path d="M 576.771 285.397 L 576.771 240.822"/></g><g stroke="rgb(0, 0, 0)" stroke-width="0.35" stroke-linecap="butt" stroke-linejoin="miter" fill="none"><path d="M 576.771 306.603 L 264.229 306.603"/><path d="M 576.771 287.397 L 576.771 306.603"/><path d="M 264.229 287.397 L 576.771 287.397"/><path d="M 264.229 306.603 L 264.229 287.397"/></g><g stroke="rgb(0, 0, 0)" stroke-width="0.13" stroke-linecap="butt" stroke-linejoin="miter" fill="none"><path d="M 409.889 239.722 L 409.889 239.758 L 409.97 240.242 L 410.207 240.605 L 410.58 240.837 L 411.074 240.923 L 411.599 240.837 L 411.992 240.615 L 412.244 240.262 L 412.335 239.808 L 412.295 239.511 L 412.184 239.269 L 412.002 239.082 L 411.76 238.946 L 412.088 238.673 L 412.204 238.24 L 412.128 237.846 L 411.911 237.549 L 411.558 237.362 L 411.074 237.297 L 410.62 237.377 L 410.272 237.599 L 410.045 237.952 L 409.97 238.421 L 409.97 238.457 L 410.419 238.457 L 410.459 238.134 L 410.59 237.902 L 410.802 237.761 L 411.099 237.71 L 411.362 237.751 L 411.553 237.856 L 411.669 238.028 L 411.715 238.26 L 411.669 238.507 L 411.548 238.673 L 411.336 238.774 L 411.049 238.805 L 410.852 238.799 L 410.852 239.198 L 411.099 239.188 L 411.417 239.233 L 411.654 239.354 L 411.795 239.551 L 411.846 239.808 L 411.79 240.101 L 411.644 240.318 L 411.412 240.454 L 411.104 240.499 L 410.787 240.449 L 410.555 240.297 L 410.408 240.055 L 410.353 239.722 L 409.889 239.722 L 409.889 239.722 z M 414.805 240.822 L 415.264 240.822 L 415.264 237.297 L 414.921 237.297 L 414.83 237.604 L 414.649 237.811 L 414.371 237.932 L 413.988 237.972 L 413.988 238.33 L 414.805 238.33 L 414.805 240.822 L 414.805 240.822 z M 417.401 240.822 L 419.807 240.822 L 419.807 240.388 L 417.906 240.388 L 418.012 240.151 L 418.193 239.954 L 418.753 239.596 L 419.051 239.445 L 419.383 239.228 L 419.62 238.976 L 419.757 238.678 L 419.807 238.341 L 419.721 237.917 L 419.484 237.584 L 419.121 237.372 L 418.652 237.297 L 418.168 237.382 L 417.8 237.619 L 417.563 237.998 L 417.482 238.497 L 417.482 238.568 L 417.941 238.568 L 417.941 238.527 L 417.986 238.184 L 418.123 237.932 L 418.339 237.771 L 418.627 237.715 L 418.919 237.766 L 419.136 237.892 L 419.277 238.088 L 419.328 238.336 L 419.293 238.568 L 419.197 238.764 L 419.035 238.936 L 418.814 239.087 L 418.516 239.248 L 418.022 239.561 L 417.674 239.894 L 417.467 240.297 L 417.401 240.807 L 417.401 240.822 L 417.401 240.822 z M 422.02 240.822 L 422.716 240.822 L 422.716 240.07 L 422.02 240.07 L 422.02 240.822 L 422.02 240.822 z M 424.853 239.909 L 424.964 240.323 L 425.211 240.645 L 425.574 240.847 L 426.038 240.923 L 426.548 240.832 L 426.946 240.585 L 427.198 240.191 L 427.294 239.687 L 427.208 239.218 L 426.966 238.85 L 426.588 238.613 L 426.099 238.527 L 425.721 238.588 L 425.428 238.754 L 425.569 237.811 L 427.103 237.811 L 427.103 237.397 L 425.232 237.397 L 424.954 239.253 L 425.358 239.253 L 425.65 239.016 L 426.023 238.931 L 426.346 238.986 L 426.593 239.147 L 426.75 239.395 L 426.805 239.712 L 426.75 240.03 L 426.588 240.277 L 426.341 240.434 L 426.023 240.489 L 425.756 240.454 L 425.549 240.338 L 425.398 240.156 L 425.322 239.909 L 424.853 239.909 L 424.853 239.909 z M 430.117 240.822 L 430.571 240.822 L 430.571 239.954 L 431.071 239.954 L 431.071 239.551 L 430.571 239.551 L 430.571 237.397 L 430.112 237.397 L 428.579 239.511 L 428.579 239.954 L 430.117 239.954 L 430.117 240.822 L 430.117 240.822 z M 429.003 239.551 L 430.117 237.982 L 430.117 239.551 L 429.003 239.551 L 429.003 239.551 z" stroke="none" fill-rule="evenodd" fill="rgb(0, 0, 0)"/><path d="M 574.839 243.339 L 576.771 242.822 L 574.839 242.304"/><path d="M 266.161 242.304 L 264.229 242.822 L 266.161 243.339"/><path d="M 264.229 242.822 L 576.771 242.822"/></g></svg>