<?xml version="1.0" encoding="utf-8" ?><!DOCTYPE svg PUBLIC "-//W3C//DTD SVG 1.1//EN" "http://www.w3.org/Graphics/SVG/1.1/DTD/svg11.dtd" 
[ <!ATTLIST svg 
  xmlns:dsy CDATA #FIXED "http://www.3ds.com/print"  
    dsy:text-version CDATA #IMPLIED > 

  <!ATTLIST text 
  xmlns:dsy CDATA #FIXED "http://www.3ds.com/print" 
    dsy:text-version CDATA #IMPLIED > 
]><svg xmlns="http://www.w3.org/2000/svg" xmlns:dsy="http://www.3ds.com/print" dsy:text-version="18000" width="841" height="594" viewBox="0 0 841 594" version="1.1"><g stroke="rgb(0, 0, 0)" stroke-width="0.13" stroke-linecap="butt" stroke-linejoin="miter" fill="none"><path d="M 400.5 275 L 400.5 255.712"/><path d="M 440.5 275 L 440.5 255.712"/></g><g stroke="rgb(0, 0, 0)" stroke-width="0.35" stroke-linecap="butt" stroke-linejoin="miter" fill="none"><path d="M 425.5 287 L 429.5 287"/><path d="M 425.5 287 L 425.5 307"/><path d="M 400.5 312.421 L 400.5 317"/><path d="M 440.5 317 L 400.5 317"/><path d="M 440.5 317 L 440.5 277"/><path d="M 400.5 277 L 440.5 277"/><path d="M 400.5 277 L 400.5 284.715"/><path d="M 400.5 312.421 A 14 14 0 1 0 400.5 284.715"/><path d="M 429.5 307 L 429.5 287"/><path d="M 429.5 307 L 425.5 307"/></g><g stroke="rgb(0, 0, 0)" stroke-width="0.13" stroke-linecap="butt" stroke-linejoin="miter" fill="none"><path d="M 418.909 255.712 L 419.363 255.712 L 419.363 254.845 L 419.863 254.845 L 419.863 254.441 L 419.363 254.441 L 419.363 252.288 L 418.904 252.288 L 417.371 254.401 L 417.371 254.845 L 418.909 254.845 L 418.909 255.712 L 418.909 255.712 z M 417.795 254.441 L 418.909 252.873 L 418.909 254.441 L 417.795 254.441 L 417.795 254.441 z M 421.153 254.003 L 421.228 254.794 L 421.465 255.359 L 421.844 255.702 L 422.368 255.813 L 422.887 255.702 L 423.266 255.359 L 423.498 254.794 L 423.578 254.003 L 423.498 253.216 L 423.402 252.903 L 423.266 252.646 L 422.887 252.303 L 422.368 252.187 L 421.844 252.303 L 421.465 252.651 L 421.228 253.216 L 421.153 254.003 L 421.153 254.003 z M 421.637 254.003 L 421.677 253.392 L 421.803 252.954 L 422.03 252.696 L 422.368 252.606 L 422.701 252.696 L 422.928 252.954 L 423.054 253.392 L 423.094 254.003 L 423.054 254.618 L 422.928 255.057 L 422.701 255.314 L 422.368 255.399 L 422.03 255.314 L 421.803 255.057 L 421.677 254.618 L 421.637 254.003 L 421.637 254.003 z" stroke="none" fill-rule="evenodd" fill="rgb(0, 0, 0)"/><path d="M 438.568 258.23 L 440.5 257.712 L 438.568 257.195"/><path d="M 402.432 257.195 L 400.5 257.712 L 402.432 258.23"/><path d="M 400.5 257.712 L 440.5 257.712"/></g></svg>