<?xml version="1.0" encoding="utf-8" ?><!DOCTYPE svg PUBLIC "-//W3C//DTD SVG 1.1//EN" "http://www.w3.org/Graphics/SVG/1.1/DTD/svg11.dtd" 
[ <!ATTLIST svg 
  xmlns:dsy CDATA #FIXED "http://www.3ds.com/print"  
    dsy:text-version CDATA #IMPLIED > 

  <!ATTLIST text 
  xmlns:dsy CDATA #FIXED "http://www.3ds.com/print" 
    dsy:text-version CDATA #IMPLIED > 
]><svg xmlns="http://www.w3.org/2000/svg" xmlns:dsy="http://www.3ds.com/print" dsy:text-version="18000" width="420" height="297" viewBox="0 0 420 297" version="1.1"><g stroke="rgb(0, 0, 0)" stroke-width="0.13" stroke-linecap="butt" stroke-linejoin="miter" fill="none"><path d="M 232 168.5 L 259.838 168.5"/><path d="M 232 128.5 L 259.838 128.5"/></g><g stroke="rgb(0, 0, 0)" stroke-width="0.35" stroke-linecap="butt" stroke-linejoin="miter" fill="none"><path d="M 190 128.5 L 195 128.5"/><path d="M 190 168.5 L 190 128.5"/><path d="M 207 168.5 L 190 168.5"/><path d="M 207 158.5 L 207 168.5"/><path d="M 213 158.5 L 207 158.5"/><path d="M 213 168.5 L 213 158.5"/><path d="M 230 168.5 L 213 168.5"/><path d="M 230 128.5 L 230 168.5"/><path d="M 225 128.5 L 230 128.5"/><path d="M 195 128.5 A 15 15 0 1 0 225 128.5"/></g><g stroke="rgb(0, 0, 0)" stroke-width="0.13" stroke-linecap="butt" stroke-linejoin="miter" fill="none"><path d="M 255.838 150.091 L 255.838 149.637 L 254.97 149.637 L 254.97 149.137 L 254.567 149.137 L 254.567 149.637 L 252.413 149.637 L 252.413 150.096 L 254.527 151.629 L 254.97 151.629 L 254.97 150.091 L 255.838 150.091 L 255.838 150.091 z M 254.567 151.205 L 252.998 150.091 L 254.567 150.091 L 254.567 151.205 L 254.567 151.205 z M 254.128 147.847 L 254.92 147.772 L 255.485 147.535 L 255.828 147.156 L 255.939 146.632 L 255.828 146.113 L 255.485 145.734 L 254.92 145.502 L 254.128 145.422 L 253.341 145.502 L 253.029 145.598 L 252.771 145.734 L 252.429 146.113 L 252.313 146.632 L 252.429 147.156 L 252.777 147.535 L 253.341 147.772 L 254.128 147.847 L 254.128 147.847 z M 254.128 147.363 L 253.518 147.323 L 253.079 147.197 L 252.822 146.97 L 252.731 146.632 L 252.822 146.299 L 253.079 146.072 L 253.518 145.946 L 254.128 145.906 L 254.743 145.946 L 255.182 146.072 L 255.439 146.299 L 255.525 146.632 L 255.439 146.97 L 255.182 147.197 L 254.743 147.323 L 254.128 147.363 L 254.128 147.363 z" stroke="none" fill-rule="evenodd" fill="rgb(0, 0, 0)"/><path d="M 257.32 166.568 L 257.838 168.5 L 258.355 166.568"/><path d="M 258.355 130.432 L 257.838 128.5 L 257.32 130.432"/><path d="M 257.838 168.5 L 257.838 128.5"/></g></svg>