M48
;GenerationSoftware,Autodesk,EAGLE,9.6.2*%
;CreationDate,2021-12-28T16:22:52Z*%
FMAT,2
ICI,OFF
METRIC,TZ,000.000
T4C0.350
T3C0.750
T2C1.000
T1C3.200
%
G90
M71
T1
X3810Y3810
X3810Y22860
X46990Y22860
T2
X40894Y19050
X38354Y19050
X35814Y19050
X33274Y19050
X30734Y19050
X28194Y19050
X45720Y3810
X45720Y6350
X45720Y8890
X45720Y11430
X45720Y13970
X45720Y16510
X5080Y10414
X5080Y7874
X5080Y16256
X5080Y13716
T3
X38100Y3588
X38100Y5588
X30480Y3588
X30480Y5588
T4
X11938Y7366
X7112Y6604
X11684Y4318
X11684Y9398
X11783Y11179
X11749Y12700
X27114Y12192
X8890Y8382
X11749Y15240
X7874Y4064
X9510Y4064
X36015Y15441
M30