M48
;GenerationSoftware,Autodesk,EAGLE,9.6.2*%
;CreationDate,2021-12-28T11:37:12Z*%
FMAT,2
ICI,OFF
METRIC,TZ,000.000
T5C0.350
T4C0.750
T3C1.000
T2C1.700
T1C3.200
%
G90
M71
T1
X2540Y26670
X38100Y26670
X38100Y1270
X2540Y1270
T2
X5080Y6760
X5080Y10720
X5080Y14680
X5080Y18640
X35560Y18640
X35560Y14680
X35560Y10720
X35560Y6760
T3
X13970Y20320
X13970Y17780
X13970Y15240
X13970Y12700
X13970Y10160
X13970Y7620
T4
X24130Y1810
X24130Y3810
X16510Y1810
X16510Y3810
X24130Y26130
X24130Y24130
X17145Y26130
X17145Y24130
T5
X29210Y11430
X33020Y1270
X11430Y5080
X8890Y24130
X31750Y26670
M30