M48
;GenerationSoftware,Autodesk,EAGLE,9.6.2*%
;CreationDate,2021-12-28T11:34:54Z*%
FMAT,2
ICI,OFF
METRIC,TZ,000.000
T6C0.350
T5C0.750
T4C0.813
T3C1.000
T2C1.016
T1C3.200
%
G90
M71
T1
X2540Y2540
X46990Y29210
X2540Y29210
T2
X15494Y3683
X14224Y1905
X12954Y3683
X11049Y2032
X9779Y3683
X7239Y3683
X8509Y1905
X5969Y1905
X19304Y1905
X16764Y1905
X21844Y1905
T3
X43434Y27940
X40894Y27940
X38354Y27940
X35814Y27940
X33274Y27940
X3810Y16129
X3810Y13589
X3810Y11049
X3810Y8509
X3810Y5969
T4
X34163Y23495
X32385Y23495
X18034Y3683
X31623Y1905
X20574Y3810
X35941Y23495
T5
X46958Y16764
X44958Y16764
X38259Y16764
X40259Y16764
T6
X5029Y19050
X14173Y22860
X7315Y20117
X14173Y18898
X11430Y20269
X15697Y22555
X16764Y8230
X17069Y10363
X29108Y23165
X25451Y5334
X16916Y13259
X16916Y18288
X26518Y27889
X23774Y27584
X13868Y25451
X28346Y6248
X31852Y3353
X46330Y3810
X35662Y8382
X33071Y10820
X26518Y24384
X44501Y14630
X44501Y11278
X28956Y21336
X23774Y21946
X15545Y24232
X7315Y19202
X5029Y26060
X7163Y26518
X14173Y27584
X9449Y22098
X1981Y11887
X19355Y25298
X16764Y20574
X11430Y4572
X14173Y13259
X7163Y13411
X14173Y14935
X26518Y23165
X26518Y21793
X27432Y28804
X9449Y6096
X1981Y9754
X16002Y26975
X14021Y21336
X46330Y8534
X28804Y26670
X15850Y20574
X2896Y22098
X21488Y25451
X16764Y25756
X16154Y9906
X31852Y18898
X14173Y12344
X7163Y24384
X7315Y28346
X9449Y17678
X23774Y29413
X16764Y29718
X45415Y18288
X45568Y9144
X43739Y19355
X36119Y2743
X32766Y3810
M30