<?xml version="1.0" encoding="utf-8" ?><!DOCTYPE svg PUBLIC "-//W3C//DTD SVG 1.1//EN" "http://www.w3.org/Graphics/SVG/1.1/DTD/svg11.dtd" 
[ <!ATTLIST svg 
  xmlns:dsy CDATA #FIXED "http://www.3ds.com/print"  
    dsy:text-version CDATA #IMPLIED > 

  <!ATTLIST text 
  xmlns:dsy CDATA #FIXED "http://www.3ds.com/print" 
    dsy:text-version CDATA #IMPLIED > 
]><svg xmlns="http://www.w3.org/2000/svg" xmlns:dsy="http://www.3ds.com/print" dsy:text-version="18000" width="297" height="210" viewBox="0 0 297 210" version="1.1"><g stroke="rgb(0, 0, 0)" stroke-width="0.13" stroke-linecap="butt" stroke-linejoin="miter" fill="none"><path d="M 87 78 L 87 31.5843"/><path d="M 210 78 L 210 31.5843"/></g><g stroke="rgb(0, 0, 0)" stroke-width="0.35" stroke-linecap="butt" stroke-linejoin="miter" fill="none"><path d="M 148.5 70 L 93 70"/><path d="M 93 70 L 93 80"/><path d="M 93 80 L 87 80"/><path d="M 87 80 L 87 105"/><path d="M 87 130 L 87 105"/><path d="M 93 130 L 87 130"/><path d="M 93 140 L 93 130"/><path d="M 148.5 140 L 93 140"/><path d="M 148.5 140 L 204 140"/><path d="M 204 140 L 204 130"/><path d="M 204 130 L 210 130"/><path d="M 210 130 L 210 105"/><path d="M 210 80 L 210 105"/><path d="M 204 80 L 210 80"/><path d="M 204 70 L 204 80"/><path d="M 148.5 70 L 204 70"/></g><g stroke="rgb(0, 0, 0)" stroke-width="0.13" stroke-linecap="butt" stroke-linejoin="miter" fill="none"><path d="M 240.452 31.5843 L 240.911 31.5843 L 240.911 28.059 L 240.568 28.059 L 240.477 28.3667 L 240.296 28.5735 L 240.018 28.6945 L 239.635 28.7348 L 239.635 29.0929 L 240.452 29.0929 L 240.452 31.5843 L 240.452 31.5843 z M 243.048 31.5843 L 245.454 31.5843 L 245.454 31.1505 L 243.552 31.1505 L 243.658 30.9135 L 243.84 30.7168 L 244.4 30.3587 L 244.697 30.2075 L 245.03 29.9906 L 245.267 29.7384 L 245.403 29.4409 L 245.454 29.103 L 245.368 28.6794 L 245.131 28.3465 L 244.768 28.1347 L 244.299 28.059 L 243.815 28.1448 L 243.447 28.3818 L 243.21 28.7601 L 243.129 29.2593 L 243.129 29.3299 L 243.588 29.3299 L 243.588 29.2896 L 243.633 28.9467 L 243.769 28.6945 L 243.986 28.5331 L 244.274 28.4776 L 244.566 28.5281 L 244.783 28.6541 L 244.924 28.8508 L 244.975 29.0979 L 244.939 29.3299 L 244.844 29.5266 L 244.682 29.6981 L 244.46 29.8494 L 244.163 30.0108 L 243.668 30.3235 L 243.32 30.6563 L 243.114 31.0598 L 243.048 31.5691 L 243.048 31.5843 L 243.048 31.5843 z M 246.744 30.4848 L 246.744 30.5201 L 246.824 31.0043 L 247.062 31.3674 L 247.435 31.5994 L 247.929 31.6851 L 248.453 31.5994 L 248.847 31.3775 L 249.099 31.0245 L 249.19 30.5706 L 249.149 30.273 L 249.038 30.0309 L 248.857 29.8443 L 248.615 29.7082 L 248.943 29.4359 L 249.059 29.0021 L 248.983 28.6087 L 248.766 28.3112 L 248.413 28.1246 L 247.929 28.059 L 247.475 28.1397 L 247.127 28.3616 L 246.9 28.7147 L 246.824 29.1837 L 246.824 29.219 L 247.273 29.219 L 247.314 28.8962 L 247.445 28.6642 L 247.657 28.523 L 247.954 28.4726 L 248.216 28.5129 L 248.408 28.6188 L 248.524 28.7903 L 248.569 29.0223 L 248.524 29.2694 L 248.403 29.4359 L 248.191 29.5367 L 247.904 29.567 L 247.707 29.5619 L 247.707 29.9603 L 247.954 29.9503 L 248.272 29.9956 L 248.509 30.1167 L 248.65 30.3134 L 248.701 30.5706 L 248.645 30.8631 L 248.499 31.0799 L 248.267 31.2161 L 247.959 31.2615 L 247.641 31.2111 L 247.41 31.0598 L 247.263 30.8177 L 247.208 30.4848 L 246.744 30.4848 L 246.744 30.4848 z" stroke="none" fill-rule="evenodd" fill="rgb(0, 0, 0)"/><path d="M 88.9319 33.0666 L 87 33.5843 L 88.9319 34.1019"/><path d="M 208.068 34.1019 L 210 33.5843 L 208.068 33.0666"/><path d="M 87 33.5843 L 249.533 33.5843"/></g></svg>