G04 EAGLE Gerber RS-274X export*
G75*
%MOMM*%
%FSLAX34Y34*%
%LPD*%
%INBottom Copper*%
%IPPOS*%
%AMOC8*
5,1,8,0,0,1.08239X$1,22.5*%
G01*
%ADD10C,2.100000*%
%ADD11C,1.950000*%
%ADD12C,1.208000*%
%ADD13R,1.208000X1.208000*%
%ADD14C,1.524000*%
%ADD15P,1.649562X8X22.500000*%
%ADD16C,0.700000*%
%ADD17C,0.900000*%
%ADD18C,0.750000*%
%ADD19C,0.200000*%
%ADD20C,0.500000*%
%ADD21C,0.508000*%
%ADD22C,0.152400*%

G36*
X411063Y4124D02*
X411063Y4124D01*
X411128Y4123D01*
X411201Y4144D01*
X411277Y4154D01*
X411337Y4181D01*
X411400Y4198D01*
X411465Y4239D01*
X411534Y4270D01*
X411584Y4312D01*
X411640Y4347D01*
X411691Y4403D01*
X411749Y4453D01*
X411785Y4507D01*
X411829Y4556D01*
X411862Y4625D01*
X411904Y4688D01*
X411923Y4751D01*
X411952Y4810D01*
X411962Y4878D01*
X411987Y4958D01*
X411988Y5044D01*
X411999Y5114D01*
X411999Y59001D01*
X458170Y59001D01*
X458232Y59010D01*
X458295Y59009D01*
X458371Y59029D01*
X458449Y59041D01*
X458506Y59066D01*
X458567Y59083D01*
X458634Y59124D01*
X458706Y59157D01*
X458754Y59198D01*
X458807Y59231D01*
X458861Y59289D01*
X458920Y59340D01*
X458955Y59393D01*
X458997Y59439D01*
X459032Y59510D01*
X459075Y59576D01*
X459093Y59636D01*
X459121Y59693D01*
X459132Y59763D01*
X459157Y59846D01*
X459158Y59929D01*
X459169Y59997D01*
X459838Y299997D01*
X459829Y300062D01*
X459829Y300128D01*
X459809Y300201D01*
X459799Y300277D01*
X459772Y300336D01*
X459754Y300400D01*
X459714Y300464D01*
X459683Y300534D01*
X459641Y300584D01*
X459606Y300640D01*
X459550Y300691D01*
X459500Y300749D01*
X459446Y300785D01*
X459397Y300829D01*
X459328Y300862D01*
X459265Y300904D01*
X459202Y300923D01*
X459143Y300952D01*
X459075Y300962D01*
X458995Y300987D01*
X458909Y300988D01*
X458838Y300999D01*
X412999Y300999D01*
X412999Y352228D01*
X412990Y352289D01*
X412992Y352352D01*
X412971Y352428D01*
X412959Y352507D01*
X412934Y352564D01*
X412918Y352624D01*
X412876Y352692D01*
X412843Y352764D01*
X412803Y352811D01*
X412770Y352864D01*
X412712Y352918D01*
X412660Y352978D01*
X412608Y353012D01*
X412562Y353054D01*
X412491Y353089D01*
X412424Y353133D01*
X412364Y353151D01*
X412309Y353178D01*
X412238Y353190D01*
X412154Y353215D01*
X412072Y353216D01*
X412004Y353227D01*
X60004Y354741D01*
X59938Y354732D01*
X59872Y354733D01*
X59800Y354713D01*
X59725Y354703D01*
X59664Y354675D01*
X59600Y354658D01*
X59536Y354618D01*
X59467Y354587D01*
X59417Y354544D01*
X59360Y354510D01*
X59310Y354454D01*
X59252Y354405D01*
X59216Y354350D01*
X59171Y354300D01*
X59138Y354233D01*
X59097Y354170D01*
X59077Y354106D01*
X59048Y354047D01*
X59038Y353979D01*
X59013Y353900D01*
X59012Y353813D01*
X59001Y353742D01*
X59001Y298999D01*
X6000Y298999D01*
X5936Y298990D01*
X5872Y298991D01*
X5797Y298970D01*
X5721Y298959D01*
X5662Y298933D01*
X5600Y298916D01*
X5534Y298875D01*
X5464Y298843D01*
X5415Y298801D01*
X5360Y298768D01*
X5308Y298710D01*
X5250Y298660D01*
X5214Y298606D01*
X5171Y298558D01*
X5138Y298489D01*
X5095Y298424D01*
X5076Y298362D01*
X5048Y298305D01*
X5037Y298235D01*
X5013Y298154D01*
X5012Y298069D01*
X5001Y298000D01*
X5001Y60000D01*
X5010Y59936D01*
X5009Y59872D01*
X5030Y59797D01*
X5041Y59721D01*
X5067Y59662D01*
X5084Y59600D01*
X5125Y59534D01*
X5157Y59464D01*
X5199Y59415D01*
X5232Y59360D01*
X5290Y59308D01*
X5340Y59250D01*
X5394Y59214D01*
X5442Y59171D01*
X5511Y59138D01*
X5576Y59095D01*
X5638Y59076D01*
X5695Y59048D01*
X5765Y59037D01*
X5846Y59013D01*
X5931Y59012D01*
X6000Y59001D01*
X59001Y59001D01*
X59001Y5871D01*
X59010Y5808D01*
X59009Y5745D01*
X59029Y5669D01*
X59041Y5591D01*
X59067Y5534D01*
X59083Y5473D01*
X59124Y5406D01*
X59157Y5335D01*
X59198Y5287D01*
X59231Y5233D01*
X59289Y5180D01*
X59340Y5120D01*
X59393Y5086D01*
X59440Y5043D01*
X59510Y5009D01*
X59576Y4966D01*
X59637Y4947D01*
X59693Y4920D01*
X59764Y4909D01*
X59846Y4883D01*
X59929Y4882D01*
X59998Y4871D01*
X410998Y4115D01*
X411063Y4124D01*
G37*
%LPC*%
G36*
X299906Y19499D02*
X299906Y19499D01*
X297884Y20337D01*
X296337Y21884D01*
X295499Y23906D01*
X295499Y26094D01*
X296337Y28116D01*
X297514Y29293D01*
X297553Y29345D01*
X297599Y29390D01*
X297637Y29457D01*
X297684Y29519D01*
X297706Y29579D01*
X297738Y29635D01*
X297756Y29710D01*
X297783Y29783D01*
X297788Y29847D01*
X297803Y29910D01*
X297799Y29987D01*
X297805Y30064D01*
X297792Y30127D01*
X297788Y30191D01*
X297763Y30264D01*
X297747Y30340D01*
X297717Y30397D01*
X297696Y30458D01*
X297655Y30514D01*
X297615Y30589D01*
X297556Y30650D01*
X297514Y30707D01*
X296337Y31884D01*
X295499Y33906D01*
X295499Y36094D01*
X296337Y38116D01*
X297884Y39663D01*
X299906Y40501D01*
X300000Y40501D01*
X300064Y40510D01*
X300128Y40509D01*
X300203Y40530D01*
X300279Y40541D01*
X300338Y40567D01*
X300400Y40584D01*
X300466Y40625D01*
X300536Y40657D01*
X300585Y40699D01*
X300640Y40732D01*
X300692Y40790D01*
X300750Y40840D01*
X300786Y40894D01*
X300829Y40942D01*
X300862Y41011D01*
X300905Y41076D01*
X300924Y41138D01*
X300952Y41195D01*
X300963Y41265D01*
X300987Y41346D01*
X300988Y41431D01*
X300999Y41500D01*
X300999Y93207D01*
X300983Y93324D01*
X300971Y93443D01*
X300963Y93464D01*
X300959Y93486D01*
X300911Y93594D01*
X300867Y93705D01*
X300853Y93723D01*
X300843Y93743D01*
X300766Y93833D01*
X300693Y93927D01*
X300675Y93940D01*
X300660Y93958D01*
X300560Y94023D01*
X300464Y94092D01*
X300443Y94100D01*
X300424Y94112D01*
X300310Y94147D01*
X300199Y94186D01*
X300176Y94188D01*
X300154Y94194D01*
X300036Y94196D01*
X299917Y94203D01*
X299896Y94198D01*
X299872Y94198D01*
X299693Y94148D01*
X299618Y94130D01*
X298094Y93499D01*
X295906Y93499D01*
X293884Y94337D01*
X292337Y95884D01*
X291499Y97906D01*
X291499Y100094D01*
X292337Y102116D01*
X293884Y103663D01*
X295906Y104501D01*
X296000Y104501D01*
X296064Y104510D01*
X296128Y104509D01*
X296203Y104530D01*
X296279Y104541D01*
X296338Y104567D01*
X296400Y104584D01*
X296466Y104625D01*
X296536Y104657D01*
X296585Y104699D01*
X296640Y104732D01*
X296692Y104790D01*
X296750Y104840D01*
X296786Y104894D01*
X296829Y104942D01*
X296862Y105011D01*
X296905Y105076D01*
X296924Y105138D01*
X296952Y105195D01*
X296963Y105265D01*
X296987Y105346D01*
X296988Y105431D01*
X296999Y105500D01*
X296999Y136207D01*
X296983Y136324D01*
X296971Y136443D01*
X296963Y136464D01*
X296959Y136486D01*
X296911Y136594D01*
X296867Y136704D01*
X296853Y136722D01*
X296843Y136743D01*
X296766Y136833D01*
X296693Y136927D01*
X296675Y136940D01*
X296660Y136958D01*
X296560Y137023D01*
X296464Y137092D01*
X296443Y137099D01*
X296424Y137112D01*
X296310Y137147D01*
X296199Y137186D01*
X296176Y137188D01*
X296154Y137194D01*
X296036Y137196D01*
X295917Y137203D01*
X295896Y137198D01*
X295872Y137198D01*
X295693Y137148D01*
X295618Y137130D01*
X294094Y136499D01*
X291906Y136499D01*
X289884Y137337D01*
X288337Y138884D01*
X287499Y140906D01*
X287499Y143094D01*
X288337Y145116D01*
X288782Y145561D01*
X288821Y145613D01*
X288867Y145657D01*
X288905Y145725D01*
X288951Y145787D01*
X288974Y145847D01*
X289006Y145903D01*
X289023Y145978D01*
X289051Y146051D01*
X289056Y146115D01*
X289071Y146177D01*
X289067Y146255D01*
X289073Y146332D01*
X289059Y146395D01*
X289056Y146459D01*
X289031Y146532D01*
X289015Y146608D01*
X288985Y146665D01*
X288964Y146725D01*
X288922Y146782D01*
X288883Y146857D01*
X288823Y146918D01*
X288782Y146974D01*
X286999Y148757D01*
X286999Y172343D01*
X286986Y172438D01*
X286981Y172534D01*
X286966Y172577D01*
X286959Y172622D01*
X286920Y172710D01*
X286888Y172801D01*
X286863Y172835D01*
X286843Y172879D01*
X286760Y172977D01*
X286707Y173050D01*
X280999Y178757D01*
X280999Y187243D01*
X290707Y196950D01*
X290764Y197027D01*
X290829Y197098D01*
X290849Y197139D01*
X290876Y197176D01*
X290910Y197266D01*
X290952Y197352D01*
X290958Y197394D01*
X290975Y197440D01*
X290985Y197567D01*
X290999Y197657D01*
X290999Y206243D01*
X292096Y207339D01*
X292167Y207434D01*
X292242Y207526D01*
X292251Y207547D01*
X292265Y207565D01*
X292307Y207676D01*
X292354Y207785D01*
X292356Y207807D01*
X292364Y207829D01*
X292374Y207947D01*
X292388Y208065D01*
X292385Y208087D01*
X292386Y208110D01*
X292362Y208226D01*
X292343Y208343D01*
X292333Y208364D01*
X292329Y208386D01*
X292273Y208491D01*
X292222Y208598D01*
X292207Y208615D01*
X292196Y208635D01*
X292113Y208720D01*
X292035Y208809D01*
X292016Y208820D01*
X291999Y208837D01*
X291837Y208929D01*
X291771Y208969D01*
X290884Y209337D01*
X289337Y210884D01*
X288499Y212906D01*
X288499Y215094D01*
X289337Y217116D01*
X290707Y218486D01*
X290764Y218563D01*
X290829Y218634D01*
X290849Y218675D01*
X290876Y218711D01*
X290910Y218801D01*
X290952Y218888D01*
X290958Y218930D01*
X290975Y218975D01*
X290985Y219103D01*
X290999Y219192D01*
X290999Y320343D01*
X290986Y320438D01*
X290981Y320534D01*
X290966Y320577D01*
X290959Y320622D01*
X290920Y320710D01*
X290888Y320801D01*
X290863Y320835D01*
X290843Y320879D01*
X290760Y320977D01*
X290707Y321050D01*
X284050Y327707D01*
X284042Y327712D01*
X284036Y327720D01*
X283929Y327797D01*
X283824Y327876D01*
X283815Y327879D01*
X283808Y327885D01*
X283684Y327929D01*
X283560Y327975D01*
X283551Y327976D01*
X283542Y327979D01*
X283410Y327987D01*
X283279Y327997D01*
X283270Y327995D01*
X283260Y327996D01*
X283185Y327978D01*
X283003Y327940D01*
X282982Y327928D01*
X282961Y327923D01*
X281599Y327359D01*
X278401Y327359D01*
X275445Y328583D01*
X273183Y330845D01*
X271959Y333801D01*
X271959Y336999D01*
X273183Y339955D01*
X275445Y342217D01*
X278401Y343441D01*
X281599Y343441D01*
X284555Y342217D01*
X286817Y339955D01*
X288041Y336999D01*
X288041Y333801D01*
X287828Y333288D01*
X287826Y333279D01*
X287821Y333270D01*
X287791Y333141D01*
X287758Y333015D01*
X287759Y333005D01*
X287756Y332996D01*
X287763Y332863D01*
X287767Y332733D01*
X287770Y332724D01*
X287771Y332714D01*
X287814Y332590D01*
X287855Y332465D01*
X287860Y332457D01*
X287863Y332448D01*
X287908Y332386D01*
X288014Y332232D01*
X288032Y332216D01*
X288045Y332199D01*
X295293Y324950D01*
X295345Y324912D01*
X295390Y324866D01*
X295457Y324827D01*
X295519Y324781D01*
X295579Y324758D01*
X295635Y324727D01*
X295710Y324709D01*
X295783Y324681D01*
X295847Y324676D01*
X295909Y324662D01*
X295987Y324666D01*
X296064Y324660D01*
X296127Y324673D01*
X296191Y324676D01*
X296264Y324701D01*
X296340Y324717D01*
X296397Y324747D01*
X296458Y324769D01*
X296514Y324810D01*
X296589Y324850D01*
X296650Y324909D01*
X296707Y324950D01*
X310157Y338401D01*
X341872Y338401D01*
X341881Y338402D01*
X341891Y338401D01*
X342021Y338422D01*
X342151Y338441D01*
X342160Y338444D01*
X342169Y338446D01*
X342289Y338503D01*
X342408Y338557D01*
X342415Y338563D01*
X342424Y338567D01*
X342523Y338655D01*
X342622Y338740D01*
X342628Y338748D01*
X342635Y338754D01*
X342675Y338820D01*
X342777Y338976D01*
X342784Y338999D01*
X342795Y339018D01*
X343183Y339955D01*
X345445Y342217D01*
X348401Y343441D01*
X351599Y343441D01*
X354555Y342217D01*
X356817Y339955D01*
X358041Y336999D01*
X358041Y333801D01*
X356817Y330845D01*
X354555Y328583D01*
X351599Y327359D01*
X348401Y327359D01*
X345445Y328583D01*
X343183Y330845D01*
X342795Y331782D01*
X342790Y331791D01*
X342788Y331800D01*
X342718Y331912D01*
X342652Y332025D01*
X342645Y332032D01*
X342640Y332040D01*
X342542Y332128D01*
X342446Y332218D01*
X342437Y332222D01*
X342430Y332229D01*
X342312Y332286D01*
X342194Y332346D01*
X342185Y332348D01*
X342177Y332352D01*
X342101Y332364D01*
X341917Y332398D01*
X341893Y332396D01*
X341872Y332399D01*
X313057Y332399D01*
X312962Y332386D01*
X312866Y332381D01*
X312823Y332366D01*
X312778Y332359D01*
X312690Y332320D01*
X312599Y332288D01*
X312565Y332263D01*
X312521Y332243D01*
X312423Y332160D01*
X312350Y332107D01*
X301293Y321050D01*
X301236Y320973D01*
X301171Y320902D01*
X301151Y320861D01*
X301124Y320824D01*
X301090Y320734D01*
X301048Y320648D01*
X301042Y320606D01*
X301025Y320560D01*
X301015Y320433D01*
X301001Y320343D01*
X301001Y254657D01*
X301014Y254562D01*
X301019Y254466D01*
X301034Y254423D01*
X301041Y254378D01*
X301080Y254290D01*
X301112Y254199D01*
X301137Y254165D01*
X301157Y254121D01*
X301240Y254024D01*
X301293Y253950D01*
X302950Y252293D01*
X303027Y252236D01*
X303098Y252171D01*
X303139Y252151D01*
X303176Y252124D01*
X303266Y252090D01*
X303352Y252048D01*
X303394Y252042D01*
X303440Y252025D01*
X303567Y252015D01*
X303657Y252001D01*
X399808Y252001D01*
X399903Y252014D01*
X399999Y252019D01*
X400042Y252034D01*
X400087Y252041D01*
X400174Y252080D01*
X400265Y252112D01*
X400300Y252137D01*
X400344Y252157D01*
X400441Y252240D01*
X400514Y252293D01*
X401884Y253663D01*
X403906Y254501D01*
X406094Y254501D01*
X408116Y253663D01*
X409663Y252116D01*
X410501Y250094D01*
X410501Y247906D01*
X409663Y245884D01*
X408116Y244337D01*
X406094Y243499D01*
X403906Y243499D01*
X401884Y244337D01*
X400514Y245707D01*
X400437Y245764D01*
X400366Y245829D01*
X400325Y245849D01*
X400289Y245876D01*
X400199Y245910D01*
X400112Y245952D01*
X400070Y245958D01*
X400025Y245975D01*
X399897Y245985D01*
X399808Y245999D01*
X357320Y245999D01*
X357288Y245995D01*
X357256Y245997D01*
X357149Y245975D01*
X357041Y245959D01*
X357012Y245946D01*
X356980Y245940D01*
X356884Y245888D01*
X356784Y245843D01*
X356760Y245822D01*
X356731Y245807D01*
X356653Y245731D01*
X356570Y245660D01*
X356552Y245633D01*
X356529Y245610D01*
X356475Y245515D01*
X356415Y245424D01*
X356406Y245393D01*
X356390Y245365D01*
X356365Y245259D01*
X356333Y245154D01*
X356332Y245122D01*
X356325Y245091D01*
X356331Y244981D01*
X356329Y244872D01*
X356338Y244841D01*
X356339Y244809D01*
X356375Y244706D01*
X356404Y244600D01*
X356421Y244573D01*
X356432Y244542D01*
X356485Y244469D01*
X356553Y244360D01*
X356589Y244328D01*
X356614Y244293D01*
X358055Y242852D01*
X358056Y242852D01*
X373889Y227018D01*
X373897Y227012D01*
X373903Y227004D01*
X374009Y226928D01*
X374115Y226849D01*
X374124Y226845D01*
X374132Y226840D01*
X374255Y226796D01*
X374379Y226749D01*
X374388Y226748D01*
X374397Y226745D01*
X374529Y226737D01*
X374660Y226727D01*
X374669Y226729D01*
X374679Y226729D01*
X374755Y226747D01*
X374772Y226751D01*
X377144Y226751D01*
X379258Y225875D01*
X380875Y224258D01*
X381751Y222144D01*
X381751Y219856D01*
X380875Y217742D01*
X379258Y216125D01*
X377144Y215249D01*
X374856Y215249D01*
X372742Y216125D01*
X371125Y217742D01*
X370249Y219856D01*
X370249Y222219D01*
X370269Y222295D01*
X370268Y222304D01*
X370271Y222314D01*
X370264Y222446D01*
X370260Y222576D01*
X370257Y222586D01*
X370256Y222595D01*
X370213Y222720D01*
X370173Y222845D01*
X370167Y222853D01*
X370164Y222862D01*
X370118Y222924D01*
X370014Y223078D01*
X369995Y223093D01*
X369982Y223111D01*
X354148Y238945D01*
X354072Y239002D01*
X354000Y239067D01*
X353959Y239087D01*
X353923Y239114D01*
X353833Y239148D01*
X353746Y239190D01*
X353704Y239196D01*
X353659Y239213D01*
X353531Y239223D01*
X353442Y239237D01*
X310748Y239237D01*
X310738Y239236D01*
X310729Y239237D01*
X310599Y239216D01*
X310469Y239197D01*
X310460Y239194D01*
X310450Y239192D01*
X310331Y239135D01*
X310212Y239081D01*
X310205Y239075D01*
X310196Y239071D01*
X310097Y238983D01*
X309997Y238898D01*
X309992Y238890D01*
X309985Y238883D01*
X309945Y238818D01*
X309934Y238802D01*
X308258Y237125D01*
X307444Y236788D01*
X307416Y236771D01*
X307386Y236761D01*
X307296Y236700D01*
X307202Y236644D01*
X307179Y236621D01*
X307153Y236603D01*
X307083Y236518D01*
X307009Y236439D01*
X306994Y236410D01*
X306973Y236385D01*
X306930Y236285D01*
X306881Y236187D01*
X306875Y236155D01*
X306862Y236126D01*
X306849Y236018D01*
X306828Y235910D01*
X306831Y235878D01*
X306828Y235846D01*
X306845Y235738D01*
X306855Y235629D01*
X306867Y235599D01*
X306873Y235567D01*
X306919Y235469D01*
X306960Y235367D01*
X306980Y235342D01*
X306994Y235313D01*
X307066Y235231D01*
X307133Y235145D01*
X307160Y235126D01*
X307181Y235102D01*
X307258Y235055D01*
X307362Y234980D01*
X307408Y234964D01*
X307444Y234942D01*
X308116Y234663D01*
X309663Y233116D01*
X310501Y231094D01*
X310501Y228906D01*
X309663Y226884D01*
X308293Y225514D01*
X308236Y225437D01*
X308171Y225366D01*
X308151Y225325D01*
X308124Y225289D01*
X308090Y225199D01*
X308048Y225112D01*
X308042Y225070D01*
X308025Y225025D01*
X308015Y224897D01*
X308001Y224808D01*
X308001Y208757D01*
X301293Y202050D01*
X301236Y201973D01*
X301171Y201902D01*
X301151Y201861D01*
X301124Y201824D01*
X301090Y201734D01*
X301048Y201648D01*
X301042Y201606D01*
X301025Y201560D01*
X301015Y201433D01*
X301001Y201343D01*
X301001Y198793D01*
X301017Y198676D01*
X301029Y198557D01*
X301037Y198536D01*
X301041Y198514D01*
X301089Y198406D01*
X301133Y198295D01*
X301147Y198277D01*
X301157Y198257D01*
X301234Y198167D01*
X301307Y198073D01*
X301325Y198060D01*
X301340Y198042D01*
X301440Y197977D01*
X301536Y197908D01*
X301557Y197900D01*
X301576Y197888D01*
X301690Y197853D01*
X301801Y197814D01*
X301824Y197812D01*
X301846Y197806D01*
X301964Y197804D01*
X302083Y197797D01*
X302104Y197802D01*
X302128Y197802D01*
X302307Y197852D01*
X302382Y197870D01*
X303906Y198501D01*
X306094Y198501D01*
X308116Y197663D01*
X309486Y196293D01*
X309563Y196236D01*
X309634Y196171D01*
X309675Y196151D01*
X309711Y196124D01*
X309801Y196090D01*
X309888Y196048D01*
X309930Y196042D01*
X309975Y196025D01*
X310103Y196015D01*
X310192Y196001D01*
X399808Y196001D01*
X399903Y196014D01*
X399999Y196019D01*
X400042Y196034D01*
X400087Y196041D01*
X400174Y196080D01*
X400265Y196112D01*
X400300Y196137D01*
X400344Y196157D01*
X400441Y196240D01*
X400514Y196293D01*
X401884Y197663D01*
X403906Y198501D01*
X406094Y198501D01*
X408116Y197663D01*
X409663Y196116D01*
X410501Y194094D01*
X410501Y191906D01*
X409663Y189884D01*
X408116Y188337D01*
X406086Y187496D01*
X405986Y187475D01*
X405878Y187459D01*
X405848Y187446D01*
X405817Y187440D01*
X405720Y187388D01*
X405621Y187343D01*
X405596Y187322D01*
X405568Y187307D01*
X405489Y187231D01*
X405406Y187160D01*
X405389Y187133D01*
X405366Y187110D01*
X405312Y187015D01*
X405252Y186924D01*
X405242Y186893D01*
X405227Y186865D01*
X405201Y186759D01*
X405170Y186654D01*
X405169Y186622D01*
X405162Y186591D01*
X405167Y186481D01*
X405166Y186372D01*
X405174Y186341D01*
X405176Y186309D01*
X405212Y186206D01*
X405241Y186100D01*
X405258Y186073D01*
X405268Y186042D01*
X405322Y185969D01*
X405389Y185860D01*
X405425Y185828D01*
X405450Y185793D01*
X409001Y182243D01*
X409001Y157192D01*
X409014Y157097D01*
X409019Y157001D01*
X409034Y156958D01*
X409041Y156913D01*
X409080Y156826D01*
X409112Y156735D01*
X409137Y156700D01*
X409157Y156656D01*
X409240Y156559D01*
X409293Y156486D01*
X410663Y155116D01*
X411501Y153094D01*
X411501Y150906D01*
X410663Y148884D01*
X409116Y147337D01*
X407094Y146499D01*
X404906Y146499D01*
X402884Y147337D01*
X401337Y148884D01*
X400499Y150906D01*
X400499Y153094D01*
X401337Y155116D01*
X402707Y156486D01*
X402764Y156563D01*
X402829Y156634D01*
X402849Y156675D01*
X402876Y156711D01*
X402910Y156801D01*
X402952Y156888D01*
X402958Y156930D01*
X402975Y156975D01*
X402985Y157103D01*
X402999Y157192D01*
X402999Y179343D01*
X402986Y179438D01*
X402981Y179534D01*
X402966Y179577D01*
X402959Y179622D01*
X402920Y179710D01*
X402888Y179801D01*
X402863Y179835D01*
X402843Y179879D01*
X402760Y179977D01*
X402707Y180050D01*
X397050Y185707D01*
X396973Y185764D01*
X396902Y185829D01*
X396861Y185849D01*
X396824Y185876D01*
X396734Y185910D01*
X396648Y185952D01*
X396606Y185958D01*
X396560Y185975D01*
X396433Y185985D01*
X396343Y185999D01*
X314657Y185999D01*
X314562Y185986D01*
X314466Y185981D01*
X314423Y185966D01*
X314378Y185959D01*
X314290Y185920D01*
X314199Y185888D01*
X314165Y185863D01*
X314121Y185843D01*
X314023Y185760D01*
X313950Y185707D01*
X310793Y182550D01*
X310736Y182473D01*
X310671Y182402D01*
X310651Y182361D01*
X310624Y182324D01*
X310590Y182234D01*
X310548Y182148D01*
X310542Y182106D01*
X310525Y182060D01*
X310515Y181933D01*
X310501Y181843D01*
X310501Y179906D01*
X309663Y177884D01*
X308116Y176337D01*
X306094Y175499D01*
X303906Y175499D01*
X302382Y176130D01*
X302268Y176160D01*
X302154Y176194D01*
X302131Y176195D01*
X302109Y176200D01*
X301991Y176197D01*
X301872Y176198D01*
X301850Y176192D01*
X301827Y176191D01*
X301715Y176155D01*
X301600Y176123D01*
X301581Y176111D01*
X301559Y176104D01*
X301461Y176037D01*
X301360Y175975D01*
X301345Y175958D01*
X301326Y175945D01*
X301251Y175853D01*
X301171Y175766D01*
X301161Y175745D01*
X301147Y175727D01*
X301100Y175618D01*
X301048Y175512D01*
X301045Y175490D01*
X301035Y175468D01*
X301013Y175284D01*
X301001Y175207D01*
X301001Y164793D01*
X301017Y164676D01*
X301029Y164557D01*
X301037Y164536D01*
X301041Y164514D01*
X301089Y164406D01*
X301133Y164295D01*
X301147Y164277D01*
X301157Y164257D01*
X301234Y164167D01*
X301307Y164073D01*
X301325Y164060D01*
X301340Y164042D01*
X301440Y163977D01*
X301536Y163908D01*
X301557Y163900D01*
X301576Y163888D01*
X301690Y163853D01*
X301801Y163814D01*
X301824Y163812D01*
X301846Y163806D01*
X301964Y163804D01*
X302083Y163797D01*
X302104Y163802D01*
X302128Y163802D01*
X302307Y163852D01*
X302382Y163870D01*
X303906Y164501D01*
X306094Y164501D01*
X308116Y163663D01*
X309663Y162116D01*
X310501Y160094D01*
X310501Y158157D01*
X310514Y158062D01*
X310519Y157966D01*
X310534Y157923D01*
X310541Y157878D01*
X310580Y157790D01*
X310612Y157699D01*
X310637Y157665D01*
X310657Y157621D01*
X310740Y157523D01*
X310793Y157450D01*
X311001Y157243D01*
X311001Y30757D01*
X306793Y26550D01*
X306736Y26473D01*
X306671Y26402D01*
X306651Y26361D01*
X306624Y26324D01*
X306590Y26234D01*
X306548Y26148D01*
X306542Y26106D01*
X306525Y26060D01*
X306515Y25933D01*
X306501Y25843D01*
X306501Y23906D01*
X305663Y21884D01*
X304116Y20337D01*
X302094Y19499D01*
X299906Y19499D01*
G37*
%LPD*%
%LPC*%
G36*
X118906Y54499D02*
X118906Y54499D01*
X116884Y55337D01*
X115337Y56884D01*
X114499Y58906D01*
X114499Y61094D01*
X115337Y63116D01*
X116884Y64663D01*
X118906Y65501D01*
X120843Y65501D01*
X120938Y65514D01*
X121034Y65519D01*
X121077Y65534D01*
X121122Y65541D01*
X121210Y65580D01*
X121301Y65612D01*
X121335Y65637D01*
X121379Y65657D01*
X121477Y65740D01*
X121550Y65793D01*
X133050Y77293D01*
X133069Y77319D01*
X133094Y77340D01*
X133154Y77432D01*
X133219Y77519D01*
X133230Y77549D01*
X133248Y77576D01*
X133280Y77681D01*
X133319Y77783D01*
X133321Y77815D01*
X133330Y77846D01*
X133332Y77955D01*
X133340Y78064D01*
X133334Y78096D01*
X133334Y78128D01*
X133305Y78233D01*
X133283Y78340D01*
X133268Y78369D01*
X133259Y78400D01*
X133202Y78493D01*
X133150Y78589D01*
X133128Y78612D01*
X133111Y78640D01*
X133030Y78713D01*
X132954Y78791D01*
X132926Y78807D01*
X132902Y78829D01*
X132803Y78876D01*
X132708Y78930D01*
X132677Y78938D01*
X132648Y78952D01*
X132559Y78966D01*
X132434Y78995D01*
X132385Y78993D01*
X132343Y78999D01*
X96757Y78999D01*
X91800Y83957D01*
X91723Y84014D01*
X91652Y84079D01*
X91611Y84099D01*
X91574Y84126D01*
X91484Y84160D01*
X91398Y84202D01*
X91356Y84208D01*
X91310Y84225D01*
X91183Y84235D01*
X91093Y84249D01*
X88856Y84249D01*
X86742Y85125D01*
X85125Y86742D01*
X84249Y88856D01*
X84249Y91144D01*
X85125Y93258D01*
X86742Y94875D01*
X88856Y95751D01*
X91144Y95751D01*
X93258Y94875D01*
X94875Y93258D01*
X95751Y91144D01*
X95751Y88907D01*
X95764Y88812D01*
X95769Y88716D01*
X95784Y88673D01*
X95791Y88628D01*
X95830Y88540D01*
X95862Y88449D01*
X95887Y88415D01*
X95907Y88371D01*
X95990Y88273D01*
X96043Y88200D01*
X98950Y85293D01*
X99027Y85236D01*
X99098Y85171D01*
X99139Y85151D01*
X99176Y85124D01*
X99266Y85090D01*
X99352Y85048D01*
X99394Y85042D01*
X99440Y85025D01*
X99567Y85015D01*
X99657Y85001D01*
X148343Y85001D01*
X148375Y85005D01*
X148407Y85003D01*
X148426Y85007D01*
X148446Y85006D01*
X148533Y85028D01*
X148622Y85041D01*
X148652Y85054D01*
X148683Y85060D01*
X148700Y85069D01*
X148719Y85074D01*
X148797Y85120D01*
X148879Y85157D01*
X148904Y85178D01*
X148932Y85193D01*
X148946Y85206D01*
X148963Y85216D01*
X149025Y85282D01*
X149094Y85340D01*
X149111Y85367D01*
X149134Y85390D01*
X149144Y85406D01*
X149157Y85421D01*
X149199Y85501D01*
X149248Y85576D01*
X149258Y85607D01*
X149273Y85635D01*
X149278Y85654D01*
X149287Y85671D01*
X149304Y85760D01*
X149330Y85846D01*
X149331Y85878D01*
X149338Y85909D01*
X149337Y85929D01*
X149341Y85948D01*
X149333Y86038D01*
X149334Y86128D01*
X149326Y86159D01*
X149324Y86191D01*
X149318Y86209D01*
X149316Y86229D01*
X149283Y86313D01*
X149259Y86400D01*
X149242Y86427D01*
X149231Y86458D01*
X149221Y86472D01*
X149213Y86491D01*
X149158Y86563D01*
X149111Y86640D01*
X149075Y86672D01*
X149050Y86707D01*
X146999Y88757D01*
X146999Y95808D01*
X146986Y95903D01*
X146981Y95999D01*
X146966Y96042D01*
X146959Y96087D01*
X146920Y96174D01*
X146888Y96265D01*
X146863Y96300D01*
X146843Y96344D01*
X146760Y96441D01*
X146707Y96514D01*
X145337Y97884D01*
X144499Y99906D01*
X144499Y102094D01*
X145337Y104116D01*
X146884Y105663D01*
X148906Y106501D01*
X151094Y106501D01*
X153116Y105663D01*
X154663Y104116D01*
X155501Y102094D01*
X155501Y99906D01*
X154663Y97884D01*
X153293Y96514D01*
X153236Y96437D01*
X153171Y96366D01*
X153151Y96325D01*
X153124Y96289D01*
X153090Y96199D01*
X153048Y96112D01*
X153042Y96070D01*
X153025Y96025D01*
X153015Y95897D01*
X153001Y95808D01*
X153001Y91657D01*
X153014Y91562D01*
X153019Y91466D01*
X153034Y91423D01*
X153041Y91378D01*
X153080Y91290D01*
X153112Y91199D01*
X153137Y91165D01*
X153157Y91121D01*
X153240Y91023D01*
X153293Y90950D01*
X154950Y89293D01*
X155027Y89236D01*
X155098Y89171D01*
X155139Y89151D01*
X155176Y89124D01*
X155266Y89090D01*
X155352Y89048D01*
X155394Y89042D01*
X155440Y89025D01*
X155567Y89015D01*
X155657Y89001D01*
X178343Y89001D01*
X178375Y89005D01*
X178407Y89003D01*
X178514Y89025D01*
X178622Y89041D01*
X178652Y89054D01*
X178683Y89060D01*
X178780Y89112D01*
X178879Y89157D01*
X178904Y89178D01*
X178932Y89193D01*
X179011Y89269D01*
X179094Y89340D01*
X179111Y89367D01*
X179134Y89390D01*
X179188Y89485D01*
X179248Y89576D01*
X179258Y89607D01*
X179273Y89635D01*
X179299Y89741D01*
X179330Y89846D01*
X179331Y89878D01*
X179338Y89909D01*
X179333Y90019D01*
X179334Y90128D01*
X179326Y90159D01*
X179324Y90191D01*
X179288Y90294D01*
X179259Y90400D01*
X179242Y90427D01*
X179232Y90458D01*
X179178Y90531D01*
X179111Y90640D01*
X179075Y90672D01*
X179050Y90707D01*
X176999Y92757D01*
X176999Y95808D01*
X176986Y95903D01*
X176981Y95999D01*
X176966Y96042D01*
X176959Y96087D01*
X176920Y96174D01*
X176888Y96265D01*
X176863Y96300D01*
X176843Y96344D01*
X176760Y96441D01*
X176707Y96514D01*
X175337Y97884D01*
X174499Y99906D01*
X174499Y102094D01*
X175337Y104116D01*
X176884Y105663D01*
X178906Y106501D01*
X181094Y106501D01*
X183116Y105663D01*
X184663Y104116D01*
X185501Y102094D01*
X185501Y99906D01*
X184663Y97884D01*
X183293Y96514D01*
X183236Y96437D01*
X183171Y96366D01*
X183151Y96325D01*
X183124Y96289D01*
X183090Y96199D01*
X183048Y96112D01*
X183042Y96070D01*
X183025Y96025D01*
X183015Y95897D01*
X183001Y95808D01*
X183001Y95657D01*
X183014Y95562D01*
X183019Y95466D01*
X183034Y95423D01*
X183041Y95378D01*
X183080Y95290D01*
X183112Y95199D01*
X183137Y95165D01*
X183157Y95121D01*
X183240Y95023D01*
X183293Y94950D01*
X184950Y93293D01*
X185027Y93236D01*
X185098Y93171D01*
X185139Y93151D01*
X185176Y93124D01*
X185266Y93090D01*
X185352Y93048D01*
X185394Y93042D01*
X185440Y93025D01*
X185567Y93015D01*
X185657Y93001D01*
X211343Y93001D01*
X211438Y93014D01*
X211534Y93019D01*
X211577Y93034D01*
X211622Y93041D01*
X211710Y93080D01*
X211801Y93112D01*
X211835Y93137D01*
X211879Y93157D01*
X211977Y93240D01*
X212050Y93293D01*
X231707Y112950D01*
X231764Y113027D01*
X231829Y113098D01*
X231849Y113139D01*
X231876Y113176D01*
X231910Y113266D01*
X231952Y113352D01*
X231958Y113394D01*
X231975Y113440D01*
X231985Y113567D01*
X231999Y113657D01*
X231999Y114207D01*
X231983Y114324D01*
X231971Y114443D01*
X231963Y114464D01*
X231959Y114486D01*
X231911Y114594D01*
X231867Y114705D01*
X231853Y114723D01*
X231843Y114743D01*
X231766Y114833D01*
X231693Y114927D01*
X231675Y114940D01*
X231660Y114958D01*
X231560Y115023D01*
X231464Y115092D01*
X231443Y115100D01*
X231424Y115112D01*
X231310Y115147D01*
X231199Y115186D01*
X231176Y115188D01*
X231154Y115194D01*
X231036Y115196D01*
X230917Y115203D01*
X230896Y115198D01*
X230872Y115198D01*
X230693Y115148D01*
X230618Y115130D01*
X229094Y114499D01*
X226906Y114499D01*
X224884Y115337D01*
X223337Y116884D01*
X222499Y118906D01*
X222499Y121094D01*
X223337Y123116D01*
X224884Y124663D01*
X226906Y125501D01*
X227000Y125501D01*
X227064Y125510D01*
X227128Y125509D01*
X227203Y125530D01*
X227279Y125541D01*
X227338Y125567D01*
X227400Y125584D01*
X227466Y125625D01*
X227536Y125657D01*
X227585Y125699D01*
X227640Y125732D01*
X227692Y125790D01*
X227750Y125840D01*
X227786Y125894D01*
X227829Y125942D01*
X227862Y126011D01*
X227905Y126076D01*
X227924Y126138D01*
X227952Y126195D01*
X227963Y126265D01*
X227987Y126346D01*
X227988Y126431D01*
X227999Y126500D01*
X227999Y212500D01*
X227990Y212564D01*
X227991Y212628D01*
X227970Y212703D01*
X227959Y212779D01*
X227933Y212838D01*
X227916Y212900D01*
X227875Y212966D01*
X227843Y213036D01*
X227801Y213085D01*
X227768Y213140D01*
X227710Y213192D01*
X227660Y213250D01*
X227606Y213286D01*
X227558Y213329D01*
X227489Y213362D01*
X227424Y213405D01*
X227362Y213424D01*
X227305Y213452D01*
X227235Y213463D01*
X227154Y213487D01*
X227069Y213488D01*
X227000Y213499D01*
X226906Y213499D01*
X224884Y214337D01*
X223337Y215884D01*
X222499Y217906D01*
X222499Y220094D01*
X223337Y222116D01*
X224884Y223663D01*
X226906Y224501D01*
X229094Y224501D01*
X231116Y223663D01*
X232663Y222116D01*
X232738Y221936D01*
X232798Y221834D01*
X232854Y221729D01*
X232870Y221713D01*
X232882Y221693D01*
X232968Y221612D01*
X233051Y221527D01*
X233071Y221516D01*
X233087Y221500D01*
X233193Y221446D01*
X233296Y221388D01*
X233318Y221382D01*
X233339Y221372D01*
X233455Y221350D01*
X233571Y221323D01*
X233593Y221324D01*
X233616Y221320D01*
X233733Y221331D01*
X233852Y221337D01*
X233874Y221345D01*
X233897Y221347D01*
X234007Y221391D01*
X234119Y221430D01*
X234136Y221442D01*
X234159Y221451D01*
X234306Y221566D01*
X234368Y221611D01*
X240707Y227950D01*
X242757Y230001D01*
X250808Y230001D01*
X250903Y230014D01*
X250999Y230019D01*
X251042Y230034D01*
X251087Y230041D01*
X251174Y230080D01*
X251265Y230112D01*
X251300Y230137D01*
X251344Y230157D01*
X251441Y230240D01*
X251514Y230293D01*
X252884Y231663D01*
X254906Y232501D01*
X257094Y232501D01*
X259116Y231663D01*
X260663Y230116D01*
X261501Y228094D01*
X261501Y225906D01*
X260663Y223884D01*
X259116Y222337D01*
X257094Y221499D01*
X254906Y221499D01*
X252884Y222337D01*
X251514Y223707D01*
X251437Y223764D01*
X251366Y223829D01*
X251325Y223849D01*
X251289Y223876D01*
X251199Y223910D01*
X251112Y223952D01*
X251070Y223958D01*
X251025Y223975D01*
X250897Y223985D01*
X250808Y223999D01*
X245657Y223999D01*
X245562Y223986D01*
X245466Y223981D01*
X245423Y223966D01*
X245378Y223959D01*
X245290Y223920D01*
X245199Y223888D01*
X245165Y223863D01*
X245121Y223843D01*
X245023Y223760D01*
X244950Y223707D01*
X238293Y217050D01*
X238236Y216973D01*
X238171Y216902D01*
X238151Y216861D01*
X238124Y216824D01*
X238090Y216734D01*
X238048Y216648D01*
X238042Y216606D01*
X238025Y216560D01*
X238015Y216433D01*
X238001Y216343D01*
X238001Y155657D01*
X238005Y155625D01*
X238003Y155593D01*
X238025Y155486D01*
X238041Y155378D01*
X238054Y155348D01*
X238060Y155317D01*
X238112Y155220D01*
X238157Y155121D01*
X238178Y155096D01*
X238193Y155068D01*
X238269Y154989D01*
X238340Y154906D01*
X238367Y154889D01*
X238390Y154866D01*
X238485Y154812D01*
X238576Y154752D01*
X238607Y154742D01*
X238635Y154727D01*
X238741Y154701D01*
X238846Y154670D01*
X238878Y154669D01*
X238909Y154662D01*
X239019Y154667D01*
X239128Y154666D01*
X239159Y154674D01*
X239191Y154676D01*
X239294Y154712D01*
X239400Y154741D01*
X239427Y154758D01*
X239458Y154768D01*
X239531Y154822D01*
X239640Y154889D01*
X239672Y154925D01*
X239707Y154950D01*
X242707Y157950D01*
X244757Y160001D01*
X249808Y160001D01*
X249903Y160014D01*
X249999Y160019D01*
X250042Y160034D01*
X250087Y160041D01*
X250174Y160080D01*
X250265Y160112D01*
X250300Y160137D01*
X250344Y160157D01*
X250441Y160240D01*
X250514Y160293D01*
X251884Y161663D01*
X253906Y162501D01*
X256094Y162501D01*
X258116Y161663D01*
X259663Y160116D01*
X260501Y158094D01*
X260501Y155906D01*
X259663Y153884D01*
X258116Y152337D01*
X256094Y151499D01*
X253906Y151499D01*
X251884Y152337D01*
X250514Y153707D01*
X250437Y153764D01*
X250366Y153829D01*
X250325Y153849D01*
X250289Y153876D01*
X250199Y153910D01*
X250112Y153952D01*
X250070Y153958D01*
X250025Y153975D01*
X249897Y153985D01*
X249808Y153999D01*
X247657Y153999D01*
X247562Y153986D01*
X247466Y153981D01*
X247423Y153966D01*
X247378Y153959D01*
X247290Y153920D01*
X247199Y153888D01*
X247165Y153863D01*
X247121Y153843D01*
X247023Y153760D01*
X246950Y153707D01*
X242293Y149050D01*
X242236Y148973D01*
X242171Y148902D01*
X242151Y148861D01*
X242124Y148824D01*
X242090Y148734D01*
X242048Y148648D01*
X242042Y148606D01*
X242025Y148560D01*
X242015Y148433D01*
X242001Y148343D01*
X242001Y111657D01*
X242005Y111625D01*
X242003Y111593D01*
X242025Y111486D01*
X242041Y111378D01*
X242054Y111348D01*
X242060Y111317D01*
X242112Y111220D01*
X242157Y111121D01*
X242178Y111096D01*
X242193Y111068D01*
X242269Y110989D01*
X242340Y110906D01*
X242367Y110889D01*
X242390Y110866D01*
X242485Y110812D01*
X242576Y110752D01*
X242607Y110742D01*
X242635Y110727D01*
X242741Y110701D01*
X242846Y110670D01*
X242878Y110669D01*
X242909Y110662D01*
X243019Y110667D01*
X243128Y110666D01*
X243159Y110674D01*
X243191Y110676D01*
X243294Y110712D01*
X243400Y110741D01*
X243427Y110758D01*
X243458Y110768D01*
X243531Y110822D01*
X243640Y110889D01*
X243672Y110925D01*
X243707Y110950D01*
X245207Y112450D01*
X245264Y112527D01*
X245329Y112598D01*
X245349Y112639D01*
X245376Y112676D01*
X245410Y112766D01*
X245452Y112852D01*
X245458Y112894D01*
X245475Y112940D01*
X245485Y113059D01*
X246337Y115116D01*
X247884Y116663D01*
X249906Y117501D01*
X252094Y117501D01*
X254116Y116663D01*
X255663Y115116D01*
X256501Y113094D01*
X256501Y110906D01*
X255663Y108884D01*
X254116Y107337D01*
X252094Y106499D01*
X249906Y106499D01*
X248993Y106877D01*
X248984Y106880D01*
X248976Y106884D01*
X248847Y106915D01*
X248720Y106947D01*
X248711Y106947D01*
X248701Y106949D01*
X248569Y106942D01*
X248438Y106938D01*
X248429Y106935D01*
X248420Y106935D01*
X248295Y106892D01*
X248170Y106851D01*
X248162Y106845D01*
X248153Y106842D01*
X248091Y106797D01*
X247937Y106692D01*
X247922Y106673D01*
X247904Y106661D01*
X228389Y87145D01*
X228317Y87050D01*
X228242Y86959D01*
X228233Y86938D01*
X228219Y86919D01*
X228177Y86808D01*
X228131Y86699D01*
X228128Y86677D01*
X228120Y86655D01*
X228111Y86537D01*
X228096Y86420D01*
X228100Y86397D01*
X228098Y86374D01*
X228122Y86258D01*
X228141Y86141D01*
X228151Y86120D01*
X228156Y86098D01*
X228211Y85994D01*
X228262Y85886D01*
X228277Y85869D01*
X228288Y85849D01*
X228371Y85764D01*
X228450Y85676D01*
X228468Y85664D01*
X228485Y85647D01*
X228647Y85555D01*
X228713Y85515D01*
X230258Y84875D01*
X231875Y83258D01*
X232751Y81144D01*
X232751Y78856D01*
X231875Y76742D01*
X230258Y75125D01*
X228144Y74249D01*
X225856Y74249D01*
X224229Y74923D01*
X224189Y74934D01*
X224151Y74952D01*
X224066Y74965D01*
X223956Y74993D01*
X223897Y74991D01*
X223847Y74999D01*
X205657Y74999D01*
X205562Y74986D01*
X205466Y74981D01*
X205423Y74966D01*
X205378Y74959D01*
X205290Y74920D01*
X205199Y74888D01*
X205165Y74863D01*
X205121Y74843D01*
X205023Y74760D01*
X204950Y74707D01*
X199243Y68999D01*
X190757Y68999D01*
X185050Y74707D01*
X184973Y74764D01*
X184902Y74829D01*
X184861Y74849D01*
X184824Y74876D01*
X184734Y74910D01*
X184648Y74952D01*
X184606Y74958D01*
X184560Y74975D01*
X184433Y74985D01*
X184343Y74999D01*
X139657Y74999D01*
X139562Y74986D01*
X139466Y74981D01*
X139423Y74966D01*
X139378Y74959D01*
X139290Y74920D01*
X139199Y74888D01*
X139165Y74863D01*
X139121Y74843D01*
X139023Y74760D01*
X138950Y74707D01*
X125793Y61550D01*
X125736Y61473D01*
X125671Y61402D01*
X125651Y61361D01*
X125624Y61324D01*
X125590Y61234D01*
X125548Y61148D01*
X125542Y61106D01*
X125525Y61060D01*
X125515Y60933D01*
X125501Y60843D01*
X125501Y58906D01*
X124663Y56884D01*
X123116Y55337D01*
X121094Y54499D01*
X118906Y54499D01*
G37*
%LPD*%
%LPC*%
G36*
X31466Y207479D02*
X31466Y207479D01*
X27930Y208944D01*
X25224Y211650D01*
X23759Y215186D01*
X23759Y219014D01*
X25224Y222550D01*
X27930Y225256D01*
X31466Y226721D01*
X43785Y226721D01*
X43880Y226734D01*
X43976Y226739D01*
X44020Y226754D01*
X44065Y226761D01*
X44152Y226800D01*
X44243Y226832D01*
X44277Y226857D01*
X44321Y226877D01*
X44419Y226960D01*
X44492Y227013D01*
X48019Y230541D01*
X51975Y230541D01*
X52018Y230525D01*
X52145Y230515D01*
X52235Y230501D01*
X95222Y230501D01*
X95317Y230514D01*
X95413Y230519D01*
X95456Y230534D01*
X95501Y230541D01*
X95589Y230580D01*
X95679Y230612D01*
X95714Y230637D01*
X95758Y230657D01*
X95855Y230740D01*
X95928Y230793D01*
X123096Y257961D01*
X123102Y257969D01*
X123109Y257974D01*
X123186Y258081D01*
X123265Y258187D01*
X123269Y258195D01*
X123274Y258203D01*
X123318Y258326D01*
X123365Y258450D01*
X123366Y258460D01*
X123369Y258469D01*
X123376Y258600D01*
X123387Y258732D01*
X123385Y258741D01*
X123385Y258750D01*
X123367Y258826D01*
X123329Y259008D01*
X123318Y259029D01*
X123313Y259050D01*
X122499Y261013D01*
X122499Y265987D01*
X124402Y270581D01*
X127919Y274098D01*
X132513Y276001D01*
X137487Y276001D01*
X142081Y274098D01*
X145598Y270581D01*
X147501Y265987D01*
X147501Y261013D01*
X145598Y256419D01*
X142081Y252902D01*
X137487Y250999D01*
X132513Y250999D01*
X130550Y251813D01*
X130541Y251815D01*
X130533Y251820D01*
X130404Y251850D01*
X130277Y251883D01*
X130267Y251882D01*
X130258Y251885D01*
X130125Y251878D01*
X129995Y251874D01*
X129986Y251871D01*
X129976Y251870D01*
X129852Y251827D01*
X129727Y251786D01*
X129719Y251781D01*
X129710Y251778D01*
X129648Y251732D01*
X129494Y251627D01*
X129478Y251609D01*
X129461Y251596D01*
X102293Y224428D01*
X99364Y221499D01*
X58707Y221499D01*
X58589Y221483D01*
X58471Y221471D01*
X58450Y221463D01*
X58427Y221459D01*
X58320Y221411D01*
X58209Y221367D01*
X58191Y221353D01*
X58170Y221343D01*
X58081Y221266D01*
X57987Y221193D01*
X57974Y221175D01*
X57956Y221160D01*
X57891Y221060D01*
X57822Y220964D01*
X57814Y220943D01*
X57802Y220924D01*
X57767Y220810D01*
X57727Y220699D01*
X57726Y220676D01*
X57719Y220654D01*
X57718Y220536D01*
X57711Y220417D01*
X57716Y220396D01*
X57716Y220372D01*
X57765Y220193D01*
X57783Y220118D01*
X58241Y219014D01*
X58241Y215186D01*
X56776Y211650D01*
X54070Y208944D01*
X50534Y207479D01*
X31466Y207479D01*
G37*
%LPD*%
%LPC*%
G36*
X132513Y143999D02*
X132513Y143999D01*
X127919Y145902D01*
X124402Y149419D01*
X122499Y154013D01*
X122499Y158987D01*
X123313Y160950D01*
X123315Y160959D01*
X123320Y160967D01*
X123350Y161096D01*
X123383Y161223D01*
X123382Y161233D01*
X123385Y161242D01*
X123378Y161375D01*
X123374Y161505D01*
X123371Y161514D01*
X123370Y161524D01*
X123327Y161648D01*
X123286Y161773D01*
X123281Y161781D01*
X123278Y161790D01*
X123232Y161852D01*
X123127Y162006D01*
X123109Y162022D01*
X123096Y162039D01*
X102928Y182207D01*
X102852Y182264D01*
X102780Y182329D01*
X102739Y182349D01*
X102703Y182376D01*
X102613Y182410D01*
X102526Y182452D01*
X102484Y182458D01*
X102439Y182475D01*
X102311Y182485D01*
X102222Y182499D01*
X51746Y182499D01*
X51705Y182493D01*
X51664Y182496D01*
X51580Y182476D01*
X51467Y182459D01*
X51414Y182435D01*
X51364Y182423D01*
X50534Y182079D01*
X31466Y182079D01*
X27930Y183544D01*
X25224Y186250D01*
X23759Y189786D01*
X23759Y193614D01*
X25224Y197150D01*
X27930Y199856D01*
X31466Y201321D01*
X50534Y201321D01*
X54070Y199856D01*
X56776Y197150D01*
X58241Y193614D01*
X58241Y192500D01*
X58250Y192436D01*
X58249Y192372D01*
X58270Y192297D01*
X58281Y192221D01*
X58307Y192162D01*
X58324Y192100D01*
X58365Y192034D01*
X58397Y191964D01*
X58439Y191915D01*
X58472Y191860D01*
X58530Y191808D01*
X58580Y191750D01*
X58634Y191714D01*
X58682Y191671D01*
X58751Y191638D01*
X58816Y191595D01*
X58878Y191576D01*
X58935Y191548D01*
X59005Y191537D01*
X59086Y191513D01*
X59171Y191512D01*
X59240Y191501D01*
X106364Y191501D01*
X109293Y188572D01*
X129461Y168404D01*
X129469Y168398D01*
X129474Y168391D01*
X129581Y168314D01*
X129687Y168235D01*
X129695Y168231D01*
X129703Y168226D01*
X129826Y168182D01*
X129950Y168135D01*
X129960Y168134D01*
X129969Y168131D01*
X130100Y168124D01*
X130232Y168113D01*
X130241Y168115D01*
X130250Y168115D01*
X130326Y168133D01*
X130508Y168171D01*
X130529Y168182D01*
X130550Y168187D01*
X132513Y169001D01*
X137487Y169001D01*
X142081Y167098D01*
X145598Y163581D01*
X147501Y158987D01*
X147501Y154013D01*
X145598Y149419D01*
X142081Y145902D01*
X137487Y143999D01*
X132513Y143999D01*
G37*
%LPD*%
%LPC*%
G36*
X164856Y123249D02*
X164856Y123249D01*
X162742Y124125D01*
X161161Y125707D01*
X161084Y125764D01*
X161012Y125829D01*
X160971Y125849D01*
X160935Y125876D01*
X160845Y125910D01*
X160759Y125952D01*
X160717Y125958D01*
X160671Y125975D01*
X160544Y125985D01*
X160454Y125999D01*
X126757Y125999D01*
X89750Y163007D01*
X89673Y163064D01*
X89602Y163129D01*
X89561Y163149D01*
X89524Y163176D01*
X89434Y163210D01*
X89348Y163252D01*
X89306Y163258D01*
X89260Y163275D01*
X89133Y163285D01*
X89043Y163299D01*
X58458Y163299D01*
X58449Y163298D01*
X58439Y163299D01*
X58309Y163278D01*
X58179Y163259D01*
X58170Y163256D01*
X58161Y163254D01*
X58041Y163197D01*
X57922Y163143D01*
X57915Y163137D01*
X57906Y163133D01*
X57808Y163045D01*
X57708Y162960D01*
X57702Y162952D01*
X57695Y162946D01*
X57655Y162880D01*
X57553Y162724D01*
X57546Y162701D01*
X57535Y162682D01*
X56776Y160850D01*
X54070Y158144D01*
X50534Y156679D01*
X31466Y156679D01*
X27930Y158144D01*
X25224Y160850D01*
X23759Y164386D01*
X23759Y168214D01*
X25224Y171750D01*
X27930Y174456D01*
X31466Y175921D01*
X50534Y175921D01*
X54070Y174456D01*
X56776Y171750D01*
X57535Y169918D01*
X57540Y169909D01*
X57542Y169900D01*
X57612Y169788D01*
X57679Y169675D01*
X57685Y169668D01*
X57690Y169660D01*
X57789Y169572D01*
X57884Y169482D01*
X57893Y169478D01*
X57900Y169471D01*
X58018Y169414D01*
X58136Y169354D01*
X58145Y169352D01*
X58154Y169348D01*
X58229Y169336D01*
X58413Y169302D01*
X58437Y169304D01*
X58458Y169301D01*
X91943Y169301D01*
X128950Y132293D01*
X129027Y132236D01*
X129098Y132171D01*
X129139Y132151D01*
X129176Y132124D01*
X129266Y132090D01*
X129352Y132048D01*
X129394Y132042D01*
X129440Y132025D01*
X129567Y132015D01*
X129657Y132001D01*
X160454Y132001D01*
X160549Y132014D01*
X160645Y132019D01*
X160688Y132034D01*
X160733Y132041D01*
X160821Y132080D01*
X160912Y132112D01*
X160946Y132137D01*
X160990Y132157D01*
X161088Y132240D01*
X161161Y132293D01*
X162742Y133875D01*
X164856Y134751D01*
X167144Y134751D01*
X169258Y133875D01*
X170875Y132258D01*
X171751Y130144D01*
X171751Y127856D01*
X170875Y125742D01*
X169258Y124125D01*
X167144Y123249D01*
X164856Y123249D01*
G37*
%LPD*%
%LPC*%
G36*
X104856Y123249D02*
X104856Y123249D01*
X102742Y124125D01*
X101125Y125742D01*
X100249Y127856D01*
X100249Y130093D01*
X100236Y130188D01*
X100231Y130284D01*
X100216Y130327D01*
X100209Y130372D01*
X100170Y130460D01*
X100138Y130551D01*
X100113Y130585D01*
X100093Y130629D01*
X100010Y130727D01*
X99957Y130800D01*
X93150Y137607D01*
X93073Y137664D01*
X93002Y137729D01*
X92961Y137749D01*
X92924Y137776D01*
X92834Y137810D01*
X92748Y137852D01*
X92706Y137858D01*
X92660Y137875D01*
X92533Y137885D01*
X92443Y137899D01*
X58458Y137899D01*
X58449Y137898D01*
X58439Y137899D01*
X58309Y137878D01*
X58179Y137859D01*
X58170Y137856D01*
X58161Y137854D01*
X58041Y137797D01*
X57922Y137743D01*
X57915Y137737D01*
X57906Y137733D01*
X57808Y137645D01*
X57708Y137560D01*
X57702Y137552D01*
X57695Y137546D01*
X57655Y137480D01*
X57553Y137324D01*
X57546Y137301D01*
X57535Y137282D01*
X56776Y135450D01*
X54070Y132744D01*
X50534Y131279D01*
X31466Y131279D01*
X27930Y132744D01*
X25224Y135450D01*
X23759Y138986D01*
X23759Y142814D01*
X25224Y146350D01*
X27930Y149056D01*
X31466Y150521D01*
X50534Y150521D01*
X54070Y149056D01*
X56776Y146350D01*
X57535Y144518D01*
X57540Y144509D01*
X57542Y144500D01*
X57612Y144388D01*
X57679Y144275D01*
X57685Y144268D01*
X57690Y144260D01*
X57789Y144172D01*
X57884Y144082D01*
X57893Y144078D01*
X57900Y144071D01*
X58018Y144014D01*
X58136Y143954D01*
X58145Y143952D01*
X58154Y143948D01*
X58229Y143936D01*
X58413Y143902D01*
X58437Y143904D01*
X58458Y143901D01*
X95343Y143901D01*
X104200Y135043D01*
X104277Y134986D01*
X104348Y134921D01*
X104389Y134901D01*
X104426Y134874D01*
X104516Y134840D01*
X104602Y134798D01*
X104644Y134792D01*
X104690Y134775D01*
X104817Y134765D01*
X104907Y134751D01*
X107144Y134751D01*
X109258Y133875D01*
X110875Y132258D01*
X111751Y130144D01*
X111751Y127856D01*
X110875Y125742D01*
X109258Y124125D01*
X107144Y123249D01*
X104856Y123249D01*
G37*
%LPD*%
%LPC*%
G36*
X440015Y151379D02*
X440015Y151379D01*
X434379Y157015D01*
X434379Y164985D01*
X434537Y165143D01*
X434576Y165194D01*
X434622Y165239D01*
X434660Y165306D01*
X434706Y165368D01*
X434729Y165428D01*
X434761Y165484D01*
X434779Y165560D01*
X434806Y165632D01*
X434811Y165696D01*
X434826Y165759D01*
X434822Y165836D01*
X434828Y165913D01*
X434815Y165976D01*
X434811Y166040D01*
X434786Y166114D01*
X434770Y166189D01*
X434740Y166246D01*
X434719Y166307D01*
X434677Y166364D01*
X434638Y166438D01*
X434578Y166499D01*
X434537Y166556D01*
X427148Y173945D01*
X425237Y175856D01*
X425237Y206442D01*
X425224Y206537D01*
X425219Y206633D01*
X425204Y206676D01*
X425197Y206721D01*
X425158Y206808D01*
X425126Y206899D01*
X425101Y206934D01*
X425081Y206978D01*
X424998Y207075D01*
X424945Y207148D01*
X406111Y225982D01*
X406103Y225988D01*
X406097Y225996D01*
X405991Y226072D01*
X405885Y226151D01*
X405876Y226155D01*
X405868Y226160D01*
X405745Y226204D01*
X405621Y226251D01*
X405612Y226252D01*
X405603Y226255D01*
X405471Y226263D01*
X405340Y226273D01*
X405331Y226271D01*
X405321Y226271D01*
X405245Y226253D01*
X405228Y226249D01*
X402856Y226249D01*
X400742Y227125D01*
X399125Y228742D01*
X398249Y230856D01*
X398249Y233144D01*
X399125Y235258D01*
X400742Y236875D01*
X402856Y237751D01*
X405144Y237751D01*
X407258Y236875D01*
X408875Y235258D01*
X409751Y233144D01*
X409751Y230781D01*
X409731Y230705D01*
X409732Y230696D01*
X409729Y230686D01*
X409736Y230554D01*
X409740Y230424D01*
X409743Y230414D01*
X409744Y230405D01*
X409787Y230280D01*
X409827Y230155D01*
X409833Y230147D01*
X409836Y230138D01*
X409882Y230076D01*
X409986Y229922D01*
X410005Y229907D01*
X410018Y229889D01*
X430763Y209144D01*
X430763Y178558D01*
X430776Y178463D01*
X430781Y178367D01*
X430796Y178324D01*
X430803Y178279D01*
X430842Y178192D01*
X430874Y178101D01*
X430899Y178066D01*
X430919Y178022D01*
X431002Y177925D01*
X431055Y177852D01*
X438444Y170463D01*
X438495Y170424D01*
X438540Y170378D01*
X438608Y170340D01*
X438670Y170294D01*
X438730Y170271D01*
X438786Y170239D01*
X438861Y170222D01*
X438934Y170194D01*
X438998Y170189D01*
X439060Y170174D01*
X439138Y170178D01*
X439215Y170172D01*
X439278Y170185D01*
X439342Y170189D01*
X439415Y170214D01*
X439491Y170230D01*
X439548Y170260D01*
X439608Y170281D01*
X439665Y170323D01*
X439740Y170362D01*
X439801Y170422D01*
X439857Y170463D01*
X440015Y170621D01*
X447985Y170621D01*
X453621Y164985D01*
X453621Y157015D01*
X447985Y151379D01*
X440015Y151379D01*
G37*
%LPD*%
%LPC*%
G36*
X341906Y55499D02*
X341906Y55499D01*
X339884Y56337D01*
X338337Y57884D01*
X337499Y59906D01*
X337499Y62094D01*
X338337Y64116D01*
X339707Y65486D01*
X339764Y65563D01*
X339829Y65634D01*
X339849Y65675D01*
X339876Y65711D01*
X339910Y65801D01*
X339952Y65888D01*
X339958Y65930D01*
X339975Y65975D01*
X339985Y66103D01*
X339999Y66192D01*
X339999Y75243D01*
X348757Y84001D01*
X412343Y84001D01*
X412438Y84014D01*
X412534Y84019D01*
X412577Y84034D01*
X412622Y84041D01*
X412710Y84080D01*
X412801Y84112D01*
X412835Y84137D01*
X412879Y84157D01*
X412977Y84240D01*
X413050Y84293D01*
X416707Y87950D01*
X416764Y88027D01*
X416829Y88098D01*
X416849Y88139D01*
X416876Y88176D01*
X416910Y88266D01*
X416952Y88352D01*
X416958Y88394D01*
X416975Y88440D01*
X416985Y88567D01*
X416999Y88657D01*
X416999Y94808D01*
X416986Y94903D01*
X416981Y94999D01*
X416966Y95042D01*
X416959Y95087D01*
X416920Y95174D01*
X416888Y95265D01*
X416863Y95300D01*
X416843Y95344D01*
X416760Y95441D01*
X416707Y95514D01*
X415337Y96884D01*
X414499Y98906D01*
X414499Y101094D01*
X415337Y103116D01*
X416884Y104663D01*
X418906Y105501D01*
X421094Y105501D01*
X423116Y104663D01*
X424663Y103116D01*
X425501Y101094D01*
X425501Y98906D01*
X424663Y96884D01*
X423293Y95514D01*
X423236Y95437D01*
X423171Y95366D01*
X423151Y95325D01*
X423124Y95289D01*
X423090Y95199D01*
X423048Y95112D01*
X423042Y95070D01*
X423025Y95025D01*
X423015Y94897D01*
X423001Y94808D01*
X423001Y85757D01*
X415243Y77999D01*
X351657Y77999D01*
X351562Y77986D01*
X351466Y77981D01*
X351423Y77966D01*
X351378Y77959D01*
X351290Y77920D01*
X351199Y77888D01*
X351165Y77863D01*
X351121Y77843D01*
X351023Y77760D01*
X350950Y77707D01*
X346293Y73050D01*
X346236Y72973D01*
X346171Y72902D01*
X346151Y72861D01*
X346124Y72824D01*
X346090Y72734D01*
X346048Y72648D01*
X346042Y72606D01*
X346025Y72560D01*
X346015Y72433D01*
X346001Y72343D01*
X346001Y66192D01*
X346014Y66097D01*
X346019Y66001D01*
X346034Y65958D01*
X346041Y65913D01*
X346080Y65826D01*
X346112Y65735D01*
X346137Y65700D01*
X346157Y65656D01*
X346240Y65559D01*
X346293Y65486D01*
X347663Y64116D01*
X348501Y62094D01*
X348501Y59906D01*
X347663Y57884D01*
X346116Y56337D01*
X344094Y55499D01*
X341906Y55499D01*
G37*
%LPD*%
%LPC*%
G36*
X31466Y232879D02*
X31466Y232879D01*
X27930Y234344D01*
X25224Y237050D01*
X23759Y240586D01*
X23759Y244414D01*
X25224Y247950D01*
X27930Y250656D01*
X31466Y252121D01*
X50534Y252121D01*
X54070Y250656D01*
X56776Y247950D01*
X58241Y244414D01*
X58241Y240586D01*
X56776Y237050D01*
X54070Y234344D01*
X50534Y232879D01*
X31466Y232879D01*
G37*
%LPD*%
%LPC*%
G36*
X31466Y105879D02*
X31466Y105879D01*
X27930Y107344D01*
X25224Y110050D01*
X23759Y113586D01*
X23759Y117414D01*
X25224Y120950D01*
X27930Y123656D01*
X31466Y125121D01*
X50534Y125121D01*
X54070Y123656D01*
X56776Y120950D01*
X58241Y117414D01*
X58241Y113586D01*
X56776Y110050D01*
X54070Y107344D01*
X50534Y105879D01*
X31466Y105879D01*
G37*
%LPD*%
%LPC*%
G36*
X441015Y111379D02*
X441015Y111379D01*
X435379Y117015D01*
X435379Y117238D01*
X435370Y117302D01*
X435371Y117366D01*
X435350Y117441D01*
X435339Y117517D01*
X435313Y117576D01*
X435296Y117638D01*
X435255Y117704D01*
X435223Y117774D01*
X435181Y117823D01*
X435148Y117878D01*
X435090Y117930D01*
X435040Y117988D01*
X434986Y118024D01*
X434938Y118067D01*
X434869Y118100D01*
X434804Y118143D01*
X434742Y118162D01*
X434685Y118190D01*
X434615Y118201D01*
X434534Y118225D01*
X434449Y118226D01*
X434380Y118237D01*
X419856Y118237D01*
X408111Y129982D01*
X408103Y129988D01*
X408097Y129995D01*
X407990Y130073D01*
X407885Y130151D01*
X407876Y130155D01*
X407869Y130160D01*
X407745Y130204D01*
X407621Y130251D01*
X407612Y130252D01*
X407603Y130255D01*
X407471Y130263D01*
X407340Y130273D01*
X407331Y130271D01*
X407321Y130271D01*
X407246Y130253D01*
X407228Y130249D01*
X404856Y130249D01*
X402742Y131125D01*
X401125Y132742D01*
X400249Y134856D01*
X400249Y137144D01*
X401125Y139258D01*
X402742Y140875D01*
X404856Y141751D01*
X407144Y141751D01*
X409258Y140875D01*
X410875Y139258D01*
X411751Y137144D01*
X411751Y134781D01*
X411731Y134705D01*
X411732Y134696D01*
X411729Y134686D01*
X411736Y134554D01*
X411740Y134423D01*
X411743Y134414D01*
X411744Y134405D01*
X411787Y134280D01*
X411828Y134155D01*
X411833Y134147D01*
X411836Y134138D01*
X411881Y134076D01*
X411987Y133922D01*
X412005Y133907D01*
X412018Y133889D01*
X421852Y124055D01*
X421928Y123998D01*
X422000Y123933D01*
X422041Y123913D01*
X422077Y123886D01*
X422167Y123852D01*
X422254Y123810D01*
X422296Y123804D01*
X422341Y123787D01*
X422469Y123777D01*
X422558Y123763D01*
X434380Y123763D01*
X434444Y123772D01*
X434508Y123771D01*
X434583Y123792D01*
X434659Y123803D01*
X434718Y123829D01*
X434780Y123846D01*
X434846Y123887D01*
X434916Y123919D01*
X434965Y123961D01*
X435020Y123994D01*
X435072Y124052D01*
X435130Y124102D01*
X435166Y124156D01*
X435209Y124204D01*
X435242Y124273D01*
X435285Y124338D01*
X435304Y124400D01*
X435332Y124457D01*
X435343Y124527D01*
X435367Y124608D01*
X435368Y124693D01*
X435379Y124762D01*
X435379Y124985D01*
X441015Y130621D01*
X448985Y130621D01*
X454621Y124985D01*
X454621Y117015D01*
X448985Y111379D01*
X441015Y111379D01*
G37*
%LPD*%
%LPC*%
G36*
X78513Y193999D02*
X78513Y193999D01*
X73919Y195902D01*
X70402Y199419D01*
X68499Y204013D01*
X68499Y208987D01*
X70402Y213581D01*
X73919Y217098D01*
X78513Y219001D01*
X83487Y219001D01*
X88081Y217098D01*
X91598Y213581D01*
X93501Y208987D01*
X93501Y204013D01*
X91598Y199419D01*
X88081Y195902D01*
X83487Y193999D01*
X78513Y193999D01*
G37*
%LPD*%
%LPC*%
G36*
X177663Y224749D02*
X177663Y224749D01*
X173344Y226538D01*
X170038Y229844D01*
X168249Y234163D01*
X168249Y238837D01*
X170038Y243156D01*
X173344Y246462D01*
X177663Y248251D01*
X182337Y248251D01*
X186656Y246462D01*
X189962Y243156D01*
X191751Y238837D01*
X191751Y234163D01*
X189962Y229844D01*
X186656Y226538D01*
X182337Y224749D01*
X177663Y224749D01*
G37*
%LPD*%
%LPC*%
G36*
X177663Y164749D02*
X177663Y164749D01*
X173344Y166538D01*
X170038Y169844D01*
X168249Y174163D01*
X168249Y178837D01*
X170038Y183156D01*
X173344Y186462D01*
X177663Y188251D01*
X182337Y188251D01*
X186656Y186462D01*
X189962Y183156D01*
X191751Y178837D01*
X191751Y174163D01*
X189962Y169844D01*
X186656Y166538D01*
X182337Y164749D01*
X177663Y164749D01*
G37*
%LPD*%
%LPC*%
G36*
X441015Y72379D02*
X441015Y72379D01*
X435379Y78015D01*
X435379Y85985D01*
X441015Y91621D01*
X448985Y91621D01*
X454621Y85985D01*
X454621Y78015D01*
X448985Y72379D01*
X441015Y72379D01*
G37*
%LPD*%
%LPC*%
G36*
X440015Y193379D02*
X440015Y193379D01*
X434379Y199015D01*
X434379Y206985D01*
X440015Y212621D01*
X447985Y212621D01*
X453621Y206985D01*
X453621Y199015D01*
X447985Y193379D01*
X440015Y193379D01*
G37*
%LPD*%
%LPC*%
G36*
X440015Y230379D02*
X440015Y230379D01*
X434379Y236015D01*
X434379Y243985D01*
X440015Y249621D01*
X447985Y249621D01*
X453621Y243985D01*
X453621Y236015D01*
X447985Y230379D01*
X440015Y230379D01*
G37*
%LPD*%
%LPC*%
G36*
X438015Y266379D02*
X438015Y266379D01*
X432379Y272015D01*
X432379Y279985D01*
X438015Y285621D01*
X445985Y285621D01*
X451621Y279985D01*
X451621Y272015D01*
X445985Y266379D01*
X438015Y266379D01*
G37*
%LPD*%
%LPC*%
G36*
X343131Y276559D02*
X343131Y276559D01*
X341959Y277731D01*
X341959Y291469D01*
X343131Y292641D01*
X356869Y292641D01*
X358041Y291469D01*
X358041Y277731D01*
X356869Y276559D01*
X343131Y276559D01*
G37*
%LPD*%
%LPC*%
G36*
X273131Y276559D02*
X273131Y276559D01*
X271959Y277731D01*
X271959Y291469D01*
X273131Y292641D01*
X286869Y292641D01*
X288041Y291469D01*
X288041Y277731D01*
X286869Y276559D01*
X273131Y276559D01*
G37*
%LPD*%
%LPC*%
G36*
X278401Y301959D02*
X278401Y301959D01*
X275445Y303183D01*
X273183Y305445D01*
X271959Y308401D01*
X271959Y311599D01*
X273183Y314555D01*
X275445Y316817D01*
X278401Y318041D01*
X281599Y318041D01*
X284555Y316817D01*
X286817Y314555D01*
X288041Y311599D01*
X288041Y308401D01*
X286817Y305445D01*
X284555Y303183D01*
X281599Y301959D01*
X278401Y301959D01*
G37*
%LPD*%
%LPC*%
G36*
X348401Y301959D02*
X348401Y301959D01*
X345445Y303183D01*
X343183Y305445D01*
X341959Y308401D01*
X341959Y311599D01*
X343183Y314555D01*
X345445Y316817D01*
X348401Y318041D01*
X351599Y318041D01*
X354555Y316817D01*
X356817Y314555D01*
X358041Y311599D01*
X358041Y308401D01*
X356817Y305445D01*
X354555Y303183D01*
X351599Y301959D01*
X348401Y301959D01*
G37*
%LPD*%
D10*
X135000Y156500D03*
X135000Y263500D03*
D11*
X180000Y176500D03*
X180000Y236500D03*
D10*
X81000Y206500D03*
D12*
X280000Y335400D03*
X280000Y310000D03*
D13*
X280000Y284600D03*
D12*
X350000Y335400D03*
X350000Y310000D03*
D13*
X350000Y284600D03*
D14*
X48620Y115500D02*
X33380Y115500D01*
X33380Y140900D02*
X48620Y140900D01*
X48620Y166300D02*
X33380Y166300D01*
X33380Y191700D02*
X48620Y191700D01*
X48620Y217100D02*
X33380Y217100D01*
X33380Y242500D02*
X48620Y242500D01*
D15*
X445000Y121000D03*
X444000Y161000D03*
X445000Y82000D03*
X444000Y203000D03*
X444000Y240000D03*
X442000Y276000D03*
D16*
X360000Y180000D03*
X360000Y260000D03*
D17*
X257000Y311000D03*
D16*
X360000Y100000D03*
X420000Y140000D03*
X360000Y140000D03*
X360000Y220000D03*
X210000Y180000D03*
X326000Y34000D03*
X251000Y89000D03*
X90000Y30000D03*
X255000Y169000D03*
X420000Y180000D03*
X138000Y49000D03*
X390000Y180000D03*
X390000Y260000D03*
D18*
X407000Y208000D03*
X432000Y226000D03*
D19*
X166000Y129000D02*
X128000Y129000D01*
D18*
X166000Y129000D03*
D19*
X90700Y166300D02*
X41000Y166300D01*
X90700Y166300D02*
X128000Y129000D01*
D16*
X256000Y227000D03*
D19*
X244000Y227000D01*
D16*
X180000Y101000D03*
D19*
X184000Y90000D02*
X213000Y90000D01*
X180000Y94000D02*
X180000Y101000D01*
X180000Y94000D02*
X184000Y90000D01*
X213000Y90000D02*
X235000Y112000D01*
X235000Y218000D02*
X244000Y227000D01*
X235000Y218000D02*
X235000Y112000D01*
D20*
X97500Y226000D02*
X135000Y263500D01*
X97500Y226000D02*
X49900Y226000D01*
D21*
X41000Y217100D01*
D20*
X104500Y187000D02*
X135000Y156500D01*
X104500Y187000D02*
X45700Y187000D01*
D21*
X41000Y191700D01*
D18*
X106000Y129000D03*
D19*
X94100Y140900D01*
X41000Y140900D01*
D16*
X255000Y157000D03*
X150000Y101000D03*
D19*
X154000Y86000D02*
X216000Y86000D01*
X154000Y86000D02*
X150000Y90000D01*
X150000Y101000D01*
X239000Y150000D02*
X246000Y157000D01*
X255000Y157000D01*
X239000Y109000D02*
X216000Y86000D01*
X239000Y109000D02*
X239000Y150000D01*
D16*
X305000Y159000D03*
X301000Y25000D03*
D19*
X308000Y156000D02*
X305000Y159000D01*
X308000Y156000D02*
X308000Y32000D01*
X301000Y25000D01*
D22*
X421000Y121000D02*
X445000Y121000D01*
X421000Y121000D02*
X406000Y136000D01*
D18*
X406000Y136000D03*
D16*
X305000Y230000D03*
D19*
X305000Y210000D01*
X298000Y203000D01*
X298000Y155000D01*
X304000Y149000D01*
D16*
X301000Y35000D03*
D19*
X304000Y38000D02*
X304000Y149000D01*
X304000Y38000D02*
X301000Y35000D01*
D22*
X428000Y177000D02*
X444000Y161000D01*
X428000Y177000D02*
X428000Y208000D01*
X404000Y232000D01*
D18*
X404000Y232000D03*
D19*
X294000Y214000D02*
X294000Y322000D01*
D16*
X294000Y214000D03*
X405000Y193000D03*
X305000Y193000D03*
D19*
X294000Y322000D02*
X280600Y335400D01*
X280000Y335400D01*
X305000Y193000D02*
X405000Y193000D01*
X350000Y335400D02*
X311400Y335400D01*
X298000Y322000D01*
X298000Y253000D01*
X302000Y249000D01*
X298000Y245000D01*
X298000Y219000D01*
X301000Y216000D01*
X301000Y212000D01*
X294000Y205000D01*
X294000Y196000D01*
X284000Y186000D01*
X284000Y180000D01*
X290000Y174000D01*
X290000Y150000D01*
X294000Y146000D01*
X294000Y143000D01*
X293000Y142000D01*
D16*
X293000Y142000D03*
X405000Y249000D03*
D19*
X302000Y249000D01*
D16*
X120000Y60000D03*
D19*
X138000Y78000D01*
D18*
X227000Y80000D03*
D19*
X225000Y78000D02*
X204000Y78000D01*
X198000Y72000D01*
X192000Y72000D01*
X186000Y78000D01*
X138000Y78000D01*
X225000Y78000D02*
X227000Y80000D01*
D16*
X228000Y120000D03*
X228000Y219000D03*
D19*
X231000Y123000D02*
X228000Y120000D01*
X231000Y216000D02*
X228000Y219000D01*
X231000Y216000D02*
X231000Y123000D01*
D18*
X376000Y221000D03*
D22*
X355000Y242000D01*
X305000Y242000D01*
D18*
X305000Y242000D03*
D16*
X343000Y61000D03*
X420000Y100000D03*
D19*
X420000Y87000D01*
X414000Y81000D01*
X350000Y81000D01*
X343000Y74000D01*
X343000Y61000D01*
D18*
X90000Y90000D03*
D19*
X98000Y82000D01*
D18*
X195000Y79000D03*
D19*
X198000Y82000D02*
X219000Y82000D01*
X198000Y82000D02*
X195000Y79000D01*
X192000Y82000D01*
X98000Y82000D01*
D16*
X251000Y112000D03*
D19*
X249000Y112000D01*
X219000Y82000D01*
D16*
X291000Y183000D03*
D19*
X294000Y180000D01*
X294000Y152000D01*
X300000Y146000D01*
X300000Y102000D01*
X297000Y99000D01*
D16*
X297000Y99000D03*
X406000Y152000D03*
D19*
X406000Y181000D01*
X398000Y189000D01*
X313000Y189000D01*
X305000Y181000D01*
D16*
X305000Y181000D03*
M02*
