G04 EAGLE Gerber RS-274X export*
G75*
%MOMM*%
%FSLAX34Y34*%
%LPD*%
%INSolderpaste Top*%
%IPPOS*%
%AMOC8*
5,1,8,0,0,1.08239X$1,22.5*%
G01*
%ADD10R,2.184400X0.558800*%
%ADD11R,1.100000X1.000000*%
%ADD12R,1.000000X1.100000*%
%ADD13R,1.800000X1.600000*%
%ADD14R,2.235200X1.219200*%
%ADD15R,2.200000X3.600000*%
%ADD16R,1.270000X0.558800*%
%ADD17R,0.900000X0.800000*%
%ADD18R,1.200000X0.800000*%
%ADD19R,1.400000X1.000000*%
%ADD20R,2.000000X1.500000*%


D10*
X276378Y239050D03*
X276378Y226350D03*
X276378Y213650D03*
X276378Y200950D03*
X323622Y200950D03*
X323622Y213650D03*
X323622Y226350D03*
X323622Y239050D03*
D11*
X360000Y208500D03*
X360000Y191500D03*
X390000Y191500D03*
X390000Y208500D03*
D12*
X360000Y231500D03*
X360000Y248500D03*
D11*
X390000Y248500D03*
X390000Y231500D03*
D10*
X276378Y169050D03*
X276378Y156350D03*
X276378Y143650D03*
X276378Y130950D03*
X323622Y130950D03*
X323622Y143650D03*
X323622Y156350D03*
X323622Y169050D03*
D11*
X360000Y128500D03*
X360000Y111500D03*
X390000Y111500D03*
X390000Y128500D03*
D12*
X360000Y151500D03*
X360000Y168500D03*
D11*
X390000Y168500D03*
X390000Y151500D03*
X180000Y128500D03*
X180000Y111500D03*
X150000Y128500D03*
X150000Y111500D03*
D12*
X105000Y311500D03*
X105000Y328500D03*
D13*
X238000Y311000D03*
X238000Y339000D03*
D12*
X215000Y328500D03*
X215000Y311500D03*
D13*
X80000Y311000D03*
X80000Y339000D03*
D14*
X129012Y343114D03*
X129012Y320000D03*
X129012Y296886D03*
D15*
X190990Y320000D03*
D16*
X287046Y34398D03*
X287046Y25000D03*
X287046Y15602D03*
X312954Y15602D03*
X312954Y34398D03*
D11*
X420000Y191500D03*
X420000Y208500D03*
X420000Y248500D03*
X420000Y231500D03*
D17*
X150000Y68500D03*
X150000Y91500D03*
X90000Y108500D03*
X90000Y131500D03*
X180000Y68500D03*
X180000Y91500D03*
D18*
X210000Y232000D03*
X210000Y248000D03*
D19*
X236000Y270500D03*
X236000Y289500D03*
X214000Y280000D03*
D10*
X276378Y99050D03*
X276378Y86350D03*
X276378Y73650D03*
X276378Y60950D03*
X323622Y60950D03*
X323622Y73650D03*
X323622Y86350D03*
X323622Y99050D03*
D13*
X120000Y74000D03*
X120000Y46000D03*
D11*
X390000Y88500D03*
X390000Y71500D03*
X240000Y71500D03*
X240000Y88500D03*
X420000Y111500D03*
X420000Y128500D03*
X420000Y71500D03*
X420000Y88500D03*
X210000Y88500D03*
X210000Y71500D03*
X420000Y151500D03*
X420000Y168500D03*
X210000Y208500D03*
X210000Y191500D03*
D20*
X90000Y45000D03*
X90000Y75000D03*
D11*
X240000Y128500D03*
X240000Y111500D03*
X240000Y248500D03*
X240000Y231500D03*
D19*
X236000Y150500D03*
X236000Y169500D03*
X214000Y160000D03*
D12*
X360000Y71500D03*
X360000Y88500D03*
D11*
X240000Y208500D03*
X240000Y191500D03*
X120000Y111500D03*
X120000Y128500D03*
X210000Y111500D03*
X210000Y128500D03*
D19*
X236000Y30500D03*
X236000Y49500D03*
X214000Y40000D03*
D12*
X150000Y48500D03*
X150000Y31500D03*
D11*
X180000Y48500D03*
X180000Y31500D03*
M02*
