  0
SECTION
  2
HEADER
  9
$ACADVER
  1
AC1015
  9
$ACADMAINTVER
 70
     6
  9
$DWGCODEPAGE
  3
ANSI_1252
  9
$INSBASE
 10
0.0
 20
0.0
 30
0.0
  9
$EXTMIN
 10
0.0
 20
0.0
 30
0.0
  9
$EXTMAX
 10
192.004822
 20
142.5
 30
2.0
  9
$LIMMIN
 10
0.0
 20
0.0
  9
$LIMMAX
 10
420.0
 20
297.0
  9
$ORTHOMODE
 70
     0
  9
$REGENMODE
 70
     1
  9
$FILLMODE
 70
     1
  9
$QTEXTMODE
 70
     0
  9
$MIRRTEXT
 70
     1
  9
$LTSCALE
 40
1.0
  9
$ATTMODE
 70
     1
  9
$TEXTSIZE
 40
2.5
  9
$TRACEWID
 40
1.0
  9
$TEXTSTYLE
  7
Standard
  9
$CLAYER
  8
0
  9
$CELTYPE
  6
ByLayer
  9
$CECOLOR
 62
   256
  9
$CELTSCALE
 40
1.0
  9
$DISPSILH
 70
     0
  9
$DIMSCALE
 40
1.0
  9
$DIMASZ
 40
2.5
  9
$DIMEXO
 40
0.625
  9
$DIMDLI
 40
3.75
  9
$DIMRND
 40
0.0
  9
$DIMDLE
 40
0.0
  9
$DIMEXE
 40
1.25
  9
$DIMTP
 40
0.0
  9
$DIMTM
 40
0.0
  9
$DIMTXT
 40
2.5
  9
$DIMCEN
 40
2.5
  9
$DIMTSZ
 40
0.0
  9
$DIMTOL
 70
     0
  9
$DIMLIM
 70
     0
  9
$DIMTIH
 70
     0
  9
$DIMTOH
 70
     0
  9
$DIMSE1
 70
     0
  9
$DIMSE2
 70
     0
  9
$DIMTAD
 70
     1
  9
$DIMZIN
 70
     8
  9
$DIMBLK
  1

  9
$DIMASO
 70
     1
  9
$DIMSHO
 70
     1
  9
$DIMPOST
  1

  9
$DIMAPOST
  1

  9
$DIMALT
 70
     0
  9
$DIMALTD
 70
     3
  9
$DIMALTF
 40
0.03937
  9
$DIMLFAC
 40
1.0
  9
$DIMTOFL
 70
     1
  9
$DIMTVP
 40
0.0
  9
$DIMTIX
 70
     0
  9
$DIMSOXD
 70
     0
  9
$DIMSAH
 70
     0
  9
$DIMBLK1
  1

  9
$DIMBLK2
  1

  9
$DIMSTYLE
  2

  9
$DIMCLRD
 70
     0
  9
$DIMCLRE
 70
     0
  9
$DIMCLRT
 70
     0
  9
$DIMTFAC
 40
1.0
  9
$DIMGAP
 40
0.625
  9
$DIMJUST
 70
     0
  9
$DIMSD1
 70
     0
  9
$DIMSD2
 70
     0
  9
$DIMTOLJ
 70
     0
  9
$DIMTZIN
 70
     8
  9
$DIMALTZ
 70
     0
  9
$DIMALTTZ
 70
     0
  9
$DIMUPT
 70
     0
  9
$DIMDEC
 70
     2
  9
$DIMTDEC
 70
     2
  9
$DIMALTU
 70
     2
  9
$DIMALTTD
 70
     3
  9
$DIMTXSTY
  7
Standard
  9
$DIMAUNIT
 70
     0
  9
$DIMADEC
 70
     0
  9
$DIMALTRND
 40
0.0
  9
$DIMAZIN
 70
     0
  9
$DIMDSEP
 70
    44
  9
$DIMATFIT
 70
     0
  9
$DIMFRAC
 70
     0
  9
$DIMLDRBLK
  1

  9
$DIMLUNIT
 70
     2
  9
$DIMLWD
 70
    -2
  9
$DIMLWE
 70
    -2
  9
$DIMTMOVE
 70
     0
  9
$LUNITS
 70
     2
  9
$LUPREC
 70
     4
  9
$SKETCHINC
 40
1.0
  9
$FILLETRAD
 40
2.5
  9
$AUNITS
 70
     0
  9
$AUPREC
 70
     0
  9
$MENU
  1
.
  9
$ELEVATION
 40
0.0
  9
$PELEVATION
 40
0.0
  9
$THICKNESS
 40
0.0
  9
$LIMCHECK
 70
     0
  9
$CHAMFERA
 40
2.5
  9
$CHAMFERB
 40
2.5
  9
$CHAMFERC
 40
0.0
  9
$CHAMFERD
 40
0.0
  9
$SKPOLY
 70
     0
  9
$TDCREATE
 40
0.000000000
  9
$TDUCREATE
 40
0.000000000
  9
$TDUPDATE
 40
0.000000000
  9
$TDUUPDATE
 40
0.000000000
  9
$TDINDWG
 40
0.0000000000
  9
$TDUSRTIMER
 40
0.0000000000
  9
$USRTIMER
 70
     1
  9
$ANGBASE
 50
0.0
  9
$ANGDIR
 70
     0
  9
$PDMODE
 70
     0
  9
$PDSIZE
 40
0.0
  9
$PLINEWID
 40
0.0
  9
$SPLFRAME
 70
     0
  9
$SPLINETYPE
 70
     6
  9
$SPLINESEGS
 70
     8
  9
$HANDSEED
  5
25A
  9
$SURFTAB1
 70
     6
  9
$SURFTAB2
 70
     6
  9
$SURFTYPE
 70
     6
  9
$SURFU
 70
     6
  9
$SURFV
 70
     6
  9
$UCSBASE
  2

  9
$UCSNAME
  2

  9
$UCSORG
 10
0.0
 20
0.0
 30
0.0
  9
$UCSXDIR
 10
1.0
 20
0.0
 30
0.0
  9
$UCSYDIR
 10
0.0
 20
1.0
 30
0.0
  9
$UCSORTHOREF
  2

  9
$UCSORTHOVIEW
 70
     1
  9
$UCSORGTOP
 10
0.0
 20
0.0
 30
0.0
  9
$UCSORGBOTTOM
 10
0.0
 20
0.0
 30
0.0
  9
$UCSORGLEFT
 10
0.0
 20
0.0
 30
0.0
  9
$UCSORGRIGHT
 10
0.0
 20
0.0
 30
0.0
  9
$UCSORGFRONT
 10
0.0
 20
0.0
 30
0.0
  9
$UCSORGBACK
 10
0.0
 20
0.0
 30
0.0
  9
$PUCSBASE
  2

  9
$PUCSNAME
  2

  9
$PUCSORG
 10
0.0
 20
0.0
 30
0.0
  9
$PUCSXDIR
 10
1.0
 20
0.0
 30
0.0
  9
$PUCSYDIR
 10
0.0
 20
1.0
 30
0.0
  9
$PUCSORTHOREF
  2

  9
$PUCSORTHOVIEW
 70
     0
  9
$PUCSORGTOP
 10
0.0
 20
0.0
 30
0.0
  9
$PUCSORGBOTTOM
 10
0.0
 20
0.0
 30
0.0
  9
$PUCSORGLEFT
 10
0.0
 20
0.0
 30
0.0
  9
$PUCSORGRIGHT
 10
0.0
 20
0.0
 30
0.0
  9
$PUCSORGFRONT
 10
0.0
 20
0.0
 30
0.0
  9
$PUCSORGBACK
 10
0.0
 20
0.0
 30
0.0
  9
$USERI1
 70
     0
  9
$USERI2
 70
     0
  9
$USERI3
 70
     0
  9
$USERI4
 70
     0
  9
$USERI5
 70
     0
  9
$USERR1
 40
0.0
  9
$USERR2
 40
0.0
  9
$USERR3
 40
0.0
  9
$USERR4
 40
0.0
  9
$USERR5
 40
0.0
  9
$WORLDVIEW
 70
     1
  9
$SHADEDGE
 70
     3
  9
$SHADEDIF
 70
    70
  9
$TILEMODE
 70
     1
  9
$MAXACTVP
 70
    48
  9
$PINSBASE
 10
0.0
 20
0.0
 30
0.0
  9
$PLIMCHECK
 70
     0
  9
$PEXTMIN
 10
0.0
 20
0.0
 30
0.0
  9
$PEXTMAX
 10
192.004822
 20
142.5
 30
2.0
  9
$PLIMMIN
 10
0.0
 20
0.0
  9
$PLIMMAX
 10
420.0
 20
297.0
  9
$UNITMODE
 70
     0
  9
$VISRETAIN
 70
     0
  9
$PLINEGEN
 70
     0
  9
$PSLTSCALE
 70
     1
  9
$TREEDEPTH
 70
  3020
  9
$CMLSTYLE
  2
Standard
  9
$CMLJUST
 70
     0
  9
$CMLSCALE
 40
20.0
  9
$PROXYGRAPHICS
 70
     1
  9
$MEASUREMENT
 70
     1
  9
$CELWEIGHT
370
    -1
  9
$ENDCAPS
280
     0
  9
$JOINSTYLE
280
     0
  9
$LWDISPLAY
290
     0
  9
$INSUNITS
 70
     0
  9
$HYPERLINKBASE
  1

  9
$STYLESHEET
  1

  9
$XEDIT
290
     1
  9
$CEPSNTYPE
380
     0
  9
$PSTYLEMODE
290
     0
  9
$FINGERPRINTGUID
  2

  9
$VERSIONGUID
  2

  9
$EXTNAMES
290
     0
  9
$PSVPSCALE
 40
0.0
  0
ENDSEC
  0
SECTION
  2
CLASSES
  0
CLASS
  1
LWPOLYLINE
  2
AcDbPolyline
  3
AutoCAD 2000
 90
        0
280
     0
281
     1
  0
CLASS
  1
IMAGE
  2
AcDbRasterImage
  3
ISM
 90
      127
280
     0
281
     1
  0
CLASS
  1
OLE2FRAME
  2
AcDbOle2Frame
  3
AutoCAD 2000
 90
        0
280
     0
281
     1
  0
CLASS
  1
HATCH
  2
AcDbHatch
  3
AutoCAD 2000
 90
        0
280
     0
281
     1
  0
CLASS
  1
DICTIONARYVAR
  2
AcDbDictionaryVar
  3
AutoCAD 2000
 90
        0
280
     0
281
     0
  0
CLASS
  1
RASTERVARIABLES
  2
AcDbRasterVariables
  3
ISM
 90
        0
280
     0
281
     0
  0
CLASS
  1
IMAGEDEF
  2
AcDbRasterImageDef
  3
ISM
 90
        0
280
     0
281
     0
  0
CLASS
  1
IMAGEDEF_REACTOR
  2
AcDbRasterImageDefReactor
  3
ISM
 90
        1
280
     0
281
     0
  0
CLASS
  1
IDBUFFER
  2
AcDbIdBuffer
  3
AutoCAD 2000
 90
        0
280
     0
281
     0
  0
CLASS
  1
SPATIAL_FILTER
  2
AcDbSpatialFilter
  3
AutoCAD 2000
 90
        0
280
     0
281
     0
  0
CLASS
  1
XRECORD
  2
AcDbXrecord
  3
AutoCAD 2000
 90
        0
280
     0
281
     0
  0
CLASS
  1
SORTENTSTABLE
  2
AcDbSortentsTable
  3
AutoCAD 2000
 90
        0
280
     0
281
     0
  0
CLASS
  1
LAYER_INDEX
  2
AcDbLayerIndex
  3
AutoCAD 2000
 90
        0
280
     0
281
     0
  0
CLASS
  1
SPATIAL_INDEX
  2
AcDbSpatialIndex
  3
AutoCAD 2000
 90
        0
280
     0
281
     0
  0
CLASS
  1
OBJECT_PTR
  2
CAseDLPNTableRecord
  3
"ASE-LPNTableRecord"
 90
        1
280
     0
281
     0
  0
CLASS
  1
LAYOUT
  2
AcDbLayout
  3
AutoCAD 2000
 90
        0
280
     0
281
     0
  0
CLASS
  1
PLOTSETTINGS
  2
AcDbPlotSettings
  3
AutoCAD 2000
 90
        0
280
     0
281
     0
  0
CLASS
  1
ACDBDICTIONARYWDFLT
  2
AcDbDictionaryWithDefault
  3
AutoCAD 2000
 90
        0
280
     0
281
     0
  0
CLASS
  1
ACDBPLACEHOLDER
  2
AcDbPlaceHolder
  3
AutoCAD 2000
 90
        0
280
     0
281
     0
  0
CLASS
  1
VBA_PROJECT
  2
AcDbVbaProject
  3
acadvba
 90
        0
280
     0
281
     0
  0
CLASS
  1
WIPEOUT
  2
AcDbWipeout
  3
WipeOut|AutoCAD Express Tool|expresstools@autodesk.com
 90
      127
280
     0
281
     1
  0
CLASS
  1
WIPEOUTVARIABLES
  2
AcDbWipeoutVariables
  3
WipeOut|AutoCAD Express Tool|expresstools@autodesk.com
 90
        0
280
     0
281
     0
  0
CLASS
  1
RTEXT
  2
RText
  3
RText|AutoCAD Express Tool|expresstools@autodesk.com
 90
        0
280
     0
281
     1
  0
CLASS
  1
ARCALIGNEDTEXT
  2
AcDbArcAlignedText
  3
ATEXT|AutoCAD Express Tool|expresstools@autodesk.com
 90
        0
280
     0
281
     1
  0
ENDSEC
  0
SECTION
  2
TABLES
  0
TABLE
  2
VPORT
  5
7
100
AcDbSymbolTable
 70
     1
  0
VPORT
  5
15
100
AcDbSymbolTableRecord
100
AcDbViewportTableRecord
  2
*ACTIVE
 70
     0
 10
0.0
 20
0.0
 11
1.0
 21
1.0
 12
6.591288
 22
4.579184
 13
0.0
 23
0.0
 14
1.0
 24
1.0
 15
0.0
 25
0.0
 16
0.0
 26
0.0
 36
1.0
 17
0.0
 27
0.0
 37
0.0
 40
9.158369
 41
0.688564
 42
50.0
 43
0.0
 44
0.0
 50
0.0
 51
0.0
 71
     0
 72
   100
 73
     1
 74
     1
 75
     0
 76
     0
 77
     0
 78
     0
281
     0
 65
     0
110
0.0
120
0.0
130
0.0
111
1.0
121
0.0
131
0.0
112
0.0
122
1.0
132
0.0
345
0
346
0
 79
     0
146
0.0
  0
ENDTAB
  0
TABLE
  2
LTYPE
  5
4
100
AcDbSymbolTable
 70
     3
  0
LTYPE
  5
11
100
AcDbSymbolTableRecord
100
AcDbLinetypeTableRecord
  2
ByBlock
 70
    64
  3

 72
    65
 73
     0
 40
0.0
  0
LTYPE
  5
12
100
AcDbSymbolTableRecord
100
AcDbLinetypeTableRecord
  2
ByLayer
 70
    64
  3

 72
    65
 73
     0
 40
0.0
  0
LTYPE
  5
13
100
AcDbSymbolTableRecord
100
AcDbLinetypeTableRecord
  2
Continuous
 70
    64
  3
Solid line
 72
    65
 73
     0
 40
0.0
  0
ENDTAB
  0
TABLE
  2
LAYER
  5
2
100
AcDbSymbolTable
 70
     1
  0
LAYER
  5
14
100
AcDbSymbolTableRecord
100
AcDbLayerTableRecord
  2
0
 70
     0
 62
     7
  6
Continuous
290
     1
370
    -3
390
1D
  0
ENDTAB
  0
TABLE
  2
STYLE
  5
3
100
AcDbSymbolTable
 70
     1
  0
STYLE
  5
17
100
AcDbSymbolTableRecord
100
AcDbTextStyleTableRecord
  2
Standard
 70
     0
 40
0.0
 41
1.0
 50
0.0
 71
     0
 42
0.0
  3
txt
  4

  0
ENDTAB
  0
TABLE
  2
VIEW
  5
5
100
AcDbSymbolTable
 70
     0
  0
ENDTAB
  0
TABLE
  2
UCS
  5
6
100
AcDbSymbolTable
 70
     0
  0
ENDTAB
  0
TABLE
  2
APPID
  5
8
100
AcDbSymbolTable
 70
     1
  0
APPID
  5
16
100
AcDbSymbolTableRecord
100
AcDbRegAppTableRecord
  2
ACAD
 70
     0
  0
ENDTAB
  0
TABLE
  2
DIMSTYLE
  5
9
100
AcDbSymbolTable
 70
     1
100
AcDbDimStyleTable
 71
     0
  0
DIMSTYLE
105
18
100
AcDbSymbolTableRecord
100
AcDbDimStyleTableRecord
  2
Standard
 70
     0
  3

  4

 40
1.0
 41
0.18
 42
0.0625
 43
0.38
 44
0.18
 45
0.0
 46
0.0
 47
0.0
 48
0.0
 71
     0
 72
     0
 73
     1
 74
     1
 75
     0
 76
     0
 77
     0
 78
     0
 79
     0
140
0.18
141
0.09
142
0.0
143
25.4
144
1.0
145
0.0
146
1.0
147
0.09
148
0.0
170
     0
171
     2
172
     0
173
     0
174
     0
175
     0
176
     0
177
     0
178
     0
179
     0
271
     4
272
     4
273
     2
274
     2
275
     0
276
     0
277
     2
278
    46
279
     0
280
     0
281
     0
282
     0
283
     1
284
     0
285
     0
286
     0
288
     0
289
     3
340
17
341
0
342
0
343
0
344
0
371
    -2
372
    -2
  0
ENDTAB
  0
TABLE
  2
BLOCK_RECORD
  5
1
100
AcDbSymbolTable
 70
     0
  0
BLOCK_RECORD
  5
A
100
AcDbSymbolTableRecord
100
AcDbBlockTableRecord
  2
*MODEL_SPACE
340
20
  0
BLOCK_RECORD
  5
B
100
AcDbSymbolTableRecord
100
AcDbBlockTableRecord
  2
*PAPER_SPACE
340
21
  0
ENDTAB
  0
ENDSEC
  0
SECTION
  2
BLOCKS
  0
BLOCK
  5
D
100
AcDbEntity
  8
0
390
0
100
AcDbBlockBegin
  2
*MODEL_SPACE
 70
     0
 10
0.0
 20
0.0
 30
0.0
  3
*MODEL_SPACE
  1

  0
ENDBLK
  5
E
100
AcDbEntity
  8
0
390
0
100
AcDbBlockEnd
  0
BLOCK
  5
F
100
AcDbEntity
 67
     1
  8
0
390
0
100
AcDbBlockBegin
  2
*PAPER_SPACE
 70
     0
 10
0.0
 20
0.0
 30
0.0
  3
*PAPER_SPACE
  1

  0
ENDBLK
  5
10
100
AcDbEntity
 67
     1
  8
0
390
0
100
AcDbBlockEnd
  0
ENDSEC
  0
SECTION
  2
ENTITIES
  0
VIEWPORT
  5
259
100
AcDbEntity
 67
     1
  8
0
370
     0
390
0
 62
     0
 48
0.0
100
AcDbViewport
 10
0.0
 20
0.0
 30
0.0
 40
1000.0
 41
1000.0
 68
     1
 69
     1
 12
0.0
 22
0.0
 13
0.0
 23
0.0
 14
1.0
 24
1.0
 15
1.0
 25
1.0
 16
0.0
 26
0.0
 36
1.0
 17
0.0
 27
0.0
 37
0.0
 42
50.0
 43
0.0
 44
0.0
 45
1000.0
 50
0.0
 51
0.0
 72
   100
 90
        0
340
0
  1

281
     0
 71
     0
 74
     1
110
0.0
120
0.0
130
0.0
111
1.0
121
0.0
131
0.0
112
0.0
122
1.0
132
0.0
345
0
346
0
 79
     0
146
0.0
  0
POLYLINE
  5
24
100
AcDbEntity
  8
0
370
    13
390
0
 62
     7
100
AcDb2dPolyline
 66
     1
 10
0.0
 20
0.0
 30
0.0
 70
     1
 71
     7
  0
VERTEX
  5
25
100
AcDbEntity
  8
0
370
     0
390
0
100
AcDbVertex
100
AcDb2dVertex
 10
150.896042
 20
59.148415
 30
0.0
  0
VERTEX
  5
26
100
AcDbEntity
  8
0
370
     0
390
0
100
AcDbVertex
100
AcDb2dVertex
 10
150.018509
 20
56.167866
 30
0.0
  0
VERTEX
  5
27
100
AcDbEntity
  8
0
370
     0
390
0
100
AcDbVertex
100
AcDb2dVertex
 10
149.115784
 20
59.148415
 30
0.0
  0
VERTEX
  5
28
100
AcDbEntity
  8
0
370
     0
390
0
100
AcDbVertex
100
AcDb2dVertex
 10
148.636673
 20
59.148415
 30
0.0
  0
VERTEX
  5
29
100
AcDbEntity
  8
0
370
     0
390
0
100
AcDbVertex
100
AcDb2dVertex
 10
149.766357
 20
55.643372
 30
0.0
  0
VERTEX
  5
2A
100
AcDbEntity
  8
0
370
     0
390
0
100
AcDbVertex
100
AcDb2dVertex
 10
150.270676
 20
55.643372
 30
0.0
  0
VERTEX
  5
2B
100
AcDbEntity
  8
0
370
     0
390
0
100
AcDbVertex
100
AcDb2dVertex
 10
151.375137
 20
59.148415
 30
0.0
  0
SEQEND
  5
2C
100
AcDbEntity
  8
0
370
     0
390
0
  0
POLYLINE
  5
2D
100
AcDbEntity
  8
0
370
    13
390
0
 62
     7
100
AcDb2dPolyline
 66
     1
 10
0.0
 20
0.0
 30
0.0
 70
     1
 71
    24
  0
VERTEX
  5
2E
100
AcDbEntity
  8
0
370
     0
390
0
100
AcDbVertex
100
AcDb2dVertex
 10
154.09848
 20
58.351585
 30
0.0
  0
VERTEX
  5
2F
100
AcDbEntity
  8
0
370
     0
390
0
100
AcDbVertex
100
AcDb2dVertex
 10
153.654678
 20
58.351585
 30
0.0
  0
VERTEX
  5
30
100
AcDbEntity
  8
0
370
     0
390
0
100
AcDbVertex
100
AcDb2dVertex
 10
153.654678
 20
56.788185
 30
0.0
  0
VERTEX
  5
31
100
AcDbEntity
  8
0
370
     0
390
0
100
AcDbVertex
100
AcDb2dVertex
 10
153.604248
 20
56.425072
 30
0.0
  0
VERTEX
  5
32
100
AcDbEntity
  8
0
370
     0
390
0
100
AcDbVertex
100
AcDb2dVertex
 10
153.457993
 20
56.162823
 30
0.0
  0
VERTEX
  5
33
100
AcDbEntity
  8
0
370
     0
390
0
100
AcDbVertex
100
AcDb2dVertex
 10
153.231049
 20
56.001442
 30
0.0
  0
VERTEX
  5
34
100
AcDbEntity
  8
0
370
     0
390
0
100
AcDbVertex
100
AcDb2dVertex
 10
152.933502
 20
55.951008
 30
0.0
  0
VERTEX
  5
35
100
AcDbEntity
  8
0
370
     0
390
0
100
AcDbVertex
100
AcDb2dVertex
 10
152.696472
 20
55.991356
 30
0.0
  0
VERTEX
  5
36
100
AcDbEntity
  8
0
370
     0
390
0
100
AcDbVertex
100
AcDb2dVertex
 10
152.545166
 20
56.112392
 30
0.0
  0
VERTEX
  5
37
100
AcDbEntity
  8
0
370
     0
390
0
100
AcDbVertex
100
AcDb2dVertex
 10
152.459442
 20
56.319164
 30
0.0
  0
VERTEX
  5
38
100
AcDbEntity
  8
0
370
     0
390
0
100
AcDbVertex
100
AcDb2dVertex
 10
152.43927
 20
56.611671
 30
0.0
  0
VERTEX
  5
39
100
AcDbEntity
  8
0
370
     0
390
0
100
AcDbVertex
100
AcDb2dVertex
 10
152.43927
 20
58.351585
 30
0.0
  0
VERTEX
  5
3A
100
AcDbEntity
  8
0
370
     0
390
0
100
AcDbVertex
100
AcDb2dVertex
 10
151.995453
 20
58.351585
 30
0.0
  0
VERTEX
  5
3B
100
AcDbEntity
  8
0
370
     0
390
0
100
AcDbVertex
100
AcDb2dVertex
 10
151.995453
 20
56.571327
 30
0.0
  0
VERTEX
  5
3C
100
AcDbEntity
  8
0
370
     0
390
0
100
AcDbVertex
100
AcDb2dVertex
 10
152.01059
 20
56.213257
 30
0.0
  0
VERTEX
  5
3D
100
AcDbEntity
  8
0
370
     0
390
0
100
AcDbVertex
100
AcDb2dVertex
 10
152.106415
 20
55.915707
 30
0.0
  0
VERTEX
  5
3E
100
AcDbEntity
  8
0
370
     0
390
0
100
AcDbVertex
100
AcDb2dVertex
 10
152.398926
 20
55.643372
 30
0.0
  0
VERTEX
  5
3F
100
AcDbEntity
  8
0
370
     0
390
0
100
AcDbVertex
100
AcDb2dVertex
 10
152.867935
 20
55.54755
 30
0.0
  0
VERTEX
  5
40
100
AcDbEntity
  8
0
370
     0
390
0
100
AcDbVertex
100
AcDb2dVertex
 10
153.120102
 20
55.582851
 30
0.0
  0
VERTEX
  5
41
100
AcDbEntity
  8
0
370
     0
390
0
100
AcDbVertex
100
AcDb2dVertex
 10
153.33696
 20
55.67363
 30
0.0
  0
VERTEX
  5
42
100
AcDbEntity
  8
0
370
     0
390
0
100
AcDbVertex
100
AcDb2dVertex
 10
153.52356
 20
55.829971
 30
0.0
  0
VERTEX
  5
43
100
AcDbEntity
  8
0
370
     0
390
0
100
AcDbVertex
100
AcDb2dVertex
 10
153.67485
 20
56.056915
 30
0.0
  0
VERTEX
  5
44
100
AcDbEntity
  8
0
370
     0
390
0
100
AcDbVertex
100
AcDb2dVertex
 10
153.67485
 20
55.643372
 30
0.0
  0
VERTEX
  5
45
100
AcDbEntity
  8
0
370
     0
390
0
100
AcDbVertex
100
AcDb2dVertex
 10
154.09848
 20
55.643372
 30
0.0
  0
SEQEND
  5
46
100
AcDbEntity
  8
0
370
     0
390
0
  0
POLYLINE
  5
47
100
AcDbEntity
  8
0
370
    13
390
0
 62
     7
100
AcDb2dPolyline
 66
     1
 10
0.0
 20
0.0
 30
0.0
 70
     1
 71
    27
  0
VERTEX
  5
48
100
AcDbEntity
  8
0
370
     0
390
0
100
AcDbVertex
100
AcDb2dVertex
 10
155.434937
 20
56.868877
 30
0.0
  0
VERTEX
  5
49
100
AcDbEntity
  8
0
370
     0
390
0
100
AcDbVertex
100
AcDb2dVertex
 10
157.210159
 20
56.868877
 30
0.0
  0
VERTEX
  5
4A
100
AcDbEntity
  8
0
370
     0
390
0
100
AcDbVertex
100
AcDb2dVertex
 10
157.215195
 20
57.075649
 30
0.0
  0
VERTEX
  5
4B
100
AcDbEntity
  8
0
370
     0
390
0
100
AcDbVertex
100
AcDb2dVertex
 10
157.134506
 20
57.655621
 30
0.0
  0
VERTEX
  5
4C
100
AcDbEntity
  8
0
370
     0
390
0
100
AcDbVertex
100
AcDb2dVertex
 10
156.912613
 20
58.089336
 30
0.0
  0
VERTEX
  5
4D
100
AcDbEntity
  8
0
370
     0
390
0
100
AcDbVertex
100
AcDb2dVertex
 10
156.559586
 20
58.351585
 30
0.0
  0
VERTEX
  5
4E
100
AcDbEntity
  8
0
370
     0
390
0
100
AcDbVertex
100
AcDb2dVertex
 10
156.090561
 20
58.447407
 30
0.0
  0
VERTEX
  5
4F
100
AcDbEntity
  8
0
370
     0
390
0
100
AcDbVertex
100
AcDb2dVertex
 10
155.631622
 20
58.346542
 30
0.0
  0
VERTEX
  5
50
100
AcDbEntity
  8
0
370
     0
390
0
100
AcDbVertex
100
AcDb2dVertex
 10
155.278595
 20
58.064121
 30
0.0
  0
VERTEX
  5
51
100
AcDbEntity
  8
0
370
     0
390
0
100
AcDbVertex
100
AcDb2dVertex
 10
155.051651
 20
57.605186
 30
0.0
  0
VERTEX
  5
52
100
AcDbEntity
  8
0
370
     0
390
0
100
AcDbVertex
100
AcDb2dVertex
 10
154.970963
 20
57.0
 30
0.0
  0
VERTEX
  5
53
100
AcDbEntity
  8
0
370
     0
390
0
100
AcDbVertex
100
AcDb2dVertex
 10
155.046616
 20
56.379684
 30
0.0
  0
VERTEX
  5
54
100
AcDbEntity
  8
0
370
     0
390
0
100
AcDbVertex
100
AcDb2dVertex
 10
155.27356
 20
55.925793
 30
0.0
  0
VERTEX
  5
55
100
AcDbEntity
  8
0
370
     0
390
0
100
AcDbVertex
100
AcDb2dVertex
 10
155.621536
 20
55.643372
 30
0.0
  0
VERTEX
  5
56
100
AcDbEntity
  8
0
370
     0
390
0
100
AcDbVertex
100
AcDb2dVertex
 10
156.075439
 20
55.54755
 30
0.0
  0
VERTEX
  5
57
100
AcDbEntity
  8
0
370
     0
390
0
100
AcDbVertex
100
AcDb2dVertex
 10
156.468811
 20
55.613113
 30
0.0
  0
VERTEX
  5
58
100
AcDbEntity
  8
0
370
     0
390
0
100
AcDbVertex
100
AcDb2dVertex
 10
156.791565
 20
55.78458
 30
0.0
  0
VERTEX
  5
59
100
AcDbEntity
  8
0
370
     0
390
0
100
AcDbVertex
100
AcDb2dVertex
 10
157.028595
 20
56.056915
 30
0.0
  0
VERTEX
  5
5A
100
AcDbEntity
  8
0
370
     0
390
0
100
AcDbVertex
100
AcDb2dVertex
 10
157.164764
 20
56.420029
 30
0.0
  0
VERTEX
  5
5B
100
AcDbEntity
  8
0
370
     0
390
0
100
AcDbVertex
100
AcDb2dVertex
 10
156.726013
 20
56.420029
 30
0.0
  0
VERTEX
  5
5C
100
AcDbEntity
  8
0
370
     0
390
0
100
AcDbVertex
100
AcDb2dVertex
 10
156.635223
 20
56.2183
 30
0.0
  0
VERTEX
  5
5D
100
AcDbEntity
  8
0
370
     0
390
0
100
AcDbVertex
100
AcDb2dVertex
 10
156.504105
 20
56.067001
 30
0.0
  0
VERTEX
  5
5E
100
AcDbEntity
  8
0
370
     0
390
0
100
AcDbVertex
100
AcDb2dVertex
 10
156.130905
 20
55.945965
 30
0.0
  0
VERTEX
  5
5F
100
AcDbEntity
  8
0
370
     0
390
0
100
AcDbVertex
100
AcDb2dVertex
 10
155.843445
 20
56.001442
 30
0.0
  0
VERTEX
  5
60
100
AcDbEntity
  8
0
370
     0
390
0
100
AcDbVertex
100
AcDb2dVertex
 10
155.626587
 20
56.177956
 30
0.0
  0
VERTEX
  5
61
100
AcDbEntity
  8
0
370
     0
390
0
100
AcDbVertex
100
AcDb2dVertex
 10
155.485367
 20
56.465416
 30
0.0
  0
VERTEX
  5
62
100
AcDbEntity
  8
0
370
     0
390
0
100
AcDbVertex
100
AcDb2dVertex
 10
155.434937
 20
56.853745
 30
0.0
  0
SEQEND
  5
63
100
AcDbEntity
  8
0
370
     0
390
0
  0
POLYLINE
  5
64
100
AcDbEntity
  8
0
370
    13
390
0
 62
     7
100
AcDb2dPolyline
 66
     1
 10
0.0
 20
0.0
 30
0.0
 70
     1
 71
     9
  0
VERTEX
  5
65
100
AcDbEntity
  8
0
370
     0
390
0
100
AcDbVertex
100
AcDb2dVertex
 10
155.434937
 20
57.242073
 30
0.0
  0
VERTEX
  5
66
100
AcDbEntity
  8
0
370
     0
390
0
100
AcDbVertex
100
AcDb2dVertex
 10
155.490417
 20
57.590057
 30
0.0
  0
VERTEX
  5
67
100
AcDbEntity
  8
0
370
     0
390
0
100
AcDbVertex
100
AcDb2dVertex
 10
155.626587
 20
57.847263
 30
0.0
  0
VERTEX
  5
68
100
AcDbEntity
  8
0
370
     0
390
0
100
AcDbVertex
100
AcDb2dVertex
 10
155.833359
 20
58.003601
 30
0.0
  0
VERTEX
  5
69
100
AcDbEntity
  8
0
370
     0
390
0
100
AcDbVertex
100
AcDb2dVertex
 10
156.105698
 20
58.059078
 30
0.0
  0
VERTEX
  5
6A
100
AcDbEntity
  8
0
370
     0
390
0
100
AcDbVertex
100
AcDb2dVertex
 10
156.372986
 20
58.003601
 30
0.0
  0
VERTEX
  5
6B
100
AcDbEntity
  8
0
370
     0
390
0
100
AcDbVertex
100
AcDb2dVertex
 10
156.579758
 20
57.847263
 30
0.0
  0
VERTEX
  5
6C
100
AcDbEntity
  8
0
370
     0
390
0
100
AcDbVertex
100
AcDb2dVertex
 10
156.705841
 20
57.590057
 30
0.0
  0
VERTEX
  5
6D
100
AcDbEntity
  8
0
370
     0
390
0
100
AcDbVertex
100
AcDb2dVertex
 10
156.751221
 20
57.242073
 30
0.0
  0
SEQEND
  5
6E
100
AcDbEntity
  8
0
370
     0
390
0
  0
POLYLINE
  5
6F
100
AcDbEntity
  8
0
370
    13
390
0
 62
     7
100
AcDb2dPolyline
 66
     1
 10
0.0
 20
0.0
 30
0.0
 70
     1
 71
    19
  0
VERTEX
  5
70
100
AcDbEntity
  8
0
370
     0
390
0
100
AcDbVertex
100
AcDb2dVertex
 10
162.782928
 20
56.061958
 30
0.0
  0
VERTEX
  5
71
100
AcDbEntity
  8
0
370
     0
390
0
100
AcDbVertex
100
AcDb2dVertex
 10
162.782928
 20
55.643372
 30
0.0
  0
VERTEX
  5
72
100
AcDbEntity
  8
0
370
     0
390
0
100
AcDbVertex
100
AcDb2dVertex
 10
163.22673
 20
55.643372
 30
0.0
  0
VERTEX
  5
73
100
AcDbEntity
  8
0
370
     0
390
0
100
AcDbVertex
100
AcDb2dVertex
 10
163.22673
 20
59.264408
 30
0.0
  0
VERTEX
  5
74
100
AcDbEntity
  8
0
370
     0
390
0
100
AcDbVertex
100
AcDb2dVertex
 10
162.787964
 20
59.264408
 30
0.0
  0
VERTEX
  5
75
100
AcDbEntity
  8
0
370
     0
390
0
100
AcDbVertex
100
AcDb2dVertex
 10
162.787964
 20
57.938042
 30
0.0
  0
VERTEX
  5
76
100
AcDbEntity
  8
0
370
     0
390
0
100
AcDbVertex
100
AcDb2dVertex
 10
162.450073
 20
58.321327
 30
0.0
  0
VERTEX
  5
77
100
AcDbEntity
  8
0
370
     0
390
0
100
AcDbVertex
100
AcDb2dVertex
 10
162.243301
 20
58.412102
 30
0.0
  0
VERTEX
  5
78
100
AcDbEntity
  8
0
370
     0
390
0
100
AcDbVertex
100
AcDb2dVertex
 10
162.006271
 20
58.447407
 30
0.0
  0
VERTEX
  5
79
100
AcDbEntity
  8
0
370
     0
390
0
100
AcDbVertex
100
AcDb2dVertex
 10
161.577591
 20
58.346542
 30
0.0
  0
VERTEX
  5
7A
100
AcDbEntity
  8
0
370
     0
390
0
100
AcDbVertex
100
AcDb2dVertex
 10
161.244736
 20
58.064121
 30
0.0
  0
VERTEX
  5
7B
100
AcDbEntity
  8
0
370
     0
390
0
100
AcDbVertex
100
AcDb2dVertex
 10
161.027878
 20
57.610229
 30
0.0
  0
VERTEX
  5
7C
100
AcDbEntity
  8
0
370
     0
390
0
100
AcDbVertex
100
AcDb2dVertex
 10
160.95224
 20
57.0
 30
0.0
  0
VERTEX
  5
7D
100
AcDbEntity
  8
0
370
     0
390
0
100
AcDbVertex
100
AcDb2dVertex
 10
161.027878
 20
56.389771
 30
0.0
  0
VERTEX
  5
7E
100
AcDbEntity
  8
0
370
     0
390
0
100
AcDbVertex
100
AcDb2dVertex
 10
161.244736
 20
55.930836
 30
0.0
  0
VERTEX
  5
7F
100
AcDbEntity
  8
0
370
     0
390
0
100
AcDbVertex
100
AcDb2dVertex
 10
161.577591
 20
55.643372
 30
0.0
  0
VERTEX
  5
80
100
AcDbEntity
  8
0
370
     0
390
0
100
AcDbVertex
100
AcDb2dVertex
 10
162.006271
 20
55.54755
 30
0.0
  0
VERTEX
  5
81
100
AcDbEntity
  8
0
370
     0
390
0
100
AcDbVertex
100
AcDb2dVertex
 10
162.243301
 20
55.582851
 30
0.0
  0
VERTEX
  5
82
100
AcDbEntity
  8
0
370
     0
390
0
100
AcDbVertex
100
AcDb2dVertex
 10
162.455109
 20
55.67363
 30
0.0
  0
SEQEND
  5
83
100
AcDbEntity
  8
0
370
     0
390
0
  0
POLYLINE
  5
84
100
AcDbEntity
  8
0
370
    13
390
0
 62
     7
100
AcDb2dPolyline
 66
     1
 10
0.0
 20
0.0
 30
0.0
 70
     1
 71
    16
  0
VERTEX
  5
85
100
AcDbEntity
  8
0
370
     0
390
0
100
AcDbVertex
100
AcDb2dVertex
 10
162.081909
 20
58.048992
 30
0.0
  0
VERTEX
  5
86
100
AcDbEntity
  8
0
370
     0
390
0
100
AcDbVertex
100
AcDb2dVertex
 10
162.37442
 20
57.978386
 30
0.0
  0
VERTEX
  5
87
100
AcDbEntity
  8
0
370
     0
390
0
100
AcDbVertex
100
AcDb2dVertex
 10
162.596329
 20
57.7817
 30
0.0
  0
VERTEX
  5
88
100
AcDbEntity
  8
0
370
     0
390
0
100
AcDbVertex
100
AcDb2dVertex
 10
162.727448
 20
57.453892
 30
0.0
  0
VERTEX
  5
89
100
AcDbEntity
  8
0
370
     0
390
0
100
AcDbVertex
100
AcDb2dVertex
 10
162.777878
 20
57.0
 30
0.0
  0
VERTEX
  5
8A
100
AcDbEntity
  8
0
370
     0
390
0
100
AcDbVertex
100
AcDb2dVertex
 10
162.727448
 20
56.541065
 30
0.0
  0
VERTEX
  5
8B
100
AcDbEntity
  8
0
370
     0
390
0
100
AcDbVertex
100
AcDb2dVertex
 10
162.596329
 20
56.213257
 30
0.0
  0
VERTEX
  5
8C
100
AcDbEntity
  8
0
370
     0
390
0
100
AcDbVertex
100
AcDb2dVertex
 10
162.37442
 20
56.011528
 30
0.0
  0
VERTEX
  5
8D
100
AcDbEntity
  8
0
370
     0
390
0
100
AcDbVertex
100
AcDb2dVertex
 10
162.081909
 20
55.945965
 30
0.0
  0
VERTEX
  5
8E
100
AcDbEntity
  8
0
370
     0
390
0
100
AcDbVertex
100
AcDb2dVertex
 10
161.804535
 20
56.011528
 30
0.0
  0
VERTEX
  5
8F
100
AcDbEntity
  8
0
370
     0
390
0
100
AcDbVertex
100
AcDb2dVertex
 10
161.592728
 20
56.213257
 30
0.0
  0
VERTEX
  5
90
100
AcDbEntity
  8
0
370
     0
390
0
100
AcDbVertex
100
AcDb2dVertex
 10
161.451508
 20
56.546108
 30
0.0
  0
VERTEX
  5
91
100
AcDbEntity
  8
0
370
     0
390
0
100
AcDbVertex
100
AcDb2dVertex
 10
161.406128
 20
57.0
 30
0.0
  0
VERTEX
  5
92
100
AcDbEntity
  8
0
370
     0
390
0
100
AcDbVertex
100
AcDb2dVertex
 10
161.451508
 20
57.448849
 30
0.0
  0
VERTEX
  5
93
100
AcDbEntity
  8
0
370
     0
390
0
100
AcDbVertex
100
AcDb2dVertex
 10
161.592728
 20
57.776657
 30
0.0
  0
VERTEX
  5
94
100
AcDbEntity
  8
0
370
     0
390
0
100
AcDbVertex
100
AcDb2dVertex
 10
161.804535
 20
57.978386
 30
0.0
  0
SEQEND
  5
95
100
AcDbEntity
  8
0
370
     0
390
0
  0
POLYLINE
  5
96
100
AcDbEntity
  8
0
370
    13
390
0
 62
     7
100
AcDb2dPolyline
 66
     1
 10
0.0
 20
0.0
 30
0.0
 70
     1
 71
    27
  0
VERTEX
  5
97
100
AcDbEntity
  8
0
370
     0
390
0
100
AcDbVertex
100
AcDb2dVertex
 10
164.543015
 20
56.868877
 30
0.0
  0
VERTEX
  5
98
100
AcDbEntity
  8
0
370
     0
390
0
100
AcDbVertex
100
AcDb2dVertex
 10
166.318222
 20
56.868877
 30
0.0
  0
VERTEX
  5
99
100
AcDbEntity
  8
0
370
     0
390
0
100
AcDbVertex
100
AcDb2dVertex
 10
166.323273
 20
57.075649
 30
0.0
  0
VERTEX
  5
9A
100
AcDbEntity
  8
0
370
     0
390
0
100
AcDbVertex
100
AcDb2dVertex
 10
166.242584
 20
57.655621
 30
0.0
  0
VERTEX
  5
9B
100
AcDbEntity
  8
0
370
     0
390
0
100
AcDbVertex
100
AcDb2dVertex
 10
166.020676
 20
58.089336
 30
0.0
  0
VERTEX
  5
9C
100
AcDbEntity
  8
0
370
     0
390
0
100
AcDbVertex
100
AcDb2dVertex
 10
165.667648
 20
58.351585
 30
0.0
  0
VERTEX
  5
9D
100
AcDbEntity
  8
0
370
     0
390
0
100
AcDbVertex
100
AcDb2dVertex
 10
165.198639
 20
58.447407
 30
0.0
  0
VERTEX
  5
9E
100
AcDbEntity
  8
0
370
     0
390
0
100
AcDbVertex
100
AcDb2dVertex
 10
164.7397
 20
58.346542
 30
0.0
  0
VERTEX
  5
9F
100
AcDbEntity
  8
0
370
     0
390
0
100
AcDbVertex
100
AcDb2dVertex
 10
164.386673
 20
58.064121
 30
0.0
  0
VERTEX
  5
A0
100
AcDbEntity
  8
0
370
     0
390
0
100
AcDbVertex
100
AcDb2dVertex
 10
164.159729
 20
57.605186
 30
0.0
  0
VERTEX
  5
A1
100
AcDbEntity
  8
0
370
     0
390
0
100
AcDbVertex
100
AcDb2dVertex
 10
164.079041
 20
57.0
 30
0.0
  0
VERTEX
  5
A2
100
AcDbEntity
  8
0
370
     0
390
0
100
AcDbVertex
100
AcDb2dVertex
 10
164.154678
 20
56.379684
 30
0.0
  0
VERTEX
  5
A3
100
AcDbEntity
  8
0
370
     0
390
0
100
AcDbVertex
100
AcDb2dVertex
 10
164.381622
 20
55.925793
 30
0.0
  0
VERTEX
  5
A4
100
AcDbEntity
  8
0
370
     0
390
0
100
AcDbVertex
100
AcDb2dVertex
 10
164.729614
 20
55.643372
 30
0.0
  0
VERTEX
  5
A5
100
AcDbEntity
  8
0
370
     0
390
0
100
AcDbVertex
100
AcDb2dVertex
 10
165.183502
 20
55.54755
 30
0.0
  0
VERTEX
  5
A6
100
AcDbEntity
  8
0
370
     0
390
0
100
AcDbVertex
100
AcDb2dVertex
 10
165.576874
 20
55.613113
 30
0.0
  0
VERTEX
  5
A7
100
AcDbEntity
  8
0
370
     0
390
0
100
AcDbVertex
100
AcDb2dVertex
 10
165.899643
 20
55.78458
 30
0.0
  0
VERTEX
  5
A8
100
AcDbEntity
  8
0
370
     0
390
0
100
AcDbVertex
100
AcDb2dVertex
 10
166.136673
 20
56.056915
 30
0.0
  0
VERTEX
  5
A9
100
AcDbEntity
  8
0
370
     0
390
0
100
AcDbVertex
100
AcDb2dVertex
 10
166.272842
 20
56.420029
 30
0.0
  0
VERTEX
  5
AA
100
AcDbEntity
  8
0
370
     0
390
0
100
AcDbVertex
100
AcDb2dVertex
 10
165.834076
 20
56.420029
 30
0.0
  0
VERTEX
  5
AB
100
AcDbEntity
  8
0
370
     0
390
0
100
AcDbVertex
100
AcDb2dVertex
 10
165.743301
 20
56.2183
 30
0.0
  0
VERTEX
  5
AC
100
AcDbEntity
  8
0
370
     0
390
0
100
AcDbVertex
100
AcDb2dVertex
 10
165.612183
 20
56.067001
 30
0.0
  0
VERTEX
  5
AD
100
AcDbEntity
  8
0
370
     0
390
0
100
AcDbVertex
100
AcDb2dVertex
 10
165.238983
 20
55.945965
 30
0.0
  0
VERTEX
  5
AE
100
AcDbEntity
  8
0
370
     0
390
0
100
AcDbVertex
100
AcDb2dVertex
 10
164.951508
 20
56.001442
 30
0.0
  0
VERTEX
  5
AF
100
AcDbEntity
  8
0
370
     0
390
0
100
AcDbVertex
100
AcDb2dVertex
 10
164.73465
 20
56.177956
 30
0.0
  0
VERTEX
  5
B0
100
AcDbEntity
  8
0
370
     0
390
0
100
AcDbVertex
100
AcDb2dVertex
 10
164.593445
 20
56.465416
 30
0.0
  0
VERTEX
  5
B1
100
AcDbEntity
  8
0
370
     0
390
0
100
AcDbVertex
100
AcDb2dVertex
 10
164.543015
 20
56.853745
 30
0.0
  0
SEQEND
  5
B2
100
AcDbEntity
  8
0
370
     0
390
0
  0
POLYLINE
  5
B3
100
AcDbEntity
  8
0
370
    13
390
0
 62
     7
100
AcDb2dPolyline
 66
     1
 10
0.0
 20
0.0
 30
0.0
 70
     1
 71
     9
  0
VERTEX
  5
B4
100
AcDbEntity
  8
0
370
     0
390
0
100
AcDbVertex
100
AcDb2dVertex
 10
164.543015
 20
57.242073
 30
0.0
  0
VERTEX
  5
B5
100
AcDbEntity
  8
0
370
     0
390
0
100
AcDbVertex
100
AcDb2dVertex
 10
164.59848
 20
57.590057
 30
0.0
  0
VERTEX
  5
B6
100
AcDbEntity
  8
0
370
     0
390
0
100
AcDbVertex
100
AcDb2dVertex
 10
164.73465
 20
57.847263
 30
0.0
  0
VERTEX
  5
B7
100
AcDbEntity
  8
0
370
     0
390
0
100
AcDbVertex
100
AcDb2dVertex
 10
164.941422
 20
58.003601
 30
0.0
  0
VERTEX
  5
B8
100
AcDbEntity
  8
0
370
     0
390
0
100
AcDbVertex
100
AcDb2dVertex
 10
165.21376
 20
58.059078
 30
0.0
  0
VERTEX
  5
B9
100
AcDbEntity
  8
0
370
     0
390
0
100
AcDbVertex
100
AcDb2dVertex
 10
165.481049
 20
58.003601
 30
0.0
  0
VERTEX
  5
BA
100
AcDbEntity
  8
0
370
     0
390
0
100
AcDbVertex
100
AcDb2dVertex
 10
165.68782
 20
57.847263
 30
0.0
  0
VERTEX
  5
BB
100
AcDbEntity
  8
0
370
     0
390
0
100
AcDbVertex
100
AcDb2dVertex
 10
165.813904
 20
57.590057
 30
0.0
  0
VERTEX
  5
BC
100
AcDbEntity
  8
0
370
     0
390
0
100
AcDbVertex
100
AcDb2dVertex
 10
165.859299
 20
57.242073
 30
0.0
  0
SEQEND
  5
BD
100
AcDbEntity
  8
0
370
     0
390
0
  0
POLYLINE
  5
BE
100
AcDbEntity
  8
0
370
    13
390
0
 62
     7
100
AcDb2dPolyline
 66
     1
 10
0.0
 20
0.0
 30
0.0
 70
     1
 71
    22
  0
VERTEX
  5
BF
100
AcDbEntity
  8
0
370
     0
390
0
100
AcDbVertex
100
AcDb2dVertex
 10
170.84201
 20
57.882565
 30
0.0
  0
VERTEX
  5
C0
100
AcDbEntity
  8
0
370
     0
390
0
100
AcDbVertex
100
AcDb2dVertex
 10
170.84201
 20
55.643372
 30
0.0
  0
VERTEX
  5
C1
100
AcDbEntity
  8
0
370
     0
390
0
100
AcDbVertex
100
AcDb2dVertex
 10
171.285812
 20
55.643372
 30
0.0
  0
VERTEX
  5
C2
100
AcDbEntity
  8
0
370
     0
390
0
100
AcDbVertex
100
AcDb2dVertex
 10
171.285812
 20
57.882565
 30
0.0
  0
VERTEX
  5
C3
100
AcDbEntity
  8
0
370
     0
390
0
100
AcDbVertex
100
AcDb2dVertex
 10
172.294449
 20
57.882565
 30
0.0
  0
VERTEX
  5
C4
100
AcDbEntity
  8
0
370
     0
390
0
100
AcDbVertex
100
AcDb2dVertex
 10
172.294449
 20
58.260807
 30
0.0
  0
VERTEX
  5
C5
100
AcDbEntity
  8
0
370
     0
390
0
100
AcDbVertex
100
AcDb2dVertex
 10
171.285812
 20
58.260807
 30
0.0
  0
VERTEX
  5
C6
100
AcDbEntity
  8
0
370
     0
390
0
100
AcDbVertex
100
AcDb2dVertex
 10
171.285812
 20
58.427235
 30
0.0
  0
VERTEX
  5
C7
100
AcDbEntity
  8
0
370
     0
390
0
100
AcDbVertex
100
AcDb2dVertex
 10
171.321106
 20
58.628963
 30
0.0
  0
VERTEX
  5
C8
100
AcDbEntity
  8
0
370
     0
390
0
100
AcDbVertex
100
AcDb2dVertex
 10
171.437103
 20
58.765129
 30
0.0
  0
VERTEX
  5
C9
100
AcDbEntity
  8
0
370
     0
390
0
100
AcDbVertex
100
AcDb2dVertex
 10
171.633789
 20
58.845821
 30
0.0
  0
VERTEX
  5
CA
100
AcDbEntity
  8
0
370
     0
390
0
100
AcDbVertex
100
AcDb2dVertex
 10
171.916214
 20
58.87608
 30
0.0
  0
VERTEX
  5
CB
100
AcDbEntity
  8
0
370
     0
390
0
100
AcDbVertex
100
AcDb2dVertex
 10
172.294449
 20
58.855907
 30
0.0
  0
VERTEX
  5
CC
100
AcDbEntity
  8
0
370
     0
390
0
100
AcDbVertex
100
AcDb2dVertex
 10
172.294449
 20
59.239193
 30
0.0
  0
VERTEX
  5
CD
100
AcDbEntity
  8
0
370
     0
390
0
100
AcDbVertex
100
AcDb2dVertex
 10
171.815338
 20
59.264408
 30
0.0
  0
VERTEX
  5
CE
100
AcDbEntity
  8
0
370
     0
390
0
100
AcDbVertex
100
AcDb2dVertex
 10
171.381622
 20
59.219021
 30
0.0
  0
VERTEX
  5
CF
100
AcDbEntity
  8
0
370
     0
390
0
100
AcDbVertex
100
AcDb2dVertex
 10
171.079041
 20
59.082851
 30
0.0
  0
VERTEX
  5
D0
100
AcDbEntity
  8
0
370
     0
390
0
100
AcDbVertex
100
AcDb2dVertex
 10
170.897476
 20
58.845821
 30
0.0
  0
VERTEX
  5
D1
100
AcDbEntity
  8
0
370
     0
390
0
100
AcDbVertex
100
AcDb2dVertex
 10
170.84201
 20
58.507923
 30
0.0
  0
VERTEX
  5
D2
100
AcDbEntity
  8
0
370
     0
390
0
100
AcDbVertex
100
AcDb2dVertex
 10
170.84201
 20
58.260807
 30
0.0
  0
VERTEX
  5
D3
100
AcDbEntity
  8
0
370
     0
390
0
100
AcDbVertex
100
AcDb2dVertex
 10
170.030045
 20
58.260807
 30
0.0
  0
VERTEX
  5
D4
100
AcDbEntity
  8
0
370
     0
390
0
100
AcDbVertex
100
AcDb2dVertex
 10
170.030045
 20
57.882565
 30
0.0
  0
SEQEND
  5
D5
100
AcDbEntity
  8
0
370
     0
390
0
  0
POLYLINE
  5
D6
100
AcDbEntity
  8
0
370
    13
390
0
 62
     7
100
AcDb2dPolyline
 66
     1
 10
0.0
 20
0.0
 30
0.0
 70
     1
 71
    42
  0
VERTEX
  5
D7
100
AcDbEntity
  8
0
370
     0
390
0
100
AcDbVertex
100
AcDb2dVertex
 10
174.871536
 20
55.996399
 30
0.0
  0
VERTEX
  5
D8
100
AcDbEntity
  8
0
370
     0
390
0
100
AcDbVertex
100
AcDb2dVertex
 10
174.871536
 20
55.981266
 30
0.0
  0
VERTEX
  5
D9
100
AcDbEntity
  8
0
370
     0
390
0
100
AcDbVertex
100
AcDb2dVertex
 10
174.896759
 20
55.809799
 30
0.0
  0
VERTEX
  5
DA
100
AcDbEntity
  8
0
370
     0
390
0
100
AcDbVertex
100
AcDb2dVertex
 10
174.972412
 20
55.688759
 30
0.0
  0
VERTEX
  5
DB
100
AcDbEntity
  8
0
370
     0
390
0
100
AcDbVertex
100
AcDb2dVertex
 10
175.290131
 20
55.592937
 30
0.0
  0
VERTEX
  5
DC
100
AcDbEntity
  8
0
370
     0
390
0
100
AcDbVertex
100
AcDb2dVertex
 10
175.537247
 20
55.633286
 30
0.0
  0
VERTEX
  5
DD
100
AcDbEntity
  8
0
370
     0
390
0
100
AcDbVertex
100
AcDb2dVertex
 10
175.537247
 20
55.976223
 30
0.0
  0
VERTEX
  5
DE
100
AcDbEntity
  8
0
370
     0
390
0
100
AcDbVertex
100
AcDb2dVertex
 10
175.431335
 20
55.961094
 30
0.0
  0
VERTEX
  5
DF
100
AcDbEntity
  8
0
370
     0
390
0
100
AcDbVertex
100
AcDb2dVertex
 10
175.290131
 20
56.026657
 30
0.0
  0
VERTEX
  5
E0
100
AcDbEntity
  8
0
370
     0
390
0
100
AcDbVertex
100
AcDb2dVertex
 10
175.264908
 20
56.228386
 30
0.0
  0
VERTEX
  5
E1
100
AcDbEntity
  8
0
370
     0
390
0
100
AcDbVertex
100
AcDb2dVertex
 10
175.264908
 20
57.630402
 30
0.0
  0
VERTEX
  5
E2
100
AcDbEntity
  8
0
370
     0
390
0
100
AcDbVertex
100
AcDb2dVertex
 10
175.204391
 20
57.988472
 30
0.0
  0
VERTEX
  5
E3
100
AcDbEntity
  8
0
370
     0
390
0
100
AcDbVertex
100
AcDb2dVertex
 10
175.027878
 20
58.240635
 30
0.0
  0
VERTEX
  5
E4
100
AcDbEntity
  8
0
370
     0
390
0
100
AcDbVertex
100
AcDb2dVertex
 10
174.720245
 20
58.39193
 30
0.0
  0
VERTEX
  5
E5
100
AcDbEntity
  8
0
370
     0
390
0
100
AcDbVertex
100
AcDb2dVertex
 10
174.28653
 20
58.447407
 30
0.0
  0
VERTEX
  5
E6
100
AcDbEntity
  8
0
370
     0
390
0
100
AcDbVertex
100
AcDb2dVertex
 10
173.8629
 20
58.386887
 30
0.0
  0
VERTEX
  5
E7
100
AcDbEntity
  8
0
370
     0
390
0
100
AcDbVertex
100
AcDb2dVertex
 10
173.550217
 20
58.215416
 30
0.0
  0
VERTEX
  5
E8
100
AcDbEntity
  8
0
370
     0
390
0
100
AcDbVertex
100
AcDb2dVertex
 10
173.353531
 20
57.948128
 30
0.0
  0
VERTEX
  5
E9
100
AcDbEntity
  8
0
370
     0
390
0
100
AcDbVertex
100
AcDb2dVertex
 10
173.287964
 20
57.5951
 30
0.0
  0
VERTEX
  5
EA
100
AcDbEntity
  8
0
370
     0
390
0
100
AcDbVertex
100
AcDb2dVertex
 10
173.287964
 20
57.564842
 30
0.0
  0
VERTEX
  5
EB
100
AcDbEntity
  8
0
370
     0
390
0
100
AcDbVertex
100
AcDb2dVertex
 10
173.686386
 20
57.564842
 30
0.0
  0
VERTEX
  5
EC
100
AcDbEntity
  8
0
370
     0
390
0
100
AcDbVertex
100
AcDb2dVertex
 10
173.72168
 20
57.776657
 30
0.0
  0
VERTEX
  5
ED
100
AcDbEntity
  8
0
370
     0
390
0
100
AcDbVertex
100
AcDb2dVertex
 10
173.832642
 20
57.927956
 30
0.0
  0
VERTEX
  5
EE
100
AcDbEntity
  8
0
370
     0
390
0
100
AcDbVertex
100
AcDb2dVertex
 10
174.014191
 20
58.01873
 30
0.0
  0
VERTEX
  5
EF
100
AcDbEntity
  8
0
370
     0
390
0
100
AcDbVertex
100
AcDb2dVertex
 10
174.271393
 20
58.054035
 30
0.0
  0
VERTEX
  5
F0
100
AcDbEntity
  8
0
370
     0
390
0
100
AcDbVertex
100
AcDb2dVertex
 10
174.518524
 20
58.02882
 30
0.0
  0
VERTEX
  5
F1
100
AcDbEntity
  8
0
370
     0
390
0
100
AcDbVertex
100
AcDb2dVertex
 10
174.695023
 20
57.953171
 30
0.0
  0
VERTEX
  5
F2
100
AcDbEntity
  8
0
370
     0
390
0
100
AcDbVertex
100
AcDb2dVertex
 10
174.800934
 20
57.822044
 30
0.0
  0
VERTEX
  5
F3
100
AcDbEntity
  8
0
370
     0
390
0
100
AcDbVertex
100
AcDb2dVertex
 10
174.836243
 20
57.640491
 30
0.0
  0
VERTEX
  5
F4
100
AcDbEntity
  8
0
370
     0
390
0
100
AcDbVertex
100
AcDb2dVertex
 10
174.816071
 20
57.428673
 30
0.0
  0
VERTEX
  5
F5
100
AcDbEntity
  8
0
370
     0
390
0
100
AcDbVertex
100
AcDb2dVertex
 10
174.735382
 20
57.322765
 30
0.0
  0
VERTEX
  5
F6
100
AcDbEntity
  8
0
370
     0
390
0
100
AcDbVertex
100
AcDb2dVertex
 10
174.533646
 20
57.272335
 30
0.0
  0
VERTEX
  5
F7
100
AcDbEntity
  8
0
370
     0
390
0
100
AcDbVertex
100
AcDb2dVertex
 10
174.155396
 20
57.231987
 30
0.0
  0
VERTEX
  5
F8
100
AcDbEntity
  8
0
370
     0
390
0
100
AcDbVertex
100
AcDb2dVertex
 10
173.72168
 20
57.141209
 30
0.0
  0
VERTEX
  5
F9
100
AcDbEntity
  8
0
370
     0
390
0
100
AcDbVertex
100
AcDb2dVertex
 10
173.414047
 20
56.979828
 30
0.0
  0
VERTEX
  5
FA
100
AcDbEntity
  8
0
370
     0
390
0
100
AcDbVertex
100
AcDb2dVertex
 10
173.232498
 20
56.727665
 30
0.0
  0
VERTEX
  5
FB
100
AcDbEntity
  8
0
370
     0
390
0
100
AcDbVertex
100
AcDb2dVertex
 10
173.177017
 20
56.354465
 30
0.0
  0
VERTEX
  5
FC
100
AcDbEntity
  8
0
370
     0
390
0
100
AcDbVertex
100
AcDb2dVertex
 10
173.227448
 20
56.021614
 30
0.0
  0
VERTEX
  5
FD
100
AcDbEntity
  8
0
370
     0
390
0
100
AcDbVertex
100
AcDb2dVertex
 10
173.383789
 20
55.774494
 30
0.0
  0
VERTEX
  5
FE
100
AcDbEntity
  8
0
370
     0
390
0
100
AcDbVertex
100
AcDb2dVertex
 10
173.635956
 20
55.618156
 30
0.0
  0
VERTEX
  5
FF
100
AcDbEntity
  8
0
370
     0
390
0
100
AcDbVertex
100
AcDb2dVertex
 10
173.983932
 20
55.562679
 30
0.0
  0
VERTEX
  5
100
100
AcDbEntity
  8
0
370
     0
390
0
100
AcDbVertex
100
AcDb2dVertex
 10
174.452957
 20
55.668587
 30
0.0
  0
SEQEND
  5
101
100
AcDbEntity
  8
0
370
     0
390
0
  0
POLYLINE
  5
102
100
AcDbEntity
  8
0
370
    13
390
0
 62
     7
100
AcDb2dPolyline
 66
     1
 10
0.0
 20
0.0
 30
0.0
 70
     1
 71
    14
  0
VERTEX
  5
103
100
AcDbEntity
  8
0
370
     0
390
0
100
AcDbVertex
100
AcDb2dVertex
 10
174.821106
 20
56.591499
 30
0.0
  0
VERTEX
  5
104
100
AcDbEntity
  8
0
370
     0
390
0
100
AcDbVertex
100
AcDb2dVertex
 10
174.76059
 20
56.32925
 30
0.0
  0
VERTEX
  5
105
100
AcDbEntity
  8
0
370
     0
390
0
100
AcDbVertex
100
AcDb2dVertex
 10
174.599213
 20
56.127522
 30
0.0
  0
VERTEX
  5
106
100
AcDbEntity
  8
0
370
     0
390
0
100
AcDbVertex
100
AcDb2dVertex
 10
174.357132
 20
55.996399
 30
0.0
  0
VERTEX
  5
107
100
AcDbEntity
  8
0
370
     0
390
0
100
AcDbVertex
100
AcDb2dVertex
 10
174.059586
 20
55.951008
 30
0.0
  0
VERTEX
  5
108
100
AcDbEntity
  8
0
370
     0
390
0
100
AcDbVertex
100
AcDb2dVertex
 10
173.867935
 20
55.976223
 30
0.0
  0
VERTEX
  5
109
100
AcDbEntity
  8
0
370
     0
390
0
100
AcDbVertex
100
AcDb2dVertex
 10
173.731766
 20
56.056915
 30
0.0
  0
VERTEX
  5
10A
100
AcDbEntity
  8
0
370
     0
390
0
100
AcDbVertex
100
AcDb2dVertex
 10
173.646042
 20
56.198128
 30
0.0
  0
VERTEX
  5
10B
100
AcDbEntity
  8
0
370
     0
390
0
100
AcDbVertex
100
AcDb2dVertex
 10
173.620819
 20
56.394814
 30
0.0
  0
VERTEX
  5
10C
100
AcDbEntity
  8
0
370
     0
390
0
100
AcDbVertex
100
AcDb2dVertex
 10
173.640991
 20
56.571327
 30
0.0
  0
VERTEX
  5
10D
100
AcDbEntity
  8
0
370
     0
390
0
100
AcDbVertex
100
AcDb2dVertex
 10
173.72168
 20
56.697407
 30
0.0
  0
VERTEX
  5
10E
100
AcDbEntity
  8
0
370
     0
390
0
100
AcDbVertex
100
AcDb2dVertex
 10
174.044449
 20
56.838615
 30
0.0
  0
VERTEX
  5
10F
100
AcDbEntity
  8
0
370
     0
390
0
100
AcDbVertex
100
AcDb2dVertex
 10
174.452957
 20
56.899136
 30
0.0
  0
VERTEX
  5
110
100
AcDbEntity
  8
0
370
     0
390
0
100
AcDbVertex
100
AcDb2dVertex
 10
174.821106
 20
57.020172
 30
0.0
  0
SEQEND
  5
111
100
AcDbEntity
  8
0
370
     0
390
0
  0
POLYLINE
  5
112
100
AcDbEntity
  8
0
370
    13
390
0
 62
     7
100
AcDb2dPolyline
 66
     1
 10
0.0
 20
0.0
 30
0.0
 70
     1
 71
    34
  0
VERTEX
  5
113
100
AcDbEntity
  8
0
370
     0
390
0
100
AcDbVertex
100
AcDb2dVertex
 10
178.02356
 20
57.453892
 30
0.0
  0
VERTEX
  5
114
100
AcDbEntity
  8
0
370
     0
390
0
100
AcDbVertex
100
AcDb2dVertex
 10
178.462311
 20
57.453892
 30
0.0
  0
VERTEX
  5
115
100
AcDbEntity
  8
0
370
     0
390
0
100
AcDbVertex
100
AcDb2dVertex
 10
178.371536
 20
57.857349
 30
0.0
  0
VERTEX
  5
116
100
AcDbEntity
  8
0
370
     0
390
0
100
AcDbVertex
100
AcDb2dVertex
 10
178.154678
 20
58.175072
 30
0.0
  0
VERTEX
  5
117
100
AcDbEntity
  8
0
370
     0
390
0
100
AcDbVertex
100
AcDb2dVertex
 10
177.816788
 20
58.371758
 30
0.0
  0
VERTEX
  5
118
100
AcDbEntity
  8
0
370
     0
390
0
100
AcDbVertex
100
AcDb2dVertex
 10
177.378021
 20
58.447407
 30
0.0
  0
VERTEX
  5
119
100
AcDbEntity
  8
0
370
     0
390
0
100
AcDbVertex
100
AcDb2dVertex
 10
176.893875
 20
58.346542
 30
0.0
  0
VERTEX
  5
11A
100
AcDbEntity
  8
0
370
     0
390
0
100
AcDbVertex
100
AcDb2dVertex
 10
176.525726
 20
58.064121
 30
0.0
  0
VERTEX
  5
11B
100
AcDbEntity
  8
0
370
     0
390
0
100
AcDbVertex
100
AcDb2dVertex
 10
176.293732
 20
57.605186
 30
0.0
  0
VERTEX
  5
11C
100
AcDbEntity
  8
0
370
     0
390
0
100
AcDbVertex
100
AcDb2dVertex
 10
176.213043
 20
56.989914
 30
0.0
  0
VERTEX
  5
11D
100
AcDbEntity
  8
0
370
     0
390
0
100
AcDbVertex
100
AcDb2dVertex
 10
176.288696
 20
56.379684
 30
0.0
  0
VERTEX
  5
11E
100
AcDbEntity
  8
0
370
     0
390
0
100
AcDbVertex
100
AcDb2dVertex
 10
176.515625
 20
55.925793
 30
0.0
  0
VERTEX
  5
11F
100
AcDbEntity
  8
0
370
     0
390
0
100
AcDbVertex
100
AcDb2dVertex
 10
176.873703
 20
55.643372
 30
0.0
  0
VERTEX
  5
120
100
AcDbEntity
  8
0
370
     0
390
0
100
AcDbVertex
100
AcDb2dVertex
 10
177.3629
 20
55.54755
 30
0.0
  0
VERTEX
  5
121
100
AcDbEntity
  8
0
370
     0
390
0
100
AcDbVertex
100
AcDb2dVertex
 10
177.796616
 20
55.623199
 30
0.0
  0
VERTEX
  5
122
100
AcDbEntity
  8
0
370
     0
390
0
100
AcDbVertex
100
AcDb2dVertex
 10
178.134506
 20
55.835014
 30
0.0
  0
VERTEX
  5
123
100
AcDbEntity
  8
0
370
     0
390
0
100
AcDbVertex
100
AcDb2dVertex
 10
178.366501
 20
56.167866
 30
0.0
  0
VERTEX
  5
124
100
AcDbEntity
  8
0
370
     0
390
0
100
AcDbVertex
100
AcDb2dVertex
 10
178.467361
 20
56.611671
 30
0.0
  0
VERTEX
  5
125
100
AcDbEntity
  8
0
370
     0
390
0
100
AcDbVertex
100
AcDb2dVertex
 10
178.043732
 20
56.611671
 30
0.0
  0
VERTEX
  5
126
100
AcDbEntity
  8
0
370
     0
390
0
100
AcDbVertex
100
AcDb2dVertex
 10
177.968079
 20
56.32925
 30
0.0
  0
VERTEX
  5
127
100
AcDbEntity
  8
0
370
     0
390
0
100
AcDbVertex
100
AcDb2dVertex
 10
177.826874
 20
56.117435
 30
0.0
  0
VERTEX
  5
128
100
AcDbEntity
  8
0
370
     0
390
0
100
AcDbVertex
100
AcDb2dVertex
 10
177.625137
 20
55.986313
 30
0.0
  0
VERTEX
  5
129
100
AcDbEntity
  8
0
370
     0
390
0
100
AcDbVertex
100
AcDb2dVertex
 10
177.378021
 20
55.945965
 30
0.0
  0
VERTEX
  5
12A
100
AcDbEntity
  8
0
370
     0
390
0
100
AcDbVertex
100
AcDb2dVertex
 10
177.070389
 20
56.011528
 30
0.0
  0
VERTEX
  5
12B
100
AcDbEntity
  8
0
370
     0
390
0
100
AcDbVertex
100
AcDb2dVertex
 10
176.84848
 20
56.213257
 30
0.0
  0
VERTEX
  5
12C
100
AcDbEntity
  8
0
370
     0
390
0
100
AcDbVertex
100
AcDb2dVertex
 10
176.712311
 20
56.541065
 30
0.0
  0
VERTEX
  5
12D
100
AcDbEntity
  8
0
370
     0
390
0
100
AcDbVertex
100
AcDb2dVertex
 10
176.666931
 20
57.005043
 30
0.0
  0
VERTEX
  5
12E
100
AcDbEntity
  8
0
370
     0
390
0
100
AcDbVertex
100
AcDb2dVertex
 10
176.712311
 20
57.458935
 30
0.0
  0
VERTEX
  5
12F
100
AcDbEntity
  8
0
370
     0
390
0
100
AcDbVertex
100
AcDb2dVertex
 10
176.853531
 20
57.786743
 30
0.0
  0
VERTEX
  5
130
100
AcDbEntity
  8
0
370
     0
390
0
100
AcDbVertex
100
AcDb2dVertex
 10
177.080475
 20
57.988472
 30
0.0
  0
VERTEX
  5
131
100
AcDbEntity
  8
0
370
     0
390
0
100
AcDbVertex
100
AcDb2dVertex
 10
177.378021
 20
58.059078
 30
0.0
  0
VERTEX
  5
132
100
AcDbEntity
  8
0
370
     0
390
0
100
AcDbVertex
100
AcDb2dVertex
 10
177.640274
 20
58.013687
 30
0.0
  0
VERTEX
  5
133
100
AcDbEntity
  8
0
370
     0
390
0
100
AcDbVertex
100
AcDb2dVertex
 10
177.83696
 20
57.897694
 30
0.0
  0
VERTEX
  5
134
100
AcDbEntity
  8
0
370
     0
390
0
100
AcDbVertex
100
AcDb2dVertex
 10
177.968079
 20
57.706051
 30
0.0
  0
SEQEND
  5
135
100
AcDbEntity
  8
0
370
     0
390
0
  0
POLYLINE
  5
136
100
AcDbEntity
  8
0
370
    13
390
0
 62
     7
100
AcDb2dPolyline
 66
     1
 10
0.0
 20
0.0
 30
0.0
 70
     1
 71
    27
  0
VERTEX
  5
137
100
AcDbEntity
  8
0
370
     0
390
0
100
AcDbVertex
100
AcDb2dVertex
 10
179.723129
 20
56.868877
 30
0.0
  0
VERTEX
  5
138
100
AcDbEntity
  8
0
370
     0
390
0
100
AcDbVertex
100
AcDb2dVertex
 10
181.498337
 20
56.868877
 30
0.0
  0
VERTEX
  5
139
100
AcDbEntity
  8
0
370
     0
390
0
100
AcDbVertex
100
AcDb2dVertex
 10
181.503387
 20
57.075649
 30
0.0
  0
VERTEX
  5
13A
100
AcDbEntity
  8
0
370
     0
390
0
100
AcDbVertex
100
AcDb2dVertex
 10
181.422699
 20
57.655621
 30
0.0
  0
VERTEX
  5
13B
100
AcDbEntity
  8
0
370
     0
390
0
100
AcDbVertex
100
AcDb2dVertex
 10
181.20079
 20
58.089336
 30
0.0
  0
VERTEX
  5
13C
100
AcDbEntity
  8
0
370
     0
390
0
100
AcDbVertex
100
AcDb2dVertex
 10
180.847763
 20
58.351585
 30
0.0
  0
VERTEX
  5
13D
100
AcDbEntity
  8
0
370
     0
390
0
100
AcDbVertex
100
AcDb2dVertex
 10
180.378738
 20
58.447407
 30
0.0
  0
VERTEX
  5
13E
100
AcDbEntity
  8
0
370
     0
390
0
100
AcDbVertex
100
AcDb2dVertex
 10
179.919815
 20
58.346542
 30
0.0
  0
VERTEX
  5
13F
100
AcDbEntity
  8
0
370
     0
390
0
100
AcDbVertex
100
AcDb2dVertex
 10
179.566788
 20
58.064121
 30
0.0
  0
VERTEX
  5
140
100
AcDbEntity
  8
0
370
     0
390
0
100
AcDbVertex
100
AcDb2dVertex
 10
179.339844
 20
57.605186
 30
0.0
  0
VERTEX
  5
141
100
AcDbEntity
  8
0
370
     0
390
0
100
AcDbVertex
100
AcDb2dVertex
 10
179.259155
 20
57.0
 30
0.0
  0
VERTEX
  5
142
100
AcDbEntity
  8
0
370
     0
390
0
100
AcDbVertex
100
AcDb2dVertex
 10
179.334793
 20
56.379684
 30
0.0
  0
VERTEX
  5
143
100
AcDbEntity
  8
0
370
     0
390
0
100
AcDbVertex
100
AcDb2dVertex
 10
179.561737
 20
55.925793
 30
0.0
  0
VERTEX
  5
144
100
AcDbEntity
  8
0
370
     0
390
0
100
AcDbVertex
100
AcDb2dVertex
 10
179.909729
 20
55.643372
 30
0.0
  0
VERTEX
  5
145
100
AcDbEntity
  8
0
370
     0
390
0
100
AcDbVertex
100
AcDb2dVertex
 10
180.363617
 20
55.54755
 30
0.0
  0
VERTEX
  5
146
100
AcDbEntity
  8
0
370
     0
390
0
100
AcDbVertex
100
AcDb2dVertex
 10
180.756989
 20
55.613113
 30
0.0
  0
VERTEX
  5
147
100
AcDbEntity
  8
0
370
     0
390
0
100
AcDbVertex
100
AcDb2dVertex
 10
181.079758
 20
55.78458
 30
0.0
  0
VERTEX
  5
148
100
AcDbEntity
  8
0
370
     0
390
0
100
AcDbVertex
100
AcDb2dVertex
 10
181.316788
 20
56.056915
 30
0.0
  0
VERTEX
  5
149
100
AcDbEntity
  8
0
370
     0
390
0
100
AcDbVertex
100
AcDb2dVertex
 10
181.452957
 20
56.420029
 30
0.0
  0
VERTEX
  5
14A
100
AcDbEntity
  8
0
370
     0
390
0
100
AcDbVertex
100
AcDb2dVertex
 10
181.014191
 20
56.420029
 30
0.0
  0
VERTEX
  5
14B
100
AcDbEntity
  8
0
370
     0
390
0
100
AcDbVertex
100
AcDb2dVertex
 10
180.923416
 20
56.2183
 30
0.0
  0
VERTEX
  5
14C
100
AcDbEntity
  8
0
370
     0
390
0
100
AcDbVertex
100
AcDb2dVertex
 10
180.792297
 20
56.067001
 30
0.0
  0
VERTEX
  5
14D
100
AcDbEntity
  8
0
370
     0
390
0
100
AcDbVertex
100
AcDb2dVertex
 10
180.419098
 20
55.945965
 30
0.0
  0
VERTEX
  5
14E
100
AcDbEntity
  8
0
370
     0
390
0
100
AcDbVertex
100
AcDb2dVertex
 10
180.131622
 20
56.001442
 30
0.0
  0
VERTEX
  5
14F
100
AcDbEntity
  8
0
370
     0
390
0
100
AcDbVertex
100
AcDb2dVertex
 10
179.914764
 20
56.177956
 30
0.0
  0
VERTEX
  5
150
100
AcDbEntity
  8
0
370
     0
390
0
100
AcDbVertex
100
AcDb2dVertex
 10
179.77356
 20
56.465416
 30
0.0
  0
VERTEX
  5
151
100
AcDbEntity
  8
0
370
     0
390
0
100
AcDbVertex
100
AcDb2dVertex
 10
179.723129
 20
56.853745
 30
0.0
  0
SEQEND
  5
152
100
AcDbEntity
  8
0
370
     0
390
0
  0
POLYLINE
  5
153
100
AcDbEntity
  8
0
370
    13
390
0
 62
     7
100
AcDb2dPolyline
 66
     1
 10
0.0
 20
0.0
 30
0.0
 70
     1
 71
     9
  0
VERTEX
  5
154
100
AcDbEntity
  8
0
370
     0
390
0
100
AcDbVertex
100
AcDb2dVertex
 10
179.723129
 20
57.242073
 30
0.0
  0
VERTEX
  5
155
100
AcDbEntity
  8
0
370
     0
390
0
100
AcDbVertex
100
AcDb2dVertex
 10
179.778595
 20
57.590057
 30
0.0
  0
VERTEX
  5
156
100
AcDbEntity
  8
0
370
     0
390
0
100
AcDbVertex
100
AcDb2dVertex
 10
179.914764
 20
57.847263
 30
0.0
  0
VERTEX
  5
157
100
AcDbEntity
  8
0
370
     0
390
0
100
AcDbVertex
100
AcDb2dVertex
 10
180.121536
 20
58.003601
 30
0.0
  0
VERTEX
  5
158
100
AcDbEntity
  8
0
370
     0
390
0
100
AcDbVertex
100
AcDb2dVertex
 10
180.393875
 20
58.059078
 30
0.0
  0
VERTEX
  5
159
100
AcDbEntity
  8
0
370
     0
390
0
100
AcDbVertex
100
AcDb2dVertex
 10
180.661163
 20
58.003601
 30
0.0
  0
VERTEX
  5
15A
100
AcDbEntity
  8
0
370
     0
390
0
100
AcDbVertex
100
AcDb2dVertex
 10
180.867935
 20
57.847263
 30
0.0
  0
VERTEX
  5
15B
100
AcDbEntity
  8
0
370
     0
390
0
100
AcDbVertex
100
AcDb2dVertex
 10
180.994019
 20
57.590057
 30
0.0
  0
VERTEX
  5
15C
100
AcDbEntity
  8
0
370
     0
390
0
100
AcDbVertex
100
AcDb2dVertex
 10
181.039398
 20
57.242073
 30
0.0
  0
SEQEND
  5
15D
100
AcDbEntity
  8
0
370
     0
390
0
  0
POLYLINE
  5
15E
100
AcDbEntity
  8
0
370
    13
390
0
 62
     7
100
AcDb2dPolyline
 66
     1
 10
0.0
 20
0.0
 30
0.0
 70
     1
 71
    12
  0
VERTEX
  5
15F
100
AcDbEntity
  8
0
370
     0
390
0
100
AcDbVertex
100
AcDb2dVertex
 10
148.959442
 20
49.596542
 30
0.0
  0
VERTEX
  5
160
100
AcDbEntity
  8
0
370
     0
390
0
100
AcDbVertex
100
AcDb2dVertex
 10
151.178452
 20
49.596542
 30
0.0
  0
VERTEX
  5
161
100
AcDbEntity
  8
0
370
     0
390
0
100
AcDbVertex
100
AcDb2dVertex
 10
151.178452
 20
50.020172
 30
0.0
  0
VERTEX
  5
162
100
AcDbEntity
  8
0
370
     0
390
0
100
AcDbVertex
100
AcDb2dVertex
 10
149.423416
 20
50.020172
 30
0.0
  0
VERTEX
  5
163
100
AcDbEntity
  8
0
370
     0
390
0
100
AcDbVertex
100
AcDb2dVertex
 10
149.423416
 20
51.205334
 30
0.0
  0
VERTEX
  5
164
100
AcDbEntity
  8
0
370
     0
390
0
100
AcDbVertex
100
AcDb2dVertex
 10
150.986816
 20
51.205334
 30
0.0
  0
VERTEX
  5
165
100
AcDbEntity
  8
0
370
     0
390
0
100
AcDbVertex
100
AcDb2dVertex
 10
150.986816
 20
51.62392
 30
0.0
  0
VERTEX
  5
166
100
AcDbEntity
  8
0
370
     0
390
0
100
AcDbVertex
100
AcDb2dVertex
 10
149.423416
 20
51.62392
 30
0.0
  0
VERTEX
  5
167
100
AcDbEntity
  8
0
370
     0
390
0
100
AcDbVertex
100
AcDb2dVertex
 10
149.423416
 20
52.672913
 30
0.0
  0
VERTEX
  5
168
100
AcDbEntity
  8
0
370
     0
390
0
100
AcDbVertex
100
AcDb2dVertex
 10
151.138107
 20
52.672913
 30
0.0
  0
VERTEX
  5
169
100
AcDbEntity
  8
0
370
     0
390
0
100
AcDbVertex
100
AcDb2dVertex
 10
151.138107
 20
53.096542
 30
0.0
  0
VERTEX
  5
16A
100
AcDbEntity
  8
0
370
     0
390
0
100
AcDbVertex
100
AcDb2dVertex
 10
148.959442
 20
53.096542
 30
0.0
  0
SEQEND
  5
16B
100
AcDbEntity
  8
0
370
     0
390
0
  0
POLYLINE
  5
16C
100
AcDbEntity
  8
0
370
    13
390
0
 62
     7
100
AcDb2dPolyline
 66
     1
 10
0.0
 20
0.0
 30
0.0
 70
     1
 71
    34
  0
VERTEX
  5
16D
100
AcDbEntity
  8
0
370
     0
390
0
100
AcDbVertex
100
AcDb2dVertex
 10
153.735367
 20
51.407063
 30
0.0
  0
VERTEX
  5
16E
100
AcDbEntity
  8
0
370
     0
390
0
100
AcDbVertex
100
AcDb2dVertex
 10
154.174133
 20
51.407063
 30
0.0
  0
VERTEX
  5
16F
100
AcDbEntity
  8
0
370
     0
390
0
100
AcDbVertex
100
AcDb2dVertex
 10
154.083359
 20
51.81052
 30
0.0
  0
VERTEX
  5
170
100
AcDbEntity
  8
0
370
     0
390
0
100
AcDbVertex
100
AcDb2dVertex
 10
153.866501
 20
52.128242
 30
0.0
  0
VERTEX
  5
171
100
AcDbEntity
  8
0
370
     0
390
0
100
AcDbVertex
100
AcDb2dVertex
 10
153.528595
 20
52.324928
 30
0.0
  0
VERTEX
  5
172
100
AcDbEntity
  8
0
370
     0
390
0
100
AcDbVertex
100
AcDb2dVertex
 10
153.089844
 20
52.400578
 30
0.0
  0
VERTEX
  5
173
100
AcDbEntity
  8
0
370
     0
390
0
100
AcDbVertex
100
AcDb2dVertex
 10
152.605698
 20
52.299713
 30
0.0
  0
VERTEX
  5
174
100
AcDbEntity
  8
0
370
     0
390
0
100
AcDbVertex
100
AcDb2dVertex
 10
152.237534
 20
52.017292
 30
0.0
  0
VERTEX
  5
175
100
AcDbEntity
  8
0
370
     0
390
0
100
AcDbVertex
100
AcDb2dVertex
 10
152.005554
 20
51.558357
 30
0.0
  0
VERTEX
  5
176
100
AcDbEntity
  8
0
370
     0
390
0
100
AcDbVertex
100
AcDb2dVertex
 10
151.92485
 20
50.943085
 30
0.0
  0
VERTEX
  5
177
100
AcDbEntity
  8
0
370
     0
390
0
100
AcDbVertex
100
AcDb2dVertex
 10
152.000504
 20
50.332855
 30
0.0
  0
VERTEX
  5
178
100
AcDbEntity
  8
0
370
     0
390
0
100
AcDbVertex
100
AcDb2dVertex
 10
152.227448
 20
49.878963
 30
0.0
  0
VERTEX
  5
179
100
AcDbEntity
  8
0
370
     0
390
0
100
AcDbVertex
100
AcDb2dVertex
 10
152.58551
 20
49.596542
 30
0.0
  0
VERTEX
  5
17A
100
AcDbEntity
  8
0
370
     0
390
0
100
AcDbVertex
100
AcDb2dVertex
 10
153.074707
 20
49.500721
 30
0.0
  0
VERTEX
  5
17B
100
AcDbEntity
  8
0
370
     0
390
0
100
AcDbVertex
100
AcDb2dVertex
 10
153.508423
 20
49.57637
 30
0.0
  0
VERTEX
  5
17C
100
AcDbEntity
  8
0
370
     0
390
0
100
AcDbVertex
100
AcDb2dVertex
 10
153.846329
 20
49.788185
 30
0.0
  0
VERTEX
  5
17D
100
AcDbEntity
  8
0
370
     0
390
0
100
AcDbVertex
100
AcDb2dVertex
 10
154.078308
 20
50.121037
 30
0.0
  0
VERTEX
  5
17E
100
AcDbEntity
  8
0
370
     0
390
0
100
AcDbVertex
100
AcDb2dVertex
 10
154.179184
 20
50.564842
 30
0.0
  0
VERTEX
  5
17F
100
AcDbEntity
  8
0
370
     0
390
0
100
AcDbVertex
100
AcDb2dVertex
 10
153.755554
 20
50.564842
 30
0.0
  0
VERTEX
  5
180
100
AcDbEntity
  8
0
370
     0
390
0
100
AcDbVertex
100
AcDb2dVertex
 10
153.679901
 20
50.282421
 30
0.0
  0
VERTEX
  5
181
100
AcDbEntity
  8
0
370
     0
390
0
100
AcDbVertex
100
AcDb2dVertex
 10
153.538681
 20
50.070606
 30
0.0
  0
VERTEX
  5
182
100
AcDbEntity
  8
0
370
     0
390
0
100
AcDbVertex
100
AcDb2dVertex
 10
153.33696
 20
49.939484
 30
0.0
  0
VERTEX
  5
183
100
AcDbEntity
  8
0
370
     0
390
0
100
AcDbVertex
100
AcDb2dVertex
 10
153.089844
 20
49.899136
 30
0.0
  0
VERTEX
  5
184
100
AcDbEntity
  8
0
370
     0
390
0
100
AcDbVertex
100
AcDb2dVertex
 10
152.782211
 20
49.964699
 30
0.0
  0
VERTEX
  5
185
100
AcDbEntity
  8
0
370
     0
390
0
100
AcDbVertex
100
AcDb2dVertex
 10
152.560303
 20
50.166428
 30
0.0
  0
VERTEX
  5
186
100
AcDbEntity
  8
0
370
     0
390
0
100
AcDbVertex
100
AcDb2dVertex
 10
152.424133
 20
50.494236
 30
0.0
  0
VERTEX
  5
187
100
AcDbEntity
  8
0
370
     0
390
0
100
AcDbVertex
100
AcDb2dVertex
 10
152.378738
 20
50.958214
 30
0.0
  0
VERTEX
  5
188
100
AcDbEntity
  8
0
370
     0
390
0
100
AcDbVertex
100
AcDb2dVertex
 10
152.424133
 20
51.412106
 30
0.0
  0
VERTEX
  5
189
100
AcDbEntity
  8
0
370
     0
390
0
100
AcDbVertex
100
AcDb2dVertex
 10
152.565338
 20
51.739914
 30
0.0
  0
VERTEX
  5
18A
100
AcDbEntity
  8
0
370
     0
390
0
100
AcDbVertex
100
AcDb2dVertex
 10
152.792297
 20
51.941643
 30
0.0
  0
VERTEX
  5
18B
100
AcDbEntity
  8
0
370
     0
390
0
100
AcDbVertex
100
AcDb2dVertex
 10
153.089844
 20
52.012249
 30
0.0
  0
VERTEX
  5
18C
100
AcDbEntity
  8
0
370
     0
390
0
100
AcDbVertex
100
AcDb2dVertex
 10
153.352081
 20
51.966858
 30
0.0
  0
VERTEX
  5
18D
100
AcDbEntity
  8
0
370
     0
390
0
100
AcDbVertex
100
AcDb2dVertex
 10
153.548767
 20
51.850864
 30
0.0
  0
VERTEX
  5
18E
100
AcDbEntity
  8
0
370
     0
390
0
100
AcDbVertex
100
AcDb2dVertex
 10
153.679901
 20
51.659222
 30
0.0
  0
SEQEND
  5
18F
100
AcDbEntity
  8
0
370
     0
390
0
  0
POLYLINE
  5
190
100
AcDbEntity
  8
0
370
    13
390
0
 62
     7
100
AcDb2dPolyline
 66
     1
 10
0.0
 20
0.0
 30
0.0
 70
     1
 71
    24
  0
VERTEX
  5
191
100
AcDbEntity
  8
0
370
     0
390
0
100
AcDbVertex
100
AcDb2dVertex
 10
155.046616
 20
49.596542
 30
0.0
  0
VERTEX
  5
192
100
AcDbEntity
  8
0
370
     0
390
0
100
AcDbVertex
100
AcDb2dVertex
 10
155.490417
 20
49.596542
 30
0.0
  0
VERTEX
  5
193
100
AcDbEntity
  8
0
370
     0
390
0
100
AcDbVertex
100
AcDb2dVertex
 10
155.490417
 20
51.159943
 30
0.0
  0
VERTEX
  5
194
100
AcDbEntity
  8
0
370
     0
390
0
100
AcDbVertex
100
AcDb2dVertex
 10
155.535812
 20
51.518013
 30
0.0
  0
VERTEX
  5
195
100
AcDbEntity
  8
0
370
     0
390
0
100
AcDbVertex
100
AcDb2dVertex
 10
155.682053
 20
51.780258
 30
0.0
  0
VERTEX
  5
196
100
AcDbEntity
  8
0
370
     0
390
0
100
AcDbVertex
100
AcDb2dVertex
 10
155.909012
 20
51.941643
 30
0.0
  0
VERTEX
  5
197
100
AcDbEntity
  8
0
370
     0
390
0
100
AcDbVertex
100
AcDb2dVertex
 10
156.211594
 20
52.002163
 30
0.0
  0
VERTEX
  5
198
100
AcDbEntity
  8
0
370
     0
390
0
100
AcDbVertex
100
AcDb2dVertex
 10
156.453674
 20
51.951729
 30
0.0
  0
VERTEX
  5
199
100
AcDbEntity
  8
0
370
     0
390
0
100
AcDbVertex
100
AcDb2dVertex
 10
156.604965
 20
51.815563
 30
0.0
  0
VERTEX
  5
19A
100
AcDbEntity
  8
0
370
     0
390
0
100
AcDbVertex
100
AcDb2dVertex
 10
156.680618
 20
51.588615
 30
0.0
  0
VERTEX
  5
19B
100
AcDbEntity
  8
0
370
     0
390
0
100
AcDbVertex
100
AcDb2dVertex
 10
156.705841
 20
51.286022
 30
0.0
  0
VERTEX
  5
19C
100
AcDbEntity
  8
0
370
     0
390
0
100
AcDbVertex
100
AcDb2dVertex
 10
156.705841
 20
49.596542
 30
0.0
  0
VERTEX
  5
19D
100
AcDbEntity
  8
0
370
     0
390
0
100
AcDbVertex
100
AcDb2dVertex
 10
157.149643
 20
49.596542
 30
0.0
  0
VERTEX
  5
19E
100
AcDbEntity
  8
0
370
     0
390
0
100
AcDbVertex
100
AcDb2dVertex
 10
157.149643
 20
51.376801
 30
0.0
  0
VERTEX
  5
19F
100
AcDbEntity
  8
0
370
     0
390
0
100
AcDbVertex
100
AcDb2dVertex
 10
157.129471
 20
51.734871
 30
0.0
  0
VERTEX
  5
1A0
100
AcDbEntity
  8
0
370
     0
390
0
100
AcDbVertex
100
AcDb2dVertex
 10
157.038681
 20
52.032421
 30
0.0
  0
VERTEX
  5
1A1
100
AcDbEntity
  8
0
370
     0
390
0
100
AcDbVertex
100
AcDb2dVertex
 10
156.741135
 20
52.304756
 30
0.0
  0
VERTEX
  5
1A2
100
AcDbEntity
  8
0
370
     0
390
0
100
AcDbVertex
100
AcDb2dVertex
 10
156.277161
 20
52.400578
 30
0.0
  0
VERTEX
  5
1A3
100
AcDbEntity
  8
0
370
     0
390
0
100
AcDbVertex
100
AcDb2dVertex
 10
156.024994
 20
52.365273
 30
0.0
  0
VERTEX
  5
1A4
100
AcDbEntity
  8
0
370
     0
390
0
100
AcDbVertex
100
AcDb2dVertex
 10
155.808136
 20
52.269455
 30
0.0
  0
VERTEX
  5
1A5
100
AcDbEntity
  8
0
370
     0
390
0
100
AcDbVertex
100
AcDb2dVertex
 10
155.626587
 20
52.118156
 30
0.0
  0
VERTEX
  5
1A6
100
AcDbEntity
  8
0
370
     0
390
0
100
AcDbVertex
100
AcDb2dVertex
 10
155.490417
 20
51.911385
 30
0.0
  0
VERTEX
  5
1A7
100
AcDbEntity
  8
0
370
     0
390
0
100
AcDbVertex
100
AcDb2dVertex
 10
155.490417
 20
53.217579
 30
0.0
  0
VERTEX
  5
1A8
100
AcDbEntity
  8
0
370
     0
390
0
100
AcDbVertex
100
AcDb2dVertex
 10
155.046616
 20
53.217579
 30
0.0
  0
SEQEND
  5
1A9
100
AcDbEntity
  8
0
370
     0
390
0
  0
POLYLINE
  5
1AA
100
AcDbEntity
  8
0
370
    13
390
0
 62
     7
100
AcDb2dPolyline
 66
     1
 10
0.0
 20
0.0
 30
0.0
 70
     1
 71
    27
  0
VERTEX
  5
1AB
100
AcDbEntity
  8
0
370
     0
390
0
100
AcDbVertex
100
AcDb2dVertex
 10
158.470963
 20
50.822048
 30
0.0
  0
VERTEX
  5
1AC
100
AcDbEntity
  8
0
370
     0
390
0
100
AcDbVertex
100
AcDb2dVertex
 10
160.246185
 20
50.822048
 30
0.0
  0
VERTEX
  5
1AD
100
AcDbEntity
  8
0
370
     0
390
0
100
AcDbVertex
100
AcDb2dVertex
 10
160.251221
 20
51.02882
 30
0.0
  0
VERTEX
  5
1AE
100
AcDbEntity
  8
0
370
     0
390
0
100
AcDbVertex
100
AcDb2dVertex
 10
160.170532
 20
51.608791
 30
0.0
  0
VERTEX
  5
1AF
100
AcDbEntity
  8
0
370
     0
390
0
100
AcDbVertex
100
AcDb2dVertex
 10
159.948624
 20
52.042507
 30
0.0
  0
VERTEX
  5
1B0
100
AcDbEntity
  8
0
370
     0
390
0
100
AcDbVertex
100
AcDb2dVertex
 10
159.595612
 20
52.304756
 30
0.0
  0
VERTEX
  5
1B1
100
AcDbEntity
  8
0
370
     0
390
0
100
AcDbVertex
100
AcDb2dVertex
 10
159.126587
 20
52.400578
 30
0.0
  0
VERTEX
  5
1B2
100
AcDbEntity
  8
0
370
     0
390
0
100
AcDbVertex
100
AcDb2dVertex
 10
158.667648
 20
52.299713
 30
0.0
  0
VERTEX
  5
1B3
100
AcDbEntity
  8
0
370
     0
390
0
100
AcDbVertex
100
AcDb2dVertex
 10
158.314621
 20
52.017292
 30
0.0
  0
VERTEX
  5
1B4
100
AcDbEntity
  8
0
370
     0
390
0
100
AcDbVertex
100
AcDb2dVertex
 10
158.087677
 20
51.558357
 30
0.0
  0
VERTEX
  5
1B5
100
AcDbEntity
  8
0
370
     0
390
0
100
AcDbVertex
100
AcDb2dVertex
 10
158.006989
 20
50.953171
 30
0.0
  0
VERTEX
  5
1B6
100
AcDbEntity
  8
0
370
     0
390
0
100
AcDbVertex
100
AcDb2dVertex
 10
158.082642
 20
50.332855
 30
0.0
  0
VERTEX
  5
1B7
100
AcDbEntity
  8
0
370
     0
390
0
100
AcDbVertex
100
AcDb2dVertex
 10
158.309586
 20
49.878963
 30
0.0
  0
VERTEX
  5
1B8
100
AcDbEntity
  8
0
370
     0
390
0
100
AcDbVertex
100
AcDb2dVertex
 10
158.657562
 20
49.596542
 30
0.0
  0
VERTEX
  5
1B9
100
AcDbEntity
  8
0
370
     0
390
0
100
AcDbVertex
100
AcDb2dVertex
 10
159.11145
 20
49.500721
 30
0.0
  0
VERTEX
  5
1BA
100
AcDbEntity
  8
0
370
     0
390
0
100
AcDbVertex
100
AcDb2dVertex
 10
159.504822
 20
49.566284
 30
0.0
  0
VERTEX
  5
1BB
100
AcDbEntity
  8
0
370
     0
390
0
100
AcDbVertex
100
AcDb2dVertex
 10
159.827591
 20
49.737751
 30
0.0
  0
VERTEX
  5
1BC
100
AcDbEntity
  8
0
370
     0
390
0
100
AcDbVertex
100
AcDb2dVertex
 10
160.064621
 20
50.010086
 30
0.0
  0
VERTEX
  5
1BD
100
AcDbEntity
  8
0
370
     0
390
0
100
AcDbVertex
100
AcDb2dVertex
 10
160.20079
 20
50.373199
 30
0.0
  0
VERTEX
  5
1BE
100
AcDbEntity
  8
0
370
     0
390
0
100
AcDbVertex
100
AcDb2dVertex
 10
159.762024
 20
50.373199
 30
0.0
  0
VERTEX
  5
1BF
100
AcDbEntity
  8
0
370
     0
390
0
100
AcDbVertex
100
AcDb2dVertex
 10
159.671249
 20
50.171471
 30
0.0
  0
VERTEX
  5
1C0
100
AcDbEntity
  8
0
370
     0
390
0
100
AcDbVertex
100
AcDb2dVertex
 10
159.540131
 20
50.020172
 30
0.0
  0
VERTEX
  5
1C1
100
AcDbEntity
  8
0
370
     0
390
0
100
AcDbVertex
100
AcDb2dVertex
 10
159.166931
 20
49.899136
 30
0.0
  0
VERTEX
  5
1C2
100
AcDbEntity
  8
0
370
     0
390
0
100
AcDbVertex
100
AcDb2dVertex
 10
158.879471
 20
49.954613
 30
0.0
  0
VERTEX
  5
1C3
100
AcDbEntity
  8
0
370
     0
390
0
100
AcDbVertex
100
AcDb2dVertex
 10
158.662613
 20
50.131126
 30
0.0
  0
VERTEX
  5
1C4
100
AcDbEntity
  8
0
370
     0
390
0
100
AcDbVertex
100
AcDb2dVertex
 10
158.521393
 20
50.418587
 30
0.0
  0
VERTEX
  5
1C5
100
AcDbEntity
  8
0
370
     0
390
0
100
AcDbVertex
100
AcDb2dVertex
 10
158.470963
 20
50.806915
 30
0.0
  0
SEQEND
  5
1C6
100
AcDbEntity
  8
0
370
     0
390
0
  0
POLYLINE
  5
1C7
100
AcDbEntity
  8
0
370
    13
390
0
 62
     7
100
AcDb2dPolyline
 66
     1
 10
0.0
 20
0.0
 30
0.0
 70
     1
 71
     9
  0
VERTEX
  5
1C8
100
AcDbEntity
  8
0
370
     0
390
0
100
AcDbVertex
100
AcDb2dVertex
 10
158.470963
 20
51.195244
 30
0.0
  0
VERTEX
  5
1C9
100
AcDbEntity
  8
0
370
     0
390
0
100
AcDbVertex
100
AcDb2dVertex
 10
158.526443
 20
51.543228
 30
0.0
  0
VERTEX
  5
1CA
100
AcDbEntity
  8
0
370
     0
390
0
100
AcDbVertex
100
AcDb2dVertex
 10
158.662613
 20
51.800434
 30
0.0
  0
VERTEX
  5
1CB
100
AcDbEntity
  8
0
370
     0
390
0
100
AcDbVertex
100
AcDb2dVertex
 10
158.869385
 20
51.956772
 30
0.0
  0
VERTEX
  5
1CC
100
AcDbEntity
  8
0
370
     0
390
0
100
AcDbVertex
100
AcDb2dVertex
 10
159.141708
 20
52.012249
 30
0.0
  0
VERTEX
  5
1CD
100
AcDbEntity
  8
0
370
     0
390
0
100
AcDbVertex
100
AcDb2dVertex
 10
159.409012
 20
51.956772
 30
0.0
  0
VERTEX
  5
1CE
100
AcDbEntity
  8
0
370
     0
390
0
100
AcDbVertex
100
AcDb2dVertex
 10
159.615784
 20
51.800434
 30
0.0
  0
VERTEX
  5
1CF
100
AcDbEntity
  8
0
370
     0
390
0
100
AcDbVertex
100
AcDb2dVertex
 10
159.741852
 20
51.543228
 30
0.0
  0
VERTEX
  5
1D0
100
AcDbEntity
  8
0
370
     0
390
0
100
AcDbVertex
100
AcDb2dVertex
 10
159.787247
 20
51.195244
 30
0.0
  0
SEQEND
  5
1D1
100
AcDbEntity
  8
0
370
     0
390
0
  0
POLYLINE
  5
1D2
100
AcDbEntity
  8
0
370
    13
390
0
 62
     7
100
AcDb2dPolyline
 66
     1
 10
0.0
 20
0.0
 30
0.0
 70
     1
 71
    10
  0
VERTEX
  5
1D3
100
AcDbEntity
  8
0
370
     0
390
0
100
AcDbVertex
100
AcDb2dVertex
 10
162.001221
 20
52.844379
 30
0.0
  0
VERTEX
  5
1D4
100
AcDbEntity
  8
0
370
     0
390
0
100
AcDbVertex
100
AcDb2dVertex
 10
162.001221
 20
49.969742
 30
0.0
  0
VERTEX
  5
1D5
100
AcDbEntity
  8
0
370
     0
390
0
100
AcDbVertex
100
AcDb2dVertex
 10
161.088394
 20
49.969742
 30
0.0
  0
VERTEX
  5
1D6
100
AcDbEntity
  8
0
370
     0
390
0
100
AcDbVertex
100
AcDb2dVertex
 10
161.088394
 20
49.596542
 30
0.0
  0
VERTEX
  5
1D7
100
AcDbEntity
  8
0
370
     0
390
0
100
AcDbVertex
100
AcDb2dVertex
 10
163.352814
 20
49.596542
 30
0.0
  0
VERTEX
  5
1D8
100
AcDbEntity
  8
0
370
     0
390
0
100
AcDbVertex
100
AcDb2dVertex
 10
163.352814
 20
49.969742
 30
0.0
  0
VERTEX
  5
1D9
100
AcDbEntity
  8
0
370
     0
390
0
100
AcDbVertex
100
AcDb2dVertex
 10
162.445023
 20
49.969742
 30
0.0
  0
VERTEX
  5
1DA
100
AcDbEntity
  8
0
370
     0
390
0
100
AcDbVertex
100
AcDb2dVertex
 10
162.445023
 20
53.217579
 30
0.0
  0
VERTEX
  5
1DB
100
AcDbEntity
  8
0
370
     0
390
0
100
AcDbVertex
100
AcDb2dVertex
 10
161.305252
 20
53.217579
 30
0.0
  0
VERTEX
  5
1DC
100
AcDbEntity
  8
0
370
     0
390
0
100
AcDbVertex
100
AcDb2dVertex
 10
161.305252
 20
52.844379
 30
0.0
  0
SEQEND
  5
1DD
100
AcDbEntity
  8
0
370
     0
390
0
  0
POLYLINE
  5
1DE
100
AcDbEntity
  8
0
370
    13
390
0
 62
     7
100
AcDb2dPolyline
 66
     1
 10
0.0
 20
0.0
 30
0.0
 70
     1
 71
    10
  0
VERTEX
  5
1DF
100
AcDbEntity
  8
0
370
     0
390
0
100
AcDbVertex
100
AcDb2dVertex
 10
165.037247
 20
52.844379
 30
0.0
  0
VERTEX
  5
1E0
100
AcDbEntity
  8
0
370
     0
390
0
100
AcDbVertex
100
AcDb2dVertex
 10
165.037247
 20
49.969742
 30
0.0
  0
VERTEX
  5
1E1
100
AcDbEntity
  8
0
370
     0
390
0
100
AcDbVertex
100
AcDb2dVertex
 10
164.12442
 20
49.969742
 30
0.0
  0
VERTEX
  5
1E2
100
AcDbEntity
  8
0
370
     0
390
0
100
AcDbVertex
100
AcDb2dVertex
 10
164.12442
 20
49.596542
 30
0.0
  0
VERTEX
  5
1E3
100
AcDbEntity
  8
0
370
     0
390
0
100
AcDbVertex
100
AcDb2dVertex
 10
166.388824
 20
49.596542
 30
0.0
  0
VERTEX
  5
1E4
100
AcDbEntity
  8
0
370
     0
390
0
100
AcDbVertex
100
AcDb2dVertex
 10
166.388824
 20
49.969742
 30
0.0
  0
VERTEX
  5
1E5
100
AcDbEntity
  8
0
370
     0
390
0
100
AcDbVertex
100
AcDb2dVertex
 10
165.481049
 20
49.969742
 30
0.0
  0
VERTEX
  5
1E6
100
AcDbEntity
  8
0
370
     0
390
0
100
AcDbVertex
100
AcDb2dVertex
 10
165.481049
 20
53.217579
 30
0.0
  0
VERTEX
  5
1E7
100
AcDbEntity
  8
0
370
     0
390
0
100
AcDbVertex
100
AcDb2dVertex
 10
164.341278
 20
53.217579
 30
0.0
  0
VERTEX
  5
1E8
100
AcDbEntity
  8
0
370
     0
390
0
100
AcDbVertex
100
AcDb2dVertex
 10
164.341278
 20
52.844379
 30
0.0
  0
SEQEND
  5
1E9
100
AcDbEntity
  8
0
370
     0
390
0
  0
POLYLINE
  5
1EA
100
AcDbEntity
  8
0
370
    13
390
0
 62
     7
100
AcDb2dPolyline
 66
     1
 10
0.0
 20
0.0
 30
0.0
 70
     1
 71
    27
  0
VERTEX
  5
1EB
100
AcDbEntity
  8
0
370
     0
390
0
100
AcDbVertex
100
AcDb2dVertex
 10
167.579041
 20
50.822048
 30
0.0
  0
VERTEX
  5
1EC
100
AcDbEntity
  8
0
370
     0
390
0
100
AcDbVertex
100
AcDb2dVertex
 10
169.354248
 20
50.822048
 30
0.0
  0
VERTEX
  5
1ED
100
AcDbEntity
  8
0
370
     0
390
0
100
AcDbVertex
100
AcDb2dVertex
 10
169.359299
 20
51.02882
 30
0.0
  0
VERTEX
  5
1EE
100
AcDbEntity
  8
0
370
     0
390
0
100
AcDbVertex
100
AcDb2dVertex
 10
169.278595
 20
51.608791
 30
0.0
  0
VERTEX
  5
1EF
100
AcDbEntity
  8
0
370
     0
390
0
100
AcDbVertex
100
AcDb2dVertex
 10
169.056702
 20
52.042507
 30
0.0
  0
VERTEX
  5
1F0
100
AcDbEntity
  8
0
370
     0
390
0
100
AcDbVertex
100
AcDb2dVertex
 10
168.703674
 20
52.304756
 30
0.0
  0
VERTEX
  5
1F1
100
AcDbEntity
  8
0
370
     0
390
0
100
AcDbVertex
100
AcDb2dVertex
 10
168.23465
 20
52.400578
 30
0.0
  0
VERTEX
  5
1F2
100
AcDbEntity
  8
0
370
     0
390
0
100
AcDbVertex
100
AcDb2dVertex
 10
167.775726
 20
52.299713
 30
0.0
  0
VERTEX
  5
1F3
100
AcDbEntity
  8
0
370
     0
390
0
100
AcDbVertex
100
AcDb2dVertex
 10
167.422699
 20
52.017292
 30
0.0
  0
VERTEX
  5
1F4
100
AcDbEntity
  8
0
370
     0
390
0
100
AcDbVertex
100
AcDb2dVertex
 10
167.195755
 20
51.558357
 30
0.0
  0
VERTEX
  5
1F5
100
AcDbEntity
  8
0
370
     0
390
0
100
AcDbVertex
100
AcDb2dVertex
 10
167.115051
 20
50.953171
 30
0.0
  0
VERTEX
  5
1F6
100
AcDbEntity
  8
0
370
     0
390
0
100
AcDbVertex
100
AcDb2dVertex
 10
167.190704
 20
50.332855
 30
0.0
  0
VERTEX
  5
1F7
100
AcDbEntity
  8
0
370
     0
390
0
100
AcDbVertex
100
AcDb2dVertex
 10
167.417648
 20
49.878963
 30
0.0
  0
VERTEX
  5
1F8
100
AcDbEntity
  8
0
370
     0
390
0
100
AcDbVertex
100
AcDb2dVertex
 10
167.76564
 20
49.596542
 30
0.0
  0
VERTEX
  5
1F9
100
AcDbEntity
  8
0
370
     0
390
0
100
AcDbVertex
100
AcDb2dVertex
 10
168.219528
 20
49.500721
 30
0.0
  0
VERTEX
  5
1FA
100
AcDbEntity
  8
0
370
     0
390
0
100
AcDbVertex
100
AcDb2dVertex
 10
168.6129
 20
49.566284
 30
0.0
  0
VERTEX
  5
1FB
100
AcDbEntity
  8
0
370
     0
390
0
100
AcDbVertex
100
AcDb2dVertex
 10
168.935669
 20
49.737751
 30
0.0
  0
VERTEX
  5
1FC
100
AcDbEntity
  8
0
370
     0
390
0
100
AcDbVertex
100
AcDb2dVertex
 10
169.172699
 20
50.010086
 30
0.0
  0
VERTEX
  5
1FD
100
AcDbEntity
  8
0
370
     0
390
0
100
AcDbVertex
100
AcDb2dVertex
 10
169.308868
 20
50.373199
 30
0.0
  0
VERTEX
  5
1FE
100
AcDbEntity
  8
0
370
     0
390
0
100
AcDbVertex
100
AcDb2dVertex
 10
168.870102
 20
50.373199
 30
0.0
  0
VERTEX
  5
1FF
100
AcDbEntity
  8
0
370
     0
390
0
100
AcDbVertex
100
AcDb2dVertex
 10
168.779327
 20
50.171471
 30
0.0
  0
VERTEX
  5
200
100
AcDbEntity
  8
0
370
     0
390
0
100
AcDbVertex
100
AcDb2dVertex
 10
168.648193
 20
50.020172
 30
0.0
  0
VERTEX
  5
201
100
AcDbEntity
  8
0
370
     0
390
0
100
AcDbVertex
100
AcDb2dVertex
 10
168.274994
 20
49.899136
 30
0.0
  0
VERTEX
  5
202
100
AcDbEntity
  8
0
370
     0
390
0
100
AcDbVertex
100
AcDb2dVertex
 10
167.987534
 20
49.954613
 30
0.0
  0
VERTEX
  5
203
100
AcDbEntity
  8
0
370
     0
390
0
100
AcDbVertex
100
AcDb2dVertex
 10
167.770676
 20
50.131126
 30
0.0
  0
VERTEX
  5
204
100
AcDbEntity
  8
0
370
     0
390
0
100
AcDbVertex
100
AcDb2dVertex
 10
167.629471
 20
50.418587
 30
0.0
  0
VERTEX
  5
205
100
AcDbEntity
  8
0
370
     0
390
0
100
AcDbVertex
100
AcDb2dVertex
 10
167.579041
 20
50.806915
 30
0.0
  0
SEQEND
  5
206
100
AcDbEntity
  8
0
370
     0
390
0
  0
POLYLINE
  5
207
100
AcDbEntity
  8
0
370
    13
390
0
 62
     7
100
AcDb2dPolyline
 66
     1
 10
0.0
 20
0.0
 30
0.0
 70
     1
 71
     9
  0
VERTEX
  5
208
100
AcDbEntity
  8
0
370
     0
390
0
100
AcDbVertex
100
AcDb2dVertex
 10
167.579041
 20
51.195244
 30
0.0
  0
VERTEX
  5
209
100
AcDbEntity
  8
0
370
     0
390
0
100
AcDbVertex
100
AcDb2dVertex
 10
167.634506
 20
51.543228
 30
0.0
  0
VERTEX
  5
20A
100
AcDbEntity
  8
0
370
     0
390
0
100
AcDbVertex
100
AcDb2dVertex
 10
167.770676
 20
51.800434
 30
0.0
  0
VERTEX
  5
20B
100
AcDbEntity
  8
0
370
     0
390
0
100
AcDbVertex
100
AcDb2dVertex
 10
167.977448
 20
51.956772
 30
0.0
  0
VERTEX
  5
20C
100
AcDbEntity
  8
0
370
     0
390
0
100
AcDbVertex
100
AcDb2dVertex
 10
168.249786
 20
52.012249
 30
0.0
  0
VERTEX
  5
20D
100
AcDbEntity
  8
0
370
     0
390
0
100
AcDbVertex
100
AcDb2dVertex
 10
168.517075
 20
51.956772
 30
0.0
  0
VERTEX
  5
20E
100
AcDbEntity
  8
0
370
     0
390
0
100
AcDbVertex
100
AcDb2dVertex
 10
168.723846
 20
51.800434
 30
0.0
  0
VERTEX
  5
20F
100
AcDbEntity
  8
0
370
     0
390
0
100
AcDbVertex
100
AcDb2dVertex
 10
168.84993
 20
51.543228
 30
0.0
  0
VERTEX
  5
210
100
AcDbEntity
  8
0
370
     0
390
0
100
AcDbVertex
100
AcDb2dVertex
 10
168.895325
 20
51.195244
 30
0.0
  0
SEQEND
  5
211
100
AcDbEntity
  8
0
370
     0
390
0
  0
POLYLINE
  5
212
100
AcDbEntity
  8
0
370
    13
390
0
 62
     7
100
AcDb2dPolyline
 66
     1
 10
0.0
 20
0.0
 30
0.0
 70
     1
 71
     4
  0
VERTEX
  5
213
100
AcDbEntity
  8
0
370
     0
390
0
100
AcDbVertex
100
AcDb2dVertex
 10
173.95871
 20
49.596542
 30
0.0
  0
VERTEX
  5
214
100
AcDbEntity
  8
0
370
     0
390
0
100
AcDbVertex
100
AcDb2dVertex
 10
174.654678
 20
49.596542
 30
0.0
  0
VERTEX
  5
215
100
AcDbEntity
  8
0
370
     0
390
0
100
AcDbVertex
100
AcDb2dVertex
 10
174.654678
 20
50.347984
 30
0.0
  0
VERTEX
  5
216
100
AcDbEntity
  8
0
370
     0
390
0
100
AcDbVertex
100
AcDb2dVertex
 10
173.95871
 20
50.347984
 30
0.0
  0
SEQEND
  5
217
100
AcDbEntity
  8
0
370
     0
390
0
  0
POLYLINE
  5
218
100
AcDbEntity
  8
0
370
    13
390
0
 62
     7
100
AcDb2dPolyline
 66
     1
 10
0.0
 20
0.0
 30
0.0
 70
     1
 71
     4
  0
VERTEX
  5
219
100
AcDbEntity
  8
0
370
     0
390
0
100
AcDbVertex
100
AcDb2dVertex
 10
173.95871
 20
51.553314
 30
0.0
  0
VERTEX
  5
21A
100
AcDbEntity
  8
0
370
     0
390
0
100
AcDbVertex
100
AcDb2dVertex
 10
174.654678
 20
51.553314
 30
0.0
  0
VERTEX
  5
21B
100
AcDbEntity
  8
0
370
     0
390
0
100
AcDbVertex
100
AcDb2dVertex
 10
174.654678
 20
52.304756
 30
0.0
  0
VERTEX
  5
21C
100
AcDbEntity
  8
0
370
     0
390
0
100
AcDbVertex
100
AcDb2dVertex
 10
173.95871
 20
52.304756
 30
0.0
  0
SEQEND
  5
21D
100
AcDbEntity
  8
0
370
     0
390
0
  0
POLYLINE
  5
21E
100
AcDbEntity
  8
0
370
    13
390
0
 62
     7
100
AcDb2dPolyline
 66
     1
 10
0.0
 20
0.0
 30
0.0
 70
     1
 71
    10
  0
VERTEX
  5
21F
100
AcDbEntity
  8
0
370
     0
390
0
100
AcDbVertex
100
AcDb2dVertex
 10
183.32399
 20
49.596542
 30
0.0
  0
VERTEX
  5
220
100
AcDbEntity
  8
0
370
     0
390
0
100
AcDbVertex
100
AcDb2dVertex
 10
183.782928
 20
49.596542
 30
0.0
  0
VERTEX
  5
221
100
AcDbEntity
  8
0
370
     0
390
0
100
AcDbVertex
100
AcDb2dVertex
 10
183.782928
 20
53.121758
 30
0.0
  0
VERTEX
  5
222
100
AcDbEntity
  8
0
370
     0
390
0
100
AcDbVertex
100
AcDb2dVertex
 10
183.439987
 20
53.121758
 30
0.0
  0
VERTEX
  5
223
100
AcDbEntity
  8
0
370
     0
390
0
100
AcDbVertex
100
AcDb2dVertex
 10
183.349213
 20
52.814121
 30
0.0
  0
VERTEX
  5
224
100
AcDbEntity
  8
0
370
     0
390
0
100
AcDbVertex
100
AcDb2dVertex
 10
183.167648
 20
52.607349
 30
0.0
  0
VERTEX
  5
225
100
AcDbEntity
  8
0
370
     0
390
0
100
AcDbVertex
100
AcDb2dVertex
 10
182.890274
 20
52.486313
 30
0.0
  0
VERTEX
  5
226
100
AcDbEntity
  8
0
370
     0
390
0
100
AcDbVertex
100
AcDb2dVertex
 10
182.506989
 20
52.445965
 30
0.0
  0
VERTEX
  5
227
100
AcDbEntity
  8
0
370
     0
390
0
100
AcDbVertex
100
AcDb2dVertex
 10
182.506989
 20
52.087898
 30
0.0
  0
VERTEX
  5
228
100
AcDbEntity
  8
0
370
     0
390
0
100
AcDbVertex
100
AcDb2dVertex
 10
183.32399
 20
52.087898
 30
0.0
  0
SEQEND
  5
229
100
AcDbEntity
  8
0
370
     0
390
0
  0
POLYLINE
  5
22A
100
AcDbEntity
  8
0
370
    13
390
0
 62
     7
100
AcDb2dPolyline
 66
     1
 10
0.0
 20
0.0
 30
0.0
 70
     1
 71
     4
  0
VERTEX
  5
22B
100
AcDbEntity
  8
0
370
     0
390
0
100
AcDbVertex
100
AcDb2dVertex
 10
186.102814
 20
49.596542
 30
0.0
  0
VERTEX
  5
22C
100
AcDbEntity
  8
0
370
     0
390
0
100
AcDbVertex
100
AcDb2dVertex
 10
186.798767
 20
49.596542
 30
0.0
  0
VERTEX
  5
22D
100
AcDbEntity
  8
0
370
     0
390
0
100
AcDbVertex
100
AcDb2dVertex
 10
186.798767
 20
50.347984
 30
0.0
  0
VERTEX
  5
22E
100
AcDbEntity
  8
0
370
     0
390
0
100
AcDbVertex
100
AcDb2dVertex
 10
186.102814
 20
50.347984
 30
0.0
  0
SEQEND
  5
22F
100
AcDbEntity
  8
0
370
     0
390
0
  0
POLYLINE
  5
230
100
AcDbEntity
  8
0
370
    13
390
0
 62
     7
100
AcDb2dPolyline
 66
     1
 10
0.0
 20
0.0
 30
0.0
 70
     1
 71
     4
  0
VERTEX
  5
231
100
AcDbEntity
  8
0
370
     0
390
0
100
AcDbVertex
100
AcDb2dVertex
 10
186.102814
 20
51.553314
 30
0.0
  0
VERTEX
  5
232
100
AcDbEntity
  8
0
370
     0
390
0
100
AcDbVertex
100
AcDb2dVertex
 10
186.798767
 20
51.553314
 30
0.0
  0
VERTEX
  5
233
100
AcDbEntity
  8
0
370
     0
390
0
100
AcDbVertex
100
AcDb2dVertex
 10
186.798767
 20
52.304756
 30
0.0
  0
VERTEX
  5
234
100
AcDbEntity
  8
0
370
     0
390
0
100
AcDbVertex
100
AcDb2dVertex
 10
186.102814
 20
52.304756
 30
0.0
  0
SEQEND
  5
235
100
AcDbEntity
  8
0
370
     0
390
0
  0
POLYLINE
  5
236
100
AcDbEntity
  8
0
370
    13
390
0
 62
     7
100
AcDb2dPolyline
 66
     1
 10
0.0
 20
0.0
 30
0.0
 70
     1
 71
    10
  0
VERTEX
  5
237
100
AcDbEntity
  8
0
370
     0
390
0
100
AcDbVertex
100
AcDb2dVertex
 10
189.396027
 20
49.596542
 30
0.0
  0
VERTEX
  5
238
100
AcDbEntity
  8
0
370
     0
390
0
100
AcDbVertex
100
AcDb2dVertex
 10
189.854965
 20
49.596542
 30
0.0
  0
VERTEX
  5
239
100
AcDbEntity
  8
0
370
     0
390
0
100
AcDbVertex
100
AcDb2dVertex
 10
189.854965
 20
53.121758
 30
0.0
  0
VERTEX
  5
23A
100
AcDbEntity
  8
0
370
     0
390
0
100
AcDbVertex
100
AcDb2dVertex
 10
189.512024
 20
53.121758
 30
0.0
  0
VERTEX
  5
23B
100
AcDbEntity
  8
0
370
     0
390
0
100
AcDbVertex
100
AcDb2dVertex
 10
189.421249
 20
52.814121
 30
0.0
  0
VERTEX
  5
23C
100
AcDbEntity
  8
0
370
     0
390
0
100
AcDbVertex
100
AcDb2dVertex
 10
189.239685
 20
52.607349
 30
0.0
  0
VERTEX
  5
23D
100
AcDbEntity
  8
0
370
     0
390
0
100
AcDbVertex
100
AcDb2dVertex
 10
188.962311
 20
52.486313
 30
0.0
  0
VERTEX
  5
23E
100
AcDbEntity
  8
0
370
     0
390
0
100
AcDbVertex
100
AcDb2dVertex
 10
188.579025
 20
52.445965
 30
0.0
  0
VERTEX
  5
23F
100
AcDbEntity
  8
0
370
     0
390
0
100
AcDbVertex
100
AcDb2dVertex
 10
188.579025
 20
52.087898
 30
0.0
  0
VERTEX
  5
240
100
AcDbEntity
  8
0
370
     0
390
0
100
AcDbVertex
100
AcDb2dVertex
 10
189.396027
 20
52.087898
 30
0.0
  0
SEQEND
  5
241
100
AcDbEntity
  8
0
370
     0
390
0
  0
LINE
  5
242
100
AcDbEntity
  8
0
370
    35
390
0
 62
     7
100
AcDbLine
 10
148.500504
 20
67.5
 30
0.0
 11
178.500504
 21
67.5
 31
0.0
210
0.0
220
0.0
230
1.0
  0
LINE
  5
243
100
AcDbEntity
  8
0
370
    35
390
0
 62
     7
100
AcDbLine
 10
178.500504
 20
67.5
 30
0.0
 11
178.500504
 21
142.5
 31
0.0
210
0.0
220
0.0
230
1.0
  0
LINE
  5
244
100
AcDbEntity
  8
0
370
    35
390
0
 62
     7
100
AcDbLine
 10
178.500504
 20
142.5
 30
0.0
 11
149.444687
 21
142.5
 31
0.0
210
0.0
220
0.0
230
1.0
  0
LINE
  5
245
100
AcDbEntity
  8
0
370
    35
390
0
 62
     7
100
AcDbLine
 10
118.500504
 20
142.5
 30
0.0
 11
149.444687
 21
142.5
 31
0.0
210
0.0
220
0.0
230
1.0
  0
LINE
  5
246
100
AcDbEntity
  8
0
370
    35
390
0
 62
     7
100
AcDbLine
 10
148.500504
 20
112.5
 30
0.0
 11
118.500504
 21
112.5
 31
0.0
210
0.0
220
0.0
230
1.0
  0
LINE
  5
247
100
AcDbEntity
  8
0
370
    35
390
0
 62
     7
100
AcDbLine
 10
148.500504
 20
112.5
 30
0.0
 11
148.500504
 21
67.5
 31
0.0
210
0.0
220
0.0
230
1.0
  0
LINE
  5
248
100
AcDbEntity
  8
0
370
    35
390
0
 62
     7
 48
0.1475
100
AcDbLine
 10
160.60051
 20
97.400002
 30
0.0
 11
160.60051
 21
103.300003
 31
0.0
210
0.0
220
0.0
230
1.0
  0
LINE
  5
249
100
AcDbEntity
  8
0
370
    35
390
0
 62
     7
 48
0.1475
100
AcDbLine
 10
166.500504
 20
97.400002
 30
0.0
 11
160.60051
 21
97.400002
 31
0.0
210
0.0
220
0.0
230
1.0
  0
LINE
  5
24A
100
AcDbEntity
  8
0
370
    35
390
0
 62
     7
 48
0.1475
100
AcDbLine
 10
160.60051
 20
103.300003
 30
0.0
 11
166.500504
 21
103.300003
 31
0.0
210
0.0
220
0.0
230
1.0
  0
LINE
  5
24B
100
AcDbEntity
  8
0
370
    35
390
0
 62
     7
 48
0.1475
100
AcDbLine
 10
166.500504
 20
103.300003
 30
0.0
 11
166.500504
 21
97.400002
 31
0.0
210
0.0
220
0.0
230
1.0
  0
LINE
  5
24C
100
AcDbEntity
  8
0
370
    35
390
0
 62
     7
 48
0.1475
100
AcDbLine
 10
160.60051
 20
75.5
 30
0.0
 11
166.500504
 21
75.5
 31
0.0
210
0.0
220
0.0
230
1.0
  0
LINE
  5
24D
100
AcDbEntity
  8
0
370
    35
390
0
 62
     7
 48
0.1475
100
AcDbLine
 10
160.60051
 20
81.400002
 30
0.0
 11
160.60051
 21
75.5
 31
0.0
210
0.0
220
0.0
230
1.0
  0
LINE
  5
24E
100
AcDbEntity
  8
0
370
    35
390
0
 62
     7
 48
0.1475
100
AcDbLine
 10
166.500504
 20
75.5
 30
0.0
 11
166.500504
 21
81.400002
 31
0.0
210
0.0
220
0.0
230
1.0
  0
LINE
  5
24F
100
AcDbEntity
  8
0
370
    35
390
0
 62
     7
 48
0.1475
100
AcDbLine
 10
166.500504
 20
81.400002
 30
0.0
 11
160.60051
 21
81.400002
 31
0.0
210
0.0
220
0.0
230
1.0
  0
ARC
  5
250
100
AcDbEntity
  8
0
370
    35
390
0
 62
     7
100
AcDbCircle
 10
116.076889
 20
125.730148
 30
0.0
 40
13.052558
210
0.0
220
0.0
230
1.0
100
AcDbArc
 50
29.88189
 51
32.654387
  0
ARC
  5
251
100
AcDbEntity
  8
0
370
    35
390
0
 62
     7
100
AcDbCircle
 10
116.084831
 20
125.734131
 30
0.0
 40
13.04368
210
0.0
220
0.0
230
1.0
100
AcDbArc
 50
18.437216
 51
29.88411
  0
LINE
  5
252
100
AcDbEntity
  8
0
370
    35
390
0
 62
     7
 48
0.031572
100
AcDbLine
 10
128.458984
 20
129.85939
 30
0.0
 11
127.829811
 21
130.954361
 31
0.0
210
0.0
220
0.0
230
1.0
  0
ARC
  5
253
100
AcDbEntity
  8
0
370
    35
390
0
 62
     7
100
AcDbCircle
 10
115.447441
 20
126.824905
 30
0.0
 40
13.052898
210
0.0
220
0.0
230
1.0
100
AcDbArc
 50
27.996206
 51
29.881801
  0
ARC
  5
254
100
AcDbEntity
  8
0
370
    35
390
0
 62
     7
100
AcDbCircle
 10
115.459442
 20
126.830643
 30
0.0
 40
13.039601
210
0.0
220
0.0
230
1.0
100
AcDbArc
 50
18.436009
 51
27.110399
  0
LINE
  5
255
100
AcDbEntity
  8
0
370
    35
390
0
 62
     7
 48
0.022934
100
AcDbLine
 10
118.500504
 20
112.5
 30
0.0
 11
118.500504
 21
113.417374
 31
0.0
210
0.0
220
0.0
230
1.0
  0
LINE
  5
256
100
AcDbEntity
  8
0
370
    35
390
0
 62
     7
 48
0.075333
100
AcDbLine
 10
118.500504
 20
139.486694
 30
0.0
 11
118.500504
 21
142.5
 31
0.0
210
0.0
220
0.0
230
1.0
  0
ELLIPSE
  5
257
100
AcDbEntity
  8
0
370
    35
390
0
 62
     7
100
AcDbEllipse
 10
116.555984
 20
126.005432
 30
0.0
 11
6.36407470703125
 21
-11.075675964355469
 31
0.0
210
0.0
220
0.0
230
1.0
 40
0.97856
 41
5.9075767794430778
 42
7.6499209091258873
  0
ELLIPSE
  5
258
100
AcDbEntity
  8
0
370
    35
390
0
 62
     7
100
AcDbEllipse
 10
115.926819
 20
127.100403
 30
0.0
 11
6.36407470703125
 21
-11.075675964355469
 31
0.0
210
0.0
220
0.0
230
1.0
 40
0.97856
 41
1.5213437597526505
 42
2.4044158398159743
  0
ENDSEC
  0
SECTION
  2
OBJECTS
  0
DICTIONARY
  5
19
100
AcDbDictionary
280
     0
281
     1
  3
ACAD_GROUP
350
1A
  3
ACAD_MLINESTYLE
350
1B
  3
ACAD_LAYOUT
350
1E
  3
ACAD_PLOTSETTINGS
350
22
  3
ACAD_PLOTSTYLENAME
350
1F
  3
ACAD_WIPEOUT_VARS
350
23
  0
DICTIONARY
  5
1A
102
{ACAD_REACTORS
330
19
102
}
100
AcDbDictionary
280
     0
281
     1
  0
DICTIONARY
  5
1B
102
{ACAD_REACTORS
330
19
102
}
100
AcDbDictionary
280
     0
281
     1
  3
Standard
350
1C
  0
MLINESTYLE
  5
1C
102
{ACAD_REACTORS
330
1B
102
}
100
AcDbMlineStyle
  2
Standard
 70
     0
  3

 62
     0
 51
90.0
 52
90.0
 71
     2
 49
0.5
 62
   256
  6
ByLayer
 49
-0.5
 62
   256
  6
ByLayer
  0
ACDBDICTIONARYWDFLT
  5
1F
102
{ACAD_REACTORS
330
19
102
}
100
AcDbDictionary
281
     1
  3
Normal
350
1D
100
AcDbDictionaryWithDefault
340
1D
  0
ACDBPLACEHOLDER
  5
1D
102
{ACAD_REACTORS
330
1F
102
}
  0
LAYOUT
  5
20
102
{ACAD_REACTORS
330
1E
102
}
100
AcDbPlotSettings
  1

  2

  4

  6

 40
0.0
 41
0.0
 42
0.0
 43
0.0
 44
0.0
 45
0.0
 46
0.0
 47
0.0
 48
0.0
 49
0.0
140
0.0
141
0.0
142
1.0
143
1.0
 70
  1024
 72
     0
 73
     0
 74
     0
  7

 75
     0
147
1.0
148
0.0
149
0.0
100
AcDbLayout
  1
Model
 70
     0
 71
     0
 10
0.0
 20
0.0
 11
0.0
 21
0.0
 12
0.0
 22
0.0
 32
0.0
 14
0.0
 24
0.0
 34
0.0
 15
0.0
 25
0.0
 35
0.0
146
0.0
 13
0.0
 23
0.0
 33
0.0
 16
0.0
 26
0.0
 36
0.0
 17
0.0
 27
0.0
 37
0.0
 76
     0
330
A
331
0
345
0
346
0
  0
LAYOUT
  5
21
102
{ACAD_REACTORS
330
1E
102
}
100
AcDbPlotSettings
  1

  2

  4

  6

 40
0.0
 41
0.0
 42
0.0
 43
0.0
 44
0.0
 45
0.0
 46
0.0
 47
0.0
 48
0.0
 49
0.0
140
0.0
141
0.0
142
1.0
143
1.0
 70
     0
 72
     0
 73
     0
 74
     0
  7

 75
     0
147
1.0
148
0.0
149
0.0
100
AcDbLayout
  1
Layout1
 70
     0
 71
     0
 10
0.0
 20
0.0
 11
0.0
 21
0.0
 12
0.0
 22
0.0
 32
0.0
 14
0.0
 24
0.0
 34
0.0
 15
0.0
 25
0.0
 35
0.0
146
0.0
 13
0.0
 23
0.0
 33
0.0
 16
0.0
 26
0.0
 36
0.0
 17
0.0
 27
0.0
 37
0.0
 76
     0
330
B
331
0
345
0
346
0
  0
DICTIONARY
  5
1E
102
{ACAD_REACTORS
330
19
102
}
100
AcDbDictionary
280
     0
281
     1
  3
Layout1
350
21
  3
Model
350
20
  0
DICTIONARY
  5
22
102
{ACAD_REACTORS
330
19
102
}
100
AcDbDictionary
280
     0
281
     1
  0
WIPEOUTVARIABLES
  5
23
100
AcDbWipeoutVariables
 70
     1
  0
ENDSEC
  0
EOF
