<?xml version="1.0" encoding="utf-8" ?><!DOCTYPE svg PUBLIC "-//W3C//DTD SVG 1.1//EN" "http://www.w3.org/Graphics/SVG/1.1/DTD/svg11.dtd" 
[ <!ATTLIST svg 
  xmlns:dsy CDATA #FIXED "http://www.3ds.com/print"  
    dsy:text-version CDATA #IMPLIED > 

  <!ATTLIST text 
  xmlns:dsy CDATA #FIXED "http://www.3ds.com/print" 
    dsy:text-version CDATA #IMPLIED > 
]><svg xmlns="http://www.w3.org/2000/svg" xmlns:dsy="http://www.3ds.com/print" dsy:text-version="18000" width="297" height="210" viewBox="0 0 297 210" version="1.1"><g stroke="rgb(0, 0, 0)" stroke-width="0.35" stroke-linecap="butt" stroke-linejoin="miter" fill="none"><path d="M 133.5 80 L 133.5 130"/><path d="M 163.5 130 L 133.5 130"/><path d="M 163.5 130 L 163.5 80"/><path d="M 133.5 80 L 163.5 80"/><path d="M 145.182 114.527 L 145.182 108.627"/><path d="M 145.182 108.627 L 151.082 108.627"/><path d="M 151.082 108.627 L 151.082 114.527"/><path d="M 151.082 114.527 L 145.182 114.527"/><path d="M 151.082 86.7272 L 151.082 92.6273"/><path d="M 151.082 92.6273 L 145.182 92.6273"/><path d="M 145.182 92.6273 L 145.182 86.7272"/><path d="M 145.182 86.7272 L 151.082 86.7272"/></g><g stroke="rgb(0, 0, 0)" stroke-width="0.13" stroke-linecap="butt" stroke-linejoin="miter" fill="none"><path d="M 150.896 138.352 L 150.018 141.332 L 149.115 138.352 L 148.636 138.352 L 149.766 141.857 L 150.27 141.857 L 151.375 138.352 L 150.896 138.352 L 150.896 138.352 z M 154.098 139.148 L 153.654 139.148 L 153.654 140.712 L 153.604 141.075 L 153.457 141.337 L 153.231 141.499 L 152.933 141.549 L 152.696 141.509 L 152.545 141.388 L 152.459 141.181 L 152.439 140.888 L 152.439 139.148 L 151.995 139.148 L 151.995 140.929 L 152.01 141.287 L 152.106 141.584 L 152.398 141.857 L 152.867 141.952 L 153.12 141.917 L 153.336 141.826 L 153.523 141.67 L 153.674 141.443 L 153.674 141.857 L 154.098 141.857 L 154.098 139.148 L 154.098 139.148 z M 155.434 140.631 L 157.21 140.631 L 157.215 140.424 L 157.134 139.844 L 156.912 139.411 L 156.559 139.148 L 156.09 139.053 L 155.631 139.153 L 155.278 139.436 L 155.051 139.895 L 154.97 140.5 L 155.046 141.12 L 155.273 141.574 L 155.621 141.857 L 156.075 141.952 L 156.468 141.887 L 156.791 141.715 L 157.028 141.443 L 157.164 141.08 L 156.726 141.08 L 156.635 141.282 L 156.504 141.433 L 156.13 141.554 L 155.843 141.499 L 155.626 141.322 L 155.485 141.035 L 155.434 140.646 L 155.434 140.631 L 155.434 140.631 z M 155.434 140.258 L 155.49 139.91 L 155.626 139.653 L 155.833 139.496 L 156.105 139.441 L 156.372 139.496 L 156.579 139.653 L 156.705 139.91 L 156.751 140.258 L 155.434 140.258 L 155.434 140.258 z M 162.782 141.438 L 162.782 141.857 L 163.226 141.857 L 163.226 138.236 L 162.787 138.236 L 162.787 139.562 L 162.45 139.179 L 162.243 139.088 L 162.006 139.053 L 161.577 139.153 L 161.244 139.436 L 161.027 139.89 L 160.952 140.5 L 161.027 141.11 L 161.244 141.569 L 161.577 141.857 L 162.006 141.952 L 162.243 141.917 L 162.455 141.826 L 162.782 141.438 L 162.782 141.438 z M 162.081 139.451 L 162.374 139.522 L 162.596 139.718 L 162.727 140.046 L 162.777 140.5 L 162.727 140.959 L 162.596 141.287 L 162.374 141.488 L 162.081 141.554 L 161.804 141.488 L 161.592 141.287 L 161.451 140.954 L 161.406 140.5 L 161.451 140.051 L 161.592 139.723 L 161.804 139.522 L 162.081 139.451 L 162.081 139.451 z M 164.543 140.631 L 166.318 140.631 L 166.323 140.424 L 166.242 139.844 L 166.02 139.411 L 165.667 139.148 L 165.198 139.053 L 164.739 139.153 L 164.386 139.436 L 164.159 139.895 L 164.079 140.5 L 164.154 141.12 L 164.381 141.574 L 164.729 141.857 L 165.183 141.952 L 165.576 141.887 L 165.899 141.715 L 166.136 141.443 L 166.272 141.08 L 165.834 141.08 L 165.743 141.282 L 165.612 141.433 L 165.238 141.554 L 164.951 141.499 L 164.734 141.322 L 164.593 141.035 L 164.543 140.646 L 164.543 140.631 L 164.543 140.631 z M 164.543 140.258 L 164.598 139.91 L 164.734 139.653 L 164.941 139.496 L 165.213 139.441 L 165.481 139.496 L 165.687 139.653 L 165.813 139.91 L 165.859 140.258 L 164.543 140.258 L 164.543 140.258 z M 170.842 139.617 L 170.842 141.857 L 171.285 141.857 L 171.285 139.617 L 172.294 139.617 L 172.294 139.239 L 171.285 139.239 L 171.285 139.073 L 171.321 138.871 L 171.437 138.735 L 171.633 138.654 L 171.916 138.624 L 172.294 138.644 L 172.294 138.261 L 171.815 138.236 L 171.381 138.281 L 171.079 138.417 L 170.897 138.654 L 170.842 138.992 L 170.842 139.239 L 170.03 139.239 L 170.03 139.617 L 170.842 139.617 L 170.842 139.617 z M 174.871 141.504 L 174.871 141.519 L 174.896 141.69 L 174.972 141.811 L 175.29 141.907 L 175.537 141.867 L 175.537 141.524 L 175.431 141.539 L 175.29 141.473 L 175.264 141.272 L 175.264 139.87 L 175.204 139.512 L 175.027 139.259 L 174.72 139.108 L 174.286 139.053 L 173.862 139.113 L 173.55 139.285 L 173.353 139.552 L 173.287 139.905 L 173.287 139.935 L 173.686 139.935 L 173.721 139.723 L 173.832 139.572 L 174.014 139.481 L 174.271 139.446 L 174.518 139.471 L 174.695 139.547 L 174.8 139.678 L 174.836 139.86 L 174.816 140.071 L 174.735 140.177 L 174.533 140.228 L 174.155 140.268 L 173.721 140.359 L 173.414 140.52 L 173.232 140.772 L 173.177 141.146 L 173.227 141.478 L 173.383 141.726 L 173.635 141.882 L 173.983 141.937 L 174.452 141.831 L 174.871 141.504 L 174.871 141.504 z M 174.821 140.909 L 174.76 141.171 L 174.599 141.372 L 174.357 141.504 L 174.059 141.549 L 173.867 141.524 L 173.731 141.443 L 173.646 141.302 L 173.62 141.105 L 173.641 140.929 L 173.721 140.803 L 174.044 140.661 L 174.452 140.601 L 174.821 140.48 L 174.821 140.909 L 174.821 140.909 z M 178.023 140.046 L 178.462 140.046 L 178.371 139.643 L 178.154 139.325 L 177.816 139.128 L 177.378 139.053 L 176.893 139.153 L 176.525 139.436 L 176.293 139.895 L 176.213 140.51 L 176.288 141.12 L 176.515 141.574 L 176.873 141.857 L 177.362 141.952 L 177.796 141.877 L 178.134 141.665 L 178.366 141.332 L 178.467 140.888 L 178.043 140.888 L 177.968 141.171 L 177.826 141.383 L 177.625 141.514 L 177.378 141.554 L 177.07 141.488 L 176.848 141.287 L 176.712 140.959 L 176.666 140.495 L 176.712 140.041 L 176.853 139.713 L 177.08 139.512 L 177.378 139.441 L 177.64 139.486 L 177.836 139.602 L 177.968 139.794 L 178.023 140.046 L 178.023 140.046 z M 179.723 140.631 L 181.498 140.631 L 181.503 140.424 L 181.422 139.844 L 181.2 139.411 L 180.847 139.148 L 180.378 139.053 L 179.919 139.153 L 179.566 139.436 L 179.339 139.895 L 179.259 140.5 L 179.334 141.12 L 179.561 141.574 L 179.909 141.857 L 180.363 141.952 L 180.757 141.887 L 181.079 141.715 L 181.316 141.443 L 181.452 141.08 L 181.014 141.08 L 180.923 141.282 L 180.792 141.433 L 180.419 141.554 L 180.131 141.499 L 179.914 141.322 L 179.773 141.035 L 179.723 140.646 L 179.723 140.631 L 179.723 140.631 z M 179.723 140.258 L 179.778 139.91 L 179.914 139.653 L 180.121 139.496 L 180.393 139.441 L 180.661 139.496 L 180.867 139.653 L 180.994 139.91 L 181.039 140.258 L 179.723 140.258 L 179.723 140.258 z" stroke="none" fill-rule="evenodd" fill="rgb(0, 0, 0)"/></g><g stroke="rgb(0, 0, 0)" stroke-width="0.13" stroke-linecap="butt" stroke-linejoin="miter" fill="none"><path d="M 148.959 147.903 L 151.178 147.903 L 151.178 147.48 L 149.423 147.48 L 149.423 146.295 L 150.986 146.295 L 150.986 145.876 L 149.423 145.876 L 149.423 144.827 L 151.138 144.827 L 151.138 144.403 L 148.959 144.403 L 148.959 147.903 L 148.959 147.903 z M 153.735 146.093 L 154.174 146.093 L 154.083 145.689 L 153.866 145.372 L 153.528 145.175 L 153.089 145.099 L 152.605 145.2 L 152.237 145.483 L 152.005 145.942 L 151.924 146.557 L 152 147.167 L 152.227 147.621 L 152.585 147.903 L 153.074 147.999 L 153.508 147.924 L 153.846 147.712 L 154.078 147.379 L 154.179 146.935 L 153.755 146.935 L 153.679 147.218 L 153.538 147.429 L 153.336 147.561 L 153.089 147.601 L 152.782 147.535 L 152.56 147.334 L 152.424 147.006 L 152.378 146.542 L 152.424 146.088 L 152.565 145.76 L 152.792 145.558 L 153.089 145.488 L 153.352 145.533 L 153.548 145.649 L 153.679 145.841 L 153.735 146.093 L 153.735 146.093 z M 155.046 147.903 L 155.49 147.903 L 155.49 146.34 L 155.535 145.982 L 155.682 145.72 L 155.909 145.558 L 156.211 145.498 L 156.453 145.548 L 156.604 145.684 L 156.68 145.911 L 156.705 146.214 L 156.705 147.903 L 157.149 147.903 L 157.149 146.123 L 157.129 145.765 L 157.038 145.468 L 156.741 145.195 L 156.277 145.099 L 156.025 145.135 L 155.808 145.231 L 155.626 145.382 L 155.49 145.589 L 155.49 144.282 L 155.046 144.282 L 155.046 147.903 L 155.046 147.903 z M 158.47 146.678 L 160.246 146.678 L 160.251 146.471 L 160.17 145.891 L 159.948 145.457 L 159.595 145.195 L 159.126 145.099 L 158.667 145.2 L 158.314 145.483 L 158.087 145.942 L 158.007 146.547 L 158.082 147.167 L 158.309 147.621 L 158.657 147.903 L 159.111 147.999 L 159.504 147.934 L 159.827 147.762 L 160.064 147.49 L 160.2 147.127 L 159.762 147.127 L 159.671 147.329 L 159.54 147.48 L 159.166 147.601 L 158.879 147.545 L 158.662 147.369 L 158.521 147.081 L 158.47 146.693 L 158.47 146.678 L 158.47 146.678 z M 158.47 146.305 L 158.526 145.957 L 158.662 145.7 L 158.869 145.543 L 159.141 145.488 L 159.409 145.543 L 159.615 145.7 L 159.741 145.957 L 159.787 146.305 L 158.47 146.305 L 158.47 146.305 z M 162.001 144.656 L 162.001 147.53 L 161.088 147.53 L 161.088 147.903 L 163.352 147.903 L 163.352 147.53 L 162.445 147.53 L 162.445 144.282 L 161.305 144.282 L 161.305 144.656 L 162.001 144.656 L 162.001 144.656 z M 165.037 144.656 L 165.037 147.53 L 164.124 147.53 L 164.124 147.903 L 166.388 147.903 L 166.388 147.53 L 165.481 147.53 L 165.481 144.282 L 164.341 144.282 L 164.341 144.656 L 165.037 144.656 L 165.037 144.656 z M 167.579 146.678 L 169.354 146.678 L 169.359 146.471 L 169.278 145.891 L 169.056 145.457 L 168.703 145.195 L 168.234 145.099 L 167.775 145.2 L 167.422 145.483 L 167.195 145.942 L 167.115 146.547 L 167.19 147.167 L 167.417 147.621 L 167.765 147.903 L 168.219 147.999 L 168.612 147.934 L 168.935 147.762 L 169.172 147.49 L 169.308 147.127 L 168.87 147.127 L 168.779 147.329 L 168.648 147.48 L 168.275 147.601 L 167.987 147.545 L 167.77 147.369 L 167.629 147.081 L 167.579 146.693 L 167.579 146.678 L 167.579 146.678 z M 167.579 146.305 L 167.634 145.957 L 167.77 145.7 L 167.977 145.543 L 168.249 145.488 L 168.517 145.543 L 168.723 145.7 L 168.849 145.957 L 168.895 146.305 L 167.579 146.305 L 167.579 146.305 z M 173.958 147.903 L 174.654 147.903 L 174.654 147.152 L 173.958 147.152 L 173.958 147.903 L 173.958 147.903 z M 173.958 145.947 L 174.654 145.947 L 174.654 145.195 L 173.958 145.195 L 173.958 145.947 L 173.958 145.947 z" stroke="none" fill-rule="evenodd" fill="rgb(0, 0, 0)"/></g><g stroke="rgb(0, 0, 0)" stroke-width="0.13" stroke-linecap="butt" stroke-linejoin="miter" fill="none"><path d="M 183.323 147.903 L 183.782 147.903 L 183.782 144.378 L 183.439 144.378 L 183.349 144.686 L 183.167 144.893 L 182.89 145.014 L 182.506 145.054 L 182.506 145.412 L 183.323 145.412 L 183.323 147.903 L 183.323 147.903 z M 186.102 147.903 L 186.798 147.903 L 186.798 147.152 L 186.102 147.152 L 186.102 147.903 L 186.102 147.903 z M 186.102 145.947 L 186.798 145.947 L 186.798 145.195 L 186.102 145.195 L 186.102 145.947 L 186.102 145.947 z M 189.396 147.903 L 189.854 147.903 L 189.854 144.378 L 189.512 144.378 L 189.421 144.686 L 189.239 144.893 L 188.962 145.014 L 188.579 145.054 L 188.579 145.412 L 189.396 145.412 L 189.396 147.903 L 189.396 147.903 z" stroke="none" fill-rule="evenodd" fill="rgb(0, 0, 0)"/></g></svg>