<?xml version="1.0" encoding="utf-8" ?><!DOCTYPE svg PUBLIC "-//W3C//DTD SVG 1.1//EN" "http://www.w3.org/Graphics/SVG/1.1/DTD/svg11.dtd" 
[ <!ATTLIST svg 
  xmlns:dsy CDATA #FIXED "http://www.3ds.com/print"  
    dsy:text-version CDATA #IMPLIED > 

  <!ATTLIST text 
  xmlns:dsy CDATA #FIXED "http://www.3ds.com/print" 
    dsy:text-version CDATA #IMPLIED > 
]><svg xmlns="http://www.w3.org/2000/svg" xmlns:dsy="http://www.3ds.com/print" dsy:text-version="18000" width="297" height="210" viewBox="0 0 297 210" version="1.1"><g stroke="rgb(0, 0, 0)" stroke-width="0.35" stroke-linecap="butt" stroke-linejoin="miter" fill="none"><path d="M 148.501 142.5 L 178.501 142.5"/><path d="M 178.501 142.5 L 178.501 67.5"/><path d="M 178.501 67.5 L 149.445 67.5"/><path d="M 118.501 67.5 L 149.445 67.5"/><path d="M 148.501 97.5 L 118.501 97.5"/><path d="M 148.501 97.5 L 148.501 142.5"/><path d="M 160.601 112.6 L 160.601 106.7"/><path d="M 166.501 112.6 L 160.601 112.6"/><path d="M 160.601 106.7 L 166.501 106.7"/><path d="M 166.501 106.7 L 166.501 112.6"/><path d="M 160.601 134.5 L 166.501 134.5"/><path d="M 160.601 128.6 L 160.601 134.5"/><path d="M 166.501 134.5 L 166.501 128.6"/><path d="M 166.501 128.6 L 160.601 128.6"/><path d="M 127.394 77.7669 A 13.0526 13.0526 0 0 0 127.066 77.2271"/><path d="M 128.459 80.1406 A 13.0437 13.0437 0 0 0 127.394 77.7669"/><path d="M 128.459 80.1406 L 127.83 79.0456"/><path d="M 126.973 77.0479 A 13.0529 13.0529 0 0 0 126.765 76.672"/><path d="M 127.83 79.0456 A 13.0396 13.0396 0 0 0 127.066 77.2271"/><path d="M 118.501 97.5 L 118.501 96.5826"/><path d="M 118.501 70.5133 L 118.501 67.5"/><path d="M 118.501 96.5826 A 12.7739 12.5 -299.882 0 0 128.459 80.1406"/><path d="M 127.066 77.2271 A 12.7739 12.5 -299.882 0 0 118.501 70.5133"/></g><g stroke="rgb(0, 0, 0)" stroke-width="0.13" stroke-linecap="butt" stroke-linejoin="miter" fill="none"><path d="M 150.896 150.852 L 150.019 153.832 L 149.116 150.852 L 148.637 150.852 L 149.766 154.357 L 150.271 154.357 L 151.375 150.852 L 150.896 150.852 L 150.896 150.852 z M 154.098 151.648 L 153.655 151.648 L 153.655 153.212 L 153.604 153.575 L 153.458 153.837 L 153.231 153.999 L 152.934 154.049 L 152.696 154.009 L 152.545 153.888 L 152.459 153.681 L 152.439 153.388 L 152.439 151.648 L 151.995 151.648 L 151.995 153.429 L 152.011 153.787 L 152.106 154.084 L 152.399 154.357 L 152.868 154.452 L 153.12 154.417 L 153.337 154.326 L 153.524 154.17 L 153.675 153.943 L 153.675 154.357 L 154.098 154.357 L 154.098 151.648 L 154.098 151.648 z M 155.435 153.131 L 157.21 153.131 L 157.215 152.924 L 157.135 152.344 L 156.913 151.911 L 156.56 151.648 L 156.091 151.553 L 155.632 151.653 L 155.279 151.936 L 155.052 152.395 L 154.971 153 L 155.047 153.62 L 155.274 154.074 L 155.622 154.357 L 156.075 154.452 L 156.469 154.387 L 156.792 154.215 L 157.029 153.943 L 157.165 153.58 L 156.726 153.58 L 156.635 153.782 L 156.504 153.933 L 156.131 154.054 L 155.843 153.999 L 155.627 153.822 L 155.485 153.535 L 155.435 153.146 L 155.435 153.131 L 155.435 153.131 z M 155.435 152.758 L 155.49 152.41 L 155.627 152.153 L 155.833 151.996 L 156.106 151.941 L 156.373 151.996 L 156.58 152.153 L 156.706 152.41 L 156.751 152.758 L 155.435 152.758 L 155.435 152.758 z M 162.783 153.938 L 162.783 154.357 L 163.227 154.357 L 163.227 150.736 L 162.788 150.736 L 162.788 152.062 L 162.45 151.679 L 162.243 151.588 L 162.006 151.553 L 161.578 151.653 L 161.245 151.936 L 161.028 152.39 L 160.952 153 L 161.028 153.61 L 161.245 154.069 L 161.578 154.357 L 162.006 154.452 L 162.243 154.417 L 162.455 154.326 L 162.783 153.938 L 162.783 153.938 z M 162.082 151.951 L 162.374 152.022 L 162.596 152.218 L 162.727 152.546 L 162.778 153 L 162.727 153.459 L 162.596 153.787 L 162.374 153.988 L 162.082 154.054 L 161.805 153.988 L 161.593 153.787 L 161.452 153.454 L 161.406 153 L 161.452 152.551 L 161.593 152.223 L 161.805 152.022 L 162.082 151.951 L 162.082 151.951 z M 164.543 153.131 L 166.318 153.131 L 166.323 152.924 L 166.243 152.344 L 166.021 151.911 L 165.668 151.648 L 165.199 151.553 L 164.74 151.653 L 164.387 151.936 L 164.16 152.395 L 164.079 153 L 164.155 153.62 L 164.382 154.074 L 164.73 154.357 L 165.184 154.452 L 165.577 154.387 L 165.9 154.215 L 166.137 153.943 L 166.273 153.58 L 165.834 153.58 L 165.743 153.782 L 165.612 153.933 L 165.239 154.054 L 164.952 153.999 L 164.735 153.822 L 164.593 153.535 L 164.543 153.146 L 164.543 153.131 L 164.543 153.131 z M 164.543 152.758 L 164.598 152.41 L 164.735 152.153 L 164.941 151.996 L 165.214 151.941 L 165.481 151.996 L 165.688 152.153 L 165.814 152.41 L 165.859 152.758 L 164.543 152.758 L 164.543 152.758 z M 170.842 152.117 L 170.842 154.357 L 171.286 154.357 L 171.286 152.117 L 172.294 152.117 L 172.294 151.739 L 171.286 151.739 L 171.286 151.573 L 171.321 151.371 L 171.437 151.235 L 171.634 151.154 L 171.916 151.124 L 172.294 151.144 L 172.294 150.761 L 171.815 150.736 L 171.382 150.781 L 171.079 150.917 L 170.897 151.154 L 170.842 151.492 L 170.842 151.739 L 170.03 151.739 L 170.03 152.117 L 170.842 152.117 L 170.842 152.117 z M 174.872 154.004 L 174.872 154.019 L 174.897 154.19 L 174.972 154.311 L 175.29 154.407 L 175.537 154.367 L 175.537 154.024 L 175.431 154.039 L 175.29 153.973 L 175.265 153.772 L 175.265 152.37 L 175.204 152.012 L 175.028 151.759 L 174.72 151.608 L 174.287 151.553 L 173.863 151.613 L 173.55 151.785 L 173.354 152.052 L 173.288 152.405 L 173.288 152.435 L 173.686 152.435 L 173.722 152.223 L 173.833 152.072 L 174.014 151.981 L 174.271 151.946 L 174.519 151.971 L 174.695 152.047 L 174.801 152.178 L 174.836 152.36 L 174.816 152.571 L 174.735 152.677 L 174.534 152.728 L 174.155 152.768 L 173.722 152.859 L 173.414 153.02 L 173.233 153.272 L 173.177 153.646 L 173.227 153.978 L 173.384 154.226 L 173.636 154.382 L 173.984 154.437 L 174.453 154.331 L 174.872 154.004 L 174.872 154.004 z M 174.821 153.409 L 174.761 153.671 L 174.599 153.872 L 174.357 154.004 L 174.06 154.049 L 173.868 154.024 L 173.732 153.943 L 173.646 153.802 L 173.621 153.605 L 173.641 153.429 L 173.722 153.303 L 174.044 153.161 L 174.453 153.101 L 174.821 152.98 L 174.821 153.409 L 174.821 153.409 z M 178.024 152.546 L 178.462 152.546 L 178.372 152.143 L 178.155 151.825 L 177.817 151.628 L 177.378 151.553 L 176.894 151.653 L 176.526 151.936 L 176.294 152.395 L 176.213 153.01 L 176.289 153.62 L 176.516 154.074 L 176.874 154.357 L 177.363 154.452 L 177.797 154.377 L 178.135 154.165 L 178.367 153.832 L 178.467 153.388 L 178.044 153.388 L 177.968 153.671 L 177.827 153.883 L 177.625 154.014 L 177.378 154.054 L 177.07 153.988 L 176.849 153.787 L 176.712 153.459 L 176.667 152.995 L 176.712 152.541 L 176.854 152.213 L 177.081 152.012 L 177.378 151.941 L 177.64 151.986 L 177.837 152.102 L 177.968 152.294 L 178.024 152.546 L 178.024 152.546 z M 179.723 153.131 L 181.498 153.131 L 181.503 152.924 L 181.423 152.344 L 181.201 151.911 L 180.848 151.648 L 180.379 151.553 L 179.92 151.653 L 179.567 151.936 L 179.34 152.395 L 179.259 153 L 179.335 153.62 L 179.562 154.074 L 179.91 154.357 L 180.364 154.452 L 180.757 154.387 L 181.08 154.215 L 181.317 153.943 L 181.453 153.58 L 181.014 153.58 L 180.923 153.782 L 180.792 153.933 L 180.419 154.054 L 180.132 153.999 L 179.915 153.822 L 179.774 153.535 L 179.723 153.146 L 179.723 153.131 L 179.723 153.131 z M 179.723 152.758 L 179.779 152.41 L 179.915 152.153 L 180.122 151.996 L 180.394 151.941 L 180.661 151.996 L 180.868 152.153 L 180.994 152.41 L 181.039 152.758 L 179.723 152.758 L 179.723 152.758 z" stroke="none" fill-rule="evenodd" fill="rgb(0, 0, 0)"/></g><g stroke="rgb(0, 0, 0)" stroke-width="0.13" stroke-linecap="butt" stroke-linejoin="miter" fill="none"><path d="M 148.959 160.403 L 151.178 160.403 L 151.178 159.98 L 149.423 159.98 L 149.423 158.795 L 150.987 158.795 L 150.987 158.376 L 149.423 158.376 L 149.423 157.327 L 151.138 157.327 L 151.138 156.903 L 148.959 156.903 L 148.959 160.403 L 148.959 160.403 z M 153.735 158.593 L 154.174 158.593 L 154.083 158.189 L 153.867 157.872 L 153.529 157.675 L 153.09 157.599 L 152.606 157.7 L 152.238 157.983 L 152.006 158.442 L 151.925 159.057 L 152.001 159.667 L 152.227 160.121 L 152.586 160.403 L 153.075 160.499 L 153.508 160.424 L 153.846 160.212 L 154.078 159.879 L 154.179 159.435 L 153.756 159.435 L 153.68 159.718 L 153.539 159.929 L 153.337 160.061 L 153.09 160.101 L 152.782 160.035 L 152.56 159.834 L 152.424 159.506 L 152.379 159.042 L 152.424 158.588 L 152.565 158.26 L 152.792 158.058 L 153.09 157.988 L 153.352 158.033 L 153.549 158.149 L 153.68 158.341 L 153.735 158.593 L 153.735 158.593 z M 155.047 160.403 L 155.49 160.403 L 155.49 158.84 L 155.536 158.482 L 155.682 158.22 L 155.909 158.058 L 156.212 157.998 L 156.454 158.048 L 156.605 158.184 L 156.681 158.411 L 156.706 158.714 L 156.706 160.403 L 157.15 160.403 L 157.15 158.623 L 157.129 158.265 L 157.039 157.968 L 156.741 157.695 L 156.277 157.599 L 156.025 157.635 L 155.808 157.731 L 155.627 157.882 L 155.49 158.089 L 155.49 156.782 L 155.047 156.782 L 155.047 160.403 L 155.047 160.403 z M 158.471 159.178 L 160.246 159.178 L 160.251 158.971 L 160.171 158.391 L 159.949 157.957 L 159.596 157.695 L 159.127 157.599 L 158.668 157.7 L 158.315 157.983 L 158.088 158.442 L 158.007 159.047 L 158.083 159.667 L 158.31 160.121 L 158.658 160.403 L 159.111 160.499 L 159.505 160.434 L 159.828 160.262 L 160.065 159.99 L 160.201 159.627 L 159.762 159.627 L 159.671 159.829 L 159.54 159.98 L 159.167 160.101 L 158.879 160.045 L 158.663 159.869 L 158.521 159.581 L 158.471 159.193 L 158.471 159.178 L 158.471 159.178 z M 158.471 158.805 L 158.526 158.457 L 158.663 158.2 L 158.869 158.043 L 159.142 157.988 L 159.409 158.043 L 159.616 158.2 L 159.742 158.457 L 159.787 158.805 L 158.471 158.805 L 158.471 158.805 z M 162.001 157.156 L 162.001 160.03 L 161.088 160.03 L 161.088 160.403 L 163.353 160.403 L 163.353 160.03 L 162.445 160.03 L 162.445 156.782 L 161.305 156.782 L 161.305 157.156 L 162.001 157.156 L 162.001 157.156 z M 165.037 157.156 L 165.037 160.03 L 164.124 160.03 L 164.124 160.403 L 166.389 160.403 L 166.389 160.03 L 165.481 160.03 L 165.481 156.782 L 164.341 156.782 L 164.341 157.156 L 165.037 157.156 L 165.037 157.156 z M 167.579 159.178 L 169.354 159.178 L 169.359 158.971 L 169.279 158.391 L 169.057 157.957 L 168.704 157.695 L 168.235 157.599 L 167.776 157.7 L 167.423 157.983 L 167.196 158.442 L 167.115 159.047 L 167.191 159.667 L 167.418 160.121 L 167.766 160.403 L 168.22 160.499 L 168.613 160.434 L 168.936 160.262 L 169.173 159.99 L 169.309 159.627 L 168.87 159.627 L 168.779 159.829 L 168.648 159.98 L 168.275 160.101 L 167.988 160.045 L 167.771 159.869 L 167.629 159.581 L 167.579 159.193 L 167.579 159.178 L 167.579 159.178 z M 167.579 158.805 L 167.635 158.457 L 167.771 158.2 L 167.977 158.043 L 168.25 157.988 L 168.517 158.043 L 168.724 158.2 L 168.85 158.457 L 168.895 158.805 L 167.579 158.805 L 167.579 158.805 z M 173.959 160.403 L 174.655 160.403 L 174.655 159.652 L 173.959 159.652 L 173.959 160.403 L 173.959 160.403 z M 173.959 158.447 L 174.655 158.447 L 174.655 157.695 L 173.959 157.695 L 173.959 158.447 L 173.959 158.447 z" stroke="none" fill-rule="evenodd" fill="rgb(0, 0, 0)"/></g><g stroke="rgb(0, 0, 0)" stroke-width="0.13" stroke-linecap="butt" stroke-linejoin="miter" fill="none"><path d="M 183.324 160.403 L 183.783 160.403 L 183.783 156.878 L 183.44 156.878 L 183.349 157.186 L 183.168 157.393 L 182.89 157.514 L 182.507 157.554 L 182.507 157.912 L 183.324 157.912 L 183.324 160.403 L 183.324 160.403 z M 186.103 160.403 L 186.799 160.403 L 186.799 159.652 L 186.103 159.652 L 186.103 160.403 L 186.103 160.403 z M 186.103 158.447 L 186.799 158.447 L 186.799 157.695 L 186.103 157.695 L 186.103 158.447 L 186.103 158.447 z M 189.396 160.403 L 189.855 160.403 L 189.855 156.878 L 189.512 156.878 L 189.421 157.186 L 189.24 157.393 L 188.962 157.514 L 188.579 157.554 L 188.579 157.912 L 189.396 157.912 L 189.396 160.403 L 189.396 160.403 z" stroke="none" fill-rule="evenodd" fill="rgb(0, 0, 0)"/></g></svg>