<?xml version="1.0" encoding="utf-8" ?><!DOCTYPE svg PUBLIC "-//W3C//DTD SVG 1.1//EN" "http://www.w3.org/Graphics/SVG/1.1/DTD/svg11.dtd" 
[ <!ATTLIST svg 
  xmlns:dsy CDATA #FIXED "http://www.3ds.com/print"  
    dsy:text-version CDATA #IMPLIED > 

  <!ATTLIST text 
  xmlns:dsy CDATA #FIXED "http://www.3ds.com/print" 
    dsy:text-version CDATA #IMPLIED > 
]><svg xmlns="http://www.w3.org/2000/svg" xmlns:dsy="http://www.3ds.com/print" dsy:text-version="18000" width="297" height="210" viewBox="0 0 297 210" version="1.1"><g stroke="rgb(0, 0, 0)" stroke-width="0.35" stroke-linecap="butt" stroke-linejoin="miter" fill="none"><path d="M 166.5 145 L 166.5 65"/><path d="M 130.5 65 L 166.5 65"/><path d="M 130.5 93.595 L 130.5 145"/><path d="M 136.782 145 L 130.5 145"/><path d="M 136.782 118.632 L 136.782 145"/><path d="M 141.632 118.632 L 136.782 118.632"/><path d="M 141.632 118.632 L 141.632 145"/><path d="M 151.732 145 L 141.632 145"/><path d="M 151.732 118.632 L 151.732 145"/><path d="M 156.582 118.632 L 151.732 118.632"/><path d="M 156.582 118.632 L 156.582 145"/><path d="M 166.5 145 L 156.582 145"/><path d="M 130.5 65 L 130.5 68.8479"/><path d="M 130.5 93.595 A 12.533 12.533 0 1 0 130.5 68.8479"/></g><g stroke="rgb(0, 0, 0)" stroke-width="0.13" stroke-linecap="butt" stroke-linejoin="miter" fill="none"><path d="M 150.896 153.352 L 150.018 156.332 L 149.115 153.352 L 148.636 153.352 L 149.766 156.857 L 150.27 156.857 L 151.375 153.352 L 150.896 153.352 L 150.896 153.352 z M 154.098 154.148 L 153.654 154.148 L 153.654 155.712 L 153.604 156.075 L 153.457 156.337 L 153.231 156.499 L 152.933 156.549 L 152.696 156.509 L 152.545 156.388 L 152.459 156.181 L 152.439 155.888 L 152.439 154.148 L 151.995 154.148 L 151.995 155.929 L 152.01 156.287 L 152.106 156.584 L 152.398 156.857 L 152.867 156.952 L 153.12 156.917 L 153.336 156.826 L 153.523 156.67 L 153.674 156.443 L 153.674 156.857 L 154.098 156.857 L 154.098 154.148 L 154.098 154.148 z M 155.434 155.631 L 157.21 155.631 L 157.215 155.424 L 157.134 154.844 L 156.912 154.411 L 156.559 154.148 L 156.09 154.053 L 155.631 154.153 L 155.278 154.436 L 155.051 154.895 L 154.97 155.5 L 155.046 156.12 L 155.273 156.574 L 155.621 156.857 L 156.075 156.952 L 156.468 156.887 L 156.791 156.715 L 157.028 156.443 L 157.164 156.08 L 156.726 156.08 L 156.635 156.282 L 156.504 156.433 L 156.13 156.554 L 155.843 156.499 L 155.626 156.322 L 155.485 156.035 L 155.434 155.646 L 155.434 155.631 L 155.434 155.631 z M 155.434 155.258 L 155.49 154.91 L 155.626 154.653 L 155.833 154.496 L 156.105 154.441 L 156.372 154.496 L 156.579 154.653 L 156.705 154.91 L 156.751 155.258 L 155.434 155.258 L 155.434 155.258 z M 162.782 156.438 L 162.782 156.857 L 163.226 156.857 L 163.226 153.236 L 162.787 153.236 L 162.787 154.562 L 162.45 154.179 L 162.243 154.088 L 162.006 154.053 L 161.577 154.153 L 161.244 154.436 L 161.027 154.89 L 160.952 155.5 L 161.027 156.11 L 161.244 156.569 L 161.577 156.857 L 162.006 156.952 L 162.243 156.917 L 162.455 156.826 L 162.782 156.438 L 162.782 156.438 z M 162.081 154.451 L 162.374 154.522 L 162.596 154.718 L 162.727 155.046 L 162.777 155.5 L 162.727 155.959 L 162.596 156.287 L 162.374 156.488 L 162.081 156.554 L 161.804 156.488 L 161.592 156.287 L 161.451 155.954 L 161.406 155.5 L 161.451 155.051 L 161.592 154.723 L 161.804 154.522 L 162.081 154.451 L 162.081 154.451 z M 164.543 155.631 L 166.318 155.631 L 166.323 155.424 L 166.242 154.844 L 166.02 154.411 L 165.667 154.148 L 165.198 154.053 L 164.739 154.153 L 164.386 154.436 L 164.159 154.895 L 164.079 155.5 L 164.154 156.12 L 164.381 156.574 L 164.729 156.857 L 165.183 156.952 L 165.576 156.887 L 165.899 156.715 L 166.136 156.443 L 166.272 156.08 L 165.834 156.08 L 165.743 156.282 L 165.612 156.433 L 165.238 156.554 L 164.951 156.499 L 164.734 156.322 L 164.593 156.035 L 164.543 155.646 L 164.543 155.631 L 164.543 155.631 z M 164.543 155.258 L 164.598 154.91 L 164.734 154.653 L 164.941 154.496 L 165.213 154.441 L 165.481 154.496 L 165.687 154.653 L 165.813 154.91 L 165.859 155.258 L 164.543 155.258 L 164.543 155.258 z M 170.842 154.617 L 170.842 156.857 L 171.285 156.857 L 171.285 154.617 L 172.294 154.617 L 172.294 154.239 L 171.285 154.239 L 171.285 154.073 L 171.321 153.871 L 171.437 153.735 L 171.633 153.654 L 171.916 153.624 L 172.294 153.644 L 172.294 153.261 L 171.815 153.236 L 171.381 153.281 L 171.079 153.417 L 170.897 153.654 L 170.842 153.992 L 170.842 154.239 L 170.03 154.239 L 170.03 154.617 L 170.842 154.617 L 170.842 154.617 z M 174.871 156.504 L 174.871 156.519 L 174.896 156.69 L 174.972 156.811 L 175.29 156.907 L 175.537 156.867 L 175.537 156.524 L 175.431 156.539 L 175.29 156.473 L 175.264 156.272 L 175.264 154.87 L 175.204 154.512 L 175.027 154.259 L 174.72 154.108 L 174.286 154.053 L 173.862 154.113 L 173.55 154.285 L 173.353 154.552 L 173.287 154.905 L 173.287 154.935 L 173.686 154.935 L 173.721 154.723 L 173.832 154.572 L 174.014 154.481 L 174.271 154.446 L 174.518 154.471 L 174.695 154.547 L 174.8 154.678 L 174.836 154.86 L 174.816 155.071 L 174.735 155.177 L 174.533 155.228 L 174.155 155.268 L 173.721 155.359 L 173.414 155.52 L 173.232 155.772 L 173.177 156.146 L 173.227 156.478 L 173.383 156.726 L 173.635 156.882 L 173.983 156.937 L 174.452 156.831 L 174.871 156.504 L 174.871 156.504 z M 174.821 155.909 L 174.76 156.171 L 174.599 156.372 L 174.357 156.504 L 174.059 156.549 L 173.867 156.524 L 173.731 156.443 L 173.646 156.302 L 173.62 156.105 L 173.641 155.929 L 173.721 155.803 L 174.044 155.661 L 174.452 155.601 L 174.821 155.48 L 174.821 155.909 L 174.821 155.909 z M 178.023 155.046 L 178.462 155.046 L 178.371 154.643 L 178.154 154.325 L 177.816 154.128 L 177.378 154.053 L 176.893 154.153 L 176.525 154.436 L 176.293 154.895 L 176.213 155.51 L 176.288 156.12 L 176.515 156.574 L 176.873 156.857 L 177.362 156.952 L 177.796 156.877 L 178.134 156.665 L 178.366 156.332 L 178.467 155.888 L 178.043 155.888 L 177.968 156.171 L 177.826 156.383 L 177.625 156.514 L 177.378 156.554 L 177.07 156.488 L 176.848 156.287 L 176.712 155.959 L 176.666 155.495 L 176.712 155.041 L 176.853 154.713 L 177.08 154.512 L 177.378 154.441 L 177.64 154.486 L 177.836 154.602 L 177.968 154.794 L 178.023 155.046 L 178.023 155.046 z M 179.723 155.631 L 181.498 155.631 L 181.503 155.424 L 181.422 154.844 L 181.2 154.411 L 180.847 154.148 L 180.378 154.053 L 179.919 154.153 L 179.566 154.436 L 179.339 154.895 L 179.259 155.5 L 179.334 156.12 L 179.561 156.574 L 179.909 156.857 L 180.363 156.952 L 180.757 156.887 L 181.079 156.715 L 181.316 156.443 L 181.452 156.08 L 181.014 156.08 L 180.923 156.282 L 180.792 156.433 L 180.419 156.554 L 180.131 156.499 L 179.914 156.322 L 179.773 156.035 L 179.723 155.646 L 179.723 155.631 L 179.723 155.631 z M 179.723 155.258 L 179.778 154.91 L 179.914 154.653 L 180.121 154.496 L 180.393 154.441 L 180.661 154.496 L 180.867 154.653 L 180.994 154.91 L 181.039 155.258 L 179.723 155.258 L 179.723 155.258 z" stroke="none" fill-rule="evenodd" fill="rgb(0, 0, 0)"/></g><g stroke="rgb(0, 0, 0)" stroke-width="0.13" stroke-linecap="butt" stroke-linejoin="miter" fill="none"><path d="M 148.959 162.903 L 151.178 162.903 L 151.178 162.48 L 149.423 162.48 L 149.423 161.295 L 150.986 161.295 L 150.986 160.876 L 149.423 160.876 L 149.423 159.827 L 151.138 159.827 L 151.138 159.403 L 148.959 159.403 L 148.959 162.903 L 148.959 162.903 z M 153.735 161.093 L 154.174 161.093 L 154.083 160.689 L 153.866 160.372 L 153.528 160.175 L 153.089 160.099 L 152.605 160.2 L 152.237 160.483 L 152.005 160.942 L 151.924 161.557 L 152 162.167 L 152.227 162.621 L 152.585 162.903 L 153.074 162.999 L 153.508 162.924 L 153.846 162.712 L 154.078 162.379 L 154.179 161.935 L 153.755 161.935 L 153.679 162.218 L 153.538 162.429 L 153.336 162.561 L 153.089 162.601 L 152.782 162.535 L 152.56 162.334 L 152.424 162.006 L 152.378 161.542 L 152.424 161.088 L 152.565 160.76 L 152.792 160.558 L 153.089 160.488 L 153.352 160.533 L 153.548 160.649 L 153.679 160.841 L 153.735 161.093 L 153.735 161.093 z M 155.046 162.903 L 155.49 162.903 L 155.49 161.34 L 155.535 160.982 L 155.682 160.72 L 155.909 160.558 L 156.211 160.498 L 156.453 160.548 L 156.604 160.684 L 156.68 160.911 L 156.705 161.214 L 156.705 162.903 L 157.149 162.903 L 157.149 161.123 L 157.129 160.765 L 157.038 160.468 L 156.741 160.195 L 156.277 160.099 L 156.025 160.135 L 155.808 160.231 L 155.626 160.382 L 155.49 160.589 L 155.49 159.282 L 155.046 159.282 L 155.046 162.903 L 155.046 162.903 z M 158.47 161.678 L 160.246 161.678 L 160.251 161.471 L 160.17 160.891 L 159.948 160.457 L 159.595 160.195 L 159.126 160.099 L 158.667 160.2 L 158.314 160.483 L 158.087 160.942 L 158.007 161.547 L 158.082 162.167 L 158.309 162.621 L 158.657 162.903 L 159.111 162.999 L 159.504 162.934 L 159.827 162.762 L 160.064 162.49 L 160.2 162.127 L 159.762 162.127 L 159.671 162.329 L 159.54 162.48 L 159.166 162.601 L 158.879 162.545 L 158.662 162.369 L 158.521 162.081 L 158.47 161.693 L 158.47 161.678 L 158.47 161.678 z M 158.47 161.305 L 158.526 160.957 L 158.662 160.7 L 158.869 160.543 L 159.141 160.488 L 159.409 160.543 L 159.615 160.7 L 159.741 160.957 L 159.787 161.305 L 158.47 161.305 L 158.47 161.305 z M 162.001 159.656 L 162.001 162.53 L 161.088 162.53 L 161.088 162.903 L 163.352 162.903 L 163.352 162.53 L 162.445 162.53 L 162.445 159.282 L 161.305 159.282 L 161.305 159.656 L 162.001 159.656 L 162.001 159.656 z M 165.037 159.656 L 165.037 162.53 L 164.124 162.53 L 164.124 162.903 L 166.388 162.903 L 166.388 162.53 L 165.481 162.53 L 165.481 159.282 L 164.341 159.282 L 164.341 159.656 L 165.037 159.656 L 165.037 159.656 z M 167.579 161.678 L 169.354 161.678 L 169.359 161.471 L 169.278 160.891 L 169.056 160.457 L 168.703 160.195 L 168.234 160.099 L 167.775 160.2 L 167.422 160.483 L 167.195 160.942 L 167.115 161.547 L 167.19 162.167 L 167.417 162.621 L 167.765 162.903 L 168.219 162.999 L 168.612 162.934 L 168.935 162.762 L 169.172 162.49 L 169.308 162.127 L 168.87 162.127 L 168.779 162.329 L 168.648 162.48 L 168.275 162.601 L 167.987 162.545 L 167.77 162.369 L 167.629 162.081 L 167.579 161.693 L 167.579 161.678 L 167.579 161.678 z M 167.579 161.305 L 167.634 160.957 L 167.77 160.7 L 167.977 160.543 L 168.249 160.488 L 168.517 160.543 L 168.723 160.7 L 168.849 160.957 L 168.895 161.305 L 167.579 161.305 L 167.579 161.305 z M 173.958 162.903 L 174.654 162.903 L 174.654 162.152 L 173.958 162.152 L 173.958 162.903 L 173.958 162.903 z M 173.958 160.947 L 174.654 160.947 L 174.654 160.195 L 173.958 160.195 L 173.958 160.947 L 173.958 160.947 z" stroke="none" fill-rule="evenodd" fill="rgb(0, 0, 0)"/></g><g stroke="rgb(0, 0, 0)" stroke-width="0.13" stroke-linecap="butt" stroke-linejoin="miter" fill="none"><path d="M 183.323 162.903 L 183.782 162.903 L 183.782 159.378 L 183.439 159.378 L 183.349 159.686 L 183.167 159.893 L 182.89 160.014 L 182.506 160.054 L 182.506 160.412 L 183.323 160.412 L 183.323 162.903 L 183.323 162.903 z M 186.102 162.903 L 186.798 162.903 L 186.798 162.152 L 186.102 162.152 L 186.102 162.903 L 186.102 162.903 z M 186.102 160.947 L 186.798 160.947 L 186.798 160.195 L 186.102 160.195 L 186.102 160.947 L 186.102 160.947 z M 189.396 162.903 L 189.854 162.903 L 189.854 159.378 L 189.512 159.378 L 189.421 159.686 L 189.239 159.893 L 188.962 160.014 L 188.579 160.054 L 188.579 160.412 L 189.396 160.412 L 189.396 162.903 L 189.396 162.903 z" stroke="none" fill-rule="evenodd" fill="rgb(0, 0, 0)"/></g></svg>