<?xml version="1.0" encoding="utf-8" ?><!DOCTYPE svg PUBLIC "-//W3C//DTD SVG 1.1//EN" "http://www.w3.org/Graphics/SVG/1.1/DTD/svg11.dtd" 
[ <!ATTLIST svg 
  xmlns:dsy CDATA #FIXED "http://www.3ds.com/print"  
    dsy:text-version CDATA #IMPLIED > 

  <!ATTLIST text 
  xmlns:dsy CDATA #FIXED "http://www.3ds.com/print" 
    dsy:text-version CDATA #IMPLIED > 
]><svg xmlns="http://www.w3.org/2000/svg" xmlns:dsy="http://www.3ds.com/print" dsy:text-version="18000" width="841" height="594" viewBox="0 0 841 594" version="1.1"><g stroke="rgb(0, 0, 0)" stroke-width="0.35" stroke-linecap="butt" stroke-linejoin="miter" fill="none"><path d="M 562.363 83.3139 L 390.831 515.747"/><path d="M 368.477 515.643 L 213.182 107.801"/><path d="M 368.477 515.643 A 12 12 0 0 0 390.831 515.747"/><circle cx="529.674" cy="115.982" r="3.20001"/><circle cx="229.674" cy="115.982" r="3.20001"/><circle cx="379.674" cy="511.328" r="3.20001"/><circle cx="399.332" cy="263.025" r="3.20001"/><path d="M 304.256 101.414 L 463.604 90.2395"/><path d="M 469.589 89.8198 L 562.363 83.3139"/><path d="M 213.182 107.801 L 298.271 101.834"/><path d="M 298.271 101.834 L 299.32 116.797"/><path d="M 299.32 116.797 L 305.305 116.377"/><path d="M 305.305 116.377 L 304.256 101.414"/><path d="M 463.604 90.2395 L 464.653 105.203"/><path d="M 464.653 105.203 L 470.639 104.783"/><path d="M 470.639 104.783 L 469.589 89.8198"/><path d="M 348.292 170.032 L 348.818 169.859"/><path d="M 347.708 170.118 L 348.292 170.032"/><path d="M 347.247 170.32 L 347.708 170.118"/><path d="M 347.132 170.5 L 347.247 170.32"/><path d="M 347.103 170.752 L 347.132 170.5"/><path d="M 347.139 171.033 L 347.103 170.752"/><path d="M 347.261 171.235 L 347.139 171.033"/><path d="M 347.456 171.35 L 347.261 171.235"/><path d="M 347.73 171.386 L 347.456 171.35"/><path d="M 348.155 171.322 L 347.73 171.386"/><path d="M 348.501 171.134 L 348.155 171.322"/><path d="M 348.731 170.846 L 348.501 171.134"/><path d="M 348.818 170.471 L 348.731 170.846"/><path d="M 348.818 169.859 L 348.818 170.471"/><path d="M 355.943 171.012 L 355.748 170.536"/><path d="M 356.246 171.3 L 355.943 171.012"/><path d="M 356.649 171.394 L 356.246 171.3"/><path d="M 357.074 171.3 L 356.649 171.394"/><path d="M 357.391 171.012 L 357.074 171.3"/><path d="M 357.586 170.543 L 357.391 171.012"/><path d="M 357.658 169.888 L 357.586 170.543"/><path d="M 357.586 169.247 L 357.658 169.888"/><path d="M 357.391 168.771 L 357.586 169.247"/><path d="M 357.074 168.49 L 357.391 168.771"/><path d="M 356.649 168.389 L 357.074 168.49"/><path d="M 356.246 168.49 L 356.649 168.389"/><path d="M 355.943 168.771 L 356.246 168.49"/><path d="M 355.748 169.247 L 355.943 168.771"/><path d="M 355.684 169.888 L 355.748 169.247"/><path d="M 355.748 170.536 L 355.684 169.888"/><path d="M 366.31 169.045 L 366.375 169.542"/><path d="M 366.13 168.677 L 366.31 169.045"/><path d="M 365.835 168.454 L 366.13 168.677"/><path d="M 365.453 168.375 L 365.835 168.454"/><path d="M 365.064 168.454 L 365.453 168.375"/><path d="M 364.769 168.677 L 365.064 168.454"/><path d="M 364.574 169.045 L 364.769 168.677"/><path d="M 364.495 169.542 L 364.574 169.045"/><path d="M 366.375 169.542 L 364.495 169.542"/><path d="M 374.315 170.032 L 374.841 169.859"/><path d="M 373.731 170.118 L 374.315 170.032"/><path d="M 373.27 170.32 L 373.731 170.118"/><path d="M 373.155 170.5 L 373.27 170.32"/><path d="M 373.126 170.752 L 373.155 170.5"/><path d="M 373.162 171.033 L 373.126 170.752"/><path d="M 373.284 171.235 L 373.162 171.033"/><path d="M 373.479 171.35 L 373.284 171.235"/><path d="M 373.753 171.386 L 373.479 171.35"/><path d="M 374.178 171.322 L 373.753 171.386"/><path d="M 374.524 171.134 L 374.178 171.322"/><path d="M 374.754 170.846 L 374.524 171.134"/><path d="M 374.841 170.471 L 374.754 170.846"/><path d="M 374.841 169.859 L 374.841 170.471"/><path d="M 387.924 168.778 L 388.119 169.247"/><path d="M 387.614 168.49 L 387.924 168.778"/><path d="M 387.225 168.389 L 387.614 168.49"/><path d="M 386.8 168.49 L 387.225 168.389"/><path d="M 386.49 168.771 L 386.8 168.49"/><path d="M 386.296 169.239 L 386.49 168.771"/><path d="M 386.231 169.888 L 386.296 169.239"/><path d="M 386.296 170.543 L 386.231 169.888"/><path d="M 386.49 171.012 L 386.296 170.543"/><path d="M 386.8 171.3 L 386.49 171.012"/><path d="M 387.225 171.394 L 386.8 171.3"/><path d="M 387.614 171.3 L 387.225 171.394"/><path d="M 387.924 171.012 L 387.614 171.3"/><path d="M 388.119 170.536 L 387.924 171.012"/><path d="M 388.191 169.888 L 388.119 170.536"/><path d="M 388.119 169.247 L 388.191 169.888"/><path d="M 391.663 170.032 L 392.189 169.859"/><path d="M 391.08 170.118 L 391.663 170.032"/><path d="M 390.619 170.32 L 391.08 170.118"/><path d="M 390.503 170.5 L 390.619 170.32"/><path d="M 390.475 170.752 L 390.503 170.5"/><path d="M 390.511 171.033 L 390.475 170.752"/><path d="M 390.633 171.235 L 390.511 171.033"/><path d="M 390.828 171.35 L 390.633 171.235"/><path d="M 391.101 171.386 L 390.828 171.35"/><path d="M 391.526 171.322 L 391.101 171.386"/><path d="M 391.872 171.134 L 391.526 171.322"/><path d="M 392.103 170.846 L 391.872 171.134"/><path d="M 392.189 170.471 L 392.103 170.846"/><path d="M 392.189 169.859 L 392.189 170.471"/><path d="M 413.947 171.012 L 413.637 171.3"/><path d="M 414.142 170.536 L 413.947 171.012"/><path d="M 414.214 169.888 L 414.142 170.536"/><path d="M 414.142 169.247 L 414.214 169.888"/><path d="M 413.947 168.778 L 414.142 169.247"/><path d="M 413.637 168.49 L 413.947 168.778"/><path d="M 413.248 168.389 L 413.637 168.49"/><path d="M 412.823 168.49 L 413.248 168.389"/><path d="M 412.514 168.771 L 412.823 168.49"/><path d="M 412.319 169.239 L 412.514 168.771"/><path d="M 412.254 169.888 L 412.319 169.239"/><path d="M 412.319 170.543 L 412.254 169.888"/><path d="M 412.514 171.012 L 412.319 170.543"/><path d="M 412.823 171.3 L 412.514 171.012"/><path d="M 413.248 171.394 L 412.823 171.3"/><path d="M 413.637 171.3 L 413.248 171.394"/><path d="M 422.607 169.513 L 422.809 169.852"/><path d="M 422.297 169.304 L 422.607 169.513"/><path d="M 421.908 169.225 L 422.297 169.304"/><path d="M 421.462 169.304 L 421.908 169.225"/><path d="M 421.13 169.52 L 421.462 169.304"/><path d="M 420.929 169.859 L 421.13 169.52"/><path d="M 420.856 170.306 L 420.929 169.859"/><path d="M 420.921 170.76 L 420.856 170.306"/><path d="M 421.13 171.105 L 420.921 170.76"/><path d="M 421.454 171.329 L 421.13 171.105"/><path d="M 421.879 171.401 L 421.454 171.329"/><path d="M 422.283 171.329 L 421.879 171.401"/><path d="M 422.607 171.098 L 422.283 171.329"/><path d="M 422.809 170.752 L 422.607 171.098"/><path d="M 422.888 170.299 L 422.809 170.752"/><path d="M 422.809 169.852 L 422.888 170.299"/><path d="M 435.222 167.77 L 435.222 170.01"/><path d="M 433.63 170.01 L 435.222 167.77"/><path d="M 435.222 170.01 L 433.63 170.01"/><path d="M 425.655 171.826 L 426.649 171.826"/><path d="M 425.655 170.752 L 425.655 171.826"/><path d="M 426.649 171.826 L 426.649 170.752"/><path d="M 426.649 170.752 L 425.655 170.752"/><path d="M 338.155 171.826 L 338.789 171.826"/><path d="M 338.155 167.957 L 338.155 171.826"/><path d="M 338.789 171.826 L 338.789 169.614"/><path d="M 338.731 167.957 L 338.155 167.957"/><path d="M 338.789 169.614 L 338.854 169.081"/><path d="M 338.854 169.081 L 339.048 168.699"/><path d="M 339.048 168.699 L 339.365 168.469"/><path d="M 339.365 168.469 L 339.79 168.389"/><path d="M 339.79 168.389 L 340.107 168.44"/><path d="M 340.107 168.44 L 340.345 168.584"/><path d="M 340.345 168.584 L 340.489 168.829"/><path d="M 340.489 168.829 L 340.539 169.16"/><path d="M 340.539 169.16 L 341.181 169.16"/><path d="M 341.181 169.16 L 341.094 168.577"/><path d="M 341.094 168.577 L 340.856 168.159"/><path d="M 340.856 168.159 L 340.46 167.907"/><path d="M 340.46 167.907 L 339.92 167.82"/><path d="M 339.92 167.82 L 339.552 167.878"/><path d="M 339.552 167.878 L 339.235 168.022"/><path d="M 339.235 168.022 L 338.954 168.267"/><path d="M 338.954 168.267 L 338.731 168.598"/><path d="M 338.731 168.598 L 338.731 167.957"/><path d="M 334.74 171.826 L 335.403 171.826"/><path d="M 334.74 167.431 L 334.74 171.826"/><path d="M 335.403 171.826 L 335.403 167.431"/><path d="M 333.22 167.431 L 334.74 167.431"/><path d="M 335.403 167.431 L 336.916 167.431"/><path d="M 336.916 167.431 L 336.916 166.826"/><path d="M 336.916 166.826 L 333.22 166.826"/><path d="M 333.22 166.826 L 333.22 167.431"/><path d="M 344.192 171.293 L 344.192 168.087"/><path d="M 345.503 171.293 L 344.192 171.293"/><path d="M 344.192 168.087 L 342.564 168.087"/><path d="M 345.503 171.826 L 345.503 171.293"/><path d="M 342.564 168.087 L 342.564 168.627"/><path d="M 342.564 168.627 L 343.558 168.627"/><path d="M 343.558 168.627 L 343.558 171.293"/><path d="M 343.558 171.293 L 342.261 171.293"/><path d="M 342.261 171.293 L 342.261 171.826"/><path d="M 342.261 171.826 L 345.503 171.826"/><path d="M 344.214 166.653 L 343.544 166.653"/><path d="M 344.214 167.373 L 344.214 166.653"/><path d="M 343.544 166.653 L 343.544 167.373"/><path d="M 343.544 167.373 L 344.214 167.373"/><path d="M 428.731 171.826 L 432.168 171.826"/><path d="M 428.731 171.804 L 428.731 171.826"/><path d="M 432.168 171.826 L 432.168 171.206"/><path d="M 428.825 171.077 L 428.731 171.804"/><path d="M 432.168 171.206 L 429.452 171.206"/><path d="M 429.452 171.206 L 429.603 170.868"/><path d="M 429.603 170.868 L 429.862 170.587"/><path d="M 429.862 170.587 L 430.662 170.075"/><path d="M 430.662 170.075 L 431.087 169.859"/><path d="M 431.087 169.859 L 431.563 169.549"/><path d="M 431.563 169.549 L 431.901 169.189"/><path d="M 431.901 169.189 L 432.096 168.764"/><path d="M 432.096 168.764 L 432.168 168.281"/><path d="M 432.168 168.281 L 432.045 167.676"/><path d="M 432.045 167.676 L 431.707 167.201"/><path d="M 431.707 167.201 L 431.188 166.898"/><path d="M 431.188 166.898 L 430.518 166.79"/><path d="M 430.518 166.79 L 429.826 166.912"/><path d="M 429.826 166.912 L 429.3 167.251"/><path d="M 429.3 167.251 L 428.962 167.791"/><path d="M 428.962 167.791 L 428.846 168.505"/><path d="M 428.846 168.505 L 428.846 168.605"/><path d="M 428.846 168.605 L 429.502 168.605"/><path d="M 429.502 168.605 L 429.502 168.548"/><path d="M 429.502 168.548 L 429.567 168.058"/><path d="M 429.567 168.058 L 429.761 167.698"/><path d="M 429.761 167.698 L 430.071 167.467"/><path d="M 430.071 167.467 L 430.482 167.388"/><path d="M 430.482 167.388 L 430.9 167.46"/><path d="M 430.9 167.46 L 431.209 167.64"/><path d="M 431.209 167.64 L 431.411 167.921"/><path d="M 431.411 167.921 L 431.483 168.274"/><path d="M 431.483 168.274 L 431.433 168.605"/><path d="M 431.433 168.605 L 431.296 168.886"/><path d="M 431.296 168.886 L 431.065 169.131"/><path d="M 431.065 169.131 L 430.748 169.348"/><path d="M 430.748 169.348 L 430.323 169.578"/><path d="M 430.323 169.578 L 429.617 170.025"/><path d="M 429.617 170.025 L 429.12 170.5"/><path d="M 429.12 170.5 L 428.825 171.077"/><path d="M 350.929 171.826 L 351.563 171.826"/><path d="M 350.929 167.957 L 350.929 171.826"/><path d="M 351.563 171.826 L 351.563 169.592"/><path d="M 351.534 167.957 L 350.929 167.957"/><path d="M 351.563 169.592 L 351.627 169.081"/><path d="M 351.627 169.081 L 351.836 168.706"/><path d="M 351.836 168.706 L 352.16 168.476"/><path d="M 352.16 168.476 L 352.593 168.389"/><path d="M 352.593 168.389 L 352.939 168.461"/><path d="M 352.939 168.461 L 353.155 168.656"/><path d="M 353.155 168.656 L 353.263 168.98"/><path d="M 353.263 168.98 L 353.299 169.412"/><path d="M 353.299 169.412 L 353.299 171.826"/><path d="M 353.299 171.826 L 353.933 171.826"/><path d="M 353.933 171.826 L 353.933 169.283"/><path d="M 353.933 169.283 L 353.904 168.771"/><path d="M 353.904 168.771 L 353.774 168.346"/><path d="M 353.774 168.346 L 353.349 167.957"/><path d="M 353.349 167.957 L 352.686 167.82"/><path d="M 352.686 167.82 L 352.319 167.871"/><path d="M 352.319 167.871 L 352.009 168.007"/><path d="M 352.009 168.007 L 351.743 168.238"/><path d="M 351.743 168.238 L 351.534 168.548"/><path d="M 351.534 168.548 L 351.534 167.957"/><path d="M 423.544 168.173 L 423.407 167.59"/><path d="M 422.881 168.173 L 423.544 168.173"/><path d="M 423.407 167.59 L 423.09 167.157"/><path d="M 422.787 167.835 L 422.881 168.173"/><path d="M 423.09 167.157 L 422.6 166.884"/><path d="M 422.6 166.884 L 421.966 166.79"/><path d="M 421.966 166.79 L 421.541 166.84"/><path d="M 421.541 166.84 L 421.173 166.977"/><path d="M 421.173 166.977 L 420.849 167.201"/><path d="M 420.849 167.201 L 420.576 167.518"/><path d="M 420.576 167.518 L 420.359 167.914"/><path d="M 420.359 167.914 L 420.201 168.396"/><path d="M 420.201 168.396 L 420.1 168.966"/><path d="M 420.1 168.966 L 420.071 169.607"/><path d="M 420.071 169.607 L 420.186 170.63"/><path d="M 420.186 170.63 L 420.539 171.372"/><path d="M 420.539 171.372 L 421.109 171.819"/><path d="M 421.109 171.819 L 421.887 171.97"/><path d="M 421.887 171.97 L 422.586 171.84"/><path d="M 422.586 171.84 L 423.119 171.502"/><path d="M 423.119 171.502 L 423.465 170.969"/><path d="M 423.465 170.969 L 423.587 170.291"/><path d="M 423.587 170.291 L 423.465 169.607"/><path d="M 423.465 169.607 L 423.133 169.081"/><path d="M 423.133 169.081 L 422.622 168.75"/><path d="M 422.622 168.75 L 421.988 168.634"/><path d="M 421.988 168.634 L 421.303 168.778"/><path d="M 421.303 168.778 L 420.792 169.189"/><path d="M 420.792 169.189 L 420.9 168.396"/><path d="M 420.9 168.396 L 421.13 167.827"/><path d="M 421.13 167.827 L 421.483 167.489"/><path d="M 421.483 167.489 L 421.973 167.373"/><path d="M 421.973 167.373 L 422.333 167.431"/><path d="M 422.333 167.431 L 422.607 167.582"/><path d="M 422.607 167.582 L 422.787 167.835"/><path d="M 360.864 167.186 L 360.864 171.293"/><path d="M 359.869 167.186 L 360.864 167.186"/><path d="M 360.864 171.293 L 359.56 171.293"/><path d="M 359.869 166.653 L 359.869 167.186"/><path d="M 359.56 171.293 L 359.56 171.826"/><path d="M 359.56 171.826 L 362.794 171.826"/><path d="M 362.794 171.826 L 362.794 171.293"/><path d="M 362.794 171.293 L 361.498 171.293"/><path d="M 361.498 171.293 L 361.498 166.653"/><path d="M 361.498 166.653 L 359.869 166.653"/><path d="M 358.277 171.653 L 358.277 167.957"/><path d="M 358.191 172.381 L 358.277 171.653"/><path d="M 358.277 167.957 L 357.672 167.957"/><path d="M 357.91 172.907 L 358.191 172.381"/><path d="M 357.672 167.957 L 357.672 168.584"/><path d="M 357.672 168.584 L 357.175 168.015"/><path d="M 357.175 168.015 L 356.872 167.871"/><path d="M 356.872 167.871 L 356.534 167.82"/><path d="M 356.534 167.82 L 355.921 167.964"/><path d="M 355.921 167.964 L 355.446 168.368"/><path d="M 355.446 168.368 L 355.136 169.016"/><path d="M 355.136 169.016 L 355.028 169.888"/><path d="M 355.028 169.888 L 355.136 170.767"/><path d="M 355.136 170.767 L 355.446 171.415"/><path d="M 355.446 171.415 L 355.921 171.826"/><path d="M 355.921 171.826 L 356.534 171.963"/><path d="M 356.534 171.963 L 356.88 171.912"/><path d="M 356.88 171.912 L 357.168 171.783"/><path d="M 357.168 171.783 L 357.672 171.235"/><path d="M 357.672 171.235 L 357.672 171.783"/><path d="M 357.672 171.783 L 357.614 172.215"/><path d="M 357.614 172.215 L 357.456 172.525"/><path d="M 357.456 172.525 L 357.153 172.705"/><path d="M 357.153 172.705 L 356.699 172.77"/><path d="M 356.699 172.77 L 356.303 172.726"/><path d="M 356.303 172.726 L 356.022 172.618"/><path d="M 356.022 172.618 L 355.856 172.431"/><path d="M 355.856 172.431 L 355.806 172.179"/><path d="M 355.806 172.179 L 355.194 172.179"/><path d="M 355.194 172.179 L 355.194 172.208"/><path d="M 355.194 172.208 L 355.287 172.669"/><path d="M 355.287 172.669 L 355.576 173.015"/><path d="M 355.576 173.015 L 356.037 173.238"/><path d="M 356.037 173.238 L 356.663 173.317"/><path d="M 356.663 173.317 L 357.413 173.209"/><path d="M 357.413 173.209 L 357.91 172.907"/><path d="M 348.89 171.322 L 348.89 171.343"/><path d="M 348.292 171.79 L 348.89 171.322"/><path d="M 348.89 171.343 L 348.926 171.588"/><path d="M 347.622 171.941 L 348.292 171.79"/><path d="M 348.926 171.588 L 349.034 171.761"/><path d="M 349.034 171.761 L 349.488 171.898"/><path d="M 349.488 171.898 L 349.841 171.84"/><path d="M 349.841 171.84 L 349.841 171.35"/><path d="M 349.841 171.35 L 349.689 171.372"/><path d="M 349.689 171.372 L 349.488 171.278"/><path d="M 349.488 171.278 L 349.452 170.99"/><path d="M 349.452 170.99 L 349.452 168.987"/><path d="M 349.452 168.987 L 349.365 168.476"/><path d="M 349.365 168.476 L 349.113 168.116"/><path d="M 349.113 168.116 L 348.673 167.899"/><path d="M 348.673 167.899 L 348.054 167.82"/><path d="M 348.054 167.82 L 347.449 167.907"/><path d="M 347.449 167.907 L 347.002 168.152"/><path d="M 347.002 168.152 L 346.721 168.533"/><path d="M 346.721 168.533 L 346.627 169.038"/><path d="M 346.627 169.038 L 346.627 169.081"/><path d="M 346.627 169.081 L 347.197 169.081"/><path d="M 347.197 169.081 L 347.247 168.778"/><path d="M 347.247 168.778 L 347.405 168.562"/><path d="M 347.405 168.562 L 347.665 168.433"/><path d="M 347.665 168.433 L 348.032 168.382"/><path d="M 348.032 168.382 L 348.385 168.418"/><path d="M 348.385 168.418 L 348.637 168.526"/><path d="M 348.637 168.526 L 348.789 168.714"/><path d="M 348.789 168.714 L 348.839 168.973"/><path d="M 348.839 168.973 L 348.81 169.275"/><path d="M 348.81 169.275 L 348.695 169.427"/><path d="M 348.695 169.427 L 348.407 169.499"/><path d="M 348.407 169.499 L 347.867 169.556"/><path d="M 347.867 169.556 L 347.247 169.686"/><path d="M 347.247 169.686 L 346.807 169.917"/><path d="M 346.807 169.917 L 346.548 170.277"/><path d="M 346.548 170.277 L 346.469 170.81"/><path d="M 346.469 170.81 L 346.541 171.286"/><path d="M 346.541 171.286 L 346.764 171.639"/><path d="M 346.764 171.639 L 347.124 171.862"/><path d="M 347.124 171.862 L 347.622 171.941"/><path d="M 367.6 173.022 L 367.6 173.526"/><path d="M 371.937 173.022 L 367.6 173.022"/><path d="M 367.6 173.526 L 371.937 173.526"/><path d="M 371.937 173.526 L 371.937 173.022"/><path d="M 415.309 173.022 L 415.309 173.526"/><path d="M 419.646 173.022 L 415.309 173.022"/><path d="M 415.309 173.526 L 419.646 173.526"/><path d="M 419.646 173.526 L 419.646 173.022"/><path d="M 412.247 168.555 L 412.247 167.957"/><path d="M 412.463 168.231 L 412.247 168.555"/><path d="M 412.247 167.957 L 411.613 167.957"/><path d="M 412.715 168 L 412.463 168.231"/><path d="M 411.613 167.957 L 411.613 173.324"/><path d="M 411.613 173.324 L 412.247 173.324"/><path d="M 412.247 173.324 L 412.247 171.235"/><path d="M 412.247 171.235 L 412.47 171.574"/><path d="M 412.47 171.574 L 412.722 171.797"/><path d="M 412.722 171.797 L 413.356 171.963"/><path d="M 413.356 171.963 L 413.962 171.826"/><path d="M 413.962 171.826 L 414.437 171.415"/><path d="M 414.437 171.415 L 414.747 170.767"/><path d="M 414.747 170.767 L 414.862 169.888"/><path d="M 414.862 169.888 L 414.747 169.016"/><path d="M 414.747 169.016 L 414.437 168.368"/><path d="M 414.437 168.368 L 413.962 167.964"/><path d="M 413.962 167.964 L 413.356 167.82"/><path d="M 413.356 167.82 L 413.011 167.863"/><path d="M 413.011 167.863 L 412.715 168"/><path d="M 410.294 167.957 L 409.661 167.957"/><path d="M 410.294 171.826 L 410.294 167.957"/><path d="M 409.661 167.957 L 409.661 170.19"/><path d="M 409.689 171.826 L 410.294 171.826"/><path d="M 409.661 170.19 L 409.588 170.709"/><path d="M 409.588 170.709 L 409.38 171.084"/><path d="M 409.38 171.084 L 409.055 171.314"/><path d="M 409.055 171.314 L 408.63 171.386"/><path d="M 408.63 171.386 L 408.292 171.329"/><path d="M 408.292 171.329 L 408.076 171.156"/><path d="M 408.076 171.156 L 407.953 170.86"/><path d="M 407.953 170.86 L 407.924 170.443"/><path d="M 407.924 170.443 L 407.924 167.957"/><path d="M 407.924 167.957 L 407.29 167.957"/><path d="M 407.29 167.957 L 407.29 170.5"/><path d="M 407.29 170.5 L 407.312 171.012"/><path d="M 407.312 171.012 L 407.449 171.437"/><path d="M 407.449 171.437 L 407.867 171.826"/><path d="M 407.867 171.826 L 408.537 171.963"/><path d="M 408.537 171.963 L 408.897 171.912"/><path d="M 408.897 171.912 L 409.207 171.783"/><path d="M 409.207 171.783 L 409.473 171.559"/><path d="M 409.473 171.559 L 409.689 171.235"/><path d="M 409.689 171.235 L 409.689 171.826"/><path d="M 378.112 171.826 L 378.782 171.826"/><path d="M 376.678 167.957 L 378.112 171.826"/><path d="M 378.782 171.826 L 380.194 167.957"/><path d="M 377.341 167.957 L 376.678 167.957"/><path d="M 380.194 167.957 L 379.538 167.957"/><path d="M 379.538 167.957 L 378.45 171.077"/><path d="M 378.45 171.077 L 377.341 167.957"/><path d="M 364.495 170.075 L 367.031 170.075"/><path d="M 364.495 170.097 L 364.495 170.075"/><path d="M 367.031 170.075 L 367.038 169.78"/><path d="M 364.567 170.652 L 364.495 170.097"/><path d="M 367.038 169.78 L 366.923 168.951"/><path d="M 366.923 168.951 L 366.606 168.332"/><path d="M 366.606 168.332 L 366.101 167.957"/><path d="M 366.101 167.957 L 365.431 167.82"/><path d="M 365.431 167.82 L 364.776 167.964"/><path d="M 364.776 167.964 L 364.271 168.368"/><path d="M 364.271 168.368 L 363.947 169.023"/><path d="M 363.947 169.023 L 363.832 169.888"/><path d="M 363.832 169.888 L 363.94 170.774"/><path d="M 363.94 170.774 L 364.264 171.422"/><path d="M 364.264 171.422 L 364.761 171.826"/><path d="M 364.761 171.826 L 365.41 171.963"/><path d="M 365.41 171.963 L 365.972 171.869"/><path d="M 365.972 171.869 L 366.433 171.624"/><path d="M 366.433 171.624 L 366.771 171.235"/><path d="M 366.771 171.235 L 366.966 170.716"/><path d="M 366.966 170.716 L 366.339 170.716"/><path d="M 366.339 170.716 L 366.209 171.005"/><path d="M 366.209 171.005 L 366.022 171.221"/><path d="M 366.022 171.221 L 365.489 171.394"/><path d="M 365.489 171.394 L 365.078 171.314"/><path d="M 365.078 171.314 L 364.769 171.062"/><path d="M 364.769 171.062 L 364.567 170.652"/><path d="M 374.913 171.322 L 374.913 171.343"/><path d="M 374.315 171.79 L 374.913 171.322"/><path d="M 374.913 171.343 L 374.949 171.588"/><path d="M 373.645 171.941 L 374.315 171.79"/><path d="M 374.949 171.588 L 375.057 171.761"/><path d="M 375.057 171.761 L 375.511 171.898"/><path d="M 375.511 171.898 L 375.864 171.84"/><path d="M 375.864 171.84 L 375.864 171.35"/><path d="M 375.864 171.35 L 375.712 171.372"/><path d="M 375.712 171.372 L 375.511 171.278"/><path d="M 375.511 171.278 L 375.475 170.99"/><path d="M 375.475 170.99 L 375.475 168.987"/><path d="M 375.475 168.987 L 375.388 168.476"/><path d="M 375.388 168.476 L 375.136 168.116"/><path d="M 375.136 168.116 L 374.697 167.899"/><path d="M 374.697 167.899 L 374.077 167.82"/><path d="M 374.077 167.82 L 373.472 167.907"/><path d="M 373.472 167.907 L 373.025 168.152"/><path d="M 373.025 168.152 L 372.744 168.533"/><path d="M 372.744 168.533 L 372.65 169.038"/><path d="M 372.65 169.038 L 372.65 169.081"/><path d="M 372.65 169.081 L 373.22 169.081"/><path d="M 373.22 169.081 L 373.27 168.778"/><path d="M 373.27 168.778 L 373.429 168.562"/><path d="M 373.429 168.562 L 373.688 168.433"/><path d="M 373.688 168.433 L 374.055 168.382"/><path d="M 374.055 168.382 L 374.408 168.418"/><path d="M 374.408 168.418 L 374.661 168.526"/><path d="M 374.661 168.526 L 374.812 168.714"/><path d="M 374.812 168.714 L 374.862 168.973"/><path d="M 374.862 168.973 L 374.833 169.275"/><path d="M 374.833 169.275 L 374.718 169.427"/><path d="M 374.718 169.427 L 374.43 169.499"/><path d="M 374.43 169.499 L 373.89 169.556"/><path d="M 373.89 169.556 L 373.27 169.686"/><path d="M 373.27 169.686 L 372.831 169.917"/><path d="M 372.831 169.917 L 372.571 170.277"/><path d="M 372.571 170.277 L 372.492 170.81"/><path d="M 372.492 170.81 L 372.564 171.286"/><path d="M 372.564 171.286 L 372.787 171.639"/><path d="M 372.787 171.639 L 373.148 171.862"/><path d="M 373.148 171.862 L 373.645 171.941"/><path d="M 380.612 173.022 L 380.612 173.526"/><path d="M 384.949 173.022 L 380.612 173.022"/><path d="M 380.612 173.526 L 384.949 173.526"/><path d="M 384.949 173.526 L 384.949 173.022"/><path d="M 396.195 169.571 L 395.583 169.427"/><path d="M 396.685 169.722 L 396.195 169.571"/><path d="M 395.583 169.427 L 395.129 169.261"/><path d="M 397.052 169.924 L 396.685 169.722"/><path d="M 395.129 169.261 L 394.978 168.922"/><path d="M 394.978 168.922 L 395.021 168.685"/><path d="M 395.021 168.685 L 395.172 168.512"/><path d="M 395.172 168.512 L 395.417 168.404"/><path d="M 395.417 168.404 L 395.77 168.36"/><path d="M 395.77 168.36 L 396.109 168.404"/><path d="M 396.109 168.404 L 396.375 168.533"/><path d="M 396.375 168.533 L 396.548 168.728"/><path d="M 396.548 168.728 L 396.62 168.987"/><path d="M 396.62 168.987 L 397.24 168.987"/><path d="M 397.24 168.987 L 397.24 168.973"/><path d="M 397.24 168.973 L 397.132 168.505"/><path d="M 397.132 168.505 L 396.836 168.137"/><path d="M 396.836 168.137 L 396.375 167.907"/><path d="M 396.375 167.907 L 395.77 167.82"/><path d="M 395.77 167.82 L 395.158 167.907"/><path d="M 395.158 167.907 L 394.711 168.144"/><path d="M 394.711 168.144 L 394.43 168.497"/><path d="M 394.43 168.497 L 394.344 168.944"/><path d="M 394.344 168.944 L 394.408 169.376"/><path d="M 394.408 169.376 L 394.61 169.679"/><path d="M 394.61 169.679 L 394.941 169.895"/><path d="M 394.941 169.895 L 395.424 170.046"/><path d="M 395.424 170.046 L 396.13 170.219"/><path d="M 396.13 170.219 L 396.563 170.399"/><path d="M 396.563 170.399 L 396.678 170.543"/><path d="M 396.678 170.543 L 396.721 170.76"/><path d="M 396.721 170.76 L 396.656 171.026"/><path d="M 396.656 171.026 L 396.483 171.228"/><path d="M 396.483 171.228 L 396.202 171.358"/><path d="M 396.202 171.358 L 395.828 171.401"/><path d="M 395.828 171.401 L 395.431 171.358"/><path d="M 395.431 171.358 L 395.143 171.206"/><path d="M 395.143 171.206 L 394.949 170.961"/><path d="M 394.949 170.961 L 394.869 170.623"/><path d="M 394.869 170.623 L 394.257 170.623"/><path d="M 394.257 170.623 L 394.358 171.199"/><path d="M 394.358 171.199 L 394.653 171.617"/><path d="M 394.653 171.617 L 395.122 171.869"/><path d="M 395.122 171.869 L 395.77 171.963"/><path d="M 395.77 171.963 L 396.447 171.869"/><path d="M 396.447 171.869 L 396.944 171.617"/><path d="M 396.944 171.617 L 397.247 171.214"/><path d="M 397.247 171.214 L 397.355 170.688"/><path d="M 397.355 170.688 L 397.276 170.234"/><path d="M 397.276 170.234 L 397.052 169.924"/><path d="M 435.222 171.826 L 435.871 171.826"/><path d="M 435.222 170.587 L 435.222 171.826"/><path d="M 435.871 171.826 L 435.871 170.587"/><path d="M 433.025 170.587 L 435.222 170.587"/><path d="M 435.871 170.587 L 436.584 170.587"/><path d="M 436.584 170.587 L 436.584 170.01"/><path d="M 436.584 170.01 L 435.871 170.01"/><path d="M 435.871 170.01 L 435.871 166.934"/><path d="M 435.871 166.934 L 435.215 166.934"/><path d="M 435.215 166.934 L 433.025 169.953"/><path d="M 433.025 169.953 L 433.025 170.587"/><path d="M 404.869 169.571 L 404.257 169.427"/><path d="M 405.359 169.722 L 404.869 169.571"/><path d="M 404.257 169.427 L 403.803 169.261"/><path d="M 405.727 169.924 L 405.359 169.722"/><path d="M 403.803 169.261 L 403.652 168.922"/><path d="M 403.652 168.922 L 403.695 168.685"/><path d="M 403.695 168.685 L 403.846 168.512"/><path d="M 403.846 168.512 L 404.091 168.404"/><path d="M 404.091 168.404 L 404.444 168.36"/><path d="M 404.444 168.36 L 404.783 168.404"/><path d="M 404.783 168.404 L 405.05 168.533"/><path d="M 405.05 168.533 L 405.222 168.728"/><path d="M 405.222 168.728 L 405.294 168.987"/><path d="M 405.294 168.987 L 405.914 168.987"/><path d="M 405.914 168.987 L 405.914 168.973"/><path d="M 405.914 168.973 L 405.806 168.505"/><path d="M 405.806 168.505 L 405.511 168.137"/><path d="M 405.511 168.137 L 405.05 167.907"/><path d="M 405.05 167.907 L 404.444 167.82"/><path d="M 404.444 167.82 L 403.832 167.907"/><path d="M 403.832 167.907 L 403.385 168.144"/><path d="M 403.385 168.144 L 403.104 168.497"/><path d="M 403.104 168.497 L 403.018 168.944"/><path d="M 403.018 168.944 L 403.083 169.376"/><path d="M 403.083 169.376 L 403.284 169.679"/><path d="M 403.284 169.679 L 403.616 169.895"/><path d="M 403.616 169.895 L 404.099 170.046"/><path d="M 404.099 170.046 L 404.805 170.219"/><path d="M 404.805 170.219 L 405.237 170.399"/><path d="M 405.237 170.399 L 405.352 170.543"/><path d="M 405.352 170.543 L 405.395 170.76"/><path d="M 405.395 170.76 L 405.331 171.026"/><path d="M 405.331 171.026 L 405.158 171.228"/><path d="M 405.158 171.228 L 404.877 171.358"/><path d="M 404.877 171.358 L 404.502 171.401"/><path d="M 404.502 171.401 L 404.106 171.358"/><path d="M 404.106 171.358 L 403.818 171.206"/><path d="M 403.818 171.206 L 403.623 170.961"/><path d="M 403.623 170.961 L 403.544 170.623"/><path d="M 403.544 170.623 L 402.931 170.623"/><path d="M 402.931 170.623 L 403.032 171.199"/><path d="M 403.032 171.199 L 403.328 171.617"/><path d="M 403.328 171.617 L 403.796 171.869"/><path d="M 403.796 171.869 L 404.444 171.963"/><path d="M 404.444 171.963 L 405.122 171.869"/><path d="M 405.122 171.869 L 405.619 171.617"/><path d="M 405.619 171.617 L 405.921 171.214"/><path d="M 405.921 171.214 L 406.029 170.688"/><path d="M 406.029 170.688 L 405.95 170.234"/><path d="M 405.95 170.234 L 405.727 169.924"/><path d="M 386.224 171.228 L 386.692 171.783"/><path d="M 386.224 171.826 L 386.224 171.228"/><path d="M 386.692 171.783 L 387.333 171.963"/><path d="M 385.59 171.826 L 386.224 171.826"/><path d="M 387.333 171.963 L 387.939 171.826"/><path d="M 387.939 171.826 L 388.421 171.415"/><path d="M 388.421 171.415 L 388.724 170.76"/><path d="M 388.724 170.76 L 388.839 169.888"/><path d="M 388.839 169.888 L 388.724 169.016"/><path d="M 388.724 169.016 L 388.414 168.368"/><path d="M 388.414 168.368 L 387.939 167.964"/><path d="M 387.939 167.964 L 387.333 167.82"/><path d="M 387.333 167.82 L 386.699 168.007"/><path d="M 386.699 168.007 L 386.44 168.238"/><path d="M 386.44 168.238 L 386.224 168.548"/><path d="M 386.224 168.548 L 386.224 166.653"/><path d="M 386.224 166.653 L 385.59 166.653"/><path d="M 385.59 166.653 L 385.59 171.826"/><path d="M 397.96 173.022 L 397.96 173.526"/><path d="M 402.297 173.022 L 397.96 173.022"/><path d="M 397.96 173.526 L 402.297 173.526"/><path d="M 402.297 173.526 L 402.297 173.022"/><path d="M 392.261 171.322 L 392.261 171.343"/><path d="M 391.663 171.79 L 392.261 171.322"/><path d="M 392.261 171.343 L 392.297 171.588"/><path d="M 390.993 171.941 L 391.663 171.79"/><path d="M 392.297 171.588 L 392.405 171.761"/><path d="M 392.405 171.761 L 392.859 171.898"/><path d="M 392.859 171.898 L 393.212 171.84"/><path d="M 393.212 171.84 L 393.212 171.35"/><path d="M 393.212 171.35 L 393.061 171.372"/><path d="M 393.061 171.372 L 392.859 171.278"/><path d="M 392.859 171.278 L 392.823 170.99"/><path d="M 392.823 170.99 L 392.823 168.987"/><path d="M 392.823 168.987 L 392.737 168.476"/><path d="M 392.737 168.476 L 392.485 168.116"/><path d="M 392.485 168.116 L 392.045 167.899"/><path d="M 392.045 167.899 L 391.426 167.82"/><path d="M 391.426 167.82 L 390.82 167.907"/><path d="M 390.82 167.907 L 390.374 168.152"/><path d="M 390.374 168.152 L 390.093 168.533"/><path d="M 390.093 168.533 L 389.999 169.038"/><path d="M 389.999 169.038 L 389.999 169.081"/><path d="M 389.999 169.081 L 390.568 169.081"/><path d="M 390.568 169.081 L 390.619 168.778"/><path d="M 390.619 168.778 L 390.777 168.562"/><path d="M 390.777 168.562 L 391.037 168.433"/><path d="M 391.037 168.433 L 391.404 168.382"/><path d="M 391.404 168.382 L 391.757 168.418"/><path d="M 391.757 168.418 L 392.009 168.526"/><path d="M 392.009 168.526 L 392.161 168.714"/><path d="M 392.161 168.714 L 392.211 168.973"/><path d="M 392.211 168.973 L 392.182 169.275"/><path d="M 392.182 169.275 L 392.067 169.427"/><path d="M 392.067 169.427 L 391.779 169.499"/><path d="M 391.779 169.499 L 391.238 169.556"/><path d="M 391.238 169.556 L 390.619 169.686"/><path d="M 390.619 169.686 L 390.179 169.917"/><path d="M 390.179 169.917 L 389.92 170.277"/><path d="M 389.92 170.277 L 389.841 170.81"/><path d="M 389.841 170.81 L 389.913 171.286"/><path d="M 389.913 171.286 L 390.136 171.639"/><path d="M 390.136 171.639 L 390.496 171.862"/><path d="M 390.496 171.862 L 390.993 171.941"/><path d="M 270.516 114.322 L 270.103 108.436"/><path d="M 264.63 114.734 L 270.516 114.322"/><path d="M 264.218 108.849 L 264.63 114.734"/><path d="M 264.218 108.849 L 270.103 108.436"/><path d="M 272.048 136.168 L 271.635 130.282"/><path d="M 266.162 136.581 L 272.048 136.168"/><path d="M 265.75 130.695 L 266.162 136.581"/><path d="M 265.75 130.695 L 271.635 130.282"/></g><g stroke="rgb(0, 0, 0)" stroke-width="0.13" stroke-linecap="butt" stroke-linejoin="miter" fill="none"><path d="M 390.168 531.679 L 389.29 534.66 L 388.388 531.679 L 387.908 531.679 L 389.038 535.184 L 389.542 535.184 L 390.647 531.679 L 390.168 531.679 L 390.168 531.679 z M 393.37 532.476 L 392.926 532.476 L 392.926 534.04 L 392.876 534.403 L 392.73 534.665 L 392.503 534.826 L 392.205 534.877 L 391.968 534.836 L 391.817 534.715 L 391.731 534.509 L 391.711 534.216 L 391.711 532.476 L 391.267 532.476 L 391.267 534.256 L 391.282 534.614 L 391.378 534.912 L 391.671 535.184 L 392.14 535.28 L 392.392 535.245 L 392.609 535.154 L 392.795 534.998 L 392.947 534.771 L 392.947 535.184 L 393.37 535.184 L 393.37 532.476 L 393.37 532.476 z M 394.707 533.959 L 396.482 533.959 L 396.487 533.752 L 396.406 533.172 L 396.184 532.738 L 395.831 532.476 L 395.362 532.38 L 394.903 532.481 L 394.55 532.764 L 394.323 533.223 L 394.243 533.828 L 394.318 534.448 L 394.545 534.902 L 394.893 535.184 L 395.347 535.28 L 395.741 535.215 L 396.063 535.043 L 396.3 534.771 L 396.437 534.408 L 395.998 534.408 L 395.907 534.609 L 395.776 534.761 L 395.403 534.882 L 395.115 534.826 L 394.898 534.65 L 394.757 534.362 L 394.707 533.974 L 394.707 533.959 L 394.707 533.959 z M 394.707 533.586 L 394.762 533.238 L 394.898 532.98 L 395.105 532.824 L 395.378 532.769 L 395.645 532.824 L 395.852 532.98 L 395.978 533.238 L 396.023 533.586 L 394.707 533.586 L 394.707 533.586 z M 402.055 534.766 L 402.055 535.184 L 402.499 535.184 L 402.499 531.563 L 402.06 531.563 L 402.06 532.89 L 401.722 532.506 L 401.515 532.416 L 401.278 532.38 L 400.849 532.481 L 400.517 532.764 L 400.3 533.218 L 400.224 533.828 L 400.3 534.438 L 400.517 534.897 L 400.849 535.184 L 401.278 535.28 L 401.515 535.245 L 401.727 535.154 L 402.055 534.766 L 402.055 534.766 z M 401.354 532.779 L 401.646 532.849 L 401.868 533.046 L 401.999 533.374 L 402.05 533.828 L 401.999 534.287 L 401.868 534.614 L 401.646 534.816 L 401.354 534.882 L 401.076 534.816 L 400.865 534.614 L 400.723 534.282 L 400.678 533.828 L 400.723 533.379 L 400.865 533.051 L 401.076 532.849 L 401.354 532.779 L 401.354 532.779 z M 403.815 533.959 L 405.59 533.959 L 405.595 533.752 L 405.514 533.172 L 405.293 532.738 L 404.94 532.476 L 404.47 532.38 L 404.012 532.481 L 403.659 532.764 L 403.432 533.223 L 403.351 533.828 L 403.427 534.448 L 403.654 534.902 L 404.001 535.184 L 404.455 535.28 L 404.849 535.215 L 405.172 535.043 L 405.409 534.771 L 405.545 534.408 L 405.106 534.408 L 405.015 534.609 L 404.884 534.761 L 404.511 534.882 L 404.223 534.826 L 404.007 534.65 L 403.865 534.362 L 403.815 533.974 L 403.815 533.959 L 403.815 533.959 z M 403.815 533.586 L 403.87 533.238 L 404.007 532.98 L 404.213 532.824 L 404.486 532.769 L 404.753 532.824 L 404.96 532.98 L 405.086 533.238 L 405.131 533.586 L 403.815 533.586 L 403.815 533.586 z M 410.114 532.945 L 410.114 535.184 L 410.558 535.184 L 410.558 532.945 L 411.566 532.945 L 411.566 532.567 L 410.558 532.567 L 410.558 532.401 L 410.593 532.199 L 410.709 532.063 L 410.906 531.982 L 411.188 531.952 L 411.566 531.972 L 411.566 531.589 L 411.087 531.563 L 410.654 531.609 L 410.351 531.745 L 410.169 531.982 L 410.114 532.32 L 410.114 532.567 L 409.302 532.567 L 409.302 532.945 L 410.114 532.945 L 410.114 532.945 z M 414.143 534.831 L 414.143 534.846 L 414.169 535.018 L 414.244 535.139 L 414.562 535.235 L 414.809 535.194 L 414.809 534.852 L 414.703 534.867 L 414.562 534.801 L 414.537 534.599 L 414.537 533.197 L 414.476 532.839 L 414.3 532.587 L 413.992 532.436 L 413.558 532.38 L 413.135 532.441 L 412.822 532.612 L 412.625 532.88 L 412.56 533.233 L 412.56 533.263 L 412.958 533.263 L 412.994 533.051 L 413.105 532.9 L 413.286 532.809 L 413.543 532.774 L 413.79 532.799 L 413.967 532.875 L 414.073 533.006 L 414.108 533.187 L 414.088 533.399 L 414.007 533.505 L 413.806 533.555 L 413.427 533.596 L 412.994 533.687 L 412.686 533.848 L 412.504 534.1 L 412.449 534.473 L 412.499 534.806 L 412.656 535.053 L 412.908 535.21 L 413.256 535.265 L 413.725 535.159 L 414.143 534.831 L 414.143 534.831 z M 414.093 534.236 L 414.033 534.498 L 413.871 534.7 L 413.629 534.831 L 413.332 534.877 L 413.14 534.852 L 413.004 534.771 L 412.918 534.63 L 412.893 534.433 L 412.913 534.256 L 412.994 534.13 L 413.316 533.989 L 413.725 533.929 L 414.093 533.808 L 414.093 534.236 L 414.093 534.236 z M 417.296 533.374 L 417.734 533.374 L 417.643 532.97 L 417.427 532.653 L 417.089 532.456 L 416.65 532.38 L 416.166 532.481 L 415.798 532.764 L 415.566 533.223 L 415.485 533.838 L 415.561 534.448 L 415.788 534.902 L 416.146 535.184 L 416.635 535.28 L 417.069 535.205 L 417.406 534.993 L 417.638 534.66 L 417.739 534.216 L 417.316 534.216 L 417.24 534.498 L 417.099 534.71 L 416.897 534.841 L 416.65 534.882 L 416.342 534.816 L 416.12 534.614 L 415.984 534.287 L 415.939 533.823 L 415.984 533.369 L 416.125 533.041 L 416.352 532.839 L 416.65 532.769 L 416.912 532.814 L 417.109 532.93 L 417.24 533.122 L 417.296 533.374 L 417.296 533.374 z M 418.995 533.959 L 420.77 533.959 L 420.775 533.752 L 420.695 533.172 L 420.473 532.738 L 420.12 532.476 L 419.651 532.38 L 419.192 532.481 L 418.839 532.764 L 418.612 533.223 L 418.531 533.828 L 418.607 534.448 L 418.834 534.902 L 419.182 535.184 L 419.636 535.28 L 420.029 535.215 L 420.352 535.043 L 420.589 534.771 L 420.725 534.408 L 420.286 534.408 L 420.195 534.609 L 420.064 534.761 L 419.691 534.882 L 419.404 534.826 L 419.187 534.65 L 419.046 534.362 L 418.995 533.974 L 418.995 533.959 L 418.995 533.959 z M 418.995 533.586 L 419.051 533.238 L 419.187 532.98 L 419.393 532.824 L 419.666 532.769 L 419.933 532.824 L 420.14 532.98 L 420.266 533.238 L 420.311 533.586 L 418.995 533.586 L 418.995 533.586 z" stroke="none" fill-rule="evenodd" fill="rgb(0, 0, 0)"/></g><g stroke="rgb(0, 0, 0)" stroke-width="0.13" stroke-linecap="butt" stroke-linejoin="miter" fill="none"><path d="M 388.231 541.231 L 390.45 541.231 L 390.45 540.808 L 388.695 540.808 L 388.695 539.622 L 390.259 539.622 L 390.259 539.204 L 388.695 539.204 L 388.695 538.155 L 390.41 538.155 L 390.41 537.731 L 388.231 537.731 L 388.231 541.231 L 388.231 541.231 z M 393.007 539.421 L 393.446 539.421 L 393.355 539.017 L 393.138 538.699 L 392.8 538.503 L 392.362 538.427 L 391.877 538.528 L 391.509 538.81 L 391.277 539.269 L 391.197 539.885 L 391.272 540.495 L 391.499 540.949 L 391.857 541.231 L 392.346 541.327 L 392.78 541.251 L 393.118 541.04 L 393.35 540.707 L 393.451 540.263 L 393.027 540.263 L 392.952 540.545 L 392.81 540.757 L 392.609 540.888 L 392.362 540.929 L 392.054 540.863 L 391.832 540.661 L 391.696 540.334 L 391.651 539.87 L 391.696 539.416 L 391.837 539.088 L 392.064 538.886 L 392.362 538.815 L 392.624 538.861 L 392.821 538.977 L 392.952 539.169 L 393.007 539.421 L 393.007 539.421 z M 394.318 541.231 L 394.762 541.231 L 394.762 539.668 L 394.808 539.31 L 394.954 539.047 L 395.181 538.886 L 395.483 538.826 L 395.725 538.876 L 395.877 539.012 L 395.952 539.239 L 395.978 539.542 L 395.978 541.231 L 396.421 541.231 L 396.421 539.451 L 396.401 539.093 L 396.311 538.795 L 396.013 538.523 L 395.549 538.427 L 395.297 538.462 L 395.08 538.558 L 394.898 538.71 L 394.762 538.916 L 394.762 537.61 L 394.318 537.61 L 394.318 541.231 L 394.318 541.231 z M 397.743 540.006 L 399.518 540.006 L 399.523 539.799 L 399.442 539.219 L 399.22 538.785 L 398.867 538.523 L 398.398 538.427 L 397.939 538.528 L 397.586 538.81 L 397.359 539.269 L 397.279 539.875 L 397.354 540.495 L 397.581 540.949 L 397.929 541.231 L 398.383 541.327 L 398.777 541.261 L 399.099 541.09 L 399.336 540.818 L 399.473 540.455 L 399.034 540.455 L 398.943 540.656 L 398.812 540.808 L 398.439 540.929 L 398.151 540.873 L 397.934 540.697 L 397.793 540.409 L 397.743 540.021 L 397.743 540.006 L 397.743 540.006 z M 397.743 539.632 L 397.798 539.285 L 397.934 539.027 L 398.141 538.871 L 398.414 538.815 L 398.681 538.871 L 398.888 539.027 L 399.014 539.285 L 399.059 539.632 L 397.743 539.632 L 397.743 539.632 z M 401.273 537.983 L 401.273 540.858 L 400.36 540.858 L 400.36 541.231 L 402.625 541.231 L 402.625 540.858 L 401.717 540.858 L 401.717 537.61 L 400.577 537.61 L 400.577 537.983 L 401.273 537.983 L 401.273 537.983 z M 404.309 537.983 L 404.309 540.858 L 403.396 540.858 L 403.396 541.231 L 405.661 541.231 L 405.661 540.858 L 404.753 540.858 L 404.753 537.61 L 403.613 537.61 L 403.613 537.983 L 404.309 537.983 L 404.309 537.983 z M 406.851 540.006 L 408.626 540.006 L 408.631 539.799 L 408.55 539.219 L 408.329 538.785 L 407.976 538.523 L 407.507 538.427 L 407.048 538.528 L 406.695 538.81 L 406.468 539.269 L 406.387 539.875 L 406.463 540.495 L 406.69 540.949 L 407.038 541.231 L 407.491 541.327 L 407.885 541.261 L 408.208 541.09 L 408.445 540.818 L 408.581 540.455 L 408.142 540.455 L 408.051 540.656 L 407.92 540.808 L 407.547 540.929 L 407.259 540.873 L 407.043 540.697 L 406.901 540.409 L 406.851 540.021 L 406.851 540.006 L 406.851 540.006 z M 406.851 539.632 L 406.906 539.285 L 407.043 539.027 L 407.249 538.871 L 407.522 538.815 L 407.789 538.871 L 407.996 539.027 L 408.122 539.285 L 408.167 539.632 L 406.851 539.632 L 406.851 539.632 z M 413.231 541.231 L 413.927 541.231 L 413.927 540.48 L 413.231 540.48 L 413.231 541.231 L 413.231 541.231 z M 413.231 539.274 L 413.927 539.274 L 413.927 538.523 L 413.231 538.523 L 413.231 539.274 L 413.231 539.274 z" stroke="none" fill-rule="evenodd" fill="rgb(0, 0, 0)"/></g><g stroke="rgb(0, 0, 0)" stroke-width="0.13" stroke-linecap="butt" stroke-linejoin="miter" fill="none"><path d="M 422.596 541.231 L 423.055 541.231 L 423.055 537.706 L 422.712 537.706 L 422.621 538.014 L 422.439 538.22 L 422.162 538.341 L 421.779 538.382 L 421.779 538.74 L 422.596 538.74 L 422.596 541.231 L 422.596 541.231 z M 425.375 541.231 L 426.071 541.231 L 426.071 540.48 L 425.375 540.48 L 425.375 541.231 L 425.375 541.231 z M 425.375 539.274 L 426.071 539.274 L 426.071 538.523 L 425.375 538.523 L 425.375 539.274 L 425.375 539.274 z M 428.668 541.231 L 429.127 541.231 L 429.127 537.706 L 428.784 537.706 L 428.693 538.014 L 428.512 538.22 L 428.234 538.341 L 427.851 538.382 L 427.851 538.74 L 428.668 538.74 L 428.668 541.231 L 428.668 541.231 z" stroke="none" fill-rule="evenodd" fill="rgb(0, 0, 0)"/></g></svg>