<?xml version="1.0" encoding="utf-8" ?><!DOCTYPE svg PUBLIC "-//W3C//DTD SVG 1.1//EN" "http://www.w3.org/Graphics/SVG/1.1/DTD/svg11.dtd" 
[ <!ATTLIST svg 
  xmlns:dsy CDATA #FIXED "http://www.3ds.com/print"  
    dsy:text-version CDATA #IMPLIED > 

  <!ATTLIST text 
  xmlns:dsy CDATA #FIXED "http://www.3ds.com/print" 
    dsy:text-version CDATA #IMPLIED > 
]><svg xmlns="http://www.w3.org/2000/svg" xmlns:dsy="http://www.3ds.com/print" dsy:text-version="18000" width="297" height="210" viewBox="0 0 297 210" version="1.1"><g stroke="rgb(0, 0, 0)" stroke-width="0.35" stroke-linecap="butt" stroke-linejoin="miter" fill="none"><path d="M 139.5 112 L 145.5 112"/><path d="M 139.5 112 L 139.5 118"/><path d="M 157.5 118 L 139.5 118"/><path d="M 157.5 118 L 157.5 112"/><path d="M 151.5 112 L 157.5 112"/><path d="M 151.5 112 L 151.5 93"/><path d="M 150.5 92 L 151.5 93"/><path d="M 145.5 93 L 145.5 112"/><path d="M 150.5 92 L 146.5 92"/><path d="M 146.5 92 L 145.5 93"/></g><g stroke="rgb(0, 0, 0)" stroke-width="0.13" stroke-linecap="butt" stroke-linejoin="miter" fill="none"><path d="M 150.896 126.352 L 150.018 129.332 L 149.115 126.352 L 148.636 126.352 L 149.766 129.857 L 150.27 129.857 L 151.375 126.352 L 150.896 126.352 L 150.896 126.352 z M 154.098 127.148 L 153.654 127.148 L 153.654 128.712 L 153.604 129.075 L 153.457 129.337 L 153.231 129.499 L 152.933 129.549 L 152.696 129.509 L 152.545 129.388 L 152.459 129.181 L 152.439 128.888 L 152.439 127.148 L 151.995 127.148 L 151.995 128.929 L 152.01 129.287 L 152.106 129.584 L 152.398 129.857 L 152.867 129.952 L 153.12 129.917 L 153.336 129.826 L 153.523 129.67 L 153.674 129.443 L 153.674 129.857 L 154.098 129.857 L 154.098 127.148 L 154.098 127.148 z M 155.434 128.631 L 157.21 128.631 L 157.215 128.424 L 157.134 127.844 L 156.912 127.411 L 156.559 127.148 L 156.09 127.053 L 155.631 127.153 L 155.278 127.436 L 155.051 127.895 L 154.97 128.5 L 155.046 129.12 L 155.273 129.574 L 155.621 129.857 L 156.075 129.952 L 156.468 129.887 L 156.791 129.715 L 157.028 129.443 L 157.164 129.08 L 156.726 129.08 L 156.635 129.282 L 156.504 129.433 L 156.13 129.554 L 155.843 129.499 L 155.626 129.322 L 155.485 129.035 L 155.434 128.646 L 155.434 128.631 L 155.434 128.631 z M 155.434 128.258 L 155.49 127.91 L 155.626 127.653 L 155.833 127.496 L 156.105 127.441 L 156.372 127.496 L 156.579 127.653 L 156.705 127.91 L 156.751 128.258 L 155.434 128.258 L 155.434 128.258 z M 162.782 129.438 L 162.782 129.857 L 163.226 129.857 L 163.226 126.236 L 162.787 126.236 L 162.787 127.562 L 162.45 127.179 L 162.243 127.088 L 162.006 127.053 L 161.577 127.153 L 161.244 127.436 L 161.027 127.89 L 160.952 128.5 L 161.027 129.11 L 161.244 129.569 L 161.577 129.857 L 162.006 129.952 L 162.243 129.917 L 162.455 129.826 L 162.782 129.438 L 162.782 129.438 z M 162.081 127.451 L 162.374 127.522 L 162.596 127.718 L 162.727 128.046 L 162.777 128.5 L 162.727 128.959 L 162.596 129.287 L 162.374 129.488 L 162.081 129.554 L 161.804 129.488 L 161.592 129.287 L 161.451 128.954 L 161.406 128.5 L 161.451 128.051 L 161.592 127.723 L 161.804 127.522 L 162.081 127.451 L 162.081 127.451 z M 164.543 128.631 L 166.318 128.631 L 166.323 128.424 L 166.242 127.844 L 166.02 127.411 L 165.667 127.148 L 165.198 127.053 L 164.739 127.153 L 164.386 127.436 L 164.159 127.895 L 164.079 128.5 L 164.154 129.12 L 164.381 129.574 L 164.729 129.857 L 165.183 129.952 L 165.576 129.887 L 165.899 129.715 L 166.136 129.443 L 166.272 129.08 L 165.834 129.08 L 165.743 129.282 L 165.612 129.433 L 165.238 129.554 L 164.951 129.499 L 164.734 129.322 L 164.593 129.035 L 164.543 128.646 L 164.543 128.631 L 164.543 128.631 z M 164.543 128.258 L 164.598 127.91 L 164.734 127.653 L 164.941 127.496 L 165.213 127.441 L 165.481 127.496 L 165.687 127.653 L 165.813 127.91 L 165.859 128.258 L 164.543 128.258 L 164.543 128.258 z M 170.842 127.617 L 170.842 129.857 L 171.285 129.857 L 171.285 127.617 L 172.294 127.617 L 172.294 127.239 L 171.285 127.239 L 171.285 127.073 L 171.321 126.871 L 171.437 126.735 L 171.633 126.654 L 171.916 126.624 L 172.294 126.644 L 172.294 126.261 L 171.815 126.236 L 171.381 126.281 L 171.079 126.417 L 170.897 126.654 L 170.842 126.992 L 170.842 127.239 L 170.03 127.239 L 170.03 127.617 L 170.842 127.617 L 170.842 127.617 z M 174.871 129.504 L 174.871 129.519 L 174.896 129.69 L 174.972 129.811 L 175.29 129.907 L 175.537 129.867 L 175.537 129.524 L 175.431 129.539 L 175.29 129.473 L 175.264 129.272 L 175.264 127.87 L 175.204 127.512 L 175.027 127.259 L 174.72 127.108 L 174.286 127.053 L 173.862 127.113 L 173.55 127.285 L 173.353 127.552 L 173.287 127.905 L 173.287 127.935 L 173.686 127.935 L 173.721 127.723 L 173.832 127.572 L 174.014 127.481 L 174.271 127.446 L 174.518 127.471 L 174.695 127.547 L 174.8 127.678 L 174.836 127.86 L 174.816 128.071 L 174.735 128.177 L 174.533 128.228 L 174.155 128.268 L 173.721 128.359 L 173.414 128.52 L 173.232 128.772 L 173.177 129.146 L 173.227 129.478 L 173.383 129.726 L 173.635 129.882 L 173.983 129.937 L 174.452 129.831 L 174.871 129.504 L 174.871 129.504 z M 174.821 128.909 L 174.76 129.171 L 174.599 129.372 L 174.357 129.504 L 174.059 129.549 L 173.867 129.524 L 173.731 129.443 L 173.646 129.302 L 173.62 129.105 L 173.641 128.929 L 173.721 128.803 L 174.044 128.661 L 174.452 128.601 L 174.821 128.48 L 174.821 128.909 L 174.821 128.909 z M 178.023 128.046 L 178.462 128.046 L 178.371 127.643 L 178.154 127.325 L 177.816 127.128 L 177.378 127.053 L 176.893 127.153 L 176.525 127.436 L 176.293 127.895 L 176.213 128.51 L 176.288 129.12 L 176.515 129.574 L 176.873 129.857 L 177.362 129.952 L 177.796 129.877 L 178.134 129.665 L 178.366 129.332 L 178.467 128.888 L 178.043 128.888 L 177.968 129.171 L 177.826 129.383 L 177.625 129.514 L 177.378 129.554 L 177.07 129.488 L 176.848 129.287 L 176.712 128.959 L 176.666 128.495 L 176.712 128.041 L 176.853 127.713 L 177.08 127.512 L 177.378 127.441 L 177.64 127.486 L 177.836 127.602 L 177.968 127.794 L 178.023 128.046 L 178.023 128.046 z M 179.723 128.631 L 181.498 128.631 L 181.503 128.424 L 181.422 127.844 L 181.2 127.411 L 180.847 127.148 L 180.378 127.053 L 179.919 127.153 L 179.566 127.436 L 179.339 127.895 L 179.259 128.5 L 179.334 129.12 L 179.561 129.574 L 179.909 129.857 L 180.363 129.952 L 180.757 129.887 L 181.079 129.715 L 181.316 129.443 L 181.452 129.08 L 181.014 129.08 L 180.923 129.282 L 180.792 129.433 L 180.419 129.554 L 180.131 129.499 L 179.914 129.322 L 179.773 129.035 L 179.723 128.646 L 179.723 128.631 L 179.723 128.631 z M 179.723 128.258 L 179.778 127.91 L 179.914 127.653 L 180.121 127.496 L 180.393 127.441 L 180.661 127.496 L 180.867 127.653 L 180.994 127.91 L 181.039 128.258 L 179.723 128.258 L 179.723 128.258 z" stroke="none" fill-rule="evenodd" fill="rgb(0, 0, 0)"/></g><g stroke="rgb(0, 0, 0)" stroke-width="0.13" stroke-linecap="butt" stroke-linejoin="miter" fill="none"><path d="M 148.959 135.903 L 151.178 135.903 L 151.178 135.48 L 149.423 135.48 L 149.423 134.295 L 150.986 134.295 L 150.986 133.876 L 149.423 133.876 L 149.423 132.827 L 151.138 132.827 L 151.138 132.403 L 148.959 132.403 L 148.959 135.903 L 148.959 135.903 z M 153.735 134.093 L 154.174 134.093 L 154.083 133.689 L 153.866 133.372 L 153.528 133.175 L 153.089 133.099 L 152.605 133.2 L 152.237 133.483 L 152.005 133.942 L 151.924 134.557 L 152 135.167 L 152.227 135.621 L 152.585 135.903 L 153.074 135.999 L 153.508 135.924 L 153.846 135.712 L 154.078 135.379 L 154.179 134.935 L 153.755 134.935 L 153.679 135.218 L 153.538 135.429 L 153.336 135.561 L 153.089 135.601 L 152.782 135.535 L 152.56 135.334 L 152.424 135.006 L 152.378 134.542 L 152.424 134.088 L 152.565 133.76 L 152.792 133.558 L 153.089 133.488 L 153.352 133.533 L 153.548 133.649 L 153.679 133.841 L 153.735 134.093 L 153.735 134.093 z M 155.046 135.903 L 155.49 135.903 L 155.49 134.34 L 155.535 133.982 L 155.682 133.72 L 155.909 133.558 L 156.211 133.498 L 156.453 133.548 L 156.604 133.684 L 156.68 133.911 L 156.705 134.214 L 156.705 135.903 L 157.149 135.903 L 157.149 134.123 L 157.129 133.765 L 157.038 133.468 L 156.741 133.195 L 156.277 133.099 L 156.025 133.135 L 155.808 133.231 L 155.626 133.382 L 155.49 133.589 L 155.49 132.282 L 155.046 132.282 L 155.046 135.903 L 155.046 135.903 z M 158.47 134.678 L 160.246 134.678 L 160.251 134.471 L 160.17 133.891 L 159.948 133.457 L 159.595 133.195 L 159.126 133.099 L 158.667 133.2 L 158.314 133.483 L 158.087 133.942 L 158.007 134.547 L 158.082 135.167 L 158.309 135.621 L 158.657 135.903 L 159.111 135.999 L 159.504 135.934 L 159.827 135.762 L 160.064 135.49 L 160.2 135.127 L 159.762 135.127 L 159.671 135.329 L 159.54 135.48 L 159.166 135.601 L 158.879 135.545 L 158.662 135.369 L 158.521 135.081 L 158.47 134.693 L 158.47 134.678 L 158.47 134.678 z M 158.47 134.305 L 158.526 133.957 L 158.662 133.7 L 158.869 133.543 L 159.141 133.488 L 159.409 133.543 L 159.615 133.7 L 159.741 133.957 L 159.787 134.305 L 158.47 134.305 L 158.47 134.305 z M 162.001 132.656 L 162.001 135.53 L 161.088 135.53 L 161.088 135.903 L 163.352 135.903 L 163.352 135.53 L 162.445 135.53 L 162.445 132.282 L 161.305 132.282 L 161.305 132.656 L 162.001 132.656 L 162.001 132.656 z M 165.037 132.656 L 165.037 135.53 L 164.124 135.53 L 164.124 135.903 L 166.388 135.903 L 166.388 135.53 L 165.481 135.53 L 165.481 132.282 L 164.341 132.282 L 164.341 132.656 L 165.037 132.656 L 165.037 132.656 z M 167.579 134.678 L 169.354 134.678 L 169.359 134.471 L 169.278 133.891 L 169.056 133.457 L 168.703 133.195 L 168.234 133.099 L 167.775 133.2 L 167.422 133.483 L 167.195 133.942 L 167.115 134.547 L 167.19 135.167 L 167.417 135.621 L 167.765 135.903 L 168.219 135.999 L 168.612 135.934 L 168.935 135.762 L 169.172 135.49 L 169.308 135.127 L 168.87 135.127 L 168.779 135.329 L 168.648 135.48 L 168.275 135.601 L 167.987 135.545 L 167.77 135.369 L 167.629 135.081 L 167.579 134.693 L 167.579 134.678 L 167.579 134.678 z M 167.579 134.305 L 167.634 133.957 L 167.77 133.7 L 167.977 133.543 L 168.249 133.488 L 168.517 133.543 L 168.723 133.7 L 168.849 133.957 L 168.895 134.305 L 167.579 134.305 L 167.579 134.305 z M 173.958 135.903 L 174.654 135.903 L 174.654 135.152 L 173.958 135.152 L 173.958 135.903 L 173.958 135.903 z M 173.958 133.947 L 174.654 133.947 L 174.654 133.195 L 173.958 133.195 L 173.958 133.947 L 173.958 133.947 z" stroke="none" fill-rule="evenodd" fill="rgb(0, 0, 0)"/></g><g stroke="rgb(0, 0, 0)" stroke-width="0.13" stroke-linecap="butt" stroke-linejoin="miter" fill="none"><path d="M 183.323 135.903 L 183.782 135.903 L 183.782 132.378 L 183.439 132.378 L 183.349 132.686 L 183.167 132.893 L 182.89 133.014 L 182.506 133.054 L 182.506 133.412 L 183.323 133.412 L 183.323 135.903 L 183.323 135.903 z M 186.102 135.903 L 186.798 135.903 L 186.798 135.152 L 186.102 135.152 L 186.102 135.903 L 186.102 135.903 z M 186.102 133.947 L 186.798 133.947 L 186.798 133.195 L 186.102 133.195 L 186.102 133.947 L 186.102 133.947 z M 189.396 135.903 L 189.854 135.903 L 189.854 132.378 L 189.512 132.378 L 189.421 132.686 L 189.239 132.893 L 188.962 133.014 L 188.579 133.054 L 188.579 133.412 L 189.396 133.412 L 189.396 135.903 L 189.396 135.903 z" stroke="none" fill-rule="evenodd" fill="rgb(0, 0, 0)"/></g></svg>