<?xml version="1.0" encoding="utf-8" ?><!DOCTYPE svg PUBLIC "-//W3C//DTD SVG 1.1//EN" "http://www.w3.org/Graphics/SVG/1.1/DTD/svg11.dtd" 
[ <!ATTLIST svg 
  xmlns:dsy CDATA #FIXED "http://www.3ds.com/print"  
    dsy:text-version CDATA #IMPLIED > 

  <!ATTLIST text 
  xmlns:dsy CDATA #FIXED "http://www.3ds.com/print" 
    dsy:text-version CDATA #IMPLIED > 
]><svg xmlns="http://www.w3.org/2000/svg" xmlns:dsy="http://www.3ds.com/print" dsy:text-version="18000" width="297" height="210" viewBox="0 0 297 210" version="1.1"><g stroke="rgb(0, 0, 0)" stroke-width="0.35" stroke-linecap="butt" stroke-linejoin="miter" fill="none"><path d="M 189.974 129.804 L 189.974 49.8035"/><path d="M 189.974 49.8035 L 161.595 49.8035"/><path d="M 89.974 49.8035 L 161.595 49.8035"/><path d="M 89.974 89.8035 L 89.974 49.8035"/><path d="M 149.974 89.8035 L 89.974 89.8035"/><path d="M 149.974 89.8035 L 149.974 129.804"/><path d="M 99.974 66.8035 L 105.874 66.8035"/><path d="M 105.874 72.7035 L 105.874 66.8035"/><path d="M 105.874 72.7035 L 99.974 72.7035"/><path d="M 99.974 66.8035 L 99.974 72.7035"/><path d="M 121.874 72.7035 L 121.874 66.8035"/><path d="M 127.774 66.8035 L 121.874 66.8035"/><path d="M 127.774 66.8035 L 127.774 72.7035"/><path d="M 121.874 72.7035 L 127.774 72.7035"/><path d="M 178.496 115.572 A 13.3447 13.3447 0 0 0 177.545 115.088"/><path d="M 178.496 115.572 A 13.3459 13.3459 0 0 0 177.804 115.211"/><path d="M 185.209 129.804 L 189.974 129.804"/><path d="M 149.974 129.804 L 158.209 129.804"/><path d="M 158.209 129.804 L 158.209 125.365"/><path d="M 176.182 114.325 A 12.9167 12.5 -330.761 0 0 158.209 125.365"/><path d="M 176.182 114.325 L 177.545 115.088"/><path d="M 185.209 126.832 A 12.9167 12.5 -330.761 0 0 178.496 115.572"/><path d="M 185.209 129.804 L 185.209 126.832"/></g><g stroke="rgb(0, 0, 0)" stroke-width="0.13" stroke-linecap="butt" stroke-linejoin="miter" fill="none"><path d="M 142.37 138.155 L 141.492 141.136 L 140.589 138.155 L 140.11 138.155 L 141.24 141.66 L 141.744 141.66 L 142.849 138.155 L 142.37 138.155 L 142.37 138.155 z M 145.572 138.952 L 145.128 138.952 L 145.128 140.515 L 145.078 140.878 L 144.932 141.141 L 144.705 141.302 L 144.407 141.353 L 144.17 141.312 L 144.019 141.191 L 143.933 140.984 L 143.913 140.692 L 143.913 138.952 L 143.469 138.952 L 143.469 140.732 L 143.484 141.09 L 143.58 141.388 L 143.872 141.66 L 144.341 141.756 L 144.594 141.721 L 144.81 141.63 L 144.997 141.474 L 145.148 141.247 L 145.148 141.66 L 145.572 141.66 L 145.572 138.952 L 145.572 138.952 z M 146.908 140.435 L 148.684 140.435 L 148.689 140.228 L 148.608 139.648 L 148.386 139.214 L 148.033 138.952 L 147.564 138.856 L 147.105 138.957 L 146.752 139.239 L 146.525 139.698 L 146.444 140.304 L 146.52 140.924 L 146.747 141.378 L 147.095 141.66 L 147.549 141.756 L 147.942 141.69 L 148.265 141.519 L 148.502 141.247 L 148.638 140.883 L 148.2 140.883 L 148.109 141.085 L 147.978 141.237 L 147.604 141.358 L 147.317 141.302 L 147.1 141.126 L 146.959 140.838 L 146.908 140.45 L 146.908 140.435 L 146.908 140.435 z M 146.908 140.061 L 146.964 139.713 L 147.1 139.456 L 147.307 139.3 L 147.579 139.244 L 147.846 139.3 L 148.053 139.456 L 148.179 139.713 L 148.225 140.061 L 146.908 140.061 L 146.908 140.061 z M 154.256 141.242 L 154.256 141.66 L 154.7 141.66 L 154.7 138.039 L 154.261 138.039 L 154.261 139.365 L 153.924 138.982 L 153.717 138.891 L 153.48 138.856 L 153.051 138.957 L 152.718 139.239 L 152.501 139.693 L 152.426 140.304 L 152.501 140.914 L 152.718 141.373 L 153.051 141.66 L 153.48 141.756 L 153.717 141.721 L 153.929 141.63 L 154.256 141.242 L 154.256 141.242 z M 153.555 139.255 L 153.848 139.325 L 154.07 139.522 L 154.201 139.85 L 154.251 140.304 L 154.201 140.762 L 154.07 141.09 L 153.848 141.292 L 153.555 141.358 L 153.278 141.292 L 153.066 141.09 L 152.925 140.757 L 152.88 140.304 L 152.925 139.855 L 153.066 139.527 L 153.278 139.325 L 153.555 139.255 L 153.555 139.255 z M 156.017 140.435 L 157.792 140.435 L 157.797 140.228 L 157.716 139.648 L 157.494 139.214 L 157.141 138.952 L 156.672 138.856 L 156.213 138.957 L 155.86 139.239 L 155.633 139.698 L 155.553 140.304 L 155.628 140.924 L 155.855 141.378 L 156.203 141.66 L 156.657 141.756 L 157.05 141.69 L 157.373 141.519 L 157.61 141.247 L 157.746 140.883 L 157.308 140.883 L 157.217 141.085 L 157.086 141.237 L 156.712 141.358 L 156.425 141.302 L 156.208 141.126 L 156.067 140.838 L 156.017 140.45 L 156.017 140.435 L 156.017 140.435 z M 156.017 140.061 L 156.072 139.713 L 156.208 139.456 L 156.415 139.3 L 156.687 139.244 L 156.955 139.3 L 157.161 139.456 L 157.287 139.713 L 157.333 140.061 L 156.017 140.061 L 156.017 140.061 z M 162.316 139.421 L 162.316 141.66 L 162.759 141.66 L 162.759 139.421 L 163.768 139.421 L 163.768 139.043 L 162.759 139.043 L 162.759 138.876 L 162.795 138.675 L 162.911 138.538 L 163.107 138.458 L 163.39 138.427 L 163.768 138.448 L 163.768 138.064 L 163.289 138.039 L 162.855 138.084 L 162.553 138.221 L 162.371 138.458 L 162.316 138.796 L 162.316 139.043 L 161.504 139.043 L 161.504 139.421 L 162.316 139.421 L 162.316 139.421 z M 166.345 141.307 L 166.345 141.322 L 166.37 141.494 L 166.446 141.615 L 166.764 141.711 L 167.011 141.67 L 167.011 141.327 L 166.905 141.342 L 166.764 141.277 L 166.738 141.075 L 166.738 139.673 L 166.678 139.315 L 166.501 139.063 L 166.194 138.912 L 165.76 138.856 L 165.336 138.917 L 165.024 139.088 L 164.827 139.355 L 164.762 139.708 L 164.762 139.739 L 165.16 139.739 L 165.195 139.527 L 165.306 139.376 L 165.488 139.285 L 165.745 139.249 L 165.992 139.275 L 166.169 139.35 L 166.274 139.481 L 166.31 139.663 L 166.29 139.875 L 166.209 139.981 L 166.007 140.031 L 165.629 140.072 L 165.195 140.162 L 164.888 140.324 L 164.706 140.576 L 164.651 140.949 L 164.701 141.282 L 164.857 141.529 L 165.109 141.685 L 165.457 141.741 L 165.926 141.635 L 166.345 141.307 L 166.345 141.307 z M 166.295 140.712 L 166.234 140.974 L 166.073 141.176 L 165.831 141.307 L 165.533 141.353 L 165.341 141.327 L 165.205 141.247 L 165.12 141.105 L 165.094 140.909 L 165.115 140.732 L 165.195 140.606 L 165.518 140.465 L 165.926 140.404 L 166.295 140.283 L 166.295 140.712 L 166.295 140.712 z M 169.497 139.85 L 169.936 139.85 L 169.845 139.446 L 169.628 139.128 L 169.29 138.932 L 168.852 138.856 L 168.367 138.957 L 167.999 139.239 L 167.767 139.698 L 167.687 140.314 L 167.762 140.924 L 167.989 141.378 L 168.347 141.66 L 168.836 141.756 L 169.27 141.68 L 169.608 141.468 L 169.84 141.136 L 169.941 140.692 L 169.517 140.692 L 169.442 140.974 L 169.3 141.186 L 169.099 141.317 L 168.852 141.358 L 168.544 141.292 L 168.322 141.09 L 168.186 140.762 L 168.14 140.298 L 168.186 139.845 L 168.327 139.517 L 168.554 139.315 L 168.852 139.244 L 169.114 139.29 L 169.311 139.406 L 169.442 139.597 L 169.497 139.85 L 169.497 139.85 z M 171.197 140.435 L 172.972 140.435 L 172.977 140.228 L 172.896 139.648 L 172.674 139.214 L 172.321 138.952 L 171.852 138.856 L 171.393 138.957 L 171.04 139.239 L 170.813 139.698 L 170.733 140.304 L 170.808 140.924 L 171.035 141.378 L 171.383 141.66 L 171.837 141.756 L 172.231 141.69 L 172.553 141.519 L 172.79 141.247 L 172.926 140.883 L 172.488 140.883 L 172.397 141.085 L 172.266 141.237 L 171.893 141.358 L 171.605 141.302 L 171.388 141.126 L 171.247 140.838 L 171.197 140.45 L 171.197 140.435 L 171.197 140.435 z M 171.197 140.061 L 171.252 139.713 L 171.388 139.456 L 171.595 139.3 L 171.867 139.244 L 172.135 139.3 L 172.341 139.456 L 172.468 139.713 L 172.513 140.061 L 171.197 140.061 L 171.197 140.061 z" stroke="none" fill-rule="evenodd" fill="rgb(0, 0, 0)"/></g><g stroke="rgb(0, 0, 0)" stroke-width="0.13" stroke-linecap="butt" stroke-linejoin="miter" fill="none"><path d="M 140.433 147.707 L 142.652 147.707 L 142.652 147.283 L 140.897 147.283 L 140.897 146.098 L 142.46 146.098 L 142.46 145.68 L 140.897 145.68 L 140.897 144.631 L 142.612 144.631 L 142.612 144.207 L 140.433 144.207 L 140.433 147.707 L 140.433 147.707 z M 145.209 145.896 L 145.648 145.896 L 145.557 145.493 L 145.34 145.175 L 145.002 144.979 L 144.563 144.903 L 144.079 145.004 L 143.711 145.286 L 143.479 145.745 L 143.398 146.36 L 143.474 146.971 L 143.701 147.425 L 144.059 147.707 L 144.548 147.803 L 144.982 147.727 L 145.32 147.515 L 145.552 147.182 L 145.653 146.739 L 145.229 146.739 L 145.153 147.021 L 145.012 147.233 L 144.81 147.364 L 144.563 147.404 L 144.256 147.339 L 144.034 147.137 L 143.898 146.809 L 143.852 146.345 L 143.898 145.891 L 144.039 145.564 L 144.266 145.362 L 144.563 145.291 L 144.826 145.337 L 145.022 145.453 L 145.153 145.644 L 145.209 145.896 L 145.209 145.896 z M 146.52 147.707 L 146.964 147.707 L 146.964 146.144 L 147.009 145.785 L 147.156 145.523 L 147.383 145.362 L 147.685 145.301 L 147.927 145.352 L 148.078 145.488 L 148.154 145.715 L 148.179 146.017 L 148.179 147.707 L 148.623 147.707 L 148.623 145.927 L 148.603 145.569 L 148.512 145.271 L 148.215 144.999 L 147.751 144.903 L 147.499 144.938 L 147.282 145.034 L 147.1 145.185 L 146.964 145.392 L 146.964 144.086 L 146.52 144.086 L 146.52 147.707 L 146.52 147.707 z M 149.944 146.481 L 151.72 146.481 L 151.725 146.275 L 151.644 145.695 L 151.422 145.261 L 151.069 144.999 L 150.6 144.903 L 150.141 145.004 L 149.788 145.286 L 149.561 145.745 L 149.481 146.35 L 149.556 146.971 L 149.783 147.425 L 150.131 147.707 L 150.585 147.803 L 150.978 147.737 L 151.301 147.566 L 151.538 147.293 L 151.674 146.93 L 151.236 146.93 L 151.145 147.132 L 151.014 147.283 L 150.64 147.404 L 150.353 147.349 L 150.136 147.172 L 149.995 146.885 L 149.944 146.497 L 149.944 146.481 L 149.944 146.481 z M 149.944 146.108 L 150 145.76 L 150.136 145.503 L 150.343 145.347 L 150.615 145.291 L 150.883 145.347 L 151.089 145.503 L 151.215 145.76 L 151.261 146.108 L 149.944 146.108 L 149.944 146.108 z M 153.475 144.459 L 153.475 147.334 L 152.562 147.334 L 152.562 147.707 L 154.826 147.707 L 154.826 147.334 L 153.919 147.334 L 153.919 144.086 L 152.779 144.086 L 152.779 144.459 L 153.475 144.459 L 153.475 144.459 z M 156.511 144.459 L 156.511 147.334 L 155.598 147.334 L 155.598 147.707 L 157.862 147.707 L 157.862 147.334 L 156.955 147.334 L 156.955 144.086 L 155.815 144.086 L 155.815 144.459 L 156.511 144.459 L 156.511 144.459 z M 159.053 146.481 L 160.828 146.481 L 160.833 146.275 L 160.752 145.695 L 160.53 145.261 L 160.177 144.999 L 159.708 144.903 L 159.249 145.004 L 158.896 145.286 L 158.669 145.745 L 158.589 146.35 L 158.664 146.971 L 158.891 147.425 L 159.239 147.707 L 159.693 147.803 L 160.086 147.737 L 160.409 147.566 L 160.646 147.293 L 160.782 146.93 L 160.344 146.93 L 160.253 147.132 L 160.122 147.283 L 159.749 147.404 L 159.461 147.349 L 159.244 147.172 L 159.103 146.885 L 159.053 146.497 L 159.053 146.481 L 159.053 146.481 z M 159.053 146.108 L 159.108 145.76 L 159.244 145.503 L 159.451 145.347 L 159.723 145.291 L 159.991 145.347 L 160.197 145.503 L 160.323 145.76 L 160.369 146.108 L 159.053 146.108 L 159.053 146.108 z M 165.432 147.707 L 166.128 147.707 L 166.128 146.956 L 165.432 146.956 L 165.432 147.707 L 165.432 147.707 z M 165.432 145.75 L 166.128 145.75 L 166.128 144.999 L 165.432 144.999 L 165.432 145.75 L 165.432 145.75 z" stroke="none" fill-rule="evenodd" fill="rgb(0, 0, 0)"/></g><g stroke="rgb(0, 0, 0)" stroke-width="0.13" stroke-linecap="butt" stroke-linejoin="miter" fill="none"><path d="M 174.798 147.707 L 175.256 147.707 L 175.256 144.182 L 174.913 144.182 L 174.823 144.489 L 174.641 144.696 L 174.364 144.817 L 173.98 144.858 L 173.98 145.216 L 174.798 145.216 L 174.798 147.707 L 174.798 147.707 z M 177.576 147.707 L 178.272 147.707 L 178.272 146.956 L 177.576 146.956 L 177.576 147.707 L 177.576 147.707 z M 177.576 145.75 L 178.272 145.75 L 178.272 144.999 L 177.576 144.999 L 177.576 145.75 L 177.576 145.75 z M 180.87 147.707 L 181.328 147.707 L 181.328 144.182 L 180.986 144.182 L 180.895 144.489 L 180.713 144.696 L 180.436 144.817 L 180.053 144.858 L 180.053 145.216 L 180.87 145.216 L 180.87 147.707 L 180.87 147.707 z" stroke="none" fill-rule="evenodd" fill="rgb(0, 0, 0)"/></g></svg>