<?xml version="1.0" encoding="utf-8" ?><!DOCTYPE svg PUBLIC "-//W3C//DTD SVG 1.1//EN" "http://www.w3.org/Graphics/SVG/1.1/DTD/svg11.dtd" 
[ <!ATTLIST svg 
  xmlns:dsy CDATA #FIXED "http://www.3ds.com/print"  
    dsy:text-version CDATA #IMPLIED > 

  <!ATTLIST text 
  xmlns:dsy CDATA #FIXED "http://www.3ds.com/print" 
    dsy:text-version CDATA #IMPLIED > 
]><svg xmlns="http://www.w3.org/2000/svg" xmlns:dsy="http://www.3ds.com/print" dsy:text-version="18000" width="297" height="210" viewBox="0 0 297 210" version="1.1"><g stroke="rgb(0, 0, 0)" stroke-width="0.35" stroke-linecap="butt" stroke-linejoin="miter" fill="none"><path d="M 128.5 135 L 168.5 135"/><path d="M 168.5 135 L 168.5 75"/><path d="M 168.5 75 L 128.5 75"/><path d="M 128.5 75 L 128.5 135"/><path d="M 151.4 93.5565 L 145.5 93.5565"/><path d="M 151.4 99.4565 L 151.4 93.5565"/><path d="M 145.5 99.4565 L 151.4 99.4565"/><path d="M 145.5 93.5565 L 145.5 99.4565"/><path d="M 145.5 121.357 L 151.4 121.357"/><path d="M 145.5 115.457 L 145.5 121.357"/><path d="M 151.4 115.457 L 145.5 115.457"/><path d="M 151.4 121.357 L 151.4 115.457"/></g><g stroke="rgb(0, 0, 0)" stroke-width="0.13" stroke-linecap="butt" stroke-linejoin="miter" fill="none"><path d="M 150.896 143.352 L 150.018 146.332 L 149.115 143.352 L 148.636 143.352 L 149.766 146.857 L 150.27 146.857 L 151.375 143.352 L 150.896 143.352 L 150.896 143.352 z M 154.098 144.148 L 153.654 144.148 L 153.654 145.712 L 153.604 146.075 L 153.457 146.337 L 153.231 146.499 L 152.933 146.549 L 152.696 146.509 L 152.545 146.388 L 152.459 146.181 L 152.439 145.888 L 152.439 144.148 L 151.995 144.148 L 151.995 145.929 L 152.01 146.287 L 152.106 146.584 L 152.398 146.857 L 152.867 146.952 L 153.12 146.917 L 153.336 146.826 L 153.523 146.67 L 153.674 146.443 L 153.674 146.857 L 154.098 146.857 L 154.098 144.148 L 154.098 144.148 z M 155.434 145.631 L 157.21 145.631 L 157.215 145.424 L 157.134 144.844 L 156.912 144.411 L 156.559 144.148 L 156.09 144.053 L 155.631 144.153 L 155.278 144.436 L 155.051 144.895 L 154.97 145.5 L 155.046 146.12 L 155.273 146.574 L 155.621 146.857 L 156.075 146.952 L 156.468 146.887 L 156.791 146.715 L 157.028 146.443 L 157.164 146.08 L 156.726 146.08 L 156.635 146.282 L 156.504 146.433 L 156.13 146.554 L 155.843 146.499 L 155.626 146.322 L 155.485 146.035 L 155.434 145.646 L 155.434 145.631 L 155.434 145.631 z M 155.434 145.258 L 155.49 144.91 L 155.626 144.653 L 155.833 144.496 L 156.105 144.441 L 156.372 144.496 L 156.579 144.653 L 156.705 144.91 L 156.751 145.258 L 155.434 145.258 L 155.434 145.258 z M 162.782 146.438 L 162.782 146.857 L 163.226 146.857 L 163.226 143.236 L 162.787 143.236 L 162.787 144.562 L 162.45 144.179 L 162.243 144.088 L 162.006 144.053 L 161.577 144.153 L 161.244 144.436 L 161.027 144.89 L 160.952 145.5 L 161.027 146.11 L 161.244 146.569 L 161.577 146.857 L 162.006 146.952 L 162.243 146.917 L 162.455 146.826 L 162.782 146.438 L 162.782 146.438 z M 162.081 144.451 L 162.374 144.522 L 162.596 144.718 L 162.727 145.046 L 162.777 145.5 L 162.727 145.959 L 162.596 146.287 L 162.374 146.488 L 162.081 146.554 L 161.804 146.488 L 161.592 146.287 L 161.451 145.954 L 161.406 145.5 L 161.451 145.051 L 161.592 144.723 L 161.804 144.522 L 162.081 144.451 L 162.081 144.451 z M 164.543 145.631 L 166.318 145.631 L 166.323 145.424 L 166.242 144.844 L 166.02 144.411 L 165.667 144.148 L 165.198 144.053 L 164.739 144.153 L 164.386 144.436 L 164.159 144.895 L 164.079 145.5 L 164.154 146.12 L 164.381 146.574 L 164.729 146.857 L 165.183 146.952 L 165.576 146.887 L 165.899 146.715 L 166.136 146.443 L 166.272 146.08 L 165.834 146.08 L 165.743 146.282 L 165.612 146.433 L 165.238 146.554 L 164.951 146.499 L 164.734 146.322 L 164.593 146.035 L 164.543 145.646 L 164.543 145.631 L 164.543 145.631 z M 164.543 145.258 L 164.598 144.91 L 164.734 144.653 L 164.941 144.496 L 165.213 144.441 L 165.481 144.496 L 165.687 144.653 L 165.813 144.91 L 165.859 145.258 L 164.543 145.258 L 164.543 145.258 z M 170.842 144.617 L 170.842 146.857 L 171.285 146.857 L 171.285 144.617 L 172.294 144.617 L 172.294 144.239 L 171.285 144.239 L 171.285 144.073 L 171.321 143.871 L 171.437 143.735 L 171.633 143.654 L 171.916 143.624 L 172.294 143.644 L 172.294 143.261 L 171.815 143.236 L 171.381 143.281 L 171.079 143.417 L 170.897 143.654 L 170.842 143.992 L 170.842 144.239 L 170.03 144.239 L 170.03 144.617 L 170.842 144.617 L 170.842 144.617 z M 174.871 146.504 L 174.871 146.519 L 174.896 146.69 L 174.972 146.811 L 175.29 146.907 L 175.537 146.867 L 175.537 146.524 L 175.431 146.539 L 175.29 146.473 L 175.264 146.272 L 175.264 144.87 L 175.204 144.512 L 175.027 144.259 L 174.72 144.108 L 174.286 144.053 L 173.862 144.113 L 173.55 144.285 L 173.353 144.552 L 173.287 144.905 L 173.287 144.935 L 173.686 144.935 L 173.721 144.723 L 173.832 144.572 L 174.014 144.481 L 174.271 144.446 L 174.518 144.471 L 174.695 144.547 L 174.8 144.678 L 174.836 144.86 L 174.816 145.071 L 174.735 145.177 L 174.533 145.228 L 174.155 145.268 L 173.721 145.359 L 173.414 145.52 L 173.232 145.772 L 173.177 146.146 L 173.227 146.478 L 173.383 146.726 L 173.635 146.882 L 173.983 146.937 L 174.452 146.831 L 174.871 146.504 L 174.871 146.504 z M 174.821 145.909 L 174.76 146.171 L 174.599 146.372 L 174.357 146.504 L 174.059 146.549 L 173.867 146.524 L 173.731 146.443 L 173.646 146.302 L 173.62 146.105 L 173.641 145.929 L 173.721 145.803 L 174.044 145.661 L 174.452 145.601 L 174.821 145.48 L 174.821 145.909 L 174.821 145.909 z M 178.023 145.046 L 178.462 145.046 L 178.371 144.643 L 178.154 144.325 L 177.816 144.128 L 177.378 144.053 L 176.893 144.153 L 176.525 144.436 L 176.293 144.895 L 176.213 145.51 L 176.288 146.12 L 176.515 146.574 L 176.873 146.857 L 177.362 146.952 L 177.796 146.877 L 178.134 146.665 L 178.366 146.332 L 178.467 145.888 L 178.043 145.888 L 177.968 146.171 L 177.826 146.383 L 177.625 146.514 L 177.378 146.554 L 177.07 146.488 L 176.848 146.287 L 176.712 145.959 L 176.666 145.495 L 176.712 145.041 L 176.853 144.713 L 177.08 144.512 L 177.378 144.441 L 177.64 144.486 L 177.836 144.602 L 177.968 144.794 L 178.023 145.046 L 178.023 145.046 z M 179.723 145.631 L 181.498 145.631 L 181.503 145.424 L 181.422 144.844 L 181.2 144.411 L 180.847 144.148 L 180.378 144.053 L 179.919 144.153 L 179.566 144.436 L 179.339 144.895 L 179.259 145.5 L 179.334 146.12 L 179.561 146.574 L 179.909 146.857 L 180.363 146.952 L 180.757 146.887 L 181.079 146.715 L 181.316 146.443 L 181.452 146.08 L 181.014 146.08 L 180.923 146.282 L 180.792 146.433 L 180.419 146.554 L 180.131 146.499 L 179.914 146.322 L 179.773 146.035 L 179.723 145.646 L 179.723 145.631 L 179.723 145.631 z M 179.723 145.258 L 179.778 144.91 L 179.914 144.653 L 180.121 144.496 L 180.393 144.441 L 180.661 144.496 L 180.867 144.653 L 180.994 144.91 L 181.039 145.258 L 179.723 145.258 L 179.723 145.258 z" stroke="none" fill-rule="evenodd" fill="rgb(0, 0, 0)"/></g><g stroke="rgb(0, 0, 0)" stroke-width="0.13" stroke-linecap="butt" stroke-linejoin="miter" fill="none"><path d="M 148.959 152.903 L 151.178 152.903 L 151.178 152.48 L 149.423 152.48 L 149.423 151.295 L 150.986 151.295 L 150.986 150.876 L 149.423 150.876 L 149.423 149.827 L 151.138 149.827 L 151.138 149.403 L 148.959 149.403 L 148.959 152.903 L 148.959 152.903 z M 153.735 151.093 L 154.174 151.093 L 154.083 150.689 L 153.866 150.372 L 153.528 150.175 L 153.089 150.099 L 152.605 150.2 L 152.237 150.483 L 152.005 150.942 L 151.924 151.557 L 152 152.167 L 152.227 152.621 L 152.585 152.903 L 153.074 152.999 L 153.508 152.924 L 153.846 152.712 L 154.078 152.379 L 154.179 151.935 L 153.755 151.935 L 153.679 152.218 L 153.538 152.429 L 153.336 152.561 L 153.089 152.601 L 152.782 152.535 L 152.56 152.334 L 152.424 152.006 L 152.378 151.542 L 152.424 151.088 L 152.565 150.76 L 152.792 150.558 L 153.089 150.488 L 153.352 150.533 L 153.548 150.649 L 153.679 150.841 L 153.735 151.093 L 153.735 151.093 z M 155.046 152.903 L 155.49 152.903 L 155.49 151.34 L 155.535 150.982 L 155.682 150.72 L 155.909 150.558 L 156.211 150.498 L 156.453 150.548 L 156.604 150.684 L 156.68 150.911 L 156.705 151.214 L 156.705 152.903 L 157.149 152.903 L 157.149 151.123 L 157.129 150.765 L 157.038 150.468 L 156.741 150.195 L 156.277 150.099 L 156.025 150.135 L 155.808 150.231 L 155.626 150.382 L 155.49 150.589 L 155.49 149.282 L 155.046 149.282 L 155.046 152.903 L 155.046 152.903 z M 158.47 151.678 L 160.246 151.678 L 160.251 151.471 L 160.17 150.891 L 159.948 150.457 L 159.595 150.195 L 159.126 150.099 L 158.667 150.2 L 158.314 150.483 L 158.087 150.942 L 158.007 151.547 L 158.082 152.167 L 158.309 152.621 L 158.657 152.903 L 159.111 152.999 L 159.504 152.934 L 159.827 152.762 L 160.064 152.49 L 160.2 152.127 L 159.762 152.127 L 159.671 152.329 L 159.54 152.48 L 159.166 152.601 L 158.879 152.545 L 158.662 152.369 L 158.521 152.081 L 158.47 151.693 L 158.47 151.678 L 158.47 151.678 z M 158.47 151.305 L 158.526 150.957 L 158.662 150.7 L 158.869 150.543 L 159.141 150.488 L 159.409 150.543 L 159.615 150.7 L 159.741 150.957 L 159.787 151.305 L 158.47 151.305 L 158.47 151.305 z M 162.001 149.656 L 162.001 152.53 L 161.088 152.53 L 161.088 152.903 L 163.352 152.903 L 163.352 152.53 L 162.445 152.53 L 162.445 149.282 L 161.305 149.282 L 161.305 149.656 L 162.001 149.656 L 162.001 149.656 z M 165.037 149.656 L 165.037 152.53 L 164.124 152.53 L 164.124 152.903 L 166.388 152.903 L 166.388 152.53 L 165.481 152.53 L 165.481 149.282 L 164.341 149.282 L 164.341 149.656 L 165.037 149.656 L 165.037 149.656 z M 167.579 151.678 L 169.354 151.678 L 169.359 151.471 L 169.278 150.891 L 169.056 150.457 L 168.703 150.195 L 168.234 150.099 L 167.775 150.2 L 167.422 150.483 L 167.195 150.942 L 167.115 151.547 L 167.19 152.167 L 167.417 152.621 L 167.765 152.903 L 168.219 152.999 L 168.612 152.934 L 168.935 152.762 L 169.172 152.49 L 169.308 152.127 L 168.87 152.127 L 168.779 152.329 L 168.648 152.48 L 168.275 152.601 L 167.987 152.545 L 167.77 152.369 L 167.629 152.081 L 167.579 151.693 L 167.579 151.678 L 167.579 151.678 z M 167.579 151.305 L 167.634 150.957 L 167.77 150.7 L 167.977 150.543 L 168.249 150.488 L 168.517 150.543 L 168.723 150.7 L 168.849 150.957 L 168.895 151.305 L 167.579 151.305 L 167.579 151.305 z M 173.958 152.903 L 174.654 152.903 L 174.654 152.152 L 173.958 152.152 L 173.958 152.903 L 173.958 152.903 z M 173.958 150.947 L 174.654 150.947 L 174.654 150.195 L 173.958 150.195 L 173.958 150.947 L 173.958 150.947 z" stroke="none" fill-rule="evenodd" fill="rgb(0, 0, 0)"/></g><g stroke="rgb(0, 0, 0)" stroke-width="0.13" stroke-linecap="butt" stroke-linejoin="miter" fill="none"><path d="M 183.323 152.903 L 183.782 152.903 L 183.782 149.378 L 183.439 149.378 L 183.349 149.686 L 183.167 149.893 L 182.89 150.014 L 182.506 150.054 L 182.506 150.412 L 183.323 150.412 L 183.323 152.903 L 183.323 152.903 z M 186.102 152.903 L 186.798 152.903 L 186.798 152.152 L 186.102 152.152 L 186.102 152.903 L 186.102 152.903 z M 186.102 150.947 L 186.798 150.947 L 186.798 150.195 L 186.102 150.195 L 186.102 150.947 L 186.102 150.947 z M 189.396 152.903 L 189.854 152.903 L 189.854 149.378 L 189.512 149.378 L 189.421 149.686 L 189.239 149.893 L 188.962 150.014 L 188.579 150.054 L 188.579 150.412 L 189.396 150.412 L 189.396 152.903 L 189.396 152.903 z" stroke="none" fill-rule="evenodd" fill="rgb(0, 0, 0)"/></g></svg>