<?xml version="1.0" encoding="utf-8" ?><!DOCTYPE svg PUBLIC "-//W3C//DTD SVG 1.1//EN" "http://www.w3.org/Graphics/SVG/1.1/DTD/svg11.dtd" 
[ <!ATTLIST svg 
  xmlns:dsy CDATA #FIXED "http://www.3ds.com/print"  
    dsy:text-version CDATA #IMPLIED > 

  <!ATTLIST text 
  xmlns:dsy CDATA #FIXED "http://www.3ds.com/print" 
    dsy:text-version CDATA #IMPLIED > 
]><svg xmlns="http://www.w3.org/2000/svg" xmlns:dsy="http://www.3ds.com/print" dsy:text-version="18000" width="841" height="594" viewBox="0 0 841 594" version="1.1"><g stroke="rgb(0, 0, 0)" stroke-width="0.13" stroke-linecap="butt" stroke-linejoin="miter" fill="none"><path d="M 445 314.5 L 484.268 314.5"/><path d="M 445 279.5 L 484.268 279.5"/></g><g stroke="rgb(0, 0, 0)" stroke-width="0.35" stroke-linecap="butt" stroke-linejoin="miter" fill="none"><path d="M 398 279.5 L 398 314.5"/><path d="M 398 314.5 L 417.5 314.5"/><path d="M 417.5 314.5 L 417.5 308.5"/><path d="M 417.5 308.5 L 423.5 308.5"/><path d="M 423.5 308.5 L 423.5 314.5"/><path d="M 423.5 314.5 L 443 314.5"/><path d="M 443 314.5 L 443 279.5"/><path d="M 408 279.5 L 398 279.5"/><path d="M 443 279.5 L 433 279.5"/><path d="M 408 279.5 A 12.5 12.5 0 1 0 433 279.5"/></g><g stroke="rgb(0, 0, 0)" stroke-width="0.13" stroke-linecap="butt" stroke-linejoin="miter" fill="none"><path d="M 479.169 300.139 L 479.204 300.139 L 479.688 300.058 L 480.051 299.821 L 480.283 299.448 L 480.369 298.954 L 480.283 298.429 L 480.062 298.036 L 479.709 297.784 L 479.255 297.693 L 478.957 297.733 L 478.715 297.844 L 478.528 298.026 L 478.392 298.268 L 478.12 297.94 L 477.686 297.824 L 477.293 297.9 L 476.995 298.117 L 476.809 298.47 L 476.743 298.954 L 476.824 299.408 L 477.046 299.756 L 477.399 299.983 L 477.868 300.058 L 477.903 300.058 L 477.903 299.609 L 477.58 299.569 L 477.348 299.438 L 477.207 299.226 L 477.157 298.929 L 477.197 298.666 L 477.303 298.475 L 477.474 298.359 L 477.706 298.313 L 477.953 298.359 L 478.12 298.48 L 478.221 298.691 L 478.251 298.979 L 478.246 299.176 L 478.644 299.176 L 478.634 298.929 L 478.68 298.611 L 478.801 298.374 L 478.997 298.233 L 479.255 298.182 L 479.547 298.238 L 479.764 298.384 L 479.9 298.616 L 479.946 298.923 L 479.895 299.241 L 479.744 299.473 L 479.502 299.619 L 479.169 299.675 L 479.169 300.139 L 479.169 300.139 z M 479.355 296.383 L 479.769 296.272 L 480.092 296.025 L 480.294 295.662 L 480.369 295.198 L 480.278 294.688 L 480.031 294.29 L 479.638 294.038 L 479.134 293.942 L 478.665 294.028 L 478.296 294.27 L 478.059 294.648 L 477.974 295.137 L 478.034 295.515 L 478.201 295.808 L 477.258 295.667 L 477.258 294.133 L 476.844 294.133 L 476.844 296.004 L 478.7 296.282 L 478.7 295.878 L 478.463 295.586 L 478.377 295.213 L 478.433 294.89 L 478.594 294.643 L 478.841 294.486 L 479.159 294.431 L 479.477 294.486 L 479.724 294.648 L 479.88 294.895 L 479.935 295.213 L 479.9 295.48 L 479.784 295.687 L 479.603 295.838 L 479.355 295.914 L 479.355 296.383 L 479.355 296.383 z" stroke="none" fill-rule="evenodd" fill="rgb(0, 0, 0)"/><path d="M 481.751 312.568 L 482.268 314.5 L 482.786 312.568"/><path d="M 482.786 281.432 L 482.268 279.5 L 481.751 281.432"/><path d="M 482.268 314.5 L 482.268 279.5"/></g></svg>