<?xml version="1.0" encoding="utf-8" ?><!DOCTYPE svg PUBLIC "-//W3C//DTD SVG 1.1//EN" "http://www.w3.org/Graphics/SVG/1.1/DTD/svg11.dtd" 
[ <!ATTLIST svg 
  xmlns:dsy CDATA #FIXED "http://www.3ds.com/print"  
    dsy:text-version CDATA #IMPLIED > 

  <!ATTLIST text 
  xmlns:dsy CDATA #FIXED "http://www.3ds.com/print" 
    dsy:text-version CDATA #IMPLIED > 
]><svg xmlns="http://www.w3.org/2000/svg" xmlns:dsy="http://www.3ds.com/print" dsy:text-version="18000" width="841" height="594" viewBox="0 0 841 594" version="1.1"><g stroke="rgb(0, 0, 0)" stroke-width="0.13" stroke-linecap="butt" stroke-linejoin="miter" fill="none"><path d="M 349.858 370.288 L 322.832 349.717"/><path d="M 463.267 221.29 L 436.241 200.719"/></g><g stroke="rgb(0, 0, 0)" stroke-width="0.35" stroke-linecap="butt" stroke-linejoin="miter" fill="none"><path d="M 401.45 371.499 L 441.45 371.499"/><path d="M 351.45 371.499 L 395.45 371.499"/><path d="M 401.45 371.499 L 401.45 361.499"/><path d="M 401.45 361.499 L 395.45 361.499"/><path d="M 395.45 361.499 L 395.45 371.499"/><path d="M 441.45 371.499 L 462.987 308.568"/><path d="M 455.62 299.705 L 453.677 305.382"/><path d="M 464.93 302.891 L 455.62 299.705"/><path d="M 453.677 305.382 L 462.987 308.568"/><circle cx="461.622" cy="237.819" r="4.20004"/><path d="M 464.859 222.501 L 351.45 371.499"/><path d="M 464.93 302.891 L 489.55 230.952"/><path d="M 489.55 230.952 L 464.859 222.501"/></g><g stroke="rgb(0, 0, 0)" stroke-width="0.13" stroke-linecap="butt" stroke-linejoin="miter" fill="none"><path d="M 373.825 282.722 L 374.103 282.357 L 371.298 280.222 L 371.09 280.495 L 371.28 280.753 L 371.334 281.023 L 371.263 281.317 L 371.063 281.647 L 371.347 281.863 L 371.842 281.213 L 373.825 282.722 L 373.825 282.722 z M 374.263 279.032 L 374.219 279.323 L 374.269 279.582 L 374.398 279.82 L 374.614 280.028 L 375.02 280.236 L 375.437 280.262 L 375.843 280.096 L 376.223 279.738 L 376.463 279.281 L 376.516 278.846 L 376.379 278.45 L 376.074 278.11 L 375.813 277.962 L 375.552 277.897 L 375.285 277.922 L 375.02 278.037 L 375.046 277.803 L 374.999 277.59 L 374.891 277.4 L 374.712 277.226 L 374.379 277.073 L 374.022 277.068 L 373.665 277.228 L 373.337 277.542 L 373.119 277.946 L 373.059 278.332 L 373.157 278.679 L 373.396 278.956 L 373.608 279.085 L 373.82 279.139 L 374.263 279.032 L 374.263 279.032 z M 374.899 279.637 L 374.714 279.439 L 374.642 279.201 L 374.675 278.941 L 374.822 278.672 L 375.039 278.463 L 375.28 278.362 L 375.529 278.368 L 375.773 278.489 L 375.971 278.704 L 376.055 278.951 L 376.03 279.217 L 375.886 279.482 L 375.666 279.695 L 375.416 279.79 L 375.155 279.775 L 374.899 279.637 L 374.899 279.637 z M 373.718 278.599 L 373.566 278.432 L 373.503 278.232 L 373.535 278.016 L 373.658 277.786 L 373.843 277.61 L 374.044 277.522 L 374.253 277.529 L 374.457 277.628 L 374.611 277.801 L 374.678 278.004 L 374.654 278.227 L 374.529 278.449 L 374.341 278.629 L 374.137 278.715 L 373.923 278.704 L 373.718 278.599 L 373.718 278.599 z M 377.981 277.262 L 378.289 276.857 L 377.728 276.22 L 377.287 275.517 L 376.964 274.751 L 376.753 273.913 L 376.42 273.659 L 374.966 275.569 L 375.331 275.847 L 376.492 274.322 L 376.697 275.176 L 377.01 275.94 L 377.434 276.631 L 377.981 277.262 L 377.981 277.262 z M 380.457 274.008 L 380.879 273.455 L 380.281 272.999 L 379.859 273.553 L 380.457 274.008 L 380.457 274.008 z M 382.186 271.738 L 383.643 269.824 L 383.297 269.561 L 382.146 271.074 L 382.021 270.846 L 381.975 270.582 L 382.029 269.92 L 382.089 269.592 L 382.118 269.195 L 382.061 268.854 L 381.906 268.565 L 381.668 268.321 L 381.279 268.132 L 380.871 268.119 L 380.482 268.28 L 380.138 268.607 L 379.913 269.045 L 379.879 269.481 L 380.036 269.899 L 380.384 270.265 L 380.441 270.308 L 380.719 269.943 L 380.686 269.919 L 380.441 269.675 L 380.323 269.414 L 380.326 269.143 L 380.456 268.881 L 380.673 268.679 L 380.905 268.583 L 381.147 268.589 L 381.374 268.699 L 381.537 268.867 L 381.636 269.063 L 381.674 269.295 L 381.66 269.563 L 381.609 269.898 L 381.558 270.481 L 381.612 270.959 L 381.808 271.368 L 382.174 271.729 L 382.186 271.738 L 382.186 271.738 z M 383.71 268.228 L 384.106 268.39 L 384.513 268.389 L 384.893 268.222 L 385.234 267.899 L 385.47 267.439 L 385.515 266.972 L 385.355 266.533 L 385.012 266.151 L 384.586 265.936 L 384.147 265.905 L 383.729 266.063 L 383.365 266.4 L 383.184 266.738 L 383.139 267.071 L 382.474 266.388 L 383.403 265.168 L 383.074 264.917 L 381.94 266.406 L 383.249 267.751 L 383.494 267.43 L 383.482 267.053 L 383.64 266.704 L 383.88 266.481 L 384.158 266.382 L 384.449 266.408 L 384.735 266.556 L 384.955 266.792 L 385.053 267.071 L 385.028 267.362 L 384.88 267.648 L 384.69 267.84 L 384.472 267.934 L 384.236 267.944 L 383.994 267.855 L 383.71 268.228 L 383.71 268.228 z" stroke="none" fill-rule="evenodd" fill="rgb(0, 0, 0)"/><path d="M 437.075 203.781 L 437.833 201.93 L 436.251 203.154"/><path d="M 325.182 349.077 L 324.423 350.928 L 326.005 349.704"/><path d="M 324.423 350.928 L 437.833 201.93"/></g></svg>