<?xml version="1.0" encoding="utf-8" ?><!DOCTYPE svg PUBLIC "-//W3C//DTD SVG 1.1//EN" "http://www.w3.org/Graphics/SVG/1.1/DTD/svg11.dtd" 
[ <!ATTLIST svg 
  xmlns:dsy CDATA #FIXED "http://www.3ds.com/print"  
    dsy:text-version CDATA #IMPLIED > 

  <!ATTLIST text 
  xmlns:dsy CDATA #FIXED "http://www.3ds.com/print" 
    dsy:text-version CDATA #IMPLIED > 
]><svg xmlns="http://www.w3.org/2000/svg" xmlns:dsy="http://www.3ds.com/print" dsy:text-version="18000" width="841" height="594" viewBox="0 0 841 594" version="1.1"><g stroke="rgb(0, 0, 0)" stroke-width="0.13" stroke-linecap="butt" stroke-linejoin="miter" fill="none"><path d="M 349.721 370.297 L 317.17 345.441"/><path d="M 463.512 221.276 L 430.961 196.42"/></g><g stroke="rgb(0, 0, 0)" stroke-width="0.35" stroke-linecap="butt" stroke-linejoin="miter" fill="none"><path d="M 401.311 371.51 L 441.311 371.51"/><path d="M 351.311 371.51 L 395.311 371.51"/><path d="M 401.311 371.51 L 401.311 361.51"/><path d="M 401.311 361.51 L 395.311 361.51"/><path d="M 395.311 361.51 L 395.311 371.51"/><path d="M 441.311 371.51 L 462.952 308.634"/><path d="M 455.491 299.72 L 453.538 305.393"/><path d="M 464.905 302.96 L 455.491 299.72"/><path d="M 453.538 305.393 L 462.952 308.634"/><circle cx="461.654" cy="238.048" r="4.20004"/><path d="M 465.102 222.49 L 351.311 371.51"/><path d="M 464.905 302.96 L 489.689 230.952"/><path d="M 489.689 230.952 L 465.102 222.49"/></g><g stroke="rgb(0, 0, 0)" stroke-width="0.13" stroke-linecap="butt" stroke-linejoin="miter" fill="none"><path d="M 369.476 276.941 L 369.754 276.577 L 366.952 274.437 L 366.744 274.71 L 366.934 274.969 L 366.988 275.238 L 366.916 275.532 L 366.715 275.861 L 367 276.079 L 367.495 275.429 L 369.476 276.941 L 369.476 276.941 z M 369.919 273.252 L 369.876 273.542 L 369.925 273.802 L 370.054 274.04 L 370.269 274.249 L 370.675 274.457 L 371.092 274.484 L 371.498 274.318 L 371.878 273.961 L 372.119 273.504 L 372.172 273.069 L 372.037 272.673 L 371.732 272.333 L 371.471 272.184 L 371.21 272.118 L 370.944 272.143 L 370.678 272.258 L 370.705 272.024 L 370.658 271.811 L 370.55 271.62 L 370.372 271.446 L 370.038 271.293 L 369.681 271.287 L 369.325 271.446 L 368.996 271.76 L 368.777 272.164 L 368.717 272.55 L 368.814 272.897 L 369.053 273.174 L 369.264 273.304 L 369.477 273.358 L 369.919 273.252 L 369.919 273.252 z M 370.555 273.858 L 370.37 273.659 L 370.298 273.421 L 370.332 273.161 L 370.479 272.893 L 370.696 272.684 L 370.938 272.583 L 371.187 272.589 L 371.43 272.711 L 371.628 272.926 L 371.712 273.174 L 371.686 273.44 L 371.542 273.704 L 371.322 273.917 L 371.072 274.012 L 370.811 273.996 L 370.555 273.858 L 370.555 273.858 z M 369.375 272.818 L 369.224 272.651 L 369.161 272.451 L 369.193 272.234 L 369.317 272.005 L 369.502 271.829 L 369.702 271.741 L 369.912 271.749 L 370.116 271.848 L 370.269 272.022 L 370.336 272.225 L 370.312 272.448 L 370.187 272.669 L 369.999 272.849 L 369.794 272.934 L 369.58 272.923 L 369.375 272.818 L 369.375 272.818 z M 373.64 271.488 L 373.949 271.083 L 373.389 270.445 L 372.949 269.742 L 372.627 268.975 L 372.417 268.136 L 372.084 267.882 L 370.628 269.79 L 370.992 270.069 L 372.155 268.546 L 372.36 269.4 L 372.671 270.164 L 373.095 270.855 L 373.64 271.488 L 373.64 271.488 z M 376.122 268.238 L 376.544 267.685 L 375.947 267.228 L 375.524 267.782 L 376.122 268.238 L 376.122 268.238 z M 377.116 265.432 L 377.512 265.595 L 377.918 265.594 L 378.299 265.428 L 378.641 265.105 L 378.878 264.645 L 378.923 264.178 L 378.763 263.739 L 378.421 263.357 L 377.996 263.141 L 377.556 263.11 L 377.138 263.266 L 376.773 263.603 L 376.592 263.94 L 376.547 264.274 L 375.883 263.589 L 376.813 262.371 L 376.485 262.12 L 375.349 263.607 L 376.656 264.954 L 376.901 264.633 L 376.89 264.257 L 377.048 263.908 L 377.288 263.685 L 377.566 263.587 L 377.858 263.612 L 378.144 263.761 L 378.363 263.998 L 378.461 264.276 L 378.435 264.568 L 378.287 264.854 L 378.096 265.045 L 377.879 265.139 L 377.643 265.149 L 377.4 265.059 L 377.116 265.432 L 377.116 265.432 z" stroke="none" fill-rule="evenodd" fill="rgb(0, 0, 0)"/><path d="M 431.79 199.483 L 432.551 197.634 L 430.967 198.855"/><path d="M 319.52 344.805 L 318.759 346.655 L 320.343 345.433"/><path d="M 318.759 346.655 L 432.551 197.634"/></g></svg>