<?xml version="1.0" encoding="utf-8" ?><!DOCTYPE svg PUBLIC "-//W3C//DTD SVG 1.1//EN" "http://www.w3.org/Graphics/SVG/1.1/DTD/svg11.dtd" 
[ <!ATTLIST svg 
  xmlns:dsy CDATA #FIXED "http://www.3ds.com/print"  
    dsy:text-version CDATA #IMPLIED > 

  <!ATTLIST text 
  xmlns:dsy CDATA #FIXED "http://www.3ds.com/print" 
    dsy:text-version CDATA #IMPLIED > 
]><svg xmlns="http://www.w3.org/2000/svg" xmlns:dsy="http://www.3ds.com/print" dsy:text-version="18000" width="420" height="297" viewBox="0 0 420 297" version="1.1"><g stroke="rgb(0, 0, 0)" stroke-width="0.13" stroke-linecap="butt" stroke-linejoin="miter" fill="none"><path d="M 173.687 248.594 L 173.687 268.542"/><path d="M 343.755 248.594 L 343.755 268.542"/></g><g stroke="rgb(0, 0, 0)" stroke-width="0.35" stroke-linecap="butt" stroke-linejoin="miter" fill="none"><path d="M 51.1064 41.2625 L 51.1064 77.2209"/><path d="M 343.755 246.594 L 343.755 216.594"/><path d="M 343.755 211.694 L 343.755 120.845"/><path d="M 251.826 95.8459 L 343.755 120.845"/><path d="M 51.1064 41.2625 L 247.098 94.56"/><path d="M 246.578 115.145 L 241.85 113.859"/><path d="M 246.578 115.145 L 251.826 95.8459"/><path d="M 241.85 113.859 L 247.098 94.56"/><path d="M 173.687 246.594 L 343.755 246.594"/><path d="M 323.755 216.594 L 323.755 211.694"/><path d="M 323.755 216.594 L 343.755 216.594"/><path d="M 343.755 211.694 L 323.755 211.694"/><path d="M 132.165 189.221 L 173.687 246.594"/><path d="M 51.1064 77.2209 L 129.292 185.252"/><path d="M 145.494 173.526 L 129.292 185.252"/><path d="M 148.367 177.495 L 145.494 173.526"/><path d="M 132.165 189.221 L 148.367 177.495"/><circle cx="96.9064" cy="79.6252" r="4.20001"/></g><g stroke="rgb(0, 0, 0)" stroke-width="0.13" stroke-linecap="butt" stroke-linejoin="miter" fill="none"><path d="M 249.29 264.542 L 249.749 264.542 L 249.749 261.017 L 249.406 261.017 L 249.316 261.325 L 249.134 261.531 L 248.857 261.652 L 248.473 261.693 L 248.473 262.051 L 249.29 262.051 L 249.29 264.542 L 249.29 264.542 z M 252.416 264.542 L 252.925 264.542 L 253.092 263.71 L 253.384 262.933 L 253.798 262.212 L 254.338 261.536 L 254.338 261.118 L 251.937 261.118 L 251.937 261.577 L 253.853 261.577 L 253.299 262.258 L 252.88 262.969 L 252.588 263.725 L 252.416 264.542 L 252.416 264.542 z M 255.638 262.833 L 255.713 263.624 L 255.95 264.189 L 256.329 264.532 L 256.853 264.643 L 257.373 264.532 L 257.751 264.189 L 257.983 263.624 L 258.064 262.833 L 257.983 262.046 L 257.887 261.733 L 257.751 261.476 L 257.373 261.133 L 256.853 261.017 L 256.329 261.133 L 255.95 261.481 L 255.713 262.046 L 255.638 262.833 L 255.638 262.833 z M 256.122 262.833 L 256.162 262.222 L 256.288 261.784 L 256.515 261.526 L 256.853 261.436 L 257.186 261.526 L 257.413 261.784 L 257.539 262.222 L 257.579 262.833 L 257.539 263.448 L 257.413 263.887 L 257.186 264.144 L 256.853 264.23 L 256.515 264.144 L 256.288 263.887 L 256.162 263.448 L 256.122 262.833 L 256.122 262.833 z M 260.241 264.542 L 260.937 264.542 L 260.937 263.791 L 260.241 263.791 L 260.241 264.542 L 260.241 264.542 z M 263.11 262.833 L 263.185 263.624 L 263.422 264.189 L 263.801 264.532 L 264.325 264.643 L 264.845 264.532 L 265.223 264.189 L 265.455 263.624 L 265.536 262.833 L 265.455 262.046 L 265.359 261.733 L 265.223 261.476 L 264.845 261.133 L 264.325 261.017 L 263.801 261.133 L 263.422 261.481 L 263.185 262.046 L 263.11 262.833 L 263.11 262.833 z M 263.594 262.833 L 263.634 262.222 L 263.76 261.784 L 263.987 261.526 L 264.325 261.436 L 264.658 261.526 L 264.885 261.784 L 265.011 262.222 L 265.051 262.833 L 265.011 263.448 L 264.885 263.887 L 264.658 264.144 L 264.325 264.23 L 263.987 264.144 L 263.76 263.887 L 263.634 263.448 L 263.594 262.833 L 263.594 262.833 z M 267.36 264.542 L 267.87 264.542 L 268.036 263.71 L 268.329 262.933 L 268.742 262.212 L 269.282 261.536 L 269.282 261.118 L 266.881 261.118 L 266.881 261.577 L 268.798 261.577 L 268.243 262.258 L 267.824 262.969 L 267.532 263.725 L 267.36 264.542 L 267.36 264.542 z" stroke="none" fill-rule="evenodd" fill="rgb(0, 0, 0)"/><path d="M 341.823 267.06 L 343.755 266.542 L 341.823 266.025"/><path d="M 175.619 266.025 L 173.687 266.542 L 175.619 267.06"/><path d="M 173.687 266.542 L 343.755 266.542"/></g></svg>