<?xml version="1.0" encoding="utf-8" ?><!DOCTYPE svg PUBLIC "-//W3C//DTD SVG 1.1//EN" "http://www.w3.org/Graphics/SVG/1.1/DTD/svg11.dtd" 
[ <!ATTLIST svg 
  xmlns:dsy CDATA #FIXED "http://www.3ds.com/print"  
    dsy:text-version CDATA #IMPLIED > 

  <!ATTLIST text 
  xmlns:dsy CDATA #FIXED "http://www.3ds.com/print" 
    dsy:text-version CDATA #IMPLIED > 
]><svg xmlns="http://www.w3.org/2000/svg" xmlns:dsy="http://www.3ds.com/print" dsy:text-version="18000" width="297" height="210" viewBox="0 0 297 210" version="1.1"><g stroke="rgb(0, 0, 0)" stroke-width="0.13" stroke-linecap="butt" stroke-linejoin="miter" fill="none"><path d="M 51.76 80.55 L 51.76 71.9883"/><path d="M 109.26 80.55 L 109.26 71.9883"/></g><g stroke="rgb(0, 0, 0)" stroke-width="0.35" stroke-linecap="butt" stroke-linejoin="miter" fill="none"><path d="M 96.76 127.45 L 51.76 127.45"/><path d="M 96.76 105 L 96.76 127.45"/><path d="M 109.26 92.5 A 12.5 12.5 0 0 0 96.76 105"/><path d="M 109.26 92.5 L 109.26 82.55"/><path d="M 51.76 82.55 L 109.26 82.55"/><path d="M 51.76 102.55 L 51.76 82.55"/><path d="M 71.76 102.55 L 51.76 102.55"/><path d="M 71.76 107.45 L 71.76 102.55"/><path d="M 51.76 107.45 L 71.76 107.45"/><path d="M 51.76 127.45 L 51.76 107.45"/></g><g stroke="rgb(0, 0, 0)" stroke-width="0.13" stroke-linecap="butt" stroke-linejoin="miter" fill="none"><path d="M 73.6552 71.0755 L 73.7662 71.489 L 74.0133 71.8118 L 74.3764 72.0135 L 74.8404 72.0892 L 75.3498 71.9984 L 75.7482 71.7513 L 76.0003 71.3579 L 76.0962 70.8536 L 76.0104 70.3846 L 75.7683 70.0164 L 75.3901 69.7794 L 74.9009 69.6936 L 74.5227 69.7542 L 74.2302 69.9206 L 74.3714 68.9775 L 75.9045 68.9775 L 75.9045 68.564 L 74.0335 68.564 L 73.7561 70.4199 L 74.1596 70.4199 L 74.4521 70.1828 L 74.8253 70.0971 L 75.148 70.1526 L 75.3951 70.314 L 75.5515 70.5611 L 75.607 70.8788 L 75.5515 71.1965 L 75.3901 71.4436 L 75.143 71.6 L 74.8253 71.6555 L 74.558 71.6202 L 74.3512 71.5042 L 74.1999 71.3226 L 74.1243 71.0755 L 73.6552 71.0755 L 73.6552 71.0755 z M 77.941 71.9883 L 78.4503 71.9883 L 78.6168 71.1562 L 78.9093 70.3795 L 79.3228 69.6583 L 79.8624 68.9825 L 79.8624 68.564 L 77.4619 68.564 L 77.4619 69.0229 L 79.3783 69.0229 L 78.8235 69.7037 L 78.405 70.4148 L 78.1124 71.1713 L 77.941 71.9883 L 77.941 71.9883 z M 82.03 71.9883 L 82.726 71.9883 L 82.726 71.2369 L 82.03 71.2369 L 82.03 71.9883 L 82.03 71.9883 z M 84.8633 71.0755 L 84.9743 71.489 L 85.2214 71.8118 L 85.5845 72.0135 L 86.0485 72.0892 L 86.5578 71.9984 L 86.9562 71.7513 L 87.2084 71.3579 L 87.3042 70.8536 L 87.2185 70.3846 L 86.9764 70.0164 L 86.5982 69.7794 L 86.109 69.6936 L 85.7307 69.7542 L 85.4382 69.9206 L 85.5794 68.9775 L 87.1126 68.9775 L 87.1126 68.564 L 85.2415 68.564 L 84.9642 70.4199 L 85.3676 70.4199 L 85.6601 70.1828 L 86.0333 70.0971 L 86.3561 70.1526 L 86.6032 70.314 L 86.7596 70.5611 L 86.815 70.8788 L 86.7596 71.1965 L 86.5982 71.4436 L 86.3511 71.6 L 86.0333 71.6555 L 85.766 71.6202 L 85.5593 71.5042 L 85.408 71.3226 L 85.3323 71.0755 L 84.8633 71.0755 L 84.8633 71.0755 z" stroke="none" fill-rule="evenodd" fill="rgb(0, 0, 0)"/><path d="M 107.328 74.506 L 109.26 73.9883 L 107.328 73.4707"/><path d="M 53.6918 73.4707 L 51.76 73.9883 L 53.6918 74.506"/><path d="M 51.76 73.9883 L 109.26 73.9883"/></g></svg>