<?xml version="1.0" encoding="utf-8" ?><!DOCTYPE svg PUBLIC "-//W3C//DTD SVG 1.1//EN" "http://www.w3.org/Graphics/SVG/1.1/DTD/svg11.dtd" 
[ <!ATTLIST svg 
  xmlns:dsy CDATA #FIXED "http://www.3ds.com/print"  
    dsy:text-version CDATA #IMPLIED > 

  <!ATTLIST text 
  xmlns:dsy CDATA #FIXED "http://www.3ds.com/print" 
    dsy:text-version CDATA #IMPLIED > 
]><svg xmlns="http://www.w3.org/2000/svg" xmlns:dsy="http://www.3ds.com/print" dsy:text-version="18000" width="297" height="210" viewBox="0 0 297 210" version="1.1"><g stroke="rgb(0, 0, 0)" stroke-width="0.13" stroke-linecap="butt" stroke-linejoin="miter" fill="none"><path d="M 48.76 80.55 L 48.76 73.4756"/><path d="M 108.76 80.55 L 108.76 73.4756"/></g><g stroke="rgb(0, 0, 0)" stroke-width="0.35" stroke-linecap="butt" stroke-linejoin="miter" fill="none"><path d="M 48.76 127.45 L 93.76 127.45"/><path d="M 93.76 105 L 93.76 127.45"/><path d="M 108.76 90 A 15 15 0 0 0 93.76 105"/><path d="M 108.76 90 L 108.76 82.55"/><path d="M 48.76 82.55 L 108.76 82.55"/><path d="M 48.76 102.55 L 48.76 82.55"/><path d="M 68.76 102.55 L 48.76 102.55"/><path d="M 68.76 107.45 L 68.76 102.55"/><path d="M 48.76 107.45 L 68.76 107.45"/><path d="M 48.76 127.45 L 48.76 107.45"/></g><g stroke="rgb(0, 0, 0)" stroke-width="0.13" stroke-linecap="butt" stroke-linejoin="miter" fill="none"><path d="M 78.1024 70.9187 L 78.0065 70.5102 L 77.7846 70.2076 L 77.4417 70.0159 L 76.9979 69.9504 L 76.7003 69.9857 L 76.4431 70.0815 L 76.2162 70.2379 L 76.0245 70.4597 L 75.8733 70.7371 L 75.7623 71.075 L 75.6917 71.4734 L 75.6715 71.9223 L 75.7522 72.6384 L 75.9993 73.1579 L 76.3977 73.4706 L 76.9424 73.5765 L 77.4316 73.4857 L 77.8048 73.2487 L 78.0469 72.8755 L 78.1326 72.4014 L 78.0469 71.9223 L 77.8149 71.5541 L 77.4568 71.3221 L 77.013 71.2415 L 76.5339 71.3423 L 76.1758 71.6298 L 76.2515 71.075 L 76.4129 70.6766 L 76.66 70.4396 L 77.0029 70.3589 L 77.2551 70.3992 L 77.4467 70.5051 L 77.5728 70.6817 L 77.6384 70.9187 L 78.1024 70.9187 L 78.1024 70.9187 z M 77.6434 72.4064 L 77.5879 72.7242 L 77.4467 72.9662 L 77.2198 73.1276 L 76.9374 73.1781 L 76.6398 73.1276 L 76.4129 72.9713 L 76.2666 72.7292 L 76.2212 72.4115 L 76.2717 72.0988 L 76.4129 71.8618 L 76.6449 71.7105 L 76.9575 71.655 L 77.2299 71.7105 L 77.4467 71.8567 L 77.5879 72.0938 L 77.6434 72.4064 L 77.6434 72.4064 z M 79.4126 71.7659 L 79.4882 72.5577 L 79.7253 73.1226 L 80.1035 73.4655 L 80.628 73.5765 L 81.1475 73.4655 L 81.5257 73.1226 L 81.7577 72.5577 L 81.8384 71.7659 L 81.7577 70.9792 L 81.6619 70.6665 L 81.5257 70.4093 L 81.1475 70.0664 L 80.628 69.9504 L 80.1035 70.0664 L 79.7253 70.4144 L 79.4882 70.9792 L 79.4126 71.7659 L 79.4126 71.7659 z M 79.8967 71.7659 L 79.9371 71.1557 L 80.0632 70.7169 L 80.2901 70.4597 L 80.628 70.369 L 80.9609 70.4597 L 81.1878 70.7169 L 81.3139 71.1557 L 81.3542 71.7659 L 81.3139 72.3812 L 81.1878 72.82 L 80.9609 73.0772 L 80.628 73.1629 L 80.2901 73.0772 L 80.0632 72.82 L 79.9371 72.3812 L 79.8967 71.7659 L 79.8967 71.7659 z" stroke="none" fill-rule="evenodd" fill="rgb(0, 0, 0)"/><path d="M 106.828 75.9932 L 108.76 75.4756 L 106.828 74.958"/><path d="M 50.6918 74.958 L 48.76 75.4756 L 50.6918 75.9932"/><path d="M 48.76 75.4756 L 108.76 75.4756"/></g></svg>