<?xml version="1.0" encoding="utf-8" ?><!DOCTYPE svg PUBLIC "-//W3C//DTD SVG 1.1//EN" "http://www.w3.org/Graphics/SVG/1.1/DTD/svg11.dtd" 
[ <!ATTLIST svg 
  xmlns:dsy CDATA #FIXED "http://www.3ds.com/print"  
    dsy:text-version CDATA #IMPLIED > 

  <!ATTLIST text 
  xmlns:dsy CDATA #FIXED "http://www.3ds.com/print" 
    dsy:text-version CDATA #IMPLIED > 
]><svg xmlns="http://www.w3.org/2000/svg" xmlns:dsy="http://www.3ds.com/print" dsy:text-version="18000" width="297" height="210" viewBox="0 0 297 210" version="1.1"><g stroke="rgb(0, 0, 0)" stroke-width="0.35" stroke-linecap="butt" stroke-linejoin="miter" fill="none"><path d="M 161.101 136.608 L 161.101 125.508"/><path d="M 161.101 86.2209 L 161.101 75.0991"/><path d="M 148.892 125.508 L 148.892 120.608"/><path d="M 161.101 125.508 L 148.892 125.508"/><path d="M 148.892 120.608 L 161.101 120.608"/><path d="M 144.67 74.6295 L 144.81 69.7315"/><path d="M 161.101 75.0991 L 144.67 74.6295"/><path d="M 144.81 69.7315 L 161.101 70.1971"/><path d="M 144.225 90.6406 L 144.365 85.7426"/><path d="M 161.101 91.123 L 144.225 90.6406"/><path d="M 144.365 85.7426 L 161.101 86.2209"/><path d="M 148.892 141.508 L 148.892 136.608"/><path d="M 161.101 141.508 L 148.892 141.508"/><path d="M 148.892 136.608 L 161.101 136.608"/><path d="M 161.101 70.1971 L 161.101 63.9991"/><path d="M 161.101 95.5383 L 161.101 91.123"/><path d="M 161.101 120.608 L 161.101 116.039"/><path d="M 161.101 146.001 L 161.101 141.508"/><path d="M 161.101 63.9991 L 135.899 63.9991"/><path d="M 135.899 63.9991 L 135.899 146.001"/><path d="M 135.899 146.001 L 161.101 146.001"/><path d="M 161.101 116.039 L 145.722 116.039"/><path d="M 145.722 116.039 L 145.722 95.5383"/><path d="M 145.722 95.5383 L 161.101 95.5383"/></g></svg>