<?xml version="1.0" encoding="utf-8" ?><!DOCTYPE svg PUBLIC "-//W3C//DTD SVG 1.1//EN" "http://www.w3.org/Graphics/SVG/1.1/DTD/svg11.dtd" 
[ <!ATTLIST svg 
  xmlns:dsy CDATA #FIXED "http://www.3ds.com/print"  
    dsy:text-version CDATA #IMPLIED > 

  <!ATTLIST text 
  xmlns:dsy CDATA #FIXED "http://www.3ds.com/print" 
    dsy:text-version CDATA #IMPLIED > 
]><svg xmlns="http://www.w3.org/2000/svg" xmlns:dsy="http://www.3ds.com/print" dsy:text-version="18000" width="420" height="297" viewBox="0 0 420 297" version="1.1"><g stroke="rgb(0, 0, 0)" stroke-width="0.13" stroke-linecap="butt" stroke-linejoin="miter" fill="none"><path d="M 224.319 106.618 L 244.727 106.529"/><path d="M 224.681 190.257 L 245.09 190.168"/></g><g stroke="rgb(0, 0, 0)" stroke-width="0.35" stroke-linecap="butt" stroke-linejoin="miter" fill="none"><path d="M 222.681 190.265 L 197.681 190.374"/><path d="M 197.681 190.374 L 197.484 182.376"/><path d="M 197.484 182.376 L 209.484 182.31"/><path d="M 209.484 182.31 L 209.484 176.31"/><path d="M 209.484 176.31 L 197.486 176.51"/><path d="M 197.486 176.51 L 197.485 168.494"/><path d="M 197.485 168.494 L 209.485 168.494"/><path d="M 209.485 168.494 L 209.485 162.494"/><path d="M 209.485 162.494 L 197.485 162.494"/><path d="M 197.485 162.494 L 197.485 156.494"/><path d="M 197.485 156.494 L 212.485 156.428"/><path d="M 212.485 156.428 L 212.456 138.343"/><path d="M 212.456 138.343 L 197.456 138.408"/><path d="M 197.456 138.408 L 197.43 132.408"/><path d="M 197.43 132.408 L 212.43 132.343"/><path d="M 212.43 132.343 L 212.404 126.343"/><path d="M 212.404 126.343 L 197.404 126.408"/><path d="M 197.404 126.408 L 197.371 118.734"/><path d="M 197.371 118.734 L 212.371 118.669"/><path d="M 212.371 118.669 L 212.345 112.669"/><path d="M 212.345 112.669 L 197.345 112.734"/><path d="M 197.345 112.734 L 197.319 106.735"/><path d="M 197.319 106.735 L 222.319 106.626"/><path d="M 222.319 106.626 L 222.681 190.265"/></g><g stroke="rgb(0, 0, 0)" stroke-width="0.13" stroke-linecap="butt" stroke-linejoin="miter" fill="none"><path d="M 246.76 140.243 L 246.617 139.987 L 246.42 139.811 L 246.172 139.701 L 245.875 139.667 L 245.426 139.75 L 245.079 139.983 L 244.859 140.362 L 244.775 140.877 L 244.863 141.386 L 245.087 141.763 L 245.436 141.994 L 245.885 142.078 L 246.182 142.036 L 246.429 141.929 L 246.625 141.747 L 246.765 141.494 L 246.887 141.695 L 247.054 141.836 L 247.256 141.92 L 247.503 141.95 L 247.861 141.867 L 248.148 141.654 L 248.333 141.311 L 248.401 140.861 L 248.329 140.408 L 248.141 140.066 L 247.852 139.85 L 247.494 139.776 L 247.247 139.802 L 247.046 139.889 L 246.76 140.243 L 246.76 140.243 z M 245.887 140.151 L 246.154 140.195 L 246.357 140.341 L 246.489 140.567 L 246.535 140.87 L 246.491 141.167 L 246.361 141.395 L 246.16 141.542 L 245.893 141.594 L 245.605 141.544 L 245.388 141.399 L 245.246 141.173 L 245.199 140.875 L 245.243 140.573 L 245.383 140.345 L 245.6 140.198 L 245.887 140.151 L 245.887 140.151 z M 247.456 140.255 L 247.678 140.295 L 247.85 140.415 L 247.957 140.606 L 247.998 140.863 L 247.959 141.116 L 247.854 141.308 L 247.683 141.429 L 247.461 141.476 L 247.234 141.431 L 247.057 141.311 L 246.94 141.12 L 246.904 140.868 L 246.943 140.611 L 247.053 140.418 L 247.229 140.297 L 247.456 140.255 L 247.456 140.255 z M 245.986 143.337 L 245.951 143.337 L 245.467 143.42 L 245.105 143.659 L 244.875 144.033 L 244.791 144.527 L 244.879 145.052 L 245.103 145.444 L 245.457 145.695 L 245.911 145.783 L 246.209 145.742 L 246.45 145.63 L 246.636 145.447 L 246.771 145.205 L 247.045 145.531 L 247.479 145.645 L 247.872 145.568 L 248.169 145.35 L 248.354 144.996 L 248.417 144.512 L 248.335 144.058 L 248.111 143.711 L 247.757 143.486 L 247.288 143.412 L 247.253 143.412 L 247.255 143.861 L 247.577 143.9 L 247.81 144.03 L 247.952 144.241 L 248.004 144.539 L 247.965 144.801 L 247.86 144.993 L 247.689 145.11 L 247.457 145.156 L 247.21 145.112 L 247.043 144.992 L 246.941 144.78 L 246.909 144.493 L 246.913 144.296 L 246.515 144.298 L 246.526 144.545 L 246.482 144.863 L 246.362 145.101 L 246.166 145.243 L 245.909 145.294 L 245.616 145.24 L 245.399 145.095 L 245.262 144.863 L 245.215 144.556 L 245.264 144.238 L 245.414 144.005 L 245.656 143.858 L 245.988 143.801 L 245.986 143.337 L 245.986 143.337 z M 244.907 148.001 L 244.91 148.697 L 245.662 148.693 L 245.659 147.997 L 244.907 148.001 L 244.907 148.001 z M 247.487 153.284 L 247.895 153.186 L 248.197 152.963 L 248.387 152.619 L 248.451 152.175 L 248.414 151.878 L 248.317 151.621 L 248.16 151.395 L 247.937 151.204 L 247.659 151.054 L 247.321 150.945 L 246.922 150.876 L 246.473 150.858 L 245.757 150.941 L 245.239 151.191 L 244.928 151.59 L 244.824 152.136 L 244.917 152.624 L 245.156 152.997 L 245.53 153.237 L 246.004 153.321 L 246.483 153.233 L 246.85 152.999 L 247.081 152.64 L 247.16 152.196 L 247.057 151.717 L 246.768 151.361 L 247.323 151.434 L 247.722 151.593 L 247.96 151.84 L 248.042 152.182 L 248.003 152.434 L 247.898 152.627 L 247.722 152.753 L 247.485 152.82 L 247.487 153.284 L 247.487 153.284 z M 245.997 152.832 L 245.679 152.777 L 245.437 152.637 L 245.274 152.411 L 245.223 152.129 L 245.272 151.831 L 245.427 151.603 L 245.669 151.456 L 245.986 151.409 L 246.299 151.458 L 246.537 151.599 L 246.689 151.83 L 246.746 152.142 L 246.691 152.415 L 246.546 152.632 L 246.31 152.775 L 245.997 152.832 L 245.997 152.832 z M 244.942 156.098 L 244.944 156.552 L 245.812 156.548 L 245.814 157.047 L 246.217 157.046 L 246.215 156.546 L 248.369 156.537 L 248.367 156.078 L 246.247 154.554 L 245.803 154.556 L 245.81 156.094 L 244.942 156.098 L 244.942 156.098 z M 246.208 154.978 L 247.782 156.086 L 246.213 156.093 L 246.208 154.978 L 246.208 154.978 z" stroke="none" fill-rule="evenodd" fill="rgb(0, 0, 0)"/><path d="M 243.253 108.467 L 242.727 106.538 L 242.218 108.472"/><path d="M 242.564 188.247 L 243.09 190.177 L 243.599 188.243"/><path d="M 242.727 106.538 L 243.09 190.177"/></g><g stroke="rgb(0, 0, 0)" stroke-width="0.13" stroke-linecap="butt" stroke-linejoin="miter" fill="none"><path d="M 212.396 198.725 L 211.518 201.706 L 210.615 198.725 L 210.136 198.725 L 211.266 202.23 L 211.77 202.23 L 212.875 198.725 L 212.396 198.725 L 212.396 198.725 z M 215.598 199.522 L 215.154 199.522 L 215.154 201.086 L 215.104 201.449 L 214.957 201.711 L 214.731 201.872 L 214.433 201.923 L 214.196 201.882 L 214.045 201.761 L 213.959 201.555 L 213.939 201.262 L 213.939 199.522 L 213.495 199.522 L 213.495 201.302 L 213.51 201.661 L 213.606 201.958 L 213.898 202.23 L 214.367 202.326 L 214.62 202.291 L 214.836 202.2 L 215.023 202.044 L 215.174 201.817 L 215.174 202.23 L 215.598 202.23 L 215.598 199.522 L 215.598 199.522 z M 216.934 201.005 L 218.71 201.005 L 218.715 200.798 L 218.634 200.218 L 218.412 199.784 L 218.059 199.522 L 217.59 199.426 L 217.131 199.527 L 216.778 199.81 L 216.551 200.269 L 216.47 200.874 L 216.546 201.494 L 216.773 201.948 L 217.121 202.23 L 217.575 202.326 L 217.968 202.261 L 218.291 202.089 L 218.528 201.817 L 218.664 201.454 L 218.226 201.454 L 218.135 201.655 L 218.004 201.807 L 217.63 201.928 L 217.343 201.872 L 217.126 201.696 L 216.985 201.408 L 216.934 201.02 L 216.934 201.005 L 216.934 201.005 z M 216.934 200.632 L 216.99 200.284 L 217.126 200.027 L 217.333 199.87 L 217.605 199.815 L 217.872 199.87 L 218.079 200.027 L 218.205 200.284 L 218.251 200.632 L 216.934 200.632 L 216.934 200.632 z M 224.282 201.812 L 224.282 202.23 L 224.726 202.23 L 224.726 198.609 L 224.287 198.609 L 224.287 199.936 L 223.95 199.552 L 223.743 199.462 L 223.506 199.426 L 223.077 199.527 L 222.744 199.81 L 222.527 200.264 L 222.452 200.874 L 222.527 201.484 L 222.744 201.943 L 223.077 202.23 L 223.506 202.326 L 223.743 202.291 L 223.955 202.2 L 224.282 201.812 L 224.282 201.812 z M 223.581 199.825 L 223.874 199.895 L 224.096 200.092 L 224.227 200.42 L 224.277 200.874 L 224.227 201.333 L 224.096 201.661 L 223.874 201.862 L 223.581 201.928 L 223.304 201.862 L 223.092 201.661 L 222.951 201.328 L 222.906 200.874 L 222.951 200.425 L 223.092 200.097 L 223.304 199.895 L 223.581 199.825 L 223.581 199.825 z M 226.043 201.005 L 227.818 201.005 L 227.823 200.798 L 227.742 200.218 L 227.52 199.784 L 227.167 199.522 L 226.698 199.426 L 226.239 199.527 L 225.886 199.81 L 225.659 200.269 L 225.579 200.874 L 225.654 201.494 L 225.881 201.948 L 226.229 202.23 L 226.683 202.326 L 227.076 202.261 L 227.399 202.089 L 227.636 201.817 L 227.772 201.454 L 227.334 201.454 L 227.243 201.655 L 227.112 201.807 L 226.738 201.928 L 226.451 201.872 L 226.234 201.696 L 226.093 201.408 L 226.043 201.02 L 226.043 201.005 L 226.043 201.005 z M 226.043 200.632 L 226.098 200.284 L 226.234 200.027 L 226.441 199.87 L 226.713 199.815 L 226.981 199.87 L 227.187 200.027 L 227.313 200.284 L 227.359 200.632 L 226.043 200.632 L 226.043 200.632 z M 232.342 199.991 L 232.342 202.23 L 232.785 202.23 L 232.785 199.991 L 233.794 199.991 L 233.794 199.613 L 232.785 199.613 L 232.785 199.447 L 232.821 199.245 L 232.937 199.109 L 233.133 199.028 L 233.416 198.998 L 233.794 199.018 L 233.794 198.635 L 233.315 198.609 L 232.881 198.655 L 232.579 198.791 L 232.397 199.028 L 232.342 199.366 L 232.342 199.613 L 231.53 199.613 L 231.53 199.991 L 232.342 199.991 L 232.342 199.991 z M 236.371 201.877 L 236.371 201.893 L 236.396 202.064 L 236.472 202.185 L 236.79 202.281 L 237.037 202.24 L 237.037 201.898 L 236.931 201.913 L 236.79 201.847 L 236.764 201.645 L 236.764 200.243 L 236.704 199.885 L 236.527 199.633 L 236.22 199.482 L 235.786 199.426 L 235.362 199.487 L 235.05 199.658 L 234.853 199.926 L 234.787 200.279 L 234.787 200.309 L 235.186 200.309 L 235.221 200.097 L 235.332 199.946 L 235.514 199.855 L 235.771 199.82 L 236.018 199.845 L 236.195 199.921 L 236.3 200.052 L 236.336 200.233 L 236.316 200.445 L 236.235 200.551 L 236.033 200.601 L 235.655 200.642 L 235.221 200.733 L 234.914 200.894 L 234.732 201.146 L 234.677 201.519 L 234.727 201.852 L 234.883 202.099 L 235.135 202.256 L 235.483 202.311 L 235.952 202.205 L 236.371 201.877 L 236.371 201.877 z M 236.321 201.282 L 236.26 201.545 L 236.099 201.746 L 235.857 201.877 L 235.559 201.923 L 235.367 201.898 L 235.231 201.817 L 235.146 201.676 L 235.12 201.479 L 235.141 201.302 L 235.221 201.176 L 235.544 201.035 L 235.952 200.975 L 236.321 200.854 L 236.321 201.282 L 236.321 201.282 z M 239.523 200.42 L 239.962 200.42 L 239.871 200.016 L 239.654 199.699 L 239.316 199.502 L 238.878 199.426 L 238.393 199.527 L 238.025 199.81 L 237.793 200.269 L 237.713 200.884 L 237.788 201.494 L 238.015 201.948 L 238.373 202.23 L 238.862 202.326 L 239.296 202.251 L 239.634 202.039 L 239.866 201.706 L 239.967 201.262 L 239.543 201.262 L 239.468 201.545 L 239.326 201.756 L 239.125 201.887 L 238.878 201.928 L 238.57 201.862 L 238.348 201.661 L 238.212 201.333 L 238.166 200.869 L 238.212 200.415 L 238.353 200.087 L 238.58 199.885 L 238.878 199.815 L 239.14 199.86 L 239.336 199.976 L 239.468 200.168 L 239.523 200.42 L 239.523 200.42 z M 241.223 201.005 L 242.998 201.005 L 243.003 200.798 L 242.922 200.218 L 242.7 199.784 L 242.347 199.522 L 241.878 199.426 L 241.419 199.527 L 241.066 199.81 L 240.839 200.269 L 240.759 200.874 L 240.834 201.494 L 241.061 201.948 L 241.409 202.23 L 241.863 202.326 L 242.257 202.261 L 242.579 202.089 L 242.816 201.817 L 242.952 201.454 L 242.514 201.454 L 242.423 201.655 L 242.292 201.807 L 241.919 201.928 L 241.631 201.872 L 241.414 201.696 L 241.273 201.408 L 241.223 201.02 L 241.223 201.005 L 241.223 201.005 z M 241.223 200.632 L 241.278 200.284 L 241.414 200.027 L 241.621 199.87 L 241.893 199.815 L 242.161 199.87 L 242.367 200.027 L 242.494 200.284 L 242.539 200.632 L 241.223 200.632 L 241.223 200.632 z" stroke="none" fill-rule="evenodd" fill="rgb(0, 0, 0)"/></g><g stroke="rgb(0, 0, 0)" stroke-width="0.13" stroke-linecap="butt" stroke-linejoin="miter" fill="none"><path d="M 210.459 208.277 L 212.678 208.277 L 212.678 207.854 L 210.923 207.854 L 210.923 206.668 L 212.486 206.668 L 212.486 206.25 L 210.923 206.25 L 210.923 205.201 L 212.638 205.201 L 212.638 204.777 L 210.459 204.777 L 210.459 208.277 L 210.459 208.277 z M 215.235 206.467 L 215.674 206.467 L 215.583 206.063 L 215.366 205.746 L 215.028 205.549 L 214.589 205.473 L 214.105 205.574 L 213.737 205.856 L 213.505 206.315 L 213.424 206.931 L 213.5 207.541 L 213.727 207.995 L 214.085 208.277 L 214.574 208.373 L 215.008 208.297 L 215.346 208.086 L 215.578 207.753 L 215.679 207.309 L 215.255 207.309 L 215.179 207.591 L 215.038 207.803 L 214.836 207.934 L 214.589 207.975 L 214.282 207.909 L 214.06 207.707 L 213.924 207.38 L 213.878 206.916 L 213.924 206.462 L 214.065 206.134 L 214.292 205.932 L 214.589 205.862 L 214.852 205.907 L 215.048 206.023 L 215.179 206.215 L 215.235 206.467 L 215.235 206.467 z M 216.546 208.277 L 216.99 208.277 L 216.99 206.714 L 217.035 206.356 L 217.182 206.094 L 217.409 205.932 L 217.711 205.872 L 217.953 205.922 L 218.104 206.058 L 218.18 206.285 L 218.205 206.588 L 218.205 208.277 L 218.649 208.277 L 218.649 206.497 L 218.629 206.139 L 218.538 205.841 L 218.241 205.569 L 217.777 205.473 L 217.525 205.509 L 217.308 205.604 L 217.126 205.756 L 216.99 205.962 L 216.99 204.656 L 216.546 204.656 L 216.546 208.277 L 216.546 208.277 z M 219.97 207.052 L 221.746 207.052 L 221.751 206.845 L 221.67 206.265 L 221.448 205.831 L 221.095 205.569 L 220.626 205.473 L 220.167 205.574 L 219.814 205.856 L 219.587 206.315 L 219.507 206.921 L 219.582 207.541 L 219.809 207.995 L 220.157 208.277 L 220.611 208.373 L 221.004 208.308 L 221.327 208.136 L 221.564 207.864 L 221.7 207.501 L 221.262 207.501 L 221.171 207.702 L 221.04 207.854 L 220.666 207.975 L 220.379 207.919 L 220.162 207.743 L 220.021 207.455 L 219.97 207.067 L 219.97 207.052 L 219.97 207.052 z M 219.97 206.679 L 220.026 206.331 L 220.162 206.073 L 220.369 205.917 L 220.641 205.862 L 220.909 205.917 L 221.115 206.073 L 221.241 206.331 L 221.287 206.679 L 219.97 206.679 L 219.97 206.679 z M 223.501 205.029 L 223.501 207.904 L 222.588 207.904 L 222.588 208.277 L 224.852 208.277 L 224.852 207.904 L 223.945 207.904 L 223.945 204.656 L 222.805 204.656 L 222.805 205.029 L 223.501 205.029 L 223.501 205.029 z M 226.537 205.029 L 226.537 207.904 L 225.624 207.904 L 225.624 208.277 L 227.888 208.277 L 227.888 207.904 L 226.981 207.904 L 226.981 204.656 L 225.841 204.656 L 225.841 205.029 L 226.537 205.029 L 226.537 205.029 z M 229.079 207.052 L 230.854 207.052 L 230.859 206.845 L 230.778 206.265 L 230.556 205.831 L 230.203 205.569 L 229.734 205.473 L 229.275 205.574 L 228.922 205.856 L 228.695 206.315 L 228.615 206.921 L 228.69 207.541 L 228.917 207.995 L 229.265 208.277 L 229.719 208.373 L 230.112 208.308 L 230.435 208.136 L 230.672 207.864 L 230.808 207.501 L 230.37 207.501 L 230.279 207.702 L 230.148 207.854 L 229.775 207.975 L 229.487 207.919 L 229.27 207.743 L 229.129 207.455 L 229.079 207.067 L 229.079 207.052 L 229.079 207.052 z M 229.079 206.679 L 229.134 206.331 L 229.27 206.073 L 229.477 205.917 L 229.749 205.862 L 230.017 205.917 L 230.223 206.073 L 230.349 206.331 L 230.395 206.679 L 229.079 206.679 L 229.079 206.679 z M 235.458 208.277 L 236.154 208.277 L 236.154 207.526 L 235.458 207.526 L 235.458 208.277 L 235.458 208.277 z M 235.458 206.32 L 236.154 206.32 L 236.154 205.569 L 235.458 205.569 L 235.458 206.32 L 235.458 206.32 z" stroke="none" fill-rule="evenodd" fill="rgb(0, 0, 0)"/></g><g stroke="rgb(0, 0, 0)" stroke-width="0.13" stroke-linecap="butt" stroke-linejoin="miter" fill="none"><path d="M 244.823 208.277 L 245.282 208.277 L 245.282 204.752 L 244.939 204.752 L 244.849 205.06 L 244.667 205.266 L 244.39 205.387 L 244.006 205.428 L 244.006 205.786 L 244.823 205.786 L 244.823 208.277 L 244.823 208.277 z M 247.602 208.277 L 248.298 208.277 L 248.298 207.526 L 247.602 207.526 L 247.602 208.277 L 247.602 208.277 z M 247.602 206.32 L 248.298 206.32 L 248.298 205.569 L 247.602 205.569 L 247.602 206.32 L 247.602 206.32 z M 250.896 208.277 L 251.354 208.277 L 251.354 204.752 L 251.012 204.752 L 250.921 205.06 L 250.739 205.266 L 250.462 205.387 L 250.079 205.428 L 250.079 205.786 L 250.896 205.786 L 250.896 208.277 L 250.896 208.277 z" stroke="none" fill-rule="evenodd" fill="rgb(0, 0, 0)"/></g></svg>