<?xml version="1.0" encoding="utf-8" ?><!DOCTYPE svg PUBLIC "-//W3C//DTD SVG 1.1//EN" "http://www.w3.org/Graphics/SVG/1.1/DTD/svg11.dtd" 
[ <!ATTLIST svg 
  xmlns:dsy CDATA #FIXED "http://www.3ds.com/print"  
    dsy:text-version CDATA #IMPLIED > 

  <!ATTLIST text 
  xmlns:dsy CDATA #FIXED "http://www.3ds.com/print" 
    dsy:text-version CDATA #IMPLIED > 
]><svg xmlns="http://www.w3.org/2000/svg" xmlns:dsy="http://www.3ds.com/print" dsy:text-version="18000" width="297" height="210" viewBox="0 0 297 210" version="1.1"><g stroke="rgb(0, 0, 0)" stroke-width="0.35" stroke-linecap="butt" stroke-linejoin="miter" fill="none"><path d="M 126.233 89.2469 L 125.966 94.1396"/><path d="M 117.065 72.7235 L 116.799 77.6163"/><path d="M 145.423 137.651 L 145.423 142.551"/><path d="M 145.423 121.651 L 145.423 126.551"/><path d="M 145.423 126.551 L 135.891 126.551"/><path d="M 135.891 121.651 L 145.423 121.651"/><path d="M 145.423 142.551 L 135.891 142.551"/><path d="M 135.891 137.651 L 145.423 137.651"/><path d="M 117.065 72.7235 L 108.471 72.2553"/><path d="M 116.799 77.6163 L 108.471 77.1626"/><path d="M 180.625 141.663 A 10 10 0 0 0 160.746 141.663"/><path d="M 125.966 94.1396 L 108.471 93.1864"/><path d="M 108.471 88.2791 L 126.233 89.2469"/><path d="M 108.471 77.1626 L 108.471 88.2791"/><path d="M 108.471 93.1864 L 108.471 102.505"/><path d="M 108.471 102.505 L 135.891 102.505"/><path d="M 135.891 102.505 L 135.891 121.651"/><path d="M 135.891 126.551 L 135.891 137.651"/><path d="M 135.891 142.551 L 135.891 147.408"/><path d="M 135.891 147.408 L 153.774 147.408"/><path d="M 153.774 147.408 L 153.774 141.663"/><path d="M 153.774 141.663 L 160.746 141.663"/><path d="M 180.625 141.663 L 188.529 141.663"/><path d="M 188.529 112.927 L 188.529 141.663"/><path d="M 188.529 112.927 L 154.569 112.927"/><path d="M 154.569 112.927 L 154.569 62.5923"/><path d="M 154.569 62.5923 L 108.471 62.5923"/><path d="M 108.471 62.5923 L 108.471 72.2553"/></g></svg>