<?xml version="1.0" encoding="utf-8" ?><!DOCTYPE svg PUBLIC "-//W3C//DTD SVG 1.1//EN" "http://www.w3.org/Graphics/SVG/1.1/DTD/svg11.dtd" 
[ <!ATTLIST svg 
  xmlns:dsy CDATA #FIXED "http://www.3ds.com/print"  
    dsy:text-version CDATA #IMPLIED > 

  <!ATTLIST text 
  xmlns:dsy CDATA #FIXED "http://www.3ds.com/print" 
    dsy:text-version CDATA #IMPLIED > 
]><svg xmlns="http://www.w3.org/2000/svg" xmlns:dsy="http://www.3ds.com/print" dsy:text-version="18000" width="594" height="420" viewBox="0 0 594 420" version="1.1"><g stroke="rgb(0, 0, 0)" stroke-width="0.13" stroke-linecap="butt" stroke-linejoin="miter" fill="none"><path d="M 315.232 30.7543 L 359.633 7.2402"/><path d="M 457.818 299.999 L 502.22 276.485"/></g><g stroke="rgb(0, 0, 0)" stroke-width="0.35" stroke-linecap="butt" stroke-linejoin="miter" fill="none"><circle cx="304.97" cy="36.1887" r="3.19998"/><circle cx="302.966" cy="153.575" r="2.99999"/><circle cx="139.935" cy="376.575" r="3.19998"/><circle cx="469.935" cy="376.575" r="3.19998"/><path d="M 392.966 378.575 L 386.966 378.575"/><path d="M 386.966 378.575 L 386.966 383.575"/><path d="M 208.966 383.575 L 386.966 383.575"/><path d="M 208.966 378.575 L 208.966 383.575"/><path d="M 202.966 378.575 L 208.966 378.575"/><path d="M 202.966 383.575 L 202.966 378.575"/><path d="M 132.014 383.575 L 202.966 383.575"/><path d="M 112.34 371.383 L 102.212 393.423"/><path d="M 128.729 371.887 L 112.34 371.383"/><path d="M 296.349 31.938 L 128.729 371.887"/><path d="M 313.464 31.6903 A 9.61185 9.61185 0 0 0 296.349 31.938"/><path d="M 392.966 383.575 L 392.966 378.575"/><path d="M 472.966 383.575 L 392.966 383.575"/><path d="M 472.966 383.575 L 491.788 368.417"/><path d="M 474.39 371.571 L 475.39 371.571"/><path d="M 474.39 371.571 L 475.884 372.901"/><path d="M 475.39 371.571 L 476.884 372.901"/><path d="M 476.884 372.901 L 475.884 372.901"/><path d="M 464.454 380.429 L 465.605 382.065"/><path d="M 464.454 380.429 L 463.454 380.429"/><path d="M 464.605 382.065 L 465.605 382.065"/><path d="M 463.454 380.429 L 464.605 382.065"/><path d="M 131.115 385.399 L 132.014 383.575"/><path d="M 102.212 393.423 L 114.984 393.423"/><path d="M 131.115 385.399 A 9.68139 9.68139 0 0 0 114.984 393.423"/><path d="M 491.788 368.417 L 473.581 334.037"/><path d="M 469.163 336.377 L 466.378 331.119"/><path d="M 466.378 331.119 L 470.797 328.779"/><path d="M 469.163 336.377 L 473.581 334.037"/><path d="M 456.051 300.935 L 313.464 31.6903"/><path d="M 470.797 328.779 L 458.836 306.193"/><path d="M 454.417 308.533 L 458.836 306.193"/><path d="M 454.417 308.533 L 451.632 303.275"/><path d="M 451.632 303.275 L 456.051 300.935"/></g><g stroke="rgb(0, 0, 0)" stroke-width="0.13" stroke-linecap="butt" stroke-linejoin="miter" fill="none"><path d="M 426.932 131.971 L 426.901 131.987 L 426.511 132.285 L 426.301 132.664 L 426.27 133.103 L 426.426 133.58 L 426.747 134.003 L 427.127 134.247 L 427.557 134.305 L 428.001 134.172 L 428.245 133.997 L 428.407 133.786 L 428.487 133.538 L 428.494 133.261 L 428.888 133.423 L 429.326 133.322 L 429.638 133.071 L 429.799 132.741 L 429.799 132.341 L 429.63 131.883 L 429.347 131.519 L 428.988 131.316 L 428.569 131.28 L 428.12 131.433 L 428.088 131.45 L 428.298 131.846 L 428.603 131.731 L 428.869 131.738 L 429.093 131.859 L 429.277 132.099 L 429.364 132.349 L 429.36 132.568 L 429.263 132.751 L 429.079 132.9 L 428.839 132.975 L 428.635 132.946 L 428.447 132.806 L 428.286 132.566 L 428.198 132.39 L 427.846 132.576 L 427.971 132.79 L 428.079 133.092 L 428.083 133.358 L 427.976 133.575 L 427.772 133.74 L 427.487 133.828 L 427.227 133.8 L 426.999 133.659 L 426.814 133.408 L 426.71 133.104 L 426.735 132.828 L 426.881 132.585 L 427.149 132.381 L 426.932 131.971 L 426.932 131.971 z M 429.246 135.036 L 428.581 135.473 L 428.193 135.947 L 428.067 136.442 L 428.214 136.957 L 428.556 137.364 L 429.036 137.538 L 429.643 137.479 L 430.381 137.179 L 431.038 136.74 L 431.27 136.509 L 431.434 136.268 L 431.56 135.773 L 431.419 135.26 L 431.071 134.851 L 430.586 134.679 L 429.976 134.734 L 429.246 135.036 L 429.246 135.036 z M 429.472 135.464 L 430.03 135.214 L 430.477 135.12 L 430.811 135.2 L 431.049 135.456 L 431.125 135.793 L 431.003 136.114 L 430.675 136.43 L 430.154 136.752 L 429.592 137.004 L 429.145 137.098 L 428.811 137.018 L 428.58 136.764 L 428.498 136.425 L 428.619 136.104 L 428.947 135.787 L 429.472 135.464 L 429.472 135.464 z M 430.182 140.457 L 430.394 140.858 L 431.161 140.452 L 431.395 140.893 L 431.751 140.704 L 431.517 140.263 L 433.421 139.255 L 433.206 138.85 L 430.621 138.484 L 430.229 138.691 L 430.948 140.051 L 430.182 140.457 L 430.182 140.457 z M 430.783 138.877 L 432.691 139.128 L 431.305 139.862 L 430.783 138.877 L 430.783 138.877 z M 431.638 143.206 L 431.963 143.821 L 432.627 143.469 L 432.302 142.854 L 431.638 143.206 L 431.638 143.206 z M 436.375 146.688 L 436.691 146.412 L 436.855 146.074 L 436.864 145.681 L 436.714 145.259 L 436.543 145.012 L 436.338 144.83 L 436.094 144.702 L 435.808 144.637 L 435.492 144.633 L 435.142 144.693 L 434.757 144.817 L 434.351 145.009 L 433.755 145.416 L 433.412 145.877 L 433.322 146.376 L 433.483 146.907 L 433.793 147.296 L 434.177 147.515 L 434.62 147.555 L 435.079 147.408 L 435.462 147.108 L 435.679 146.731 L 435.716 146.306 L 435.58 145.876 L 435.267 145.5 L 434.845 145.318 L 435.371 145.125 L 435.798 145.081 L 436.123 145.189 L 436.355 145.454 L 436.438 145.696 L 436.434 145.915 L 436.337 146.109 L 436.158 146.278 L 436.375 146.688 L 436.375 146.688 z M 434.846 146.979 L 434.539 147.078 L 434.259 147.067 L 434.01 146.942 L 433.833 146.716 L 433.739 146.429 L 433.77 146.155 L 433.916 145.913 L 434.176 145.724 L 434.475 145.622 L 434.751 145.636 L 434.993 145.77 L 435.189 146.021 L 435.267 146.287 L 435.239 146.547 L 435.096 146.783 L 434.846 146.979 L 434.846 146.979 z M 434.969 149.497 L 435.208 149.947 L 436.021 149.705 L 436.844 149.6 L 437.675 149.628 L 438.525 149.788 L 438.895 149.592 L 437.771 147.471 L 437.366 147.686 L 438.263 149.379 L 437.401 149.208 L 436.577 149.171 L 435.772 149.266 L 434.969 149.497 L 434.969 149.497 z" stroke="none" fill-rule="evenodd" fill="rgb(0, 0, 0)"/><path d="M 499.091 275.956 L 500.452 277.421 L 500.006 275.471"/><path d="M 359.227 9.64117 L 357.865 8.17621 L 358.312 10.1257"/><path d="M 357.865 8.17621 L 500.452 277.421"/></g><g stroke="rgb(0, 0, 0)" stroke-width="0.13" stroke-linecap="butt" stroke-linejoin="miter" fill="none"><path d="M 299.396 401.775 L 298.518 404.755 L 297.615 401.775 L 297.136 401.775 L 298.266 405.28 L 298.77 405.28 L 299.875 401.775 L 299.396 401.775 L 299.396 401.775 z M 302.598 402.572 L 302.154 402.572 L 302.154 404.135 L 302.104 404.498 L 301.958 404.76 L 301.731 404.922 L 301.433 404.972 L 301.196 404.932 L 301.045 404.811 L 300.959 404.604 L 300.939 404.311 L 300.939 402.572 L 300.495 402.572 L 300.495 404.352 L 300.51 404.71 L 300.606 405.007 L 300.898 405.28 L 301.367 405.376 L 301.62 405.34 L 301.836 405.25 L 302.023 405.093 L 302.174 404.866 L 302.174 405.28 L 302.598 405.28 L 302.598 402.572 L 302.598 402.572 z M 303.934 404.054 L 305.71 404.054 L 305.715 403.847 L 305.634 403.268 L 305.412 402.834 L 305.059 402.572 L 304.59 402.476 L 304.131 402.577 L 303.778 402.859 L 303.551 403.318 L 303.47 403.923 L 303.546 404.543 L 303.773 404.997 L 304.121 405.28 L 304.575 405.376 L 304.968 405.31 L 305.291 405.139 L 305.528 404.866 L 305.664 404.503 L 305.226 404.503 L 305.135 404.705 L 305.004 404.856 L 304.63 404.977 L 304.343 404.922 L 304.126 404.745 L 303.985 404.458 L 303.934 404.069 L 303.934 404.054 L 303.934 404.054 z M 303.934 403.681 L 303.99 403.333 L 304.126 403.076 L 304.333 402.92 L 304.605 402.864 L 304.873 402.92 L 305.079 403.076 L 305.205 403.333 L 305.251 403.681 L 303.934 403.681 L 303.934 403.681 z M 311.283 404.861 L 311.283 405.28 L 311.726 405.28 L 311.726 401.659 L 311.288 401.659 L 311.288 402.985 L 310.95 402.602 L 310.743 402.511 L 310.506 402.476 L 310.077 402.577 L 309.744 402.859 L 309.527 403.313 L 309.452 403.923 L 309.527 404.533 L 309.744 404.992 L 310.077 405.28 L 310.506 405.376 L 310.743 405.34 L 310.955 405.25 L 311.283 404.861 L 311.283 404.861 z M 310.581 402.874 L 310.874 402.945 L 311.096 403.141 L 311.227 403.469 L 311.277 403.923 L 311.227 404.382 L 311.096 404.71 L 310.874 404.912 L 310.581 404.977 L 310.304 404.912 L 310.092 404.71 L 309.951 404.377 L 309.906 403.923 L 309.951 403.474 L 310.092 403.146 L 310.304 402.945 L 310.581 402.874 L 310.581 402.874 z M 313.043 404.054 L 314.818 404.054 L 314.823 403.847 L 314.742 403.268 L 314.52 402.834 L 314.167 402.572 L 313.698 402.476 L 313.239 402.577 L 312.886 402.859 L 312.659 403.318 L 312.579 403.923 L 312.654 404.543 L 312.881 404.997 L 313.229 405.28 L 313.683 405.376 L 314.076 405.31 L 314.399 405.139 L 314.636 404.866 L 314.772 404.503 L 314.334 404.503 L 314.243 404.705 L 314.112 404.856 L 313.739 404.977 L 313.451 404.922 L 313.234 404.745 L 313.093 404.458 L 313.043 404.069 L 313.043 404.054 L 313.043 404.054 z M 313.043 403.681 L 313.098 403.333 L 313.234 403.076 L 313.441 402.92 L 313.713 402.864 L 313.981 402.92 L 314.187 403.076 L 314.314 403.333 L 314.359 403.681 L 313.043 403.681 L 313.043 403.681 z M 319.342 403.041 L 319.342 405.28 L 319.785 405.28 L 319.785 403.041 L 320.794 403.041 L 320.794 402.662 L 319.785 402.662 L 319.785 402.496 L 319.821 402.294 L 319.937 402.158 L 320.133 402.077 L 320.416 402.047 L 320.794 402.067 L 320.794 401.684 L 320.315 401.659 L 319.881 401.704 L 319.579 401.84 L 319.397 402.077 L 319.342 402.415 L 319.342 402.662 L 318.53 402.662 L 318.53 403.041 L 319.342 403.041 L 319.342 403.041 z M 323.371 404.927 L 323.371 404.942 L 323.396 405.113 L 323.472 405.234 L 323.79 405.33 L 324.037 405.29 L 324.037 404.947 L 323.931 404.962 L 323.79 404.896 L 323.765 404.695 L 323.765 403.293 L 323.704 402.935 L 323.528 402.682 L 323.22 402.531 L 322.786 402.476 L 322.363 402.536 L 322.05 402.708 L 321.853 402.975 L 321.788 403.328 L 321.788 403.358 L 322.186 403.358 L 322.221 403.146 L 322.332 402.995 L 322.514 402.904 L 322.771 402.869 L 323.018 402.894 L 323.195 402.97 L 323.301 403.101 L 323.336 403.283 L 323.316 403.494 L 323.235 403.6 L 323.033 403.651 L 322.655 403.691 L 322.221 403.782 L 321.914 403.943 L 321.732 404.195 L 321.677 404.569 L 321.727 404.902 L 321.883 405.149 L 322.136 405.305 L 322.484 405.36 L 322.953 405.255 L 323.371 404.927 L 323.371 404.927 z M 323.321 404.332 L 323.26 404.594 L 323.099 404.796 L 322.857 404.927 L 322.559 404.972 L 322.368 404.947 L 322.231 404.866 L 322.146 404.725 L 322.12 404.528 L 322.141 404.352 L 322.221 404.226 L 322.544 404.085 L 322.953 404.024 L 323.321 403.903 L 323.321 404.332 L 323.321 404.332 z M 326.523 403.469 L 326.962 403.469 L 326.871 403.066 L 326.654 402.748 L 326.316 402.551 L 325.878 402.476 L 325.394 402.577 L 325.025 402.859 L 324.793 403.318 L 324.713 403.933 L 324.788 404.543 L 325.015 404.997 L 325.373 405.28 L 325.863 405.376 L 326.296 405.3 L 326.634 405.088 L 326.866 404.755 L 326.967 404.311 L 326.543 404.311 L 326.468 404.594 L 326.327 404.806 L 326.125 404.937 L 325.878 404.977 L 325.57 404.912 L 325.348 404.71 L 325.212 404.382 L 325.167 403.918 L 325.212 403.464 L 325.353 403.136 L 325.58 402.935 L 325.878 402.864 L 326.14 402.909 L 326.337 403.025 L 326.468 403.217 L 326.523 403.469 L 326.523 403.469 z M 328.223 404.054 L 329.998 404.054 L 330.003 403.847 L 329.922 403.268 L 329.7 402.834 L 329.347 402.572 L 328.878 402.476 L 328.419 402.577 L 328.066 402.859 L 327.84 403.318 L 327.759 403.923 L 327.834 404.543 L 328.061 404.997 L 328.409 405.28 L 328.863 405.376 L 329.257 405.31 L 329.579 405.139 L 329.816 404.866 L 329.953 404.503 L 329.514 404.503 L 329.423 404.705 L 329.292 404.856 L 328.919 404.977 L 328.631 404.922 L 328.414 404.745 L 328.273 404.458 L 328.223 404.069 L 328.223 404.054 L 328.223 404.054 z M 328.223 403.681 L 328.278 403.333 L 328.414 403.076 L 328.621 402.92 L 328.894 402.864 L 329.161 402.92 L 329.368 403.076 L 329.494 403.333 L 329.539 403.681 L 328.223 403.681 L 328.223 403.681 z" stroke="none" fill-rule="evenodd" fill="rgb(0, 0, 0)"/></g><g stroke="rgb(0, 0, 0)" stroke-width="0.13" stroke-linecap="butt" stroke-linejoin="miter" fill="none"><path d="M 297.459 411.327 L 299.678 411.327 L 299.678 410.903 L 297.923 410.903 L 297.923 409.718 L 299.486 409.718 L 299.486 409.299 L 297.923 409.299 L 297.923 408.25 L 299.638 408.25 L 299.638 407.827 L 297.459 407.827 L 297.459 411.327 L 297.459 411.327 z M 302.235 409.516 L 302.674 409.516 L 302.583 409.113 L 302.366 408.795 L 302.028 408.598 L 301.589 408.523 L 301.105 408.623 L 300.737 408.906 L 300.505 409.365 L 300.424 409.98 L 300.5 410.59 L 300.727 411.044 L 301.085 411.327 L 301.574 411.422 L 302.008 411.347 L 302.346 411.135 L 302.578 410.802 L 302.679 410.358 L 302.255 410.358 L 302.179 410.641 L 302.038 410.853 L 301.836 410.984 L 301.589 411.024 L 301.282 410.958 L 301.06 410.757 L 300.924 410.429 L 300.878 409.965 L 300.924 409.511 L 301.065 409.183 L 301.292 408.982 L 301.589 408.911 L 301.852 408.956 L 302.048 409.072 L 302.179 409.264 L 302.235 409.516 L 302.235 409.516 z M 303.546 411.327 L 303.99 411.327 L 303.99 409.763 L 304.035 409.405 L 304.182 409.143 L 304.409 408.982 L 304.711 408.921 L 304.953 408.971 L 305.105 409.108 L 305.18 409.335 L 305.205 409.637 L 305.205 411.327 L 305.649 411.327 L 305.649 409.546 L 305.629 409.188 L 305.538 408.891 L 305.241 408.618 L 304.777 408.523 L 304.525 408.558 L 304.308 408.654 L 304.126 408.805 L 303.99 409.012 L 303.99 407.706 L 303.546 407.706 L 303.546 411.327 L 303.546 411.327 z M 306.971 410.101 L 308.746 410.101 L 308.751 409.894 L 308.67 409.314 L 308.448 408.881 L 308.095 408.618 L 307.626 408.523 L 307.167 408.623 L 306.814 408.906 L 306.587 409.365 L 306.507 409.97 L 306.582 410.59 L 306.809 411.044 L 307.157 411.327 L 307.611 411.422 L 308.004 411.357 L 308.327 411.185 L 308.564 410.913 L 308.7 410.55 L 308.262 410.55 L 308.171 410.752 L 308.04 410.903 L 307.666 411.024 L 307.379 410.969 L 307.162 410.792 L 307.021 410.505 L 306.971 410.116 L 306.971 410.101 L 306.971 410.101 z M 306.971 409.728 L 307.026 409.38 L 307.162 409.123 L 307.369 408.966 L 307.641 408.911 L 307.909 408.966 L 308.115 409.123 L 308.241 409.38 L 308.287 409.728 L 306.971 409.728 L 306.971 409.728 z M 310.501 408.079 L 310.501 410.953 L 309.588 410.953 L 309.588 411.327 L 311.852 411.327 L 311.852 410.953 L 310.945 410.953 L 310.945 407.706 L 309.805 407.706 L 309.805 408.079 L 310.501 408.079 L 310.501 408.079 z M 313.537 408.079 L 313.537 410.953 L 312.624 410.953 L 312.624 411.327 L 314.888 411.327 L 314.888 410.953 L 313.981 410.953 L 313.981 407.706 L 312.841 407.706 L 312.841 408.079 L 313.537 408.079 L 313.537 408.079 z M 316.079 410.101 L 317.854 410.101 L 317.859 409.894 L 317.778 409.314 L 317.556 408.881 L 317.203 408.618 L 316.734 408.523 L 316.275 408.623 L 315.922 408.906 L 315.695 409.365 L 315.615 409.97 L 315.69 410.59 L 315.917 411.044 L 316.265 411.327 L 316.719 411.422 L 317.113 411.357 L 317.435 411.185 L 317.672 410.913 L 317.808 410.55 L 317.37 410.55 L 317.279 410.752 L 317.148 410.903 L 316.775 411.024 L 316.487 410.969 L 316.27 410.792 L 316.129 410.505 L 316.079 410.116 L 316.079 410.101 L 316.079 410.101 z M 316.079 409.728 L 316.134 409.38 L 316.27 409.123 L 316.477 408.966 L 316.749 408.911 L 317.017 408.966 L 317.223 409.123 L 317.35 409.38 L 317.395 409.728 L 316.079 409.728 L 316.079 409.728 z M 322.458 411.327 L 323.154 411.327 L 323.154 410.575 L 322.458 410.575 L 322.458 411.327 L 322.458 411.327 z M 322.458 409.37 L 323.154 409.37 L 323.154 408.618 L 322.458 408.618 L 322.458 409.37 L 322.458 409.37 z" stroke="none" fill-rule="evenodd" fill="rgb(0, 0, 0)"/></g><g stroke="rgb(0, 0, 0)" stroke-width="0.13" stroke-linecap="butt" stroke-linejoin="miter" fill="none"><path d="M 331.824 411.327 L 332.282 411.327 L 332.282 407.801 L 331.94 407.801 L 331.849 408.109 L 331.667 408.316 L 331.39 408.437 L 331.007 408.477 L 331.007 408.835 L 331.824 408.835 L 331.824 411.327 L 331.824 411.327 z M 334.602 411.327 L 335.298 411.327 L 335.298 410.575 L 334.602 410.575 L 334.602 411.327 L 334.602 411.327 z M 334.602 409.37 L 335.298 409.37 L 335.298 408.618 L 334.602 408.618 L 334.602 409.37 L 334.602 409.37 z M 337.896 411.327 L 338.355 411.327 L 338.355 407.801 L 338.012 407.801 L 337.921 408.109 L 337.739 408.316 L 337.462 408.437 L 337.079 408.477 L 337.079 408.835 L 337.896 408.835 L 337.896 411.327 L 337.896 411.327 z" stroke="none" fill-rule="evenodd" fill="rgb(0, 0, 0)"/></g></svg>