<?xml version="1.0" encoding="utf-8" ?><!DOCTYPE svg PUBLIC "-//W3C//DTD SVG 1.1//EN" "http://www.w3.org/Graphics/SVG/1.1/DTD/svg11.dtd" 
[ <!ATTLIST svg 
  xmlns:dsy CDATA #FIXED "http://www.3ds.com/print"  
    dsy:text-version CDATA #IMPLIED > 

  <!ATTLIST text 
  xmlns:dsy CDATA #FIXED "http://www.3ds.com/print" 
    dsy:text-version CDATA #IMPLIED > 
]><svg xmlns="http://www.w3.org/2000/svg" xmlns:dsy="http://www.3ds.com/print" dsy:text-version="18000" width="594" height="420" viewBox="0 0 594 420" version="1.1"><g stroke="rgb(0, 0, 0)" stroke-width="0.35" stroke-linecap="butt" stroke-linejoin="miter" fill="none"><path d="M 468.332 399.61 L 487.154 384.451"/><path d="M 308.83 47.7248 A 9.61185 9.61185 0 0 0 291.715 47.9724"/><path d="M 118.332 399.61 L 291.715 47.9724"/><path d="M 118.332 399.61 L 198.332 399.61"/><path d="M 198.332 399.61 L 198.332 394.61"/><path d="M 198.332 394.61 L 204.332 394.61"/><path d="M 204.332 394.61 L 204.332 399.61"/><path d="M 204.332 399.61 L 382.332 399.61"/><path d="M 382.332 394.61 L 382.332 399.61"/><path d="M 388.332 394.61 L 382.332 394.61"/><path d="M 388.332 399.61 L 388.332 394.61"/><circle cx="465.301" cy="392.61" r="3.19999"/><circle cx="135.301" cy="392.61" r="3.19999"/><circle cx="298.332" cy="169.61" r="3"/><circle cx="300.336" cy="52.2231" r="3.19999"/><path d="M 469.756 387.605 L 471.25 388.935"/><path d="M 469.756 387.605 L 470.756 387.605"/><path d="M 472.25 388.935 L 471.25 388.935"/><path d="M 470.756 387.605 L 472.25 388.935"/><path d="M 459.82 396.464 L 458.82 396.464"/><path d="M 459.82 396.464 L 460.971 398.1"/><path d="M 458.82 396.464 L 459.971 398.1"/><path d="M 459.971 398.1 L 460.971 398.1"/><path d="M 461.276 335.586 L 308.83 47.7248"/><path d="M 445.14 399.61 L 388.332 399.61"/><path d="M 445.14 397.61 L 445.14 399.61"/><path d="M 450.14 397.61 L 445.14 397.61"/><path d="M 450.14 399.61 L 450.14 397.61"/><path d="M 468.332 399.61 L 450.14 399.61"/><path d="M 487.154 384.451 L 463.616 340.004"/><path d="M 461.848 340.94 L 463.616 340.004"/><path d="M 459.508 336.522 L 461.848 340.94"/><path d="M 461.276 335.586 L 459.508 336.522"/></g></svg>