<?xml version="1.0" encoding="utf-8" ?><!DOCTYPE svg PUBLIC "-//W3C//DTD SVG 1.1//EN" "http://www.w3.org/Graphics/SVG/1.1/DTD/svg11.dtd" 
[ <!ATTLIST svg 
  xmlns:dsy CDATA #FIXED "http://www.3ds.com/print"  
    dsy:text-version CDATA #IMPLIED > 

  <!ATTLIST text 
  xmlns:dsy CDATA #FIXED "http://www.3ds.com/print" 
    dsy:text-version CDATA #IMPLIED > 
]><svg xmlns="http://www.w3.org/2000/svg" xmlns:dsy="http://www.3ds.com/print" dsy:text-version="18000" width="297" height="210" viewBox="0 0 297 210" version="1.1"><g stroke="rgb(0, 0, 0)" stroke-width="0.13" stroke-linecap="butt" stroke-linejoin="miter" fill="none"><path d="M 111.214 129.807 L 111.99 158.924"/><path d="M 181.712 127.926 L 182.489 157.044"/></g><g stroke="rgb(0, 0, 0)" stroke-width="0.35" stroke-linecap="butt" stroke-linejoin="miter" fill="none"><path d="M 111.16 127.808 L 112.623 112.502"/><path d="M 111.16 127.808 L 181.659 125.927"/><path d="M 185.84 82.1924 L 181.659 125.927"/><path d="M 185.84 82.1924 L 163.542 91.4231"/><path d="M 159.537 97.41 L 165.072 95.1189"/><path d="M 159.537 97.41 L 158.007 93.7142"/><path d="M 163.542 91.4231 L 165.072 95.1189"/><path d="M 129.374 105.568 L 112.623 112.502"/><path d="M 158.007 93.7142 L 134.908 103.276"/><path d="M 130.904 109.263 L 136.438 106.972"/><path d="M 129.374 105.568 L 130.904 109.263"/><path d="M 136.438 106.972 L 134.908 103.276"/><path d="M 181.332 92.9627 A 3.00412 3.00412 0 0 0 178.825 91.1578"/><path d="M 178.63 97.1459 A 2.99989 2.99989 0 0 0 181.332 92.9626"/><path d="M 181.643 92.9729 A 3.00436 3.00436 0 0 0 178.981 91.1588"/><path d="M 178.981 91.1594 A 3.00014 3.00014 0 0 0 176.123 95.3416"/><path d="M 176.123 95.3414 A 3.00436 3.00436 0 0 0 178.785 97.1555"/><path d="M 178.785 97.1549 A 3.00014 3.00014 0 0 0 181.644 92.9727"/></g><g stroke="rgb(0, 0, 0)" stroke-width="0.13" stroke-linecap="butt" stroke-linejoin="miter" fill="none"><path d="M 138.963 154.203 L 139.472 154.19 L 139.616 153.354 L 139.888 152.569 L 140.282 151.837 L 140.804 151.147 L 140.792 150.729 L 138.393 150.793 L 138.405 151.252 L 140.321 151.201 L 139.784 151.896 L 139.385 152.618 L 139.113 153.382 L 138.963 154.203 L 138.963 154.203 z M 142.138 152.408 L 142.235 153.198 L 142.487 153.756 L 142.874 154.089 L 143.401 154.186 L 143.917 154.061 L 144.286 153.708 L 144.503 153.137 L 144.563 152.344 L 144.461 151.559 L 144.357 151.249 L 144.214 150.996 L 143.827 150.663 L 143.304 150.561 L 142.783 150.691 L 142.414 151.049 L 142.193 151.62 L 142.138 152.408 L 142.138 152.408 z M 142.622 152.396 L 142.646 151.784 L 142.76 151.342 L 142.98 151.079 L 143.316 150.98 L 143.651 151.061 L 143.884 151.312 L 144.022 151.748 L 144.079 152.357 L 144.055 152.973 L 143.941 153.415 L 143.721 153.678 L 143.39 153.773 L 143.05 153.696 L 142.816 153.445 L 142.679 153.01 L 142.622 152.396 L 142.622 152.396 z M 146.785 153.995 L 147.481 153.976 L 147.461 153.225 L 146.765 153.244 L 146.785 153.995 L 146.785 153.995 z M 149.593 153.007 L 149.715 153.417 L 149.971 153.733 L 150.339 153.925 L 150.805 153.988 L 151.312 153.884 L 151.703 153.626 L 151.945 153.226 L 152.027 152.72 L 151.929 152.253 L 151.677 151.892 L 151.293 151.665 L 150.802 151.592 L 150.425 151.663 L 150.137 151.837 L 150.253 150.89 L 151.786 150.849 L 151.775 150.436 L 149.904 150.486 L 149.677 152.349 L 150.08 152.338 L 150.366 152.093 L 150.737 151.997 L 151.061 152.044 L 151.312 152.199 L 151.475 152.442 L 151.539 152.758 L 151.492 153.077 L 151.337 153.328 L 151.094 153.491 L 150.778 153.555 L 150.51 153.527 L 150.3 153.417 L 150.144 153.239 L 150.062 152.994 L 149.593 153.007 L 149.593 153.007 z M 153.372 153.819 L 155.777 153.755 L 155.766 153.321 L 153.865 153.372 L 153.965 153.132 L 154.141 152.931 L 154.691 152.558 L 154.984 152.399 L 155.311 152.173 L 155.541 151.915 L 155.67 151.614 L 155.711 151.274 L 155.614 150.853 L 155.368 150.527 L 155 150.325 L 154.529 150.262 L 154.047 150.36 L 153.685 150.607 L 153.458 150.991 L 153.391 151.493 L 153.393 151.563 L 153.852 151.551 L 153.851 151.511 L 153.887 151.167 L 154.016 150.911 L 154.229 150.744 L 154.515 150.681 L 154.808 150.723 L 155.029 150.844 L 155.175 151.036 L 155.232 151.282 L 155.203 151.515 L 155.112 151.714 L 154.956 151.89 L 154.738 152.047 L 154.445 152.216 L 153.959 152.542 L 153.62 152.884 L 153.424 153.293 L 153.372 153.804 L 153.372 153.819 L 153.372 153.819 z" stroke="none" fill-rule="evenodd" fill="rgb(0, 0, 0)"/><path d="M 113.854 156.356 L 111.937 156.925 L 113.882 157.391"/><path d="M 180.519 155.613 L 182.436 155.044 L 180.491 154.578"/><path d="M 111.937 156.925 L 182.436 155.044"/></g><g stroke="rgb(0, 0, 0)" stroke-width="0.13" stroke-linecap="butt" stroke-linejoin="miter" fill="none"><path d="M 150.896 136.159 L 150.018 139.14 L 149.115 136.159 L 148.636 136.159 L 149.766 139.664 L 150.27 139.664 L 151.375 136.159 L 150.896 136.159 L 150.896 136.159 z M 154.098 136.956 L 153.654 136.956 L 153.654 138.519 L 153.604 138.883 L 153.457 139.145 L 153.231 139.306 L 152.933 139.357 L 152.696 139.316 L 152.545 139.195 L 152.459 138.988 L 152.439 138.696 L 152.439 136.956 L 151.995 136.956 L 151.995 138.736 L 152.01 139.094 L 152.106 139.392 L 152.398 139.664 L 152.867 139.76 L 153.12 139.725 L 153.336 139.634 L 153.523 139.478 L 153.674 139.251 L 153.674 139.664 L 154.098 139.664 L 154.098 136.956 L 154.098 136.956 z M 155.434 138.439 L 157.21 138.439 L 157.215 138.232 L 157.134 137.652 L 156.912 137.218 L 156.559 136.956 L 156.09 136.86 L 155.631 136.961 L 155.278 137.243 L 155.051 137.702 L 154.97 138.308 L 155.046 138.928 L 155.273 139.382 L 155.621 139.664 L 156.075 139.76 L 156.468 139.694 L 156.791 139.523 L 157.028 139.251 L 157.164 138.888 L 156.726 138.888 L 156.635 139.089 L 156.504 139.241 L 156.13 139.362 L 155.843 139.306 L 155.626 139.13 L 155.485 138.842 L 155.434 138.454 L 155.434 138.439 L 155.434 138.439 z M 155.434 138.066 L 155.49 137.718 L 155.626 137.46 L 155.833 137.304 L 156.105 137.249 L 156.372 137.304 L 156.579 137.46 L 156.705 137.718 L 156.751 138.066 L 155.434 138.066 L 155.434 138.066 z M 162.782 139.246 L 162.782 139.664 L 163.226 139.664 L 163.226 136.043 L 162.787 136.043 L 162.787 137.37 L 162.45 136.986 L 162.243 136.895 L 162.006 136.86 L 161.577 136.961 L 161.244 137.243 L 161.027 137.697 L 160.952 138.308 L 161.027 138.918 L 161.244 139.377 L 161.577 139.664 L 162.006 139.76 L 162.243 139.725 L 162.455 139.634 L 162.782 139.246 L 162.782 139.246 z M 162.081 137.259 L 162.374 137.329 L 162.596 137.526 L 162.727 137.854 L 162.777 138.308 L 162.727 138.767 L 162.596 139.094 L 162.374 139.296 L 162.081 139.362 L 161.804 139.296 L 161.592 139.094 L 161.451 138.761 L 161.406 138.308 L 161.451 137.859 L 161.592 137.531 L 161.804 137.329 L 162.081 137.259 L 162.081 137.259 z M 164.543 138.439 L 166.318 138.439 L 166.323 138.232 L 166.242 137.652 L 166.02 137.218 L 165.667 136.956 L 165.198 136.86 L 164.739 136.961 L 164.386 137.243 L 164.159 137.702 L 164.079 138.308 L 164.154 138.928 L 164.381 139.382 L 164.729 139.664 L 165.183 139.76 L 165.576 139.694 L 165.899 139.523 L 166.136 139.251 L 166.272 138.888 L 165.834 138.888 L 165.743 139.089 L 165.612 139.241 L 165.238 139.362 L 164.951 139.306 L 164.734 139.13 L 164.593 138.842 L 164.543 138.454 L 164.543 138.439 L 164.543 138.439 z M 164.543 138.066 L 164.598 137.718 L 164.734 137.46 L 164.941 137.304 L 165.213 137.249 L 165.481 137.304 L 165.687 137.46 L 165.813 137.718 L 165.859 138.066 L 164.543 138.066 L 164.543 138.066 z M 170.842 137.425 L 170.842 139.664 L 171.285 139.664 L 171.285 137.425 L 172.294 137.425 L 172.294 137.047 L 171.285 137.047 L 171.285 136.88 L 171.321 136.679 L 171.437 136.542 L 171.633 136.462 L 171.916 136.432 L 172.294 136.452 L 172.294 136.068 L 171.815 136.043 L 171.381 136.089 L 171.079 136.225 L 170.897 136.462 L 170.842 136.8 L 170.842 137.047 L 170.03 137.047 L 170.03 137.425 L 170.842 137.425 L 170.842 137.425 z M 174.871 139.311 L 174.871 139.326 L 174.896 139.498 L 174.972 139.619 L 175.29 139.715 L 175.537 139.674 L 175.537 139.331 L 175.431 139.346 L 175.29 139.281 L 175.264 139.079 L 175.264 137.677 L 175.204 137.319 L 175.027 137.067 L 174.72 136.916 L 174.286 136.86 L 173.862 136.921 L 173.55 137.092 L 173.353 137.359 L 173.287 137.712 L 173.287 137.743 L 173.686 137.743 L 173.721 137.531 L 173.832 137.38 L 174.014 137.289 L 174.271 137.254 L 174.518 137.279 L 174.695 137.354 L 174.8 137.486 L 174.836 137.667 L 174.816 137.879 L 174.735 137.985 L 174.533 138.035 L 174.155 138.076 L 173.721 138.166 L 173.414 138.328 L 173.232 138.58 L 173.177 138.953 L 173.227 139.286 L 173.383 139.533 L 173.635 139.689 L 173.983 139.745 L 174.452 139.639 L 174.871 139.311 L 174.871 139.311 z M 174.821 138.716 L 174.76 138.978 L 174.599 139.18 L 174.357 139.311 L 174.059 139.357 L 173.867 139.331 L 173.731 139.251 L 173.646 139.109 L 173.62 138.913 L 173.641 138.736 L 173.721 138.61 L 174.044 138.469 L 174.452 138.408 L 174.821 138.287 L 174.821 138.716 L 174.821 138.716 z M 178.023 137.854 L 178.462 137.854 L 178.371 137.45 L 178.154 137.133 L 177.816 136.936 L 177.378 136.86 L 176.893 136.961 L 176.525 137.243 L 176.293 137.702 L 176.213 138.318 L 176.288 138.928 L 176.515 139.382 L 176.873 139.664 L 177.362 139.76 L 177.796 139.684 L 178.134 139.473 L 178.366 139.14 L 178.467 138.696 L 178.043 138.696 L 177.968 138.978 L 177.826 139.19 L 177.625 139.321 L 177.378 139.362 L 177.07 139.296 L 176.848 139.094 L 176.712 138.767 L 176.666 138.303 L 176.712 137.849 L 176.853 137.521 L 177.08 137.319 L 177.378 137.249 L 177.64 137.294 L 177.836 137.41 L 177.968 137.602 L 178.023 137.854 L 178.023 137.854 z M 179.723 138.439 L 181.498 138.439 L 181.503 138.232 L 181.422 137.652 L 181.2 137.218 L 180.847 136.956 L 180.378 136.86 L 179.919 136.961 L 179.566 137.243 L 179.339 137.702 L 179.259 138.308 L 179.334 138.928 L 179.561 139.382 L 179.909 139.664 L 180.363 139.76 L 180.757 139.694 L 181.079 139.523 L 181.316 139.251 L 181.452 138.888 L 181.014 138.888 L 180.923 139.089 L 180.792 139.241 L 180.419 139.362 L 180.131 139.306 L 179.914 139.13 L 179.773 138.842 L 179.723 138.454 L 179.723 138.439 L 179.723 138.439 z M 179.723 138.066 L 179.778 137.718 L 179.914 137.46 L 180.121 137.304 L 180.393 137.249 L 180.661 137.304 L 180.867 137.46 L 180.994 137.718 L 181.039 138.066 L 179.723 138.066 L 179.723 138.066 z" stroke="none" fill-rule="evenodd" fill="rgb(0, 0, 0)"/></g><g stroke="rgb(0, 0, 0)" stroke-width="0.13" stroke-linecap="butt" stroke-linejoin="miter" fill="none"><path d="M 148.959 145.711 L 151.178 145.711 L 151.178 145.287 L 149.423 145.287 L 149.423 144.102 L 150.986 144.102 L 150.986 143.684 L 149.423 143.684 L 149.423 142.635 L 151.138 142.635 L 151.138 142.211 L 148.959 142.211 L 148.959 145.711 L 148.959 145.711 z M 153.735 143.901 L 154.174 143.901 L 154.083 143.497 L 153.866 143.179 L 153.528 142.983 L 153.089 142.907 L 152.605 143.008 L 152.237 143.29 L 152.005 143.749 L 151.924 144.365 L 152 144.975 L 152.227 145.429 L 152.585 145.711 L 153.074 145.807 L 153.508 145.731 L 153.846 145.519 L 154.078 145.187 L 154.179 144.743 L 153.755 144.743 L 153.679 145.025 L 153.538 145.237 L 153.336 145.368 L 153.089 145.408 L 152.782 145.343 L 152.56 145.141 L 152.424 144.813 L 152.378 144.349 L 152.424 143.895 L 152.565 143.568 L 152.792 143.366 L 153.089 143.295 L 153.352 143.341 L 153.548 143.457 L 153.679 143.648 L 153.735 143.901 L 153.735 143.901 z M 155.046 145.711 L 155.49 145.711 L 155.49 144.148 L 155.535 143.79 L 155.682 143.527 L 155.909 143.366 L 156.211 143.305 L 156.453 143.356 L 156.604 143.492 L 156.68 143.719 L 156.705 144.022 L 156.705 145.711 L 157.149 145.711 L 157.149 143.931 L 157.129 143.573 L 157.038 143.275 L 156.741 143.003 L 156.277 142.907 L 156.025 142.942 L 155.808 143.038 L 155.626 143.189 L 155.49 143.396 L 155.49 142.09 L 155.046 142.09 L 155.046 145.711 L 155.046 145.711 z M 158.47 144.486 L 160.246 144.486 L 160.251 144.279 L 160.17 143.699 L 159.948 143.265 L 159.595 143.003 L 159.126 142.907 L 158.667 143.008 L 158.314 143.29 L 158.087 143.749 L 158.007 144.354 L 158.082 144.975 L 158.309 145.429 L 158.657 145.711 L 159.111 145.807 L 159.504 145.741 L 159.827 145.57 L 160.064 145.298 L 160.2 144.934 L 159.762 144.934 L 159.671 145.136 L 159.54 145.287 L 159.166 145.408 L 158.879 145.353 L 158.662 145.176 L 158.521 144.889 L 158.47 144.501 L 158.47 144.486 L 158.47 144.486 z M 158.47 144.112 L 158.526 143.764 L 158.662 143.507 L 158.869 143.351 L 159.141 143.295 L 159.409 143.351 L 159.615 143.507 L 159.741 143.764 L 159.787 144.112 L 158.47 144.112 L 158.47 144.112 z M 162.001 142.463 L 162.001 145.338 L 161.088 145.338 L 161.088 145.711 L 163.352 145.711 L 163.352 145.338 L 162.445 145.338 L 162.445 142.09 L 161.305 142.09 L 161.305 142.463 L 162.001 142.463 L 162.001 142.463 z M 165.037 142.463 L 165.037 145.338 L 164.124 145.338 L 164.124 145.711 L 166.388 145.711 L 166.388 145.338 L 165.481 145.338 L 165.481 142.09 L 164.341 142.09 L 164.341 142.463 L 165.037 142.463 L 165.037 142.463 z M 167.579 144.486 L 169.354 144.486 L 169.359 144.279 L 169.278 143.699 L 169.056 143.265 L 168.703 143.003 L 168.234 142.907 L 167.775 143.008 L 167.422 143.29 L 167.195 143.749 L 167.115 144.354 L 167.19 144.975 L 167.417 145.429 L 167.765 145.711 L 168.219 145.807 L 168.612 145.741 L 168.935 145.57 L 169.172 145.298 L 169.308 144.934 L 168.87 144.934 L 168.779 145.136 L 168.648 145.287 L 168.275 145.408 L 167.987 145.353 L 167.77 145.176 L 167.629 144.889 L 167.579 144.501 L 167.579 144.486 L 167.579 144.486 z M 167.579 144.112 L 167.634 143.764 L 167.77 143.507 L 167.977 143.351 L 168.249 143.295 L 168.517 143.351 L 168.723 143.507 L 168.849 143.764 L 168.895 144.112 L 167.579 144.112 L 167.579 144.112 z M 173.958 145.711 L 174.654 145.711 L 174.654 144.96 L 173.958 144.96 L 173.958 145.711 L 173.958 145.711 z M 173.958 143.754 L 174.654 143.754 L 174.654 143.003 L 173.958 143.003 L 173.958 143.754 L 173.958 143.754 z" stroke="none" fill-rule="evenodd" fill="rgb(0, 0, 0)"/></g><g stroke="rgb(0, 0, 0)" stroke-width="0.13" stroke-linecap="butt" stroke-linejoin="miter" fill="none"><path d="M 183.323 145.711 L 183.782 145.711 L 183.782 142.186 L 183.439 142.186 L 183.349 142.493 L 183.167 142.7 L 182.89 142.821 L 182.506 142.862 L 182.506 143.22 L 183.323 143.22 L 183.323 145.711 L 183.323 145.711 z M 186.102 145.711 L 186.798 145.711 L 186.798 144.96 L 186.102 144.96 L 186.102 145.711 L 186.102 145.711 z M 186.102 143.754 L 186.798 143.754 L 186.798 143.003 L 186.102 143.003 L 186.102 143.754 L 186.102 143.754 z M 189.396 145.711 L 189.854 145.711 L 189.854 142.186 L 189.512 142.186 L 189.421 142.493 L 189.239 142.7 L 188.962 142.821 L 188.579 142.862 L 188.579 143.22 L 189.396 143.22 L 189.396 145.711 L 189.396 145.711 z" stroke="none" fill-rule="evenodd" fill="rgb(0, 0, 0)"/></g></svg>