<?xml version="1.0" encoding="utf-8" ?><!DOCTYPE svg PUBLIC "-//W3C//DTD SVG 1.1//EN" "http://www.w3.org/Graphics/SVG/1.1/DTD/svg11.dtd" 
[ <!ATTLIST svg 
  xmlns:dsy CDATA #FIXED "http://www.3ds.com/print"  
    dsy:text-version CDATA #IMPLIED > 

  <!ATTLIST text 
  xmlns:dsy CDATA #FIXED "http://www.3ds.com/print" 
    dsy:text-version CDATA #IMPLIED > 
]><svg xmlns="http://www.w3.org/2000/svg" xmlns:dsy="http://www.3ds.com/print" dsy:text-version="18000" width="297" height="210" viewBox="0 0 297 210" version="1.1"><g stroke="rgb(0, 0, 0)" stroke-width="0.35" stroke-linecap="butt" stroke-linejoin="miter" fill="none"><path d="M 173.061 132.462 L 145.588 129.836"/><path d="M 173.061 132.462 L 167.673 81.7188"/><circle cx="138.834" cy="85.1977" r="3.2"/><path d="M 123.939 77.5382 L 143.409 79.3994"/><path d="M 130.441 83.8314 L 131.582 83.8314"/><path d="M 130.441 83.8314 L 127.912 79.2232"/><path d="M 129.052 79.2232 L 131.582 83.8314"/><path d="M 129.052 79.2232 L 127.912 79.2232"/><path d="M 145.156 82.7372 L 144.133 82.7372"/><path d="M 145.156 82.7372 L 144.454 79.4993"/><path d="M 143.409 79.3994 L 144.133 82.7372"/><path d="M 163.441 81.3143 L 167.673 81.7188"/><path d="M 144.454 79.4993 L 158.464 80.8385"/><path d="M 140.212 116.848 L 145.588 129.836"/><path d="M 163.251 83.3052 L 163.441 81.3143"/><path d="M 158.273 82.8294 L 163.251 83.3052"/><path d="M 158.464 80.8385 L 158.273 82.8294"/><path d="M 123.939 77.5382 L 138.301 112.234"/><path d="M 138.301 112.234 L 140.149 111.469"/><path d="M 140.149 111.469 L 142.06 116.083"/><path d="M 142.06 116.083 L 140.212 116.848"/></g></svg>