<?xml version="1.0" encoding="utf-8" ?><!DOCTYPE svg PUBLIC "-//W3C//DTD SVG 1.1//EN" "http://www.w3.org/Graphics/SVG/1.1/DTD/svg11.dtd" 
[ <!ATTLIST svg 
  xmlns:dsy CDATA #FIXED "http://www.3ds.com/print"  
    dsy:text-version CDATA #IMPLIED > 

  <!ATTLIST text 
  xmlns:dsy CDATA #FIXED "http://www.3ds.com/print" 
    dsy:text-version CDATA #IMPLIED > 
]><svg xmlns="http://www.w3.org/2000/svg" xmlns:dsy="http://www.3ds.com/print" dsy:text-version="18000" width="297" height="210" viewBox="0 0 297 210" version="1.1"><g stroke="rgb(0, 0, 0)" stroke-width="0.35" stroke-linecap="butt" stroke-linejoin="miter" fill="none"><path d="M 165.012 135.556 L 135.939 129.037"/><path d="M 165.012 135.556 L 176.006 86.7797"/><circle cx="137.806" cy="94.8782" r="3.2"/><path d="M 130.193 90.3109 L 131.177 90.1365"/><path d="M 130.193 90.3109 L 128.617 81.4187"/><path d="M 131.177 90.1365 L 129.602 81.2442"/><path d="M 129.602 81.2442 L 128.617 81.4187"/><path d="M 144.576 90.3109 L 144.698 82.2941"/><path d="M 144.576 90.3109 L 143.576 90.3109"/><path d="M 144.698 82.2941 L 143.698 82.2962"/><path d="M 143.576 90.3109 L 143.698 82.2962"/><path d="M 135.034 125.732 L 135.939 129.037"/><path d="M 164.96 84.3028 L 176.006 86.7797"/><path d="M 164.96 84.3028 L 164.523 86.2543"/><path d="M 164.523 86.2543 L 159.644 85.1603"/><path d="M 159.644 85.1603 L 160.081 83.2088"/><path d="M 120.994 74.4439 L 160.081 83.2088"/><path d="M 120.994 74.4439 L 133.715 120.915"/><path d="M 135.644 120.387 L 133.715 120.915"/><path d="M 136.963 125.204 L 135.644 120.387"/><path d="M 135.034 125.732 L 136.963 125.204"/></g></svg>