<?xml version="1.0" encoding="utf-8" ?><!DOCTYPE svg PUBLIC "-//W3C//DTD SVG 1.1//EN" "http://www.w3.org/Graphics/SVG/1.1/DTD/svg11.dtd" 
[ <!ATTLIST svg 
  xmlns:dsy CDATA #FIXED "http://www.3ds.com/print"  
    dsy:text-version CDATA #IMPLIED > 

  <!ATTLIST text 
  xmlns:dsy CDATA #FIXED "http://www.3ds.com/print" 
    dsy:text-version CDATA #IMPLIED > 
]><svg xmlns="http://www.w3.org/2000/svg" xmlns:dsy="http://www.3ds.com/print" dsy:text-version="18000" width="420" height="297" viewBox="0 0 420 297" version="1.1"><g stroke="rgb(0, 0, 0)" stroke-width="0.13" stroke-linecap="butt" stroke-linejoin="miter" fill="none"><path d="M 221.741 187.078 L 235.102 191.244"/><path d="M 242.576 120.251 L 255.937 124.416"/></g><g stroke="rgb(0, 0, 0)" stroke-width="0.35" stroke-linecap="butt" stroke-linejoin="miter" fill="none"><path d="M 240.667 119.655 L 222.357 113.931"/><path d="M 240.667 119.655 L 219.832 186.483"/><path d="M 166.022 169.66 L 219.832 186.483"/><path d="M 215.9 120.318 L 222.357 113.931"/><path d="M 214.483 127.346 L 218.713 123.162"/><path d="M 218.713 123.162 L 215.9 120.318"/><path d="M 214.483 127.346 L 211.67 124.502"/><path d="M 166.022 169.66 L 189.615 146.32"/><path d="M 193.853 142.128 L 211.67 124.502"/><path d="M 192.429 149.164 L 196.666 144.972"/><path d="M 196.666 144.972 L 193.853 142.128"/><path d="M 192.429 149.164 L 189.615 146.32"/><path d="M 188.601 158.773 A 2.99989 2.99989 0 0 0 183.697 159.641"/><path d="M 189.292 161.784 A 3.00412 3.00412 0 0 0 188.601 158.773"/><path d="M 183.749 159.494 A 3.00436 3.00436 0 0 0 184.388 162.652"/><path d="M 188.713 158.482 A 3.00014 3.00014 0 0 0 183.749 159.494"/><path d="M 189.352 161.64 A 3.00436 3.00436 0 0 0 188.712 158.482"/><path d="M 184.388 162.652 A 3.00014 3.00014 0 0 0 189.351 161.64"/></g><g stroke="rgb(0, 0, 0)" stroke-width="0.13" stroke-linecap="butt" stroke-linejoin="miter" fill="none"><path d="M 240.936 159.092 L 241.088 158.606 L 240.343 158.199 L 239.688 157.689 L 239.123 157.079 L 238.639 156.363 L 238.239 156.238 L 237.524 158.53 L 237.963 158.667 L 238.533 156.837 L 239.018 157.569 L 239.572 158.181 L 240.207 158.685 L 240.936 159.092 L 240.936 159.092 z M 240.263 155.507 L 241.041 155.671 L 241.651 155.613 L 242.091 155.354 L 242.353 154.886 L 242.402 154.357 L 242.187 153.894 L 241.717 153.504 L 240.985 153.191 L 240.21 153.034 L 239.883 153.033 L 239.597 153.086 L 239.157 153.345 L 238.891 153.807 L 238.846 154.342 L 239.066 154.807 L 239.534 155.201 L 240.263 155.507 L 240.263 155.507 z M 240.407 155.045 L 239.836 154.825 L 239.455 154.574 L 239.277 154.281 L 239.291 153.931 L 239.477 153.64 L 239.79 153.5 L 240.246 153.511 L 240.841 153.654 L 241.416 153.875 L 241.798 154.126 L 241.976 154.42 L 241.958 154.763 L 241.776 155.06 L 241.463 155.2 L 241.006 155.19 L 240.407 155.045 L 240.407 155.045 z" stroke="none" fill-rule="evenodd" fill="rgb(0, 0, 0)"/><path d="M 253.947 125.819 L 254.028 123.821 L 252.958 125.511"/><path d="M 233.273 188.65 L 233.193 190.648 L 234.262 188.958"/><path d="M 233.193 190.648 L 254.028 123.821"/></g><g stroke="rgb(0, 0, 0)" stroke-width="0.13" stroke-linecap="butt" stroke-linejoin="miter" fill="none"><path d="M 205.74 194.834 L 204.863 197.815 L 203.96 194.834 L 203.481 194.834 L 204.61 198.339 L 205.115 198.339 L 206.219 194.834 L 205.74 194.834 L 205.74 194.834 z M 208.943 195.631 L 208.499 195.631 L 208.499 197.195 L 208.448 197.558 L 208.302 197.82 L 208.075 197.981 L 207.778 198.032 L 207.541 197.991 L 207.389 197.87 L 207.304 197.664 L 207.283 197.371 L 207.283 195.631 L 206.84 195.631 L 206.84 197.411 L 206.855 197.769 L 206.95 198.067 L 207.243 198.339 L 207.712 198.435 L 207.964 198.4 L 208.181 198.309 L 208.368 198.153 L 208.519 197.926 L 208.519 198.339 L 208.943 198.339 L 208.943 195.631 L 208.943 195.631 z M 210.279 197.114 L 212.054 197.114 L 212.059 196.907 L 211.979 196.327 L 211.757 195.893 L 211.404 195.631 L 210.935 195.535 L 210.476 195.636 L 210.123 195.919 L 209.896 196.378 L 209.815 196.983 L 209.891 197.603 L 210.118 198.057 L 210.466 198.339 L 210.92 198.435 L 211.313 198.37 L 211.636 198.198 L 211.873 197.926 L 212.009 197.563 L 211.57 197.563 L 211.479 197.764 L 211.348 197.916 L 210.975 198.037 L 210.688 197.981 L 210.471 197.805 L 210.329 197.517 L 210.279 197.129 L 210.279 197.114 L 210.279 197.114 z M 210.279 196.741 L 210.334 196.393 L 210.471 196.135 L 210.677 195.979 L 210.95 195.924 L 211.217 195.979 L 211.424 196.135 L 211.55 196.393 L 211.595 196.741 L 210.279 196.741 L 210.279 196.741 z M 217.627 197.921 L 217.627 198.339 L 218.071 198.339 L 218.071 194.718 L 217.632 194.718 L 217.632 196.045 L 217.294 195.661 L 217.087 195.571 L 216.85 195.535 L 216.422 195.636 L 216.089 195.919 L 215.872 196.372 L 215.796 196.983 L 215.872 197.593 L 216.089 198.052 L 216.422 198.339 L 216.85 198.435 L 217.087 198.4 L 217.299 198.309 L 217.627 197.921 L 217.627 197.921 z M 216.926 195.934 L 217.219 196.004 L 217.44 196.201 L 217.572 196.529 L 217.622 196.983 L 217.572 197.442 L 217.44 197.769 L 217.219 197.971 L 216.926 198.037 L 216.649 197.971 L 216.437 197.769 L 216.296 197.437 L 216.25 196.983 L 216.296 196.534 L 216.437 196.206 L 216.649 196.004 L 216.926 195.934 L 216.926 195.934 z M 219.387 197.114 L 221.162 197.114 L 221.167 196.907 L 221.087 196.327 L 220.865 195.893 L 220.512 195.631 L 220.043 195.535 L 219.584 195.636 L 219.231 195.919 L 219.004 196.378 L 218.923 196.983 L 218.999 197.603 L 219.226 198.057 L 219.574 198.339 L 220.028 198.435 L 220.421 198.37 L 220.744 198.198 L 220.981 197.926 L 221.117 197.563 L 220.678 197.563 L 220.587 197.764 L 220.456 197.916 L 220.083 198.037 L 219.796 197.981 L 219.579 197.805 L 219.438 197.517 L 219.387 197.129 L 219.387 197.114 L 219.387 197.114 z M 219.387 196.741 L 219.443 196.393 L 219.579 196.135 L 219.786 195.979 L 220.058 195.924 L 220.325 195.979 L 220.532 196.135 L 220.658 196.393 L 220.703 196.741 L 219.387 196.741 L 219.387 196.741 z M 225.686 196.1 L 225.686 198.339 L 226.13 198.339 L 226.13 196.1 L 227.139 196.1 L 227.139 195.722 L 226.13 195.722 L 226.13 195.555 L 226.165 195.354 L 226.281 195.218 L 226.478 195.137 L 226.76 195.107 L 227.139 195.127 L 227.139 194.744 L 226.659 194.718 L 226.226 194.764 L 225.923 194.9 L 225.742 195.137 L 225.686 195.475 L 225.686 195.722 L 224.874 195.722 L 224.874 196.1 L 225.686 196.1 L 225.686 196.1 z M 229.716 197.986 L 229.716 198.001 L 229.741 198.173 L 229.816 198.294 L 230.134 198.39 L 230.381 198.349 L 230.381 198.007 L 230.275 198.022 L 230.134 197.956 L 230.109 197.754 L 230.109 196.352 L 230.048 195.994 L 229.872 195.742 L 229.564 195.591 L 229.131 195.535 L 228.707 195.596 L 228.394 195.767 L 228.198 196.035 L 228.132 196.388 L 228.132 196.418 L 228.53 196.418 L 228.566 196.206 L 228.677 196.055 L 228.858 195.964 L 229.115 195.929 L 229.363 195.954 L 229.539 196.03 L 229.645 196.161 L 229.68 196.342 L 229.66 196.554 L 229.579 196.66 L 229.378 196.71 L 228.999 196.751 L 228.566 196.842 L 228.258 197.003 L 228.077 197.255 L 228.021 197.628 L 228.072 197.961 L 228.228 198.208 L 228.48 198.365 L 228.828 198.42 L 229.297 198.314 L 229.716 197.986 L 229.716 197.986 z M 229.665 197.391 L 229.605 197.653 L 229.443 197.855 L 229.201 197.986 L 228.904 198.032 L 228.712 198.007 L 228.576 197.926 L 228.49 197.785 L 228.465 197.588 L 228.485 197.411 L 228.566 197.285 L 228.889 197.144 L 229.297 197.084 L 229.665 196.963 L 229.665 197.391 L 229.665 197.391 z M 232.868 196.529 L 233.306 196.529 L 233.216 196.125 L 232.999 195.808 L 232.661 195.611 L 232.222 195.535 L 231.738 195.636 L 231.37 195.919 L 231.138 196.378 L 231.057 196.993 L 231.133 197.603 L 231.36 198.057 L 231.718 198.339 L 232.207 198.435 L 232.641 198.36 L 232.979 198.148 L 233.211 197.815 L 233.311 197.371 L 232.888 197.371 L 232.812 197.653 L 232.671 197.865 L 232.469 197.996 L 232.222 198.037 L 231.914 197.971 L 231.693 197.769 L 231.556 197.442 L 231.511 196.978 L 231.556 196.524 L 231.698 196.196 L 231.925 195.994 L 232.222 195.924 L 232.484 195.969 L 232.681 196.085 L 232.812 196.277 L 232.868 196.529 L 232.868 196.529 z M 234.567 197.114 L 236.342 197.114 L 236.347 196.907 L 236.267 196.327 L 236.045 195.893 L 235.692 195.631 L 235.223 195.535 L 234.764 195.636 L 234.411 195.919 L 234.184 196.378 L 234.103 196.983 L 234.179 197.603 L 234.406 198.057 L 234.754 198.339 L 235.208 198.435 L 235.601 198.37 L 235.924 198.198 L 236.161 197.926 L 236.297 197.563 L 235.858 197.563 L 235.768 197.764 L 235.636 197.916 L 235.263 198.037 L 234.976 197.981 L 234.759 197.805 L 234.618 197.517 L 234.567 197.129 L 234.567 197.114 L 234.567 197.114 z M 234.567 196.741 L 234.623 196.393 L 234.759 196.135 L 234.966 195.979 L 235.238 195.924 L 235.505 195.979 L 235.712 196.135 L 235.838 196.393 L 235.884 196.741 L 234.567 196.741 L 234.567 196.741 z" stroke="none" fill-rule="evenodd" fill="rgb(0, 0, 0)"/></g><g stroke="rgb(0, 0, 0)" stroke-width="0.13" stroke-linecap="butt" stroke-linejoin="miter" fill="none"><path d="M 203.804 204.386 L 206.023 204.386 L 206.023 203.963 L 204.267 203.963 L 204.267 202.777 L 205.831 202.777 L 205.831 202.359 L 204.267 202.359 L 204.267 201.31 L 205.982 201.31 L 205.982 200.886 L 203.804 200.886 L 203.804 204.386 L 203.804 204.386 z M 208.579 202.576 L 209.018 202.576 L 208.927 202.172 L 208.711 201.854 L 208.373 201.658 L 207.934 201.582 L 207.45 201.683 L 207.082 201.965 L 206.85 202.424 L 206.769 203.04 L 206.845 203.65 L 207.072 204.104 L 207.43 204.386 L 207.919 204.482 L 208.353 204.406 L 208.69 204.195 L 208.922 203.862 L 209.023 203.418 L 208.6 203.418 L 208.524 203.7 L 208.383 203.912 L 208.181 204.043 L 207.934 204.084 L 207.626 204.018 L 207.404 203.816 L 207.268 203.488 L 207.223 203.025 L 207.268 202.571 L 207.409 202.243 L 207.636 202.041 L 207.934 201.97 L 208.196 202.016 L 208.393 202.132 L 208.524 202.324 L 208.579 202.576 L 208.579 202.576 z M 209.891 204.386 L 210.334 204.386 L 210.334 202.823 L 210.38 202.465 L 210.526 202.202 L 210.753 202.041 L 211.056 201.981 L 211.298 202.031 L 211.449 202.167 L 211.525 202.394 L 211.55 202.697 L 211.55 204.386 L 211.994 204.386 L 211.994 202.606 L 211.974 202.248 L 211.883 201.95 L 211.585 201.678 L 211.121 201.582 L 210.869 201.617 L 210.652 201.713 L 210.471 201.865 L 210.334 202.071 L 210.334 200.765 L 209.891 200.765 L 209.891 204.386 L 209.891 204.386 z M 213.315 203.161 L 215.09 203.161 L 215.095 202.954 L 215.015 202.374 L 214.793 201.94 L 214.44 201.678 L 213.971 201.582 L 213.512 201.683 L 213.159 201.965 L 212.932 202.424 L 212.851 203.03 L 212.927 203.65 L 213.154 204.104 L 213.502 204.386 L 213.956 204.482 L 214.349 204.416 L 214.672 204.245 L 214.909 203.973 L 215.045 203.61 L 214.606 203.61 L 214.515 203.811 L 214.384 203.963 L 214.011 204.084 L 213.724 204.028 L 213.507 203.852 L 213.365 203.564 L 213.315 203.176 L 213.315 203.161 L 213.315 203.161 z M 213.315 202.787 L 213.371 202.439 L 213.507 202.182 L 213.713 202.026 L 213.986 201.97 L 214.253 202.026 L 214.46 202.182 L 214.586 202.439 L 214.631 202.787 L 213.315 202.787 L 213.315 202.787 z M 216.845 201.138 L 216.845 204.013 L 215.932 204.013 L 215.932 204.386 L 218.197 204.386 L 218.197 204.013 L 217.289 204.013 L 217.289 200.765 L 216.149 200.765 L 216.149 201.138 L 216.845 201.138 L 216.845 201.138 z M 219.881 201.138 L 219.881 204.013 L 218.969 204.013 L 218.969 204.386 L 221.233 204.386 L 221.233 204.013 L 220.325 204.013 L 220.325 200.765 L 219.185 200.765 L 219.185 201.138 L 219.881 201.138 L 219.881 201.138 z M 222.423 203.161 L 224.198 203.161 L 224.203 202.954 L 224.123 202.374 L 223.901 201.94 L 223.548 201.678 L 223.079 201.582 L 222.62 201.683 L 222.267 201.965 L 222.04 202.424 L 221.959 203.03 L 222.035 203.65 L 222.262 204.104 L 222.61 204.386 L 223.064 204.482 L 223.457 204.416 L 223.78 204.245 L 224.017 203.973 L 224.153 203.61 L 223.714 203.61 L 223.623 203.811 L 223.492 203.963 L 223.119 204.084 L 222.832 204.028 L 222.615 203.852 L 222.474 203.564 L 222.423 203.176 L 222.423 203.161 L 222.423 203.161 z M 222.423 202.787 L 222.479 202.439 L 222.615 202.182 L 222.822 202.026 L 223.094 201.97 L 223.361 202.026 L 223.568 202.182 L 223.694 202.439 L 223.739 202.787 L 222.423 202.787 L 222.423 202.787 z M 228.803 204.386 L 229.499 204.386 L 229.499 203.635 L 228.803 203.635 L 228.803 204.386 L 228.803 204.386 z M 228.803 202.429 L 229.499 202.429 L 229.499 201.678 L 228.803 201.678 L 228.803 202.429 L 228.803 202.429 z" stroke="none" fill-rule="evenodd" fill="rgb(0, 0, 0)"/></g><g stroke="rgb(0, 0, 0)" stroke-width="0.13" stroke-linecap="butt" stroke-linejoin="miter" fill="none"><path d="M 238.168 204.386 L 238.627 204.386 L 238.627 200.861 L 238.284 200.861 L 238.193 201.169 L 238.012 201.375 L 237.734 201.496 L 237.351 201.537 L 237.351 201.895 L 238.168 201.895 L 238.168 204.386 L 238.168 204.386 z M 240.947 204.386 L 241.643 204.386 L 241.643 203.635 L 240.947 203.635 L 240.947 204.386 L 240.947 204.386 z M 240.947 202.429 L 241.643 202.429 L 241.643 201.678 L 240.947 201.678 L 240.947 202.429 L 240.947 202.429 z M 244.24 204.386 L 244.699 204.386 L 244.699 200.861 L 244.356 200.861 L 244.265 201.169 L 244.084 201.375 L 243.806 201.496 L 243.423 201.537 L 243.423 201.895 L 244.24 201.895 L 244.24 204.386 L 244.24 204.386 z" stroke="none" fill-rule="evenodd" fill="rgb(0, 0, 0)"/></g></svg>