<?xml version="1.0" encoding="utf-8" ?><!DOCTYPE svg PUBLIC "-//W3C//DTD SVG 1.1//EN" "http://www.w3.org/Graphics/SVG/1.1/DTD/svg11.dtd" 
[ <!ATTLIST svg 
  xmlns:dsy CDATA #FIXED "http://www.3ds.com/print"  
    dsy:text-version CDATA #IMPLIED > 

  <!ATTLIST text 
  xmlns:dsy CDATA #FIXED "http://www.3ds.com/print" 
    dsy:text-version CDATA #IMPLIED > 
]><svg xmlns="http://www.w3.org/2000/svg" xmlns:dsy="http://www.3ds.com/print" dsy:text-version="18000" width="297" height="210" viewBox="0 0 297 210" version="1.1"><g stroke="rgb(0, 0, 0)" stroke-width="0.35" stroke-linecap="butt" stroke-linejoin="miter" fill="none"><path d="M 156.822 91.2665 L 170.816 91.2665"/><path d="M 126.185 82.3845 L 170.816 82.3845"/><path d="M 170.816 82.3845 L 170.816 91.2665"/><path d="M 170.816 96.1665 L 170.816 107.267"/><path d="M 170.816 127.616 L 126.185 127.616"/><path d="M 170.816 112.167 L 170.816 127.616"/><path d="M 156.822 107.267 L 170.816 107.267"/><path d="M 161.822 112.167 L 156.822 112.167"/><path d="M 170.816 112.167 L 161.822 112.167"/><path d="M 156.822 107.267 L 156.822 108.167"/><path d="M 156.822 112.167 L 156.822 108.167"/><path d="M 156.822 91.2665 L 156.822 92.1665"/><path d="M 156.822 92.1665 L 156.822 96.1665"/><path d="M 161.822 96.1665 L 156.822 96.1665"/><path d="M 170.816 96.1665 L 161.822 96.1665"/><path d="M 126.185 127.616 L 126.185 123.994"/><path d="M 126.185 104.656 L 126.185 82.3845"/><path d="M 126.185 123.994 A 10.0001 10.0001 0 1 0 126.185 104.656"/></g></svg>