<?xml version="1.0" encoding="utf-8" ?><!DOCTYPE svg PUBLIC "-//W3C//DTD SVG 1.1//EN" "http://www.w3.org/Graphics/SVG/1.1/DTD/svg11.dtd" 
[ <!ATTLIST svg 
  xmlns:dsy CDATA #FIXED "http://www.3ds.com/print"  
    dsy:text-version CDATA #IMPLIED > 

  <!ATTLIST text 
  xmlns:dsy CDATA #FIXED "http://www.3ds.com/print" 
    dsy:text-version CDATA #IMPLIED > 
]><svg xmlns="http://www.w3.org/2000/svg" xmlns:dsy="http://www.3ds.com/print" dsy:text-version="18000" width="297" height="210" viewBox="0 0 297 210" version="1.1"><g stroke="rgb(0, 0, 0)" stroke-width="0.13" stroke-linecap="butt" stroke-linejoin="miter" fill="none"><path d="M 172.816 127.616 L 192.612 127.616"/><path d="M 172.816 112.167 L 192.612 112.167"/></g><g stroke="rgb(0, 0, 0)" stroke-width="0.35" stroke-linecap="butt" stroke-linejoin="miter" fill="none"><path d="M 126.185 82.3845 L 170.816 82.3845"/><path d="M 170.816 127.616 L 126.185 127.616"/><path d="M 170.816 98.1665 L 170.816 106.267"/><path d="M 170.816 112.167 L 170.816 127.616"/><path d="M 170.816 82.3845 L 170.816 92.2665"/><path d="M 156.822 92.2665 L 156.822 98.1665"/><path d="M 156.822 92.2665 L 170.816 92.2665"/><path d="M 170.816 98.1665 L 156.822 98.1665"/><path d="M 156.822 112.167 L 156.822 106.267"/><path d="M 156.822 112.167 L 170.816 112.167"/><path d="M 170.816 106.267 L 156.822 106.267"/><path d="M 126.185 127.616 L 126.185 123.994"/><path d="M 126.185 104.656 L 126.185 82.3845"/><path d="M 126.185 123.994 A 10.0001 10.0001 0 1 0 126.185 104.656"/></g><g stroke="rgb(0, 0, 0)" stroke-width="0.13" stroke-linecap="butt" stroke-linejoin="miter" fill="none"><path d="M 188.612 105.739 L 188.612 105.28 L 185.087 105.28 L 185.087 105.623 L 185.394 105.714 L 185.601 105.896 L 185.722 106.173 L 185.763 106.556 L 186.121 106.556 L 186.121 105.739 L 188.612 105.739 L 188.612 105.739 z M 187.699 103.163 L 188.113 103.052 L 188.436 102.805 L 188.637 102.442 L 188.713 101.978 L 188.622 101.469 L 188.375 101.07 L 187.982 100.818 L 187.477 100.722 L 187.008 100.808 L 186.64 101.05 L 186.403 101.428 L 186.317 101.918 L 186.378 102.296 L 186.544 102.588 L 185.601 102.447 L 185.601 100.914 L 185.188 100.914 L 185.188 102.785 L 187.044 103.062 L 187.044 102.659 L 186.807 102.366 L 186.721 101.993 L 186.776 101.67 L 186.938 101.423 L 187.185 101.267 L 187.503 101.211 L 187.82 101.267 L 188.067 101.428 L 188.224 101.675 L 188.279 101.993 L 188.244 102.26 L 188.128 102.467 L 187.946 102.619 L 187.699 102.694 L 187.699 103.163 L 187.699 103.163 z M 188.612 98.5245 L 188.612 97.8285 L 187.861 97.8285 L 187.861 98.5245 L 188.612 98.5245 L 188.612 98.5245 z M 188.612 94.1631 L 188.612 93.7092 L 187.745 93.7092 L 187.745 93.2099 L 187.341 93.2099 L 187.341 93.7092 L 185.188 93.7092 L 185.188 94.1681 L 187.301 95.7013 L 187.745 95.7013 L 187.745 94.1631 L 188.612 94.1631 L 188.612 94.1631 z M 187.341 95.2776 L 185.773 94.1631 L 187.341 94.1631 L 187.341 95.2776 L 187.341 95.2776 z M 187.699 91.9552 L 188.113 91.8442 L 188.436 91.5971 L 188.637 91.234 L 188.713 90.77 L 188.622 90.2606 L 188.375 89.8622 L 187.982 89.6101 L 187.477 89.5142 L 187.008 89.6 L 186.64 89.842 L 186.403 90.2203 L 186.317 90.7095 L 186.378 91.0877 L 186.544 91.3802 L 185.601 91.239 L 185.601 89.7059 L 185.188 89.7059 L 185.188 91.5769 L 187.044 91.8543 L 187.044 91.4508 L 186.807 91.1583 L 186.721 90.7851 L 186.776 90.4624 L 186.938 90.2152 L 187.185 90.0589 L 187.503 90.0034 L 187.82 90.0589 L 188.067 90.2203 L 188.224 90.4674 L 188.279 90.7851 L 188.244 91.0524 L 188.128 91.2592 L 187.946 91.4105 L 187.699 91.4861 L 187.699 91.9552 L 187.699 91.9552 z" stroke="none" fill-rule="evenodd" fill="rgb(0, 0, 0)"/><path d="M 190.094 125.684 L 190.612 127.616 L 191.13 125.684"/><path d="M 191.13 114.098 L 190.612 112.167 L 190.094 114.098"/><path d="M 190.612 127.616 L 190.612 89.1864"/></g><g stroke="rgb(0, 0, 0)" stroke-width="0.13" stroke-linecap="butt" stroke-linejoin="miter" fill="none"><path d="M 150.896 135.967 L 150.018 138.948 L 149.116 135.967 L 148.636 135.967 L 149.766 139.472 L 150.27 139.472 L 151.375 135.967 L 150.896 135.967 L 150.896 135.967 z M 154.098 136.764 L 153.654 136.764 L 153.654 138.327 L 153.604 138.69 L 153.458 138.953 L 153.231 139.114 L 152.933 139.165 L 152.696 139.124 L 152.545 139.003 L 152.459 138.796 L 152.439 138.504 L 152.439 136.764 L 151.995 136.764 L 151.995 138.544 L 152.01 138.902 L 152.106 139.2 L 152.399 139.472 L 152.868 139.568 L 153.12 139.533 L 153.337 139.442 L 153.523 139.286 L 153.675 139.059 L 153.675 139.472 L 154.098 139.472 L 154.098 136.764 L 154.098 136.764 z M 155.435 138.247 L 157.21 138.247 L 157.215 138.04 L 157.134 137.46 L 156.912 137.026 L 156.559 136.764 L 156.09 136.668 L 155.631 136.769 L 155.278 137.051 L 155.051 137.51 L 154.971 138.116 L 155.046 138.736 L 155.273 139.19 L 155.621 139.472 L 156.075 139.568 L 156.469 139.502 L 156.791 139.331 L 157.028 139.059 L 157.165 138.695 L 156.726 138.695 L 156.635 138.897 L 156.504 139.049 L 156.131 139.17 L 155.843 139.114 L 155.626 138.938 L 155.485 138.65 L 155.435 138.262 L 155.435 138.247 L 155.435 138.247 z M 155.435 137.873 L 155.49 137.525 L 155.626 137.268 L 155.833 137.112 L 156.105 137.056 L 156.373 137.112 L 156.58 137.268 L 156.706 137.525 L 156.751 137.873 L 155.435 137.873 L 155.435 137.873 z M 162.783 139.054 L 162.783 139.472 L 163.227 139.472 L 163.227 135.851 L 162.788 135.851 L 162.788 137.177 L 162.45 136.794 L 162.243 136.703 L 162.006 136.668 L 161.577 136.769 L 161.245 137.051 L 161.028 137.505 L 160.952 138.116 L 161.028 138.726 L 161.245 139.185 L 161.577 139.472 L 162.006 139.568 L 162.243 139.533 L 162.455 139.442 L 162.783 139.054 L 162.783 139.054 z M 162.082 137.067 L 162.374 137.137 L 162.596 137.334 L 162.727 137.662 L 162.778 138.116 L 162.727 138.574 L 162.596 138.902 L 162.374 139.104 L 162.082 139.17 L 161.804 139.104 L 161.592 138.902 L 161.451 138.569 L 161.406 138.116 L 161.451 137.667 L 161.592 137.339 L 161.804 137.137 L 162.082 137.067 L 162.082 137.067 z M 164.543 138.247 L 166.318 138.247 L 166.323 138.04 L 166.242 137.46 L 166.02 137.026 L 165.667 136.764 L 165.198 136.668 L 164.739 136.769 L 164.386 137.051 L 164.16 137.51 L 164.079 138.116 L 164.154 138.736 L 164.381 139.19 L 164.729 139.472 L 165.183 139.568 L 165.577 139.502 L 165.899 139.331 L 166.136 139.059 L 166.273 138.695 L 165.834 138.695 L 165.743 138.897 L 165.612 139.049 L 165.239 139.17 L 164.951 139.114 L 164.734 138.938 L 164.593 138.65 L 164.543 138.262 L 164.543 138.247 L 164.543 138.247 z M 164.543 137.873 L 164.598 137.525 L 164.734 137.268 L 164.941 137.112 L 165.214 137.056 L 165.481 137.112 L 165.688 137.268 L 165.814 137.525 L 165.859 137.873 L 164.543 137.873 L 164.543 137.873 z M 170.842 137.233 L 170.842 139.472 L 171.286 139.472 L 171.286 137.233 L 172.294 137.233 L 172.294 136.855 L 171.286 136.855 L 171.286 136.688 L 171.321 136.487 L 171.437 136.35 L 171.634 136.27 L 171.916 136.239 L 172.294 136.26 L 172.294 135.876 L 171.815 135.851 L 171.381 135.897 L 171.079 136.033 L 170.897 136.27 L 170.842 136.608 L 170.842 136.855 L 170.03 136.855 L 170.03 137.233 L 170.842 137.233 L 170.842 137.233 z M 174.871 139.119 L 174.871 139.134 L 174.897 139.306 L 174.972 139.427 L 175.29 139.523 L 175.537 139.482 L 175.537 139.139 L 175.431 139.154 L 175.29 139.089 L 175.265 138.887 L 175.265 137.485 L 175.204 137.127 L 175.028 136.875 L 174.72 136.724 L 174.286 136.668 L 173.863 136.729 L 173.55 136.9 L 173.353 137.167 L 173.288 137.52 L 173.288 137.551 L 173.686 137.551 L 173.721 137.339 L 173.832 137.188 L 174.014 137.097 L 174.271 137.061 L 174.518 137.087 L 174.695 137.162 L 174.801 137.293 L 174.836 137.475 L 174.816 137.687 L 174.735 137.793 L 174.533 137.843 L 174.155 137.884 L 173.721 137.974 L 173.414 138.136 L 173.232 138.388 L 173.177 138.761 L 173.227 139.094 L 173.384 139.341 L 173.636 139.497 L 173.984 139.553 L 174.453 139.447 L 174.871 139.119 L 174.871 139.119 z M 174.821 138.524 L 174.76 138.786 L 174.599 138.988 L 174.357 139.119 L 174.059 139.165 L 173.868 139.139 L 173.732 139.059 L 173.646 138.917 L 173.621 138.721 L 173.641 138.544 L 173.721 138.418 L 174.044 138.277 L 174.453 138.216 L 174.821 138.095 L 174.821 138.524 L 174.821 138.524 z M 178.023 137.662 L 178.462 137.662 L 178.371 137.258 L 178.154 136.94 L 177.817 136.744 L 177.378 136.668 L 176.894 136.769 L 176.525 137.051 L 176.294 137.51 L 176.213 138.126 L 176.288 138.736 L 176.515 139.19 L 176.873 139.472 L 177.363 139.568 L 177.796 139.492 L 178.134 139.281 L 178.366 138.948 L 178.467 138.504 L 178.044 138.504 L 177.968 138.786 L 177.827 138.998 L 177.625 139.129 L 177.378 139.17 L 177.07 139.104 L 176.848 138.902 L 176.712 138.574 L 176.667 138.11 L 176.712 137.657 L 176.853 137.329 L 177.08 137.127 L 177.378 137.056 L 177.64 137.102 L 177.837 137.218 L 177.968 137.409 L 178.023 137.662 L 178.023 137.662 z M 179.723 138.247 L 181.498 138.247 L 181.503 138.04 L 181.422 137.46 L 181.201 137.026 L 180.848 136.764 L 180.379 136.668 L 179.92 136.769 L 179.567 137.051 L 179.34 137.51 L 179.259 138.116 L 179.335 138.736 L 179.562 139.19 L 179.91 139.472 L 180.363 139.568 L 180.757 139.502 L 181.08 139.331 L 181.317 139.059 L 181.453 138.695 L 181.014 138.695 L 180.923 138.897 L 180.792 139.049 L 180.419 139.17 L 180.131 139.114 L 179.915 138.938 L 179.773 138.65 L 179.723 138.262 L 179.723 138.247 L 179.723 138.247 z M 179.723 137.873 L 179.778 137.525 L 179.915 137.268 L 180.121 137.112 L 180.394 137.056 L 180.661 137.112 L 180.868 137.268 L 180.994 137.525 L 181.039 137.873 L 179.723 137.873 L 179.723 137.873 z" stroke="none" fill-rule="evenodd" fill="rgb(0, 0, 0)"/></g><g stroke="rgb(0, 0, 0)" stroke-width="0.13" stroke-linecap="butt" stroke-linejoin="miter" fill="none"><path d="M 148.959 145.519 L 151.178 145.519 L 151.178 145.095 L 149.423 145.095 L 149.423 143.91 L 150.987 143.91 L 150.987 143.492 L 149.423 143.492 L 149.423 142.443 L 151.138 142.443 L 151.138 142.019 L 148.959 142.019 L 148.959 145.519 L 148.959 145.519 z M 153.735 143.708 L 154.174 143.708 L 154.083 143.305 L 153.866 142.987 L 153.528 142.791 L 153.09 142.715 L 152.605 142.816 L 152.237 143.098 L 152.005 143.557 L 151.925 144.172 L 152 144.783 L 152.227 145.237 L 152.585 145.519 L 153.074 145.615 L 153.508 145.539 L 153.846 145.327 L 154.078 144.994 L 154.179 144.551 L 153.755 144.551 L 153.68 144.833 L 153.538 145.045 L 153.337 145.176 L 153.09 145.216 L 152.782 145.151 L 152.56 144.949 L 152.424 144.621 L 152.379 144.157 L 152.424 143.703 L 152.565 143.376 L 152.792 143.174 L 153.09 143.103 L 153.352 143.149 L 153.549 143.265 L 153.68 143.456 L 153.735 143.708 L 153.735 143.708 z M 155.046 145.519 L 155.49 145.519 L 155.49 143.956 L 155.536 143.598 L 155.682 143.335 L 155.909 143.174 L 156.211 143.113 L 156.453 143.164 L 156.605 143.3 L 156.68 143.527 L 156.706 143.83 L 156.706 145.519 L 157.149 145.519 L 157.149 143.739 L 157.129 143.381 L 157.038 143.083 L 156.741 142.811 L 156.277 142.715 L 156.025 142.75 L 155.808 142.846 L 155.626 142.997 L 155.49 143.204 L 155.49 141.898 L 155.046 141.898 L 155.046 145.519 L 155.046 145.519 z M 158.471 144.293 L 160.246 144.293 L 160.251 144.087 L 160.17 143.507 L 159.948 143.073 L 159.595 142.811 L 159.126 142.715 L 158.667 142.816 L 158.314 143.098 L 158.087 143.557 L 158.007 144.162 L 158.082 144.783 L 158.309 145.237 L 158.657 145.519 L 159.111 145.615 L 159.505 145.549 L 159.827 145.378 L 160.064 145.105 L 160.201 144.742 L 159.762 144.742 L 159.671 144.944 L 159.54 145.095 L 159.167 145.216 L 158.879 145.161 L 158.662 144.984 L 158.521 144.697 L 158.471 144.309 L 158.471 144.293 L 158.471 144.293 z M 158.471 143.92 L 158.526 143.572 L 158.662 143.315 L 158.869 143.159 L 159.141 143.103 L 159.409 143.159 L 159.616 143.315 L 159.742 143.572 L 159.787 143.92 L 158.471 143.92 L 158.471 143.92 z M 162.001 142.271 L 162.001 145.146 L 161.088 145.146 L 161.088 145.519 L 163.353 145.519 L 163.353 145.146 L 162.445 145.146 L 162.445 141.898 L 161.305 141.898 L 161.305 142.271 L 162.001 142.271 L 162.001 142.271 z M 165.037 142.271 L 165.037 145.146 L 164.124 145.146 L 164.124 145.519 L 166.389 145.519 L 166.389 145.146 L 165.481 145.146 L 165.481 141.898 L 164.341 141.898 L 164.341 142.271 L 165.037 142.271 L 165.037 142.271 z M 167.579 144.293 L 169.354 144.293 L 169.359 144.087 L 169.278 143.507 L 169.056 143.073 L 168.703 142.811 L 168.234 142.715 L 167.775 142.816 L 167.422 143.098 L 167.196 143.557 L 167.115 144.162 L 167.19 144.783 L 167.417 145.237 L 167.765 145.519 L 168.219 145.615 L 168.613 145.549 L 168.935 145.378 L 169.172 145.105 L 169.309 144.742 L 168.87 144.742 L 168.779 144.944 L 168.648 145.095 L 168.275 145.216 L 167.987 145.161 L 167.77 144.984 L 167.629 144.697 L 167.579 144.309 L 167.579 144.293 L 167.579 144.293 z M 167.579 143.92 L 167.634 143.572 L 167.77 143.315 L 167.977 143.159 L 168.25 143.103 L 168.517 143.159 L 168.724 143.315 L 168.85 143.572 L 168.895 143.92 L 167.579 143.92 L 167.579 143.92 z M 173.958 145.519 L 174.654 145.519 L 174.654 144.768 L 173.958 144.768 L 173.958 145.519 L 173.958 145.519 z M 173.958 143.562 L 174.654 143.562 L 174.654 142.811 L 173.958 142.811 L 173.958 143.562 L 173.958 143.562 z" stroke="none" fill-rule="evenodd" fill="rgb(0, 0, 0)"/></g><g stroke="rgb(0, 0, 0)" stroke-width="0.13" stroke-linecap="butt" stroke-linejoin="miter" fill="none"><path d="M 183.324 145.519 L 183.783 145.519 L 183.783 141.994 L 183.44 141.994 L 183.349 142.301 L 183.167 142.508 L 182.89 142.629 L 182.507 142.67 L 182.507 143.028 L 183.324 143.028 L 183.324 145.519 L 183.324 145.519 z M 186.103 145.519 L 186.799 145.519 L 186.799 144.768 L 186.103 144.768 L 186.103 145.519 L 186.103 145.519 z M 186.103 143.562 L 186.799 143.562 L 186.799 142.811 L 186.103 142.811 L 186.103 143.562 L 186.103 143.562 z M 189.396 145.519 L 189.855 145.519 L 189.855 141.994 L 189.512 141.994 L 189.421 142.301 L 189.239 142.508 L 188.962 142.629 L 188.579 142.67 L 188.579 143.028 L 189.396 143.028 L 189.396 145.519 L 189.396 145.519 z" stroke="none" fill-rule="evenodd" fill="rgb(0, 0, 0)"/></g></svg>