G04 EAGLE Gerber RS-274X export*
G75*
%MOMM*%
%FSLAX34Y34*%
%LPD*%
%INTop Copper*%
%IPPOS*%
%AMOC8*
5,1,8,0,0,1.08239X$1,22.5*%
G01*
%ADD10R,1.258000X1.258000*%
%ADD11C,1.258000*%
%ADD12R,1.000000X1.100000*%
%ADD13R,0.800000X0.800000*%
%ADD14R,1.000000X2.100000*%
%ADD15R,4.900000X5.850000*%
%ADD16R,1.150000X0.600000*%
%ADD17R,1.981200X0.558800*%
%ADD18R,1.100000X1.000000*%
%ADD19C,1.508000*%
%ADD20C,0.152400*%
%ADD21C,0.756400*%

G36*
X393720Y48302D02*
X393720Y48302D01*
X393739Y48300D01*
X393841Y48322D01*
X393943Y48339D01*
X393960Y48348D01*
X393980Y48352D01*
X394069Y48405D01*
X394160Y48454D01*
X394174Y48468D01*
X394191Y48478D01*
X394258Y48557D01*
X394330Y48632D01*
X394338Y48650D01*
X394351Y48665D01*
X394390Y48761D01*
X394433Y48855D01*
X394435Y48875D01*
X394443Y48893D01*
X394461Y49060D01*
X394461Y54276D01*
X394459Y54291D01*
X394461Y54307D01*
X394435Y54473D01*
X392939Y60056D01*
X392939Y66944D01*
X394435Y72527D01*
X394437Y72543D01*
X394443Y72558D01*
X394461Y72724D01*
X394461Y88139D01*
X409876Y88139D01*
X409891Y88141D01*
X409907Y88139D01*
X410073Y88165D01*
X415656Y89661D01*
X422544Y89661D01*
X428127Y88165D01*
X428143Y88163D01*
X428158Y88157D01*
X428324Y88139D01*
X433540Y88139D01*
X433560Y88142D01*
X433579Y88140D01*
X433681Y88162D01*
X433783Y88179D01*
X433800Y88188D01*
X433820Y88192D01*
X433909Y88245D01*
X434000Y88294D01*
X434014Y88308D01*
X434031Y88318D01*
X434098Y88397D01*
X434169Y88472D01*
X434178Y88490D01*
X434191Y88505D01*
X434230Y88601D01*
X434273Y88695D01*
X434275Y88715D01*
X434283Y88733D01*
X434301Y88900D01*
X434301Y241300D01*
X434298Y241320D01*
X434300Y241339D01*
X434278Y241441D01*
X434261Y241543D01*
X434252Y241560D01*
X434248Y241580D01*
X434195Y241669D01*
X434146Y241760D01*
X434132Y241774D01*
X434122Y241791D01*
X434043Y241858D01*
X433968Y241930D01*
X433950Y241938D01*
X433935Y241951D01*
X433839Y241990D01*
X433745Y242033D01*
X433725Y242035D01*
X433707Y242043D01*
X433540Y242061D01*
X428324Y242061D01*
X428309Y242059D01*
X428293Y242061D01*
X428127Y242035D01*
X422544Y240539D01*
X415656Y240539D01*
X410073Y242035D01*
X410057Y242037D01*
X410042Y242043D01*
X409876Y242061D01*
X394461Y242061D01*
X394461Y257476D01*
X394459Y257491D01*
X394461Y257507D01*
X394435Y257673D01*
X392939Y263256D01*
X392939Y270144D01*
X394435Y275727D01*
X394437Y275743D01*
X394443Y275758D01*
X394461Y275924D01*
X394461Y281140D01*
X394458Y281160D01*
X394460Y281179D01*
X394438Y281281D01*
X394421Y281383D01*
X394412Y281400D01*
X394408Y281420D01*
X394355Y281509D01*
X394306Y281600D01*
X394292Y281614D01*
X394282Y281631D01*
X394203Y281698D01*
X394128Y281769D01*
X394110Y281778D01*
X394095Y281791D01*
X393999Y281830D01*
X393905Y281873D01*
X393885Y281875D01*
X393867Y281883D01*
X393700Y281901D01*
X292100Y281901D01*
X292080Y281898D01*
X292061Y281900D01*
X291959Y281878D01*
X291857Y281861D01*
X291840Y281852D01*
X291820Y281848D01*
X291731Y281795D01*
X291640Y281746D01*
X291626Y281732D01*
X291609Y281722D01*
X291542Y281643D01*
X291471Y281568D01*
X291462Y281550D01*
X291449Y281535D01*
X291410Y281439D01*
X291367Y281345D01*
X291365Y281325D01*
X291357Y281307D01*
X291339Y281140D01*
X291339Y149098D01*
X291342Y149078D01*
X291340Y149059D01*
X291362Y148957D01*
X291379Y148855D01*
X291388Y148838D01*
X291392Y148818D01*
X291445Y148729D01*
X291494Y148638D01*
X291508Y148624D01*
X291518Y148607D01*
X291597Y148540D01*
X291672Y148468D01*
X291690Y148460D01*
X291705Y148447D01*
X291801Y148408D01*
X291895Y148365D01*
X291915Y148363D01*
X291933Y148355D01*
X292100Y148337D01*
X296857Y148337D01*
X302984Y142210D01*
X303058Y142157D01*
X303128Y142097D01*
X303158Y142085D01*
X303184Y142066D01*
X303271Y142039D01*
X303356Y142005D01*
X303397Y142001D01*
X303419Y141994D01*
X303451Y141995D01*
X303523Y141987D01*
X367037Y141987D01*
X367128Y142001D01*
X367218Y142009D01*
X367248Y142021D01*
X367280Y142026D01*
X367361Y142069D01*
X367445Y142105D01*
X367477Y142131D01*
X367498Y142142D01*
X367520Y142165D01*
X367576Y142210D01*
X394161Y168795D01*
X394188Y168833D01*
X394222Y168864D01*
X394260Y168932D01*
X394305Y168995D01*
X394318Y169039D01*
X394341Y169079D01*
X394354Y169156D01*
X394377Y169230D01*
X394376Y169276D01*
X394384Y169321D01*
X394373Y169398D01*
X394371Y169476D01*
X394355Y169519D01*
X394349Y169565D01*
X394313Y169634D01*
X394287Y169707D01*
X394258Y169743D01*
X394237Y169784D01*
X394201Y169819D01*
X394195Y169828D01*
X394176Y169845D01*
X394133Y169899D01*
X394094Y169924D01*
X394061Y169956D01*
X394019Y169979D01*
X394008Y169988D01*
X393987Y169997D01*
X393942Y170022D01*
X393926Y170032D01*
X393921Y170033D01*
X393914Y170037D01*
X393725Y170115D01*
X391175Y172665D01*
X389795Y175997D01*
X389795Y179603D01*
X391175Y182935D01*
X393725Y185485D01*
X397057Y186865D01*
X415743Y186865D01*
X419075Y185485D01*
X421625Y182935D01*
X423005Y179603D01*
X423005Y175997D01*
X421625Y172665D01*
X419075Y170115D01*
X415743Y168735D01*
X400885Y168735D01*
X400794Y168721D01*
X400704Y168713D01*
X400674Y168701D01*
X400642Y168696D01*
X400561Y168653D01*
X400477Y168617D01*
X400445Y168591D01*
X400424Y168580D01*
X400402Y168557D01*
X400346Y168512D01*
X395138Y163304D01*
X395098Y163249D01*
X395051Y163200D01*
X395027Y163149D01*
X394994Y163104D01*
X394974Y163039D01*
X394945Y162978D01*
X394938Y162922D01*
X394922Y162869D01*
X394923Y162801D01*
X394915Y162734D01*
X394927Y162679D01*
X394928Y162623D01*
X394951Y162559D01*
X394965Y162493D01*
X394993Y162445D01*
X395012Y162392D01*
X395055Y162339D01*
X395089Y162280D01*
X395131Y162244D01*
X395166Y162200D01*
X395223Y162163D01*
X395274Y162119D01*
X395326Y162097D01*
X395373Y162067D01*
X395439Y162050D01*
X395501Y162024D01*
X395557Y162020D01*
X395612Y162007D01*
X395679Y162012D01*
X395747Y162007D01*
X395824Y162023D01*
X395857Y162026D01*
X395876Y162034D01*
X395911Y162041D01*
X396499Y162233D01*
X398067Y162481D01*
X404877Y162481D01*
X404877Y153923D01*
X388895Y153923D01*
X389027Y154761D01*
X389219Y155349D01*
X389229Y155416D01*
X389249Y155481D01*
X389247Y155537D01*
X389256Y155592D01*
X389244Y155659D01*
X389242Y155727D01*
X389223Y155779D01*
X389214Y155834D01*
X389181Y155894D01*
X389158Y155958D01*
X389123Y156001D01*
X389096Y156051D01*
X389047Y156097D01*
X389004Y156150D01*
X388957Y156180D01*
X388916Y156218D01*
X388854Y156246D01*
X388797Y156283D01*
X388743Y156296D01*
X388692Y156319D01*
X388625Y156326D01*
X388559Y156343D01*
X388503Y156338D01*
X388447Y156344D01*
X388381Y156329D01*
X388314Y156324D01*
X388262Y156302D01*
X388208Y156289D01*
X388150Y156254D01*
X388087Y156227D01*
X388026Y156178D01*
X387998Y156161D01*
X387984Y156145D01*
X387956Y156122D01*
X369247Y137413D01*
X301313Y137413D01*
X295186Y143540D01*
X295112Y143593D01*
X295042Y143653D01*
X295012Y143665D01*
X294986Y143684D01*
X294899Y143711D01*
X294814Y143745D01*
X294773Y143749D01*
X294751Y143756D01*
X294719Y143755D01*
X294647Y143763D01*
X292100Y143763D01*
X292080Y143760D01*
X292061Y143762D01*
X291959Y143740D01*
X291857Y143724D01*
X291840Y143714D01*
X291820Y143710D01*
X291731Y143657D01*
X291640Y143608D01*
X291626Y143594D01*
X291609Y143584D01*
X291542Y143505D01*
X291471Y143430D01*
X291462Y143412D01*
X291449Y143397D01*
X291410Y143301D01*
X291367Y143207D01*
X291365Y143187D01*
X291357Y143169D01*
X291339Y143002D01*
X291339Y136398D01*
X291342Y136378D01*
X291340Y136359D01*
X291362Y136257D01*
X291379Y136155D01*
X291388Y136138D01*
X291392Y136118D01*
X291445Y136029D01*
X291494Y135938D01*
X291508Y135924D01*
X291518Y135907D01*
X291597Y135840D01*
X291672Y135768D01*
X291690Y135760D01*
X291705Y135747D01*
X291801Y135708D01*
X291895Y135665D01*
X291915Y135663D01*
X291933Y135655D01*
X292100Y135637D01*
X295587Y135637D01*
X298694Y132530D01*
X298768Y132477D01*
X298838Y132417D01*
X298868Y132405D01*
X298894Y132386D01*
X298981Y132359D01*
X299066Y132325D01*
X299107Y132321D01*
X299129Y132314D01*
X299161Y132315D01*
X299233Y132307D01*
X303188Y132307D01*
X306297Y129198D01*
X306297Y125243D01*
X306311Y125152D01*
X306319Y125062D01*
X306331Y125032D01*
X306336Y125000D01*
X306379Y124919D01*
X306415Y124835D01*
X306441Y124803D01*
X306452Y124782D01*
X306475Y124760D01*
X306520Y124704D01*
X309716Y121508D01*
X309726Y121443D01*
X309736Y121426D01*
X309740Y121406D01*
X309793Y121317D01*
X309842Y121226D01*
X309856Y121212D01*
X309866Y121195D01*
X309945Y121128D01*
X310020Y121056D01*
X310038Y121048D01*
X310053Y121035D01*
X310149Y120996D01*
X310243Y120953D01*
X310263Y120951D01*
X310281Y120943D01*
X310448Y120925D01*
X313032Y120925D01*
X313925Y120032D01*
X313925Y97768D01*
X313032Y96875D01*
X301768Y96875D01*
X300875Y97768D01*
X300875Y120032D01*
X301237Y120394D01*
X301279Y120452D01*
X301329Y120504D01*
X301351Y120551D01*
X301381Y120593D01*
X301402Y120662D01*
X301432Y120727D01*
X301438Y120779D01*
X301453Y120829D01*
X301451Y120900D01*
X301459Y120971D01*
X301448Y121022D01*
X301447Y121074D01*
X301422Y121142D01*
X301407Y121212D01*
X301380Y121257D01*
X301363Y121305D01*
X301318Y121361D01*
X301281Y121423D01*
X301241Y121457D01*
X301209Y121497D01*
X301149Y121536D01*
X301094Y121583D01*
X301046Y121602D01*
X301002Y121630D01*
X300933Y121648D01*
X300866Y121675D01*
X300795Y121683D01*
X300763Y121691D01*
X300740Y121689D01*
X300699Y121693D01*
X298792Y121693D01*
X295683Y124802D01*
X295683Y128757D01*
X295669Y128848D01*
X295661Y128938D01*
X295649Y128968D01*
X295644Y129000D01*
X295601Y129081D01*
X295565Y129165D01*
X295539Y129197D01*
X295528Y129218D01*
X295505Y129240D01*
X295460Y129296D01*
X293916Y130840D01*
X293842Y130893D01*
X293772Y130953D01*
X293742Y130965D01*
X293716Y130984D01*
X293629Y131011D01*
X293544Y131045D01*
X293503Y131049D01*
X293481Y131056D01*
X293449Y131055D01*
X293377Y131063D01*
X292100Y131063D01*
X292080Y131060D01*
X292061Y131062D01*
X291959Y131040D01*
X291857Y131024D01*
X291840Y131014D01*
X291820Y131010D01*
X291731Y130957D01*
X291640Y130908D01*
X291626Y130894D01*
X291609Y130884D01*
X291542Y130805D01*
X291471Y130730D01*
X291462Y130712D01*
X291449Y130697D01*
X291410Y130601D01*
X291367Y130507D01*
X291365Y130487D01*
X291357Y130469D01*
X291339Y130302D01*
X291339Y49060D01*
X291342Y49040D01*
X291340Y49021D01*
X291362Y48919D01*
X291379Y48817D01*
X291388Y48800D01*
X291392Y48780D01*
X291445Y48691D01*
X291494Y48600D01*
X291508Y48586D01*
X291518Y48569D01*
X291597Y48502D01*
X291672Y48431D01*
X291690Y48422D01*
X291705Y48409D01*
X291801Y48370D01*
X291895Y48327D01*
X291915Y48325D01*
X291933Y48317D01*
X292100Y48299D01*
X393700Y48299D01*
X393720Y48302D01*
G37*
%LPC*%
G36*
X348678Y68385D02*
X348678Y68385D01*
X347785Y69278D01*
X347785Y79112D01*
X347782Y79132D01*
X347784Y79151D01*
X347762Y79253D01*
X347746Y79355D01*
X347736Y79372D01*
X347732Y79392D01*
X347679Y79481D01*
X347630Y79572D01*
X347616Y79586D01*
X347606Y79603D01*
X347527Y79670D01*
X347452Y79742D01*
X347434Y79750D01*
X347419Y79763D01*
X347323Y79802D01*
X347229Y79845D01*
X347209Y79847D01*
X347191Y79855D01*
X347024Y79873D01*
X334946Y79873D01*
X334926Y79870D01*
X334907Y79872D01*
X334805Y79850D01*
X334703Y79834D01*
X334686Y79824D01*
X334666Y79820D01*
X334577Y79767D01*
X334486Y79718D01*
X334472Y79704D01*
X334455Y79694D01*
X334388Y79615D01*
X334316Y79540D01*
X334308Y79522D01*
X334295Y79507D01*
X334256Y79411D01*
X334213Y79317D01*
X334211Y79297D01*
X334203Y79279D01*
X334185Y79112D01*
X334185Y76028D01*
X333292Y75135D01*
X322028Y75135D01*
X321135Y76028D01*
X321135Y81612D01*
X321132Y81632D01*
X321134Y81651D01*
X321112Y81753D01*
X321096Y81855D01*
X321086Y81872D01*
X321082Y81892D01*
X321029Y81981D01*
X320980Y82072D01*
X320966Y82086D01*
X320956Y82103D01*
X320877Y82170D01*
X320802Y82242D01*
X320784Y82250D01*
X320769Y82263D01*
X320673Y82302D01*
X320579Y82345D01*
X320559Y82347D01*
X320541Y82355D01*
X320374Y82373D01*
X311086Y82373D01*
X311066Y82370D01*
X311047Y82372D01*
X310945Y82350D01*
X310843Y82334D01*
X310826Y82324D01*
X310806Y82320D01*
X310717Y82267D01*
X310626Y82218D01*
X310612Y82204D01*
X310595Y82194D01*
X310528Y82115D01*
X310456Y82040D01*
X310448Y82022D01*
X310435Y82007D01*
X310396Y81911D01*
X310353Y81817D01*
X310351Y81797D01*
X310343Y81779D01*
X310325Y81612D01*
X310325Y80028D01*
X309432Y79135D01*
X300168Y79135D01*
X299275Y80028D01*
X299275Y89292D01*
X300168Y90185D01*
X309432Y90185D01*
X310325Y89292D01*
X310325Y87708D01*
X310328Y87688D01*
X310326Y87669D01*
X310348Y87567D01*
X310364Y87465D01*
X310374Y87448D01*
X310378Y87428D01*
X310431Y87339D01*
X310480Y87248D01*
X310494Y87234D01*
X310504Y87217D01*
X310583Y87150D01*
X310658Y87078D01*
X310676Y87070D01*
X310691Y87057D01*
X310787Y87018D01*
X310881Y86975D01*
X310901Y86973D01*
X310919Y86965D01*
X311086Y86947D01*
X320374Y86947D01*
X320394Y86950D01*
X320413Y86948D01*
X320515Y86970D01*
X320617Y86986D01*
X320634Y86996D01*
X320654Y87000D01*
X320743Y87053D01*
X320834Y87102D01*
X320848Y87116D01*
X320865Y87126D01*
X320932Y87205D01*
X321004Y87280D01*
X321012Y87298D01*
X321025Y87313D01*
X321064Y87409D01*
X321107Y87503D01*
X321109Y87523D01*
X321117Y87541D01*
X321135Y87708D01*
X321135Y88292D01*
X322028Y89185D01*
X333292Y89185D01*
X334185Y88292D01*
X334185Y85208D01*
X334188Y85188D01*
X334186Y85169D01*
X334208Y85067D01*
X334224Y84965D01*
X334234Y84948D01*
X334238Y84928D01*
X334291Y84839D01*
X334340Y84748D01*
X334354Y84734D01*
X334364Y84717D01*
X334443Y84650D01*
X334518Y84578D01*
X334536Y84570D01*
X334551Y84557D01*
X334647Y84518D01*
X334741Y84475D01*
X334761Y84473D01*
X334779Y84465D01*
X334946Y84447D01*
X349952Y84447D01*
X349972Y84450D01*
X349991Y84448D01*
X350093Y84470D01*
X350195Y84486D01*
X350212Y84496D01*
X350232Y84500D01*
X350321Y84553D01*
X350412Y84602D01*
X350426Y84616D01*
X350443Y84626D01*
X350510Y84705D01*
X350582Y84780D01*
X350590Y84798D01*
X350603Y84813D01*
X350642Y84909D01*
X350685Y85003D01*
X350687Y85023D01*
X350695Y85041D01*
X350713Y85208D01*
X350713Y96114D01*
X350710Y96134D01*
X350712Y96153D01*
X350690Y96255D01*
X350674Y96357D01*
X350664Y96374D01*
X350660Y96394D01*
X350607Y96483D01*
X350558Y96574D01*
X350544Y96588D01*
X350534Y96605D01*
X350455Y96672D01*
X350380Y96744D01*
X350362Y96752D01*
X350347Y96765D01*
X350251Y96804D01*
X350157Y96847D01*
X350137Y96849D01*
X350119Y96857D01*
X349952Y96875D01*
X347368Y96875D01*
X346475Y97768D01*
X346475Y120032D01*
X347368Y120925D01*
X358632Y120925D01*
X359673Y119883D01*
X359689Y119872D01*
X359702Y119856D01*
X359789Y119800D01*
X359873Y119740D01*
X359892Y119734D01*
X359908Y119723D01*
X360009Y119698D01*
X360108Y119667D01*
X360128Y119668D01*
X360147Y119663D01*
X360250Y119671D01*
X360354Y119674D01*
X360372Y119681D01*
X360392Y119682D01*
X360487Y119723D01*
X360585Y119758D01*
X360600Y119771D01*
X360618Y119779D01*
X360749Y119883D01*
X370153Y129287D01*
X389487Y129287D01*
X389602Y129306D01*
X389718Y129323D01*
X389724Y129325D01*
X389730Y129326D01*
X389832Y129381D01*
X389937Y129434D01*
X389942Y129439D01*
X389947Y129442D01*
X390027Y129526D01*
X390109Y129610D01*
X390113Y129616D01*
X390116Y129620D01*
X390124Y129637D01*
X390190Y129757D01*
X391175Y132135D01*
X393725Y134685D01*
X397057Y136065D01*
X415743Y136065D01*
X419075Y134685D01*
X421625Y132135D01*
X423005Y128803D01*
X423005Y125197D01*
X421625Y121865D01*
X419075Y119315D01*
X415743Y117935D01*
X397057Y117935D01*
X393725Y119315D01*
X391175Y121865D01*
X390190Y124243D01*
X390128Y124343D01*
X390069Y124443D01*
X390064Y124447D01*
X390061Y124452D01*
X389970Y124527D01*
X389882Y124603D01*
X389876Y124605D01*
X389871Y124609D01*
X389763Y124651D01*
X389654Y124695D01*
X389646Y124696D01*
X389642Y124697D01*
X389623Y124698D01*
X389487Y124713D01*
X372363Y124713D01*
X372272Y124699D01*
X372182Y124691D01*
X372152Y124679D01*
X372120Y124674D01*
X372039Y124631D01*
X371955Y124595D01*
X371923Y124569D01*
X371902Y124558D01*
X371880Y124535D01*
X371824Y124490D01*
X359748Y112414D01*
X359695Y112340D01*
X359635Y112270D01*
X359623Y112240D01*
X359604Y112214D01*
X359577Y112127D01*
X359543Y112042D01*
X359539Y112001D01*
X359532Y111979D01*
X359533Y111947D01*
X359525Y111875D01*
X359525Y97768D01*
X358632Y96875D01*
X356048Y96875D01*
X356028Y96872D01*
X356009Y96874D01*
X355907Y96852D01*
X355805Y96836D01*
X355788Y96826D01*
X355768Y96822D01*
X355679Y96769D01*
X355588Y96720D01*
X355574Y96706D01*
X355557Y96696D01*
X355490Y96617D01*
X355418Y96542D01*
X355410Y96524D01*
X355397Y96509D01*
X355358Y96412D01*
X355315Y96319D01*
X355313Y96299D01*
X355305Y96281D01*
X355287Y96114D01*
X355287Y84776D01*
X355290Y84756D01*
X355288Y84737D01*
X355310Y84635D01*
X355326Y84533D01*
X355336Y84516D01*
X355340Y84496D01*
X355393Y84407D01*
X355442Y84316D01*
X355456Y84302D01*
X355466Y84285D01*
X355545Y84218D01*
X355620Y84146D01*
X355638Y84138D01*
X355653Y84125D01*
X355749Y84086D01*
X355843Y84043D01*
X355863Y84041D01*
X355881Y84033D01*
X356048Y84015D01*
X362522Y84015D01*
X363415Y83122D01*
X363415Y69278D01*
X362522Y68385D01*
X348678Y68385D01*
G37*
%LPD*%
%LPC*%
G36*
X331723Y178423D02*
X331723Y178423D01*
X331723Y208691D01*
X355034Y208691D01*
X355681Y208518D01*
X356260Y208183D01*
X356733Y207710D01*
X357068Y207131D01*
X357241Y206484D01*
X357241Y178423D01*
X331723Y178423D01*
G37*
%LPD*%
%LPC*%
G36*
X303159Y178423D02*
X303159Y178423D01*
X303159Y206484D01*
X303332Y207131D01*
X303667Y207710D01*
X304140Y208183D01*
X304719Y208518D01*
X305366Y208691D01*
X328677Y208691D01*
X328677Y178423D01*
X303159Y178423D01*
G37*
%LPD*%
%LPC*%
G36*
X331723Y145109D02*
X331723Y145109D01*
X331723Y175377D01*
X357241Y175377D01*
X357241Y147316D01*
X357068Y146669D01*
X356733Y146090D01*
X356260Y145617D01*
X355681Y145282D01*
X355034Y145109D01*
X331723Y145109D01*
G37*
%LPD*%
%LPC*%
G36*
X305366Y145109D02*
X305366Y145109D01*
X304719Y145282D01*
X304140Y145617D01*
X303667Y146090D01*
X303332Y146669D01*
X303159Y147316D01*
X303159Y175377D01*
X328677Y175377D01*
X328677Y145109D01*
X305366Y145109D01*
G37*
%LPD*%
%LPC*%
G36*
X324568Y218155D02*
X324568Y218155D01*
X323675Y219048D01*
X323675Y222296D01*
X323661Y222386D01*
X323653Y222477D01*
X323641Y222506D01*
X323636Y222538D01*
X323593Y222619D01*
X323557Y222703D01*
X323531Y222735D01*
X323520Y222756D01*
X323497Y222778D01*
X323452Y222834D01*
X321830Y224456D01*
X316180Y230106D01*
X316122Y230148D01*
X316070Y230197D01*
X316023Y230219D01*
X315981Y230249D01*
X315912Y230270D01*
X315847Y230301D01*
X315795Y230306D01*
X315745Y230322D01*
X315674Y230320D01*
X315603Y230328D01*
X315552Y230317D01*
X315500Y230315D01*
X315432Y230291D01*
X315362Y230276D01*
X315318Y230249D01*
X315269Y230231D01*
X315213Y230186D01*
X315151Y230149D01*
X315117Y230110D01*
X315077Y230077D01*
X315038Y230017D01*
X314991Y229962D01*
X314972Y229914D01*
X314944Y229870D01*
X314926Y229801D01*
X314899Y229734D01*
X314891Y229663D01*
X314883Y229632D01*
X314885Y229608D01*
X314881Y229568D01*
X314881Y226703D01*
X308863Y226703D01*
X308863Y233221D01*
X311228Y233221D01*
X311298Y233232D01*
X311370Y233234D01*
X311419Y233252D01*
X311470Y233260D01*
X311534Y233294D01*
X311601Y233319D01*
X311642Y233351D01*
X311688Y233376D01*
X311737Y233427D01*
X311793Y233472D01*
X311821Y233516D01*
X311857Y233554D01*
X311887Y233619D01*
X311926Y233679D01*
X311939Y233730D01*
X311961Y233777D01*
X311969Y233848D01*
X311986Y233918D01*
X311982Y233970D01*
X311988Y234021D01*
X311973Y234092D01*
X311967Y234163D01*
X311947Y234211D01*
X311936Y234262D01*
X311899Y234323D01*
X311871Y234389D01*
X311826Y234445D01*
X311809Y234473D01*
X311791Y234488D01*
X311766Y234520D01*
X311354Y234932D01*
X311280Y234985D01*
X311210Y235045D01*
X311180Y235057D01*
X311154Y235076D01*
X311067Y235103D01*
X310982Y235137D01*
X310941Y235141D01*
X310919Y235148D01*
X310887Y235147D01*
X310816Y235155D01*
X301708Y235155D01*
X300815Y236048D01*
X300815Y248312D01*
X301708Y249205D01*
X312972Y249205D01*
X313865Y248312D01*
X313865Y239204D01*
X313879Y239114D01*
X313887Y239023D01*
X313899Y238994D01*
X313904Y238962D01*
X313947Y238881D01*
X313983Y238797D01*
X314009Y238765D01*
X314020Y238744D01*
X314043Y238722D01*
X314088Y238666D01*
X322376Y230378D01*
X322434Y230336D01*
X322486Y230287D01*
X322533Y230265D01*
X322575Y230235D01*
X322644Y230214D01*
X322709Y230183D01*
X322761Y230178D01*
X322811Y230162D01*
X322882Y230164D01*
X322953Y230156D01*
X323004Y230167D01*
X323056Y230169D01*
X323124Y230193D01*
X323194Y230208D01*
X323238Y230235D01*
X323287Y230253D01*
X323343Y230298D01*
X323405Y230335D01*
X323439Y230374D01*
X323479Y230407D01*
X323518Y230467D01*
X323565Y230522D01*
X323584Y230570D01*
X323612Y230614D01*
X323630Y230683D01*
X323657Y230750D01*
X323665Y230821D01*
X323673Y230852D01*
X323671Y230876D01*
X323675Y230916D01*
X323675Y231312D01*
X324568Y232205D01*
X335832Y232205D01*
X336725Y231312D01*
X336725Y228228D01*
X336728Y228208D01*
X336726Y228189D01*
X336748Y228087D01*
X336764Y227985D01*
X336774Y227968D01*
X336778Y227948D01*
X336831Y227859D01*
X336880Y227768D01*
X336894Y227754D01*
X336904Y227737D01*
X336983Y227670D01*
X337058Y227598D01*
X337076Y227590D01*
X337091Y227577D01*
X337187Y227538D01*
X337281Y227495D01*
X337301Y227493D01*
X337319Y227485D01*
X337486Y227467D01*
X347024Y227467D01*
X347044Y227470D01*
X347063Y227468D01*
X347165Y227490D01*
X347267Y227506D01*
X347284Y227516D01*
X347304Y227520D01*
X347393Y227573D01*
X347484Y227622D01*
X347498Y227636D01*
X347515Y227646D01*
X347582Y227725D01*
X347654Y227800D01*
X347662Y227818D01*
X347675Y227833D01*
X347714Y227929D01*
X347757Y228023D01*
X347759Y228043D01*
X347767Y228061D01*
X347785Y228228D01*
X347785Y235522D01*
X348678Y236415D01*
X362522Y236415D01*
X363415Y235522D01*
X363415Y221678D01*
X362522Y220785D01*
X348678Y220785D01*
X347785Y221678D01*
X347785Y222132D01*
X347782Y222152D01*
X347784Y222171D01*
X347762Y222273D01*
X347746Y222375D01*
X347736Y222392D01*
X347732Y222412D01*
X347679Y222501D01*
X347630Y222592D01*
X347616Y222606D01*
X347606Y222623D01*
X347527Y222690D01*
X347452Y222762D01*
X347434Y222770D01*
X347419Y222783D01*
X347323Y222822D01*
X347229Y222865D01*
X347209Y222867D01*
X347191Y222875D01*
X347024Y222893D01*
X337486Y222893D01*
X337466Y222890D01*
X337447Y222892D01*
X337345Y222870D01*
X337243Y222854D01*
X337226Y222844D01*
X337206Y222840D01*
X337117Y222787D01*
X337026Y222738D01*
X337012Y222724D01*
X336995Y222714D01*
X336928Y222635D01*
X336856Y222560D01*
X336848Y222542D01*
X336835Y222527D01*
X336796Y222431D01*
X336753Y222337D01*
X336751Y222317D01*
X336743Y222299D01*
X336725Y222132D01*
X336725Y219048D01*
X335832Y218155D01*
X324568Y218155D01*
G37*
%LPD*%
%LPC*%
G36*
X407923Y153923D02*
X407923Y153923D01*
X407923Y162481D01*
X414733Y162481D01*
X416301Y162233D01*
X417810Y161742D01*
X419223Y161022D01*
X420507Y160089D01*
X421629Y158967D01*
X422562Y157683D01*
X423282Y156270D01*
X423773Y154761D01*
X423905Y153923D01*
X407923Y153923D01*
G37*
%LPD*%
%LPC*%
G36*
X407923Y142319D02*
X407923Y142319D01*
X407923Y150877D01*
X423905Y150877D01*
X423773Y150039D01*
X423282Y148530D01*
X422562Y147117D01*
X421629Y145833D01*
X420507Y144711D01*
X419223Y143778D01*
X417810Y143058D01*
X416301Y142567D01*
X414733Y142319D01*
X407923Y142319D01*
G37*
%LPD*%
%LPC*%
G36*
X398067Y142319D02*
X398067Y142319D01*
X396499Y142567D01*
X394990Y143058D01*
X393577Y143778D01*
X392293Y144711D01*
X391171Y145833D01*
X390238Y147117D01*
X389518Y148530D01*
X389027Y150039D01*
X388895Y150877D01*
X404877Y150877D01*
X404877Y142319D01*
X398067Y142319D01*
G37*
%LPD*%
%LPC*%
G36*
X331723Y243703D02*
X331723Y243703D01*
X331723Y250221D01*
X335535Y250221D01*
X336181Y250048D01*
X336760Y249713D01*
X337233Y249240D01*
X337568Y248661D01*
X337741Y248014D01*
X337741Y243703D01*
X331723Y243703D01*
G37*
%LPD*%
%LPC*%
G36*
X329183Y66683D02*
X329183Y66683D01*
X329183Y73201D01*
X332995Y73201D01*
X333641Y73028D01*
X334220Y72693D01*
X334693Y72220D01*
X335028Y71641D01*
X335201Y70994D01*
X335201Y66683D01*
X329183Y66683D01*
G37*
%LPD*%
%LPC*%
G36*
X331723Y234139D02*
X331723Y234139D01*
X331723Y240657D01*
X337741Y240657D01*
X337741Y236346D01*
X337568Y235699D01*
X337233Y235120D01*
X336760Y234647D01*
X336181Y234312D01*
X335534Y234139D01*
X331723Y234139D01*
G37*
%LPD*%
%LPC*%
G36*
X329183Y57119D02*
X329183Y57119D01*
X329183Y63637D01*
X335201Y63637D01*
X335201Y59326D01*
X335028Y58679D01*
X334693Y58100D01*
X334220Y57627D01*
X333641Y57292D01*
X332994Y57119D01*
X329183Y57119D01*
G37*
%LPD*%
%LPC*%
G36*
X308863Y217139D02*
X308863Y217139D01*
X308863Y223657D01*
X314881Y223657D01*
X314881Y219346D01*
X314708Y218699D01*
X314373Y218120D01*
X313900Y217647D01*
X313321Y217312D01*
X312674Y217139D01*
X308863Y217139D01*
G37*
%LPD*%
%LPC*%
G36*
X299799Y226703D02*
X299799Y226703D01*
X299799Y231014D01*
X299972Y231661D01*
X300307Y232240D01*
X300780Y232713D01*
X301359Y233048D01*
X302006Y233221D01*
X305817Y233221D01*
X305817Y226703D01*
X299799Y226703D01*
G37*
%LPD*%
%LPC*%
G36*
X320119Y66683D02*
X320119Y66683D01*
X320119Y70994D01*
X320292Y71641D01*
X320627Y72220D01*
X321100Y72693D01*
X321679Y73028D01*
X322326Y73201D01*
X326137Y73201D01*
X326137Y66683D01*
X320119Y66683D01*
G37*
%LPD*%
%LPC*%
G36*
X322659Y243703D02*
X322659Y243703D01*
X322659Y248014D01*
X322832Y248661D01*
X323167Y249240D01*
X323640Y249713D01*
X324219Y250048D01*
X324866Y250221D01*
X328677Y250221D01*
X328677Y243703D01*
X322659Y243703D01*
G37*
%LPD*%
%LPC*%
G36*
X322326Y57119D02*
X322326Y57119D01*
X321679Y57292D01*
X321100Y57627D01*
X320627Y58100D01*
X320292Y58679D01*
X320119Y59326D01*
X320119Y63637D01*
X326137Y63637D01*
X326137Y57119D01*
X322326Y57119D01*
G37*
%LPD*%
%LPC*%
G36*
X302006Y217139D02*
X302006Y217139D01*
X301359Y217312D01*
X300780Y217647D01*
X300307Y218120D01*
X299972Y218699D01*
X299799Y219346D01*
X299799Y223657D01*
X305817Y223657D01*
X305817Y217139D01*
X302006Y217139D01*
G37*
%LPD*%
%LPC*%
G36*
X324866Y234139D02*
X324866Y234139D01*
X324219Y234312D01*
X323640Y234647D01*
X323167Y235120D01*
X322832Y235699D01*
X322659Y236346D01*
X322659Y240657D01*
X328677Y240657D01*
X328677Y234139D01*
X324866Y234139D01*
G37*
%LPD*%
%LPC*%
G36*
X377123Y77723D02*
X377123Y77723D01*
X377123Y84901D01*
X378176Y84691D01*
X379783Y84026D01*
X381229Y83059D01*
X382459Y81829D01*
X383426Y80383D01*
X384091Y78776D01*
X384301Y77723D01*
X377123Y77723D01*
G37*
%LPD*%
%LPC*%
G36*
X377123Y230123D02*
X377123Y230123D01*
X377123Y237301D01*
X378176Y237091D01*
X379783Y236426D01*
X381229Y235459D01*
X382459Y234229D01*
X383426Y232783D01*
X384091Y231176D01*
X384301Y230123D01*
X377123Y230123D01*
G37*
%LPD*%
%LPC*%
G36*
X366899Y77723D02*
X366899Y77723D01*
X367109Y78776D01*
X367774Y80383D01*
X368741Y81829D01*
X369971Y83059D01*
X371417Y84026D01*
X373024Y84691D01*
X374077Y84901D01*
X374077Y77723D01*
X366899Y77723D01*
G37*
%LPD*%
%LPC*%
G36*
X366899Y230123D02*
X366899Y230123D01*
X367109Y231176D01*
X367774Y232783D01*
X368741Y234229D01*
X369971Y235459D01*
X371417Y236426D01*
X373024Y237091D01*
X374077Y237301D01*
X374077Y230123D01*
X366899Y230123D01*
G37*
%LPD*%
%LPC*%
G36*
X377123Y227077D02*
X377123Y227077D01*
X384301Y227077D01*
X384091Y226024D01*
X383426Y224417D01*
X382459Y222971D01*
X381229Y221741D01*
X379783Y220774D01*
X378176Y220109D01*
X377123Y219899D01*
X377123Y227077D01*
G37*
%LPD*%
%LPC*%
G36*
X377123Y74677D02*
X377123Y74677D01*
X384301Y74677D01*
X384091Y73624D01*
X383426Y72017D01*
X382459Y70571D01*
X381229Y69341D01*
X379783Y68374D01*
X378176Y67709D01*
X377123Y67499D01*
X377123Y74677D01*
G37*
%LPD*%
%LPC*%
G36*
X373024Y220109D02*
X373024Y220109D01*
X371417Y220774D01*
X369971Y221741D01*
X368741Y222971D01*
X367774Y224417D01*
X367109Y226024D01*
X366899Y227077D01*
X374077Y227077D01*
X374077Y219899D01*
X373024Y220109D01*
G37*
%LPD*%
%LPC*%
G36*
X373024Y67709D02*
X373024Y67709D01*
X371417Y68374D01*
X369971Y69341D01*
X368741Y70571D01*
X367774Y72017D01*
X367109Y73624D01*
X366899Y74677D01*
X374077Y74677D01*
X374077Y67499D01*
X373024Y67709D01*
G37*
%LPD*%
%LPC*%
G36*
X306323Y64183D02*
X306323Y64183D01*
X306323Y69201D01*
X309134Y69201D01*
X309781Y69028D01*
X310360Y68693D01*
X310833Y68220D01*
X311168Y67641D01*
X311341Y66994D01*
X311341Y64183D01*
X306323Y64183D01*
G37*
%LPD*%
%LPC*%
G36*
X306323Y61137D02*
X306323Y61137D01*
X311341Y61137D01*
X311341Y58326D01*
X311168Y57679D01*
X310833Y57100D01*
X310360Y56627D01*
X309781Y56292D01*
X309134Y56119D01*
X306323Y56119D01*
X306323Y61137D01*
G37*
%LPD*%
%LPC*%
G36*
X298259Y64183D02*
X298259Y64183D01*
X298259Y66994D01*
X298432Y67641D01*
X298767Y68220D01*
X299240Y68693D01*
X299819Y69028D01*
X300466Y69201D01*
X303277Y69201D01*
X303277Y64183D01*
X298259Y64183D01*
G37*
%LPD*%
%LPC*%
G36*
X300466Y56119D02*
X300466Y56119D01*
X299819Y56292D01*
X299240Y56627D01*
X298767Y57100D01*
X298432Y57679D01*
X298259Y58326D01*
X298259Y61137D01*
X303277Y61137D01*
X303277Y56119D01*
X300466Y56119D01*
G37*
%LPD*%
%LPC*%
G36*
X375599Y228599D02*
X375599Y228599D01*
X375599Y228601D01*
X375601Y228601D01*
X375601Y228599D01*
X375599Y228599D01*
G37*
%LPD*%
%LPC*%
G36*
X406399Y152399D02*
X406399Y152399D01*
X406399Y152401D01*
X406401Y152401D01*
X406401Y152399D01*
X406399Y152399D01*
G37*
%LPD*%
%LPC*%
G36*
X375599Y76199D02*
X375599Y76199D01*
X375599Y76201D01*
X375601Y76201D01*
X375601Y76199D01*
X375599Y76199D01*
G37*
%LPD*%
%LPC*%
G36*
X330199Y242179D02*
X330199Y242179D01*
X330199Y242181D01*
X330201Y242181D01*
X330201Y242179D01*
X330199Y242179D01*
G37*
%LPD*%
%LPC*%
G36*
X330199Y176899D02*
X330199Y176899D01*
X330199Y176901D01*
X330201Y176901D01*
X330201Y176899D01*
X330199Y176899D01*
G37*
%LPD*%
%LPC*%
G36*
X304799Y62659D02*
X304799Y62659D01*
X304799Y62661D01*
X304801Y62661D01*
X304801Y62659D01*
X304799Y62659D01*
G37*
%LPD*%
%LPC*%
G36*
X327659Y65159D02*
X327659Y65159D01*
X327659Y65161D01*
X327661Y65161D01*
X327661Y65159D01*
X327659Y65159D01*
G37*
%LPD*%
%LPC*%
G36*
X307339Y225179D02*
X307339Y225179D01*
X307339Y225181D01*
X307341Y225181D01*
X307341Y225179D01*
X307339Y225179D01*
G37*
%LPD*%
D10*
X355600Y76200D03*
D11*
X375600Y76200D03*
D12*
X327660Y65160D03*
X327660Y82160D03*
X330200Y242180D03*
X330200Y225180D03*
D10*
X355600Y228600D03*
D11*
X375600Y228600D03*
D12*
X78740Y60080D03*
X78740Y77080D03*
X307340Y242180D03*
X307340Y225180D03*
D13*
X304800Y62660D03*
X304800Y84660D03*
D14*
X307400Y108900D03*
X353000Y108900D03*
D15*
X330200Y176900D03*
D16*
X153970Y96280D03*
X153970Y105780D03*
X153970Y115280D03*
X127970Y115280D03*
X127970Y96280D03*
D17*
X253238Y133350D03*
X253238Y146050D03*
X253238Y158750D03*
X253238Y171450D03*
X203962Y171450D03*
X203962Y158750D03*
X203962Y146050D03*
X203962Y133350D03*
D18*
X78740Y232800D03*
X78740Y249800D03*
X104140Y97280D03*
X104140Y114280D03*
X129540Y77080D03*
X129540Y60080D03*
X104140Y60080D03*
X104140Y77080D03*
X104140Y249800D03*
X104140Y232800D03*
X129540Y249800D03*
X129540Y232800D03*
X129540Y199780D03*
X129540Y216780D03*
X104140Y199780D03*
X104140Y216780D03*
X104140Y166760D03*
X104140Y183760D03*
X129540Y183760D03*
X129540Y166760D03*
X129540Y150740D03*
X129540Y133740D03*
X104140Y150740D03*
X104140Y133740D03*
D19*
X58340Y175260D02*
X43260Y175260D01*
X43260Y200660D02*
X58340Y200660D01*
X58340Y116840D02*
X43260Y116840D01*
X43260Y142240D02*
X58340Y142240D01*
X398860Y177800D02*
X413940Y177800D01*
X413940Y152400D02*
X398860Y152400D01*
X398860Y127000D02*
X413940Y127000D01*
D20*
X50800Y175260D02*
X50800Y200660D01*
X78740Y228600D01*
X78740Y232800D01*
X50800Y142240D02*
X50800Y116840D01*
X70360Y97280D01*
X104140Y97280D01*
X95760Y88900D01*
X74930Y88900D01*
X68580Y82550D01*
X68580Y70240D01*
X78740Y60080D01*
X152330Y104140D02*
X153970Y105780D01*
X152330Y104140D02*
X144780Y104140D01*
X138430Y97790D01*
X138430Y85970D02*
X129540Y77080D01*
X138430Y85970D02*
X138430Y97790D01*
X111000Y104140D02*
X104140Y97280D01*
X111000Y104140D02*
X137160Y104140D01*
X144780Y104140D01*
X156210Y171450D02*
X203962Y171450D01*
X156210Y171450D02*
X142240Y157480D01*
X142240Y109220D02*
X137160Y104140D01*
X142240Y109220D02*
X142240Y157480D01*
X253238Y146050D02*
X295910Y146050D01*
X302260Y139700D01*
X368300Y139700D01*
X406400Y177800D01*
X406400Y127000D02*
X371100Y127000D01*
X353000Y108900D01*
X353000Y78800D01*
X355600Y76200D01*
X349640Y82160D01*
X327660Y82160D01*
X325160Y84660D02*
X304800Y84660D01*
X325160Y84660D02*
X327660Y82160D01*
X294640Y133350D02*
X253238Y133350D01*
X294640Y133350D02*
X300990Y127000D01*
X307400Y120590D01*
X307400Y108900D01*
X352180Y225180D02*
X355600Y228600D01*
X352180Y225180D02*
X330200Y225180D01*
X324340Y225180D02*
X307340Y242180D01*
X324340Y225180D02*
X330200Y225180D01*
D21*
X300990Y127000D03*
D20*
X324750Y171450D02*
X253238Y171450D01*
X324750Y171450D02*
X330200Y176900D01*
X104140Y249800D02*
X78740Y249800D01*
X104140Y232800D02*
X112540Y232800D01*
X129540Y249800D01*
X129540Y232800D02*
X129540Y216780D01*
X129540Y199780D02*
X112540Y216780D01*
X104140Y216780D01*
X104140Y199780D02*
X104140Y183760D01*
X104140Y166760D02*
X121140Y183760D01*
X129540Y183760D01*
X129540Y166760D02*
X129540Y150740D01*
X129540Y133740D02*
X112540Y150740D01*
X104140Y150740D01*
X104140Y133740D02*
X104140Y114280D01*
X126970Y114280D01*
X127970Y115280D01*
X91440Y77080D02*
X78740Y77080D01*
X91440Y77080D02*
X104140Y77080D01*
X108770Y77080D02*
X127970Y96280D01*
X108770Y77080D02*
X104140Y77080D01*
X142494Y49784D02*
X152790Y60080D01*
X96266Y49784D02*
X91440Y54610D01*
X91440Y77080D01*
X96266Y49784D02*
X142494Y49784D01*
X166370Y133350D02*
X203962Y133350D01*
X166370Y133350D02*
X163830Y130810D01*
X163830Y66040D01*
X157870Y60080D01*
X152790Y60080D01*
X116840Y60080D02*
X104140Y60080D01*
X116840Y60080D02*
X129540Y60080D01*
D21*
X116840Y60080D03*
D20*
X153970Y115280D02*
X153970Y121620D01*
X149860Y125730D01*
D21*
X149860Y125730D03*
D20*
X153970Y96280D02*
X153970Y87630D01*
X162560Y146050D02*
X203962Y146050D01*
X162560Y146050D02*
X156210Y139700D01*
D21*
X156210Y139700D03*
X153970Y87630D03*
M02*
