G04 EAGLE Gerber RS-274X export*
G75*
%MOMM*%
%FSLAX34Y34*%
%LPD*%
%INSoldermask Top*%
%IPPOS*%
%AMOC8*
5,1,8,0,0,1.08239X$1,22.5*%
G01*
%ADD10C,3.403200*%
%ADD11R,1.461200X1.461200*%
%ADD12C,1.461200*%
%ADD13R,1.203200X1.303200*%
%ADD14R,1.003200X1.003200*%
%ADD15R,1.203200X2.303200*%
%ADD16R,5.103200X6.053200*%
%ADD17R,1.353200X0.803200*%
%ADD18R,2.184400X0.762000*%
%ADD19R,1.303200X1.203200*%
%ADD20C,1.711200*%
%ADD21C,0.959600*%


D10*
X38100Y63500D03*
X38100Y266700D03*
X419100Y63500D03*
X419100Y266700D03*
D11*
X355600Y76200D03*
D12*
X375600Y76200D03*
D13*
X327660Y65160D03*
X327660Y82160D03*
X330200Y242180D03*
X330200Y225180D03*
D11*
X355600Y228600D03*
D12*
X375600Y228600D03*
D13*
X78740Y60080D03*
X78740Y77080D03*
X307340Y242180D03*
X307340Y225180D03*
D14*
X304800Y62660D03*
X304800Y84660D03*
D15*
X307400Y108900D03*
X353000Y108900D03*
D16*
X330200Y176900D03*
D17*
X153970Y96280D03*
X153970Y105780D03*
X153970Y115280D03*
X127970Y115280D03*
X127970Y96280D03*
D18*
X253238Y133350D03*
X253238Y146050D03*
X253238Y158750D03*
X253238Y171450D03*
X203962Y171450D03*
X203962Y158750D03*
X203962Y146050D03*
X203962Y133350D03*
D19*
X78740Y232800D03*
X78740Y249800D03*
X104140Y97280D03*
X104140Y114280D03*
X129540Y77080D03*
X129540Y60080D03*
X104140Y60080D03*
X104140Y77080D03*
X154940Y60080D03*
X154940Y77080D03*
X104140Y249800D03*
X104140Y232800D03*
X129540Y249800D03*
X129540Y232800D03*
X129540Y199780D03*
X129540Y216780D03*
X104140Y199780D03*
X104140Y216780D03*
X104140Y166760D03*
X104140Y183760D03*
X129540Y183760D03*
X129540Y166760D03*
X129540Y150740D03*
X129540Y133740D03*
X104140Y150740D03*
X104140Y133740D03*
D20*
X58340Y175260D02*
X43260Y175260D01*
X43260Y200660D02*
X58340Y200660D01*
X58340Y116840D02*
X43260Y116840D01*
X43260Y142240D02*
X58340Y142240D01*
X398860Y177800D02*
X413940Y177800D01*
X413940Y152400D02*
X398860Y152400D01*
X398860Y127000D02*
X413940Y127000D01*
D21*
X300990Y127000D03*
X116840Y60080D03*
X149860Y125730D03*
X156210Y139700D03*
X153970Y87630D03*
M02*
