<?xml version="1.0" encoding="utf-8" ?><!DOCTYPE svg PUBLIC "-//W3C//DTD SVG 1.1//EN" "http://www.w3.org/Graphics/SVG/1.1/DTD/svg11.dtd" 
[ <!ATTLIST svg 
  xmlns:dsy CDATA #FIXED "http://www.3ds.com/print"  
    dsy:text-version CDATA #IMPLIED > 

  <!ATTLIST text 
  xmlns:dsy CDATA #FIXED "http://www.3ds.com/print" 
    dsy:text-version CDATA #IMPLIED > 
]><svg xmlns="http://www.w3.org/2000/svg" xmlns:dsy="http://www.3ds.com/print" dsy:text-version="18000" width="1189" height="841" viewBox="0 0 1189 841" version="1.1"><g stroke="rgb(0, 0, 0)" stroke-width="0.35" stroke-linecap="butt" stroke-linejoin="miter" fill="none"><path d="M 652.024 315.615 L 570.124 315.615"/><path d="M 562.624 315.615 L 480.724 315.615"/><path d="M 473.224 315.615 L 391.324 315.615"/><path d="M 383.824 315.615 L 301.924 315.615"/><path d="M 294.424 315.615 L 257.224 315.615"/><path d="M 257.224 315.615 L 257.224 365.615"/><path d="M 251.224 365.615 L 257.224 365.615"/><path d="M 251.224 365.615 L 251.224 511.615"/><path d="M 257.224 511.615 L 251.224 511.615"/><path d="M 257.224 511.615 L 257.224 561.615"/><path d="M 257.224 561.615 L 307.224 561.615"/><path d="M 307.224 561.615 L 307.224 567.615"/><path d="M 651.224 567.615 L 307.224 567.615"/><path d="M 651.224 567.615 L 651.224 561.615"/><path d="M 651.224 561.615 L 701.224 561.615"/><path d="M 701.224 561.615 L 701.224 511.615"/><path d="M 707.224 511.615 L 701.224 511.615"/><path d="M 707.224 365.615 L 707.224 511.615"/><path d="M 701.224 365.615 L 707.224 365.615"/><path d="M 701.224 365.615 L 701.224 315.615"/><path d="M 701.224 315.615 L 659.524 315.615"/></g><g stroke="rgb(0, 0, 0)" stroke-width="0.13" stroke-linecap="butt" stroke-linejoin="miter" fill="none"><path d="M 386.074 556.615 L 386.074 315.615"/></g><g stroke="rgb(0, 0, 0)" stroke-width="0.35" stroke-linecap="butt" stroke-linejoin="miter" fill="none"><path d="M 391.324 315.615 L 383.824 315.615"/></g><g stroke="rgb(0, 0, 0)" stroke-width="0.13" stroke-linecap="butt" stroke-linejoin="miter" fill="none"><path d="M 389.074 556.615 L 389.074 315.615"/><path d="M 475.474 556.615 L 475.474 315.615"/></g><g stroke="rgb(0, 0, 0)" stroke-width="0.35" stroke-linecap="butt" stroke-linejoin="miter" fill="none"><path d="M 480.724 315.615 L 473.224 315.615"/></g><g stroke="rgb(0, 0, 0)" stroke-width="0.13" stroke-linecap="butt" stroke-linejoin="miter" fill="none"><path d="M 478.474 556.615 L 478.474 315.615"/><path d="M 299.674 556.615 L 299.674 315.615"/></g><g stroke="rgb(0, 0, 0)" stroke-width="0.35" stroke-linecap="butt" stroke-linejoin="miter" fill="none"><path d="M 301.924 315.615 L 294.424 315.615"/></g><g stroke="rgb(0, 0, 0)" stroke-width="0.13" stroke-linecap="butt" stroke-linejoin="miter" fill="none"><path d="M 296.674 556.615 L 296.674 315.615"/><path d="M 564.874 556.615 L 564.874 315.615"/></g><g stroke="rgb(0, 0, 0)" stroke-width="0.35" stroke-linecap="butt" stroke-linejoin="miter" fill="none"><path d="M 570.124 315.615 L 562.624 315.615"/></g><g stroke="rgb(0, 0, 0)" stroke-width="0.13" stroke-linecap="butt" stroke-linejoin="miter" fill="none"><path d="M 567.874 556.615 L 567.874 315.615"/><path d="M 654.274 556.615 L 654.274 315.615"/></g><g stroke="rgb(0, 0, 0)" stroke-width="0.35" stroke-linecap="butt" stroke-linejoin="miter" fill="none"><path d="M 659.524 315.615 L 652.024 315.615"/></g><g stroke="rgb(0, 0, 0)" stroke-width="0.13" stroke-linecap="butt" stroke-linejoin="miter" fill="none"><path d="M 657.274 556.615 L 657.274 315.615"/></g><g stroke="rgb(0, 0, 0)" stroke-width="0.35" stroke-linecap="butt" stroke-linejoin="miter" fill="none"><path d="M 296.674 556.615 L 299.674 556.615"/><path d="M 386.074 556.615 L 389.074 556.615"/><path d="M 475.474 556.615 L 478.474 556.615"/><path d="M 564.874 556.615 L 567.874 556.615"/><path d="M 654.274 556.615 L 657.274 556.615"/><path d="M 224.823 303.432 L 724.823 303.432"/><path d="M 724.823 578.775 L 724.823 303.432"/><path d="M 724.823 578.775 L 224.823 578.775"/><path d="M 224.823 303.432 L 224.823 578.775"/></g></svg>