<?xml version="1.0" encoding="utf-8" ?><!DOCTYPE svg PUBLIC "-//W3C//DTD SVG 1.1//EN" "http://www.w3.org/Graphics/SVG/1.1/DTD/svg11.dtd" 
[ <!ATTLIST svg 
  xmlns:dsy CDATA #FIXED "http://www.3ds.com/print"  
    dsy:text-version CDATA #IMPLIED > 

  <!ATTLIST text 
  xmlns:dsy CDATA #FIXED "http://www.3ds.com/print" 
    dsy:text-version CDATA #IMPLIED > 
]><svg xmlns="http://www.w3.org/2000/svg" xmlns:dsy="http://www.3ds.com/print" dsy:text-version="18000" width="1189" height="841" viewBox="0 0 1189 841" version="1.1"><g stroke="rgb(0, 0, 0)" stroke-width="0.35" stroke-linecap="butt" stroke-linejoin="miter" fill="none"><path d="M 727.1 595.5 L 727.1 472"/><path d="M 730.1 472 L 727.1 472"/><path d="M 730.1 472 L 730.1 595.5"/><path d="M 730.1 595.5 L 727.1 595.5"/><path d="M 730.1 245.5 L 727.1 245.5"/><path d="M 730.1 245.5 L 730.1 369"/><path d="M 730.1 369 L 727.1 369"/><path d="M 727.1 369 L 727.1 245.5"/><path d="M 364.5 190.5 L 364.5 650.5"/><path d="M 364.5 650.5 L 824.5 650.5"/><path d="M 824.5 650.5 L 824.5 190.5"/><path d="M 824.5 190.5 L 364.5 190.5"/><path d="M 766.5 422 L 766.5 419"/><path d="M 422.5 422 L 766.5 422"/><path d="M 422.5 419 L 422.5 422"/><path d="M 422.5 419 L 766.5 419"/><path d="M 461.9 472 L 461.9 595.5"/><path d="M 461.9 595.5 L 458.9 595.5"/><path d="M 458.9 595.5 L 458.9 472"/><path d="M 461.9 472 L 458.9 472"/><path d="M 461.9 245.5 L 461.9 369"/><path d="M 461.9 369 L 458.9 369"/><path d="M 458.9 369 L 458.9 245.5"/><path d="M 461.9 245.5 L 458.9 245.5"/><path d="M 551.3 472 L 551.3 595.5"/><path d="M 551.3 595.5 L 548.3 595.5"/><path d="M 548.3 595.5 L 548.3 472"/><path d="M 551.3 472 L 548.3 472"/><path d="M 551.3 245.5 L 551.3 369"/><path d="M 551.3 369 L 548.3 369"/><path d="M 548.3 369 L 548.3 245.5"/><path d="M 551.3 245.5 L 548.3 245.5"/><path d="M 640.7 472 L 640.7 595.5"/><path d="M 640.7 595.5 L 637.7 595.5"/><path d="M 637.7 595.5 L 637.7 472"/><path d="M 640.7 472 L 637.7 472"/><path d="M 640.7 245.5 L 640.7 369"/><path d="M 640.7 369 L 637.7 369"/><path d="M 637.7 369 L 637.7 245.5"/><path d="M 640.7 245.5 L 637.7 245.5"/><path d="M 372.5 595.5 L 369.5 595.5"/><path d="M 369.5 595.5 L 369.5 245.5"/><path d="M 372.5 245.5 L 369.5 245.5"/><path d="M 372.5 595.5 L 372.5 245.5"/><path d="M 422.5 642.5 L 766.5 642.5"/><path d="M 766.5 642.5 L 766.5 645.5"/><path d="M 766.5 645.5 L 422.5 645.5"/><path d="M 422.5 642.5 L 422.5 645.5"/><path d="M 816.5 595.5 L 816.5 245.5"/><path d="M 816.5 245.5 L 819.5 245.5"/><path d="M 819.5 595.5 L 819.5 245.5"/><path d="M 816.5 595.5 L 819.5 595.5"/><path d="M 766.5 195.5 L 766.5 198.5"/><path d="M 766.5 198.5 L 422.5 198.5"/><path d="M 422.5 198.5 L 422.5 195.5"/><path d="M 766.5 195.5 L 422.5 195.5"/></g></svg>