<?xml version="1.0" encoding="utf-8" ?><!DOCTYPE svg PUBLIC "-//W3C//DTD SVG 1.1//EN" "http://www.w3.org/Graphics/SVG/1.1/DTD/svg11.dtd" 
[ <!ATTLIST svg 
  xmlns:dsy CDATA #FIXED "http://www.3ds.com/print"  
    dsy:text-version CDATA #IMPLIED > 

  <!ATTLIST text 
  xmlns:dsy CDATA #FIXED "http://www.3ds.com/print" 
    dsy:text-version CDATA #IMPLIED > 
]><svg xmlns="http://www.w3.org/2000/svg" xmlns:dsy="http://www.3ds.com/print" dsy:text-version="18000" width="1189" height="841" viewBox="0 0 1189 841" version="1.1"><g stroke="rgb(0, 0, 0)" stroke-width="0.35" stroke-linecap="butt" stroke-linejoin="miter" fill="none"><circle cx="594.5" cy="296.036" r="4"/><circle cx="449.5" cy="296.036" r="4"/><circle cx="739.5" cy="296.036" r="4"/><path d="M 759.5 312.036 L 759.5 276"/><path d="M 759.5 276 L 719.5 276"/><path d="M 719.5 276 L 719.5 312.036"/><path d="M 719.5 312.036 L 719.5 313"/><path d="M 719.5 313 L 719.5 320"/><path d="M 759.5 313 L 759.5 320"/><path d="M 759.5 313 L 759.5 312.036"/><path d="M 574.5 320 L 574.5 328"/><path d="M 567.5 328 A 3.5 3.5 0 1 0 574.5 328"/><path d="M 567.5 313 L 567.5 328"/><path d="M 567.5 313 L 476.5 313"/><path d="M 476.5 313 L 476.5 328"/><path d="M 469.5 328 A 3.5 3.5 0 1 0 476.5 328"/><path d="M 469.5 320 L 469.5 328"/><path d="M 429.5 320 L 429.5 328"/><path d="M 422.5 328 A 3.5 3.5 0 1 0 429.5 328"/><path d="M 422.5 313 L 422.5 328"/><path d="M 422.5 313 L 372.5 313"/><path d="M 372.5 313 L 372.5 559"/><path d="M 372.5 559 L 422.5 559"/><path d="M 422.5 565 L 422.5 559"/><path d="M 422.5 565 L 766.5 565"/><path d="M 766.5 559 L 766.5 565"/><path d="M 766.5 559 L 816.5 559"/><path d="M 816.5 559 L 816.5 313"/><path d="M 816.5 313 L 766.5 313"/><path d="M 766.5 313 L 766.5 328"/><path d="M 759.5 328 A 3.5 3.5 0 1 0 766.5 328"/><path d="M 759.5 320 L 759.5 328"/><path d="M 719.5 320 L 719.5 328"/><path d="M 712.5 328 A 3.5 3.5 0 1 0 719.5 328"/><path d="M 712.5 313 L 712.5 328"/><path d="M 712.5 313 L 621.5 313"/><path d="M 621.5 313 L 621.5 328"/><path d="M 614.5 328 A 3.5 3.5 0 1 0 621.5 328"/><path d="M 614.5 320 L 614.5 328"/><path d="M 730.1 363 L 727.1 363"/><path d="M 730.1 363 L 730.1 509"/><path d="M 727.1 509 L 730.1 509"/><path d="M 727.1 363 L 727.1 509"/><path d="M 461.9 363 L 458.9 363"/><path d="M 461.9 363 L 461.9 509"/><path d="M 458.9 509 L 461.9 509"/><path d="M 458.9 363 L 458.9 509"/><path d="M 551.3 363 L 548.3 363"/><path d="M 551.3 363 L 551.3 509"/><path d="M 548.3 509 L 551.3 509"/><path d="M 548.3 363 L 548.3 509"/><path d="M 640.7 363 L 637.7 363"/><path d="M 640.7 363 L 640.7 509"/><path d="M 637.7 509 L 640.7 509"/><path d="M 637.7 363 L 637.7 509"/><path d="M 429.5 312.036 L 429.5 313"/><path d="M 429.5 313 L 429.5 320"/><path d="M 469.5 313 L 469.5 320"/><path d="M 469.5 313 L 469.5 312.036"/><path d="M 574.5 312.036 L 574.5 313"/><path d="M 574.5 313 L 574.5 320"/><path d="M 614.5 313 L 614.5 320"/><path d="M 614.5 313 L 614.5 312.036"/><path d="M 469.5 312.036 L 469.5 276"/><path d="M 469.5 276 L 429.5 276"/><path d="M 429.5 276 L 429.5 312.036"/><path d="M 614.5 312.036 L 614.5 276"/><path d="M 614.5 276 L 574.5 276"/><path d="M 574.5 276 L 574.5 312.036"/><path d="M 354.465 256.458 L 834.465 256.458"/><path d="M 834.465 585.854 L 834.465 256.458"/><path d="M 834.465 585.854 L 354.465 585.854"/><path d="M 354.465 256.458 L 354.465 585.854"/></g></svg>