<?xml version="1.0" encoding="utf-8" ?><!DOCTYPE svg PUBLIC "-//W3C//DTD SVG 1.1//EN" "http://www.w3.org/Graphics/SVG/1.1/DTD/svg11.dtd" 
[ <!ATTLIST svg 
  xmlns:dsy CDATA #FIXED "http://www.3ds.com/print"  
    dsy:text-version CDATA #IMPLIED > 

  <!ATTLIST text 
  xmlns:dsy CDATA #FIXED "http://www.3ds.com/print" 
    dsy:text-version CDATA #IMPLIED > 
]><svg xmlns="http://www.w3.org/2000/svg" xmlns:dsy="http://www.3ds.com/print" dsy:text-version="18000" width="841" height="594" viewBox="0 0 841 594" version="1.1"><g stroke="rgb(0, 0, 0)" stroke-width="0.13" stroke-linecap="butt" stroke-linejoin="miter" fill="none"><path d="M 387.304 314.39 L 394.742 314.39"/><path d="M 387.304 279.61 L 394.742 279.61"/></g><g stroke="rgb(0, 0, 0)" stroke-width="0.35" stroke-linecap="butt" stroke-linejoin="miter" fill="none"><path d="M 385.304 314.39 L 385.304 279.61"/><path d="M 385.304 279.61 L 371.665 279.61"/><path d="M 371.665 279.61 L 385.304 314.39"/></g><g stroke="rgb(0, 0, 0)" stroke-width="0.13" stroke-linecap="butt" stroke-linejoin="miter" fill="none"><path d="M 389.643 305.743 L 389.678 305.743 L 390.162 305.662 L 390.525 305.425 L 390.757 305.052 L 390.843 304.558 L 390.757 304.033 L 390.535 303.64 L 390.182 303.388 L 389.728 303.297 L 389.431 303.337 L 389.189 303.448 L 389.002 303.63 L 388.866 303.872 L 388.594 303.544 L 388.16 303.428 L 387.767 303.504 L 387.469 303.721 L 387.283 304.074 L 387.217 304.558 L 387.298 305.012 L 387.52 305.36 L 387.873 305.587 L 388.342 305.662 L 388.377 305.662 L 388.377 305.213 L 388.054 305.173 L 387.822 305.042 L 387.681 304.83 L 387.63 304.533 L 387.671 304.27 L 387.777 304.079 L 387.948 303.963 L 388.18 303.917 L 388.427 303.963 L 388.594 304.084 L 388.695 304.296 L 388.725 304.583 L 388.72 304.78 L 389.118 304.78 L 389.108 304.533 L 389.154 304.215 L 389.275 303.978 L 389.471 303.837 L 389.728 303.786 L 390.021 303.842 L 390.238 303.988 L 390.374 304.22 L 390.419 304.528 L 390.369 304.845 L 390.218 305.077 L 389.976 305.224 L 389.643 305.279 L 389.643 305.743 L 389.643 305.743 z M 390.742 300.459 L 390.742 300.005 L 389.875 300.005 L 389.875 299.505 L 389.471 299.505 L 389.471 300.005 L 387.318 300.005 L 387.318 300.464 L 389.431 301.997 L 389.875 301.997 L 389.875 300.459 L 390.742 300.459 L 390.742 300.459 z M 389.471 301.573 L 387.903 300.459 L 389.471 300.459 L 389.471 301.573 L 389.471 301.573 z M 390.742 297.348 L 390.742 296.652 L 389.991 296.652 L 389.991 297.348 L 390.742 297.348 L 390.742 297.348 z M 390.742 293.965 L 390.742 293.456 L 389.91 293.289 L 389.133 292.997 L 388.412 292.583 L 387.736 292.044 L 387.318 292.044 L 387.318 294.444 L 387.777 294.444 L 387.777 292.528 L 388.458 293.082 L 389.169 293.501 L 389.925 293.794 L 390.742 293.965 L 390.742 293.965 z M 388.856 290.153 L 388.997 290.411 L 389.194 290.587 L 389.441 290.698 L 389.739 290.733 L 390.187 290.653 L 390.535 290.421 L 390.757 290.042 L 390.843 289.528 L 390.757 289.019 L 390.535 288.64 L 390.187 288.408 L 389.739 288.323 L 389.441 288.363 L 389.194 288.469 L 388.997 288.65 L 388.856 288.903 L 388.735 288.701 L 388.569 288.56 L 388.367 288.474 L 388.12 288.444 L 387.762 288.524 L 387.474 288.736 L 387.288 289.079 L 387.217 289.528 L 387.288 289.982 L 387.474 290.325 L 387.762 290.542 L 388.12 290.617 L 388.367 290.592 L 388.569 290.506 L 388.856 290.153 L 388.856 290.153 z M 389.728 290.249 L 389.461 290.204 L 389.259 290.058 L 389.128 289.831 L 389.083 289.528 L 389.128 289.23 L 389.259 289.003 L 389.461 288.857 L 389.728 288.807 L 390.016 288.857 L 390.233 289.003 L 390.374 289.23 L 390.419 289.528 L 390.374 289.831 L 390.233 290.058 L 390.016 290.204 L 389.728 290.249 L 389.728 290.249 z M 388.16 290.138 L 387.938 290.098 L 387.767 289.977 L 387.661 289.785 L 387.62 289.528 L 387.661 289.276 L 387.767 289.084 L 387.938 288.963 L 388.16 288.918 L 388.387 288.963 L 388.563 289.084 L 388.679 289.276 L 388.715 289.528 L 388.674 289.785 L 388.563 289.977 L 388.387 290.098 L 388.16 290.138 L 388.16 290.138 z" stroke="none" fill-rule="evenodd" fill="rgb(0, 0, 0)"/><path d="M 392.225 312.458 L 392.742 314.39 L 393.26 312.458"/><path d="M 393.26 281.542 L 392.742 279.61 L 392.225 281.542"/><path d="M 392.742 314.39 L 392.742 279.61"/></g></svg>