<?xml version="1.0" encoding="utf-8" ?><!DOCTYPE svg PUBLIC "-//W3C//DTD SVG 1.1//EN" "http://www.w3.org/Graphics/SVG/1.1/DTD/svg11.dtd" 
[ <!ATTLIST svg 
  xmlns:dsy CDATA #FIXED "http://www.3ds.com/print"  
    dsy:text-version CDATA #IMPLIED > 

  <!ATTLIST text 
  xmlns:dsy CDATA #FIXED "http://www.3ds.com/print" 
    dsy:text-version CDATA #IMPLIED > 
]><svg xmlns="http://www.w3.org/2000/svg" xmlns:dsy="http://www.3ds.com/print" dsy:text-version="18000" width="841" height="594" viewBox="0 0 841 594" version="1.1"><g stroke="rgb(0, 0, 0)" stroke-width="0.13" stroke-linecap="butt" stroke-linejoin="miter" fill="none"><path d="M 425.5 307.155 L 442.111 307.155"/><path d="M 425.5 292.148 L 442.111 292.148"/></g><g stroke="rgb(0, 0, 0)" stroke-width="0.35" stroke-linecap="butt" stroke-linejoin="miter" fill="none"><path d="M 417.5 306.767 L 423.5 306.767"/><path d="M 417.5 306.767 L 417.5 322.018"/><path d="M 417.5 322.018 L 423.5 322.018"/><path d="M 423.5 306.767 L 423.5 322.018"/><path d="M 417.5 271.982 L 423.5 271.982"/><path d="M 417.5 271.982 L 417.5 292.536"/><path d="M 417.5 292.536 L 423.5 292.536"/><path d="M 423.5 271.982 L 423.5 292.536"/><path d="M 417.5 306.886 L 417.5 292.536"/><path d="M 423.5 306.767 L 423.5 292.536"/></g><g stroke="rgb(0, 0, 0)" stroke-width="0.13" stroke-linecap="butt" stroke-linejoin="miter" fill="none"><path d="M 438.111 328.708 L 438.111 328.249 L 434.586 328.249 L 434.586 328.592 L 434.894 328.683 L 435.1 328.864 L 435.221 329.142 L 435.262 329.525 L 435.62 329.525 L 435.62 328.708 L 438.111 328.708 L 438.111 328.708 z M 437.198 326.132 L 437.612 326.021 L 437.935 325.774 L 438.136 325.411 L 438.212 324.947 L 438.121 324.438 L 437.874 324.039 L 437.481 323.787 L 436.976 323.691 L 436.507 323.777 L 436.139 324.019 L 435.902 324.397 L 435.816 324.886 L 435.877 325.265 L 436.043 325.557 L 435.1 325.416 L 435.1 323.883 L 434.687 323.883 L 434.687 325.754 L 436.543 326.031 L 436.543 325.628 L 436.306 325.335 L 436.22 324.962 L 436.275 324.639 L 436.437 324.392 L 436.684 324.236 L 437.002 324.18 L 437.319 324.236 L 437.566 324.397 L 437.723 324.644 L 437.778 324.962 L 437.743 325.229 L 437.627 325.436 L 437.445 325.587 L 437.198 325.663 L 437.198 326.132 L 437.198 326.132 z M 438.111 321.493 L 438.111 320.797 L 437.36 320.797 L 437.36 321.493 L 438.111 321.493 L 438.111 321.493 z M 436.401 318.625 L 437.193 318.549 L 437.758 318.312 L 438.101 317.934 L 438.212 317.409 L 438.101 316.89 L 437.758 316.512 L 437.193 316.28 L 436.401 316.199 L 435.615 316.28 L 435.302 316.375 L 435.045 316.512 L 434.702 316.89 L 434.586 317.409 L 434.702 317.934 L 435.05 318.312 L 435.615 318.549 L 436.401 318.625 L 436.401 318.625 z M 436.401 318.141 L 435.791 318.1 L 435.352 317.974 L 435.095 317.747 L 435.004 317.409 L 435.095 317.076 L 435.352 316.85 L 435.791 316.723 L 436.401 316.683 L 437.017 316.723 L 437.456 316.85 L 437.713 317.076 L 437.798 317.409 L 437.713 317.747 L 437.456 317.974 L 437.017 318.1 L 436.401 318.141 L 436.401 318.141 z M 438.111 313.764 L 438.111 313.305 L 434.586 313.305 L 434.586 313.648 L 434.894 313.739 L 435.1 313.92 L 435.221 314.198 L 435.262 314.581 L 435.62 314.581 L 435.62 313.764 L 438.111 313.764 L 438.111 313.764 z" stroke="none" fill-rule="evenodd" fill="rgb(0, 0, 0)"/><path d="M 440.629 294.08 L 440.111 292.148 L 439.593 294.08"/><path d="M 439.593 305.223 L 440.111 307.155 L 440.629 305.223"/><path d="M 440.111 330.135 L 440.111 292.148"/></g></svg>