<?xml version="1.0" encoding="utf-8" ?><!DOCTYPE svg PUBLIC "-//W3C//DTD SVG 1.1//EN" "http://www.w3.org/Graphics/SVG/1.1/DTD/svg11.dtd" 
[ <!ATTLIST svg 
  xmlns:dsy CDATA #FIXED "http://www.3ds.com/print"  
    dsy:text-version CDATA #IMPLIED > 

  <!ATTLIST text 
  xmlns:dsy CDATA #FIXED "http://www.3ds.com/print" 
    dsy:text-version CDATA #IMPLIED > 
]><svg xmlns="http://www.w3.org/2000/svg" xmlns:dsy="http://www.3ds.com/print" dsy:text-version="18000" width="841" height="594" viewBox="0 0 841 594" version="1.1"><g stroke="rgb(0, 0, 0)" stroke-width="0.13" stroke-linecap="butt" stroke-linejoin="miter" fill="none"><path d="M 200.925 270 L 200.925 250.687"/><path d="M 640.925 270 L 640.925 250.687"/></g><g stroke="rgb(0, 0, 0)" stroke-width="0.35" stroke-linecap="butt" stroke-linejoin="miter" fill="none"><path d="M 616.925 282 L 616.925 312"/><path d="M 610.925 282 L 616.925 282"/><path d="M 200.925 312.873 L 200.925 322"/><path d="M 640.925 322 L 200.925 322"/><path d="M 640.925 322 L 640.925 272"/><path d="M 200.925 272 L 640.925 272"/><path d="M 200.925 272 L 200.925 284.916"/><path d="M 209.926 287.17 A 14.2519 14.2519 0 0 0 200.925 284.916"/><path d="M 200.925 312.873 A 14.1531 14 -326.98 0 0 209.926 287.169"/><path d="M 616.925 312 L 610.925 312"/><path d="M 610.925 312 L 610.925 282"/><path d="M 210.295 287.418 A 14.2392 14.2392 0 0 0 200.925 285.486"/><path d="M 200.925 285.486 L 200.925 284.916"/></g><g stroke="rgb(0, 0, 0)" stroke-width="0.13" stroke-linecap="butt" stroke-linejoin="miter" fill="none"><path d="M 417.466 250.687 L 417.92 250.687 L 417.92 249.819 L 418.42 249.819 L 418.42 249.416 L 417.92 249.416 L 417.92 247.262 L 417.461 247.262 L 415.928 249.375 L 415.928 249.819 L 417.466 249.819 L 417.466 250.687 L 417.466 250.687 z M 416.352 249.416 L 417.466 247.847 L 417.466 249.416 L 416.352 249.416 L 416.352 249.416 z M 421.202 250.687 L 421.656 250.687 L 421.656 249.819 L 422.156 249.819 L 422.156 249.416 L 421.656 249.416 L 421.656 247.262 L 421.197 247.262 L 419.664 249.375 L 419.664 249.819 L 421.202 249.819 L 421.202 250.687 L 421.202 250.687 z M 420.088 249.416 L 421.202 247.847 L 421.202 249.416 L 420.088 249.416 L 420.088 249.416 z M 423.446 248.977 L 423.521 249.769 L 423.758 250.334 L 424.137 250.677 L 424.661 250.787 L 425.181 250.677 L 425.559 250.334 L 425.791 249.769 L 425.871 248.977 L 425.791 248.19 L 425.695 247.878 L 425.559 247.62 L 425.181 247.277 L 424.661 247.161 L 424.137 247.277 L 423.758 247.625 L 423.521 248.19 L 423.446 248.977 L 423.446 248.977 z M 423.93 248.977 L 423.97 248.367 L 424.096 247.928 L 424.323 247.671 L 424.661 247.58 L 424.994 247.671 L 425.221 247.928 L 425.347 248.367 L 425.387 248.977 L 425.347 249.592 L 425.221 250.031 L 424.994 250.288 L 424.661 250.374 L 424.323 250.288 L 424.096 250.031 L 423.97 249.592 L 423.93 248.977 L 423.93 248.977 z" stroke="none" fill-rule="evenodd" fill="rgb(0, 0, 0)"/><path d="M 638.993 253.204 L 640.925 252.687 L 638.993 252.169"/><path d="M 202.857 252.169 L 200.925 252.687 L 202.857 253.204"/><path d="M 200.925 252.687 L 640.925 252.687"/></g></svg>