<?xml version="1.0" encoding="utf-8" ?><!DOCTYPE svg PUBLIC "-//W3C//DTD SVG 1.1//EN" "http://www.w3.org/Graphics/SVG/1.1/DTD/svg11.dtd" 
[ <!ATTLIST svg 
  xmlns:dsy CDATA #FIXED "http://www.3ds.com/print"  
    dsy:text-version CDATA #IMPLIED > 

  <!ATTLIST text 
  xmlns:dsy CDATA #FIXED "http://www.3ds.com/print" 
    dsy:text-version CDATA #IMPLIED > 
]><svg xmlns="http://www.w3.org/2000/svg" xmlns:dsy="http://www.3ds.com/print" dsy:text-version="18000" width="594" height="420" viewBox="0 0 594 420" version="1.1"><g stroke="rgb(0, 0, 0)" stroke-width="0.13" stroke-linecap="butt" stroke-linejoin="miter" fill="none"><path d="M 499.752 107.244 L 533.341 107.244"/><path d="M 499.752 57.244 L 533.341 57.244"/></g><g stroke="rgb(0, 0, 0)" stroke-width="0.35" stroke-linecap="butt" stroke-linejoin="miter" fill="none"><path d="M 473.752 67.244 L 473.752 97.244"/><path d="M 467.752 67.244 L 473.752 67.244"/><path d="M 57.7516 98.117 L 57.7516 107.244"/><path d="M 497.752 107.244 L 57.7516 107.244"/><path d="M 497.752 107.244 L 497.752 57.244"/><path d="M 57.7516 57.244 L 497.752 57.244"/><path d="M 57.7516 57.244 L 57.7516 70.1604"/><path d="M 66.7527 72.4139 A 14.252 14.252 0 0 0 57.7516 70.1597"/><path d="M 57.7516 98.117 A 14.1531 14 -326.98 0 0 66.753 72.4135"/><path d="M 473.752 97.244 L 467.752 97.244"/><path d="M 467.752 97.244 L 467.752 67.244"/><path d="M 67.1219 72.6623 A 14.2392 14.2392 0 0 0 57.7515 70.7297"/><path d="M 57.7516 70.7305 L 57.7516 70.1604"/></g><g stroke="rgb(0, 0, 0)" stroke-width="0.13" stroke-linecap="butt" stroke-linejoin="miter" fill="none"><path d="M 528.428 85.3628 L 528.841 85.2518 L 529.164 85.0047 L 529.366 84.6416 L 529.441 84.1776 L 529.351 83.6682 L 529.103 83.2698 L 528.71 83.0177 L 528.206 82.9218 L 527.737 83.0076 L 527.369 83.2497 L 527.132 83.6279 L 527.046 84.1171 L 527.106 84.4953 L 527.273 84.7878 L 526.33 84.6466 L 526.33 83.1135 L 525.916 83.1135 L 525.916 84.9845 L 527.772 85.2619 L 527.772 84.8585 L 527.535 84.5659 L 527.449 84.1927 L 527.505 83.87 L 527.666 83.6229 L 527.913 83.4665 L 528.231 83.411 L 528.549 83.4665 L 528.796 83.6279 L 528.952 83.875 L 529.008 84.1927 L 528.972 84.4601 L 528.856 84.6668 L 528.675 84.8181 L 528.428 84.8938 L 528.428 85.3628 L 528.428 85.3628 z M 527.631 81.5915 L 528.423 81.5158 L 528.987 81.2788 L 529.33 80.9005 L 529.441 80.376 L 529.33 79.8566 L 528.987 79.4783 L 528.423 79.2463 L 527.631 79.1656 L 526.844 79.2463 L 526.531 79.3422 L 526.274 79.4783 L 525.931 79.8566 L 525.815 80.376 L 525.931 80.9005 L 526.279 81.2788 L 526.844 81.5158 L 527.631 81.5915 L 527.631 81.5915 z M 527.631 81.1073 L 527.021 81.067 L 526.582 80.9409 L 526.325 80.7139 L 526.234 80.376 L 526.325 80.0432 L 526.582 79.8162 L 527.021 79.6902 L 527.631 79.6498 L 528.246 79.6902 L 528.685 79.8162 L 528.942 80.0432 L 529.028 80.376 L 528.942 80.7139 L 528.685 80.9409 L 528.246 81.067 L 527.631 81.1073 L 527.631 81.1073 z" stroke="none" fill-rule="evenodd" fill="rgb(0, 0, 0)"/><path d="M 530.823 105.312 L 531.341 107.244 L 531.858 105.312"/><path d="M 531.858 59.1759 L 531.341 57.244 L 530.823 59.1759"/><path d="M 531.341 107.244 L 531.341 57.244"/></g></svg>