M48
;GenerationSoftware,Autodesk,EAGLE,9.6.2*%
;CreationDate,2021-12-28T11:31:00Z*%
FMAT,2
ICI,OFF
METRIC,TZ,000.000
T14C0.350
T13C0.400
T12C0.600
T11C0.750
T10C0.813
T9C1.000
T8C1.016
T7C1.200
T6C1.300
T5C1.400
T4C1.600
T3C2.330
T2C3.200
T1C4.308
%
G90
M71
T1
X88850Y57453
X88850Y68453
X69850Y57453
X25942Y46857
X36942Y46857
X69850Y68453
X25942Y65857
X36942Y65857
T2
X107950Y6350
X107950Y71120
X22860Y6350
T3
X85470Y19613
X80070Y24962
X85470Y30312
T4
X58242Y52557
X75550Y36153
X83150Y36153
X58242Y60157
T5
X89970Y21613
X89970Y27612
X26898Y23126
X26898Y12426
X32298Y18127
X26898Y37605
X26898Y26904
X32298Y32604
T6
X22398Y21127
X22398Y15126
X22398Y35605
X22398Y29604
T7
X98926Y14331
X88766Y14331
X81147Y14331
X81147Y6711
X88766Y6711
X98926Y6711
T8
X108458Y20527
X108458Y52480
X108458Y45560
X108458Y36725
X108458Y29147
X108458Y14154
X108458Y55677
X108458Y39867
X108458Y23622
T9
X97135Y65870
X102215Y65870
X104755Y65870
X76851Y7970
X74311Y7970
X71771Y7970
X69231Y7970
X64139Y8044
X61599Y8044
X59059Y8044
X56519Y8044
X53979Y8044
X51439Y8044
X48034Y8171
X45494Y8171
X42954Y8171
X40414Y8171
X37874Y8171
X35334Y8171
X99675Y65870
T10
X60008Y29227
X56387Y13408
X62043Y29260
X42652Y15612
X43982Y37740
X46142Y15681
X75186Y20232
X56550Y16451
T11
X36114Y17333
X38114Y17333
X36517Y36486
X38517Y36486
T12
X99000Y51000
X86375Y38375
T13
X74125Y17625
X63125Y16875
X48000Y28625
X101750Y47500
X54875Y13750
X59625Y25625
X93875Y29625
X106625Y25625
X100875Y31375
X96875Y44000
X98000Y62125
X104250Y18125
X52625Y15625
T14
X99625Y57250
X101000Y44000
X101625Y49875
X101500Y29125
X102750Y35379
X104500Y50250
X104125Y27375
X98625Y54750
X101125Y10750
X55375Y21250
X57250Y36750
X101750Y24000
X101250Y30375
X101625Y35750
X105625Y33625
X96132Y26674
X102750Y24250
X62375Y14375
X106375Y32625
X74375Y16250
X60625Y19250
X92625Y32750
X103875Y44000
X52125Y22875
X71625Y18375
X66750Y28125
X65875Y19750
X75250Y25625
X74000Y23375
X48000Y29875
X54125Y23750
X50875Y38000
X50875Y28875
X62375Y22250
X66000Y26375
X59875Y38125
X57500Y35250
X56500Y28500
X101625Y17375
X92500Y20000
X50800Y10414
X50165Y12446
X106426Y31369
X108287Y32258
X101473Y27432
X97028Y26035
X31288Y14110
X29448Y14110
M30