<?xml version="1.0" encoding="utf-8" ?><!DOCTYPE svg PUBLIC "-//W3C//DTD SVG 1.1//EN" "http://www.w3.org/Graphics/SVG/1.1/DTD/svg11.dtd" 
[ <!ATTLIST svg 
  xmlns:dsy CDATA #FIXED "http://www.3ds.com/print"  
    dsy:text-version CDATA #IMPLIED > 

  <!ATTLIST text 
  xmlns:dsy CDATA #FIXED "http://www.3ds.com/print" 
    dsy:text-version CDATA #IMPLIED > 
]><svg xmlns="http://www.w3.org/2000/svg" xmlns:dsy="http://www.3ds.com/print" dsy:text-version="18000" width="297" height="210" viewBox="0 0 297 210" version="1.1"><g stroke="rgb(0, 0, 0)" stroke-width="0.35" stroke-linecap="butt" stroke-linejoin="miter" fill="none"><path d="M 246.105 137.492 L 246.105 80.4916"/><path d="M 246.105 80.4916 A 8 8 0 0 0 238.105 72.4916"/><path d="M 238.105 72.4916 L 58.895 72.4916"/><path d="M 58.895 72.4916 A 8 8 0 0 0 50.895 80.4916"/><path d="M 50.895 80.4916 L 50.895 104.492"/><path d="M 50.895 104.492 A 8 8 0 0 0 58.895 112.492"/><path d="M 58.895 112.492 L 63.895 112.492"/><path d="M 63.895 112.492 L 63.895 102.492"/><path d="M 63.895 102.492 L 69.895 102.492"/><path d="M 69.895 102.492 L 69.895 112.492"/><path d="M 69.895 112.492 L 149.895 112.492"/><path d="M 149.895 112.492 L 149.895 102.492"/><path d="M 149.895 102.492 L 155.895 102.492"/><path d="M 155.895 102.492 L 155.895 112.492"/><path d="M 155.895 112.492 L 198.105 112.492"/><path d="M 206.105 120.492 A 8 8 0 0 0 198.105 112.492"/><path d="M 206.105 120.492 L 206.105 137.492"/><path d="M 239.967 137.492 L 246.105 137.492"/><path d="M 206.105 137.492 L 215.365 137.492"/><path d="M 229.266 127.328 A 12.5014 12.5014 0 0 0 215.364 137.492"/><path d="M 239.967 137.492 A 12.5023 12.5023 0 0 0 229.266 127.328"/><path d="M 239.85 137.492 A 12.5023 12.5023 0 0 0 229.207 127.32"/><path d="M 239.967 137.492 L 239.85 137.492"/></g></svg>