<?xml version="1.0" encoding="utf-8" ?><!DOCTYPE svg PUBLIC "-//W3C//DTD SVG 1.1//EN" "http://www.w3.org/Graphics/SVG/1.1/DTD/svg11.dtd" 
[ <!ATTLIST svg 
  xmlns:dsy CDATA #FIXED "http://www.3ds.com/print"  
    dsy:text-version CDATA #IMPLIED > 

  <!ATTLIST text 
  xmlns:dsy CDATA #FIXED "http://www.3ds.com/print" 
    dsy:text-version CDATA #IMPLIED > 
]><svg xmlns="http://www.w3.org/2000/svg" xmlns:dsy="http://www.3ds.com/print" dsy:text-version="18000" width="420" height="297" viewBox="0 0 420 297" version="1.1"><g stroke="rgb(0, 0, 0)" stroke-width="0.35" stroke-linecap="butt" stroke-linejoin="miter" fill="none"><path d="M 301.32 132.5 L 301.32 142.5"/><path d="M 301.32 142.5 L 295.32 142.5"/><path d="M 295.32 142.5 L 295.32 132.5"/><path d="M 295.32 132.5 L 181.32 132.5"/><path d="M 181.32 132.5 L 181.32 142.5"/><path d="M 181.32 142.5 L 175.32 142.5"/><path d="M 175.32 142.5 L 175.32 132.5"/><circle cx="369.844" cy="148.5" r="3.2"/><circle cx="51.3204" cy="148.5" r="3.2"/><path d="M 50.346 161.919 L 53.8305 157.035"/><path d="M 53.8305 157.035 L 54.6446 157.616"/><path d="M 54.6446 157.616 L 51.1601 162.5"/><path d="M 51.1601 162.5 L 50.346 161.919"/><path d="M 36.3204 149.374 L 41.2049 145.889"/><path d="M 41.2049 145.889 L 41.7856 146.703"/><path d="M 41.7856 146.703 L 36.9011 150.188"/><path d="M 36.9011 150.188 L 36.3204 149.374"/><path d="M 77.2509 149.5 L 81.2923 149.5"/><path d="M 75.2301 146 L 77.2509 149.5"/><path d="M 77.2509 142.5 L 75.2301 146"/><path d="M 81.2923 142.5 L 77.2509 142.5"/><path d="M 83.313 146 L 81.2923 142.5"/><path d="M 81.2923 149.5 L 83.313 146"/><path d="M 375.901 144.57 L 376.581 143.836"/><path d="M 376.581 143.836 L 380.981 147.915"/><path d="M 380.981 147.915 L 380.301 148.649"/><path d="M 375.901 144.57 L 380.301 148.649"/><path d="M 365.814 154.643 L 369.595 159.302"/><path d="M 369.595 159.302 L 368.819 159.932"/><path d="M 368.819 159.932 L 365.038 155.273"/><path d="M 365.038 155.273 L 365.814 154.643"/><path d="M 175.32 132.5 L 41.7842 132.5"/><path d="M 41.7842 132.5 A 6 6 0 0 0 35.8104 137.94"/><path d="M 39.9092 164.5 L 324.054 164.5"/><path d="M 35.8104 137.94 L 33.9354 157.94"/><path d="M 33.9354 157.94 A 6 6 0 0 0 39.9092 164.5"/><path d="M 324.054 164.5 L 380.091 164.5"/><path d="M 380.091 164.5 A 6 6 0 0 0 385.988 157.394"/><path d="M 376.341 132.5 L 301.32 132.5"/><path d="M 385.988 157.394 L 382.238 137.394"/><path d="M 382.238 137.394 A 6 6 0 0 0 376.341 132.5"/></g></svg>