  0
SECTION
  2
HEADER
  9
$ACADVER
  1
AC1021
  9
$ACADMAINTVER
 70
    25
  9
$DWGCODEPAGE
  3
ANSI_1252
  9
$INSBASE
 10
0.0
 20
0.0
 30
0.0
  9
$EXTMIN
 10
0.0
 20
0.0
 30
0.0
  9
$EXTMAX
 10
303.421387
 20
224.67189
 30
2.0
  9
$LIMMIN
 10
0.0
 20
0.0
  9
$LIMMAX
 10
420.0
 20
297.0
  9
$ORTHOMODE
 70
     0
  9
$REGENMODE
 70
     1
  9
$FILLMODE
 70
     1
  9
$QTEXTMODE
 70
     0
  9
$MIRRTEXT
 70
     1
  9
$LTSCALE
 40
1.0
  9
$ATTMODE
 70
     1
  9
$TEXTSIZE
 40
2.5
  9
$TRACEWID
 40
1.0
  9
$TEXTSTYLE
  7
Standard
  9
$CLAYER
  8
0
  9
$CELTYPE
  6
ByLayer
  9
$CECOLOR
 62
   256
  9
$CELTSCALE
 40
1.0
  9
$DISPSILH
 70
     0
  9
$DIMSCALE
 40
1.0
  9
$DIMASZ
 40
2.5
  9
$DIMEXO
 40
0.625
  9
$DIMDLI
 40
3.75
  9
$DIMRND
 40
0.0
  9
$DIMDLE
 40
0.0
  9
$DIMEXE
 40
1.25
  9
$DIMTP
 40
0.0
  9
$DIMTM
 40
0.0
  9
$DIMTXT
 40
2.5
  9
$DIMCEN
 40
2.5
  9
$DIMTSZ
 40
0.0
  9
$DIMTOL
 70
     0
  9
$DIMLIM
 70
     0
  9
$DIMTIH
 70
     0
  9
$DIMTOH
 70
     0
  9
$DIMSE1
 70
     0
  9
$DIMSE2
 70
     0
  9
$DIMTAD
 70
     1
  9
$DIMZIN
 70
     8
  9
$DIMBLK
  1

  9
$DIMASO
 70
     1
  9
$DIMSHO
 70
     1
  9
$DIMPOST
  1

  9
$DIMAPOST
  1

  9
$DIMALT
 70
     0
  9
$DIMALTD
 70
     3
  9
$DIMALTF
 40
0.03937
  9
$DIMLFAC
 40
1.0
  9
$DIMTOFL
 70
     1
  9
$DIMTVP
 40
0.0
  9
$DIMTIX
 70
     0
  9
$DIMSOXD
 70
     0
  9
$DIMSAH
 70
     0
  9
$DIMBLK1
  1

  9
$DIMBLK2
  1

  9
$DIMSTYLE
  2
Standard
  9
$DIMCLRD
 70
     0
  9
$DIMCLRE
 70
     0
  9
$DIMCLRT
 70
     0
  9
$DIMTFAC
 40
1.0
  9
$DIMGAP
 40
0.625
  9
$DIMJUST
 70
     0
  9
$DIMSD1
 70
     0
  9
$DIMSD2
 70
     0
  9
$DIMTOLJ
 70
     0
  9
$DIMTZIN
 70
     8
  9
$DIMALTZ
 70
     0
  9
$DIMALTTZ
 70
     0
  9
$DIMUPT
 70
     0
  9
$DIMDEC
 70
     2
  9
$DIMTDEC
 70
     2
  9
$DIMALTU
 70
     2
  9
$DIMALTTD
 70
     3
  9
$DIMTXSTY
  7
Standard
  9
$DIMAUNIT
 70
     0
  9
$DIMADEC
 70
     0
  9
$DIMALTRND
 40
0.0
  9
$DIMAZIN
 70
     0
  9
$DIMDSEP
 70
    44
  9
$DIMATFIT
 70
     0
  9
$DIMFRAC
 70
     0
  9
$DIMLDRBLK
  1

  9
$DIMLUNIT
 70
     2
  9
$DIMLWD
 70
    -2
  9
$DIMLWE
 70
    -2
  9
$DIMTMOVE
 70
     0
  9
$DIMFXL
 40
1.0
  9
$DIMFXLON
 70
     0
  9
$DIMJOGANG
 40
0.7853981633974483
  9
$DIMTFILL
 70
     0
  9
$DIMTFILLCLR
 70
     0
  9
$DIMARCSYM
 70
     0
  9
$DIMLTYPE
  6

  9
$DIMLTEX1
  6

  9
$DIMLTEX2
  6

  9
$LUNITS
 70
     2
  9
$LUPREC
 70
     4
  9
$SKETCHINC
 40
1.0
  9
$FILLETRAD
 40
2.5
  9
$AUNITS
 70
     0
  9
$AUPREC
 70
     0
  9
$MENU
  1
.
  9
$ELEVATION
 40
0.0
  9
$PELEVATION
 40
0.0
  9
$THICKNESS
 40
0.0
  9
$LIMCHECK
 70
     0
  9
$CHAMFERA
 40
2.5
  9
$CHAMFERB
 40
2.5
  9
$CHAMFERC
 40
0.0
  9
$CHAMFERD
 40
0.0
  9
$SKPOLY
 70
     0
  9
$TDCREATE
 40
2447893.041666667
  9
$TDUCREATE
 40
0.0
  9
$TDUPDATE
 40
2447893.041666667
  9
$TDUUPDATE
 40
0.0
  9
$TDINDWG
 40
0.0
  9
$TDUSRTIMER
 40
0.0
  9
$USRTIMER
 70
     1
  9
$ANGBASE
 50
0.0
  9
$ANGDIR
 70
     0
  9
$PDMODE
 70
     0
  9
$PDSIZE
 40
0.0
  9
$PLINEWID
 40
0.0
  9
$SPLFRAME
 70
     0
  9
$SPLINETYPE
 70
     6
  9
$SPLINESEGS
 70
     8
  9
$HANDSEED
  5
A4
  9
$SURFTAB1
 70
     6
  9
$SURFTAB2
 70
     6
  9
$SURFTYPE
 70
     6
  9
$SURFU
 70
     6
  9
$SURFV
 70
     6
  9
$UCSBASE
  2

  9
$UCSNAME
  2

  9
$UCSORG
 10
0.0
 20
0.0
 30
0.0
  9
$UCSXDIR
 10
1.0
 20
0.0
 30
0.0
  9
$UCSYDIR
 10
0.0
 20
1.0
 30
0.0
  9
$UCSORTHOREF
  2

  9
$UCSORTHOVIEW
 70
     1
  9
$UCSORGTOP
 10
0.0
 20
0.0
 30
0.0
  9
$UCSORGBOTTOM
 10
0.0
 20
0.0
 30
0.0
  9
$UCSORGLEFT
 10
0.0
 20
0.0
 30
0.0
  9
$UCSORGRIGHT
 10
0.0
 20
0.0
 30
0.0
  9
$UCSORGFRONT
 10
0.0
 20
0.0
 30
0.0
  9
$UCSORGBACK
 10
0.0
 20
0.0
 30
0.0
  9
$PUCSBASE
  2

  9
$PUCSNAME
  2

  9
$PUCSORG
 10
0.0
 20
0.0
 30
0.0
  9
$PUCSXDIR
 10
1.0
 20
0.0
 30
0.0
  9
$PUCSYDIR
 10
0.0
 20
1.0
 30
0.0
  9
$PUCSORTHOREF
  2

  9
$PUCSORTHOVIEW
 70
     0
  9
$PUCSORGTOP
 10
0.0
 20
0.0
 30
0.0
  9
$PUCSORGBOTTOM
 10
0.0
 20
0.0
 30
0.0
  9
$PUCSORGLEFT
 10
0.0
 20
0.0
 30
0.0
  9
$PUCSORGRIGHT
 10
0.0
 20
0.0
 30
0.0
  9
$PUCSORGFRONT
 10
0.0
 20
0.0
 30
0.0
  9
$PUCSORGBACK
 10
0.0
 20
0.0
 30
0.0
  9
$USERI1
 70
     0
  9
$USERI2
 70
     0
  9
$USERI3
 70
     0
  9
$USERI4
 70
     0
  9
$USERI5
 70
     0
  9
$USERR1
 40
0.0
  9
$USERR2
 40
0.0
  9
$USERR3
 40
0.0
  9
$USERR4
 40
0.0
  9
$USERR5
 40
0.0
  9
$WORLDVIEW
 70
     1
  9
$SHADEDGE
 70
     3
  9
$SHADEDIF
 70
    70
  9
$TILEMODE
 70
     1
  9
$MAXACTVP
 70
    48
  9
$PINSBASE
 10
0.0
 20
0.0
 30
0.0
  9
$PLIMCHECK
 70
     0
  9
$PEXTMIN
 10
0.0
 20
0.0
 30
0.0
  9
$PEXTMAX
 10
303.421387
 20
224.67189
 30
2.0
  9
$PLIMMIN
 10
0.0
 20
0.0
  9
$PLIMMAX
 10
420.0
 20
297.0
  9
$UNITMODE
 70
     0
  9
$VISRETAIN
 70
     0
  9
$PLINEGEN
 70
     0
  9
$PSLTSCALE
 70
     1
  9
$TREEDEPTH
 70
  3020
  9
$CMLSTYLE
  2
Standard
  9
$CMLJUST
 70
     0
  9
$CMLSCALE
 40
20.0
  9
$PROXYGRAPHICS
 70
     1
  9
$MEASUREMENT
 70
     1
  9
$CELWEIGHT
370
    -1
  9
$ENDCAPS
280
     0
  9
$JOINSTYLE
280
     0
  9
$LWDISPLAY
290
     0
  9
$INSUNITS
 70
     0
  9
$HYPERLINKBASE
  1

  9
$STYLESHEET
  1

  9
$XEDIT
290
     1
  9
$CEPSNTYPE
380
     0
  9
$PSTYLEMODE
290
     0
  9
$FINGERPRINTGUID
  2

  9
$VERSIONGUID
  2

  9
$EXTNAMES
290
     0
  9
$PSVPSCALE
 40
0.0
  9
$OLESTARTUP
290
     0
  9
$SORTENTS
280
   127
  9
$INDEXCTL
280
     0
  9
$HIDETEXT
280
     1
  9
$XCLIPFRAME
290
     0
  9
$HALOGAP
280
     0
  9
$OBSCOLOR
 70
   257
  9
$OBSLTYPE
280
     0
  9
$INTERSECTIONDISPLAY
280
     0
  9
$INTERSECTIONCOLOR
 70
   257
  9
$DIMASSOC
280
     2
  9
$PROJECTNAME
  1

  9
$CAMERADISPLAY
290
     0
  9
$LENSLENGTH
 40
50.0
  9
$CAMERAHEIGHT
 40
0.0
  9
$STEPSPERSEC
 40
2.0
  9
$STEPSIZE
 40
6.0
  9
$3DDWFPREC
 40
2.0
  9
$PSOLWIDTH
 40
0.25
  9
$PSOLHEIGHT
 40
4.0
  9
$LOFTANG1
 40
1.570796326794897
  9
$LOFTANG2
 40
1.570796326794897
  9
$LOFTMAG1
 40
0.0
  9
$LOFTMAG2
 40
0.0
  9
$LOFTPARAM
 70
     7
  9
$LOFTNORMALS
280
     1
  9
$LATITUDE
 40
37.795
  9
$LONGITUDE
 40
-122.394
  9
$NORTHDIRECTION
 40
0.0
  9
$TIMEZONE
 70
 -8000
  9
$LIGHTGLYPHDISPLAY
280
     1
  9
$TILEMODELIGHTSYNCH
280
     1
  9
$SOLIDHIST
280
     1
  9
$SHOWHIST
280
     1
  9
$DWFFRAME
280
     2
  9
$DGNFRAME
280
     2
  9
$REALWORLDSCALE
290
     1
  9
$INTERFERECOLOR
 62
   256
  9
$CSHADOW
280
     0
  9
$SHADOWPLANELOCATION
 40
0.0
  0
ENDSEC
  0
SECTION
  2
CLASSES
  0
CLASS
  1
LWPOLYLINE
  2
AcDbPolyline
  3
AutoCAD 2000
 90
        0
 91
        1
280
     0
281
     1
  0
CLASS
  1
IMAGE
  2
AcDbRasterImage
  3
ISM
 90
      127
 91
        5
280
     0
281
     1
  0
CLASS
  1
OLE2FRAME
  2
AcDbOle2Frame
  3
AutoCAD 2000
 90
        0
 91
        1
280
     0
281
     1
  0
CLASS
  1
HATCH
  2
AcDbHatch
  3
AutoCAD 2000
 90
        0
 91
        1
280
     0
281
     1
  0
CLASS
  1
DICTIONARYVAR
  2
AcDbDictionaryVar
  3
ObjectDBX Classes
 90
        0
 91
        4
280
     0
281
     0
  0
CLASS
  1
RASTERVARIABLES
  2
AcDbRasterVariables
  3
ISM
 90
        0
 91
        4
280
     0
281
     0
  0
CLASS
  1
IMAGEDEF
  2
AcDbRasterImageDef
  3
ISM
 90
        0
 91
        4
280
     0
281
     0
  0
CLASS
  1
IMAGEDEF_REACTOR
  2
AcDbRasterImageDefReactor
  3
ISM
 90
        1
 91
        4
280
     0
281
     0
  0
CLASS
  1
IDBUFFER
  2
AcDbIdBuffer
  3
ObjectDBX Classes
 90
        0
 91
        4
280
     0
281
     0
  0
CLASS
  1
SPATIAL_FILTER
  2
AcDbSpatialFilter
  3
ObjectDBX Classes
 90
        0
 91
        4
280
     0
281
     0
  0
CLASS
  1
XRECORD
  2
AcDbXrecord
  3
AutoCAD 2000
 90
        0
 91
        1
280
     0
281
     0
  0
CLASS
  1
SORTENTSTABLE
  2
AcDbSortentsTable
  3
ObjectDBX Classes
 90
        0
 91
        4
280
     0
281
     0
  0
CLASS
  1
LAYER_INDEX
  2
AcDbLayerIndex
  3
ObjectDBX Classes
 90
        0
 91
        4
280
     0
281
     0
  0
CLASS
  1
SPATIAL_INDEX
  2
AcDbSpatialIndex
  3
AutoCAD 2000
 90
        0
 91
        4
280
     0
281
     0
  0
CLASS
  1
OBJECT_PTR
  2
CAseDLPNTableRecord
  3
ASE-LPNTableRecord
 90
        1
 91
        4
280
     0
281
     0
  0
CLASS
  1
LAYOUT
  2
AcDbLayout
  3
ObjectDBX Classes
 90
        0
 91
        1
280
     0
281
     0
  0
CLASS
  1
PLOTSETTINGS
  2
AcDbPlotSettings
  3
ObjectDBX Classes
 90
        0
 91
        4
280
     0
281
     0
  0
CLASS
  1
ACDBDICTIONARYWDFLT
  2
AcDbDictionaryWithDefault
  3
ObjectDBX Classes
 90
        0
 91
        4
280
     0
281
     0
  0
CLASS
  1
ACDBPLACEHOLDER
  2
AcDbPlaceHolder
  3
ObjectDBX Classes
 90
        0
 91
        1
280
     0
281
     0
  0
CLASS
  1
VBA_PROJECT
  2
AcDbVbaProject
  3
ObjectDBX Classes
 90
        0
 91
        1
280
     0
281
     0
  0
CLASS
  1
WIPEOUT
  2
AcDbWipeout
  3
WipeOut|AutoCAD Express Tool|expresstools@autodesk.com
 90
      127
 91
        4
280
     0
281
     1
  0
CLASS
  1
WIPEOUTVARIABLES
  2
AcDbWipeoutVariables
  3
WipeOut|AutoCAD Express Tool|expresstools@autodesk.com
 90
        0
 91
        4
280
     0
281
     0
  0
CLASS
  1
RTEXT
  2
RText
  3
RText|AutoCAD Express Tool|expresstools@autodesk.com
 90
        0
 91
        4
280
     0
281
     1
  0
CLASS
  1
ARCALIGNEDTEXT
  2
AcDbArcAlignedText
  3
ATEXT|AutoCAD Express Tool|expresstools@autodesk.com
 90
        0
 91
        4
280
     0
281
     1
  0
CLASS
  1
SCALE
  2
AcDbScale
  3
ObjectDBX Classes
 90
     1153
 91
        4
280
     0
281
     0
  0
ENDSEC
  0
SECTION
  2
TABLES
  0
TABLE
  2
VPORT
  5
7
330
0
100
AcDbSymbolTable
 70
     1
  0
VPORT
  5
15
330
7
100
AcDbSymbolTableRecord
100
AcDbViewportTableRecord
  2
*ACTIVE
 70
     0
 10
0.0
 20
0.0
 11
1.0
 21
1.0
 12
6.591288
 22
4.579184
 13
0.0
 23
0.0
 14
1.0
 24
1.0
 15
0.0
 25
0.0
 16
0.0
 26
0.0
 36
1.0
 17
0.0
 27
0.0
 37
0.0
 40
9.158369
 41
0.688564
 42
50.0
 43
0.0
 44
0.0
 50
0.0
 51
0.0
 71
     0
 72
   100
 73
     1
 74
     1
 75
     0
 76
     0
 77
     0
 78
     0
281
     0
 65
     0
110
0.0
120
0.0
130
0.0
111
1.0
121
0.0
131
0.0
112
0.0
122
1.0
132
0.0
 79
     0
146
0.0
 60
     3
 61
     5
292
     1
282
     1
141
0.0
142
0.0
 63
   256
  0
ENDTAB
  0
TABLE
  2
LTYPE
  5
4
330
0
100
AcDbSymbolTable
 70
     1
  0
LTYPE
  5
11
330
4
100
AcDbSymbolTableRecord
100
AcDbLinetypeTableRecord
  2
ByBlock
 70
     0
  3

 72
    65
 73
     0
 40
0.0
  0
LTYPE
  5
12
330
4
100
AcDbSymbolTableRecord
100
AcDbLinetypeTableRecord
  2
ByLayer
 70
     0
  3

 72
    65
 73
     0
 40
0.0
  0
LTYPE
  5
13
330
4
100
AcDbSymbolTableRecord
100
AcDbLinetypeTableRecord
  2
Continuous
 70
     0
  3
Solid line
 72
    65
 73
     0
 40
0.0
  0
ENDTAB
  0
TABLE
  2
LAYER
  5
2
330
0
100
AcDbSymbolTable
 70
     1
  0
LAYER
  5
14
330
2
100
AcDbSymbolTableRecord
100
AcDbLayerTableRecord
  2
0
 70
     0
 62
     7
  6
Continuous
370
    -3
390
1D
347
0
  0
ENDTAB
  0
TABLE
  2
STYLE
  5
3
330
0
100
AcDbSymbolTable
 70
     1
  0
STYLE
  5
17
330
3
100
AcDbSymbolTableRecord
100
AcDbTextStyleTableRecord
  2
Standard
 70
     0
 40
0.0
 41
1.0
 50
0.0
 71
     0
 42
2.5
  3
txt
  4

  0
ENDTAB
  0
TABLE
  2
VIEW
  5
5
330
0
100
AcDbSymbolTable
 70
     0
  0
ENDTAB
  0
TABLE
  2
UCS
  5
6
330
0
100
AcDbSymbolTable
 70
     0
  0
ENDTAB
  0
TABLE
  2
APPID
  5
8
330
0
100
AcDbSymbolTable
 70
     1
  0
APPID
  5
16
330
8
100
AcDbSymbolTableRecord
100
AcDbRegAppTableRecord
  2
ACAD
 70
     0
  0
ENDTAB
  0
TABLE
  2
DIMSTYLE
  5
9
330
0
100
AcDbSymbolTable
 70
     1
100
AcDbDimStyleTable
  0
DIMSTYLE
105
18
330
9
100
AcDbSymbolTableRecord
100
AcDbDimStyleTableRecord
  2
Standard
 70
     0
340
17
  0
ENDTAB
  0
TABLE
  2
BLOCK_RECORD
  5
1
330
0
100
AcDbSymbolTable
 70
     0
  0
BLOCK_RECORD
  5
A
330
1
100
AcDbSymbolTableRecord
100
AcDbBlockTableRecord
  2
*MODEL_SPACE
340
20
 70
     0
280
     1
281
     0
  0
BLOCK_RECORD
  5
B
330
1
100
AcDbSymbolTableRecord
100
AcDbBlockTableRecord
  2
*PAPER_SPACE
340
21
 70
     0
280
     1
281
     0
  0
ENDTAB
  0
ENDSEC
  0
SECTION
  2
BLOCKS
  0
BLOCK
  5
D
330
A
100
AcDbEntity
  8
0
390
1D
100
AcDbBlockBegin
  2
*MODEL_SPACE
 70
     0
 10
0.0
 20
0.0
 30
0.0
  3
*MODEL_SPACE
  1

  0
ENDBLK
  5
E
330
A
100
AcDbEntity
  8
0
390
1D
100
AcDbBlockEnd
  0
BLOCK
  5
F
330
B
100
AcDbEntity
 67
     1
  8
0
390
1D
100
AcDbBlockBegin
  2
*PAPER_SPACE
 70
     0
 10
0.0
 20
0.0
 30
0.0
  3
*PAPER_SPACE
  1

  0
ENDBLK
  5
10
330
B
100
AcDbEntity
 67
     1
  8
0
390
1D
100
AcDbBlockEnd
  0
ENDSEC
  0
SECTION
  2
ENTITIES
  0
POLYLINE
  5
24
330
A
100
AcDbEntity
  8
0
 62
     7
370
    13
390
1D
100
AcDb2dPolyline
 66
     1
 10
0.0
 20
0.0
 30
0.0
 70
     1
  0
VERTEX
  5
25
330
24
100
AcDbEntity
  8
0
 62
     7
370
     0
390
1D
100
AcDbVertex
100
AcDb2dVertex
 10
224.530884
 20
220.146667
 30
0.0
  0
VERTEX
  5
26
330
24
100
AcDbEntity
  8
0
 62
     7
370
     0
390
1D
100
AcDbVertex
100
AcDb2dVertex
 10
224.984772
 20
220.146667
 30
0.0
  0
VERTEX
  5
27
330
24
100
AcDbEntity
  8
0
 62
     7
370
     0
390
1D
100
AcDbVertex
100
AcDb2dVertex
 10
224.984772
 20
221.014099
 30
0.0
  0
VERTEX
  5
28
330
24
100
AcDbEntity
  8
0
 62
     7
370
     0
390
1D
100
AcDbVertex
100
AcDb2dVertex
 10
225.484055
 20
221.014099
 30
0.0
  0
VERTEX
  5
29
330
24
100
AcDbEntity
  8
0
 62
     7
370
     0
390
1D
100
AcDbVertex
100
AcDb2dVertex
 10
225.484055
 20
221.417557
 30
0.0
  0
VERTEX
  5
2A
330
24
100
AcDbEntity
  8
0
 62
     7
370
     0
390
1D
100
AcDbVertex
100
AcDb2dVertex
 10
224.984772
 20
221.417557
 30
0.0
  0
VERTEX
  5
2B
330
24
100
AcDbEntity
  8
0
 62
     7
370
     0
390
1D
100
AcDbVertex
100
AcDb2dVertex
 10
224.984772
 20
223.571014
 30
0.0
  0
VERTEX
  5
2C
330
24
100
AcDbEntity
  8
0
 62
     7
370
     0
390
1D
100
AcDbVertex
100
AcDb2dVertex
 10
224.525848
 20
223.571014
 30
0.0
  0
VERTEX
  5
2D
330
24
100
AcDbEntity
  8
0
 62
     7
370
     0
390
1D
100
AcDbVertex
100
AcDb2dVertex
 10
222.992706
 20
221.457901
 30
0.0
  0
VERTEX
  5
2E
330
24
100
AcDbEntity
  8
0
 62
     7
370
     0
390
1D
100
AcDbVertex
100
AcDb2dVertex
 10
222.992706
 20
221.014099
 30
0.0
  0
VERTEX
  5
2F
330
24
100
AcDbEntity
  8
0
 62
     7
370
     0
390
1D
100
AcDbVertex
100
AcDb2dVertex
 10
224.530884
 20
221.014099
 30
0.0
  0
SEQEND
  5
30
330
24
100
AcDbEntity
  8
0
370
     0
390
1D
  0
POLYLINE
  5
31
330
A
100
AcDbEntity
  8
0
 62
     7
370
    13
390
1D
100
AcDb2dPolyline
 66
     1
 10
0.0
 20
0.0
 30
0.0
 70
     1
  0
VERTEX
  5
32
330
31
100
AcDbEntity
  8
0
 62
     7
370
     0
390
1D
100
AcDbVertex
100
AcDb2dVertex
 10
223.416336
 20
221.417557
 30
0.0
  0
VERTEX
  5
33
330
31
100
AcDbEntity
  8
0
 62
     7
370
     0
390
1D
100
AcDbVertex
100
AcDb2dVertex
 10
224.530884
 20
222.985992
 30
0.0
  0
VERTEX
  5
34
330
31
100
AcDbEntity
  8
0
 62
     7
370
     0
390
1D
100
AcDbVertex
100
AcDb2dVertex
 10
224.530884
 20
221.417557
 30
0.0
  0
SEQEND
  5
35
330
31
100
AcDbEntity
  8
0
370
     0
390
1D
  0
POLYLINE
  5
36
330
A
100
AcDbEntity
  8
0
 62
     7
370
    13
390
1D
100
AcDb2dPolyline
 66
     1
 10
0.0
 20
0.0
 30
0.0
 70
     1
  0
VERTEX
  5
37
330
36
100
AcDbEntity
  8
0
 62
     7
370
     0
390
1D
100
AcDbVertex
100
AcDb2dVertex
 10
228.266907
 20
220.146667
 30
0.0
  0
VERTEX
  5
38
330
36
100
AcDbEntity
  8
0
 62
     7
370
     0
390
1D
100
AcDbVertex
100
AcDb2dVertex
 10
228.720795
 20
220.146667
 30
0.0
  0
VERTEX
  5
39
330
36
100
AcDbEntity
  8
0
 62
     7
370
     0
390
1D
100
AcDbVertex
100
AcDb2dVertex
 10
228.720795
 20
221.014099
 30
0.0
  0
VERTEX
  5
3A
330
36
100
AcDbEntity
  8
0
 62
     7
370
     0
390
1D
100
AcDbVertex
100
AcDb2dVertex
 10
229.220078
 20
221.014099
 30
0.0
  0
VERTEX
  5
3B
330
36
100
AcDbEntity
  8
0
 62
     7
370
     0
390
1D
100
AcDbVertex
100
AcDb2dVertex
 10
229.220078
 20
221.417557
 30
0.0
  0
VERTEX
  5
3C
330
36
100
AcDbEntity
  8
0
 62
     7
370
     0
390
1D
100
AcDbVertex
100
AcDb2dVertex
 10
228.720795
 20
221.417557
 30
0.0
  0
VERTEX
  5
3D
330
36
100
AcDbEntity
  8
0
 62
     7
370
     0
390
1D
100
AcDbVertex
100
AcDb2dVertex
 10
228.720795
 20
223.571014
 30
0.0
  0
VERTEX
  5
3E
330
36
100
AcDbEntity
  8
0
 62
     7
370
     0
390
1D
100
AcDbVertex
100
AcDb2dVertex
 10
228.261871
 20
223.571014
 30
0.0
  0
VERTEX
  5
3F
330
36
100
AcDbEntity
  8
0
 62
     7
370
     0
390
1D
100
AcDbVertex
100
AcDb2dVertex
 10
226.728729
 20
221.457901
 30
0.0
  0
VERTEX
  5
40
330
36
100
AcDbEntity
  8
0
 62
     7
370
     0
390
1D
100
AcDbVertex
100
AcDb2dVertex
 10
226.728729
 20
221.014099
 30
0.0
  0
VERTEX
  5
41
330
36
100
AcDbEntity
  8
0
 62
     7
370
     0
390
1D
100
AcDbVertex
100
AcDb2dVertex
 10
228.266907
 20
221.014099
 30
0.0
  0
SEQEND
  5
42
330
36
100
AcDbEntity
  8
0
370
     0
390
1D
  0
POLYLINE
  5
43
330
A
100
AcDbEntity
  8
0
 62
     7
370
    13
390
1D
100
AcDb2dPolyline
 66
     1
 10
0.0
 20
0.0
 30
0.0
 70
     1
  0
VERTEX
  5
44
330
43
100
AcDbEntity
  8
0
 62
     7
370
     0
390
1D
100
AcDbVertex
100
AcDb2dVertex
 10
227.152359
 20
221.417557
 30
0.0
  0
VERTEX
  5
45
330
43
100
AcDbEntity
  8
0
 62
     7
370
     0
390
1D
100
AcDbVertex
100
AcDb2dVertex
 10
228.266907
 20
222.985992
 30
0.0
  0
VERTEX
  5
46
330
43
100
AcDbEntity
  8
0
 62
     7
370
     0
390
1D
100
AcDbVertex
100
AcDb2dVertex
 10
228.266907
 20
221.417557
 30
0.0
  0
SEQEND
  5
47
330
43
100
AcDbEntity
  8
0
370
     0
390
1D
  0
POLYLINE
  5
48
330
A
100
AcDbEntity
  8
0
 62
     7
370
    13
390
1D
100
AcDb2dPolyline
 66
     1
 10
0.0
 20
0.0
 30
0.0
 70
     1
  0
VERTEX
  5
49
330
48
100
AcDbEntity
  8
0
 62
     7
370
     0
390
1D
100
AcDbVertex
100
AcDb2dVertex
 10
231.634781
 20
220.146667
 30
0.0
  0
VERTEX
  5
4A
330
48
100
AcDbEntity
  8
0
 62
     7
370
     0
390
1D
100
AcDbVertex
100
AcDb2dVertex
 10
232.093719
 20
220.146667
 30
0.0
  0
VERTEX
  5
4B
330
48
100
AcDbEntity
  8
0
 62
     7
370
     0
390
1D
100
AcDbVertex
100
AcDb2dVertex
 10
232.093719
 20
223.671875
 30
0.0
  0
VERTEX
  5
4C
330
48
100
AcDbEntity
  8
0
 62
     7
370
     0
390
1D
100
AcDbVertex
100
AcDb2dVertex
 10
231.750778
 20
223.671875
 30
0.0
  0
VERTEX
  5
4D
330
48
100
AcDbEntity
  8
0
 62
     7
370
     0
390
1D
100
AcDbVertex
100
AcDb2dVertex
 10
231.659988
 20
223.364243
 30
0.0
  0
VERTEX
  5
4E
330
48
100
AcDbEntity
  8
0
 62
     7
370
     0
390
1D
100
AcDbVertex
100
AcDb2dVertex
 10
231.478439
 20
223.157471
 30
0.0
  0
VERTEX
  5
4F
330
48
100
AcDbEntity
  8
0
 62
     7
370
     0
390
1D
100
AcDbVertex
100
AcDb2dVertex
 10
231.201065
 20
223.036438
 30
0.0
  0
VERTEX
  5
50
330
48
100
AcDbEntity
  8
0
 62
     7
370
     0
390
1D
100
AcDbVertex
100
AcDb2dVertex
 10
230.81778
 20
222.996094
 30
0.0
  0
VERTEX
  5
51
330
48
100
AcDbEntity
  8
0
 62
     7
370
     0
390
1D
100
AcDbVertex
100
AcDb2dVertex
 10
230.81778
 20
222.638016
 30
0.0
  0
VERTEX
  5
52
330
48
100
AcDbEntity
  8
0
 62
     7
370
     0
390
1D
100
AcDbVertex
100
AcDb2dVertex
 10
231.634781
 20
222.638016
 30
0.0
  0
SEQEND
  5
53
330
48
100
AcDbEntity
  8
0
370
     0
390
1D
  0
LINE
  5
54
330
A
100
AcDbEntity
  8
0
 62
     7
370
    13
390
1D
100
AcDbLine
 10
154.489532
 20
197.38353
 30
0.0
 11
154.489532
 21
220.146667
 31
0.0
  0
LINE
  5
55
330
A
100
AcDbEntity
  8
0
 62
     7
370
    13
390
1D
100
AcDbLine
 10
301.489532
 20
197.38353
 30
0.0
 11
301.489532
 21
220.146667
 31
0.0
  0
POLYLINE
  5
56
330
A
100
AcDbEntity
  8
0
 62
     7
370
    13
390
1D
100
AcDb2dPolyline
 66
     1
 10
0.0
 20
0.0
 30
0.0
  0
VERTEX
  5
57
330
56
100
AcDbEntity
  8
0
 62
     7
370
     0
390
1D
100
AcDbVertex
100
AcDb2dVertex
 10
156.421387
 20
218.664307
 30
0.0
  0
VERTEX
  5
58
330
56
100
AcDbEntity
  8
0
 62
     7
370
     0
390
1D
100
AcDbVertex
100
AcDb2dVertex
 10
154.489532
 20
218.146667
 30
0.0
  0
VERTEX
  5
59
330
56
100
AcDbEntity
  8
0
 62
     7
370
     0
390
1D
100
AcDbVertex
100
AcDb2dVertex
 10
156.421387
 20
217.629028
 30
0.0
  0
SEQEND
  5
5A
330
56
100
AcDbEntity
  8
0
370
     0
390
1D
  0
POLYLINE
  5
5B
330
A
100
AcDbEntity
  8
0
 62
     7
370
    13
390
1D
100
AcDb2dPolyline
 66
     1
 10
0.0
 20
0.0
 30
0.0
  0
VERTEX
  5
5C
330
5B
100
AcDbEntity
  8
0
 62
     7
370
     0
390
1D
100
AcDbVertex
100
AcDb2dVertex
 10
299.557678
 20
217.629028
 30
0.0
  0
VERTEX
  5
5D
330
5B
100
AcDbEntity
  8
0
 62
     7
370
     0
390
1D
100
AcDbVertex
100
AcDb2dVertex
 10
301.489532
 20
218.146667
 30
0.0
  0
VERTEX
  5
5E
330
5B
100
AcDbEntity
  8
0
 62
     7
370
     0
390
1D
100
AcDbVertex
100
AcDb2dVertex
 10
299.557678
 20
218.664307
 30
0.0
  0
SEQEND
  5
5F
330
5B
100
AcDbEntity
  8
0
370
     0
390
1D
  0
LINE
  5
60
330
A
100
AcDbEntity
  8
0
 62
     7
370
    13
390
1D
100
AcDbLine
 10
154.489532
 20
218.146667
 30
0.0
 11
301.489532
 21
218.146667
 31
0.0
  0
LINE
  5
61
330
A
100
AcDbEntity
  8
0
 62
     7
 48
0.034695
370
    35
390
1D
100
AcDbLine
 10
281.489532
 20
197.577423
 30
0.0
 11
281.489532
 21
196.189636
 31
0.0
  0
LINE
  5
62
330
A
100
AcDbEntity
  8
0
 62
     7
 48
0.003486
370
    35
390
1D
100
AcDbLine
 10
281.489532
 20
196.189636
 30
0.0
 11
281.489532
 21
196.050201
 31
0.0
  0
LINE
  5
63
330
A
100
AcDbEntity
  8
0
 62
     7
 48
0.003486
370
    35
390
1D
100
AcDbLine
 10
288.156189
 20
196.050201
 30
0.0
 11
288.156189
 21
196.189636
 31
0.0
  0
LINE
  5
64
330
A
100
AcDbEntity
  8
0
 62
     7
 48
0.034695
370
    35
390
1D
100
AcDbLine
 10
288.156189
 20
196.189636
 30
0.0
 11
288.156189
 21
197.577423
 31
0.0
  0
LINE
  5
65
330
A
100
AcDbEntity
  8
0
 62
     7
 48
0.195153
370
    35
390
1D
100
AcDbLine
 10
288.156189
 20
197.577423
 30
0.0
 11
288.156189
 21
205.38353
 31
0.0
  0
ARC
  5
66
330
A
100
AcDbEntity
  8
0
 62
     7
370
    35
390
1D
100
AcDbCircle
 10
287.489532
 20
205.38353
 30
0.0
 40
0.666667
100
AcDbArc
 50
0.0
 51
90.000003
  0
LINE
  5
67
330
A
100
AcDbEntity
  8
0
 62
     7
 48
0.133334
370
    35
390
1D
100
AcDbLine
 10
287.489532
 20
206.050201
 30
0.0
 11
282.156189
 21
206.050201
 31
0.0
  0
ARC
  5
68
330
A
100
AcDbEntity
  8
0
 62
     7
370
    35
390
1D
100
AcDbCircle
 10
282.156189
 20
205.38353
 30
0.0
 40
0.666667
100
AcDbArc
 50
90.000003
 51
180.000005
  0
LINE
  5
69
330
A
100
AcDbEntity
  8
0
 62
     7
 48
0.195153
370
    35
390
1D
100
AcDbLine
 10
281.489532
 20
205.38353
 30
0.0
 11
281.489532
 21
197.577423
 31
0.0
  0
LINE
  5
6A
330
A
100
AcDbEntity
  8
0
 62
     7
370
    35
390
1D
100
AcDbLine
 10
174.489532
 20
196.050201
 30
0.0
 11
281.489532
 21
196.050201
 31
0.0
  0
LINE
  5
6B
330
A
100
AcDbEntity
  8
0
 62
     7
 48
0.003486
370
    35
390
1D
100
AcDbLine
 10
174.489532
 20
196.050201
 30
0.0
 11
174.489532
 21
196.189636
 31
0.0
  0
LINE
  5
6C
330
A
100
AcDbEntity
  8
0
 62
     7
 48
0.003486
370
    35
390
1D
100
AcDbLine
 10
167.822861
 20
196.189636
 30
0.0
 11
167.822861
 21
196.050201
 31
0.0
  0
LINE
  5
6D
330
A
100
AcDbEntity
  8
0
 62
     7
 48
0.316666
370
    35
390
1D
100
AcDbLine
 10
167.822861
 20
196.050201
 30
0.0
 11
155.156204
 21
196.050201
 31
0.0
  0
ARC
  5
6E
330
A
100
AcDbEntity
  8
0
 62
     7
370
    35
390
1D
100
AcDbCircle
 10
155.156204
 20
195.38353
 30
0.0
 40
0.666667
100
AcDbArc
 50
90.000003
 51
180.000005
  0
LINE
  5
6F
330
A
100
AcDbEntity
  8
0
 62
     7
370
    35
390
1D
100
AcDbLine
 10
154.489532
 20
195.38353
 30
0.0
 11
154.489532
 21
103.383522
 31
0.0
  0
ARC
  5
70
330
A
100
AcDbEntity
  8
0
 62
     7
370
    35
390
1D
100
AcDbCircle
 10
155.156204
 20
103.383522
 30
0.0
 40
0.666667
100
AcDbArc
 50
180.000005
 51
269.999997
  0
LINE
  5
71
330
A
100
AcDbEntity
  8
0
 62
     7
370
    35
390
1D
100
AcDbLine
 10
155.156204
 20
102.716858
 30
0.0
 11
300.822876
 21
102.716858
 31
0.0
  0
ARC
  5
72
330
A
100
AcDbEntity
  8
0
 62
     7
370
    35
390
1D
100
AcDbCircle
 10
300.822876
 20
103.383522
 30
0.0
 40
0.666667
100
AcDbArc
 50
269.999997
 51
360.0
  0
LINE
  5
73
330
A
100
AcDbEntity
  8
0
 62
     7
370
    35
390
1D
100
AcDbLine
 10
301.489532
 20
103.383522
 30
0.0
 11
301.489532
 21
195.38353
 31
0.0
  0
ARC
  5
74
330
A
100
AcDbEntity
  8
0
 62
     7
370
    35
390
1D
100
AcDbCircle
 10
300.822876
 20
195.38353
 30
0.0
 40
0.666667
100
AcDbArc
 50
0.0
 51
90.000003
  0
LINE
  5
75
330
A
100
AcDbEntity
  8
0
 62
     7
 48
0.316667
370
    35
390
1D
100
AcDbLine
 10
300.822876
 20
196.050201
 30
0.0
 11
288.156189
 21
196.050201
 31
0.0
  0
LINE
  5
76
330
A
100
AcDbEntity
  8
0
 62
     7
 48
0.034695
370
    35
390
1D
100
AcDbLine
 10
167.822861
 20
197.577423
 30
0.0
 11
167.822861
 21
196.189636
 31
0.0
  0
LINE
  5
77
330
A
100
AcDbEntity
  8
0
 62
     7
 48
0.195153
370
    35
390
1D
100
AcDbLine
 10
167.822861
 20
205.38353
 30
0.0
 11
167.822861
 21
197.577423
 31
0.0
  0
LINE
  5
78
330
A
100
AcDbEntity
  8
0
 62
     7
 48
0.195153
370
    35
390
1D
100
AcDbLine
 10
174.489532
 20
197.577423
 30
0.0
 11
174.489532
 21
205.38353
 31
0.0
  0
ARC
  5
79
330
A
100
AcDbEntity
  8
0
 62
     7
370
    35
390
1D
100
AcDbCircle
 10
173.822861
 20
205.38353
 30
0.0
 40
0.666667
100
AcDbArc
 50
0.0
 51
90.000003
  0
LINE
  5
7A
330
A
100
AcDbEntity
  8
0
 62
     7
 48
0.133333
370
    35
390
1D
100
AcDbLine
 10
173.822861
 20
206.050201
 30
0.0
 11
168.489532
 21
206.050201
 31
0.0
  0
ARC
  5
7B
330
A
100
AcDbEntity
  8
0
 62
     7
370
    35
390
1D
100
AcDbCircle
 10
168.489532
 20
205.38353
 30
0.0
 40
0.666667
100
AcDbArc
 50
90.000003
 51
180.000005
  0
LINE
  5
7C
330
A
100
AcDbEntity
  8
0
 62
     7
 48
0.034695
370
    35
390
1D
100
AcDbLine
 10
174.489532
 20
196.189636
 30
0.0
 11
174.489532
 21
197.577423
 31
0.0
  0
VIEWPORT
  5
7D
330
B
100
AcDbEntity
 67
     1
  8
0
 62
     0
 48
0.0
370
     0
390
1D
100
AcDbViewport
 10
0.0
 20
0.0
 30
0.0
 40
1000.0
 41
1000.0
 68
     1
 69
     1
 12
0.0
 22
0.0
 13
0.0
 23
0.0
 14
1.0
 24
1.0
 15
1.0
 25
1.0
 16
0.0
 26
0.0
 36
1.0
 17
0.0
 27
0.0
 37
0.0
 42
50.0
 43
0.0
 44
0.0
 45
1000.0
 50
0.0
 51
0.0
 72
   100
 90
        0
  1

281
     0
 71
     0
 74
     1
110
0.0
120
0.0
130
0.0
111
1.0
121
0.0
131
0.0
112
0.0
122
1.0
132
0.0
 79
     0
146
0.0
170
     0
 61
     5
292
     1
282
     1
141
0.0
142
0.0
 63
   256
  0
ENDSEC
  0
SECTION
  2
OBJECTS
  0
DICTIONARY
  5
19
330
0
100
AcDbDictionary
281
     1
  3
ACAD_GROUP
350
1A
  3
ACAD_LAYOUT
350
1E
  3
ACAD_MLEADERSTYLE
350
A1
  3
ACAD_MLINESTYLE
350
1B
  3
ACAD_PLOTSETTINGS
350
22
  3
ACAD_PLOTSTYLENAME
350
1F
  3
ACAD_SCALELIST
350
7E
  3
ACAD_TABLESTYLE
350
A0
  3
ACAD_WIPEOUT_VARS
350
23
  3
AcDbVariableDictionary
350
A2
  0
DICTIONARY
  5
1A
102
{ACAD_REACTORS
330
19
102
}
330
19
100
AcDbDictionary
281
     1
  0
DICTIONARY
  5
1E
102
{ACAD_REACTORS
330
19
102
}
330
19
100
AcDbDictionary
281
     1
  3
Layout1
350
21
  3
Model
350
20
  0
DICTIONARY
  5
A1
102
{ACAD_REACTORS
330
19
102
}
330
19
100
AcDbDictionary
281
     1
  0
DICTIONARY
  5
1B
102
{ACAD_REACTORS
330
19
102
}
330
19
100
AcDbDictionary
281
     1
  3
Standard
350
1C
  0
DICTIONARY
  5
22
102
{ACAD_REACTORS
330
19
102
}
330
19
100
AcDbDictionary
281
     1
  0
ACDBDICTIONARYWDFLT
  5
1F
102
{ACAD_REACTORS
330
19
102
}
330
19
100
AcDbDictionary
281
     1
  3
Normal
350
1D
100
AcDbDictionaryWithDefault
340
1D
  0
DICTIONARY
  5
7E
102
{ACAD_REACTORS
330
19
102
}
330
19
100
AcDbDictionary
281
     1
  3
A0
350
7F
  3
A1
350
80
  3
A2
350
81
  3
A3
350
82
  3
A4
350
83
  3
A5
350
84
  3
A6
350
85
  3
A7
350
86
  3
A8
350
87
  3
A9
350
88
  3
B0
350
89
  3
B1
350
8A
  3
B2
350
8B
  3
B3
350
8C
  3
B4
350
8D
  3
B5
350
8E
  3
B6
350
8F
  3
B7
350
90
  3
B8
350
91
  3
B9
350
92
  3
C0
350
93
  3
C1
350
94
  3
C2
350
95
  3
C3
350
96
  3
C4
350
97
  3
C5
350
98
  3
C6
350
99
  3
C7
350
9A
  3
C8
350
9B
  3
C9
350
9C
  3
D0
350
9D
  3
D1
350
9E
  3
D2
350
9F
  0
DICTIONARY
  5
A0
102
{ACAD_REACTORS
330
19
102
}
330
19
100
AcDbDictionary
281
     1
  0
WIPEOUTVARIABLES
  5
23
330
19
100
AcDbWipeoutVariables
 70
     1
  0
DICTIONARY
  5
A2
102
{ACAD_REACTORS
330
19
102
}
330
19
100
AcDbDictionary
281
     1
  3
CANNOSCALE
350
A3
  0
LAYOUT
  5
21
102
{ACAD_REACTORS
330
1E
102
}
330
1E
100
AcDbPlotSettings
  1

  2

  4

  6

 40
0.0
 41
0.0
 42
0.0
 43
0.0
 44
0.0
 45
0.0
 46
0.0
 47
0.0
 48
0.0
 49
0.0
140
0.0
141
0.0
142
1.0
143
1.0
 70
     0
 72
     0
 73
     0
 74
     0
  7

 75
     0
 76
     0
 77
     2
 78
   300
147
1.0
148
0.0
149
0.0
100
AcDbLayout
  1
Layout1
 70
     0
 71
     0
 10
0.0
 20
0.0
 11
0.0
 21
0.0
 12
0.0
 22
0.0
 32
0.0
 14
0.0
 24
0.0
 34
0.0
 15
0.0
 25
0.0
 35
0.0
146
0.0
 13
0.0
 23
0.0
 33
0.0
 16
0.0
 26
0.0
 36
0.0
 17
0.0
 27
0.0
 37
0.0
 76
     0
330
B
331
7D
  0
LAYOUT
  5
20
102
{ACAD_REACTORS
330
1E
102
}
330
1E
100
AcDbPlotSettings
  1

  2

  4

  6

 40
0.0
 41
0.0
 42
0.0
 43
0.0
 44
0.0
 45
0.0
 46
0.0
 47
0.0
 48
0.0
 49
0.0
140
0.0
141
0.0
142
1.0
143
1.0
 70
  1024
 72
     0
 73
     0
 74
     0
  7

 75
     0
 76
     0
 77
     2
 78
   300
147
1.0
148
0.0
149
0.0
100
AcDbLayout
  1
Model
 70
     0
 71
     0
 10
0.0
 20
0.0
 11
0.0
 21
0.0
 12
0.0
 22
0.0
 32
0.0
 14
0.0
 24
0.0
 34
0.0
 15
0.0
 25
0.0
 35
0.0
146
0.0
 13
0.0
 23
0.0
 33
0.0
 16
0.0
 26
0.0
 36
0.0
 17
0.0
 27
0.0
 37
0.0
 76
     0
330
A
331
15
  0
MLINESTYLE
  5
1C
102
{ACAD_REACTORS
330
1B
102
}
330
1B
100
AcDbMlineStyle
  2
Standard
 70
     0
  3

 62
     0
 51
90.0
 52
90.0
 71
     2
 49
0.5
 62
   256
  6
BYLAYER
 49
-0.5
 62
   256
  6
BYLAYER
  0
ACDBPLACEHOLDER
  5
1D
102
{ACAD_REACTORS
330
1F
102
}
330
1F
  0
SCALE
  5
7F
102
{ACAD_REACTORS
330
7E
102
}
330
7E
100
AcDbScale
 70
     0
300
1:1
140
1.0
141
1.0
290
     1
  0
SCALE
  5
80
102
{ACAD_REACTORS
330
7E
102
}
330
7E
100
AcDbScale
 70
     0
300
1:2
140
1.0
141
2.0
290
     0
  0
SCALE
  5
81
102
{ACAD_REACTORS
330
7E
102
}
330
7E
100
AcDbScale
 70
     0
300
1:4
140
1.0
141
4.0
290
     0
  0
SCALE
  5
82
102
{ACAD_REACTORS
330
7E
102
}
330
7E
100
AcDbScale
 70
     0
300
1:5
140
1.0
141
5.0
290
     0
  0
SCALE
  5
83
102
{ACAD_REACTORS
330
7E
102
}
330
7E
100
AcDbScale
 70
     0
300
1:8
140
1.0
141
8.0
290
     0
  0
SCALE
  5
84
102
{ACAD_REACTORS
330
7E
102
}
330
7E
100
AcDbScale
 70
     0
300
1:10
140
1.0
141
10.0
290
     0
  0
SCALE
  5
85
102
{ACAD_REACTORS
330
7E
102
}
330
7E
100
AcDbScale
 70
     0
300
1:16
140
1.0
141
16.0
290
     0
  0
SCALE
  5
86
102
{ACAD_REACTORS
330
7E
102
}
330
7E
100
AcDbScale
 70
     0
300
1:20
140
1.0
141
20.0
290
     0
  0
SCALE
  5
87
102
{ACAD_REACTORS
330
7E
102
}
330
7E
100
AcDbScale
 70
     0
300
1:30
140
1.0
141
30.0
290
     0
  0
SCALE
  5
88
102
{ACAD_REACTORS
330
7E
102
}
330
7E
100
AcDbScale
 70
     0
300
1:40
140
1.0
141
40.0
290
     0
  0
SCALE
  5
89
102
{ACAD_REACTORS
330
7E
102
}
330
7E
100
AcDbScale
 70
     0
300
1:50
140
1.0
141
50.0
290
     0
  0
SCALE
  5
8A
102
{ACAD_REACTORS
330
7E
102
}
330
7E
100
AcDbScale
 70
     0
300
1:100
140
1.0
141
100.0
290
     0
  0
SCALE
  5
8B
102
{ACAD_REACTORS
330
7E
102
}
330
7E
100
AcDbScale
 70
     0
300
2:1
140
2.0
141
1.0
290
     0
  0
SCALE
  5
8C
102
{ACAD_REACTORS
330
7E
102
}
330
7E
100
AcDbScale
 70
     0
300
4:1
140
4.0
141
1.0
290
     0
  0
SCALE
  5
8D
102
{ACAD_REACTORS
330
7E
102
}
330
7E
100
AcDbScale
 70
     0
300
8:1
140
8.0
141
1.0
290
     0
  0
SCALE
  5
8E
102
{ACAD_REACTORS
330
7E
102
}
330
7E
100
AcDbScale
 70
     0
300
10:1
140
10.0
141
1.0
290
     0
  0
SCALE
  5
8F
102
{ACAD_REACTORS
330
7E
102
}
330
7E
100
AcDbScale
 70
     0
300
100:1
140
100.0
141
1.0
290
     0
  0
SCALE
  5
90
102
{ACAD_REACTORS
330
7E
102
}
330
7E
100
AcDbScale
 70
     0
300
1/128" = 1'-0"
140
0.0078125
141
12.0
290
     0
  0
SCALE
  5
91
102
{ACAD_REACTORS
330
7E
102
}
330
7E
100
AcDbScale
 70
     0
300
1/64" = 1'-0"
140
0.015625
141
12.0
290
     0
  0
SCALE
  5
92
102
{ACAD_REACTORS
330
7E
102
}
330
7E
100
AcDbScale
 70
     0
300
1/32" = 1'-0"
140
0.03125
141
12.0
290
     0
  0
SCALE
  5
93
102
{ACAD_REACTORS
330
7E
102
}
330
7E
100
AcDbScale
 70
     0
300
1/16" = 1'-0"
140
0.0625
141
12.0
290
     0
  0
SCALE
  5
94
102
{ACAD_REACTORS
330
7E
102
}
330
7E
100
AcDbScale
 70
     0
300
3/32" = 1'-0"
140
0.09375
141
12.0
290
     0
  0
SCALE
  5
95
102
{ACAD_REACTORS
330
7E
102
}
330
7E
100
AcDbScale
 70
     0
300
1/8" = 1'-0"
140
0.125
141
12.0
290
     0
  0
SCALE
  5
96
102
{ACAD_REACTORS
330
7E
102
}
330
7E
100
AcDbScale
 70
     0
300
3/16" = 1'-0"
140
0.1875
141
12.0
290
     0
  0
SCALE
  5
97
102
{ACAD_REACTORS
330
7E
102
}
330
7E
100
AcDbScale
 70
     0
300
1/4" = 1'-0"
140
0.25
141
12.0
290
     0
  0
SCALE
  5
98
102
{ACAD_REACTORS
330
7E
102
}
330
7E
100
AcDbScale
 70
     0
300
3/8" = 1'-0"
140
0.375
141
12.0
290
     0
  0
SCALE
  5
99
102
{ACAD_REACTORS
330
7E
102
}
330
7E
100
AcDbScale
 70
     0
300
1/2" = 1'-0"
140
0.5
141
12.0
290
     0
  0
SCALE
  5
9A
102
{ACAD_REACTORS
330
7E
102
}
330
7E
100
AcDbScale
 70
     0
300
3/4" = 1'-0"
140
0.75
141
12.0
290
     0
  0
SCALE
  5
9B
102
{ACAD_REACTORS
330
7E
102
}
330
7E
100
AcDbScale
 70
     0
300
1" = 1'-0"
140
1.0
141
12.0
290
     0
  0
SCALE
  5
9C
102
{ACAD_REACTORS
330
7E
102
}
330
7E
100
AcDbScale
 70
     0
300
1-1/2" = 1'-0"
140
1.5
141
12.0
290
     0
  0
SCALE
  5
9D
102
{ACAD_REACTORS
330
7E
102
}
330
7E
100
AcDbScale
 70
     0
300
3" = 1'-0"
140
3.0
141
12.0
290
     0
  0
SCALE
  5
9E
102
{ACAD_REACTORS
330
7E
102
}
330
7E
100
AcDbScale
 70
     0
300
6" = 1'-0"
140
6.0
141
12.0
290
     0
  0
SCALE
  5
9F
102
{ACAD_REACTORS
330
7E
102
}
330
7E
100
AcDbScale
 70
     0
300
1'-0" = 1'-0"
140
12.0
141
12.0
290
     0
  0
DICTIONARYVAR
  5
A3
102
{ACAD_REACTORS
330
A2
102
}
330
A2
100
DictionaryVariables
280
     0
  1
1:1
  0
ENDSEC
  0
EOF
