  0
SECTION
  2
HEADER
  9
$ACADVER
  1
AC1021
  9
$ACADMAINTVER
 70
    25
  9
$DWGCODEPAGE
  3
ANSI_1252
  9
$INSBASE
 10
0.0
 20
0.0
 30
0.0
  9
$EXTMIN
 10
0.0
 20
0.0
 30
0.0
  9
$EXTMAX
 10
326.092224
 20
191.460083
 30
2.0
  9
$LIMMIN
 10
0.0
 20
0.0
  9
$LIMMAX
 10
420.0
 20
297.0
  9
$ORTHOMODE
 70
     0
  9
$REGENMODE
 70
     1
  9
$FILLMODE
 70
     1
  9
$QTEXTMODE
 70
     0
  9
$MIRRTEXT
 70
     1
  9
$LTSCALE
 40
1.0
  9
$ATTMODE
 70
     1
  9
$TEXTSIZE
 40
2.5
  9
$TRACEWID
 40
1.0
  9
$TEXTSTYLE
  7
Standard
  9
$CLAYER
  8
0
  9
$CELTYPE
  6
ByLayer
  9
$CECOLOR
 62
   256
  9
$CELTSCALE
 40
1.0
  9
$DISPSILH
 70
     0
  9
$DIMSCALE
 40
1.0
  9
$DIMASZ
 40
2.5
  9
$DIMEXO
 40
0.625
  9
$DIMDLI
 40
3.75
  9
$DIMRND
 40
0.0
  9
$DIMDLE
 40
0.0
  9
$DIMEXE
 40
1.25
  9
$DIMTP
 40
0.0
  9
$DIMTM
 40
0.0
  9
$DIMTXT
 40
2.5
  9
$DIMCEN
 40
2.5
  9
$DIMTSZ
 40
0.0
  9
$DIMTOL
 70
     0
  9
$DIMLIM
 70
     0
  9
$DIMTIH
 70
     0
  9
$DIMTOH
 70
     0
  9
$DIMSE1
 70
     0
  9
$DIMSE2
 70
     0
  9
$DIMTAD
 70
     1
  9
$DIMZIN
 70
     8
  9
$DIMBLK
  1

  9
$DIMASO
 70
     1
  9
$DIMSHO
 70
     1
  9
$DIMPOST
  1

  9
$DIMAPOST
  1

  9
$DIMALT
 70
     0
  9
$DIMALTD
 70
     3
  9
$DIMALTF
 40
0.03937
  9
$DIMLFAC
 40
1.0
  9
$DIMTOFL
 70
     1
  9
$DIMTVP
 40
0.0
  9
$DIMTIX
 70
     0
  9
$DIMSOXD
 70
     0
  9
$DIMSAH
 70
     0
  9
$DIMBLK1
  1

  9
$DIMBLK2
  1

  9
$DIMSTYLE
  2
Standard
  9
$DIMCLRD
 70
     0
  9
$DIMCLRE
 70
     0
  9
$DIMCLRT
 70
     0
  9
$DIMTFAC
 40
1.0
  9
$DIMGAP
 40
0.625
  9
$DIMJUST
 70
     0
  9
$DIMSD1
 70
     0
  9
$DIMSD2
 70
     0
  9
$DIMTOLJ
 70
     0
  9
$DIMTZIN
 70
     8
  9
$DIMALTZ
 70
     0
  9
$DIMALTTZ
 70
     0
  9
$DIMUPT
 70
     0
  9
$DIMDEC
 70
     2
  9
$DIMTDEC
 70
     2
  9
$DIMALTU
 70
     2
  9
$DIMALTTD
 70
     3
  9
$DIMTXSTY
  7
Standard
  9
$DIMAUNIT
 70
     0
  9
$DIMADEC
 70
     0
  9
$DIMALTRND
 40
0.0
  9
$DIMAZIN
 70
     0
  9
$DIMDSEP
 70
    44
  9
$DIMATFIT
 70
     0
  9
$DIMFRAC
 70
     0
  9
$DIMLDRBLK
  1

  9
$DIMLUNIT
 70
     2
  9
$DIMLWD
 70
    -2
  9
$DIMLWE
 70
    -2
  9
$DIMTMOVE
 70
     0
  9
$DIMFXL
 40
1.0
  9
$DIMFXLON
 70
     0
  9
$DIMJOGANG
 40
0.7853981633974483
  9
$DIMTFILL
 70
     0
  9
$DIMTFILLCLR
 70
     0
  9
$DIMARCSYM
 70
     0
  9
$DIMLTYPE
  6

  9
$DIMLTEX1
  6

  9
$DIMLTEX2
  6

  9
$LUNITS
 70
     2
  9
$LUPREC
 70
     4
  9
$SKETCHINC
 40
1.0
  9
$FILLETRAD
 40
2.5
  9
$AUNITS
 70
     0
  9
$AUPREC
 70
     0
  9
$MENU
  1
.
  9
$ELEVATION
 40
0.0
  9
$PELEVATION
 40
0.0
  9
$THICKNESS
 40
0.0
  9
$LIMCHECK
 70
     0
  9
$CHAMFERA
 40
2.5
  9
$CHAMFERB
 40
2.5
  9
$CHAMFERC
 40
0.0
  9
$CHAMFERD
 40
0.0
  9
$SKPOLY
 70
     0
  9
$TDCREATE
 40
2447893.041666667
  9
$TDUCREATE
 40
0.0
  9
$TDUPDATE
 40
2447893.041666667
  9
$TDUUPDATE
 40
0.0
  9
$TDINDWG
 40
0.0
  9
$TDUSRTIMER
 40
0.0
  9
$USRTIMER
 70
     1
  9
$ANGBASE
 50
0.0
  9
$ANGDIR
 70
     0
  9
$PDMODE
 70
     0
  9
$PDSIZE
 40
0.0
  9
$PLINEWID
 40
0.0
  9
$SPLFRAME
 70
     0
  9
$SPLINETYPE
 70
     6
  9
$SPLINESEGS
 70
     8
  9
$HANDSEED
  5
14E
  9
$SURFTAB1
 70
     6
  9
$SURFTAB2
 70
     6
  9
$SURFTYPE
 70
     6
  9
$SURFU
 70
     6
  9
$SURFV
 70
     6
  9
$UCSBASE
  2

  9
$UCSNAME
  2

  9
$UCSORG
 10
0.0
 20
0.0
 30
0.0
  9
$UCSXDIR
 10
1.0
 20
0.0
 30
0.0
  9
$UCSYDIR
 10
0.0
 20
1.0
 30
0.0
  9
$UCSORTHOREF
  2

  9
$UCSORTHOVIEW
 70
     1
  9
$UCSORGTOP
 10
0.0
 20
0.0
 30
0.0
  9
$UCSORGBOTTOM
 10
0.0
 20
0.0
 30
0.0
  9
$UCSORGLEFT
 10
0.0
 20
0.0
 30
0.0
  9
$UCSORGRIGHT
 10
0.0
 20
0.0
 30
0.0
  9
$UCSORGFRONT
 10
0.0
 20
0.0
 30
0.0
  9
$UCSORGBACK
 10
0.0
 20
0.0
 30
0.0
  9
$PUCSBASE
  2

  9
$PUCSNAME
  2

  9
$PUCSORG
 10
0.0
 20
0.0
 30
0.0
  9
$PUCSXDIR
 10
1.0
 20
0.0
 30
0.0
  9
$PUCSYDIR
 10
0.0
 20
1.0
 30
0.0
  9
$PUCSORTHOREF
  2

  9
$PUCSORTHOVIEW
 70
     0
  9
$PUCSORGTOP
 10
0.0
 20
0.0
 30
0.0
  9
$PUCSORGBOTTOM
 10
0.0
 20
0.0
 30
0.0
  9
$PUCSORGLEFT
 10
0.0
 20
0.0
 30
0.0
  9
$PUCSORGRIGHT
 10
0.0
 20
0.0
 30
0.0
  9
$PUCSORGFRONT
 10
0.0
 20
0.0
 30
0.0
  9
$PUCSORGBACK
 10
0.0
 20
0.0
 30
0.0
  9
$USERI1
 70
     0
  9
$USERI2
 70
     0
  9
$USERI3
 70
     0
  9
$USERI4
 70
     0
  9
$USERI5
 70
     0
  9
$USERR1
 40
0.0
  9
$USERR2
 40
0.0
  9
$USERR3
 40
0.0
  9
$USERR4
 40
0.0
  9
$USERR5
 40
0.0
  9
$WORLDVIEW
 70
     1
  9
$SHADEDGE
 70
     3
  9
$SHADEDIF
 70
    70
  9
$TILEMODE
 70
     1
  9
$MAXACTVP
 70
    48
  9
$PINSBASE
 10
0.0
 20
0.0
 30
0.0
  9
$PLIMCHECK
 70
     0
  9
$PEXTMIN
 10
0.0
 20
0.0
 30
0.0
  9
$PEXTMAX
 10
326.092224
 20
191.460083
 30
2.0
  9
$PLIMMIN
 10
0.0
 20
0.0
  9
$PLIMMAX
 10
420.0
 20
297.0
  9
$UNITMODE
 70
     0
  9
$VISRETAIN
 70
     0
  9
$PLINEGEN
 70
     0
  9
$PSLTSCALE
 70
     1
  9
$TREEDEPTH
 70
  3020
  9
$CMLSTYLE
  2
Standard
  9
$CMLJUST
 70
     0
  9
$CMLSCALE
 40
20.0
  9
$PROXYGRAPHICS
 70
     1
  9
$MEASUREMENT
 70
     1
  9
$CELWEIGHT
370
    -1
  9
$ENDCAPS
280
     0
  9
$JOINSTYLE
280
     0
  9
$LWDISPLAY
290
     0
  9
$INSUNITS
 70
     0
  9
$HYPERLINKBASE
  1

  9
$STYLESHEET
  1

  9
$XEDIT
290
     1
  9
$CEPSNTYPE
380
     0
  9
$PSTYLEMODE
290
     0
  9
$FINGERPRINTGUID
  2

  9
$VERSIONGUID
  2

  9
$EXTNAMES
290
     0
  9
$PSVPSCALE
 40
0.0
  9
$OLESTARTUP
290
     0
  9
$SORTENTS
280
   127
  9
$INDEXCTL
280
     0
  9
$HIDETEXT
280
     1
  9
$XCLIPFRAME
290
     0
  9
$HALOGAP
280
     0
  9
$OBSCOLOR
 70
   257
  9
$OBSLTYPE
280
     0
  9
$INTERSECTIONDISPLAY
280
     0
  9
$INTERSECTIONCOLOR
 70
   257
  9
$DIMASSOC
280
     2
  9
$PROJECTNAME
  1

  9
$CAMERADISPLAY
290
     0
  9
$LENSLENGTH
 40
50.0
  9
$CAMERAHEIGHT
 40
0.0
  9
$STEPSPERSEC
 40
2.0
  9
$STEPSIZE
 40
6.0
  9
$3DDWFPREC
 40
2.0
  9
$PSOLWIDTH
 40
0.25
  9
$PSOLHEIGHT
 40
4.0
  9
$LOFTANG1
 40
1.570796326794897
  9
$LOFTANG2
 40
1.570796326794897
  9
$LOFTMAG1
 40
0.0
  9
$LOFTMAG2
 40
0.0
  9
$LOFTPARAM
 70
     7
  9
$LOFTNORMALS
280
     1
  9
$LATITUDE
 40
37.795
  9
$LONGITUDE
 40
-122.394
  9
$NORTHDIRECTION
 40
0.0
  9
$TIMEZONE
 70
 -8000
  9
$LIGHTGLYPHDISPLAY
280
     1
  9
$TILEMODELIGHTSYNCH
280
     1
  9
$SOLIDHIST
280
     1
  9
$SHOWHIST
280
     1
  9
$DWFFRAME
280
     2
  9
$DGNFRAME
280
     2
  9
$REALWORLDSCALE
290
     1
  9
$INTERFERECOLOR
 62
   256
  9
$CSHADOW
280
     0
  9
$SHADOWPLANELOCATION
 40
0.0
  0
ENDSEC
  0
SECTION
  2
CLASSES
  0
CLASS
  1
LWPOLYLINE
  2
AcDbPolyline
  3
AutoCAD 2000
 90
        0
 91
        1
280
     0
281
     1
  0
CLASS
  1
IMAGE
  2
AcDbRasterImage
  3
ISM
 90
      127
 91
        5
280
     0
281
     1
  0
CLASS
  1
OLE2FRAME
  2
AcDbOle2Frame
  3
AutoCAD 2000
 90
        0
 91
        1
280
     0
281
     1
  0
CLASS
  1
HATCH
  2
AcDbHatch
  3
AutoCAD 2000
 90
        0
 91
        1
280
     0
281
     1
  0
CLASS
  1
DICTIONARYVAR
  2
AcDbDictionaryVar
  3
ObjectDBX Classes
 90
        0
 91
        4
280
     0
281
     0
  0
CLASS
  1
RASTERVARIABLES
  2
AcDbRasterVariables
  3
ISM
 90
        0
 91
        4
280
     0
281
     0
  0
CLASS
  1
IMAGEDEF
  2
AcDbRasterImageDef
  3
ISM
 90
        0
 91
        4
280
     0
281
     0
  0
CLASS
  1
IMAGEDEF_REACTOR
  2
AcDbRasterImageDefReactor
  3
ISM
 90
        1
 91
        4
280
     0
281
     0
  0
CLASS
  1
IDBUFFER
  2
AcDbIdBuffer
  3
ObjectDBX Classes
 90
        0
 91
        4
280
     0
281
     0
  0
CLASS
  1
SPATIAL_FILTER
  2
AcDbSpatialFilter
  3
ObjectDBX Classes
 90
        0
 91
        4
280
     0
281
     0
  0
CLASS
  1
XRECORD
  2
AcDbXrecord
  3
AutoCAD 2000
 90
        0
 91
        1
280
     0
281
     0
  0
CLASS
  1
SORTENTSTABLE
  2
AcDbSortentsTable
  3
ObjectDBX Classes
 90
        0
 91
        4
280
     0
281
     0
  0
CLASS
  1
LAYER_INDEX
  2
AcDbLayerIndex
  3
ObjectDBX Classes
 90
        0
 91
        4
280
     0
281
     0
  0
CLASS
  1
SPATIAL_INDEX
  2
AcDbSpatialIndex
  3
AutoCAD 2000
 90
        0
 91
        4
280
     0
281
     0
  0
CLASS
  1
OBJECT_PTR
  2
CAseDLPNTableRecord
  3
ASE-LPNTableRecord
 90
        1
 91
        4
280
     0
281
     0
  0
CLASS
  1
LAYOUT
  2
AcDbLayout
  3
ObjectDBX Classes
 90
        0
 91
        1
280
     0
281
     0
  0
CLASS
  1
PLOTSETTINGS
  2
AcDbPlotSettings
  3
ObjectDBX Classes
 90
        0
 91
        4
280
     0
281
     0
  0
CLASS
  1
ACDBDICTIONARYWDFLT
  2
AcDbDictionaryWithDefault
  3
ObjectDBX Classes
 90
        0
 91
        4
280
     0
281
     0
  0
CLASS
  1
ACDBPLACEHOLDER
  2
AcDbPlaceHolder
  3
ObjectDBX Classes
 90
        0
 91
        1
280
     0
281
     0
  0
CLASS
  1
VBA_PROJECT
  2
AcDbVbaProject
  3
ObjectDBX Classes
 90
        0
 91
        1
280
     0
281
     0
  0
CLASS
  1
WIPEOUT
  2
AcDbWipeout
  3
WipeOut|AutoCAD Express Tool|expresstools@autodesk.com
 90
      127
 91
        4
280
     0
281
     1
  0
CLASS
  1
WIPEOUTVARIABLES
  2
AcDbWipeoutVariables
  3
WipeOut|AutoCAD Express Tool|expresstools@autodesk.com
 90
        0
 91
        4
280
     0
281
     0
  0
CLASS
  1
RTEXT
  2
RText
  3
RText|AutoCAD Express Tool|expresstools@autodesk.com
 90
        0
 91
        4
280
     0
281
     1
  0
CLASS
  1
ARCALIGNEDTEXT
  2
AcDbArcAlignedText
  3
ATEXT|AutoCAD Express Tool|expresstools@autodesk.com
 90
        0
 91
        4
280
     0
281
     1
  0
CLASS
  1
SCALE
  2
AcDbScale
  3
ObjectDBX Classes
 90
     1153
 91
        4
280
     0
281
     0
  0
ENDSEC
  0
SECTION
  2
TABLES
  0
TABLE
  2
VPORT
  5
7
330
0
100
AcDbSymbolTable
 70
     1
  0
VPORT
  5
15
330
7
100
AcDbSymbolTableRecord
100
AcDbViewportTableRecord
  2
*ACTIVE
 70
     0
 10
0.0
 20
0.0
 11
1.0
 21
1.0
 12
6.591288
 22
4.579184
 13
0.0
 23
0.0
 14
1.0
 24
1.0
 15
0.0
 25
0.0
 16
0.0
 26
0.0
 36
1.0
 17
0.0
 27
0.0
 37
0.0
 40
9.158369
 41
0.688564
 42
50.0
 43
0.0
 44
0.0
 50
0.0
 51
0.0
 71
     0
 72
   100
 73
     1
 74
     1
 75
     0
 76
     0
 77
     0
 78
     0
281
     0
 65
     0
110
0.0
120
0.0
130
0.0
111
1.0
121
0.0
131
0.0
112
0.0
122
1.0
132
0.0
 79
     0
146
0.0
 60
     3
 61
     5
292
     1
282
     1
141
0.0
142
0.0
 63
   256
  0
ENDTAB
  0
TABLE
  2
LTYPE
  5
4
330
0
100
AcDbSymbolTable
 70
     1
  0
LTYPE
  5
11
330
4
100
AcDbSymbolTableRecord
100
AcDbLinetypeTableRecord
  2
ByBlock
 70
     0
  3

 72
    65
 73
     0
 40
0.0
  0
LTYPE
  5
12
330
4
100
AcDbSymbolTableRecord
100
AcDbLinetypeTableRecord
  2
ByLayer
 70
     0
  3

 72
    65
 73
     0
 40
0.0
  0
LTYPE
  5
13
330
4
100
AcDbSymbolTableRecord
100
AcDbLinetypeTableRecord
  2
Continuous
 70
     0
  3
Solid line
 72
    65
 73
     0
 40
0.0
  0
ENDTAB
  0
TABLE
  2
LAYER
  5
2
330
0
100
AcDbSymbolTable
 70
     1
  0
LAYER
  5
14
330
2
100
AcDbSymbolTableRecord
100
AcDbLayerTableRecord
  2
0
 70
     0
 62
     7
  6
Continuous
370
    -3
390
1D
347
0
  0
ENDTAB
  0
TABLE
  2
STYLE
  5
3
330
0
100
AcDbSymbolTable
 70
     1
  0
STYLE
  5
17
330
3
100
AcDbSymbolTableRecord
100
AcDbTextStyleTableRecord
  2
Standard
 70
     0
 40
0.0
 41
1.0
 50
0.0
 71
     0
 42
2.5
  3
txt
  4

  0
ENDTAB
  0
TABLE
  2
VIEW
  5
5
330
0
100
AcDbSymbolTable
 70
     0
  0
ENDTAB
  0
TABLE
  2
UCS
  5
6
330
0
100
AcDbSymbolTable
 70
     0
  0
ENDTAB
  0
TABLE
  2
APPID
  5
8
330
0
100
AcDbSymbolTable
 70
     1
  0
APPID
  5
16
330
8
100
AcDbSymbolTableRecord
100
AcDbRegAppTableRecord
  2
ACAD
 70
     0
  0
ENDTAB
  0
TABLE
  2
DIMSTYLE
  5
9
330
0
100
AcDbSymbolTable
 70
     1
100
AcDbDimStyleTable
  0
DIMSTYLE
105
18
330
9
100
AcDbSymbolTableRecord
100
AcDbDimStyleTableRecord
  2
Standard
 70
     0
340
17
  0
ENDTAB
  0
TABLE
  2
BLOCK_RECORD
  5
1
330
0
100
AcDbSymbolTable
 70
     0
  0
BLOCK_RECORD
  5
A
330
1
100
AcDbSymbolTableRecord
100
AcDbBlockTableRecord
  2
*MODEL_SPACE
340
20
 70
     0
280
     1
281
     0
  0
BLOCK_RECORD
  5
B
330
1
100
AcDbSymbolTableRecord
100
AcDbBlockTableRecord
  2
*PAPER_SPACE
340
21
 70
     0
280
     1
281
     0
  0
ENDTAB
  0
ENDSEC
  0
SECTION
  2
BLOCKS
  0
BLOCK
  5
D
330
A
100
AcDbEntity
  8
0
390
1D
100
AcDbBlockBegin
  2
*MODEL_SPACE
 70
     0
 10
0.0
 20
0.0
 30
0.0
  3
*MODEL_SPACE
  1

  0
ENDBLK
  5
E
330
A
100
AcDbEntity
  8
0
390
1D
100
AcDbBlockEnd
  0
BLOCK
  5
F
330
B
100
AcDbEntity
 67
     1
  8
0
390
1D
100
AcDbBlockBegin
  2
*PAPER_SPACE
 70
     0
 10
0.0
 20
0.0
 30
0.0
  3
*PAPER_SPACE
  1

  0
ENDBLK
  5
10
330
B
100
AcDbEntity
 67
     1
  8
0
390
1D
100
AcDbBlockEnd
  0
ENDSEC
  0
SECTION
  2
ENTITIES
  0
POLYLINE
  5
24
330
A
100
AcDbEntity
  8
0
 62
     7
370
    13
390
1D
100
AcDb2dPolyline
 66
     1
 10
0.0
 20
0.0
 30
0.0
 70
     1
  0
VERTEX
  5
25
330
24
100
AcDbEntity
  8
0
 62
     7
370
     0
390
1D
100
AcDbVertex
100
AcDb2dVertex
 10
206.68425
 20
186.934875
 30
0.0
  0
VERTEX
  5
26
330
24
100
AcDbEntity
  8
0
 62
     7
370
     0
390
1D
100
AcDbVertex
100
AcDb2dVertex
 10
207.138138
 20
186.934875
 30
0.0
  0
VERTEX
  5
27
330
24
100
AcDbEntity
  8
0
 62
     7
370
     0
390
1D
100
AcDbVertex
100
AcDb2dVertex
 10
207.138138
 20
187.802307
 30
0.0
  0
VERTEX
  5
28
330
24
100
AcDbEntity
  8
0
 62
     7
370
     0
390
1D
100
AcDbVertex
100
AcDb2dVertex
 10
207.637421
 20
187.802307
 30
0.0
  0
VERTEX
  5
29
330
24
100
AcDbEntity
  8
0
 62
     7
370
     0
390
1D
100
AcDbVertex
100
AcDb2dVertex
 10
207.637421
 20
188.205765
 30
0.0
  0
VERTEX
  5
2A
330
24
100
AcDbEntity
  8
0
 62
     7
370
     0
390
1D
100
AcDbVertex
100
AcDb2dVertex
 10
207.138138
 20
188.205765
 30
0.0
  0
VERTEX
  5
2B
330
24
100
AcDbEntity
  8
0
 62
     7
370
     0
390
1D
100
AcDbVertex
100
AcDb2dVertex
 10
207.138138
 20
190.359222
 30
0.0
  0
VERTEX
  5
2C
330
24
100
AcDbEntity
  8
0
 62
     7
370
     0
390
1D
100
AcDbVertex
100
AcDb2dVertex
 10
206.679199
 20
190.359222
 30
0.0
  0
VERTEX
  5
2D
330
24
100
AcDbEntity
  8
0
 62
     7
370
     0
390
1D
100
AcDbVertex
100
AcDb2dVertex
 10
205.146072
 20
188.246109
 30
0.0
  0
VERTEX
  5
2E
330
24
100
AcDbEntity
  8
0
 62
     7
370
     0
390
1D
100
AcDbVertex
100
AcDb2dVertex
 10
205.146072
 20
187.802307
 30
0.0
  0
VERTEX
  5
2F
330
24
100
AcDbEntity
  8
0
 62
     7
370
     0
390
1D
100
AcDbVertex
100
AcDb2dVertex
 10
206.68425
 20
187.802307
 30
0.0
  0
SEQEND
  5
30
330
24
100
AcDbEntity
  8
0
370
     0
390
1D
  0
POLYLINE
  5
31
330
A
100
AcDbEntity
  8
0
 62
     7
370
    13
390
1D
100
AcDb2dPolyline
 66
     1
 10
0.0
 20
0.0
 30
0.0
 70
     1
  0
VERTEX
  5
32
330
31
100
AcDbEntity
  8
0
 62
     7
370
     0
390
1D
100
AcDbVertex
100
AcDb2dVertex
 10
205.569702
 20
188.205765
 30
0.0
  0
VERTEX
  5
33
330
31
100
AcDbEntity
  8
0
 62
     7
370
     0
390
1D
100
AcDbVertex
100
AcDb2dVertex
 10
206.68425
 20
189.774216
 30
0.0
  0
VERTEX
  5
34
330
31
100
AcDbEntity
  8
0
 62
     7
370
     0
390
1D
100
AcDbVertex
100
AcDb2dVertex
 10
206.68425
 20
188.205765
 30
0.0
  0
SEQEND
  5
35
330
31
100
AcDbEntity
  8
0
370
     0
390
1D
  0
POLYLINE
  5
36
330
A
100
AcDbEntity
  8
0
 62
     7
370
    13
390
1D
100
AcDb2dPolyline
 66
     1
 10
0.0
 20
0.0
 30
0.0
 70
     1
  0
VERTEX
  5
37
330
36
100
AcDbEntity
  8
0
 62
     7
370
     0
390
1D
100
AcDbVertex
100
AcDb2dVertex
 10
208.872009
 20
188.034302
 30
0.0
  0
VERTEX
  5
38
330
36
100
AcDbEntity
  8
0
 62
     7
370
     0
390
1D
100
AcDbVertex
100
AcDb2dVertex
 10
208.872009
 20
187.998993
 30
0.0
  0
VERTEX
  5
39
330
36
100
AcDbEntity
  8
0
 62
     7
370
     0
390
1D
100
AcDbVertex
100
AcDb2dVertex
 10
208.952698
 20
187.514847
 30
0.0
  0
VERTEX
  5
3A
330
36
100
AcDbEntity
  8
0
 62
     7
370
     0
390
1D
100
AcDbVertex
100
AcDb2dVertex
 10
209.189728
 20
187.151733
 30
0.0
  0
VERTEX
  5
3B
330
36
100
AcDbEntity
  8
0
 62
     7
370
     0
390
1D
100
AcDbVertex
100
AcDb2dVertex
 10
209.562927
 20
186.919739
 30
0.0
  0
VERTEX
  5
3C
330
36
100
AcDbEntity
  8
0
 62
     7
370
     0
390
1D
100
AcDbVertex
100
AcDb2dVertex
 10
210.057159
 20
186.834015
 30
0.0
  0
VERTEX
  5
3D
330
36
100
AcDbEntity
  8
0
 62
     7
370
     0
390
1D
100
AcDbVertex
100
AcDb2dVertex
 10
210.581665
 20
186.919739
 30
0.0
  0
VERTEX
  5
3E
330
36
100
AcDbEntity
  8
0
 62
     7
370
     0
390
1D
100
AcDbVertex
100
AcDb2dVertex
 10
210.975037
 20
187.141647
 30
0.0
  0
VERTEX
  5
3F
330
36
100
AcDbEntity
  8
0
 62
     7
370
     0
390
1D
100
AcDbVertex
100
AcDb2dVertex
 10
211.227188
 20
187.494675
 30
0.0
  0
VERTEX
  5
40
330
36
100
AcDbEntity
  8
0
 62
     7
370
     0
390
1D
100
AcDbVertex
100
AcDb2dVertex
 10
211.317963
 20
187.948563
 30
0.0
  0
VERTEX
  5
41
330
36
100
AcDbEntity
  8
0
 62
     7
370
     0
390
1D
100
AcDbVertex
100
AcDb2dVertex
 10
211.277618
 20
188.246109
 30
0.0
  0
VERTEX
  5
42
330
36
100
AcDbEntity
  8
0
 62
     7
370
     0
390
1D
100
AcDbVertex
100
AcDb2dVertex
 10
211.166672
 20
188.48819
 30
0.0
  0
VERTEX
  5
43
330
36
100
AcDbEntity
  8
0
 62
     7
370
     0
390
1D
100
AcDbVertex
100
AcDb2dVertex
 10
210.985107
 20
188.674789
 30
0.0
  0
VERTEX
  5
44
330
36
100
AcDbEntity
  8
0
 62
     7
370
     0
390
1D
100
AcDbVertex
100
AcDb2dVertex
 10
210.743042
 20
188.810959
 30
0.0
  0
VERTEX
  5
45
330
36
100
AcDbEntity
  8
0
 62
     7
370
     0
390
1D
100
AcDbVertex
100
AcDb2dVertex
 10
211.070847
 20
189.083282
 30
0.0
  0
VERTEX
  5
46
330
36
100
AcDbEntity
  8
0
 62
     7
370
     0
390
1D
100
AcDbVertex
100
AcDb2dVertex
 10
211.186844
 20
189.517014
 30
0.0
  0
VERTEX
  5
47
330
36
100
AcDbEntity
  8
0
 62
     7
370
     0
390
1D
100
AcDbVertex
100
AcDb2dVertex
 10
211.111206
 20
189.910385
 30
0.0
  0
VERTEX
  5
48
330
36
100
AcDbEntity
  8
0
 62
     7
370
     0
390
1D
100
AcDbVertex
100
AcDb2dVertex
 10
210.894333
 20
190.207932
 30
0.0
  0
VERTEX
  5
49
330
36
100
AcDbEntity
  8
0
 62
     7
370
     0
390
1D
100
AcDbVertex
100
AcDb2dVertex
 10
210.541321
 20
190.394531
 30
0.0
  0
VERTEX
  5
4A
330
36
100
AcDbEntity
  8
0
 62
     7
370
     0
390
1D
100
AcDbVertex
100
AcDb2dVertex
 10
210.057159
 20
190.460083
 30
0.0
  0
VERTEX
  5
4B
330
36
100
AcDbEntity
  8
0
 62
     7
370
     0
390
1D
100
AcDbVertex
100
AcDb2dVertex
 10
209.603271
 20
190.379395
 30
0.0
  0
VERTEX
  5
4C
330
36
100
AcDbEntity
  8
0
 62
     7
370
     0
390
1D
100
AcDbVertex
100
AcDb2dVertex
 10
209.25528
 20
190.157501
 30
0.0
  0
VERTEX
  5
4D
330
36
100
AcDbEntity
  8
0
 62
     7
370
     0
390
1D
100
AcDbVertex
100
AcDb2dVertex
 10
209.028351
 20
189.804474
 30
0.0
  0
VERTEX
  5
4E
330
36
100
AcDbEntity
  8
0
 62
     7
370
     0
390
1D
100
AcDbVertex
100
AcDb2dVertex
 10
208.952698
 20
189.335449
 30
0.0
  0
VERTEX
  5
4F
330
36
100
AcDbEntity
  8
0
 62
     7
370
     0
390
1D
100
AcDbVertex
100
AcDb2dVertex
 10
208.952698
 20
189.30014
 30
0.0
  0
VERTEX
  5
50
330
36
100
AcDbEntity
  8
0
 62
     7
370
     0
390
1D
100
AcDbVertex
100
AcDb2dVertex
 10
209.40155
 20
189.30014
 30
0.0
  0
VERTEX
  5
51
330
36
100
AcDbEntity
  8
0
 62
     7
370
     0
390
1D
100
AcDbVertex
100
AcDb2dVertex
 10
209.441895
 20
189.622925
 30
0.0
  0
VERTEX
  5
52
330
36
100
AcDbEntity
  8
0
 62
     7
370
     0
390
1D
100
AcDbVertex
100
AcDb2dVertex
 10
209.573013
 20
189.854904
 30
0.0
  0
VERTEX
  5
53
330
36
100
AcDbEntity
  8
0
 62
     7
370
     0
390
1D
100
AcDbVertex
100
AcDb2dVertex
 10
209.784821
 20
189.996109
 30
0.0
  0
VERTEX
  5
54
330
36
100
AcDbEntity
  8
0
 62
     7
370
     0
390
1D
100
AcDbVertex
100
AcDb2dVertex
 10
210.082382
 20
190.046539
 30
0.0
  0
VERTEX
  5
55
330
36
100
AcDbEntity
  8
0
 62
     7
370
     0
390
1D
100
AcDbVertex
100
AcDb2dVertex
 10
210.344635
 20
190.006195
 30
0.0
  0
VERTEX
  5
56
330
36
100
AcDbEntity
  8
0
 62
     7
370
     0
390
1D
100
AcDbVertex
100
AcDb2dVertex
 10
210.53627
 20
189.900299
 30
0.0
  0
VERTEX
  5
57
330
36
100
AcDbEntity
  8
0
 62
     7
370
     0
390
1D
100
AcDbVertex
100
AcDb2dVertex
 10
210.652267
 20
189.728821
 30
0.0
  0
VERTEX
  5
58
330
36
100
AcDbEntity
  8
0
 62
     7
370
     0
390
1D
100
AcDbVertex
100
AcDb2dVertex
 10
210.697647
 20
189.496826
 30
0.0
  0
VERTEX
  5
59
330
36
100
AcDbEntity
  8
0
 62
     7
370
     0
390
1D
100
AcDbVertex
100
AcDb2dVertex
 10
210.652267
 20
189.249725
 30
0.0
  0
VERTEX
  5
5A
330
36
100
AcDbEntity
  8
0
 62
     7
370
     0
390
1D
100
AcDbVertex
100
AcDb2dVertex
 10
210.531219
 20
189.083282
 30
0.0
  0
VERTEX
  5
5B
330
36
100
AcDbEntity
  8
0
 62
     7
370
     0
390
1D
100
AcDbVertex
100
AcDb2dVertex
 10
210.319412
 20
188.982422
 30
0.0
  0
VERTEX
  5
5C
330
36
100
AcDbEntity
  8
0
 62
     7
370
     0
390
1D
100
AcDbVertex
100
AcDb2dVertex
 10
210.031952
 20
188.952164
 30
0.0
  0
VERTEX
  5
5D
330
36
100
AcDbEntity
  8
0
 62
     7
370
     0
390
1D
100
AcDbVertex
100
AcDb2dVertex
 10
209.835266
 20
188.957214
 30
0.0
  0
VERTEX
  5
5E
330
36
100
AcDbEntity
  8
0
 62
     7
370
     0
390
1D
100
AcDbVertex
100
AcDb2dVertex
 10
209.835266
 20
188.558792
 30
0.0
  0
VERTEX
  5
5F
330
36
100
AcDbEntity
  8
0
 62
     7
370
     0
390
1D
100
AcDbVertex
100
AcDb2dVertex
 10
210.082382
 20
188.568878
 30
0.0
  0
VERTEX
  5
60
330
36
100
AcDbEntity
  8
0
 62
     7
370
     0
390
1D
100
AcDbVertex
100
AcDb2dVertex
 10
210.400101
 20
188.523499
 30
0.0
  0
VERTEX
  5
61
330
36
100
AcDbEntity
  8
0
 62
     7
370
     0
390
1D
100
AcDbVertex
100
AcDb2dVertex
 10
210.637131
 20
188.402451
 30
0.0
  0
VERTEX
  5
62
330
36
100
AcDbEntity
  8
0
 62
     7
370
     0
390
1D
100
AcDbVertex
100
AcDb2dVertex
 10
210.778351
 20
188.205765
 30
0.0
  0
VERTEX
  5
63
330
36
100
AcDbEntity
  8
0
 62
     7
370
     0
390
1D
100
AcDbVertex
100
AcDb2dVertex
 10
210.828781
 20
187.948563
 30
0.0
  0
VERTEX
  5
64
330
36
100
AcDbEntity
  8
0
 62
     7
370
     0
390
1D
100
AcDbVertex
100
AcDb2dVertex
 10
210.7733
 20
187.656052
 30
0.0
  0
VERTEX
  5
65
330
36
100
AcDbEntity
  8
0
 62
     7
370
     0
390
1D
100
AcDbVertex
100
AcDb2dVertex
 10
210.627045
 20
187.439194
 30
0.0
  0
VERTEX
  5
66
330
36
100
AcDbEntity
  8
0
 62
     7
370
     0
390
1D
100
AcDbVertex
100
AcDb2dVertex
 10
210.39505
 20
187.30304
 30
0.0
  0
VERTEX
  5
67
330
36
100
AcDbEntity
  8
0
 62
     7
370
     0
390
1D
100
AcDbVertex
100
AcDb2dVertex
 10
210.087418
 20
187.257645
 30
0.0
  0
VERTEX
  5
68
330
36
100
AcDbEntity
  8
0
 62
     7
370
     0
390
1D
100
AcDbVertex
100
AcDb2dVertex
 10
209.769699
 20
187.308075
 30
0.0
  0
VERTEX
  5
69
330
36
100
AcDbEntity
  8
0
 62
     7
370
     0
390
1D
100
AcDbVertex
100
AcDb2dVertex
 10
209.537704
 20
187.459366
 30
0.0
  0
VERTEX
  5
6A
330
36
100
AcDbEntity
  8
0
 62
     7
370
     0
390
1D
100
AcDbVertex
100
AcDb2dVertex
 10
209.391449
 20
187.701447
 30
0.0
  0
VERTEX
  5
6B
330
36
100
AcDbEntity
  8
0
 62
     7
370
     0
390
1D
100
AcDbVertex
100
AcDb2dVertex
 10
209.335983
 20
188.034302
 30
0.0
  0
SEQEND
  5
6C
330
36
100
AcDbEntity
  8
0
370
     0
390
1D
  0
POLYLINE
  5
6D
330
A
100
AcDbEntity
  8
0
 62
     7
370
    13
390
1D
100
AcDb2dPolyline
 66
     1
 10
0.0
 20
0.0
 30
0.0
 70
     1
  0
VERTEX
  5
6E
330
6D
100
AcDbEntity
  8
0
 62
     7
370
     0
390
1D
100
AcDbVertex
100
AcDb2dVertex
 10
212.608032
 20
188.034302
 30
0.0
  0
VERTEX
  5
6F
330
6D
100
AcDbEntity
  8
0
 62
     7
370
     0
390
1D
100
AcDbVertex
100
AcDb2dVertex
 10
212.608032
 20
187.998993
 30
0.0
  0
VERTEX
  5
70
330
6D
100
AcDbEntity
  8
0
 62
     7
370
     0
390
1D
100
AcDbVertex
100
AcDb2dVertex
 10
212.688721
 20
187.514847
 30
0.0
  0
VERTEX
  5
71
330
6D
100
AcDbEntity
  8
0
 62
     7
370
     0
390
1D
100
AcDbVertex
100
AcDb2dVertex
 10
212.925751
 20
187.151733
 30
0.0
  0
VERTEX
  5
72
330
6D
100
AcDbEntity
  8
0
 62
     7
370
     0
390
1D
100
AcDbVertex
100
AcDb2dVertex
 10
213.29895
 20
186.919739
 30
0.0
  0
VERTEX
  5
73
330
6D
100
AcDbEntity
  8
0
 62
     7
370
     0
390
1D
100
AcDbVertex
100
AcDb2dVertex
 10
213.793182
 20
186.834015
 30
0.0
  0
VERTEX
  5
74
330
6D
100
AcDbEntity
  8
0
 62
     7
370
     0
390
1D
100
AcDbVertex
100
AcDb2dVertex
 10
214.317688
 20
186.919739
 30
0.0
  0
VERTEX
  5
75
330
6D
100
AcDbEntity
  8
0
 62
     7
370
     0
390
1D
100
AcDbVertex
100
AcDb2dVertex
 10
214.71106
 20
187.141647
 30
0.0
  0
VERTEX
  5
76
330
6D
100
AcDbEntity
  8
0
 62
     7
370
     0
390
1D
100
AcDbVertex
100
AcDb2dVertex
 10
214.963211
 20
187.494675
 30
0.0
  0
VERTEX
  5
77
330
6D
100
AcDbEntity
  8
0
 62
     7
370
     0
390
1D
100
AcDbVertex
100
AcDb2dVertex
 10
215.053986
 20
187.948563
 30
0.0
  0
VERTEX
  5
78
330
6D
100
AcDbEntity
  8
0
 62
     7
370
     0
390
1D
100
AcDbVertex
100
AcDb2dVertex
 10
215.013641
 20
188.246109
 30
0.0
  0
VERTEX
  5
79
330
6D
100
AcDbEntity
  8
0
 62
     7
370
     0
390
1D
100
AcDbVertex
100
AcDb2dVertex
 10
214.902695
 20
188.48819
 30
0.0
  0
VERTEX
  5
7A
330
6D
100
AcDbEntity
  8
0
 62
     7
370
     0
390
1D
100
AcDbVertex
100
AcDb2dVertex
 10
214.72113
 20
188.674789
 30
0.0
  0
VERTEX
  5
7B
330
6D
100
AcDbEntity
  8
0
 62
     7
370
     0
390
1D
100
AcDbVertex
100
AcDb2dVertex
 10
214.479065
 20
188.810959
 30
0.0
  0
VERTEX
  5
7C
330
6D
100
AcDbEntity
  8
0
 62
     7
370
     0
390
1D
100
AcDbVertex
100
AcDb2dVertex
 10
214.80687
 20
189.083282
 30
0.0
  0
VERTEX
  5
7D
330
6D
100
AcDbEntity
  8
0
 62
     7
370
     0
390
1D
100
AcDbVertex
100
AcDb2dVertex
 10
214.922867
 20
189.517014
 30
0.0
  0
VERTEX
  5
7E
330
6D
100
AcDbEntity
  8
0
 62
     7
370
     0
390
1D
100
AcDbVertex
100
AcDb2dVertex
 10
214.847229
 20
189.910385
 30
0.0
  0
VERTEX
  5
7F
330
6D
100
AcDbEntity
  8
0
 62
     7
370
     0
390
1D
100
AcDbVertex
100
AcDb2dVertex
 10
214.630356
 20
190.207932
 30
0.0
  0
VERTEX
  5
80
330
6D
100
AcDbEntity
  8
0
 62
     7
370
     0
390
1D
100
AcDbVertex
100
AcDb2dVertex
 10
214.277344
 20
190.394531
 30
0.0
  0
VERTEX
  5
81
330
6D
100
AcDbEntity
  8
0
 62
     7
370
     0
390
1D
100
AcDbVertex
100
AcDb2dVertex
 10
213.793182
 20
190.460083
 30
0.0
  0
VERTEX
  5
82
330
6D
100
AcDbEntity
  8
0
 62
     7
370
     0
390
1D
100
AcDbVertex
100
AcDb2dVertex
 10
213.339294
 20
190.379395
 30
0.0
  0
VERTEX
  5
83
330
6D
100
AcDbEntity
  8
0
 62
     7
370
     0
390
1D
100
AcDbVertex
100
AcDb2dVertex
 10
212.991302
 20
190.157501
 30
0.0
  0
VERTEX
  5
84
330
6D
100
AcDbEntity
  8
0
 62
     7
370
     0
390
1D
100
AcDbVertex
100
AcDb2dVertex
 10
212.764374
 20
189.804474
 30
0.0
  0
VERTEX
  5
85
330
6D
100
AcDbEntity
  8
0
 62
     7
370
     0
390
1D
100
AcDbVertex
100
AcDb2dVertex
 10
212.688721
 20
189.335449
 30
0.0
  0
VERTEX
  5
86
330
6D
100
AcDbEntity
  8
0
 62
     7
370
     0
390
1D
100
AcDbVertex
100
AcDb2dVertex
 10
212.688721
 20
189.30014
 30
0.0
  0
VERTEX
  5
87
330
6D
100
AcDbEntity
  8
0
 62
     7
370
     0
390
1D
100
AcDbVertex
100
AcDb2dVertex
 10
213.137573
 20
189.30014
 30
0.0
  0
VERTEX
  5
88
330
6D
100
AcDbEntity
  8
0
 62
     7
370
     0
390
1D
100
AcDbVertex
100
AcDb2dVertex
 10
213.177917
 20
189.622925
 30
0.0
  0
VERTEX
  5
89
330
6D
100
AcDbEntity
  8
0
 62
     7
370
     0
390
1D
100
AcDbVertex
100
AcDb2dVertex
 10
213.309036
 20
189.854904
 30
0.0
  0
VERTEX
  5
8A
330
6D
100
AcDbEntity
  8
0
 62
     7
370
     0
390
1D
100
AcDbVertex
100
AcDb2dVertex
 10
213.520844
 20
189.996109
 30
0.0
  0
VERTEX
  5
8B
330
6D
100
AcDbEntity
  8
0
 62
     7
370
     0
390
1D
100
AcDbVertex
100
AcDb2dVertex
 10
213.818405
 20
190.046539
 30
0.0
  0
VERTEX
  5
8C
330
6D
100
AcDbEntity
  8
0
 62
     7
370
     0
390
1D
100
AcDbVertex
100
AcDb2dVertex
 10
214.080658
 20
190.006195
 30
0.0
  0
VERTEX
  5
8D
330
6D
100
AcDbEntity
  8
0
 62
     7
370
     0
390
1D
100
AcDbVertex
100
AcDb2dVertex
 10
214.272293
 20
189.900299
 30
0.0
  0
VERTEX
  5
8E
330
6D
100
AcDbEntity
  8
0
 62
     7
370
     0
390
1D
100
AcDbVertex
100
AcDb2dVertex
 10
214.38829
 20
189.728821
 30
0.0
  0
VERTEX
  5
8F
330
6D
100
AcDbEntity
  8
0
 62
     7
370
     0
390
1D
100
AcDbVertex
100
AcDb2dVertex
 10
214.43367
 20
189.496826
 30
0.0
  0
VERTEX
  5
90
330
6D
100
AcDbEntity
  8
0
 62
     7
370
     0
390
1D
100
AcDbVertex
100
AcDb2dVertex
 10
214.38829
 20
189.249725
 30
0.0
  0
VERTEX
  5
91
330
6D
100
AcDbEntity
  8
0
 62
     7
370
     0
390
1D
100
AcDbVertex
100
AcDb2dVertex
 10
214.267242
 20
189.083282
 30
0.0
  0
VERTEX
  5
92
330
6D
100
AcDbEntity
  8
0
 62
     7
370
     0
390
1D
100
AcDbVertex
100
AcDb2dVertex
 10
214.055435
 20
188.982422
 30
0.0
  0
VERTEX
  5
93
330
6D
100
AcDbEntity
  8
0
 62
     7
370
     0
390
1D
100
AcDbVertex
100
AcDb2dVertex
 10
213.767975
 20
188.952164
 30
0.0
  0
VERTEX
  5
94
330
6D
100
AcDbEntity
  8
0
 62
     7
370
     0
390
1D
100
AcDbVertex
100
AcDb2dVertex
 10
213.571289
 20
188.957214
 30
0.0
  0
VERTEX
  5
95
330
6D
100
AcDbEntity
  8
0
 62
     7
370
     0
390
1D
100
AcDbVertex
100
AcDb2dVertex
 10
213.571289
 20
188.558792
 30
0.0
  0
VERTEX
  5
96
330
6D
100
AcDbEntity
  8
0
 62
     7
370
     0
390
1D
100
AcDbVertex
100
AcDb2dVertex
 10
213.818405
 20
188.568878
 30
0.0
  0
VERTEX
  5
97
330
6D
100
AcDbEntity
  8
0
 62
     7
370
     0
390
1D
100
AcDbVertex
100
AcDb2dVertex
 10
214.136124
 20
188.523499
 30
0.0
  0
VERTEX
  5
98
330
6D
100
AcDbEntity
  8
0
 62
     7
370
     0
390
1D
100
AcDbVertex
100
AcDb2dVertex
 10
214.373154
 20
188.402451
 30
0.0
  0
VERTEX
  5
99
330
6D
100
AcDbEntity
  8
0
 62
     7
370
     0
390
1D
100
AcDbVertex
100
AcDb2dVertex
 10
214.514374
 20
188.205765
 30
0.0
  0
VERTEX
  5
9A
330
6D
100
AcDbEntity
  8
0
 62
     7
370
     0
390
1D
100
AcDbVertex
100
AcDb2dVertex
 10
214.564804
 20
187.948563
 30
0.0
  0
VERTEX
  5
9B
330
6D
100
AcDbEntity
  8
0
 62
     7
370
     0
390
1D
100
AcDbVertex
100
AcDb2dVertex
 10
214.509323
 20
187.656052
 30
0.0
  0
VERTEX
  5
9C
330
6D
100
AcDbEntity
  8
0
 62
     7
370
     0
390
1D
100
AcDbVertex
100
AcDb2dVertex
 10
214.363068
 20
187.439194
 30
0.0
  0
VERTEX
  5
9D
330
6D
100
AcDbEntity
  8
0
 62
     7
370
     0
390
1D
100
AcDbVertex
100
AcDb2dVertex
 10
214.131073
 20
187.30304
 30
0.0
  0
VERTEX
  5
9E
330
6D
100
AcDbEntity
  8
0
 62
     7
370
     0
390
1D
100
AcDbVertex
100
AcDb2dVertex
 10
213.823441
 20
187.257645
 30
0.0
  0
VERTEX
  5
9F
330
6D
100
AcDbEntity
  8
0
 62
     7
370
     0
390
1D
100
AcDbVertex
100
AcDb2dVertex
 10
213.505722
 20
187.308075
 30
0.0
  0
VERTEX
  5
A0
330
6D
100
AcDbEntity
  8
0
 62
     7
370
     0
390
1D
100
AcDbVertex
100
AcDb2dVertex
 10
213.273727
 20
187.459366
 30
0.0
  0
VERTEX
  5
A1
330
6D
100
AcDbEntity
  8
0
 62
     7
370
     0
390
1D
100
AcDbVertex
100
AcDb2dVertex
 10
213.127472
 20
187.701447
 30
0.0
  0
VERTEX
  5
A2
330
6D
100
AcDbEntity
  8
0
 62
     7
370
     0
390
1D
100
AcDbVertex
100
AcDb2dVertex
 10
213.072006
 20
188.034302
 30
0.0
  0
SEQEND
  5
A3
330
6D
100
AcDbEntity
  8
0
370
     0
390
1D
  0
POLYLINE
  5
A4
330
A
100
AcDbEntity
  8
0
 62
     7
370
    13
390
1D
100
AcDb2dPolyline
 66
     1
 10
0.0
 20
0.0
 30
0.0
 70
     1
  0
VERTEX
  5
A5
330
A4
100
AcDbEntity
  8
0
 62
     7
370
     0
390
1D
100
AcDbVertex
100
AcDb2dVertex
 10
217.266968
 20
186.934875
 30
0.0
  0
VERTEX
  5
A6
330
A4
100
AcDbEntity
  8
0
 62
     7
370
     0
390
1D
100
AcDbVertex
100
AcDb2dVertex
 10
217.962921
 20
186.934875
 30
0.0
  0
VERTEX
  5
A7
330
A4
100
AcDbEntity
  8
0
 62
     7
370
     0
390
1D
100
AcDbVertex
100
AcDb2dVertex
 10
217.962921
 20
187.68631
 30
0.0
  0
VERTEX
  5
A8
330
A4
100
AcDbEntity
  8
0
 62
     7
370
     0
390
1D
100
AcDbVertex
100
AcDb2dVertex
 10
217.266968
 20
187.68631
 30
0.0
  0
SEQEND
  5
A9
330
A4
100
AcDbEntity
  8
0
370
     0
390
1D
  0
POLYLINE
  5
AA
330
A
100
AcDbEntity
  8
0
 62
     7
370
    13
390
1D
100
AcDb2dPolyline
 66
     1
 10
0.0
 20
0.0
 30
0.0
 70
     1
  0
VERTEX
  5
AB
330
AA
100
AcDbEntity
  8
0
 62
     7
370
     0
390
1D
100
AcDbVertex
100
AcDb2dVertex
 10
222.56134
 20
189.491791
 30
0.0
  0
VERTEX
  5
AC
330
AA
100
AcDbEntity
  8
0
 62
     7
370
     0
390
1D
100
AcDbVertex
100
AcDb2dVertex
 10
222.465515
 20
189.900299
 30
0.0
  0
VERTEX
  5
AD
330
AA
100
AcDbEntity
  8
0
 62
     7
370
     0
390
1D
100
AcDbVertex
100
AcDb2dVertex
 10
222.243622
 20
190.202881
 30
0.0
  0
VERTEX
  5
AE
330
AA
100
AcDbEntity
  8
0
 62
     7
370
     0
390
1D
100
AcDbVertex
100
AcDb2dVertex
 10
221.900681
 20
190.394531
 30
0.0
  0
VERTEX
  5
AF
330
AA
100
AcDbEntity
  8
0
 62
     7
370
     0
390
1D
100
AcDbVertex
100
AcDb2dVertex
 10
221.456879
 20
190.460083
 30
0.0
  0
VERTEX
  5
B0
330
AA
100
AcDbEntity
  8
0
 62
     7
370
     0
390
1D
100
AcDbVertex
100
AcDb2dVertex
 10
221.159332
 20
190.424789
 30
0.0
  0
VERTEX
  5
B1
330
AA
100
AcDbEntity
  8
0
 62
     7
370
     0
390
1D
100
AcDbVertex
100
AcDb2dVertex
 10
220.902115
 20
190.328964
 30
0.0
  0
VERTEX
  5
B2
330
AA
100
AcDbEntity
  8
0
 62
     7
370
     0
390
1D
100
AcDbVertex
100
AcDb2dVertex
 10
220.675171
 20
190.172623
 30
0.0
  0
VERTEX
  5
B3
330
AA
100
AcDbEntity
  8
0
 62
     7
370
     0
390
1D
100
AcDbVertex
100
AcDb2dVertex
 10
220.483536
 20
189.950729
 30
0.0
  0
VERTEX
  5
B4
330
AA
100
AcDbEntity
  8
0
 62
     7
370
     0
390
1D
100
AcDbVertex
100
AcDb2dVertex
 10
220.33223
 20
189.67334
 30
0.0
  0
VERTEX
  5
B5
330
AA
100
AcDbEntity
  8
0
 62
     7
370
     0
390
1D
100
AcDbVertex
100
AcDb2dVertex
 10
220.221283
 20
189.335449
 30
0.0
  0
VERTEX
  5
B6
330
AA
100
AcDbEntity
  8
0
 62
     7
370
     0
390
1D
100
AcDbVertex
100
AcDb2dVertex
 10
220.150681
 20
188.937042
 30
0.0
  0
VERTEX
  5
B7
330
AA
100
AcDbEntity
  8
0
 62
     7
370
     0
390
1D
100
AcDbVertex
100
AcDb2dVertex
 10
220.130508
 20
188.48819
 30
0.0
  0
VERTEX
  5
B8
330
AA
100
AcDbEntity
  8
0
 62
     7
370
     0
390
1D
100
AcDbVertex
100
AcDb2dVertex
 10
220.211197
 20
187.772049
 30
0.0
  0
VERTEX
  5
B9
330
AA
100
AcDbEntity
  8
0
 62
     7
370
     0
390
1D
100
AcDbVertex
100
AcDb2dVertex
 10
220.458313
 20
187.252594
 30
0.0
  0
VERTEX
  5
BA
330
AA
100
AcDbEntity
  8
0
 62
     7
370
     0
390
1D
100
AcDbVertex
100
AcDb2dVertex
 10
220.856735
 20
186.939911
 30
0.0
  0
VERTEX
  5
BB
330
AA
100
AcDbEntity
  8
0
 62
     7
370
     0
390
1D
100
AcDbVertex
100
AcDb2dVertex
 10
221.401398
 20
186.834015
 30
0.0
  0
VERTEX
  5
BC
330
AA
100
AcDbEntity
  8
0
 62
     7
370
     0
390
1D
100
AcDbVertex
100
AcDb2dVertex
 10
221.890594
 20
186.924789
 30
0.0
  0
VERTEX
  5
BD
330
AA
100
AcDbEntity
  8
0
 62
     7
370
     0
390
1D
100
AcDbVertex
100
AcDb2dVertex
 10
222.263794
 20
187.161819
 30
0.0
  0
VERTEX
  5
BE
330
AA
100
AcDbEntity
  8
0
 62
     7
370
     0
390
1D
100
AcDbVertex
100
AcDb2dVertex
 10
222.505859
 20
187.535019
 30
0.0
  0
VERTEX
  5
BF
330
AA
100
AcDbEntity
  8
0
 62
     7
370
     0
390
1D
100
AcDbVertex
100
AcDb2dVertex
 10
222.591599
 20
188.009079
 30
0.0
  0
VERTEX
  5
C0
330
AA
100
AcDbEntity
  8
0
 62
     7
370
     0
390
1D
100
AcDbVertex
100
AcDb2dVertex
 10
222.505859
 20
188.48819
 30
0.0
  0
VERTEX
  5
C1
330
AA
100
AcDbEntity
  8
0
 62
     7
370
     0
390
1D
100
AcDbVertex
100
AcDb2dVertex
 10
222.27388
 20
188.856354
 30
0.0
  0
VERTEX
  5
C2
330
AA
100
AcDbEntity
  8
0
 62
     7
370
     0
390
1D
100
AcDbVertex
100
AcDb2dVertex
 10
221.915802
 20
189.088333
 30
0.0
  0
VERTEX
  5
C3
330
AA
100
AcDbEntity
  8
0
 62
     7
370
     0
390
1D
100
AcDbVertex
100
AcDb2dVertex
 10
221.472
 20
189.169022
 30
0.0
  0
VERTEX
  5
C4
330
AA
100
AcDbEntity
  8
0
 62
     7
370
     0
390
1D
100
AcDbVertex
100
AcDb2dVertex
 10
220.992889
 20
189.068161
 30
0.0
  0
VERTEX
  5
C5
330
AA
100
AcDbEntity
  8
0
 62
     7
370
     0
390
1D
100
AcDbVertex
100
AcDb2dVertex
 10
220.634827
 20
188.780701
 30
0.0
  0
VERTEX
  5
C6
330
AA
100
AcDbEntity
  8
0
 62
     7
370
     0
390
1D
100
AcDbVertex
100
AcDb2dVertex
 10
220.71048
 20
189.335449
 30
0.0
  0
VERTEX
  5
C7
330
AA
100
AcDbEntity
  8
0
 62
     7
370
     0
390
1D
100
AcDbVertex
100
AcDb2dVertex
 10
220.871857
 20
189.733871
 30
0.0
  0
VERTEX
  5
C8
330
AA
100
AcDbEntity
  8
0
 62
     7
370
     0
390
1D
100
AcDbVertex
100
AcDb2dVertex
 10
221.118973
 20
189.970901
 30
0.0
  0
VERTEX
  5
C9
330
AA
100
AcDbEntity
  8
0
 62
     7
370
     0
390
1D
100
AcDbVertex
100
AcDb2dVertex
 10
221.461914
 20
190.05159
 30
0.0
  0
VERTEX
  5
CA
330
AA
100
AcDbEntity
  8
0
 62
     7
370
     0
390
1D
100
AcDbVertex
100
AcDb2dVertex
 10
221.714081
 20
190.011246
 30
0.0
  0
VERTEX
  5
CB
330
AA
100
AcDbEntity
  8
0
 62
     7
370
     0
390
1D
100
AcDbVertex
100
AcDb2dVertex
 10
221.905716
 20
189.905334
 30
0.0
  0
VERTEX
  5
CC
330
AA
100
AcDbEntity
  8
0
 62
     7
370
     0
390
1D
100
AcDbVertex
100
AcDb2dVertex
 10
222.031799
 20
189.728821
 30
0.0
  0
VERTEX
  5
CD
330
AA
100
AcDbEntity
  8
0
 62
     7
370
     0
390
1D
100
AcDbVertex
100
AcDb2dVertex
 10
222.097366
 20
189.491791
 30
0.0
  0
SEQEND
  5
CE
330
AA
100
AcDbEntity
  8
0
370
     0
390
1D
  0
POLYLINE
  5
CF
330
A
100
AcDbEntity
  8
0
 62
     7
370
    13
390
1D
100
AcDb2dPolyline
 66
     1
 10
0.0
 20
0.0
 30
0.0
 70
     1
  0
VERTEX
  5
D0
330
CF
100
AcDbEntity
  8
0
 62
     7
370
     0
390
1D
100
AcDbVertex
100
AcDb2dVertex
 10
222.102402
 20
188.004044
 30
0.0
  0
VERTEX
  5
D1
330
CF
100
AcDbEntity
  8
0
 62
     7
370
     0
390
1D
100
AcDbVertex
100
AcDb2dVertex
 10
222.046936
 20
187.68631
 30
0.0
  0
VERTEX
  5
D2
330
CF
100
AcDbEntity
  8
0
 62
     7
370
     0
390
1D
100
AcDbVertex
100
AcDb2dVertex
 10
221.905716
 20
187.444244
 30
0.0
  0
VERTEX
  5
D3
330
CF
100
AcDbEntity
  8
0
 62
     7
370
     0
390
1D
100
AcDbVertex
100
AcDb2dVertex
 10
221.678772
 20
187.282867
 30
0.0
  0
VERTEX
  5
D4
330
CF
100
AcDbEntity
  8
0
 62
     7
370
     0
390
1D
100
AcDbVertex
100
AcDb2dVertex
 10
221.396362
 20
187.232422
 30
0.0
  0
VERTEX
  5
D5
330
CF
100
AcDbEntity
  8
0
 62
     7
370
     0
390
1D
100
AcDbVertex
100
AcDb2dVertex
 10
221.098801
 20
187.282867
 30
0.0
  0
VERTEX
  5
D6
330
CF
100
AcDbEntity
  8
0
 62
     7
370
     0
390
1D
100
AcDbVertex
100
AcDb2dVertex
 10
220.871857
 20
187.439194
 30
0.0
  0
VERTEX
  5
D7
330
CF
100
AcDbEntity
  8
0
 62
     7
370
     0
390
1D
100
AcDbVertex
100
AcDb2dVertex
 10
220.725601
 20
187.681274
 30
0.0
  0
VERTEX
  5
D8
330
CF
100
AcDbEntity
  8
0
 62
     7
370
     0
390
1D
100
AcDbVertex
100
AcDb2dVertex
 10
220.680222
 20
187.998993
 30
0.0
  0
VERTEX
  5
D9
330
CF
100
AcDbEntity
  8
0
 62
     7
370
     0
390
1D
100
AcDbVertex
100
AcDb2dVertex
 10
220.730652
 20
188.311676
 30
0.0
  0
VERTEX
  5
DA
330
CF
100
AcDbEntity
  8
0
 62
     7
370
     0
390
1D
100
AcDbVertex
100
AcDb2dVertex
 10
220.871857
 20
188.548706
 30
0.0
  0
VERTEX
  5
DB
330
CF
100
AcDbEntity
  8
0
 62
     7
370
     0
390
1D
100
AcDbVertex
100
AcDb2dVertex
 10
221.103851
 20
188.700012
 30
0.0
  0
VERTEX
  5
DC
330
CF
100
AcDbEntity
  8
0
 62
     7
370
     0
390
1D
100
AcDbVertex
100
AcDb2dVertex
 10
221.416534
 20
188.755478
 30
0.0
  0
VERTEX
  5
DD
330
CF
100
AcDbEntity
  8
0
 62
     7
370
     0
390
1D
100
AcDbVertex
100
AcDb2dVertex
 10
221.688858
 20
188.700012
 30
0.0
  0
VERTEX
  5
DE
330
CF
100
AcDbEntity
  8
0
 62
     7
370
     0
390
1D
100
AcDbVertex
100
AcDb2dVertex
 10
221.905716
 20
188.553757
 30
0.0
  0
VERTEX
  5
DF
330
CF
100
AcDbEntity
  8
0
 62
     7
370
     0
390
1D
100
AcDbVertex
100
AcDb2dVertex
 10
222.046936
 20
188.316711
 30
0.0
  0
SEQEND
  5
E0
330
CF
100
AcDbEntity
  8
0
370
     0
390
1D
  0
POLYLINE
  5
E1
330
A
100
AcDbEntity
  8
0
 62
     7
370
    13
390
1D
100
AcDb2dPolyline
 66
     1
 10
0.0
 20
0.0
 30
0.0
 70
     1
  0
VERTEX
  5
E2
330
E1
100
AcDbEntity
  8
0
 62
     7
370
     0
390
1D
100
AcDbVertex
100
AcDb2dVertex
 10
223.836273
 20
187.847702
 30
0.0
  0
VERTEX
  5
E3
330
E1
100
AcDbEntity
  8
0
 62
     7
370
     0
390
1D
100
AcDbVertex
100
AcDb2dVertex
 10
223.94722
 20
187.434158
 30
0.0
  0
VERTEX
  5
E4
330
E1
100
AcDbEntity
  8
0
 62
     7
370
     0
390
1D
100
AcDbVertex
100
AcDb2dVertex
 10
224.194336
 20
187.111389
 30
0.0
  0
VERTEX
  5
E5
330
E1
100
AcDbEntity
  8
0
 62
     7
370
     0
390
1D
100
AcDbVertex
100
AcDb2dVertex
 10
224.557449
 20
186.909668
 30
0.0
  0
VERTEX
  5
E6
330
E1
100
AcDbEntity
  8
0
 62
     7
370
     0
390
1D
100
AcDbVertex
100
AcDb2dVertex
 10
225.021423
 20
186.834015
 30
0.0
  0
VERTEX
  5
E7
330
E1
100
AcDbEntity
  8
0
 62
     7
370
     0
390
1D
100
AcDbVertex
100
AcDb2dVertex
 10
225.530792
 20
186.924789
 30
0.0
  0
VERTEX
  5
E8
330
E1
100
AcDbEntity
  8
0
 62
     7
370
     0
390
1D
100
AcDbVertex
100
AcDb2dVertex
 10
225.929199
 20
187.171906
 30
0.0
  0
VERTEX
  5
E9
330
E1
100
AcDbEntity
  8
0
 62
     7
370
     0
390
1D
100
AcDbVertex
100
AcDb2dVertex
 10
226.181366
 20
187.565277
 30
0.0
  0
VERTEX
  5
EA
330
E1
100
AcDbEntity
  8
0
 62
     7
370
     0
390
1D
100
AcDbVertex
100
AcDb2dVertex
 10
226.277191
 20
188.069611
 30
0.0
  0
VERTEX
  5
EB
330
E1
100
AcDbEntity
  8
0
 62
     7
370
     0
390
1D
100
AcDbVertex
100
AcDb2dVertex
 10
226.191452
 20
188.53862
 30
0.0
  0
VERTEX
  5
EC
330
E1
100
AcDbEntity
  8
0
 62
     7
370
     0
390
1D
100
AcDbVertex
100
AcDb2dVertex
 10
225.949371
 20
188.906769
 30
0.0
  0
VERTEX
  5
ED
330
E1
100
AcDbEntity
  8
0
 62
     7
370
     0
390
1D
100
AcDbVertex
100
AcDb2dVertex
 10
225.571136
 20
189.143814
 30
0.0
  0
VERTEX
  5
EE
330
E1
100
AcDbEntity
  8
0
 62
     7
370
     0
390
1D
100
AcDbVertex
100
AcDb2dVertex
 10
225.08194
 20
189.229553
 30
0.0
  0
VERTEX
  5
EF
330
E1
100
AcDbEntity
  8
0
 62
     7
370
     0
390
1D
100
AcDbVertex
100
AcDb2dVertex
 10
224.703705
 20
189.169022
 30
0.0
  0
VERTEX
  5
F0
330
E1
100
AcDbEntity
  8
0
 62
     7
370
     0
390
1D
100
AcDbVertex
100
AcDb2dVertex
 10
224.411194
 20
189.002594
 30
0.0
  0
VERTEX
  5
F1
330
E1
100
AcDbEntity
  8
0
 62
     7
370
     0
390
1D
100
AcDbVertex
100
AcDb2dVertex
 10
224.552399
 20
189.945679
 30
0.0
  0
VERTEX
  5
F2
330
E1
100
AcDbEntity
  8
0
 62
     7
370
     0
390
1D
100
AcDbVertex
100
AcDb2dVertex
 10
226.085541
 20
189.945679
 30
0.0
  0
VERTEX
  5
F3
330
E1
100
AcDbEntity
  8
0
 62
     7
370
     0
390
1D
100
AcDbVertex
100
AcDb2dVertex
 10
226.085541
 20
190.359222
 30
0.0
  0
VERTEX
  5
F4
330
E1
100
AcDbEntity
  8
0
 62
     7
370
     0
390
1D
100
AcDbVertex
100
AcDb2dVertex
 10
224.214508
 20
190.359222
 30
0.0
  0
VERTEX
  5
F5
330
E1
100
AcDbEntity
  8
0
 62
     7
370
     0
390
1D
100
AcDbVertex
100
AcDb2dVertex
 10
223.937134
 20
188.503326
 30
0.0
  0
VERTEX
  5
F6
330
E1
100
AcDbEntity
  8
0
 62
     7
370
     0
390
1D
100
AcDbVertex
100
AcDb2dVertex
 10
224.340591
 20
188.503326
 30
0.0
  0
VERTEX
  5
F7
330
E1
100
AcDbEntity
  8
0
 62
     7
370
     0
390
1D
100
AcDbVertex
100
AcDb2dVertex
 10
224.633102
 20
188.740356
 30
0.0
  0
VERTEX
  5
F8
330
E1
100
AcDbEntity
  8
0
 62
     7
370
     0
390
1D
100
AcDbVertex
100
AcDb2dVertex
 10
225.006302
 20
188.82608
 30
0.0
  0
VERTEX
  5
F9
330
E1
100
AcDbEntity
  8
0
 62
     7
370
     0
390
1D
100
AcDbVertex
100
AcDb2dVertex
 10
225.329071
 20
188.770615
 30
0.0
  0
VERTEX
  5
FA
330
E1
100
AcDbEntity
  8
0
 62
     7
370
     0
390
1D
100
AcDbVertex
100
AcDb2dVertex
 10
225.576187
 20
188.609222
 30
0.0
  0
VERTEX
  5
FB
330
E1
100
AcDbEntity
  8
0
 62
     7
370
     0
390
1D
100
AcDbVertex
100
AcDb2dVertex
 10
225.732513
 20
188.362106
 30
0.0
  0
VERTEX
  5
FC
330
E1
100
AcDbEntity
  8
0
 62
     7
370
     0
390
1D
100
AcDbVertex
100
AcDb2dVertex
 10
225.787994
 20
188.044388
 30
0.0
  0
VERTEX
  5
FD
330
E1
100
AcDbEntity
  8
0
 62
     7
370
     0
390
1D
100
AcDbVertex
100
AcDb2dVertex
 10
225.732513
 20
187.726654
 30
0.0
  0
VERTEX
  5
FE
330
E1
100
AcDbEntity
  8
0
 62
     7
370
     0
390
1D
100
AcDbVertex
100
AcDb2dVertex
 10
225.571136
 20
187.479553
 30
0.0
  0
VERTEX
  5
FF
330
E1
100
AcDbEntity
  8
0
 62
     7
370
     0
390
1D
100
AcDbVertex
100
AcDb2dVertex
 10
225.32402
 20
187.323212
 30
0.0
  0
VERTEX
  5
100
330
E1
100
AcDbEntity
  8
0
 62
     7
370
     0
390
1D
100
AcDbVertex
100
AcDb2dVertex
 10
225.006302
 20
187.267731
 30
0.0
  0
VERTEX
  5
101
330
E1
100
AcDbEntity
  8
0
 62
     7
370
     0
390
1D
100
AcDbVertex
100
AcDb2dVertex
 10
224.739014
 20
187.30304
 30
0.0
  0
VERTEX
  5
102
330
E1
100
AcDbEntity
  8
0
 62
     7
370
     0
390
1D
100
AcDbVertex
100
AcDb2dVertex
 10
224.532227
 20
187.419022
 30
0.0
  0
VERTEX
  5
103
330
E1
100
AcDbEntity
  8
0
 62
     7
370
     0
390
1D
100
AcDbVertex
100
AcDb2dVertex
 10
224.380936
 20
187.600586
 30
0.0
  0
VERTEX
  5
104
330
E1
100
AcDbEntity
  8
0
 62
     7
370
     0
390
1D
100
AcDbVertex
100
AcDb2dVertex
 10
224.305298
 20
187.847702
 30
0.0
  0
SEQEND
  5
105
330
E1
100
AcDbEntity
  8
0
370
     0
390
1D
  0
LINE
  5
106
330
A
100
AcDbEntity
  8
0
 62
     7
 48
0.334367
370
    13
390
1D
100
AcDbLine
 10
107.333511
 20
173.560196
 30
0.0
 11
107.333511
 21
186.934875
 31
0.0
  0
LINE
  5
107
330
A
100
AcDbEntity
  8
0
 62
     7
 48
0.334367
370
    13
390
1D
100
AcDbLine
 10
324.160339
 20
173.560196
 30
0.0
 11
324.160339
 21
186.934875
 31
0.0
  0
POLYLINE
  5
108
330
A
100
AcDbEntity
  8
0
 62
     7
370
    13
390
1D
100
AcDb2dPolyline
 66
     1
 10
0.0
 20
0.0
 30
0.0
  0
VERTEX
  5
109
330
108
100
AcDbEntity
  8
0
 62
     7
370
     0
390
1D
100
AcDbVertex
100
AcDb2dVertex
 10
322.228516
 20
184.417236
 30
0.0
  0
VERTEX
  5
10A
330
108
100
AcDbEntity
  8
0
 62
     7
370
     0
390
1D
100
AcDbVertex
100
AcDb2dVertex
 10
324.160339
 20
184.934875
 30
0.0
  0
VERTEX
  5
10B
330
108
100
AcDbEntity
  8
0
 62
     7
370
     0
390
1D
100
AcDbVertex
100
AcDb2dVertex
 10
322.228516
 20
185.452515
 30
0.0
  0
SEQEND
  5
10C
330
108
100
AcDbEntity
  8
0
370
     0
390
1D
  0
POLYLINE
  5
10D
330
A
100
AcDbEntity
  8
0
 62
     7
370
    13
390
1D
100
AcDb2dPolyline
 66
     1
 10
0.0
 20
0.0
 30
0.0
  0
VERTEX
  5
10E
330
10D
100
AcDbEntity
  8
0
 62
     7
370
     0
390
1D
100
AcDbVertex
100
AcDb2dVertex
 10
109.265366
 20
185.452515
 30
0.0
  0
VERTEX
  5
10F
330
10D
100
AcDbEntity
  8
0
 62
     7
370
     0
390
1D
100
AcDbVertex
100
AcDb2dVertex
 10
107.333511
 20
184.934875
 30
0.0
  0
VERTEX
  5
110
330
10D
100
AcDbEntity
  8
0
 62
     7
370
     0
390
1D
100
AcDbVertex
100
AcDb2dVertex
 10
109.265366
 20
184.417236
 30
0.0
  0
SEQEND
  5
111
330
10D
100
AcDbEntity
  8
0
370
     0
390
1D
  0
LINE
  5
112
330
A
100
AcDbEntity
  8
0
 62
     7
370
    13
390
1D
100
AcDbLine
 10
107.333511
 20
184.934875
 30
0.0
 11
324.160339
 21
184.934875
 31
0.0
  0
LINE
  5
113
330
A
100
AcDbEntity
  8
0
 62
     7
 48
0.1875
370
    35
390
1D
100
AcDbLine
 10
316.660339
 20
139.060196
 30
0.0
 11
324.160339
 21
139.060196
 31
0.0
  0
LINE
  5
114
330
A
100
AcDbEntity
  8
0
 62
     7
370
    35
390
1D
100
AcDbLine
 10
324.160339
 20
139.060196
 30
0.0
 11
324.160339
 21
171.560196
 31
0.0
  0
LINE
  5
115
330
A
100
AcDbEntity
  8
0
 62
     7
 48
0.1875
370
    35
390
1D
100
AcDbLine
 10
316.660339
 20
171.560196
 30
0.0
 11
324.160339
 21
171.560196
 31
0.0
  0
LINE
  5
116
330
A
100
AcDbEntity
  8
0
 62
     7
 48
0.052042
370
    35
390
1D
100
AcDbLine
 10
314.578644
 20
171.560196
 30
0.0
 11
316.660339
 21
171.560196
 31
0.0
  0
LINE
  5
117
330
A
100
AcDbEntity
  8
0
 62
     7
370
    35
390
1D
100
AcDbLine
 10
314.578644
 20
171.560196
 30
0.0
 11
270.328644
 21
171.560196
 31
0.0
  0
LINE
  5
118
330
A
100
AcDbEntity
  8
0
 62
     7
 48
0.052042
370
    35
390
1D
100
AcDbLine
 10
268.246948
 20
171.560196
 30
0.0
 11
270.328644
 21
171.560196
 31
0.0
  0
LINE
  5
119
330
A
100
AcDbEntity
  8
0
 62
     7
370
    35
390
1D
100
AcDbLine
 10
268.246948
 20
171.560196
 30
0.0
 11
163.246933
 21
171.560196
 31
0.0
  0
LINE
  5
11A
330
A
100
AcDbEntity
  8
0
 62
     7
 48
0.052043
370
    35
390
1D
100
AcDbLine
 10
163.246933
 20
171.560196
 30
0.0
 11
161.165222
 21
171.560196
 31
0.0
  0
LINE
  5
11B
330
A
100
AcDbEntity
  8
0
 62
     7
370
    35
390
1D
100
AcDbLine
 10
161.165222
 20
171.560196
 30
0.0
 11
116.915222
 21
171.560196
 31
0.0
  0
LINE
  5
11C
330
A
100
AcDbEntity
  8
0
 62
     7
370
    35
390
1D
100
AcDbLine
 10
161.165222
 20
139.060196
 30
0.0
 11
116.915222
 21
139.060196
 31
0.0
  0
LINE
  5
11D
330
A
100
AcDbEntity
  8
0
 62
     7
 48
0.052043
370
    35
390
1D
100
AcDbLine
 10
116.915222
 20
139.060196
 30
0.0
 11
114.833511
 21
139.060196
 31
0.0
  0
LINE
  5
11E
330
A
100
AcDbEntity
  8
0
 62
     7
 48
0.052043
370
    35
390
1D
100
AcDbLine
 10
116.915222
 20
171.560196
 30
0.0
 11
114.833511
 21
171.560196
 31
0.0
  0
LINE
  5
11F
330
A
100
AcDbEntity
  8
0
 62
     7
 48
0.052043
370
    35
390
1D
100
AcDbLine
 10
163.246933
 20
139.060196
 30
0.0
 11
161.165222
 21
139.060196
 31
0.0
  0
LINE
  5
120
330
A
100
AcDbEntity
  8
0
 62
     7
 48
0.1875
370
    35
390
1D
100
AcDbLine
 10
114.833511
 20
171.560196
 30
0.0
 11
107.333511
 21
171.560196
 31
0.0
  0
LINE
  5
121
330
A
100
AcDbEntity
  8
0
 62
     7
 48
0.1875
370
    35
390
1D
100
AcDbLine
 10
114.833511
 20
139.060196
 30
0.0
 11
107.333511
 21
139.060196
 31
0.0
  0
LINE
  5
122
330
A
100
AcDbEntity
  8
0
 62
     7
370
    35
390
1D
100
AcDbLine
 10
107.333511
 20
171.560196
 30
0.0
 11
107.333511
 21
139.060196
 31
0.0
  0
LINE
  5
123
330
A
100
AcDbEntity
  8
0
 62
     7
 48
0.052042
370
    35
390
1D
100
AcDbLine
 10
268.246948
 20
139.060196
 30
0.0
 11
270.328644
 21
139.060196
 31
0.0
  0
LINE
  5
124
330
A
100
AcDbEntity
  8
0
 62
     7
370
    35
390
1D
100
AcDbLine
 10
314.578644
 20
139.060196
 30
0.0
 11
270.328644
 21
139.060196
 31
0.0
  0
LINE
  5
125
330
A
100
AcDbEntity
  8
0
 62
     7
370
    35
390
1D
100
AcDbLine
 10
163.246933
 20
139.060196
 30
0.0
 11
268.246948
 21
139.060196
 31
0.0
  0
LINE
  5
126
330
A
100
AcDbEntity
  8
0
 62
     7
 48
0.052042
370
    35
390
1D
100
AcDbLine
 10
314.578644
 20
139.060196
 30
0.0
 11
316.660339
 21
139.060196
 31
0.0
  0
VIEWPORT
  5
127
330
B
100
AcDbEntity
 67
     1
  8
0
 62
     0
 48
0.0
370
     0
390
1D
100
AcDbViewport
 10
0.0
 20
0.0
 30
0.0
 40
1000.0
 41
1000.0
 68
     1
 69
     1
 12
0.0
 22
0.0
 13
0.0
 23
0.0
 14
1.0
 24
1.0
 15
1.0
 25
1.0
 16
0.0
 26
0.0
 36
1.0
 17
0.0
 27
0.0
 37
0.0
 42
50.0
 43
0.0
 44
0.0
 45
1000.0
 50
0.0
 51
0.0
 72
   100
 90
        0
  1

281
     0
 71
     0
 74
     1
110
0.0
120
0.0
130
0.0
111
1.0
121
0.0
131
0.0
112
0.0
122
1.0
132
0.0
 79
     0
146
0.0
170
     0
 61
     5
292
     1
282
     1
141
0.0
142
0.0
 63
   256
  0
ENDSEC
  0
SECTION
  2
OBJECTS
  0
DICTIONARY
  5
19
330
0
100
AcDbDictionary
281
     1
  3
ACAD_GROUP
350
1A
  3
ACAD_LAYOUT
350
1E
  3
ACAD_MLEADERSTYLE
350
14B
  3
ACAD_MLINESTYLE
350
1B
  3
ACAD_PLOTSETTINGS
350
22
  3
ACAD_PLOTSTYLENAME
350
1F
  3
ACAD_SCALELIST
350
128
  3
ACAD_TABLESTYLE
350
14A
  3
ACAD_WIPEOUT_VARS
350
23
  3
AcDbVariableDictionary
350
14C
  0
DICTIONARY
  5
1A
102
{ACAD_REACTORS
330
19
102
}
330
19
100
AcDbDictionary
281
     1
  0
DICTIONARY
  5
1E
102
{ACAD_REACTORS
330
19
102
}
330
19
100
AcDbDictionary
281
     1
  3
Layout1
350
21
  3
Model
350
20
  0
DICTIONARY
  5
14B
102
{ACAD_REACTORS
330
19
102
}
330
19
100
AcDbDictionary
281
     1
  0
DICTIONARY
  5
1B
102
{ACAD_REACTORS
330
19
102
}
330
19
100
AcDbDictionary
281
     1
  3
Standard
350
1C
  0
DICTIONARY
  5
22
102
{ACAD_REACTORS
330
19
102
}
330
19
100
AcDbDictionary
281
     1
  0
ACDBDICTIONARYWDFLT
  5
1F
102
{ACAD_REACTORS
330
19
102
}
330
19
100
AcDbDictionary
281
     1
  3
Normal
350
1D
100
AcDbDictionaryWithDefault
340
1D
  0
DICTIONARY
  5
128
102
{ACAD_REACTORS
330
19
102
}
330
19
100
AcDbDictionary
281
     1
  3
A0
350
129
  3
A1
350
12A
  3
A2
350
12B
  3
A3
350
12C
  3
A4
350
12D
  3
A5
350
12E
  3
A6
350
12F
  3
A7
350
130
  3
A8
350
131
  3
A9
350
132
  3
B0
350
133
  3
B1
350
134
  3
B2
350
135
  3
B3
350
136
  3
B4
350
137
  3
B5
350
138
  3
B6
350
139
  3
B7
350
13A
  3
B8
350
13B
  3
B9
350
13C
  3
C0
350
13D
  3
C1
350
13E
  3
C2
350
13F
  3
C3
350
140
  3
C4
350
141
  3
C5
350
142
  3
C6
350
143
  3
C7
350
144
  3
C8
350
145
  3
C9
350
146
  3
D0
350
147
  3
D1
350
148
  3
D2
350
149
  0
DICTIONARY
  5
14A
102
{ACAD_REACTORS
330
19
102
}
330
19
100
AcDbDictionary
281
     1
  0
WIPEOUTVARIABLES
  5
23
330
19
100
AcDbWipeoutVariables
 70
     1
  0
DICTIONARY
  5
14C
102
{ACAD_REACTORS
330
19
102
}
330
19
100
AcDbDictionary
281
     1
  3
CANNOSCALE
350
14D
  0
LAYOUT
  5
21
102
{ACAD_REACTORS
330
1E
102
}
330
1E
100
AcDbPlotSettings
  1

  2

  4

  6

 40
0.0
 41
0.0
 42
0.0
 43
0.0
 44
0.0
 45
0.0
 46
0.0
 47
0.0
 48
0.0
 49
0.0
140
0.0
141
0.0
142
1.0
143
1.0
 70
     0
 72
     0
 73
     0
 74
     0
  7

 75
     0
 76
     0
 77
     2
 78
   300
147
1.0
148
0.0
149
0.0
100
AcDbLayout
  1
Layout1
 70
     0
 71
     0
 10
0.0
 20
0.0
 11
0.0
 21
0.0
 12
0.0
 22
0.0
 32
0.0
 14
0.0
 24
0.0
 34
0.0
 15
0.0
 25
0.0
 35
0.0
146
0.0
 13
0.0
 23
0.0
 33
0.0
 16
0.0
 26
0.0
 36
0.0
 17
0.0
 27
0.0
 37
0.0
 76
     0
330
B
331
127
  0
LAYOUT
  5
20
102
{ACAD_REACTORS
330
1E
102
}
330
1E
100
AcDbPlotSettings
  1

  2

  4

  6

 40
0.0
 41
0.0
 42
0.0
 43
0.0
 44
0.0
 45
0.0
 46
0.0
 47
0.0
 48
0.0
 49
0.0
140
0.0
141
0.0
142
1.0
143
1.0
 70
  1024
 72
     0
 73
     0
 74
     0
  7

 75
     0
 76
     0
 77
     2
 78
   300
147
1.0
148
0.0
149
0.0
100
AcDbLayout
  1
Model
 70
     0
 71
     0
 10
0.0
 20
0.0
 11
0.0
 21
0.0
 12
0.0
 22
0.0
 32
0.0
 14
0.0
 24
0.0
 34
0.0
 15
0.0
 25
0.0
 35
0.0
146
0.0
 13
0.0
 23
0.0
 33
0.0
 16
0.0
 26
0.0
 36
0.0
 17
0.0
 27
0.0
 37
0.0
 76
     0
330
A
331
15
  0
MLINESTYLE
  5
1C
102
{ACAD_REACTORS
330
1B
102
}
330
1B
100
AcDbMlineStyle
  2
Standard
 70
     0
  3

 62
     0
 51
90.0
 52
90.0
 71
     2
 49
0.5
 62
   256
  6
BYLAYER
 49
-0.5
 62
   256
  6
BYLAYER
  0
ACDBPLACEHOLDER
  5
1D
102
{ACAD_REACTORS
330
1F
102
}
330
1F
  0
SCALE
  5
129
102
{ACAD_REACTORS
330
128
102
}
330
128
100
AcDbScale
 70
     0
300
1:1
140
1.0
141
1.0
290
     1
  0
SCALE
  5
12A
102
{ACAD_REACTORS
330
128
102
}
330
128
100
AcDbScale
 70
     0
300
1:2
140
1.0
141
2.0
290
     0
  0
SCALE
  5
12B
102
{ACAD_REACTORS
330
128
102
}
330
128
100
AcDbScale
 70
     0
300
1:4
140
1.0
141
4.0
290
     0
  0
SCALE
  5
12C
102
{ACAD_REACTORS
330
128
102
}
330
128
100
AcDbScale
 70
     0
300
1:5
140
1.0
141
5.0
290
     0
  0
SCALE
  5
12D
102
{ACAD_REACTORS
330
128
102
}
330
128
100
AcDbScale
 70
     0
300
1:8
140
1.0
141
8.0
290
     0
  0
SCALE
  5
12E
102
{ACAD_REACTORS
330
128
102
}
330
128
100
AcDbScale
 70
     0
300
1:10
140
1.0
141
10.0
290
     0
  0
SCALE
  5
12F
102
{ACAD_REACTORS
330
128
102
}
330
128
100
AcDbScale
 70
     0
300
1:16
140
1.0
141
16.0
290
     0
  0
SCALE
  5
130
102
{ACAD_REACTORS
330
128
102
}
330
128
100
AcDbScale
 70
     0
300
1:20
140
1.0
141
20.0
290
     0
  0
SCALE
  5
131
102
{ACAD_REACTORS
330
128
102
}
330
128
100
AcDbScale
 70
     0
300
1:30
140
1.0
141
30.0
290
     0
  0
SCALE
  5
132
102
{ACAD_REACTORS
330
128
102
}
330
128
100
AcDbScale
 70
     0
300
1:40
140
1.0
141
40.0
290
     0
  0
SCALE
  5
133
102
{ACAD_REACTORS
330
128
102
}
330
128
100
AcDbScale
 70
     0
300
1:50
140
1.0
141
50.0
290
     0
  0
SCALE
  5
134
102
{ACAD_REACTORS
330
128
102
}
330
128
100
AcDbScale
 70
     0
300
1:100
140
1.0
141
100.0
290
     0
  0
SCALE
  5
135
102
{ACAD_REACTORS
330
128
102
}
330
128
100
AcDbScale
 70
     0
300
2:1
140
2.0
141
1.0
290
     0
  0
SCALE
  5
136
102
{ACAD_REACTORS
330
128
102
}
330
128
100
AcDbScale
 70
     0
300
4:1
140
4.0
141
1.0
290
     0
  0
SCALE
  5
137
102
{ACAD_REACTORS
330
128
102
}
330
128
100
AcDbScale
 70
     0
300
8:1
140
8.0
141
1.0
290
     0
  0
SCALE
  5
138
102
{ACAD_REACTORS
330
128
102
}
330
128
100
AcDbScale
 70
     0
300
10:1
140
10.0
141
1.0
290
     0
  0
SCALE
  5
139
102
{ACAD_REACTORS
330
128
102
}
330
128
100
AcDbScale
 70
     0
300
100:1
140
100.0
141
1.0
290
     0
  0
SCALE
  5
13A
102
{ACAD_REACTORS
330
128
102
}
330
128
100
AcDbScale
 70
     0
300
1/128" = 1'-0"
140
0.0078125
141
12.0
290
     0
  0
SCALE
  5
13B
102
{ACAD_REACTORS
330
128
102
}
330
128
100
AcDbScale
 70
     0
300
1/64" = 1'-0"
140
0.015625
141
12.0
290
     0
  0
SCALE
  5
13C
102
{ACAD_REACTORS
330
128
102
}
330
128
100
AcDbScale
 70
     0
300
1/32" = 1'-0"
140
0.03125
141
12.0
290
     0
  0
SCALE
  5
13D
102
{ACAD_REACTORS
330
128
102
}
330
128
100
AcDbScale
 70
     0
300
1/16" = 1'-0"
140
0.0625
141
12.0
290
     0
  0
SCALE
  5
13E
102
{ACAD_REACTORS
330
128
102
}
330
128
100
AcDbScale
 70
     0
300
3/32" = 1'-0"
140
0.09375
141
12.0
290
     0
  0
SCALE
  5
13F
102
{ACAD_REACTORS
330
128
102
}
330
128
100
AcDbScale
 70
     0
300
1/8" = 1'-0"
140
0.125
141
12.0
290
     0
  0
SCALE
  5
140
102
{ACAD_REACTORS
330
128
102
}
330
128
100
AcDbScale
 70
     0
300
3/16" = 1'-0"
140
0.1875
141
12.0
290
     0
  0
SCALE
  5
141
102
{ACAD_REACTORS
330
128
102
}
330
128
100
AcDbScale
 70
     0
300
1/4" = 1'-0"
140
0.25
141
12.0
290
     0
  0
SCALE
  5
142
102
{ACAD_REACTORS
330
128
102
}
330
128
100
AcDbScale
 70
     0
300
3/8" = 1'-0"
140
0.375
141
12.0
290
     0
  0
SCALE
  5
143
102
{ACAD_REACTORS
330
128
102
}
330
128
100
AcDbScale
 70
     0
300
1/2" = 1'-0"
140
0.5
141
12.0
290
     0
  0
SCALE
  5
144
102
{ACAD_REACTORS
330
128
102
}
330
128
100
AcDbScale
 70
     0
300
3/4" = 1'-0"
140
0.75
141
12.0
290
     0
  0
SCALE
  5
145
102
{ACAD_REACTORS
330
128
102
}
330
128
100
AcDbScale
 70
     0
300
1" = 1'-0"
140
1.0
141
12.0
290
     0
  0
SCALE
  5
146
102
{ACAD_REACTORS
330
128
102
}
330
128
100
AcDbScale
 70
     0
300
1-1/2" = 1'-0"
140
1.5
141
12.0
290
     0
  0
SCALE
  5
147
102
{ACAD_REACTORS
330
128
102
}
330
128
100
AcDbScale
 70
     0
300
3" = 1'-0"
140
3.0
141
12.0
290
     0
  0
SCALE
  5
148
102
{ACAD_REACTORS
330
128
102
}
330
128
100
AcDbScale
 70
     0
300
6" = 1'-0"
140
6.0
141
12.0
290
     0
  0
SCALE
  5
149
102
{ACAD_REACTORS
330
128
102
}
330
128
100
AcDbScale
 70
     0
300
1'-0" = 1'-0"
140
12.0
141
12.0
290
     0
  0
DICTIONARYVAR
  5
14D
102
{ACAD_REACTORS
330
14C
102
}
330
14C
100
DictionaryVariables
280
     0
  1
1:1
  0
ENDSEC
  0
EOF
