  0
SECTION
  2
HEADER
  9
$ACADVER
  1
AC1021
  9
$ACADMAINTVER
 70
    25
  9
$DWGCODEPAGE
  3
ANSI_1252
  9
$INSBASE
 10
0.0
 20
0.0
 30
0.0
  9
$EXTMIN
 10
0.0
 20
0.0
 30
0.0
  9
$EXTMAX
 10
315.145508
 20
236.472382
 30
2.0
  9
$LIMMIN
 10
0.0
 20
0.0
  9
$LIMMAX
 10
420.0
 20
297.0
  9
$ORTHOMODE
 70
     0
  9
$REGENMODE
 70
     1
  9
$FILLMODE
 70
     1
  9
$QTEXTMODE
 70
     0
  9
$MIRRTEXT
 70
     1
  9
$LTSCALE
 40
1.0
  9
$ATTMODE
 70
     1
  9
$TEXTSIZE
 40
2.5
  9
$TRACEWID
 40
1.0
  9
$TEXTSTYLE
  7
Standard
  9
$CLAYER
  8
0
  9
$CELTYPE
  6
ByLayer
  9
$CECOLOR
 62
   256
  9
$CELTSCALE
 40
1.0
  9
$DISPSILH
 70
     0
  9
$DIMSCALE
 40
1.0
  9
$DIMASZ
 40
2.5
  9
$DIMEXO
 40
0.625
  9
$DIMDLI
 40
3.75
  9
$DIMRND
 40
0.0
  9
$DIMDLE
 40
0.0
  9
$DIMEXE
 40
1.25
  9
$DIMTP
 40
0.0
  9
$DIMTM
 40
0.0
  9
$DIMTXT
 40
2.5
  9
$DIMCEN
 40
2.5
  9
$DIMTSZ
 40
0.0
  9
$DIMTOL
 70
     0
  9
$DIMLIM
 70
     0
  9
$DIMTIH
 70
     0
  9
$DIMTOH
 70
     0
  9
$DIMSE1
 70
     0
  9
$DIMSE2
 70
     0
  9
$DIMTAD
 70
     1
  9
$DIMZIN
 70
     8
  9
$DIMBLK
  1

  9
$DIMASO
 70
     1
  9
$DIMSHO
 70
     1
  9
$DIMPOST
  1

  9
$DIMAPOST
  1

  9
$DIMALT
 70
     0
  9
$DIMALTD
 70
     3
  9
$DIMALTF
 40
0.03937
  9
$DIMLFAC
 40
1.0
  9
$DIMTOFL
 70
     1
  9
$DIMTVP
 40
0.0
  9
$DIMTIX
 70
     0
  9
$DIMSOXD
 70
     0
  9
$DIMSAH
 70
     0
  9
$DIMBLK1
  1

  9
$DIMBLK2
  1

  9
$DIMSTYLE
  2
Standard
  9
$DIMCLRD
 70
     0
  9
$DIMCLRE
 70
     0
  9
$DIMCLRT
 70
     0
  9
$DIMTFAC
 40
1.0
  9
$DIMGAP
 40
0.625
  9
$DIMJUST
 70
     0
  9
$DIMSD1
 70
     0
  9
$DIMSD2
 70
     0
  9
$DIMTOLJ
 70
     0
  9
$DIMTZIN
 70
     8
  9
$DIMALTZ
 70
     0
  9
$DIMALTTZ
 70
     0
  9
$DIMUPT
 70
     0
  9
$DIMDEC
 70
     2
  9
$DIMTDEC
 70
     2
  9
$DIMALTU
 70
     2
  9
$DIMALTTD
 70
     3
  9
$DIMTXSTY
  7
Standard
  9
$DIMAUNIT
 70
     0
  9
$DIMADEC
 70
     0
  9
$DIMALTRND
 40
0.0
  9
$DIMAZIN
 70
     0
  9
$DIMDSEP
 70
    44
  9
$DIMATFIT
 70
     0
  9
$DIMFRAC
 70
     0
  9
$DIMLDRBLK
  1

  9
$DIMLUNIT
 70
     2
  9
$DIMLWD
 70
    -2
  9
$DIMLWE
 70
    -2
  9
$DIMTMOVE
 70
     0
  9
$DIMFXL
 40
1.0
  9
$DIMFXLON
 70
     0
  9
$DIMJOGANG
 40
0.7853981633974483
  9
$DIMTFILL
 70
     0
  9
$DIMTFILLCLR
 70
     0
  9
$DIMARCSYM
 70
     0
  9
$DIMLTYPE
  6

  9
$DIMLTEX1
  6

  9
$DIMLTEX2
  6

  9
$LUNITS
 70
     2
  9
$LUPREC
 70
     4
  9
$SKETCHINC
 40
1.0
  9
$FILLETRAD
 40
2.5
  9
$AUNITS
 70
     0
  9
$AUPREC
 70
     0
  9
$MENU
  1
.
  9
$ELEVATION
 40
0.0
  9
$PELEVATION
 40
0.0
  9
$THICKNESS
 40
0.0
  9
$LIMCHECK
 70
     0
  9
$CHAMFERA
 40
2.5
  9
$CHAMFERB
 40
2.5
  9
$CHAMFERC
 40
0.0
  9
$CHAMFERD
 40
0.0
  9
$SKPOLY
 70
     0
  9
$TDCREATE
 40
2447893.041666667
  9
$TDUCREATE
 40
0.0
  9
$TDUPDATE
 40
2447893.041666667
  9
$TDUUPDATE
 40
0.0
  9
$TDINDWG
 40
0.0
  9
$TDUSRTIMER
 40
0.0
  9
$USRTIMER
 70
     1
  9
$ANGBASE
 50
0.0
  9
$ANGDIR
 70
     0
  9
$PDMODE
 70
     0
  9
$PDSIZE
 40
0.0
  9
$PLINEWID
 40
0.0
  9
$SPLFRAME
 70
     0
  9
$SPLINETYPE
 70
     6
  9
$SPLINESEGS
 70
     8
  9
$HANDSEED
  5
ED
  9
$SURFTAB1
 70
     6
  9
$SURFTAB2
 70
     6
  9
$SURFTYPE
 70
     6
  9
$SURFU
 70
     6
  9
$SURFV
 70
     6
  9
$UCSBASE
  2

  9
$UCSNAME
  2

  9
$UCSORG
 10
0.0
 20
0.0
 30
0.0
  9
$UCSXDIR
 10
1.0
 20
0.0
 30
0.0
  9
$UCSYDIR
 10
0.0
 20
1.0
 30
0.0
  9
$UCSORTHOREF
  2

  9
$UCSORTHOVIEW
 70
     1
  9
$UCSORGTOP
 10
0.0
 20
0.0
 30
0.0
  9
$UCSORGBOTTOM
 10
0.0
 20
0.0
 30
0.0
  9
$UCSORGLEFT
 10
0.0
 20
0.0
 30
0.0
  9
$UCSORGRIGHT
 10
0.0
 20
0.0
 30
0.0
  9
$UCSORGFRONT
 10
0.0
 20
0.0
 30
0.0
  9
$UCSORGBACK
 10
0.0
 20
0.0
 30
0.0
  9
$PUCSBASE
  2

  9
$PUCSNAME
  2

  9
$PUCSORG
 10
0.0
 20
0.0
 30
0.0
  9
$PUCSXDIR
 10
1.0
 20
0.0
 30
0.0
  9
$PUCSYDIR
 10
0.0
 20
1.0
 30
0.0
  9
$PUCSORTHOREF
  2

  9
$PUCSORTHOVIEW
 70
     0
  9
$PUCSORGTOP
 10
0.0
 20
0.0
 30
0.0
  9
$PUCSORGBOTTOM
 10
0.0
 20
0.0
 30
0.0
  9
$PUCSORGLEFT
 10
0.0
 20
0.0
 30
0.0
  9
$PUCSORGRIGHT
 10
0.0
 20
0.0
 30
0.0
  9
$PUCSORGFRONT
 10
0.0
 20
0.0
 30
0.0
  9
$PUCSORGBACK
 10
0.0
 20
0.0
 30
0.0
  9
$USERI1
 70
     0
  9
$USERI2
 70
     0
  9
$USERI3
 70
     0
  9
$USERI4
 70
     0
  9
$USERI5
 70
     0
  9
$USERR1
 40
0.0
  9
$USERR2
 40
0.0
  9
$USERR3
 40
0.0
  9
$USERR4
 40
0.0
  9
$USERR5
 40
0.0
  9
$WORLDVIEW
 70
     1
  9
$SHADEDGE
 70
     3
  9
$SHADEDIF
 70
    70
  9
$TILEMODE
 70
     1
  9
$MAXACTVP
 70
    48
  9
$PINSBASE
 10
0.0
 20
0.0
 30
0.0
  9
$PLIMCHECK
 70
     0
  9
$PEXTMIN
 10
0.0
 20
0.0
 30
0.0
  9
$PEXTMAX
 10
315.145508
 20
236.472382
 30
2.0
  9
$PLIMMIN
 10
0.0
 20
0.0
  9
$PLIMMAX
 10
420.0
 20
297.0
  9
$UNITMODE
 70
     0
  9
$VISRETAIN
 70
     0
  9
$PLINEGEN
 70
     0
  9
$PSLTSCALE
 70
     1
  9
$TREEDEPTH
 70
  3020
  9
$CMLSTYLE
  2
Standard
  9
$CMLJUST
 70
     0
  9
$CMLSCALE
 40
20.0
  9
$PROXYGRAPHICS
 70
     1
  9
$MEASUREMENT
 70
     1
  9
$CELWEIGHT
370
    -1
  9
$ENDCAPS
280
     0
  9
$JOINSTYLE
280
     0
  9
$LWDISPLAY
290
     0
  9
$INSUNITS
 70
     0
  9
$HYPERLINKBASE
  1

  9
$STYLESHEET
  1

  9
$XEDIT
290
     1
  9
$CEPSNTYPE
380
     0
  9
$PSTYLEMODE
290
     0
  9
$FINGERPRINTGUID
  2

  9
$VERSIONGUID
  2

  9
$EXTNAMES
290
     0
  9
$PSVPSCALE
 40
0.0
  9
$OLESTARTUP
290
     0
  9
$SORTENTS
280
   127
  9
$INDEXCTL
280
     0
  9
$HIDETEXT
280
     1
  9
$XCLIPFRAME
290
     0
  9
$HALOGAP
280
     0
  9
$OBSCOLOR
 70
   257
  9
$OBSLTYPE
280
     0
  9
$INTERSECTIONDISPLAY
280
     0
  9
$INTERSECTIONCOLOR
 70
   257
  9
$DIMASSOC
280
     2
  9
$PROJECTNAME
  1

  9
$CAMERADISPLAY
290
     0
  9
$LENSLENGTH
 40
50.0
  9
$CAMERAHEIGHT
 40
0.0
  9
$STEPSPERSEC
 40
2.0
  9
$STEPSIZE
 40
6.0
  9
$3DDWFPREC
 40
2.0
  9
$PSOLWIDTH
 40
0.25
  9
$PSOLHEIGHT
 40
4.0
  9
$LOFTANG1
 40
1.570796326794897
  9
$LOFTANG2
 40
1.570796326794897
  9
$LOFTMAG1
 40
0.0
  9
$LOFTMAG2
 40
0.0
  9
$LOFTPARAM
 70
     7
  9
$LOFTNORMALS
280
     1
  9
$LATITUDE
 40
37.795
  9
$LONGITUDE
 40
-122.394
  9
$NORTHDIRECTION
 40
0.0
  9
$TIMEZONE
 70
 -8000
  9
$LIGHTGLYPHDISPLAY
280
     1
  9
$TILEMODELIGHTSYNCH
280
     1
  9
$SOLIDHIST
280
     1
  9
$SHOWHIST
280
     1
  9
$DWFFRAME
280
     2
  9
$DGNFRAME
280
     2
  9
$REALWORLDSCALE
290
     1
  9
$INTERFERECOLOR
 62
   256
  9
$CSHADOW
280
     0
  9
$SHADOWPLANELOCATION
 40
0.0
  0
ENDSEC
  0
SECTION
  2
CLASSES
  0
CLASS
  1
LWPOLYLINE
  2
AcDbPolyline
  3
AutoCAD 2000
 90
        0
 91
        1
280
     0
281
     1
  0
CLASS
  1
IMAGE
  2
AcDbRasterImage
  3
ISM
 90
      127
 91
        5
280
     0
281
     1
  0
CLASS
  1
OLE2FRAME
  2
AcDbOle2Frame
  3
AutoCAD 2000
 90
        0
 91
        1
280
     0
281
     1
  0
CLASS
  1
HATCH
  2
AcDbHatch
  3
AutoCAD 2000
 90
        0
 91
        1
280
     0
281
     1
  0
CLASS
  1
DICTIONARYVAR
  2
AcDbDictionaryVar
  3
ObjectDBX Classes
 90
        0
 91
        4
280
     0
281
     0
  0
CLASS
  1
RASTERVARIABLES
  2
AcDbRasterVariables
  3
ISM
 90
        0
 91
        4
280
     0
281
     0
  0
CLASS
  1
IMAGEDEF
  2
AcDbRasterImageDef
  3
ISM
 90
        0
 91
        4
280
     0
281
     0
  0
CLASS
  1
IMAGEDEF_REACTOR
  2
AcDbRasterImageDefReactor
  3
ISM
 90
        1
 91
        4
280
     0
281
     0
  0
CLASS
  1
IDBUFFER
  2
AcDbIdBuffer
  3
ObjectDBX Classes
 90
        0
 91
        4
280
     0
281
     0
  0
CLASS
  1
SPATIAL_FILTER
  2
AcDbSpatialFilter
  3
ObjectDBX Classes
 90
        0
 91
        4
280
     0
281
     0
  0
CLASS
  1
XRECORD
  2
AcDbXrecord
  3
AutoCAD 2000
 90
        0
 91
        1
280
     0
281
     0
  0
CLASS
  1
SORTENTSTABLE
  2
AcDbSortentsTable
  3
ObjectDBX Classes
 90
        0
 91
        4
280
     0
281
     0
  0
CLASS
  1
LAYER_INDEX
  2
AcDbLayerIndex
  3
ObjectDBX Classes
 90
        0
 91
        4
280
     0
281
     0
  0
CLASS
  1
SPATIAL_INDEX
  2
AcDbSpatialIndex
  3
AutoCAD 2000
 90
        0
 91
        4
280
     0
281
     0
  0
CLASS
  1
OBJECT_PTR
  2
CAseDLPNTableRecord
  3
ASE-LPNTableRecord
 90
        1
 91
        4
280
     0
281
     0
  0
CLASS
  1
LAYOUT
  2
AcDbLayout
  3
ObjectDBX Classes
 90
        0
 91
        1
280
     0
281
     0
  0
CLASS
  1
PLOTSETTINGS
  2
AcDbPlotSettings
  3
ObjectDBX Classes
 90
        0
 91
        4
280
     0
281
     0
  0
CLASS
  1
ACDBDICTIONARYWDFLT
  2
AcDbDictionaryWithDefault
  3
ObjectDBX Classes
 90
        0
 91
        4
280
     0
281
     0
  0
CLASS
  1
ACDBPLACEHOLDER
  2
AcDbPlaceHolder
  3
ObjectDBX Classes
 90
        0
 91
        1
280
     0
281
     0
  0
CLASS
  1
VBA_PROJECT
  2
AcDbVbaProject
  3
ObjectDBX Classes
 90
        0
 91
        1
280
     0
281
     0
  0
CLASS
  1
WIPEOUT
  2
AcDbWipeout
  3
WipeOut|AutoCAD Express Tool|expresstools@autodesk.com
 90
      127
 91
        4
280
     0
281
     1
  0
CLASS
  1
WIPEOUTVARIABLES
  2
AcDbWipeoutVariables
  3
WipeOut|AutoCAD Express Tool|expresstools@autodesk.com
 90
        0
 91
        4
280
     0
281
     0
  0
CLASS
  1
RTEXT
  2
RText
  3
RText|AutoCAD Express Tool|expresstools@autodesk.com
 90
        0
 91
        4
280
     0
281
     1
  0
CLASS
  1
ARCALIGNEDTEXT
  2
AcDbArcAlignedText
  3
ATEXT|AutoCAD Express Tool|expresstools@autodesk.com
 90
        0
 91
        4
280
     0
281
     1
  0
CLASS
  1
SCALE
  2
AcDbScale
  3
ObjectDBX Classes
 90
     1153
 91
        4
280
     0
281
     0
  0
ENDSEC
  0
SECTION
  2
TABLES
  0
TABLE
  2
VPORT
  5
7
330
0
100
AcDbSymbolTable
 70
     1
  0
VPORT
  5
15
330
7
100
AcDbSymbolTableRecord
100
AcDbViewportTableRecord
  2
*ACTIVE
 70
     0
 10
0.0
 20
0.0
 11
1.0
 21
1.0
 12
6.591288
 22
4.579184
 13
0.0
 23
0.0
 14
1.0
 24
1.0
 15
0.0
 25
0.0
 16
0.0
 26
0.0
 36
1.0
 17
0.0
 27
0.0
 37
0.0
 40
9.158369
 41
0.688564
 42
50.0
 43
0.0
 44
0.0
 50
0.0
 51
0.0
 71
     0
 72
   100
 73
     1
 74
     1
 75
     0
 76
     0
 77
     0
 78
     0
281
     0
 65
     0
110
0.0
120
0.0
130
0.0
111
1.0
121
0.0
131
0.0
112
0.0
122
1.0
132
0.0
 79
     0
146
0.0
 60
     3
 61
     5
292
     1
282
     1
141
0.0
142
0.0
 63
   256
  0
ENDTAB
  0
TABLE
  2
LTYPE
  5
4
330
0
100
AcDbSymbolTable
 70
     1
  0
LTYPE
  5
11
330
4
100
AcDbSymbolTableRecord
100
AcDbLinetypeTableRecord
  2
ByBlock
 70
     0
  3

 72
    65
 73
     0
 40
0.0
  0
LTYPE
  5
12
330
4
100
AcDbSymbolTableRecord
100
AcDbLinetypeTableRecord
  2
ByLayer
 70
     0
  3

 72
    65
 73
     0
 40
0.0
  0
LTYPE
  5
13
330
4
100
AcDbSymbolTableRecord
100
AcDbLinetypeTableRecord
  2
Continuous
 70
     0
  3
Solid line
 72
    65
 73
     0
 40
0.0
  0
ENDTAB
  0
TABLE
  2
LAYER
  5
2
330
0
100
AcDbSymbolTable
 70
     1
  0
LAYER
  5
14
330
2
100
AcDbSymbolTableRecord
100
AcDbLayerTableRecord
  2
0
 70
     0
 62
     7
  6
Continuous
370
    -3
390
1D
347
0
  0
ENDTAB
  0
TABLE
  2
STYLE
  5
3
330
0
100
AcDbSymbolTable
 70
     1
  0
STYLE
  5
17
330
3
100
AcDbSymbolTableRecord
100
AcDbTextStyleTableRecord
  2
Standard
 70
     0
 40
0.0
 41
1.0
 50
0.0
 71
     0
 42
2.5
  3
txt
  4

  0
ENDTAB
  0
TABLE
  2
VIEW
  5
5
330
0
100
AcDbSymbolTable
 70
     0
  0
ENDTAB
  0
TABLE
  2
UCS
  5
6
330
0
100
AcDbSymbolTable
 70
     0
  0
ENDTAB
  0
TABLE
  2
APPID
  5
8
330
0
100
AcDbSymbolTable
 70
     1
  0
APPID
  5
16
330
8
100
AcDbSymbolTableRecord
100
AcDbRegAppTableRecord
  2
ACAD
 70
     0
  0
ENDTAB
  0
TABLE
  2
DIMSTYLE
  5
9
330
0
100
AcDbSymbolTable
 70
     1
100
AcDbDimStyleTable
  0
DIMSTYLE
105
18
330
9
100
AcDbSymbolTableRecord
100
AcDbDimStyleTableRecord
  2
Standard
 70
     0
340
17
  0
ENDTAB
  0
TABLE
  2
BLOCK_RECORD
  5
1
330
0
100
AcDbSymbolTable
 70
     0
  0
BLOCK_RECORD
  5
A
330
1
100
AcDbSymbolTableRecord
100
AcDbBlockTableRecord
  2
*MODEL_SPACE
340
20
 70
     0
280
     1
281
     0
  0
BLOCK_RECORD
  5
B
330
1
100
AcDbSymbolTableRecord
100
AcDbBlockTableRecord
  2
*PAPER_SPACE
340
21
 70
     0
280
     1
281
     0
  0
ENDTAB
  0
ENDSEC
  0
SECTION
  2
BLOCKS
  0
BLOCK
  5
D
330
A
100
AcDbEntity
  8
0
390
1D
100
AcDbBlockBegin
  2
*MODEL_SPACE
 70
     0
 10
0.0
 20
0.0
 30
0.0
  3
*MODEL_SPACE
  1

  0
ENDBLK
  5
E
330
A
100
AcDbEntity
  8
0
390
1D
100
AcDbBlockEnd
  0
BLOCK
  5
F
330
B
100
AcDbEntity
 67
     1
  8
0
390
1D
100
AcDbBlockBegin
  2
*PAPER_SPACE
 70
     0
 10
0.0
 20
0.0
 30
0.0
  3
*PAPER_SPACE
  1

  0
ENDBLK
  5
10
330
B
100
AcDbEntity
 67
     1
  8
0
390
1D
100
AcDbBlockEnd
  0
ENDSEC
  0
SECTION
  2
ENTITIES
  0
POLYLINE
  5
24
330
A
100
AcDbEntity
  8
0
 62
     7
370
    13
390
1D
100
AcDb2dPolyline
 66
     1
 10
0.0
 20
0.0
 30
0.0
 70
     1
  0
VERTEX
  5
25
330
24
100
AcDbEntity
  8
0
 62
     7
370
     0
390
1D
100
AcDbVertex
100
AcDb2dVertex
 10
110.551468
 20
155.915207
 30
0.0
  0
VERTEX
  5
26
330
24
100
AcDbEntity
  8
0
 62
     7
370
     0
390
1D
100
AcDbVertex
100
AcDb2dVertex
 10
110.551468
 20
156.369095
 30
0.0
  0
VERTEX
  5
27
330
24
100
AcDbEntity
  8
0
 62
     7
370
     0
390
1D
100
AcDbVertex
100
AcDb2dVertex
 10
109.684036
 20
156.369095
 30
0.0
  0
VERTEX
  5
28
330
24
100
AcDbEntity
  8
0
 62
     7
370
     0
390
1D
100
AcDbVertex
100
AcDb2dVertex
 10
109.684036
 20
156.868378
 30
0.0
  0
VERTEX
  5
29
330
24
100
AcDbEntity
  8
0
 62
     7
370
     0
390
1D
100
AcDbVertex
100
AcDb2dVertex
 10
109.280571
 20
156.868378
 30
0.0
  0
VERTEX
  5
2A
330
24
100
AcDbEntity
  8
0
 62
     7
370
     0
390
1D
100
AcDbVertex
100
AcDb2dVertex
 10
109.280571
 20
156.369095
 30
0.0
  0
VERTEX
  5
2B
330
24
100
AcDbEntity
  8
0
 62
     7
370
     0
390
1D
100
AcDbVertex
100
AcDb2dVertex
 10
107.127113
 20
156.369095
 30
0.0
  0
VERTEX
  5
2C
330
24
100
AcDbEntity
  8
0
 62
     7
370
     0
390
1D
100
AcDbVertex
100
AcDb2dVertex
 10
107.127113
 20
155.910156
 30
0.0
  0
VERTEX
  5
2D
330
24
100
AcDbEntity
  8
0
 62
     7
370
     0
390
1D
100
AcDbVertex
100
AcDb2dVertex
 10
109.240227
 20
154.377014
 30
0.0
  0
VERTEX
  5
2E
330
24
100
AcDbEntity
  8
0
 62
     7
370
     0
390
1D
100
AcDbVertex
100
AcDb2dVertex
 10
109.684036
 20
154.377014
 30
0.0
  0
VERTEX
  5
2F
330
24
100
AcDbEntity
  8
0
 62
     7
370
     0
390
1D
100
AcDbVertex
100
AcDb2dVertex
 10
109.684036
 20
155.915207
 30
0.0
  0
SEQEND
  5
30
330
24
100
AcDbEntity
  8
0
370
     0
390
1D
  0
POLYLINE
  5
31
330
A
100
AcDbEntity
  8
0
 62
     7
370
    13
390
1D
100
AcDb2dPolyline
 66
     1
 10
0.0
 20
0.0
 30
0.0
 70
     1
  0
VERTEX
  5
32
330
31
100
AcDbEntity
  8
0
 62
     7
370
     0
390
1D
100
AcDbVertex
100
AcDb2dVertex
 10
109.280571
 20
154.800659
 30
0.0
  0
VERTEX
  5
33
330
31
100
AcDbEntity
  8
0
 62
     7
370
     0
390
1D
100
AcDbVertex
100
AcDb2dVertex
 10
107.712135
 20
155.915207
 30
0.0
  0
VERTEX
  5
34
330
31
100
AcDbEntity
  8
0
 62
     7
370
     0
390
1D
100
AcDbVertex
100
AcDb2dVertex
 10
109.280571
 20
155.915207
 30
0.0
  0
SEQEND
  5
35
330
31
100
AcDbEntity
  8
0
370
     0
390
1D
  0
POLYLINE
  5
36
330
A
100
AcDbEntity
  8
0
 62
     7
370
    13
390
1D
100
AcDb2dPolyline
 66
     1
 10
0.0
 20
0.0
 30
0.0
 70
     1
  0
VERTEX
  5
37
330
36
100
AcDbEntity
  8
0
 62
     7
370
     0
390
1D
100
AcDbVertex
100
AcDb2dVertex
 10
109.638649
 20
158.123138
 30
0.0
  0
VERTEX
  5
38
330
36
100
AcDbEntity
  8
0
 62
     7
370
     0
390
1D
100
AcDbVertex
100
AcDb2dVertex
 10
110.052177
 20
158.234085
 30
0.0
  0
VERTEX
  5
39
330
36
100
AcDbEntity
  8
0
 62
     7
370
     0
390
1D
100
AcDbVertex
100
AcDb2dVertex
 10
110.374954
 20
158.481201
 30
0.0
  0
VERTEX
  5
3A
330
36
100
AcDbEntity
  8
0
 62
     7
370
     0
390
1D
100
AcDbVertex
100
AcDb2dVertex
 10
110.576675
 20
158.844315
 30
0.0
  0
VERTEX
  5
3B
330
36
100
AcDbEntity
  8
0
 62
     7
370
     0
390
1D
100
AcDbVertex
100
AcDb2dVertex
 10
110.652336
 20
159.308289
 30
0.0
  0
VERTEX
  5
3C
330
36
100
AcDbEntity
  8
0
 62
     7
370
     0
390
1D
100
AcDbVertex
100
AcDb2dVertex
 10
110.561562
 20
159.817657
 30
0.0
  0
VERTEX
  5
3D
330
36
100
AcDbEntity
  8
0
 62
     7
370
     0
390
1D
100
AcDbVertex
100
AcDb2dVertex
 10
110.31443
 20
160.216064
 30
0.0
  0
VERTEX
  5
3E
330
36
100
AcDbEntity
  8
0
 62
     7
370
     0
390
1D
100
AcDbVertex
100
AcDb2dVertex
 10
109.921059
 20
160.468231
 30
0.0
  0
VERTEX
  5
3F
330
36
100
AcDbEntity
  8
0
 62
     7
370
     0
390
1D
100
AcDbVertex
100
AcDb2dVertex
 10
109.41674
 20
160.564056
 30
0.0
  0
VERTEX
  5
40
330
36
100
AcDbEntity
  8
0
 62
     7
370
     0
390
1D
100
AcDbVertex
100
AcDb2dVertex
 10
108.947731
 20
160.478317
 30
0.0
  0
VERTEX
  5
41
330
36
100
AcDbEntity
  8
0
 62
     7
370
     0
390
1D
100
AcDbVertex
100
AcDb2dVertex
 10
108.579567
 20
160.236237
 30
0.0
  0
VERTEX
  5
42
330
36
100
AcDbEntity
  8
0
 62
     7
370
     0
390
1D
100
AcDbVertex
100
AcDb2dVertex
 10
108.342522
 20
159.858002
 30
0.0
  0
VERTEX
  5
43
330
36
100
AcDbEntity
  8
0
 62
     7
370
     0
390
1D
100
AcDbVertex
100
AcDb2dVertex
 10
108.25679
 20
159.368805
 30
0.0
  0
VERTEX
  5
44
330
36
100
AcDbEntity
  8
0
 62
     7
370
     0
390
1D
100
AcDbVertex
100
AcDb2dVertex
 10
108.317314
 20
158.99057
 30
0.0
  0
VERTEX
  5
45
330
36
100
AcDbEntity
  8
0
 62
     7
370
     0
390
1D
100
AcDbVertex
100
AcDb2dVertex
 10
108.483742
 20
158.698059
 30
0.0
  0
VERTEX
  5
46
330
36
100
AcDbEntity
  8
0
 62
     7
370
     0
390
1D
100
AcDbVertex
100
AcDb2dVertex
 10
107.540665
 20
158.839264
 30
0.0
  0
VERTEX
  5
47
330
36
100
AcDbEntity
  8
0
 62
     7
370
     0
390
1D
100
AcDbVertex
100
AcDb2dVertex
 10
107.540665
 20
160.372406
 30
0.0
  0
VERTEX
  5
48
330
36
100
AcDbEntity
  8
0
 62
     7
370
     0
390
1D
100
AcDbVertex
100
AcDb2dVertex
 10
107.127113
 20
160.372406
 30
0.0
  0
VERTEX
  5
49
330
36
100
AcDbEntity
  8
0
 62
     7
370
     0
390
1D
100
AcDbVertex
100
AcDb2dVertex
 10
107.127113
 20
158.501373
 30
0.0
  0
VERTEX
  5
4A
330
36
100
AcDbEntity
  8
0
 62
     7
370
     0
390
1D
100
AcDbVertex
100
AcDb2dVertex
 10
108.983025
 20
158.223999
 30
0.0
  0
VERTEX
  5
4B
330
36
100
AcDbEntity
  8
0
 62
     7
370
     0
390
1D
100
AcDbVertex
100
AcDb2dVertex
 10
108.983025
 20
158.627457
 30
0.0
  0
VERTEX
  5
4C
330
36
100
AcDbEntity
  8
0
 62
     7
370
     0
390
1D
100
AcDbVertex
100
AcDb2dVertex
 10
108.745987
 20
158.919968
 30
0.0
  0
VERTEX
  5
4D
330
36
100
AcDbEntity
  8
0
 62
     7
370
     0
390
1D
100
AcDbVertex
100
AcDb2dVertex
 10
108.660255
 20
159.293167
 30
0.0
  0
VERTEX
  5
4E
330
36
100
AcDbEntity
  8
0
 62
     7
370
     0
390
1D
100
AcDbVertex
100
AcDb2dVertex
 10
108.715736
 20
159.615921
 30
0.0
  0
VERTEX
  5
4F
330
36
100
AcDbEntity
  8
0
 62
     7
370
     0
390
1D
100
AcDbVertex
100
AcDb2dVertex
 10
108.877113
 20
159.863037
 30
0.0
  0
VERTEX
  5
50
330
36
100
AcDbEntity
  8
0
 62
     7
370
     0
390
1D
100
AcDbVertex
100
AcDb2dVertex
 10
109.124245
 20
160.019379
 30
0.0
  0
VERTEX
  5
51
330
36
100
AcDbEntity
  8
0
 62
     7
370
     0
390
1D
100
AcDbVertex
100
AcDb2dVertex
 10
109.441948
 20
160.07486
 30
0.0
  0
VERTEX
  5
52
330
36
100
AcDbEntity
  8
0
 62
     7
370
     0
390
1D
100
AcDbVertex
100
AcDb2dVertex
 10
109.759682
 20
160.019379
 30
0.0
  0
VERTEX
  5
53
330
36
100
AcDbEntity
  8
0
 62
     7
370
     0
390
1D
100
AcDbVertex
100
AcDb2dVertex
 10
110.00679
 20
159.858002
 30
0.0
  0
VERTEX
  5
54
330
36
100
AcDbEntity
  8
0
 62
     7
370
     0
390
1D
100
AcDbVertex
100
AcDb2dVertex
 10
110.163139
 20
159.610886
 30
0.0
  0
VERTEX
  5
55
330
36
100
AcDbEntity
  8
0
 62
     7
370
     0
390
1D
100
AcDbVertex
100
AcDb2dVertex
 10
110.21862
 20
159.293167
 30
0.0
  0
VERTEX
  5
56
330
36
100
AcDbEntity
  8
0
 62
     7
370
     0
390
1D
100
AcDbVertex
100
AcDb2dVertex
 10
110.183304
 20
159.025864
 30
0.0
  0
VERTEX
  5
57
330
36
100
AcDbEntity
  8
0
 62
     7
370
     0
390
1D
100
AcDbVertex
100
AcDb2dVertex
 10
110.067314
 20
158.819092
 30
0.0
  0
VERTEX
  5
58
330
36
100
AcDbEntity
  8
0
 62
     7
370
     0
390
1D
100
AcDbVertex
100
AcDb2dVertex
 10
109.885757
 20
158.667801
 30
0.0
  0
VERTEX
  5
59
330
36
100
AcDbEntity
  8
0
 62
     7
370
     0
390
1D
100
AcDbVertex
100
AcDb2dVertex
 10
109.638649
 20
158.592148
 30
0.0
  0
SEQEND
  5
5A
330
36
100
AcDbEntity
  8
0
370
     0
390
1D
  0
POLYLINE
  5
5B
330
A
100
AcDbEntity
  8
0
 62
     7
370
    13
390
1D
100
AcDb2dPolyline
 66
     1
 10
0.0
 20
0.0
 30
0.0
 70
     1
  0
VERTEX
  5
5C
330
5B
100
AcDbEntity
  8
0
 62
     7
370
     0
390
1D
100
AcDbVertex
100
AcDb2dVertex
 10
110.551468
 20
163.019104
 30
0.0
  0
VERTEX
  5
5D
330
5B
100
AcDbEntity
  8
0
 62
     7
370
     0
390
1D
100
AcDbVertex
100
AcDb2dVertex
 10
110.551468
 20
163.478027
 30
0.0
  0
VERTEX
  5
5E
330
5B
100
AcDbEntity
  8
0
 62
     7
370
     0
390
1D
100
AcDbVertex
100
AcDb2dVertex
 10
107.02626
 20
163.478027
 30
0.0
  0
VERTEX
  5
5F
330
5B
100
AcDbEntity
  8
0
 62
     7
370
     0
390
1D
100
AcDbVertex
100
AcDb2dVertex
 10
107.02626
 20
163.135086
 30
0.0
  0
VERTEX
  5
60
330
5B
100
AcDbEntity
  8
0
 62
     7
370
     0
390
1D
100
AcDbVertex
100
AcDb2dVertex
 10
107.3339
 20
163.044312
 30
0.0
  0
VERTEX
  5
61
330
5B
100
AcDbEntity
  8
0
 62
     7
370
     0
390
1D
100
AcDbVertex
100
AcDb2dVertex
 10
107.540665
 20
162.862762
 30
0.0
  0
VERTEX
  5
62
330
5B
100
AcDbEntity
  8
0
 62
     7
370
     0
390
1D
100
AcDbVertex
100
AcDb2dVertex
 10
107.661697
 20
162.585373
 30
0.0
  0
VERTEX
  5
63
330
5B
100
AcDbEntity
  8
0
 62
     7
370
     0
390
1D
100
AcDbVertex
100
AcDb2dVertex
 10
107.702042
 20
162.202087
 30
0.0
  0
VERTEX
  5
64
330
5B
100
AcDbEntity
  8
0
 62
     7
370
     0
390
1D
100
AcDbVertex
100
AcDb2dVertex
 10
108.060112
 20
162.202087
 30
0.0
  0
VERTEX
  5
65
330
5B
100
AcDbEntity
  8
0
 62
     7
370
     0
390
1D
100
AcDbVertex
100
AcDb2dVertex
 10
108.060112
 20
163.019104
 30
0.0
  0
SEQEND
  5
66
330
5B
100
AcDbEntity
  8
0
370
     0
390
1D
  0
LINE
  5
67
330
A
100
AcDbEntity
  8
0
 62
     7
370
    13
390
1D
100
AcDbLine
 10
149.812134
 20
84.207184
 30
0.0
 11
110.551468
 21
84.207184
 31
0.0
  0
LINE
  5
68
330
A
100
AcDbEntity
  8
0
 62
     7
370
    13
390
1D
100
AcDbLine
 10
149.812134
 20
234.540527
 30
0.0
 11
110.551468
 21
234.540527
 31
0.0
  0
POLYLINE
  5
69
330
A
100
AcDbEntity
  8
0
 62
     7
370
    13
390
1D
100
AcDb2dPolyline
 66
     1
 10
0.0
 20
0.0
 30
0.0
  0
VERTEX
  5
6A
330
69
100
AcDbEntity
  8
0
 62
     7
370
     0
390
1D
100
AcDbVertex
100
AcDb2dVertex
 10
113.069107
 20
232.608673
 30
0.0
  0
VERTEX
  5
6B
330
69
100
AcDbEntity
  8
0
 62
     7
370
     0
390
1D
100
AcDbVertex
100
AcDb2dVertex
 10
112.551468
 20
234.540527
 30
0.0
  0
VERTEX
  5
6C
330
69
100
AcDbEntity
  8
0
 62
     7
370
     0
390
1D
100
AcDbVertex
100
AcDb2dVertex
 10
112.033829
 20
232.608673
 30
0.0
  0
SEQEND
  5
6D
330
69
100
AcDbEntity
  8
0
370
     0
390
1D
  0
POLYLINE
  5
6E
330
A
100
AcDbEntity
  8
0
 62
     7
370
    13
390
1D
100
AcDb2dPolyline
 66
     1
 10
0.0
 20
0.0
 30
0.0
  0
VERTEX
  5
6F
330
6E
100
AcDbEntity
  8
0
 62
     7
370
     0
390
1D
100
AcDbVertex
100
AcDb2dVertex
 10
112.033829
 20
86.139038
 30
0.0
  0
VERTEX
  5
70
330
6E
100
AcDbEntity
  8
0
 62
     7
370
     0
390
1D
100
AcDbVertex
100
AcDb2dVertex
 10
112.551468
 20
84.207184
 30
0.0
  0
VERTEX
  5
71
330
6E
100
AcDbEntity
  8
0
 62
     7
370
     0
390
1D
100
AcDbVertex
100
AcDb2dVertex
 10
113.069107
 20
86.139038
 30
0.0
  0
SEQEND
  5
72
330
6E
100
AcDbEntity
  8
0
370
     0
390
1D
  0
LINE
  5
73
330
A
100
AcDbEntity
  8
0
 62
     7
370
    13
390
1D
100
AcDbLine
 10
112.551468
 20
84.207184
 30
0.0
 11
112.551468
 21
234.540527
 31
0.0
  0
ARC
  5
74
330
A
100
AcDbEntity
  8
0
 62
     7
370
    35
390
1D
100
AcDbCircle
 10
150.145462
 20
102.54052
 30
0.0
 40
1.666667
100
AcDbArc
 50
0.0
 51
90.000003
  0
LINE
  5
75
330
A
100
AcDbEntity
  8
0
 62
     7
 48
0.25
370
    35
390
1D
100
AcDbLine
 10
150.145462
 20
117.54052
 30
0.0
 11
140.145462
 21
117.54052
 31
0.0
  0
ARC
  5
76
330
A
100
AcDbEntity
  8
0
 62
     7
370
    35
390
1D
100
AcDbCircle
 10
140.145462
 20
115.873848
 30
0.0
 40
1.666667
100
AcDbArc
 50
90.000003
 51
180.000005
  0
LINE
  5
77
330
A
100
AcDbEntity
  8
0
 62
     7
 48
0.25
370
    35
390
1D
100
AcDbLine
 10
138.47879
 20
115.873848
 30
0.0
 11
138.47879
 21
105.873848
 31
0.0
  0
ARC
  5
78
330
A
100
AcDbEntity
  8
0
 62
     7
370
    35
390
1D
100
AcDbCircle
 10
140.145462
 20
105.873848
 30
0.0
 40
1.666667
100
AcDbArc
 50
180.000005
 51
269.999997
  0
LINE
  5
79
330
A
100
AcDbEntity
  8
0
 62
     7
 48
0.25
370
    35
390
1D
100
AcDbLine
 10
140.145462
 20
104.207184
 30
0.0
 11
150.145462
 21
104.207184
 31
0.0
  0
LINE
  5
7A
330
A
100
AcDbEntity
  8
0
 62
     7
 48
0.458333
370
    35
390
1D
100
AcDbLine
 10
151.812134
 20
102.54052
 30
0.0
 11
151.812134
 21
84.207184
 31
0.0
  0
LINE
  5
7B
330
A
100
AcDbEntity
  8
0
 62
     7
370
    35
390
1D
100
AcDbLine
 10
151.812134
 20
84.207184
 30
0.0
 11
301.812134
 21
84.207184
 31
0.0
  0
LINE
  5
7C
330
A
100
AcDbEntity
  8
0
 62
     7
 48
0.458333
370
    35
390
1D
100
AcDbLine
 10
301.812134
 20
84.207184
 30
0.0
 11
301.812134
 21
102.54052
 31
0.0
  0
LINE
  5
7D
330
A
100
AcDbEntity
  8
0
 62
     7
 48
0.25
370
    35
390
1D
100
AcDbLine
 10
303.47879
 20
104.207184
 30
0.0
 11
313.47879
 21
104.207184
 31
0.0
  0
ARC
  5
7E
330
A
100
AcDbEntity
  8
0
 62
     7
370
    35
390
1D
100
AcDbCircle
 10
313.47879
 20
105.873848
 30
0.0
 40
1.666667
100
AcDbArc
 50
269.999997
 51
360.0
  0
LINE
  5
7F
330
A
100
AcDbEntity
  8
0
 62
     7
 48
0.25
370
    35
390
1D
100
AcDbLine
 10
315.145477
 20
105.873848
 30
0.0
 11
315.145477
 21
115.873848
 31
0.0
  0
ARC
  5
80
330
A
100
AcDbEntity
  8
0
 62
     7
370
    35
390
1D
100
AcDbCircle
 10
313.47879
 20
115.873848
 30
0.0
 40
1.666667
100
AcDbArc
 50
0.0
 51
90.000003
  0
LINE
  5
81
330
A
100
AcDbEntity
  8
0
 62
     7
 48
0.25
370
    35
390
1D
100
AcDbLine
 10
313.47879
 20
117.54052
 30
0.0
 11
303.47879
 21
117.54052
 31
0.0
  0
LINE
  5
82
330
A
100
AcDbEntity
  8
0
 62
     7
370
    35
390
1D
100
AcDbLine
 10
301.812134
 20
119.207184
 30
0.0
 11
301.812134
 21
151.207184
 31
0.0
  0
LINE
  5
83
330
A
100
AcDbEntity
  8
0
 62
     7
 48
0.25
370
    35
390
1D
100
AcDbLine
 10
303.47879
 20
152.873856
 30
0.0
 11
313.47879
 21
152.873856
 31
0.0
  0
ARC
  5
84
330
A
100
AcDbEntity
  8
0
 62
     7
370
    35
390
1D
100
AcDbCircle
 10
313.47879
 20
154.540512
 30
0.0
 40
1.666667
100
AcDbArc
 50
269.999997
 51
360.0
  0
LINE
  5
85
330
A
100
AcDbEntity
  8
0
 62
     7
 48
0.25
370
    35
390
1D
100
AcDbLine
 10
315.145477
 20
154.540512
 30
0.0
 11
315.145477
 21
164.540512
 31
0.0
  0
ARC
  5
86
330
A
100
AcDbEntity
  8
0
 62
     7
370
    35
390
1D
100
AcDbCircle
 10
313.47879
 20
164.540512
 30
0.0
 40
1.666667
100
AcDbArc
 50
0.0
 51
90.000003
  0
LINE
  5
87
330
A
100
AcDbEntity
  8
0
 62
     7
 48
0.25
370
    35
390
1D
100
AcDbLine
 10
313.47879
 20
166.207184
 30
0.0
 11
303.47879
 21
166.207184
 31
0.0
  0
LINE
  5
88
330
A
100
AcDbEntity
  8
0
 62
     7
370
    35
390
1D
100
AcDbLine
 10
301.812134
 20
167.873856
 30
0.0
 11
301.812134
 21
199.873856
 31
0.0
  0
LINE
  5
89
330
A
100
AcDbEntity
  8
0
 62
     7
 48
0.25
370
    35
390
1D
100
AcDbLine
 10
303.47879
 20
201.540527
 30
0.0
 11
313.47879
 21
201.540527
 31
0.0
  0
ARC
  5
8A
330
A
100
AcDbEntity
  8
0
 62
     7
370
    35
390
1D
100
AcDbCircle
 10
313.47879
 20
203.207184
 30
0.0
 40
1.666667
100
AcDbArc
 50
269.999997
 51
360.0
  0
LINE
  5
8B
330
A
100
AcDbEntity
  8
0
 62
     7
 48
0.25
370
    35
390
1D
100
AcDbLine
 10
315.145477
 20
203.207184
 30
0.0
 11
315.145477
 21
213.207184
 31
0.0
  0
ARC
  5
8C
330
A
100
AcDbEntity
  8
0
 62
     7
370
    35
390
1D
100
AcDbCircle
 10
313.47879
 20
213.207184
 30
0.0
 40
1.666667
100
AcDbArc
 50
0.0
 51
90.000003
  0
LINE
  5
8D
330
A
100
AcDbEntity
  8
0
 62
     7
 48
0.25
370
    35
390
1D
100
AcDbLine
 10
313.47879
 20
214.873856
 30
0.0
 11
303.47879
 21
214.873856
 31
0.0
  0
LINE
  5
8E
330
A
100
AcDbEntity
  8
0
 62
     7
 48
0.45
370
    35
390
1D
100
AcDbLine
 10
301.812134
 20
216.540527
 30
0.0
 11
301.812134
 21
234.540527
 31
0.0
  0
LINE
  5
8F
330
A
100
AcDbEntity
  8
0
 62
     7
370
    35
390
1D
100
AcDbLine
 10
301.812134
 20
234.540527
 30
0.0
 11
151.812134
 21
234.540527
 31
0.0
  0
LINE
  5
90
330
A
100
AcDbEntity
  8
0
 62
     7
 48
0.45
370
    35
390
1D
100
AcDbLine
 10
151.812134
 20
234.540527
 30
0.0
 11
151.812134
 21
216.540527
 31
0.0
  0
LINE
  5
91
330
A
100
AcDbEntity
  8
0
 62
     7
 48
0.25
370
    35
390
1D
100
AcDbLine
 10
150.145462
 20
214.873856
 30
0.0
 11
140.145462
 21
214.873856
 31
0.0
  0
ARC
  5
92
330
A
100
AcDbEntity
  8
0
 62
     7
370
    35
390
1D
100
AcDbCircle
 10
140.145462
 20
213.207184
 30
0.0
 40
1.666667
100
AcDbArc
 50
90.000003
 51
180.000005
  0
LINE
  5
93
330
A
100
AcDbEntity
  8
0
 62
     7
 48
0.25
370
    35
390
1D
100
AcDbLine
 10
138.47879
 20
213.207184
 30
0.0
 11
138.47879
 21
203.207184
 31
0.0
  0
ARC
  5
94
330
A
100
AcDbEntity
  8
0
 62
     7
370
    35
390
1D
100
AcDbCircle
 10
140.145462
 20
203.207184
 30
0.0
 40
1.666667
100
AcDbArc
 50
180.000005
 51
269.999997
  0
LINE
  5
95
330
A
100
AcDbEntity
  8
0
 62
     7
 48
0.25
370
    35
390
1D
100
AcDbLine
 10
140.145462
 20
201.540527
 30
0.0
 11
150.145462
 21
201.540527
 31
0.0
  0
LINE
  5
96
330
A
100
AcDbEntity
  8
0
 62
     7
370
    35
390
1D
100
AcDbLine
 10
151.812134
 20
199.873856
 30
0.0
 11
151.812134
 21
167.873856
 31
0.0
  0
LINE
  5
97
330
A
100
AcDbEntity
  8
0
 62
     7
 48
0.25
370
    35
390
1D
100
AcDbLine
 10
150.145462
 20
166.207184
 30
0.0
 11
140.145462
 21
166.207184
 31
0.0
  0
ARC
  5
98
330
A
100
AcDbEntity
  8
0
 62
     7
370
    35
390
1D
100
AcDbCircle
 10
140.145462
 20
164.540512
 30
0.0
 40
1.666667
100
AcDbArc
 50
90.000003
 51
180.000005
  0
LINE
  5
99
330
A
100
AcDbEntity
  8
0
 62
     7
 48
0.25
370
    35
390
1D
100
AcDbLine
 10
138.47879
 20
164.540512
 30
0.0
 11
138.47879
 21
154.540512
 31
0.0
  0
ARC
  5
9A
330
A
100
AcDbEntity
  8
0
 62
     7
370
    35
390
1D
100
AcDbCircle
 10
140.145462
 20
154.540512
 30
0.0
 40
1.666667
100
AcDbArc
 50
180.000005
 51
269.999997
  0
LINE
  5
9B
330
A
100
AcDbEntity
  8
0
 62
     7
 48
0.25
370
    35
390
1D
100
AcDbLine
 10
140.145462
 20
152.873856
 30
0.0
 11
150.145462
 21
152.873856
 31
0.0
  0
LINE
  5
9C
330
A
100
AcDbEntity
  8
0
 62
     7
370
    35
390
1D
100
AcDbLine
 10
151.812134
 20
151.207184
 30
0.0
 11
151.812134
 21
119.207184
 31
0.0
  0
LINE
  5
9D
330
A
100
AcDbEntity
  8
0
 62
     7
370
    35
390
1D
100
AcDbLine
 10
261.812134
 20
157.540512
 30
0.0
 11
261.812134
 21
94.207184
 31
0.0
  0
ARC
  5
9E
330
A
100
AcDbEntity
  8
0
 62
     7
370
    35
390
1D
100
AcDbCircle
 10
263.47879
 20
157.540512
 30
0.0
 40
1.666667
100
AcDbArc
 50
90.000003
 51
180.000005
  0
LINE
  5
9F
330
A
100
AcDbEntity
  8
0
 62
     7
 48
0.25
370
    35
390
1D
100
AcDbLine
 10
263.47879
 20
159.207184
 30
0.0
 11
273.47879
 21
159.207184
 31
0.0
  0
ARC
  5
A0
330
A
100
AcDbEntity
  8
0
 62
     7
370
    35
390
1D
100
AcDbCircle
 10
273.47879
 20
157.540512
 30
0.0
 40
1.666667
100
AcDbArc
 50
0.0
 51
90.000003
  0
LINE
  5
A1
330
A
100
AcDbEntity
  8
0
 62
     7
370
    35
390
1D
100
AcDbLine
 10
275.145477
 20
157.540512
 30
0.0
 11
275.145477
 21
94.207184
 31
0.0
  0
ARC
  5
A2
330
A
100
AcDbEntity
  8
0
 62
     7
370
    35
390
1D
100
AcDbCircle
 10
273.47879
 20
94.207184
 30
0.0
 40
1.666667
100
AcDbArc
 50
269.999997
 51
360.0
  0
LINE
  5
A3
330
A
100
AcDbEntity
  8
0
 62
     7
 48
0.25
370
    35
390
1D
100
AcDbLine
 10
273.47879
 20
92.54052
 30
0.0
 11
263.47879
 21
92.54052
 31
0.0
  0
ARC
  5
A4
330
A
100
AcDbEntity
  8
0
 62
     7
370
    35
390
1D
100
AcDbCircle
 10
263.47879
 20
94.207184
 30
0.0
 40
1.666667
100
AcDbArc
 50
179.999995
 51
269.999997
  0
LINE
  5
A5
330
A
100
AcDbEntity
  8
0
 62
     7
370
    35
390
1D
100
AcDbLine
 10
270.145477
 20
216.207184
 30
0.0
 11
270.145477
 21
194.540527
 31
0.0
  0
ARC
  5
A6
330
A
100
AcDbEntity
  8
0
 62
     7
370
    35
390
1D
100
AcDbCircle
 10
271.812134
 20
216.207184
 30
0.0
 40
1.666667
100
AcDbArc
 50
90.000003
 51
180.000005
  0
LINE
  5
A7
330
A
100
AcDbEntity
  8
0
 62
     7
370
    35
390
1D
100
AcDbLine
 10
271.812134
 20
217.873856
 30
0.0
 11
293.47879
 21
217.873856
 31
0.0
  0
ARC
  5
A8
330
A
100
AcDbEntity
  8
0
 62
     7
370
    35
390
1D
100
AcDbCircle
 10
293.47879
 20
216.207184
 30
0.0
 40
1.666667
100
AcDbArc
 50
0.0
 51
90.000003
  0
LINE
  5
A9
330
A
100
AcDbEntity
  8
0
 62
     7
370
    35
390
1D
100
AcDbLine
 10
295.145477
 20
216.207184
 30
0.0
 11
295.145477
 21
194.540527
 31
0.0
  0
ARC
  5
AA
330
A
100
AcDbEntity
  8
0
 62
     7
370
    35
390
1D
100
AcDbCircle
 10
293.47879
 20
194.540527
 30
0.0
 40
1.666667
100
AcDbArc
 50
269.999997
 51
360.0
  0
LINE
  5
AB
330
A
100
AcDbEntity
  8
0
 62
     7
370
    35
390
1D
100
AcDbLine
 10
293.47879
 20
192.873856
 30
0.0
 11
271.812134
 21
192.873856
 31
0.0
  0
ARC
  5
AC
330
A
100
AcDbEntity
  8
0
 62
     7
370
    35
390
1D
100
AcDbCircle
 10
271.812134
 20
194.540527
 30
0.0
 40
1.666667
100
AcDbArc
 50
179.999995
 51
269.999997
  0
LINE
  5
AD
330
A
100
AcDbEntity
  8
0
 62
     7
370
    35
390
1D
100
AcDbLine
 10
158.47879
 20
216.207184
 30
0.0
 11
158.47879
 21
194.540527
 31
0.0
  0
ARC
  5
AE
330
A
100
AcDbEntity
  8
0
 62
     7
370
    35
390
1D
100
AcDbCircle
 10
160.145462
 20
216.207184
 30
0.0
 40
1.666667
100
AcDbArc
 50
90.000003
 51
180.000005
  0
LINE
  5
AF
330
A
100
AcDbEntity
  8
0
 62
     7
370
    35
390
1D
100
AcDbLine
 10
160.145462
 20
217.873856
 30
0.0
 11
181.812134
 21
217.873856
 31
0.0
  0
ARC
  5
B0
330
A
100
AcDbEntity
  8
0
 62
     7
370
    35
390
1D
100
AcDbCircle
 10
181.812134
 20
216.207184
 30
0.0
 40
1.666667
100
AcDbArc
 50
0.0
 51
90.000003
  0
LINE
  5
B1
330
A
100
AcDbEntity
  8
0
 62
     7
370
    35
390
1D
100
AcDbLine
 10
183.47879
 20
216.207184
 30
0.0
 11
183.47879
 21
194.540527
 31
0.0
  0
ARC
  5
B2
330
A
100
AcDbEntity
  8
0
 62
     7
370
    35
390
1D
100
AcDbCircle
 10
181.812134
 20
194.540527
 30
0.0
 40
1.666667
100
AcDbArc
 50
269.999997
 51
360.0
  0
LINE
  5
B3
330
A
100
AcDbEntity
  8
0
 62
     7
370
    35
390
1D
100
AcDbLine
 10
181.812134
 20
192.873856
 30
0.0
 11
160.145462
 21
192.873856
 31
0.0
  0
ARC
  5
B4
330
A
100
AcDbEntity
  8
0
 62
     7
370
    35
390
1D
100
AcDbCircle
 10
160.145462
 20
194.540527
 30
0.0
 40
1.666667
100
AcDbArc
 50
179.999995
 51
269.999997
  0
CIRCLE
  5
B5
330
A
100
AcDbEntity
  8
0
 62
     7
370
    35
390
1D
100
AcDbCircle
 10
308.47879
 20
208.207184
 30
0.0
 40
1.75
  0
CIRCLE
  5
B6
330
A
100
AcDbEntity
  8
0
 62
     7
370
    35
390
1D
100
AcDbCircle
 10
308.47879
 20
159.540512
 30
0.0
 40
1.75
  0
CIRCLE
  5
B7
330
A
100
AcDbEntity
  8
0
 62
     7
370
    35
390
1D
100
AcDbCircle
 10
308.47879
 20
110.873848
 30
0.0
 40
1.75
  0
CIRCLE
  5
B8
330
A
100
AcDbEntity
  8
0
 62
     7
370
    35
390
1D
100
AcDbCircle
 10
145.145462
 20
208.207184
 30
0.0
 40
1.75
  0
CIRCLE
  5
B9
330
A
100
AcDbEntity
  8
0
 62
     7
370
    35
390
1D
100
AcDbCircle
 10
145.145462
 20
159.540512
 30
0.0
 40
1.75
  0
CIRCLE
  5
BA
330
A
100
AcDbEntity
  8
0
 62
     7
370
    35
390
1D
100
AcDbCircle
 10
145.145462
 20
110.873848
 30
0.0
 40
1.75
  0
ARC
  5
BB
330
A
100
AcDbEntity
  8
0
 62
     7
370
    35
390
1D
100
AcDbCircle
 10
150.145462
 20
167.873856
 30
0.0
 40
1.666667
100
AcDbArc
 50
269.999997
 51
360.0
  0
ARC
  5
BC
330
A
100
AcDbEntity
  8
0
 62
     7
370
    35
390
1D
100
AcDbCircle
 10
150.145462
 20
199.873856
 30
0.0
 40
1.666667
100
AcDbArc
 50
0.0
 51
90.000003
  0
ARC
  5
BD
330
A
100
AcDbEntity
  8
0
 62
     7
370
    35
390
1D
100
AcDbCircle
 10
150.145462
 20
216.540527
 30
0.0
 40
1.666667
100
AcDbArc
 50
269.999997
 51
0.0
  0
ARC
  5
BE
330
A
100
AcDbEntity
  8
0
 62
     7
370
    35
390
1D
100
AcDbCircle
 10
303.47879
 20
216.540527
 30
0.0
 40
1.666667
100
AcDbArc
 50
180.000005
 51
269.999997
  0
ARC
  5
BF
330
A
100
AcDbEntity
  8
0
 62
     7
370
    35
390
1D
100
AcDbCircle
 10
303.47879
 20
199.873856
 30
0.0
 40
1.666667
100
AcDbArc
 50
90.000003
 51
180.000005
  0
ARC
  5
C0
330
A
100
AcDbEntity
  8
0
 62
     7
370
    35
390
1D
100
AcDbCircle
 10
303.47879
 20
167.873856
 30
0.0
 40
1.666667
100
AcDbArc
 50
180.000005
 51
269.999997
  0
ARC
  5
C1
330
A
100
AcDbEntity
  8
0
 62
     7
370
    35
390
1D
100
AcDbCircle
 10
303.47879
 20
151.207184
 30
0.0
 40
1.666667
100
AcDbArc
 50
90.000003
 51
180.000005
  0
ARC
  5
C2
330
A
100
AcDbEntity
  8
0
 62
     7
370
    35
390
1D
100
AcDbCircle
 10
303.47879
 20
119.207184
 30
0.0
 40
1.666667
100
AcDbArc
 50
180.000005
 51
269.999997
  0
ARC
  5
C3
330
A
100
AcDbEntity
  8
0
 62
     7
370
    35
390
1D
100
AcDbCircle
 10
303.47879
 20
102.54052
 30
0.0
 40
1.666667
100
AcDbArc
 50
90.000003
 51
180.000005
  0
ARC
  5
C4
330
A
100
AcDbEntity
  8
0
 62
     7
370
    35
390
1D
100
AcDbCircle
 10
150.145462
 20
151.207184
 30
0.0
 40
1.666667
100
AcDbArc
 50
0.0
 51
90.000003
  0
ARC
  5
C5
330
A
100
AcDbEntity
  8
0
 62
     7
370
    35
390
1D
100
AcDbCircle
 10
150.145462
 20
119.207184
 30
0.0
 40
1.666667
100
AcDbArc
 50
269.999997
 51
0.0
  0
VIEWPORT
  5
C6
330
B
100
AcDbEntity
 67
     1
  8
0
 62
     0
 48
0.0
370
     0
390
1D
100
AcDbViewport
 10
0.0
 20
0.0
 30
0.0
 40
1000.0
 41
1000.0
 68
     1
 69
     1
 12
0.0
 22
0.0
 13
0.0
 23
0.0
 14
1.0
 24
1.0
 15
1.0
 25
1.0
 16
0.0
 26
0.0
 36
1.0
 17
0.0
 27
0.0
 37
0.0
 42
50.0
 43
0.0
 44
0.0
 45
1000.0
 50
0.0
 51
0.0
 72
   100
 90
        0
  1

281
     0
 71
     0
 74
     1
110
0.0
120
0.0
130
0.0
111
1.0
121
0.0
131
0.0
112
0.0
122
1.0
132
0.0
 79
     0
146
0.0
170
     0
 61
     5
292
     1
282
     1
141
0.0
142
0.0
 63
   256
  0
ENDSEC
  0
SECTION
  2
OBJECTS
  0
DICTIONARY
  5
19
330
0
100
AcDbDictionary
281
     1
  3
ACAD_GROUP
350
1A
  3
ACAD_LAYOUT
350
1E
  3
ACAD_MLEADERSTYLE
350
EA
  3
ACAD_MLINESTYLE
350
1B
  3
ACAD_PLOTSETTINGS
350
22
  3
ACAD_PLOTSTYLENAME
350
1F
  3
ACAD_SCALELIST
350
C7
  3
ACAD_TABLESTYLE
350
E9
  3
ACAD_WIPEOUT_VARS
350
23
  3
AcDbVariableDictionary
350
EB
  0
DICTIONARY
  5
1A
102
{ACAD_REACTORS
330
19
102
}
330
19
100
AcDbDictionary
281
     1
  0
DICTIONARY
  5
1E
102
{ACAD_REACTORS
330
19
102
}
330
19
100
AcDbDictionary
281
     1
  3
Layout1
350
21
  3
Model
350
20
  0
DICTIONARY
  5
EA
102
{ACAD_REACTORS
330
19
102
}
330
19
100
AcDbDictionary
281
     1
  0
DICTIONARY
  5
1B
102
{ACAD_REACTORS
330
19
102
}
330
19
100
AcDbDictionary
281
     1
  3
Standard
350
1C
  0
DICTIONARY
  5
22
102
{ACAD_REACTORS
330
19
102
}
330
19
100
AcDbDictionary
281
     1
  0
ACDBDICTIONARYWDFLT
  5
1F
102
{ACAD_REACTORS
330
19
102
}
330
19
100
AcDbDictionary
281
     1
  3
Normal
350
1D
100
AcDbDictionaryWithDefault
340
1D
  0
DICTIONARY
  5
C7
102
{ACAD_REACTORS
330
19
102
}
330
19
100
AcDbDictionary
281
     1
  3
A0
350
C8
  3
A1
350
C9
  3
A2
350
CA
  3
A3
350
CB
  3
A4
350
CC
  3
A5
350
CD
  3
A6
350
CE
  3
A7
350
CF
  3
A8
350
D0
  3
A9
350
D1
  3
B0
350
D2
  3
B1
350
D3
  3
B2
350
D4
  3
B3
350
D5
  3
B4
350
D6
  3
B5
350
D7
  3
B6
350
D8
  3
B7
350
D9
  3
B8
350
DA
  3
B9
350
DB
  3
C0
350
DC
  3
C1
350
DD
  3
C2
350
DE
  3
C3
350
DF
  3
C4
350
E0
  3
C5
350
E1
  3
C6
350
E2
  3
C7
350
E3
  3
C8
350
E4
  3
C9
350
E5
  3
D0
350
E6
  3
D1
350
E7
  3
D2
350
E8
  0
DICTIONARY
  5
E9
102
{ACAD_REACTORS
330
19
102
}
330
19
100
AcDbDictionary
281
     1
  0
WIPEOUTVARIABLES
  5
23
330
19
100
AcDbWipeoutVariables
 70
     1
  0
DICTIONARY
  5
EB
102
{ACAD_REACTORS
330
19
102
}
330
19
100
AcDbDictionary
281
     1
  3
CANNOSCALE
350
EC
  0
LAYOUT
  5
21
102
{ACAD_REACTORS
330
1E
102
}
330
1E
100
AcDbPlotSettings
  1

  2

  4

  6

 40
0.0
 41
0.0
 42
0.0
 43
0.0
 44
0.0
 45
0.0
 46
0.0
 47
0.0
 48
0.0
 49
0.0
140
0.0
141
0.0
142
1.0
143
1.0
 70
     0
 72
     0
 73
     0
 74
     0
  7

 75
     0
 76
     0
 77
     2
 78
   300
147
1.0
148
0.0
149
0.0
100
AcDbLayout
  1
Layout1
 70
     0
 71
     0
 10
0.0
 20
0.0
 11
0.0
 21
0.0
 12
0.0
 22
0.0
 32
0.0
 14
0.0
 24
0.0
 34
0.0
 15
0.0
 25
0.0
 35
0.0
146
0.0
 13
0.0
 23
0.0
 33
0.0
 16
0.0
 26
0.0
 36
0.0
 17
0.0
 27
0.0
 37
0.0
 76
     0
330
B
331
C6
  0
LAYOUT
  5
20
102
{ACAD_REACTORS
330
1E
102
}
330
1E
100
AcDbPlotSettings
  1

  2

  4

  6

 40
0.0
 41
0.0
 42
0.0
 43
0.0
 44
0.0
 45
0.0
 46
0.0
 47
0.0
 48
0.0
 49
0.0
140
0.0
141
0.0
142
1.0
143
1.0
 70
  1024
 72
     0
 73
     0
 74
     0
  7

 75
     0
 76
     0
 77
     2
 78
   300
147
1.0
148
0.0
149
0.0
100
AcDbLayout
  1
Model
 70
     0
 71
     0
 10
0.0
 20
0.0
 11
0.0
 21
0.0
 12
0.0
 22
0.0
 32
0.0
 14
0.0
 24
0.0
 34
0.0
 15
0.0
 25
0.0
 35
0.0
146
0.0
 13
0.0
 23
0.0
 33
0.0
 16
0.0
 26
0.0
 36
0.0
 17
0.0
 27
0.0
 37
0.0
 76
     0
330
A
331
15
  0
MLINESTYLE
  5
1C
102
{ACAD_REACTORS
330
1B
102
}
330
1B
100
AcDbMlineStyle
  2
Standard
 70
     0
  3

 62
     0
 51
90.0
 52
90.0
 71
     2
 49
0.5
 62
   256
  6
BYLAYER
 49
-0.5
 62
   256
  6
BYLAYER
  0
ACDBPLACEHOLDER
  5
1D
102
{ACAD_REACTORS
330
1F
102
}
330
1F
  0
SCALE
  5
C8
102
{ACAD_REACTORS
330
C7
102
}
330
C7
100
AcDbScale
 70
     0
300
1:1
140
1.0
141
1.0
290
     1
  0
SCALE
  5
C9
102
{ACAD_REACTORS
330
C7
102
}
330
C7
100
AcDbScale
 70
     0
300
1:2
140
1.0
141
2.0
290
     0
  0
SCALE
  5
CA
102
{ACAD_REACTORS
330
C7
102
}
330
C7
100
AcDbScale
 70
     0
300
1:4
140
1.0
141
4.0
290
     0
  0
SCALE
  5
CB
102
{ACAD_REACTORS
330
C7
102
}
330
C7
100
AcDbScale
 70
     0
300
1:5
140
1.0
141
5.0
290
     0
  0
SCALE
  5
CC
102
{ACAD_REACTORS
330
C7
102
}
330
C7
100
AcDbScale
 70
     0
300
1:8
140
1.0
141
8.0
290
     0
  0
SCALE
  5
CD
102
{ACAD_REACTORS
330
C7
102
}
330
C7
100
AcDbScale
 70
     0
300
1:10
140
1.0
141
10.0
290
     0
  0
SCALE
  5
CE
102
{ACAD_REACTORS
330
C7
102
}
330
C7
100
AcDbScale
 70
     0
300
1:16
140
1.0
141
16.0
290
     0
  0
SCALE
  5
CF
102
{ACAD_REACTORS
330
C7
102
}
330
C7
100
AcDbScale
 70
     0
300
1:20
140
1.0
141
20.0
290
     0
  0
SCALE
  5
D0
102
{ACAD_REACTORS
330
C7
102
}
330
C7
100
AcDbScale
 70
     0
300
1:30
140
1.0
141
30.0
290
     0
  0
SCALE
  5
D1
102
{ACAD_REACTORS
330
C7
102
}
330
C7
100
AcDbScale
 70
     0
300
1:40
140
1.0
141
40.0
290
     0
  0
SCALE
  5
D2
102
{ACAD_REACTORS
330
C7
102
}
330
C7
100
AcDbScale
 70
     0
300
1:50
140
1.0
141
50.0
290
     0
  0
SCALE
  5
D3
102
{ACAD_REACTORS
330
C7
102
}
330
C7
100
AcDbScale
 70
     0
300
1:100
140
1.0
141
100.0
290
     0
  0
SCALE
  5
D4
102
{ACAD_REACTORS
330
C7
102
}
330
C7
100
AcDbScale
 70
     0
300
2:1
140
2.0
141
1.0
290
     0
  0
SCALE
  5
D5
102
{ACAD_REACTORS
330
C7
102
}
330
C7
100
AcDbScale
 70
     0
300
4:1
140
4.0
141
1.0
290
     0
  0
SCALE
  5
D6
102
{ACAD_REACTORS
330
C7
102
}
330
C7
100
AcDbScale
 70
     0
300
8:1
140
8.0
141
1.0
290
     0
  0
SCALE
  5
D7
102
{ACAD_REACTORS
330
C7
102
}
330
C7
100
AcDbScale
 70
     0
300
10:1
140
10.0
141
1.0
290
     0
  0
SCALE
  5
D8
102
{ACAD_REACTORS
330
C7
102
}
330
C7
100
AcDbScale
 70
     0
300
100:1
140
100.0
141
1.0
290
     0
  0
SCALE
  5
D9
102
{ACAD_REACTORS
330
C7
102
}
330
C7
100
AcDbScale
 70
     0
300
1/128" = 1'-0"
140
0.0078125
141
12.0
290
     0
  0
SCALE
  5
DA
102
{ACAD_REACTORS
330
C7
102
}
330
C7
100
AcDbScale
 70
     0
300
1/64" = 1'-0"
140
0.015625
141
12.0
290
     0
  0
SCALE
  5
DB
102
{ACAD_REACTORS
330
C7
102
}
330
C7
100
AcDbScale
 70
     0
300
1/32" = 1'-0"
140
0.03125
141
12.0
290
     0
  0
SCALE
  5
DC
102
{ACAD_REACTORS
330
C7
102
}
330
C7
100
AcDbScale
 70
     0
300
1/16" = 1'-0"
140
0.0625
141
12.0
290
     0
  0
SCALE
  5
DD
102
{ACAD_REACTORS
330
C7
102
}
330
C7
100
AcDbScale
 70
     0
300
3/32" = 1'-0"
140
0.09375
141
12.0
290
     0
  0
SCALE
  5
DE
102
{ACAD_REACTORS
330
C7
102
}
330
C7
100
AcDbScale
 70
     0
300
1/8" = 1'-0"
140
0.125
141
12.0
290
     0
  0
SCALE
  5
DF
102
{ACAD_REACTORS
330
C7
102
}
330
C7
100
AcDbScale
 70
     0
300
3/16" = 1'-0"
140
0.1875
141
12.0
290
     0
  0
SCALE
  5
E0
102
{ACAD_REACTORS
330
C7
102
}
330
C7
100
AcDbScale
 70
     0
300
1/4" = 1'-0"
140
0.25
141
12.0
290
     0
  0
SCALE
  5
E1
102
{ACAD_REACTORS
330
C7
102
}
330
C7
100
AcDbScale
 70
     0
300
3/8" = 1'-0"
140
0.375
141
12.0
290
     0
  0
SCALE
  5
E2
102
{ACAD_REACTORS
330
C7
102
}
330
C7
100
AcDbScale
 70
     0
300
1/2" = 1'-0"
140
0.5
141
12.0
290
     0
  0
SCALE
  5
E3
102
{ACAD_REACTORS
330
C7
102
}
330
C7
100
AcDbScale
 70
     0
300
3/4" = 1'-0"
140
0.75
141
12.0
290
     0
  0
SCALE
  5
E4
102
{ACAD_REACTORS
330
C7
102
}
330
C7
100
AcDbScale
 70
     0
300
1" = 1'-0"
140
1.0
141
12.0
290
     0
  0
SCALE
  5
E5
102
{ACAD_REACTORS
330
C7
102
}
330
C7
100
AcDbScale
 70
     0
300
1-1/2" = 1'-0"
140
1.5
141
12.0
290
     0
  0
SCALE
  5
E6
102
{ACAD_REACTORS
330
C7
102
}
330
C7
100
AcDbScale
 70
     0
300
3" = 1'-0"
140
3.0
141
12.0
290
     0
  0
SCALE
  5
E7
102
{ACAD_REACTORS
330
C7
102
}
330
C7
100
AcDbScale
 70
     0
300
6" = 1'-0"
140
6.0
141
12.0
290
     0
  0
SCALE
  5
E8
102
{ACAD_REACTORS
330
C7
102
}
330
C7
100
AcDbScale
 70
     0
300
1'-0" = 1'-0"
140
12.0
141
12.0
290
     0
  0
DICTIONARYVAR
  5
EC
102
{ACAD_REACTORS
330
EB
102
}
330
EB
100
DictionaryVariables
280
     0
  1
1:1
  0
ENDSEC
  0
EOF
