<?xml version="1.0" encoding="utf-8" ?><!DOCTYPE svg PUBLIC "-//W3C//DTD SVG 1.1//EN" "http://www.w3.org/Graphics/SVG/1.1/DTD/svg11.dtd" 
[ <!ATTLIST svg 
  xmlns:dsy CDATA #FIXED "http://www.3ds.com/print"  
    dsy:text-version CDATA #IMPLIED > 

  <!ATTLIST text 
  xmlns:dsy CDATA #FIXED "http://www.3ds.com/print" 
    dsy:text-version CDATA #IMPLIED > 
]><svg xmlns="http://www.w3.org/2000/svg" xmlns:dsy="http://www.3ds.com/print" dsy:text-version="18000" width="841" height="594" viewBox="0 0 841 594" version="1.1"><g stroke="rgb(0, 0, 0)" stroke-width="0.35" stroke-linecap="butt" stroke-linejoin="miter" fill="none"><path d="M 288.918 96.9613 L 289.198 92.9711"/><path d="M 454.251 108.556 L 454.531 104.565"/><path d="M 460.237 108.975 L 454.251 108.556"/><path d="M 460.517 104.985 L 460.237 108.975"/><path d="M 522.993 115.05 L 523.915 109.431"/><path d="M 523.995 115.121 L 522.993 115.05"/><path d="M 524.917 109.501 L 523.995 115.121"/><path d="M 294.903 97.381 L 288.918 96.9613"/><path d="M 295.183 93.3908 L 294.903 97.381"/><path d="M 540 111.608 L 535.661 119.174"/><path d="M 535.661 119.174 L 536.769 119.252"/><path d="M 541.108 111.685 L 536.769 119.252"/><path d="M 541.108 111.685 L 540 111.608"/><path d="M 230.678 93.2452 L 231.703 93.317"/><path d="M 232.835 106.51 L 230.678 93.2452"/><path d="M 233.86 106.581 L 232.835 106.51"/><path d="M 233.86 106.581 L 231.703 93.317"/><path d="M 218.748 109.774 L 212.729 96.1469"/><path d="M 212.729 96.1469 L 211.601 96.0678"/><path d="M 217.619 109.695 L 211.601 96.0678"/><path d="M 217.619 109.695 L 218.748 109.774"/><path d="M 524.917 109.501 L 523.915 109.431"/><path d="M 460.517 104.985 L 454.531 104.565"/><path d="M 295.183 93.3908 L 289.198 92.9711"/><circle cx="359.455" cy="266.176" r="3.20001"/><circle cx="379.113" cy="514.479" r="3.20001"/><circle cx="529.113" cy="119.134" r="3.20001"/><circle cx="229.113" cy="119.134" r="3.20001"/><path d="M 390.31 518.794 L 545.605 110.952"/><path d="M 545.605 110.952 L 524.917 109.501"/><path d="M 289.198 92.9711 L 196.424 86.4653"/><path d="M 454.531 104.565 L 295.183 93.3908"/><path d="M 523.915 109.431 L 460.517 104.985"/><path d="M 367.956 518.898 A 12 12 0 0 0 390.31 518.794"/><path d="M 196.424 86.4653 L 367.956 518.898"/></g></svg>