<?xml version="1.0" encoding="utf-8" ?><!DOCTYPE svg PUBLIC "-//W3C//DTD SVG 1.1//EN" "http://www.w3.org/Graphics/SVG/1.1/DTD/svg11.dtd" 
[ <!ATTLIST svg 
  xmlns:dsy CDATA #FIXED "http://www.3ds.com/print"  
    dsy:text-version CDATA #IMPLIED > 

  <!ATTLIST text 
  xmlns:dsy CDATA #FIXED "http://www.3ds.com/print" 
    dsy:text-version CDATA #IMPLIED > 
]><svg xmlns="http://www.w3.org/2000/svg" xmlns:dsy="http://www.3ds.com/print" dsy:text-version="18000" width="297" height="210" viewBox="0 0 297 210" version="1.1"><g stroke="rgb(0, 0, 0)" stroke-width="0.35" stroke-linecap="butt" stroke-linejoin="miter" fill="none"><path d="M 166.5 139.572 L 166.5 70.4277"/><path d="M 130.5 70.4277 L 166.5 70.4277"/><path d="M 130.5 99.0964 L 130.5 139.572"/><path d="M 134.782 139.572 L 130.5 139.572"/><path d="M 134.782 113.205 L 134.782 139.572"/><path d="M 139.682 113.205 L 134.782 113.205"/><path d="M 139.682 113.205 L 139.682 139.572"/><path d="M 150.782 139.572 L 139.682 139.572"/><path d="M 150.782 113.205 L 150.782 139.572"/><path d="M 155.682 113.205 L 150.782 113.205"/><path d="M 155.682 113.205 L 155.682 139.572"/><path d="M 166.5 139.572 L 155.682 139.572"/><path d="M 130.5 70.4277 L 130.5 74.3454"/><path d="M 130.5 99.0964 A 12.533 12.533 0 1 0 130.5 74.3454"/></g></svg>