<?xml version="1.0" encoding="utf-8" ?><!DOCTYPE svg PUBLIC "-//W3C//DTD SVG 1.1//EN" "http://www.w3.org/Graphics/SVG/1.1/DTD/svg11.dtd" 
[ <!ATTLIST svg 
  xmlns:dsy CDATA #FIXED "http://www.3ds.com/print"  
    dsy:text-version CDATA #IMPLIED > 

  <!ATTLIST text 
  xmlns:dsy CDATA #FIXED "http://www.3ds.com/print" 
    dsy:text-version CDATA #IMPLIED > 
]><svg xmlns="http://www.w3.org/2000/svg" xmlns:dsy="http://www.3ds.com/print" dsy:text-version="18000" width="297" height="210" viewBox="0 0 297 210" version="1.1"><g stroke="rgb(0, 0, 0)" stroke-width="0.35" stroke-linecap="butt" stroke-linejoin="miter" fill="none"><path d="M 47.8765 83.9854 L 47.8765 14.8408"/><path d="M 11.8765 14.8408 L 47.8765 14.8408"/><path d="M 32.1582 83.9854 L 21.0582 83.9854"/><path d="M 16.1582 83.9854 L 11.8765 83.9854"/><path d="M 47.8765 83.9854 L 37.0582 83.9854"/><path d="M 11.8765 43.5095 L 11.8765 83.9854"/><path d="M 11.8765 14.8408 L 11.8765 18.7585"/><path d="M 21.0582 57.6178 L 16.1582 57.6178"/><path d="M 21.0582 83.9854 L 21.0582 57.6178"/><path d="M 16.1582 57.6178 L 16.1582 83.9854"/><path d="M 37.0582 57.6178 L 32.1582 57.6178"/><path d="M 37.0582 83.9854 L 37.0582 57.6178"/><path d="M 32.1582 57.6178 L 32.1582 83.9854"/><path d="M 15.3597 18.6914 A 12.533 12.533 0 0 0 11.8765 18.7585"/><path d="M 11.8765 43.5095 A 12.533 12.533 0 0 0 14.3128 43.6587"/><path d="M 14.3128 43.6587 A 12.5009 12.5009 0 1 0 15.3597 18.6914"/></g></svg>