<?xml version="1.0" encoding="utf-8" ?><!DOCTYPE svg PUBLIC "-//W3C//DTD SVG 1.1//EN" "http://www.w3.org/Graphics/SVG/1.1/DTD/svg11.dtd" 
[ <!ATTLIST svg 
  xmlns:dsy CDATA #FIXED "http://www.3ds.com/print"  
    dsy:text-version CDATA #IMPLIED > 

  <!ATTLIST text 
  xmlns:dsy CDATA #FIXED "http://www.3ds.com/print" 
    dsy:text-version CDATA #IMPLIED > 
]><svg xmlns="http://www.w3.org/2000/svg" xmlns:dsy="http://www.3ds.com/print" dsy:text-version="18000" width="594" height="420" viewBox="0 0 594 420" version="1.1"><g stroke="rgb(0, 0, 0)" stroke-width="0.35" stroke-linecap="butt" stroke-linejoin="miter" fill="none"><path d="M 177.626 24.9647 L 150.473 366.975"/><path d="M 150.473 366.975 L 149.833 375.035"/><path d="M 186.93 395.035 L 149.833 375.035"/><path d="M 444.167 137.277 L 186.93 395.035"/><path d="M 444.167 137.277 L 368.27 113.302"/><path d="M 368.27 113.302 L 366.756 118.093"/><path d="M 366.756 118.093 L 361.035 116.286"/><path d="M 361.035 116.286 L 362.548 111.495"/><path d="M 362.548 111.495 L 339.276 104.144"/><circle cx="180.119" cy="372.875" r="4"/><circle cx="242.367" cy="245.791" r="4"/><path d="M 254.162 62.4533 L 177.626 24.9647"/><path d="M 339.276 104.144 L 259.55 65.0927"/><path d="M 259.55 65.0927 L 254.835 74.7184"/><path d="M 249.447 72.079 L 254.835 74.7184"/><path d="M 254.162 62.4533 L 249.447 72.079"/><path d="M 187.919 44.213 A 3.00005 3.00005 0 0 0 193.151 47.1505"/><path d="M 187.914 44.2226 A 3.00005 3.00005 0 1 0 193.146 47.1591"/><path d="M 193.146 47.1591 A 3 3 0 0 0 190.286 42.7008"/><path d="M 190.286 42.7008 A 3.00005 3.00005 0 0 0 187.914 44.2227"/><path d="M 416.343 145.812 A 3.00005 3.00005 0 0 0 421.575 148.75"/><path d="M 416.338 145.822 A 3.00005 3.00005 0 1 0 421.57 148.758"/><path d="M 421.57 148.758 A 3 3 0 0 0 418.71 144.3"/><path d="M 418.71 144.3 A 3.00005 3.00005 0 0 0 416.338 145.822"/><path d="M 183.875 46.5003 L 182.977 46.0604"/><path d="M 183.875 46.5003 L 183.155 40.5436"/><path d="M 182.977 46.0604 L 182.257 40.1038"/><path d="M 183.155 40.5436 L 182.257 40.1038"/><path d="M 197.126 46.8528 L 198.161 40.9427"/><path d="M 197.126 46.8528 L 198.024 47.2927"/><path d="M 199.059 41.3826 L 198.161 40.9427"/><path d="M 198.024 47.2927 L 199.059 41.3826"/></g></svg>