<?xml version="1.0" encoding="utf-8" ?><!DOCTYPE svg PUBLIC "-//W3C//DTD SVG 1.1//EN" "http://www.w3.org/Graphics/SVG/1.1/DTD/svg11.dtd" 
[ <!ATTLIST svg 
  xmlns:dsy CDATA #FIXED "http://www.3ds.com/print"  
    dsy:text-version CDATA #IMPLIED > 

  <!ATTLIST text 
  xmlns:dsy CDATA #FIXED "http://www.3ds.com/print" 
    dsy:text-version CDATA #IMPLIED > 
]><svg xmlns="http://www.w3.org/2000/svg" xmlns:dsy="http://www.3ds.com/print" dsy:text-version="18000" width="841" height="594" viewBox="0 0 841 594" version="1.1"><g stroke="rgb(0, 0, 0)" stroke-width="0.13" stroke-linecap="butt" stroke-linejoin="miter" fill="none"><path d="M 395.5 325.5 L 395.5 336.861"/><path d="M 445.5 325.5 L 445.5 336.861"/></g><g stroke="rgb(0, 0, 0)" stroke-width="0.35" stroke-linecap="butt" stroke-linejoin="miter" fill="none"><path d="M 395.5 308.5 L 395.5 323.5"/><path d="M 395.5 323.5 L 445.5 323.5"/><path d="M 445.5 323.5 L 445.5 308.5"/><path d="M 445.5 308.5 L 430.5 308.5"/><path d="M 430.5 308.5 L 430.5 270.5"/><path d="M 430.5 270.5 L 405.5 270.5"/><path d="M 405.5 308.5 L 395.5 308.5"/><path d="M 410.5 298.542 A 10 10 0 0 0 410.5 278.542"/><path d="M 405.5 270.5 L 405.5 278.542"/><path d="M 405.5 298.542 L 405.5 308.5"/><path d="M 405.5 278.542 L 410.5 278.542"/><path d="M 410.5 298.542 L 405.5 298.542"/></g><g stroke="rgb(0, 0, 0)" stroke-width="0.13" stroke-linecap="butt" stroke-linejoin="miter" fill="none"><path d="M 417.381 331.948 L 417.492 332.362 L 417.739 332.684 L 418.102 332.886 L 418.566 332.962 L 419.076 332.871 L 419.474 332.624 L 419.726 332.231 L 419.822 331.726 L 419.736 331.257 L 419.494 330.889 L 419.116 330.652 L 418.627 330.566 L 418.249 330.627 L 417.956 330.793 L 418.097 329.85 L 419.631 329.85 L 419.631 329.437 L 417.76 329.437 L 417.482 331.292 L 417.886 331.292 L 418.178 331.055 L 418.551 330.97 L 418.874 331.025 L 419.121 331.187 L 419.278 331.434 L 419.333 331.751 L 419.278 332.069 L 419.116 332.316 L 418.869 332.473 L 418.551 332.528 L 418.284 332.493 L 418.077 332.377 L 417.926 332.195 L 417.85 331.948 L 417.381 331.948 L 417.381 331.948 z M 421.153 331.151 L 421.228 331.943 L 421.465 332.508 L 421.844 332.851 L 422.368 332.962 L 422.887 332.851 L 423.266 332.508 L 423.498 331.943 L 423.578 331.151 L 423.498 330.365 L 423.402 330.052 L 423.266 329.795 L 422.887 329.452 L 422.368 329.336 L 421.844 329.452 L 421.465 329.8 L 421.228 330.365 L 421.153 331.151 L 421.153 331.151 z M 421.637 331.151 L 421.677 330.541 L 421.803 330.102 L 422.03 329.845 L 422.368 329.754 L 422.701 329.845 L 422.928 330.102 L 423.054 330.541 L 423.094 331.151 L 423.054 331.767 L 422.928 332.205 L 422.701 332.463 L 422.368 332.548 L 422.03 332.463 L 421.803 332.205 L 421.677 331.767 L 421.637 331.151 L 421.637 331.151 z" stroke="none" fill-rule="evenodd" fill="rgb(0, 0, 0)"/><path d="M 397.432 334.343 L 395.5 334.861 L 397.432 335.379"/><path d="M 443.568 335.379 L 445.5 334.861 L 443.568 334.343"/><path d="M 395.5 334.861 L 445.5 334.861"/></g></svg>