<?xml version="1.0" encoding="utf-8" ?><!DOCTYPE svg PUBLIC "-//W3C//DTD SVG 1.1//EN" "http://www.w3.org/Graphics/SVG/1.1/DTD/svg11.dtd" 
[ <!ATTLIST svg 
  xmlns:dsy CDATA #FIXED "http://www.3ds.com/print"  
    dsy:text-version CDATA #IMPLIED > 

  <!ATTLIST text 
  xmlns:dsy CDATA #FIXED "http://www.3ds.com/print" 
    dsy:text-version CDATA #IMPLIED > 
]><svg xmlns="http://www.w3.org/2000/svg" xmlns:dsy="http://www.3ds.com/print" dsy:text-version="18000" width="841" height="594" viewBox="0 0 841 594" version="1.1"><g stroke="rgb(0, 0, 0)" stroke-width="0.13" stroke-linecap="butt" stroke-linejoin="miter" fill="none"><path d="M 395.5 325.5 L 395.5 339.183"/><path d="M 445.5 325.5 L 445.5 339.183"/></g><g stroke="rgb(0, 0, 0)" stroke-width="0.35" stroke-linecap="butt" stroke-linejoin="miter" fill="none"><path d="M 395.5 308.5 L 395.5 323.5"/><path d="M 395.5 323.5 L 445.5 323.5"/><path d="M 445.5 323.5 L 445.5 308.5"/><path d="M 445.5 308.5 L 430.5 308.5"/><path d="M 430.5 308.5 L 430.5 270.5"/><path d="M 430.5 270.5 L 410.5 270.5"/><path d="M 410.5 308.5 L 395.5 308.5"/><path d="M 410.5 298.542 L 410.5 308.5"/><path d="M 410.5 270.5 L 410.5 278.542"/><path d="M 410.5 298.542 A 10 10 0 0 0 410.5 278.542"/></g><g stroke="rgb(0, 0, 0)" stroke-width="0.13" stroke-linecap="butt" stroke-linejoin="miter" fill="none"><path d="M 417.381 334.27 L 417.492 334.684 L 417.739 335.006 L 418.102 335.208 L 418.566 335.284 L 419.076 335.193 L 419.474 334.946 L 419.726 334.552 L 419.822 334.048 L 419.736 333.579 L 419.494 333.211 L 419.116 332.974 L 418.627 332.888 L 418.249 332.949 L 417.956 333.115 L 418.097 332.172 L 419.631 332.172 L 419.631 331.758 L 417.76 331.758 L 417.482 333.614 L 417.886 333.614 L 418.178 333.377 L 418.551 333.292 L 418.874 333.347 L 419.121 333.508 L 419.278 333.756 L 419.333 334.073 L 419.278 334.391 L 419.116 334.638 L 418.869 334.794 L 418.551 334.85 L 418.284 334.815 L 418.077 334.699 L 417.926 334.517 L 417.85 334.27 L 417.381 334.27 L 417.381 334.27 z M 421.153 333.473 L 421.228 334.265 L 421.465 334.83 L 421.844 335.173 L 422.368 335.284 L 422.887 335.173 L 423.266 334.83 L 423.498 334.265 L 423.578 333.473 L 423.498 332.686 L 423.402 332.374 L 423.266 332.117 L 422.887 331.774 L 422.368 331.658 L 421.844 331.774 L 421.465 332.122 L 421.228 332.686 L 421.153 333.473 L 421.153 333.473 z M 421.637 333.473 L 421.677 332.863 L 421.803 332.424 L 422.03 332.167 L 422.368 332.076 L 422.701 332.167 L 422.928 332.424 L 423.054 332.863 L 423.094 333.473 L 423.054 334.088 L 422.928 334.527 L 422.701 334.784 L 422.368 334.87 L 422.03 334.784 L 421.803 334.527 L 421.677 334.088 L 421.637 333.473 L 421.637 333.473 z" stroke="none" fill-rule="evenodd" fill="rgb(0, 0, 0)"/><path d="M 397.432 336.665 L 395.5 337.183 L 397.432 337.7"/><path d="M 443.568 337.7 L 445.5 337.183 L 443.568 336.665"/><path d="M 395.5 337.183 L 445.5 337.183"/></g></svg>