<?xml version="1.0" encoding="utf-8" ?><!DOCTYPE svg PUBLIC "-//W3C//DTD SVG 1.1//EN" "http://www.w3.org/Graphics/SVG/1.1/DTD/svg11.dtd" 
[ <!ATTLIST svg 
  xmlns:dsy CDATA #FIXED "http://www.3ds.com/print"  
    dsy:text-version CDATA #IMPLIED > 

  <!ATTLIST text 
  xmlns:dsy CDATA #FIXED "http://www.3ds.com/print" 
    dsy:text-version CDATA #IMPLIED > 
]><svg xmlns="http://www.w3.org/2000/svg" xmlns:dsy="http://www.3ds.com/print" dsy:text-version="18000" width="841" height="594" viewBox="0 0 841 594" version="1.1"><g stroke="rgb(0, 0, 0)" stroke-width="0.13" stroke-linecap="butt" stroke-linejoin="miter" fill="none"><path d="M 403.9 321 L 403.9 332.69"/><path d="M 437.1 321 L 437.1 332.69"/></g><g stroke="rgb(0, 0, 0)" stroke-width="0.35" stroke-linecap="butt" stroke-linejoin="miter" fill="none"><path d="M 427.1 313 L 437.1 313"/><path d="M 427.1 307 L 427.1 313"/><path d="M 436.9 307 L 427.1 307"/><path d="M 436.9 298.156 L 436.9 307"/><path d="M 436.9 275 L 436.9 298.156"/><path d="M 413.9 275 L 436.9 275"/><path d="M 403.9 303 L 413.9 303"/><path d="M 403.9 319 L 403.9 303"/><path d="M 437.1 319 L 403.9 319"/><path d="M 437.1 313 L 437.1 319"/><path d="M 413.9 283 L 413.9 275"/><path d="M 413.9 303 A 10 10 0 0 0 413.9 283"/></g><g stroke="rgb(0, 0, 0)" stroke-width="0.13" stroke-linecap="butt" stroke-linejoin="miter" fill="none"><path d="M 413.625 327.59 L 413.625 327.626 L 413.706 328.11 L 413.943 328.473 L 414.316 328.705 L 414.81 328.791 L 415.335 328.705 L 415.728 328.483 L 415.98 328.13 L 416.071 327.676 L 416.031 327.379 L 415.92 327.137 L 415.738 326.95 L 415.496 326.814 L 415.824 326.541 L 415.94 326.108 L 415.864 325.714 L 415.647 325.417 L 415.294 325.23 L 414.81 325.165 L 414.356 325.245 L 414.008 325.467 L 413.781 325.82 L 413.706 326.289 L 413.706 326.325 L 414.155 326.325 L 414.195 326.002 L 414.326 325.77 L 414.538 325.629 L 414.835 325.578 L 415.098 325.618 L 415.289 325.724 L 415.405 325.896 L 415.451 326.128 L 415.405 326.375 L 415.284 326.541 L 415.072 326.642 L 414.785 326.673 L 414.588 326.667 L 414.588 327.066 L 414.835 327.056 L 415.153 327.101 L 415.39 327.222 L 415.531 327.419 L 415.582 327.676 L 415.526 327.969 L 415.38 328.185 L 415.148 328.322 L 414.84 328.367 L 414.523 328.317 L 414.291 328.165 L 414.145 327.923 L 414.089 327.59 L 413.625 327.59 L 413.625 327.59 z M 417.361 327.59 L 417.361 327.626 L 417.442 328.11 L 417.679 328.473 L 418.052 328.705 L 418.546 328.791 L 419.071 328.705 L 419.464 328.483 L 419.716 328.13 L 419.807 327.676 L 419.767 327.379 L 419.656 327.137 L 419.474 326.95 L 419.232 326.814 L 419.56 326.541 L 419.676 326.108 L 419.6 325.714 L 419.383 325.417 L 419.03 325.23 L 418.546 325.165 L 418.092 325.245 L 417.744 325.467 L 417.517 325.82 L 417.442 326.289 L 417.442 326.325 L 417.891 326.325 L 417.931 326.002 L 418.062 325.77 L 418.274 325.629 L 418.571 325.578 L 418.834 325.618 L 419.025 325.724 L 419.141 325.896 L 419.187 326.128 L 419.141 326.375 L 419.02 326.541 L 418.808 326.642 L 418.521 326.673 L 418.324 326.667 L 418.324 327.066 L 418.571 327.056 L 418.889 327.101 L 419.126 327.222 L 419.267 327.419 L 419.318 327.676 L 419.262 327.969 L 419.116 328.185 L 418.884 328.322 L 418.576 328.367 L 418.259 328.317 L 418.027 328.165 L 417.881 327.923 L 417.825 327.59 L 417.361 327.59 L 417.361 327.59 z M 422.02 328.69 L 422.716 328.69 L 422.716 327.938 L 422.02 327.938 L 422.02 328.69 L 422.02 328.69 z M 424.873 328.69 L 427.279 328.69 L 427.279 328.256 L 425.378 328.256 L 425.484 328.019 L 425.665 327.822 L 426.225 327.464 L 426.523 327.313 L 426.855 327.096 L 427.092 326.844 L 427.229 326.546 L 427.279 326.209 L 427.193 325.785 L 426.956 325.452 L 426.593 325.24 L 426.124 325.165 L 425.64 325.25 L 425.272 325.487 L 425.035 325.866 L 424.954 326.365 L 424.954 326.435 L 425.413 326.435 L 425.413 326.395 L 425.458 326.052 L 425.595 325.8 L 425.811 325.639 L 426.099 325.583 L 426.391 325.634 L 426.608 325.76 L 426.75 325.956 L 426.8 326.203 L 426.765 326.435 L 426.669 326.632 L 426.507 326.804 L 426.286 326.955 L 425.988 327.116 L 425.494 327.429 L 425.146 327.762 L 424.939 328.165 L 424.873 328.675 L 424.873 328.69 L 424.873 328.69 z" stroke="none" fill-rule="evenodd" fill="rgb(0, 0, 0)"/><path d="M 405.832 330.172 L 403.9 330.69 L 405.832 331.207"/><path d="M 435.168 331.207 L 437.1 330.69 L 435.168 330.172"/><path d="M 403.9 330.69 L 437.1 330.69"/></g></svg>