<?xml version="1.0" encoding="utf-8" ?><!DOCTYPE svg PUBLIC "-//W3C//DTD SVG 1.1//EN" "http://www.w3.org/Graphics/SVG/1.1/DTD/svg11.dtd" 
[ <!ATTLIST svg 
  xmlns:dsy CDATA #FIXED "http://www.3ds.com/print"  
    dsy:text-version CDATA #IMPLIED > 

  <!ATTLIST text 
  xmlns:dsy CDATA #FIXED "http://www.3ds.com/print" 
    dsy:text-version CDATA #IMPLIED > 
]><svg xmlns="http://www.w3.org/2000/svg" xmlns:dsy="http://www.3ds.com/print" dsy:text-version="18000" width="841" height="594" viewBox="0 0 841 594" version="1.1"><g stroke="rgb(0, 0, 0)" stroke-width="0.13" stroke-linecap="butt" stroke-linejoin="miter" fill="none"><path d="M 403.9 321 L 403.9 330.332"/><path d="M 437.1 321 L 437.1 330.332"/></g><g stroke="rgb(0, 0, 0)" stroke-width="0.35" stroke-linecap="butt" stroke-linejoin="miter" fill="none"><path d="M 427.1 313 L 437.1 313"/><path d="M 427.1 307 L 427.1 313"/><path d="M 436.9 307 L 427.1 307"/><path d="M 436.9 298.156 L 436.9 307"/><path d="M 436.9 275 L 436.9 298.156"/><path d="M 403.9 275 L 436.9 275"/><path d="M 403.9 319 L 403.9 303"/><path d="M 437.1 319 L 403.9 319"/><path d="M 437.1 313 L 437.1 319"/><path d="M 413.9 303 A 10 10 0 0 0 413.9 283"/><path d="M 403.9 283 L 403.9 275"/><path d="M 403.9 283 L 413.9 283"/><path d="M 413.9 303 L 403.9 303"/></g><g stroke="rgb(0, 0, 0)" stroke-width="0.13" stroke-linecap="butt" stroke-linejoin="miter" fill="none"><path d="M 413.625 325.232 L 413.625 325.267 L 413.706 325.752 L 413.943 326.115 L 414.316 326.347 L 414.81 326.432 L 415.335 326.347 L 415.728 326.125 L 415.98 325.772 L 416.071 325.318 L 416.031 325.02 L 415.92 324.778 L 415.738 324.592 L 415.496 324.455 L 415.824 324.183 L 415.94 323.749 L 415.864 323.356 L 415.647 323.058 L 415.294 322.872 L 414.81 322.806 L 414.356 322.887 L 414.008 323.109 L 413.781 323.462 L 413.706 323.931 L 413.706 323.966 L 414.155 323.966 L 414.195 323.643 L 414.326 323.411 L 414.538 323.27 L 414.835 323.22 L 415.098 323.26 L 415.289 323.366 L 415.405 323.538 L 415.451 323.77 L 415.405 324.017 L 415.284 324.183 L 415.072 324.284 L 414.785 324.314 L 414.588 324.309 L 414.588 324.708 L 414.835 324.698 L 415.153 324.743 L 415.39 324.864 L 415.531 325.061 L 415.582 325.318 L 415.526 325.61 L 415.38 325.827 L 415.148 325.963 L 414.84 326.009 L 414.523 325.958 L 414.291 325.807 L 414.145 325.565 L 414.089 325.232 L 413.625 325.232 L 413.625 325.232 z M 417.361 325.232 L 417.361 325.267 L 417.442 325.752 L 417.679 326.115 L 418.052 326.347 L 418.546 326.432 L 419.071 326.347 L 419.464 326.125 L 419.716 325.772 L 419.807 325.318 L 419.767 325.02 L 419.656 324.778 L 419.474 324.592 L 419.232 324.455 L 419.56 324.183 L 419.676 323.749 L 419.6 323.356 L 419.383 323.058 L 419.03 322.872 L 418.546 322.806 L 418.092 322.887 L 417.744 323.109 L 417.517 323.462 L 417.442 323.931 L 417.442 323.966 L 417.891 323.966 L 417.931 323.643 L 418.062 323.411 L 418.274 323.27 L 418.571 323.22 L 418.834 323.26 L 419.025 323.366 L 419.141 323.538 L 419.187 323.77 L 419.141 324.017 L 419.02 324.183 L 418.808 324.284 L 418.521 324.314 L 418.324 324.309 L 418.324 324.708 L 418.571 324.698 L 418.889 324.743 L 419.126 324.864 L 419.267 325.061 L 419.318 325.318 L 419.262 325.61 L 419.116 325.827 L 418.884 325.963 L 418.576 326.009 L 418.259 325.958 L 418.027 325.807 L 417.881 325.565 L 417.825 325.232 L 417.361 325.232 L 417.361 325.232 z M 422.02 326.332 L 422.716 326.332 L 422.716 325.58 L 422.02 325.58 L 422.02 326.332 L 422.02 326.332 z M 424.873 326.332 L 427.279 326.332 L 427.279 325.898 L 425.378 325.898 L 425.484 325.661 L 425.665 325.464 L 426.225 325.106 L 426.523 324.955 L 426.855 324.738 L 427.092 324.486 L 427.229 324.188 L 427.279 323.85 L 427.193 323.427 L 426.956 323.094 L 426.593 322.882 L 426.124 322.806 L 425.64 322.892 L 425.272 323.129 L 425.035 323.507 L 424.954 324.007 L 424.954 324.077 L 425.413 324.077 L 425.413 324.037 L 425.458 323.694 L 425.595 323.442 L 425.811 323.28 L 426.099 323.225 L 426.391 323.275 L 426.608 323.401 L 426.75 323.598 L 426.8 323.845 L 426.765 324.077 L 426.669 324.274 L 426.507 324.445 L 426.286 324.597 L 425.988 324.758 L 425.494 325.071 L 425.146 325.404 L 424.939 325.807 L 424.873 326.316 L 424.873 326.332 L 424.873 326.332 z" stroke="none" fill-rule="evenodd" fill="rgb(0, 0, 0)"/><path d="M 405.832 327.814 L 403.9 328.332 L 405.832 328.849"/><path d="M 435.168 328.849 L 437.1 328.332 L 435.168 327.814"/><path d="M 403.9 328.332 L 437.1 328.332"/></g></svg>