<?xml version="1.0" encoding="utf-8" ?><!DOCTYPE svg PUBLIC "-//W3C//DTD SVG 1.1//EN" "http://www.w3.org/Graphics/SVG/1.1/DTD/svg11.dtd" 
[ <!ATTLIST svg 
  xmlns:dsy CDATA #FIXED "http://www.3ds.com/print"  
    dsy:text-version CDATA #IMPLIED > 

  <!ATTLIST text 
  xmlns:dsy CDATA #FIXED "http://www.3ds.com/print" 
    dsy:text-version CDATA #IMPLIED > 
]><svg xmlns="http://www.w3.org/2000/svg" xmlns:dsy="http://www.3ds.com/print" dsy:text-version="18000" width="841" height="594" viewBox="0 0 841 594" version="1.1"><g stroke="rgb(0, 0, 0)" stroke-width="0.13" stroke-linecap="butt" stroke-linejoin="miter" fill="none"><path d="M 107.227 136.2 L 101.338 101.805"/><path d="M 562.631 58.2252 L 556.742 23.8307"/></g><g stroke="rgb(0, 0, 0)" stroke-width="0.35" stroke-linecap="butt" stroke-linejoin="miter" fill="none"><circle cx="521.91" cy="136.134" r="12.5"/><circle cx="521.91" cy="486.45" r="12.5"/><circle cx="72.65" cy="180.369" r="2.14999"/><circle cx="682.65" cy="542.206" r="2.14999"/><circle cx="72.05" cy="411.874" r="2.14999"/><circle cx="682.65" cy="54.9228" r="2.14999"/><path d="M 693.075 37.9194 L 701.418 71.2916"/><path d="M 701.418 71.2916 L 785.5 99.3188"/><path d="M 785.5 498.067 L 785.5 99.3188"/><path d="M 695.355 525.111 L 785.5 498.067"/><path d="M 691.985 556.081 L 695.355 525.111"/><path d="M 669.61 552.249 L 691.985 556.081"/><path d="M 661.418 511.292 L 669.61 552.249"/><path d="M 661.418 511.292 L 577.482 536.472"/><path d="M 669.449 41.9648 L 693.075 37.9194"/><path d="M 669.449 77.4561 L 562.968 60.1965"/><path d="M 669.449 77.4561 L 669.449 41.9648"/><path d="M 107.565 138.171 L 562.968 60.1965"/><path d="M 111.418 161.292 L 55.5 170.611"/><path d="M 111.418 161.292 L 107.565 138.171"/><path d="M 111.418 456.661 L 577.482 536.472"/><path d="M 111.418 441.292 L 111.418 456.661"/><path d="M 111.418 441.292 L 55.5 425.315"/><path d="M 494.866 192.451 L 500.07 189.464"/><path d="M 494.866 192.451 L 504.821 209.797"/><path d="M 510.025 206.811 L 500.07 189.464"/><path d="M 510.025 206.811 L 504.821 209.797"/><path d="M 516.557 393.475 L 521.739 396.5"/><path d="M 516.557 393.475 L 506.475 410.748"/><path d="M 511.657 413.773 L 521.739 396.5"/><path d="M 511.657 413.773 L 506.475 410.748"/><path d="M 55.5 425.315 L 55.5 303.961"/><path d="M 55.5 297.961 L 55.5 170.611"/><path d="M 55.5 297.961 L 65.5 297.961"/><path d="M 65.5 303.961 L 65.5 297.961"/><path d="M 55.5 303.961 L 65.5 303.961"/></g><g stroke="rgb(0, 0, 0)" stroke-width="0.13" stroke-linecap="butt" stroke-linejoin="miter" fill="none"><path d="M 320.107 64.3474 L 320.555 64.2708 L 320.408 63.4158 L 320.9 63.3315 L 320.832 62.9338 L 320.34 63.0181 L 319.977 60.8956 L 319.524 60.973 L 318.37 63.3146 L 318.445 63.752 L 319.961 63.4924 L 320.107 64.3474 L 320.107 64.3474 z M 318.794 63.2828 L 319.628 61.5488 L 319.893 63.0947 L 318.794 63.2828 L 318.794 63.2828 z M 324.278 61.0392 L 324.114 60.6527 L 323.845 60.3919 L 323.474 60.2609 L 323.026 60.2712 L 322.738 60.3562 L 322.501 60.494 L 322.304 60.6865 L 322.152 60.9375 L 322.05 61.2365 L 321.998 61.5882 L 321.995 61.9929 L 322.051 62.4387 L 322.252 63.1309 L 322.583 63.6012 L 323.028 63.8422 L 323.583 63.8546 L 324.05 63.6826 L 324.378 63.386 L 324.553 62.9773 L 324.558 62.4955 L 324.392 62.0378 L 324.102 61.7141 L 323.71 61.5458 L 323.259 61.5412 L 322.803 61.7214 L 322.499 62.0652 L 322.48 61.5057 L 322.572 61.0857 L 322.775 60.8104 L 323.1 60.673 L 323.355 60.6702 L 323.562 60.7422 L 323.716 60.895 L 323.82 61.1175 L 324.278 61.0392 L 324.278 61.0392 z M 324.077 62.5831 L 324.075 62.9056 L 323.977 63.168 L 323.781 63.3654 L 323.511 63.4628 L 323.209 63.4633 L 322.959 63.3475 L 322.774 63.1335 L 322.676 62.8281 L 322.673 62.5114 L 322.772 62.2539 L 322.975 62.0656 L 323.274 61.9581 L 323.551 61.9669 L 323.79 62.0744 L 323.969 62.2842 L 324.077 62.5831 L 324.077 62.5831 z M 325.986 63.3409 L 328.357 62.9349 L 328.284 62.5074 L 326.41 62.8283 L 326.474 62.5768 L 326.62 62.3523 L 327.111 61.9048 L 327.379 61.7055 L 327.67 61.4356 L 327.862 61.147 L 327.945 60.8308 L 327.938 60.4892 L 327.782 60.0861 L 327.492 59.798 L 327.099 59.6506 L 326.624 59.6552 L 326.161 59.8214 L 325.838 60.1171 L 325.668 60.53 L 325.673 61.0357 L 325.685 61.1053 L 326.137 61.0278 L 326.13 60.988 L 326.117 60.6424 L 326.209 60.3708 L 326.395 60.1752 L 326.669 60.072 L 326.966 60.0723 L 327.201 60.16 L 327.374 60.33 L 327.465 60.5651 L 327.469 60.7997 L 327.408 61.0098 L 327.278 61.206 L 327.085 61.3926 L 326.819 61.6019 L 326.384 61.9935 L 326.098 62.3803 L 325.962 62.8129 L 325.983 63.326 L 325.986 63.3409 L 325.986 63.3409 z M 330.538 62.5615 L 331.224 62.444 L 331.097 61.7033 L 330.411 61.8208 L 330.538 62.5615 L 330.538 62.5615 z M 333.077 60.3922 L 333.285 61.1599 L 333.614 61.6766 L 334.045 61.9508 L 334.581 61.9716 L 335.074 61.7746 L 335.389 61.3727 L 335.522 60.7769 L 335.468 59.9828 L 335.256 59.221 L 335.109 58.929 L 334.931 58.6984 L 334.5 58.4243 L 333.969 58.3976 L 333.471 58.6004 L 333.157 59.0073 L 333.019 59.604 L 333.077 60.3922 L 333.077 60.3922 z M 333.554 60.3105 L 333.491 59.7022 L 333.541 59.2485 L 333.722 58.9567 L 334.039 58.8102 L 334.383 58.8434 L 334.65 59.0587 L 334.848 59.4698 L 334.991 60.0645 L 335.055 60.6778 L 335.005 61.1315 L 334.824 61.4233 L 334.511 61.564 L 334.163 61.5366 L 333.896 61.3214 L 333.698 60.9102 L 333.554 60.3105 L 333.554 60.3105 z M 336.808 60.3726 L 336.814 60.4073 L 336.975 60.871 L 337.27 61.1888 L 337.677 61.3546 L 338.179 61.3557 L 338.681 61.1826 L 339.031 60.8975 L 339.22 60.507 L 339.233 60.0443 L 339.143 59.7578 L 338.993 59.5379 L 338.783 59.3846 L 338.521 59.2913 L 338.798 58.9675 L 338.839 58.5204 L 338.698 58.1455 L 338.434 57.8888 L 338.055 57.7645 L 337.567 57.7816 L 337.133 57.9377 L 336.827 58.2151 L 336.663 58.6014 L 336.668 59.0765 L 336.674 59.1113 L 337.116 59.0355 L 337.101 58.7106 L 337.192 58.4598 L 337.376 58.2849 L 337.661 58.1849 L 337.927 58.1804 L 338.133 58.2524 L 338.277 58.4019 L 338.36 58.6229 L 338.357 58.8741 L 338.266 59.0586 L 338.074 59.1938 L 337.796 59.2721 L 337.602 59.3004 L 337.669 59.6931 L 337.911 59.6414 L 338.231 59.6325 L 338.486 59.7118 L 338.658 59.8818 L 338.751 60.1268 L 338.746 60.4245 L 338.638 60.663 L 338.432 60.8363 L 338.137 60.933 L 337.815 60.9369 L 337.561 60.8269 L 337.376 60.613 L 337.265 60.2943 L 336.808 60.3726 L 336.808 60.3726 z" stroke="none" fill-rule="evenodd" fill="rgb(0, 0, 0)"/><path d="M 555.262 26.6383 L 557.079 25.8021 L 555.088 25.6179"/><path d="M 103.493 102.94 L 101.676 103.776 L 103.667 103.961"/><path d="M 101.676 103.776 L 557.079 25.8021"/></g></svg>