M48
;GenerationSoftware,Autodesk,EAGLE,9.6.2*%
;CreationDate,2021-12-28T11:34:04Z*%
FMAT,2
ICI,OFF
METRIC,TZ,000.000
T8C0.350
T7C0.750
T6C0.800
T5C0.813
T4C0.850
T3C1.000
T2C1.100
T1C3.200
%
G90
M71
T1
X77470Y67310
X77470Y16510
X7620Y67310
X7620Y16510
T2
X69850Y53340
X69850Y50800
T3
X8890Y60960
X8890Y58420
X8890Y53340
X8890Y50800
T4
X43180Y31790
X43180Y36790
T5
X19050Y64770
X19050Y46990
X48260Y29210
X12700Y21590
X73660Y29210
X12700Y46990
T6
X33020Y46990
X27940Y60960
X32940Y60960
X33020Y41990
X55880Y41910
X60880Y41910
T7
X69850Y44450
X69850Y42450
X60960Y53340
X60960Y51340
T8
X45720Y24130
X39370Y29210
X54610Y19050
X43180Y21590
X43180Y19050
X22860Y22860
X45720Y46990
X45720Y53340
X44450Y57150
X44450Y60960
X54610Y52070
X50800Y48260
X40640Y60960
X48260Y52070
X27940Y39370
X16510Y25400
M30