  0
SECTION
  2
HEADER
  9
$ACADVER
  1
AC1021
  9
$ACADMAINTVER
 70
    25
  9
$DWGCODEPAGE
  3
ANSI_1252
  9
$INSBASE
 10
0.0
 20
0.0
 30
0.0
  9
$EXTMIN
 10
0.0
 20
0.0
 30
0.0
  9
$EXTMAX
 10
387.319672
 20
275.824707
 30
2.0
  9
$LIMMIN
 10
0.0
 20
0.0
  9
$LIMMAX
 10
420.0
 20
297.0
  9
$ORTHOMODE
 70
     0
  9
$REGENMODE
 70
     1
  9
$FILLMODE
 70
     1
  9
$QTEXTMODE
 70
     0
  9
$MIRRTEXT
 70
     1
  9
$LTSCALE
 40
1.0
  9
$ATTMODE
 70
     1
  9
$TEXTSIZE
 40
2.5
  9
$TRACEWID
 40
1.0
  9
$TEXTSTYLE
  7
Standard
  9
$CLAYER
  8
0
  9
$CELTYPE
  6
ByLayer
  9
$CECOLOR
 62
   256
  9
$CELTSCALE
 40
1.0
  9
$DISPSILH
 70
     0
  9
$DIMSCALE
 40
1.0
  9
$DIMASZ
 40
2.5
  9
$DIMEXO
 40
0.625
  9
$DIMDLI
 40
3.75
  9
$DIMRND
 40
0.0
  9
$DIMDLE
 40
0.0
  9
$DIMEXE
 40
1.25
  9
$DIMTP
 40
0.0
  9
$DIMTM
 40
0.0
  9
$DIMTXT
 40
2.5
  9
$DIMCEN
 40
2.5
  9
$DIMTSZ
 40
0.0
  9
$DIMTOL
 70
     0
  9
$DIMLIM
 70
     0
  9
$DIMTIH
 70
     0
  9
$DIMTOH
 70
     0
  9
$DIMSE1
 70
     0
  9
$DIMSE2
 70
     0
  9
$DIMTAD
 70
     1
  9
$DIMZIN
 70
     8
  9
$DIMBLK
  1

  9
$DIMASO
 70
     1
  9
$DIMSHO
 70
     1
  9
$DIMPOST
  1

  9
$DIMAPOST
  1

  9
$DIMALT
 70
     0
  9
$DIMALTD
 70
     3
  9
$DIMALTF
 40
0.03937
  9
$DIMLFAC
 40
1.0
  9
$DIMTOFL
 70
     1
  9
$DIMTVP
 40
0.0
  9
$DIMTIX
 70
     0
  9
$DIMSOXD
 70
     0
  9
$DIMSAH
 70
     0
  9
$DIMBLK1
  1

  9
$DIMBLK2
  1

  9
$DIMSTYLE
  2
Standard
  9
$DIMCLRD
 70
     0
  9
$DIMCLRE
 70
     0
  9
$DIMCLRT
 70
     0
  9
$DIMTFAC
 40
1.0
  9
$DIMGAP
 40
0.625
  9
$DIMJUST
 70
     0
  9
$DIMSD1
 70
     0
  9
$DIMSD2
 70
     0
  9
$DIMTOLJ
 70
     0
  9
$DIMTZIN
 70
     8
  9
$DIMALTZ
 70
     0
  9
$DIMALTTZ
 70
     0
  9
$DIMUPT
 70
     0
  9
$DIMDEC
 70
     2
  9
$DIMTDEC
 70
     2
  9
$DIMALTU
 70
     2
  9
$DIMALTTD
 70
     3
  9
$DIMTXSTY
  7
Standard
  9
$DIMAUNIT
 70
     0
  9
$DIMADEC
 70
     0
  9
$DIMALTRND
 40
0.0
  9
$DIMAZIN
 70
     0
  9
$DIMDSEP
 70
    44
  9
$DIMATFIT
 70
     0
  9
$DIMFRAC
 70
     0
  9
$DIMLDRBLK
  1

  9
$DIMLUNIT
 70
     2
  9
$DIMLWD
 70
    -2
  9
$DIMLWE
 70
    -2
  9
$DIMTMOVE
 70
     0
  9
$DIMFXL
 40
1.0
  9
$DIMFXLON
 70
     0
  9
$DIMJOGANG
 40
0.7853981633974483
  9
$DIMTFILL
 70
     0
  9
$DIMTFILLCLR
 70
     0
  9
$DIMARCSYM
 70
     0
  9
$DIMLTYPE
  6

  9
$DIMLTEX1
  6

  9
$DIMLTEX2
  6

  9
$LUNITS
 70
     2
  9
$LUPREC
 70
     4
  9
$SKETCHINC
 40
1.0
  9
$FILLETRAD
 40
2.5
  9
$AUNITS
 70
     0
  9
$AUPREC
 70
     0
  9
$MENU
  1
.
  9
$ELEVATION
 40
0.0
  9
$PELEVATION
 40
0.0
  9
$THICKNESS
 40
0.0
  9
$LIMCHECK
 70
     0
  9
$CHAMFERA
 40
2.5
  9
$CHAMFERB
 40
2.5
  9
$CHAMFERC
 40
0.0
  9
$CHAMFERD
 40
0.0
  9
$SKPOLY
 70
     0
  9
$TDCREATE
 40
2447893.041666667
  9
$TDUCREATE
 40
0.0
  9
$TDUPDATE
 40
2447893.041666667
  9
$TDUUPDATE
 40
0.0
  9
$TDINDWG
 40
0.0
  9
$TDUSRTIMER
 40
0.0
  9
$USRTIMER
 70
     1
  9
$ANGBASE
 50
0.0
  9
$ANGDIR
 70
     0
  9
$PDMODE
 70
     0
  9
$PDSIZE
 40
0.0
  9
$PLINEWID
 40
0.0
  9
$SPLFRAME
 70
     0
  9
$SPLINETYPE
 70
     6
  9
$SPLINESEGS
 70
     8
  9
$HANDSEED
  5
227
  9
$SURFTAB1
 70
     6
  9
$SURFTAB2
 70
     6
  9
$SURFTYPE
 70
     6
  9
$SURFU
 70
     6
  9
$SURFV
 70
     6
  9
$UCSBASE
  2

  9
$UCSNAME
  2

  9
$UCSORG
 10
0.0
 20
0.0
 30
0.0
  9
$UCSXDIR
 10
1.0
 20
0.0
 30
0.0
  9
$UCSYDIR
 10
0.0
 20
1.0
 30
0.0
  9
$UCSORTHOREF
  2

  9
$UCSORTHOVIEW
 70
     1
  9
$UCSORGTOP
 10
0.0
 20
0.0
 30
0.0
  9
$UCSORGBOTTOM
 10
0.0
 20
0.0
 30
0.0
  9
$UCSORGLEFT
 10
0.0
 20
0.0
 30
0.0
  9
$UCSORGRIGHT
 10
0.0
 20
0.0
 30
0.0
  9
$UCSORGFRONT
 10
0.0
 20
0.0
 30
0.0
  9
$UCSORGBACK
 10
0.0
 20
0.0
 30
0.0
  9
$PUCSBASE
  2

  9
$PUCSNAME
  2

  9
$PUCSORG
 10
0.0
 20
0.0
 30
0.0
  9
$PUCSXDIR
 10
1.0
 20
0.0
 30
0.0
  9
$PUCSYDIR
 10
0.0
 20
1.0
 30
0.0
  9
$PUCSORTHOREF
  2

  9
$PUCSORTHOVIEW
 70
     0
  9
$PUCSORGTOP
 10
0.0
 20
0.0
 30
0.0
  9
$PUCSORGBOTTOM
 10
0.0
 20
0.0
 30
0.0
  9
$PUCSORGLEFT
 10
0.0
 20
0.0
 30
0.0
  9
$PUCSORGRIGHT
 10
0.0
 20
0.0
 30
0.0
  9
$PUCSORGFRONT
 10
0.0
 20
0.0
 30
0.0
  9
$PUCSORGBACK
 10
0.0
 20
0.0
 30
0.0
  9
$USERI1
 70
     0
  9
$USERI2
 70
     0
  9
$USERI3
 70
     0
  9
$USERI4
 70
     0
  9
$USERI5
 70
     0
  9
$USERR1
 40
0.0
  9
$USERR2
 40
0.0
  9
$USERR3
 40
0.0
  9
$USERR4
 40
0.0
  9
$USERR5
 40
0.0
  9
$WORLDVIEW
 70
     1
  9
$SHADEDGE
 70
     3
  9
$SHADEDIF
 70
    70
  9
$TILEMODE
 70
     1
  9
$MAXACTVP
 70
    48
  9
$PINSBASE
 10
0.0
 20
0.0
 30
0.0
  9
$PLIMCHECK
 70
     0
  9
$PEXTMIN
 10
0.0
 20
0.0
 30
0.0
  9
$PEXTMAX
 10
387.319672
 20
275.824707
 30
2.0
  9
$PLIMMIN
 10
0.0
 20
0.0
  9
$PLIMMAX
 10
420.0
 20
297.0
  9
$UNITMODE
 70
     0
  9
$VISRETAIN
 70
     0
  9
$PLINEGEN
 70
     0
  9
$PSLTSCALE
 70
     1
  9
$TREEDEPTH
 70
  3020
  9
$CMLSTYLE
  2
Standard
  9
$CMLJUST
 70
     0
  9
$CMLSCALE
 40
20.0
  9
$PROXYGRAPHICS
 70
     1
  9
$MEASUREMENT
 70
     1
  9
$CELWEIGHT
370
    -1
  9
$ENDCAPS
280
     0
  9
$JOINSTYLE
280
     0
  9
$LWDISPLAY
290
     0
  9
$INSUNITS
 70
     0
  9
$HYPERLINKBASE
  1

  9
$STYLESHEET
  1

  9
$XEDIT
290
     1
  9
$CEPSNTYPE
380
     0
  9
$PSTYLEMODE
290
     0
  9
$FINGERPRINTGUID
  2

  9
$VERSIONGUID
  2

  9
$EXTNAMES
290
     0
  9
$PSVPSCALE
 40
0.0
  9
$OLESTARTUP
290
     0
  9
$SORTENTS
280
   127
  9
$INDEXCTL
280
     0
  9
$HIDETEXT
280
     1
  9
$XCLIPFRAME
290
     0
  9
$HALOGAP
280
     0
  9
$OBSCOLOR
 70
   257
  9
$OBSLTYPE
280
     0
  9
$INTERSECTIONDISPLAY
280
     0
  9
$INTERSECTIONCOLOR
 70
   257
  9
$DIMASSOC
280
     2
  9
$PROJECTNAME
  1

  9
$CAMERADISPLAY
290
     0
  9
$LENSLENGTH
 40
50.0
  9
$CAMERAHEIGHT
 40
0.0
  9
$STEPSPERSEC
 40
2.0
  9
$STEPSIZE
 40
6.0
  9
$3DDWFPREC
 40
2.0
  9
$PSOLWIDTH
 40
0.25
  9
$PSOLHEIGHT
 40
4.0
  9
$LOFTANG1
 40
1.570796326794897
  9
$LOFTANG2
 40
1.570796326794897
  9
$LOFTMAG1
 40
0.0
  9
$LOFTMAG2
 40
0.0
  9
$LOFTPARAM
 70
     7
  9
$LOFTNORMALS
280
     1
  9
$LATITUDE
 40
37.795
  9
$LONGITUDE
 40
-122.394
  9
$NORTHDIRECTION
 40
0.0
  9
$TIMEZONE
 70
 -8000
  9
$LIGHTGLYPHDISPLAY
280
     1
  9
$TILEMODELIGHTSYNCH
280
     1
  9
$SOLIDHIST
280
     1
  9
$SHOWHIST
280
     1
  9
$DWFFRAME
280
     2
  9
$DGNFRAME
280
     2
  9
$REALWORLDSCALE
290
     1
  9
$INTERFERECOLOR
 62
   256
  9
$CSHADOW
280
     0
  9
$SHADOWPLANELOCATION
 40
0.0
  0
ENDSEC
  0
SECTION
  2
CLASSES
  0
CLASS
  1
LWPOLYLINE
  2
AcDbPolyline
  3
AutoCAD 2000
 90
        0
 91
        1
280
     0
281
     1
  0
CLASS
  1
IMAGE
  2
AcDbRasterImage
  3
ISM
 90
      127
 91
        5
280
     0
281
     1
  0
CLASS
  1
OLE2FRAME
  2
AcDbOle2Frame
  3
AutoCAD 2000
 90
        0
 91
        1
280
     0
281
     1
  0
CLASS
  1
HATCH
  2
AcDbHatch
  3
AutoCAD 2000
 90
        0
 91
        1
280
     0
281
     1
  0
CLASS
  1
DICTIONARYVAR
  2
AcDbDictionaryVar
  3
ObjectDBX Classes
 90
        0
 91
        4
280
     0
281
     0
  0
CLASS
  1
RASTERVARIABLES
  2
AcDbRasterVariables
  3
ISM
 90
        0
 91
        4
280
     0
281
     0
  0
CLASS
  1
IMAGEDEF
  2
AcDbRasterImageDef
  3
ISM
 90
        0
 91
        4
280
     0
281
     0
  0
CLASS
  1
IMAGEDEF_REACTOR
  2
AcDbRasterImageDefReactor
  3
ISM
 90
        1
 91
        4
280
     0
281
     0
  0
CLASS
  1
IDBUFFER
  2
AcDbIdBuffer
  3
ObjectDBX Classes
 90
        0
 91
        4
280
     0
281
     0
  0
CLASS
  1
SPATIAL_FILTER
  2
AcDbSpatialFilter
  3
ObjectDBX Classes
 90
        0
 91
        4
280
     0
281
     0
  0
CLASS
  1
XRECORD
  2
AcDbXrecord
  3
AutoCAD 2000
 90
        0
 91
        1
280
     0
281
     0
  0
CLASS
  1
SORTENTSTABLE
  2
AcDbSortentsTable
  3
ObjectDBX Classes
 90
        0
 91
        4
280
     0
281
     0
  0
CLASS
  1
LAYER_INDEX
  2
AcDbLayerIndex
  3
ObjectDBX Classes
 90
        0
 91
        4
280
     0
281
     0
  0
CLASS
  1
SPATIAL_INDEX
  2
AcDbSpatialIndex
  3
AutoCAD 2000
 90
        0
 91
        4
280
     0
281
     0
  0
CLASS
  1
OBJECT_PTR
  2
CAseDLPNTableRecord
  3
ASE-LPNTableRecord
 90
        1
 91
        4
280
     0
281
     0
  0
CLASS
  1
LAYOUT
  2
AcDbLayout
  3
ObjectDBX Classes
 90
        0
 91
        1
280
     0
281
     0
  0
CLASS
  1
PLOTSETTINGS
  2
AcDbPlotSettings
  3
ObjectDBX Classes
 90
        0
 91
        4
280
     0
281
     0
  0
CLASS
  1
ACDBDICTIONARYWDFLT
  2
AcDbDictionaryWithDefault
  3
ObjectDBX Classes
 90
        0
 91
        4
280
     0
281
     0
  0
CLASS
  1
ACDBPLACEHOLDER
  2
AcDbPlaceHolder
  3
ObjectDBX Classes
 90
        0
 91
        1
280
     0
281
     0
  0
CLASS
  1
VBA_PROJECT
  2
AcDbVbaProject
  3
ObjectDBX Classes
 90
        0
 91
        1
280
     0
281
     0
  0
CLASS
  1
WIPEOUT
  2
AcDbWipeout
  3
WipeOut|AutoCAD Express Tool|expresstools@autodesk.com
 90
      127
 91
        4
280
     0
281
     1
  0
CLASS
  1
WIPEOUTVARIABLES
  2
AcDbWipeoutVariables
  3
WipeOut|AutoCAD Express Tool|expresstools@autodesk.com
 90
        0
 91
        4
280
     0
281
     0
  0
CLASS
  1
RTEXT
  2
RText
  3
RText|AutoCAD Express Tool|expresstools@autodesk.com
 90
        0
 91
        4
280
     0
281
     1
  0
CLASS
  1
ARCALIGNEDTEXT
  2
AcDbArcAlignedText
  3
ATEXT|AutoCAD Express Tool|expresstools@autodesk.com
 90
        0
 91
        4
280
     0
281
     1
  0
CLASS
  1
SCALE
  2
AcDbScale
  3
ObjectDBX Classes
 90
     1153
 91
        4
280
     0
281
     0
  0
ENDSEC
  0
SECTION
  2
TABLES
  0
TABLE
  2
VPORT
  5
7
330
0
100
AcDbSymbolTable
 70
     1
  0
VPORT
  5
15
330
7
100
AcDbSymbolTableRecord
100
AcDbViewportTableRecord
  2
*ACTIVE
 70
     0
 10
0.0
 20
0.0
 11
1.0
 21
1.0
 12
6.591288
 22
4.579184
 13
0.0
 23
0.0
 14
1.0
 24
1.0
 15
0.0
 25
0.0
 16
0.0
 26
0.0
 36
1.0
 17
0.0
 27
0.0
 37
0.0
 40
9.158369
 41
0.688564
 42
50.0
 43
0.0
 44
0.0
 50
0.0
 51
0.0
 71
     0
 72
   100
 73
     1
 74
     1
 75
     0
 76
     0
 77
     0
 78
     0
281
     0
 65
     0
110
0.0
120
0.0
130
0.0
111
1.0
121
0.0
131
0.0
112
0.0
122
1.0
132
0.0
 79
     0
146
0.0
 60
     3
 61
     5
292
     1
282
     1
141
0.0
142
0.0
 63
   256
  0
ENDTAB
  0
TABLE
  2
LTYPE
  5
4
330
0
100
AcDbSymbolTable
 70
     1
  0
LTYPE
  5
11
330
4
100
AcDbSymbolTableRecord
100
AcDbLinetypeTableRecord
  2
ByBlock
 70
     0
  3

 72
    65
 73
     0
 40
0.0
  0
LTYPE
  5
12
330
4
100
AcDbSymbolTableRecord
100
AcDbLinetypeTableRecord
  2
ByLayer
 70
     0
  3

 72
    65
 73
     0
 40
0.0
  0
LTYPE
  5
13
330
4
100
AcDbSymbolTableRecord
100
AcDbLinetypeTableRecord
  2
Continuous
 70
     0
  3
Solid line
 72
    65
 73
     0
 40
0.0
  0
ENDTAB
  0
TABLE
  2
LAYER
  5
2
330
0
100
AcDbSymbolTable
 70
     1
  0
LAYER
  5
14
330
2
100
AcDbSymbolTableRecord
100
AcDbLayerTableRecord
  2
0
 70
     0
 62
     7
  6
Continuous
370
    -3
390
1D
347
0
  0
ENDTAB
  0
TABLE
  2
STYLE
  5
3
330
0
100
AcDbSymbolTable
 70
     1
  0
STYLE
  5
17
330
3
100
AcDbSymbolTableRecord
100
AcDbTextStyleTableRecord
  2
Standard
 70
     0
 40
0.0
 41
1.0
 50
0.0
 71
     0
 42
2.5
  3
txt
  4

  0
ENDTAB
  0
TABLE
  2
VIEW
  5
5
330
0
100
AcDbSymbolTable
 70
     0
  0
ENDTAB
  0
TABLE
  2
UCS
  5
6
330
0
100
AcDbSymbolTable
 70
     0
  0
ENDTAB
  0
TABLE
  2
APPID
  5
8
330
0
100
AcDbSymbolTable
 70
     1
  0
APPID
  5
16
330
8
100
AcDbSymbolTableRecord
100
AcDbRegAppTableRecord
  2
ACAD
 70
     0
  0
ENDTAB
  0
TABLE
  2
DIMSTYLE
  5
9
330
0
100
AcDbSymbolTable
 70
     1
100
AcDbDimStyleTable
  0
DIMSTYLE
105
18
330
9
100
AcDbSymbolTableRecord
100
AcDbDimStyleTableRecord
  2
Standard
 70
     0
340
17
  0
ENDTAB
  0
TABLE
  2
BLOCK_RECORD
  5
1
330
0
100
AcDbSymbolTable
 70
     0
  0
BLOCK_RECORD
  5
A
330
1
100
AcDbSymbolTableRecord
100
AcDbBlockTableRecord
  2
*MODEL_SPACE
340
20
 70
     0
280
     1
281
     0
  0
BLOCK_RECORD
  5
B
330
1
100
AcDbSymbolTableRecord
100
AcDbBlockTableRecord
  2
*PAPER_SPACE
340
21
 70
     0
280
     1
281
     0
  0
ENDTAB
  0
ENDSEC
  0
SECTION
  2
BLOCKS
  0
BLOCK
  5
D
330
A
100
AcDbEntity
  8
0
390
1D
100
AcDbBlockBegin
  2
*MODEL_SPACE
 70
     0
 10
0.0
 20
0.0
 30
0.0
  3
*MODEL_SPACE
  1

  0
ENDBLK
  5
E
330
A
100
AcDbEntity
  8
0
390
1D
100
AcDbBlockEnd
  0
BLOCK
  5
F
330
B
100
AcDbEntity
 67
     1
  8
0
390
1D
100
AcDbBlockBegin
  2
*PAPER_SPACE
 70
     0
 10
0.0
 20
0.0
 30
0.0
  3
*PAPER_SPACE
  1

  0
ENDBLK
  5
10
330
B
100
AcDbEntity
 67
     1
  8
0
390
1D
100
AcDbBlockEnd
  0
ENDSEC
  0
SECTION
  2
ENTITIES
  0
POLYLINE
  5
24
330
A
100
AcDbEntity
  8
0
 62
     7
370
    13
390
1D
100
AcDb2dPolyline
 66
     1
 10
0.0
 20
0.0
 30
0.0
 70
     1
  0
VERTEX
  5
25
330
24
100
AcDbEntity
  8
0
 62
     7
370
     0
390
1D
100
AcDbVertex
100
AcDb2dVertex
 10
382.220245
 20
186.885925
 30
0.0
  0
VERTEX
  5
26
330
24
100
AcDbEntity
  8
0
 62
     7
370
     0
390
1D
100
AcDbVertex
100
AcDb2dVertex
 10
382.255554
 20
186.885925
 30
0.0
  0
VERTEX
  5
27
330
24
100
AcDbEntity
  8
0
 62
     7
370
     0
390
1D
100
AcDbVertex
100
AcDb2dVertex
 10
382.739716
 20
186.966614
 30
0.0
  0
VERTEX
  5
28
330
24
100
AcDbEntity
  8
0
 62
     7
370
     0
390
1D
100
AcDbVertex
100
AcDb2dVertex
 10
383.102814
 20
187.203644
 30
0.0
  0
VERTEX
  5
29
330
24
100
AcDbEntity
  8
0
 62
     7
370
     0
390
1D
100
AcDbVertex
100
AcDb2dVertex
 10
383.334808
 20
187.576843
 30
0.0
  0
VERTEX
  5
2A
330
24
100
AcDbEntity
  8
0
 62
     7
370
     0
390
1D
100
AcDbVertex
100
AcDb2dVertex
 10
383.420532
 20
188.071075
 30
0.0
  0
VERTEX
  5
2B
330
24
100
AcDbEntity
  8
0
 62
     7
370
     0
390
1D
100
AcDbVertex
100
AcDb2dVertex
 10
383.334808
 20
188.595581
 30
0.0
  0
VERTEX
  5
2C
330
24
100
AcDbEntity
  8
0
 62
     7
370
     0
390
1D
100
AcDbVertex
100
AcDb2dVertex
 10
383.112915
 20
188.988953
 30
0.0
  0
VERTEX
  5
2D
330
24
100
AcDbEntity
  8
0
 62
     7
370
     0
390
1D
100
AcDbVertex
100
AcDb2dVertex
 10
382.759888
 20
189.241104
 30
0.0
  0
VERTEX
  5
2E
330
24
100
AcDbEntity
  8
0
 62
     7
370
     0
390
1D
100
AcDbVertex
100
AcDb2dVertex
 10
382.305969
 20
189.331879
 30
0.0
  0
VERTEX
  5
2F
330
24
100
AcDbEntity
  8
0
 62
     7
370
     0
390
1D
100
AcDbVertex
100
AcDb2dVertex
 10
382.008423
 20
189.291534
 30
0.0
  0
VERTEX
  5
30
330
24
100
AcDbEntity
  8
0
 62
     7
370
     0
390
1D
100
AcDbVertex
100
AcDb2dVertex
 10
381.766357
 20
189.180588
 30
0.0
  0
VERTEX
  5
31
330
24
100
AcDbEntity
  8
0
 62
     7
370
     0
390
1D
100
AcDbVertex
100
AcDb2dVertex
 10
381.579773
 20
188.999023
 30
0.0
  0
VERTEX
  5
32
330
24
100
AcDbEntity
  8
0
 62
     7
370
     0
390
1D
100
AcDbVertex
100
AcDb2dVertex
 10
381.443604
 20
188.756958
 30
0.0
  0
VERTEX
  5
33
330
24
100
AcDbEntity
  8
0
 62
     7
370
     0
390
1D
100
AcDbVertex
100
AcDb2dVertex
 10
381.171265
 20
189.084778
 30
0.0
  0
VERTEX
  5
34
330
24
100
AcDbEntity
  8
0
 62
     7
370
     0
390
1D
100
AcDbVertex
100
AcDb2dVertex
 10
380.737549
 20
189.20076
 30
0.0
  0
VERTEX
  5
35
330
24
100
AcDbEntity
  8
0
 62
     7
370
     0
390
1D
100
AcDbVertex
100
AcDb2dVertex
 10
380.344177
 20
189.125122
 30
0.0
  0
VERTEX
  5
36
330
24
100
AcDbEntity
  8
0
 62
     7
370
     0
390
1D
100
AcDbVertex
100
AcDb2dVertex
 10
380.046631
 20
188.908264
 30
0.0
  0
VERTEX
  5
37
330
24
100
AcDbEntity
  8
0
 62
     7
370
     0
390
1D
100
AcDbVertex
100
AcDb2dVertex
 10
379.860016
 20
188.555237
 30
0.0
  0
VERTEX
  5
38
330
24
100
AcDbEntity
  8
0
 62
     7
370
     0
390
1D
100
AcDbVertex
100
AcDb2dVertex
 10
379.794464
 20
188.071075
 30
0.0
  0
VERTEX
  5
39
330
24
100
AcDbEntity
  8
0
 62
     7
370
     0
390
1D
100
AcDbVertex
100
AcDb2dVertex
 10
379.875153
 20
187.617188
 30
0.0
  0
VERTEX
  5
3A
330
24
100
AcDbEntity
  8
0
 62
     7
370
     0
390
1D
100
AcDbVertex
100
AcDb2dVertex
 10
380.097046
 20
187.269196
 30
0.0
  0
VERTEX
  5
3B
330
24
100
AcDbEntity
  8
0
 62
     7
370
     0
390
1D
100
AcDbVertex
100
AcDb2dVertex
 10
380.450073
 20
187.042267
 30
0.0
  0
VERTEX
  5
3C
330
24
100
AcDbEntity
  8
0
 62
     7
370
     0
390
1D
100
AcDbVertex
100
AcDb2dVertex
 10
380.919098
 20
186.966614
 30
0.0
  0
VERTEX
  5
3D
330
24
100
AcDbEntity
  8
0
 62
     7
370
     0
390
1D
100
AcDbVertex
100
AcDb2dVertex
 10
380.954407
 20
186.966614
 30
0.0
  0
VERTEX
  5
3E
330
24
100
AcDbEntity
  8
0
 62
     7
370
     0
390
1D
100
AcDbVertex
100
AcDb2dVertex
 10
380.954407
 20
187.415466
 30
0.0
  0
VERTEX
  5
3F
330
24
100
AcDbEntity
  8
0
 62
     7
370
     0
390
1D
100
AcDbVertex
100
AcDb2dVertex
 10
380.631622
 20
187.455811
 30
0.0
  0
VERTEX
  5
40
330
24
100
AcDbEntity
  8
0
 62
     7
370
     0
390
1D
100
AcDbVertex
100
AcDb2dVertex
 10
380.399658
 20
187.586929
 30
0.0
  0
VERTEX
  5
41
330
24
100
AcDbEntity
  8
0
 62
     7
370
     0
390
1D
100
AcDbVertex
100
AcDb2dVertex
 10
380.258423
 20
187.798737
 30
0.0
  0
VERTEX
  5
42
330
24
100
AcDbEntity
  8
0
 62
     7
370
     0
390
1D
100
AcDbVertex
100
AcDb2dVertex
 10
380.208008
 20
188.096283
 30
0.0
  0
VERTEX
  5
43
330
24
100
AcDbEntity
  8
0
 62
     7
370
     0
390
1D
100
AcDbVertex
100
AcDb2dVertex
 10
380.248352
 20
188.358551
 30
0.0
  0
VERTEX
  5
44
330
24
100
AcDbEntity
  8
0
 62
     7
370
     0
390
1D
100
AcDbVertex
100
AcDb2dVertex
 10
380.354248
 20
188.550186
 30
0.0
  0
VERTEX
  5
45
330
24
100
AcDbEntity
  8
0
 62
     7
370
     0
390
1D
100
AcDbVertex
100
AcDb2dVertex
 10
380.525726
 20
188.666168
 30
0.0
  0
VERTEX
  5
46
330
24
100
AcDbEntity
  8
0
 62
     7
370
     0
390
1D
100
AcDbVertex
100
AcDb2dVertex
 10
380.757721
 20
188.711578
 30
0.0
  0
VERTEX
  5
47
330
24
100
AcDbEntity
  8
0
 62
     7
370
     0
390
1D
100
AcDbVertex
100
AcDb2dVertex
 10
381.004822
 20
188.666168
 30
0.0
  0
VERTEX
  5
48
330
24
100
AcDbEntity
  8
0
 62
     7
370
     0
390
1D
100
AcDbVertex
100
AcDb2dVertex
 10
381.171265
 20
188.545135
 30
0.0
  0
VERTEX
  5
49
330
24
100
AcDbEntity
  8
0
 62
     7
370
     0
390
1D
100
AcDbVertex
100
AcDb2dVertex
 10
381.272125
 20
188.333328
 30
0.0
  0
VERTEX
  5
4A
330
24
100
AcDbEntity
  8
0
 62
     7
370
     0
390
1D
100
AcDbVertex
100
AcDb2dVertex
 10
381.302368
 20
188.045868
 30
0.0
  0
VERTEX
  5
4B
330
24
100
AcDbEntity
  8
0
 62
     7
370
     0
390
1D
100
AcDbVertex
100
AcDb2dVertex
 10
381.297333
 20
187.849182
 30
0.0
  0
VERTEX
  5
4C
330
24
100
AcDbEntity
  8
0
 62
     7
370
     0
390
1D
100
AcDbVertex
100
AcDb2dVertex
 10
381.69574
 20
187.849182
 30
0.0
  0
VERTEX
  5
4D
330
24
100
AcDbEntity
  8
0
 62
     7
370
     0
390
1D
100
AcDbVertex
100
AcDb2dVertex
 10
381.685669
 20
188.096283
 30
0.0
  0
VERTEX
  5
4E
330
24
100
AcDbEntity
  8
0
 62
     7
370
     0
390
1D
100
AcDbVertex
100
AcDb2dVertex
 10
381.731049
 20
188.414017
 30
0.0
  0
VERTEX
  5
4F
330
24
100
AcDbEntity
  8
0
 62
     7
370
     0
390
1D
100
AcDbVertex
100
AcDb2dVertex
 10
381.852081
 20
188.651047
 30
0.0
  0
VERTEX
  5
50
330
24
100
AcDbEntity
  8
0
 62
     7
370
     0
390
1D
100
AcDbVertex
100
AcDb2dVertex
 10
382.048767
 20
188.792267
 30
0.0
  0
VERTEX
  5
51
330
24
100
AcDbEntity
  8
0
 62
     7
370
     0
390
1D
100
AcDbVertex
100
AcDb2dVertex
 10
382.305969
 20
188.842682
 30
0.0
  0
VERTEX
  5
52
330
24
100
AcDbEntity
  8
0
 62
     7
370
     0
390
1D
100
AcDbVertex
100
AcDb2dVertex
 10
382.59848
 20
188.787216
 30
0.0
  0
VERTEX
  5
53
330
24
100
AcDbEntity
  8
0
 62
     7
370
     0
390
1D
100
AcDbVertex
100
AcDb2dVertex
 10
382.815338
 20
188.640961
 30
0.0
  0
VERTEX
  5
54
330
24
100
AcDbEntity
  8
0
 62
     7
370
     0
390
1D
100
AcDbVertex
100
AcDb2dVertex
 10
382.951508
 20
188.408966
 30
0.0
  0
VERTEX
  5
55
330
24
100
AcDbEntity
  8
0
 62
     7
370
     0
390
1D
100
AcDbVertex
100
AcDb2dVertex
 10
382.996918
 20
188.101349
 30
0.0
  0
VERTEX
  5
56
330
24
100
AcDbEntity
  8
0
 62
     7
370
     0
390
1D
100
AcDbVertex
100
AcDb2dVertex
 10
382.946472
 20
187.783615
 30
0.0
  0
VERTEX
  5
57
330
24
100
AcDbEntity
  8
0
 62
     7
370
     0
390
1D
100
AcDbVertex
100
AcDb2dVertex
 10
382.795166
 20
187.551636
 30
0.0
  0
VERTEX
  5
58
330
24
100
AcDbEntity
  8
0
 62
     7
370
     0
390
1D
100
AcDbVertex
100
AcDb2dVertex
 10
382.553101
 20
187.405365
 30
0.0
  0
VERTEX
  5
59
330
24
100
AcDbEntity
  8
0
 62
     7
370
     0
390
1D
100
AcDbVertex
100
AcDb2dVertex
 10
382.220245
 20
187.349899
 30
0.0
  0
SEQEND
  5
5A
330
24
100
AcDbEntity
  8
0
370
     0
390
1D
  0
POLYLINE
  5
5B
330
A
100
AcDbEntity
  8
0
 62
     7
370
    13
390
1D
100
AcDb2dPolyline
 66
     1
 10
0.0
 20
0.0
 30
0.0
 70
     1
  0
VERTEX
  5
5C
330
5B
100
AcDbEntity
  8
0
 62
     7
370
     0
390
1D
100
AcDbVertex
100
AcDb2dVertex
 10
383.319672
 20
190.662292
 30
0.0
  0
VERTEX
  5
5D
330
5B
100
AcDbEntity
  8
0
 62
     7
370
     0
390
1D
100
AcDbVertex
100
AcDb2dVertex
 10
383.319672
 20
193.067902
 30
0.0
  0
VERTEX
  5
5E
330
5B
100
AcDbEntity
  8
0
 62
     7
370
     0
390
1D
100
AcDbVertex
100
AcDb2dVertex
 10
382.885956
 20
193.067902
 30
0.0
  0
VERTEX
  5
5F
330
5B
100
AcDbEntity
  8
0
 62
     7
370
     0
390
1D
100
AcDbVertex
100
AcDb2dVertex
 10
382.885956
 20
191.166611
 30
0.0
  0
VERTEX
  5
60
330
5B
100
AcDbEntity
  8
0
 62
     7
370
     0
390
1D
100
AcDbVertex
100
AcDb2dVertex
 10
382.648926
 20
191.272522
 30
0.0
  0
VERTEX
  5
61
330
5B
100
AcDbEntity
  8
0
 62
     7
370
     0
390
1D
100
AcDbVertex
100
AcDb2dVertex
 10
382.45224
 20
191.454071
 30
0.0
  0
VERTEX
  5
62
330
5B
100
AcDbEntity
  8
0
 62
     7
370
     0
390
1D
100
AcDbVertex
100
AcDb2dVertex
 10
382.094177
 20
192.01387
 30
0.0
  0
VERTEX
  5
63
330
5B
100
AcDbEntity
  8
0
 62
     7
370
     0
390
1D
100
AcDbVertex
100
AcDb2dVertex
 10
381.942871
 20
192.311432
 30
0.0
  0
VERTEX
  5
64
330
5B
100
AcDbEntity
  8
0
 62
     7
370
     0
390
1D
100
AcDbVertex
100
AcDb2dVertex
 10
381.726013
 20
192.644287
 30
0.0
  0
VERTEX
  5
65
330
5B
100
AcDbEntity
  8
0
 62
     7
370
     0
390
1D
100
AcDbVertex
100
AcDb2dVertex
 10
381.473846
 20
192.881317
 30
0.0
  0
VERTEX
  5
66
330
5B
100
AcDbEntity
  8
0
 62
     7
370
     0
390
1D
100
AcDbVertex
100
AcDb2dVertex
 10
381.1763
 20
193.017487
 30
0.0
  0
VERTEX
  5
67
330
5B
100
AcDbEntity
  8
0
 62
     7
370
     0
390
1D
100
AcDbVertex
100
AcDb2dVertex
 10
380.838409
 20
193.067902
 30
0.0
  0
VERTEX
  5
68
330
5B
100
AcDbEntity
  8
0
 62
     7
370
     0
390
1D
100
AcDbVertex
100
AcDb2dVertex
 10
380.414764
 20
192.982178
 30
0.0
  0
VERTEX
  5
69
330
5B
100
AcDbEntity
  8
0
 62
     7
370
     0
390
1D
100
AcDbVertex
100
AcDb2dVertex
 10
380.081909
 20
192.745148
 30
0.0
  0
VERTEX
  5
6A
330
5B
100
AcDbEntity
  8
0
 62
     7
370
     0
390
1D
100
AcDbVertex
100
AcDb2dVertex
 10
379.870117
 20
192.382019
 30
0.0
  0
VERTEX
  5
6B
330
5B
100
AcDbEntity
  8
0
 62
     7
370
     0
390
1D
100
AcDbVertex
100
AcDb2dVertex
 10
379.794464
 20
191.91301
 30
0.0
  0
VERTEX
  5
6C
330
5B
100
AcDbEntity
  8
0
 62
     7
370
     0
390
1D
100
AcDbVertex
100
AcDb2dVertex
 10
379.880188
 20
191.428864
 30
0.0
  0
VERTEX
  5
6D
330
5B
100
AcDbEntity
  8
0
 62
     7
370
     0
390
1D
100
AcDbVertex
100
AcDb2dVertex
 10
380.117218
 20
191.060699
 30
0.0
  0
VERTEX
  5
6E
330
5B
100
AcDbEntity
  8
0
 62
     7
370
     0
390
1D
100
AcDbVertex
100
AcDb2dVertex
 10
380.495453
 20
190.823669
 30
0.0
  0
VERTEX
  5
6F
330
5B
100
AcDbEntity
  8
0
 62
     7
370
     0
390
1D
100
AcDbVertex
100
AcDb2dVertex
 10
380.994751
 20
190.742981
 30
0.0
  0
VERTEX
  5
70
330
5B
100
AcDbEntity
  8
0
 62
     7
370
     0
390
1D
100
AcDbVertex
100
AcDb2dVertex
 10
381.065338
 20
190.742981
 30
0.0
  0
VERTEX
  5
71
330
5B
100
AcDbEntity
  8
0
 62
     7
370
     0
390
1D
100
AcDbVertex
100
AcDb2dVertex
 10
381.065338
 20
191.201904
 30
0.0
  0
VERTEX
  5
72
330
5B
100
AcDbEntity
  8
0
 62
     7
370
     0
390
1D
100
AcDbVertex
100
AcDb2dVertex
 10
381.024994
 20
191.201904
 30
0.0
  0
VERTEX
  5
73
330
5B
100
AcDbEntity
  8
0
 62
     7
370
     0
390
1D
100
AcDbVertex
100
AcDb2dVertex
 10
380.682068
 20
191.247299
 30
0.0
  0
VERTEX
  5
74
330
5B
100
AcDbEntity
  8
0
 62
     7
370
     0
390
1D
100
AcDbVertex
100
AcDb2dVertex
 10
380.429901
 20
191.383469
 30
0.0
  0
VERTEX
  5
75
330
5B
100
AcDbEntity
  8
0
 62
     7
370
     0
390
1D
100
AcDbVertex
100
AcDb2dVertex
 10
380.268524
 20
191.600327
 30
0.0
  0
VERTEX
  5
76
330
5B
100
AcDbEntity
  8
0
 62
     7
370
     0
390
1D
100
AcDbVertex
100
AcDb2dVertex
 10
380.213043
 20
191.887787
 30
0.0
  0
VERTEX
  5
77
330
5B
100
AcDbEntity
  8
0
 62
     7
370
     0
390
1D
100
AcDbVertex
100
AcDb2dVertex
 10
380.263489
 20
192.180298
 30
0.0
  0
VERTEX
  5
78
330
5B
100
AcDbEntity
  8
0
 62
     7
370
     0
390
1D
100
AcDbVertex
100
AcDb2dVertex
 10
380.389557
 20
192.397156
 30
0.0
  0
VERTEX
  5
79
330
5B
100
AcDbEntity
  8
0
 62
     7
370
     0
390
1D
100
AcDbVertex
100
AcDb2dVertex
 10
380.586243
 20
192.538361
 30
0.0
  0
VERTEX
  5
7A
330
5B
100
AcDbEntity
  8
0
 62
     7
370
     0
390
1D
100
AcDbVertex
100
AcDb2dVertex
 10
380.833374
 20
192.588806
 30
0.0
  0
VERTEX
  5
7B
330
5B
100
AcDbEntity
  8
0
 62
     7
370
     0
390
1D
100
AcDbVertex
100
AcDb2dVertex
 10
381.065338
 20
192.553497
 30
0.0
  0
VERTEX
  5
7C
330
5B
100
AcDbEntity
  8
0
 62
     7
370
     0
390
1D
100
AcDbVertex
100
AcDb2dVertex
 10
381.262024
 20
192.457672
 30
0.0
  0
VERTEX
  5
7D
330
5B
100
AcDbEntity
  8
0
 62
     7
370
     0
390
1D
100
AcDbVertex
100
AcDb2dVertex
 10
381.433502
 20
192.296295
 30
0.0
  0
VERTEX
  5
7E
330
5B
100
AcDbEntity
  8
0
 62
     7
370
     0
390
1D
100
AcDbVertex
100
AcDb2dVertex
 10
381.584808
 20
192.074402
 30
0.0
  0
VERTEX
  5
7F
330
5B
100
AcDbEntity
  8
0
 62
     7
370
     0
390
1D
100
AcDbVertex
100
AcDb2dVertex
 10
381.746185
 20
191.77684
 30
0.0
  0
VERTEX
  5
80
330
5B
100
AcDbEntity
  8
0
 62
     7
370
     0
390
1D
100
AcDbVertex
100
AcDb2dVertex
 10
382.058868
 20
191.282608
 30
0.0
  0
VERTEX
  5
81
330
5B
100
AcDbEntity
  8
0
 62
     7
370
     0
390
1D
100
AcDbVertex
100
AcDb2dVertex
 10
382.391724
 20
190.934631
 30
0.0
  0
VERTEX
  5
82
330
5B
100
AcDbEntity
  8
0
 62
     7
370
     0
390
1D
100
AcDbVertex
100
AcDb2dVertex
 10
382.795166
 20
190.727844
 30
0.0
  0
VERTEX
  5
83
330
5B
100
AcDbEntity
  8
0
 62
     7
370
     0
390
1D
100
AcDbVertex
100
AcDb2dVertex
 10
383.304535
 20
190.662292
 30
0.0
  0
SEQEND
  5
84
330
5B
100
AcDbEntity
  8
0
370
     0
390
1D
  0
POLYLINE
  5
85
330
A
100
AcDbEntity
  8
0
 62
     7
370
    13
390
1D
100
AcDb2dPolyline
 66
     1
 10
0.0
 20
0.0
 30
0.0
 70
     1
  0
VERTEX
  5
86
330
85
100
AcDbEntity
  8
0
 62
     7
370
     0
390
1D
100
AcDbVertex
100
AcDb2dVertex
 10
381.433502
 20
195.00351
 30
0.0
  0
VERTEX
  5
87
330
85
100
AcDbEntity
  8
0
 62
     7
370
     0
390
1D
100
AcDbVertex
100
AcDb2dVertex
 10
381.574707
 20
194.746292
 30
0.0
  0
VERTEX
  5
88
330
85
100
AcDbEntity
  8
0
 62
     7
370
     0
390
1D
100
AcDbVertex
100
AcDb2dVertex
 10
381.771393
 20
194.569778
 30
0.0
  0
VERTEX
  5
89
330
85
100
AcDbEntity
  8
0
 62
     7
370
     0
390
1D
100
AcDbVertex
100
AcDb2dVertex
 10
382.018524
 20
194.458832
 30
0.0
  0
VERTEX
  5
8A
330
85
100
AcDbEntity
  8
0
 62
     7
370
     0
390
1D
100
AcDbVertex
100
AcDb2dVertex
 10
382.316071
 20
194.423523
 30
0.0
  0
VERTEX
  5
8B
330
85
100
AcDbEntity
  8
0
 62
     7
370
     0
390
1D
100
AcDbVertex
100
AcDb2dVertex
 10
382.764923
 20
194.504211
 30
0.0
  0
VERTEX
  5
8C
330
85
100
AcDbEntity
  8
0
 62
     7
370
     0
390
1D
100
AcDbVertex
100
AcDb2dVertex
 10
383.112915
 20
194.736206
 30
0.0
  0
VERTEX
  5
8D
330
85
100
AcDbEntity
  8
0
 62
     7
370
     0
390
1D
100
AcDbVertex
100
AcDb2dVertex
 10
383.334808
 20
195.114441
 30
0.0
  0
VERTEX
  5
8E
330
85
100
AcDbEntity
  8
0
 62
     7
370
     0
390
1D
100
AcDbVertex
100
AcDb2dVertex
 10
383.420532
 20
195.62886
 30
0.0
  0
VERTEX
  5
8F
330
85
100
AcDbEntity
  8
0
 62
     7
370
     0
390
1D
100
AcDbVertex
100
AcDb2dVertex
 10
383.334808
 20
196.138214
 30
0.0
  0
VERTEX
  5
90
330
85
100
AcDbEntity
  8
0
 62
     7
370
     0
390
1D
100
AcDbVertex
100
AcDb2dVertex
 10
383.112915
 20
196.516464
 30
0.0
  0
VERTEX
  5
91
330
85
100
AcDbEntity
  8
0
 62
     7
370
     0
390
1D
100
AcDbVertex
100
AcDb2dVertex
 10
382.764923
 20
196.748459
 30
0.0
  0
VERTEX
  5
92
330
85
100
AcDbEntity
  8
0
 62
     7
370
     0
390
1D
100
AcDbVertex
100
AcDb2dVertex
 10
382.316071
 20
196.834198
 30
0.0
  0
VERTEX
  5
93
330
85
100
AcDbEntity
  8
0
 62
     7
370
     0
390
1D
100
AcDbVertex
100
AcDb2dVertex
 10
382.018524
 20
196.793854
 30
0.0
  0
VERTEX
  5
94
330
85
100
AcDbEntity
  8
0
 62
     7
370
     0
390
1D
100
AcDbVertex
100
AcDb2dVertex
 10
381.771393
 20
196.687927
 30
0.0
  0
VERTEX
  5
95
330
85
100
AcDbEntity
  8
0
 62
     7
370
     0
390
1D
100
AcDbVertex
100
AcDb2dVertex
 10
381.574707
 20
196.506378
 30
0.0
  0
VERTEX
  5
96
330
85
100
AcDbEntity
  8
0
 62
     7
370
     0
390
1D
100
AcDbVertex
100
AcDb2dVertex
 10
381.433502
 20
196.254211
 30
0.0
  0
VERTEX
  5
97
330
85
100
AcDbEntity
  8
0
 62
     7
370
     0
390
1D
100
AcDbVertex
100
AcDb2dVertex
 10
381.312469
 20
196.455948
 30
0.0
  0
VERTEX
  5
98
330
85
100
AcDbEntity
  8
0
 62
     7
370
     0
390
1D
100
AcDbVertex
100
AcDb2dVertex
 10
381.146057
 20
196.597168
 30
0.0
  0
VERTEX
  5
99
330
85
100
AcDbEntity
  8
0
 62
     7
370
     0
390
1D
100
AcDbVertex
100
AcDb2dVertex
 10
380.944305
 20
196.682892
 30
0.0
  0
VERTEX
  5
9A
330
85
100
AcDbEntity
  8
0
 62
     7
370
     0
390
1D
100
AcDbVertex
100
AcDb2dVertex
 10
380.697205
 20
196.71315
 30
0.0
  0
VERTEX
  5
9B
330
85
100
AcDbEntity
  8
0
 62
     7
370
     0
390
1D
100
AcDbVertex
100
AcDb2dVertex
 10
380.339111
 20
196.632462
 30
0.0
  0
VERTEX
  5
9C
330
85
100
AcDbEntity
  8
0
 62
     7
370
     0
390
1D
100
AcDbVertex
100
AcDb2dVertex
 10
380.051666
 20
196.420654
 30
0.0
  0
VERTEX
  5
9D
330
85
100
AcDbEntity
  8
0
 62
     7
370
     0
390
1D
100
AcDbVertex
100
AcDb2dVertex
 10
379.865051
 20
196.077698
 30
0.0
  0
VERTEX
  5
9E
330
85
100
AcDbEntity
  8
0
 62
     7
370
     0
390
1D
100
AcDbVertex
100
AcDb2dVertex
 10
379.794464
 20
195.62886
 30
0.0
  0
VERTEX
  5
9F
330
85
100
AcDbEntity
  8
0
 62
     7
370
     0
390
1D
100
AcDbVertex
100
AcDb2dVertex
 10
379.865051
 20
195.174957
 30
0.0
  0
VERTEX
  5
A0
330
85
100
AcDbEntity
  8
0
 62
     7
370
     0
390
1D
100
AcDbVertex
100
AcDb2dVertex
 10
380.051666
 20
194.832031
 30
0.0
  0
VERTEX
  5
A1
330
85
100
AcDbEntity
  8
0
 62
     7
370
     0
390
1D
100
AcDbVertex
100
AcDb2dVertex
 10
380.339111
 20
194.615173
 30
0.0
  0
VERTEX
  5
A2
330
85
100
AcDbEntity
  8
0
 62
     7
370
     0
390
1D
100
AcDbVertex
100
AcDb2dVertex
 10
380.697205
 20
194.53952
 30
0.0
  0
VERTEX
  5
A3
330
85
100
AcDbEntity
  8
0
 62
     7
370
     0
390
1D
100
AcDbVertex
100
AcDb2dVertex
 10
380.944305
 20
194.564728
 30
0.0
  0
VERTEX
  5
A4
330
85
100
AcDbEntity
  8
0
 62
     7
370
     0
390
1D
100
AcDbVertex
100
AcDb2dVertex
 10
381.146057
 20
194.650482
 30
0.0
  0
SEQEND
  5
A5
330
85
100
AcDbEntity
  8
0
370
     0
390
1D
  0
POLYLINE
  5
A6
330
A
100
AcDbEntity
  8
0
 62
     7
370
    13
390
1D
100
AcDb2dPolyline
 66
     1
 10
0.0
 20
0.0
 30
0.0
 70
     1
  0
VERTEX
  5
A7
330
A6
100
AcDbEntity
  8
0
 62
     7
370
     0
390
1D
100
AcDbVertex
100
AcDb2dVertex
 10
382.305969
 20
194.907684
 30
0.0
  0
VERTEX
  5
A8
330
A6
100
AcDbEntity
  8
0
 62
     7
370
     0
390
1D
100
AcDbVertex
100
AcDb2dVertex
 10
382.038696
 20
194.953064
 30
0.0
  0
VERTEX
  5
A9
330
A6
100
AcDbEntity
  8
0
 62
     7
370
     0
390
1D
100
AcDbVertex
100
AcDb2dVertex
 10
381.836975
 20
195.099319
 30
0.0
  0
VERTEX
  5
AA
330
A6
100
AcDbEntity
  8
0
 62
     7
370
     0
390
1D
100
AcDbVertex
100
AcDb2dVertex
 10
381.705841
 20
195.326263
 30
0.0
  0
VERTEX
  5
AB
330
A6
100
AcDbEntity
  8
0
 62
     7
370
     0
390
1D
100
AcDbVertex
100
AcDb2dVertex
 10
381.660461
 20
195.62886
 30
0.0
  0
VERTEX
  5
AC
330
A6
100
AcDbEntity
  8
0
 62
     7
370
     0
390
1D
100
AcDbVertex
100
AcDb2dVertex
 10
381.705841
 20
195.926407
 30
0.0
  0
VERTEX
  5
AD
330
A6
100
AcDbEntity
  8
0
 62
     7
370
     0
390
1D
100
AcDbVertex
100
AcDb2dVertex
 10
381.836975
 20
196.153351
 30
0.0
  0
VERTEX
  5
AE
330
A6
100
AcDbEntity
  8
0
 62
     7
370
     0
390
1D
100
AcDbVertex
100
AcDb2dVertex
 10
382.038696
 20
196.299606
 30
0.0
  0
VERTEX
  5
AF
330
A6
100
AcDbEntity
  8
0
 62
     7
370
     0
390
1D
100
AcDbVertex
100
AcDb2dVertex
 10
382.305969
 20
196.350037
 30
0.0
  0
VERTEX
  5
B0
330
A6
100
AcDbEntity
  8
0
 62
     7
370
     0
390
1D
100
AcDbVertex
100
AcDb2dVertex
 10
382.593445
 20
196.299606
 30
0.0
  0
VERTEX
  5
B1
330
A6
100
AcDbEntity
  8
0
 62
     7
370
     0
390
1D
100
AcDbVertex
100
AcDb2dVertex
 10
382.810303
 20
196.153351
 30
0.0
  0
VERTEX
  5
B2
330
A6
100
AcDbEntity
  8
0
 62
     7
370
     0
390
1D
100
AcDbVertex
100
AcDb2dVertex
 10
382.951508
 20
195.926407
 30
0.0
  0
VERTEX
  5
B3
330
A6
100
AcDbEntity
  8
0
 62
     7
370
     0
390
1D
100
AcDbVertex
100
AcDb2dVertex
 10
382.996918
 20
195.62886
 30
0.0
  0
VERTEX
  5
B4
330
A6
100
AcDbEntity
  8
0
 62
     7
370
     0
390
1D
100
AcDbVertex
100
AcDb2dVertex
 10
382.951508
 20
195.326263
 30
0.0
  0
VERTEX
  5
B5
330
A6
100
AcDbEntity
  8
0
 62
     7
370
     0
390
1D
100
AcDbVertex
100
AcDb2dVertex
 10
382.810303
 20
195.099319
 30
0.0
  0
VERTEX
  5
B6
330
A6
100
AcDbEntity
  8
0
 62
     7
370
     0
390
1D
100
AcDbVertex
100
AcDb2dVertex
 10
382.593445
 20
194.953064
 30
0.0
  0
SEQEND
  5
B7
330
A6
100
AcDbEntity
  8
0
370
     0
390
1D
  0
POLYLINE
  5
B8
330
A
100
AcDbEntity
  8
0
 62
     7
370
    13
390
1D
100
AcDb2dPolyline
 66
     1
 10
0.0
 20
0.0
 30
0.0
 70
     1
  0
VERTEX
  5
B9
330
B8
100
AcDbEntity
  8
0
 62
     7
370
     0
390
1D
100
AcDbVertex
100
AcDb2dVertex
 10
380.737549
 20
195.018631
 30
0.0
  0
VERTEX
  5
BA
330
B8
100
AcDbEntity
  8
0
 62
     7
370
     0
390
1D
100
AcDbVertex
100
AcDb2dVertex
 10
380.515625
 20
195.058975
 30
0.0
  0
VERTEX
  5
BB
330
B8
100
AcDbEntity
  8
0
 62
     7
370
     0
390
1D
100
AcDbVertex
100
AcDb2dVertex
 10
380.344177
 20
195.180008
 30
0.0
  0
VERTEX
  5
BC
330
B8
100
AcDbEntity
  8
0
 62
     7
370
     0
390
1D
100
AcDbVertex
100
AcDb2dVertex
 10
380.238251
 20
195.371643
 30
0.0
  0
VERTEX
  5
BD
330
B8
100
AcDbEntity
  8
0
 62
     7
370
     0
390
1D
100
AcDbVertex
100
AcDb2dVertex
 10
380.197906
 20
195.62886
 30
0.0
  0
VERTEX
  5
BE
330
B8
100
AcDbEntity
  8
0
 62
     7
370
     0
390
1D
100
AcDbVertex
100
AcDb2dVertex
 10
380.238251
 20
195.881012
 30
0.0
  0
VERTEX
  5
BF
330
B8
100
AcDbEntity
  8
0
 62
     7
370
     0
390
1D
100
AcDbVertex
100
AcDb2dVertex
 10
380.344177
 20
196.072662
 30
0.0
  0
VERTEX
  5
C0
330
B8
100
AcDbEntity
  8
0
 62
     7
370
     0
390
1D
100
AcDbVertex
100
AcDb2dVertex
 10
380.515625
 20
196.193695
 30
0.0
  0
VERTEX
  5
C1
330
B8
100
AcDbEntity
  8
0
 62
     7
370
     0
390
1D
100
AcDbVertex
100
AcDb2dVertex
 10
380.737549
 20
196.23909
 30
0.0
  0
VERTEX
  5
C2
330
B8
100
AcDbEntity
  8
0
 62
     7
370
     0
390
1D
100
AcDbVertex
100
AcDb2dVertex
 10
380.964478
 20
196.193695
 30
0.0
  0
VERTEX
  5
C3
330
B8
100
AcDbEntity
  8
0
 62
     7
370
     0
390
1D
100
AcDbVertex
100
AcDb2dVertex
 10
381.140991
 20
196.072662
 30
0.0
  0
VERTEX
  5
C4
330
B8
100
AcDbEntity
  8
0
 62
     7
370
     0
390
1D
100
AcDbVertex
100
AcDb2dVertex
 10
381.256989
 20
195.881012
 30
0.0
  0
VERTEX
  5
C5
330
B8
100
AcDbEntity
  8
0
 62
     7
370
     0
390
1D
100
AcDbVertex
100
AcDb2dVertex
 10
381.292297
 20
195.62886
 30
0.0
  0
VERTEX
  5
C6
330
B8
100
AcDbEntity
  8
0
 62
     7
370
     0
390
1D
100
AcDbVertex
100
AcDb2dVertex
 10
381.251953
 20
195.371643
 30
0.0
  0
VERTEX
  5
C7
330
B8
100
AcDbEntity
  8
0
 62
     7
370
     0
390
1D
100
AcDbVertex
100
AcDb2dVertex
 10
381.140991
 20
195.180008
 30
0.0
  0
VERTEX
  5
C8
330
B8
100
AcDbEntity
  8
0
 62
     7
370
     0
390
1D
100
AcDbVertex
100
AcDb2dVertex
 10
380.964478
 20
195.058975
 30
0.0
  0
SEQEND
  5
C9
330
B8
100
AcDbEntity
  8
0
370
     0
390
1D
  0
LINE
  5
CA
330
A
100
AcDbEntity
  8
0
 62
     7
370
    13
390
1D
100
AcDbLine
 10
366.929474
 20
109.892838
 30
0.0
 11
387.319672
 21
109.892838
 31
0.0
  0
LINE
  5
CB
330
A
100
AcDbEntity
  8
0
 62
     7
370
    13
390
1D
100
AcDbLine
 10
277.870941
 20
273.892822
 30
0.0
 11
387.319672
 21
273.892822
 31
0.0
  0
POLYLINE
  5
CC
330
A
100
AcDbEntity
  8
0
 62
     7
370
    13
390
1D
100
AcDb2dPolyline
 66
     1
 10
0.0
 20
0.0
 30
0.0
  0
VERTEX
  5
CD
330
CC
100
AcDbEntity
  8
0
 62
     7
370
     0
390
1D
100
AcDbVertex
100
AcDb2dVertex
 10
384.802032
 20
111.824692
 30
0.0
  0
VERTEX
  5
CE
330
CC
100
AcDbEntity
  8
0
 62
     7
370
     0
390
1D
100
AcDbVertex
100
AcDb2dVertex
 10
385.319672
 20
109.892838
 30
0.0
  0
VERTEX
  5
CF
330
CC
100
AcDbEntity
  8
0
 62
     7
370
     0
390
1D
100
AcDbVertex
100
AcDb2dVertex
 10
385.837311
 20
111.824692
 30
0.0
  0
SEQEND
  5
D0
330
CC
100
AcDbEntity
  8
0
370
     0
390
1D
  0
POLYLINE
  5
D1
330
A
100
AcDbEntity
  8
0
 62
     7
370
    13
390
1D
100
AcDb2dPolyline
 66
     1
 10
0.0
 20
0.0
 30
0.0
  0
VERTEX
  5
D2
330
D1
100
AcDbEntity
  8
0
 62
     7
370
     0
390
1D
100
AcDbVertex
100
AcDb2dVertex
 10
385.837311
 20
271.960999
 30
0.0
  0
VERTEX
  5
D3
330
D1
100
AcDbEntity
  8
0
 62
     7
370
     0
390
1D
100
AcDbVertex
100
AcDb2dVertex
 10
385.319672
 20
273.892822
 30
0.0
  0
VERTEX
  5
D4
330
D1
100
AcDbEntity
  8
0
 62
     7
370
     0
390
1D
100
AcDbVertex
100
AcDb2dVertex
 10
384.802032
 20
271.960999
 30
0.0
  0
SEQEND
  5
D5
330
D1
100
AcDbEntity
  8
0
370
     0
390
1D
  0
LINE
  5
D6
330
A
100
AcDbEntity
  8
0
 62
     7
370
    13
390
1D
100
AcDbLine
 10
385.319672
 20
109.892838
 30
0.0
 11
385.319672
 21
273.892822
 31
0.0
  0
CIRCLE
  5
D7
330
A
100
AcDbEntity
  8
0
 62
     7
370
    35
390
1D
100
AcDbCircle
 10
280.881134
 20
224.654831
 30
0.0
 40
7.0
  0
POLYLINE
  5
D8
330
A
100
AcDbEntity
  8
0
 62
     7
370
    35
390
1D
100
AcDb2dPolyline
 66
     1
 10
0.0
 20
0.0
 30
0.0
  0
VERTEX
  5
D9
330
D8
100
AcDbEntity
  8
0
 62
     7
370
     0
390
1D
100
AcDbVertex
100
AcDb2dVertex
 10
82.74649
 20
222.359116
 30
0.0
  0
VERTEX
  5
DA
330
D8
100
AcDbEntity
  8
0
 62
     7
370
     0
390
1D
100
AcDbVertex
100
AcDb2dVertex
 10
82.745087
 20
222.139282
 30
0.0
  0
VERTEX
  5
DB
330
D8
100
AcDbEntity
  8
0
 62
     7
370
     0
390
1D
100
AcDbVertex
100
AcDb2dVertex
 10
82.737122
 20
221.919586
 30
0.0
  0
VERTEX
  5
DC
330
D8
100
AcDbEntity
  8
0
 62
     7
370
     0
390
1D
100
AcDbVertex
100
AcDb2dVertex
 10
82.722565
 20
221.700226
 30
0.0
  0
VERTEX
  5
DD
330
D8
100
AcDbEntity
  8
0
 62
     7
370
     0
390
1D
100
AcDbVertex
100
AcDb2dVertex
 10
82.701447
 20
221.481384
 30
0.0
  0
VERTEX
  5
DE
330
D8
100
AcDbEntity
  8
0
 62
     7
370
     0
390
1D
100
AcDbVertex
100
AcDb2dVertex
 10
82.673767
 20
221.263275
 30
0.0
  0
VERTEX
  5
DF
330
D8
100
AcDbEntity
  8
0
 62
     7
370
     0
390
1D
100
AcDbVertex
100
AcDb2dVertex
 10
82.639618
 20
221.046097
 30
0.0
  0
VERTEX
  5
E0
330
D8
100
AcDbEntity
  8
0
 62
     7
370
     0
390
1D
100
AcDbVertex
100
AcDb2dVertex
 10
82.598969
 20
220.830032
 30
0.0
  0
VERTEX
  5
E1
330
D8
100
AcDbEntity
  8
0
 62
     7
370
     0
390
1D
100
AcDbVertex
100
AcDb2dVertex
 10
82.551849
 20
220.61528
 30
0.0
  0
VERTEX
  5
E2
330
D8
100
AcDbEntity
  8
0
 62
     7
370
     0
390
1D
100
AcDbVertex
100
AcDb2dVertex
 10
82.498352
 20
220.402023
 30
0.0
  0
VERTEX
  5
E3
330
D8
100
AcDbEntity
  8
0
 62
     7
370
     0
390
1D
100
AcDbVertex
100
AcDb2dVertex
 10
82.438477
 20
220.19046
 30
0.0
  0
VERTEX
  5
E4
330
D8
100
AcDbEntity
  8
0
 62
     7
370
     0
390
1D
100
AcDbVertex
100
AcDb2dVertex
 10
82.372284
 20
219.980804
 30
0.0
  0
VERTEX
  5
E5
330
D8
100
AcDbEntity
  8
0
 62
     7
370
     0
390
1D
100
AcDbVertex
100
AcDb2dVertex
 10
82.299835
 20
219.773224
 30
0.0
  0
VERTEX
  5
E6
330
D8
100
AcDbEntity
  8
0
 62
     7
370
     0
390
1D
100
AcDbVertex
100
AcDb2dVertex
 10
82.221191
 20
219.567902
 30
0.0
  0
VERTEX
  5
E7
330
D8
100
AcDbEntity
  8
0
 62
     7
370
     0
390
1D
100
AcDbVertex
100
AcDb2dVertex
 10
82.136414
 20
219.365051
 30
0.0
  0
VERTEX
  5
E8
330
D8
100
AcDbEntity
  8
0
 62
     7
370
     0
390
1D
100
AcDbVertex
100
AcDb2dVertex
 10
82.045563
 20
219.164825
 30
0.0
  0
VERTEX
  5
E9
330
D8
100
AcDbEntity
  8
0
 62
     7
370
     0
390
1D
100
AcDbVertex
100
AcDb2dVertex
 10
81.94873
 20
218.967438
 30
0.0
  0
VERTEX
  5
EA
330
D8
100
AcDbEntity
  8
0
 62
     7
370
     0
390
1D
100
AcDbVertex
100
AcDb2dVertex
 10
81.846008
 20
218.773071
 30
0.0
  0
VERTEX
  5
EB
330
D8
100
AcDbEntity
  8
0
 62
     7
370
     0
390
1D
100
AcDbVertex
100
AcDb2dVertex
 10
81.737427
 20
218.581894
 30
0.0
  0
VERTEX
  5
EC
330
D8
100
AcDbEntity
  8
0
 62
     7
370
     0
390
1D
100
AcDbVertex
100
AcDb2dVertex
 10
81.623138
 20
218.394104
 30
0.0
  0
VERTEX
  5
ED
330
D8
100
AcDbEntity
  8
0
 62
     7
370
     0
390
1D
100
AcDbVertex
100
AcDb2dVertex
 10
81.503204
 20
218.209839
 30
0.0
  0
VERTEX
  5
EE
330
D8
100
AcDbEntity
  8
0
 62
     7
370
     0
390
1D
100
AcDbVertex
100
AcDb2dVertex
 10
81.377747
 20
218.029327
 30
0.0
  0
VERTEX
  5
EF
330
D8
100
AcDbEntity
  8
0
 62
     7
370
     0
390
1D
100
AcDbVertex
100
AcDb2dVertex
 10
81.247345
 20
217.853363
 30
0.0
  0
VERTEX
  5
F0
330
D8
100
AcDbEntity
  8
0
 62
     7
370
     0
390
1D
100
AcDbVertex
100
AcDb2dVertex
 10
81.111694
 20
217.681458
 30
0.0
  0
VERTEX
  5
F1
330
D8
100
AcDbEntity
  8
0
 62
     7
370
     0
390
1D
100
AcDbVertex
100
AcDb2dVertex
 10
80.970856
 20
217.513733
 30
0.0
  0
VERTEX
  5
F2
330
D8
100
AcDbEntity
  8
0
 62
     7
370
     0
390
1D
100
AcDbVertex
100
AcDb2dVertex
 10
80.824982
 20
217.350403
 30
0.0
  0
VERTEX
  5
F3
330
D8
100
AcDbEntity
  8
0
 62
     7
370
     0
390
1D
100
AcDbVertex
100
AcDb2dVertex
 10
80.674164
 20
217.191589
 30
0.0
  0
VERTEX
  5
F4
330
D8
100
AcDbEntity
  8
0
 62
     7
370
     0
390
1D
100
AcDbVertex
100
AcDb2dVertex
 10
80.518585
 20
217.037476
 30
0.0
  0
VERTEX
  5
F5
330
D8
100
AcDbEntity
  8
0
 62
     7
370
     0
390
1D
100
AcDbVertex
100
AcDb2dVertex
 10
80.358337
 20
216.888184
 30
0.0
  0
VERTEX
  5
F6
330
D8
100
AcDbEntity
  8
0
 62
     7
370
     0
390
1D
100
AcDbVertex
100
AcDb2dVertex
 10
80.193573
 20
216.743896
 30
0.0
  0
VERTEX
  5
F7
330
D8
100
AcDbEntity
  8
0
 62
     7
370
     0
390
1D
100
AcDbVertex
100
AcDb2dVertex
 10
80.024475
 20
216.604767
 30
0.0
  0
VERTEX
  5
F8
330
D8
100
AcDbEntity
  8
0
 62
     7
370
     0
390
1D
100
AcDbVertex
100
AcDb2dVertex
 10
79.851135
 20
216.470917
 30
0.0
  0
VERTEX
  5
F9
330
D8
100
AcDbEntity
  8
0
 62
     7
370
     0
390
1D
100
AcDbVertex
100
AcDb2dVertex
 10
79.673737
 20
216.342484
 30
0.0
  0
VERTEX
  5
FA
330
D8
100
AcDbEntity
  8
0
 62
     7
370
     0
390
1D
100
AcDbVertex
100
AcDb2dVertex
 10
79.492462
 20
216.21962
 30
0.0
  0
VERTEX
  5
FB
330
D8
100
AcDbEntity
  8
0
 62
     7
370
     0
390
1D
100
AcDbVertex
100
AcDb2dVertex
 10
79.307434
 20
216.102448
 30
0.0
  0
VERTEX
  5
FC
330
D8
100
AcDbEntity
  8
0
 62
     7
370
     0
390
1D
100
AcDbVertex
100
AcDb2dVertex
 10
79.118866
 20
215.991089
 30
0.0
  0
VERTEX
  5
FD
330
D8
100
AcDbEntity
  8
0
 62
     7
370
     0
390
1D
100
AcDbVertex
100
AcDb2dVertex
 10
78.92691
 20
215.885681
 30
0.0
  0
VERTEX
  5
FE
330
D8
100
AcDbEntity
  8
0
 62
     7
370
     0
390
1D
100
AcDbVertex
100
AcDb2dVertex
 10
78.73175
 20
215.786346
 30
0.0
  0
VERTEX
  5
FF
330
D8
100
AcDbEntity
  8
0
 62
     7
370
     0
390
1D
100
AcDbVertex
100
AcDb2dVertex
 10
78.533569
 20
215.693161
 30
0.0
  0
VERTEX
  5
100
330
D8
100
AcDbEntity
  8
0
 62
     7
370
     0
390
1D
100
AcDbVertex
100
AcDb2dVertex
 10
78.33255
 20
215.606247
 30
0.0
  0
VERTEX
  5
101
330
D8
100
AcDbEntity
  8
0
 62
     7
370
     0
390
1D
100
AcDbVertex
100
AcDb2dVertex
 10
78.128906
 20
215.525696
 30
0.0
  0
VERTEX
  5
102
330
D8
100
AcDbEntity
  8
0
 62
     7
370
     0
390
1D
100
AcDbVertex
100
AcDb2dVertex
 10
77.922821
 20
215.45163
 30
0.0
  0
VERTEX
  5
103
330
D8
100
AcDbEntity
  8
0
 62
     7
370
     0
390
1D
100
AcDbVertex
100
AcDb2dVertex
 10
77.714508
 20
215.384094
 30
0.0
  0
SEQEND
  5
104
330
D8
100
AcDbEntity
  8
0
370
     0
390
1D
  0
LINE
  5
105
330
A
100
AcDbEntity
  8
0
 62
     7
370
    35
390
1D
100
AcDbLine
 10
77.714508
 20
215.384094
 30
0.0
 11
53.659271
 21
116.757629
 31
0.0
  0
LINE
  5
106
330
A
100
AcDbEntity
  8
0
 62
     7
 48
0.003138
370
    35
390
1D
100
AcDbLine
 10
53.659271
 20
116.757629
 30
0.0
 11
53.783142
 21
116.737366
 31
0.0
  0
ELLIPSE
  5
107
330
A
100
AcDbEntity
  8
0
 62
     7
370
    35
390
1D
100
AcDbEllipse
 10
51.989319
 20
106.515442
 30
0.0
 11
-1.793914794921875
 21
-10.22190856933594
 31
0.0
210
0.0
220
0.0
230
1.0
 40
0.722686
 41
2.030906563992076
 42
3.141605414305293
  0
LINE
  5
108
330
A
100
AcDbEntity
  8
0
 62
     7
370
    35
390
1D
100
AcDbLine
 10
59.404877
 20
109.892838
 30
0.0
 11
364.929474
 21
109.892838
 31
0.0
  0
ELLIPSE
  5
109
330
A
100
AcDbEntity
  8
0
 62
     7
370
    35
390
1D
100
AcDbEllipse
 10
372.345032
 20
106.515442
 30
0.0
 11
1.793914794921875
 21
-10.22190856933594
 31
0.0
210
0.0
220
0.0
230
1.0
 40
0.722686
 41
3.14157989297982
 42
4.252278743423123
  0
LINE
  5
10A
330
A
100
AcDbEntity
  8
0
 62
     7
 48
0.003138
370
    35
390
1D
100
AcDbLine
 10
370.675079
 20
116.757629
 30
0.0
 11
370.551208
 21
116.737366
 31
0.0
  0
LINE
  5
10B
330
A
100
AcDbEntity
  8
0
 62
     7
370
    35
390
1D
100
AcDbLine
 10
346.619843
 20
215.384094
 30
0.0
 11
370.675079
 21
116.757629
 31
0.0
  0
POLYLINE
  5
10C
330
A
100
AcDbEntity
  8
0
 62
     7
370
    35
390
1D
100
AcDb2dPolyline
 66
     1
 10
0.0
 20
0.0
 30
0.0
  0
VERTEX
  5
10D
330
10C
100
AcDbEntity
  8
0
 62
     7
370
     0
390
1D
100
AcDbVertex
100
AcDb2dVertex
 10
341.58786
 20
222.359116
 30
0.0
  0
VERTEX
  5
10E
330
10C
100
AcDbEntity
  8
0
 62
     7
370
     0
390
1D
100
AcDbVertex
100
AcDb2dVertex
 10
341.589264
 20
222.139282
 30
0.0
  0
VERTEX
  5
10F
330
10C
100
AcDbEntity
  8
0
 62
     7
370
     0
390
1D
100
AcDbVertex
100
AcDb2dVertex
 10
341.597229
 20
221.919586
 30
0.0
  0
VERTEX
  5
110
330
10C
100
AcDbEntity
  8
0
 62
     7
370
     0
390
1D
100
AcDbVertex
100
AcDb2dVertex
 10
341.611816
 20
221.700226
 30
0.0
  0
VERTEX
  5
111
330
10C
100
AcDbEntity
  8
0
 62
     7
370
     0
390
1D
100
AcDbVertex
100
AcDb2dVertex
 10
341.632935
 20
221.481384
 30
0.0
  0
VERTEX
  5
112
330
10C
100
AcDbEntity
  8
0
 62
     7
370
     0
390
1D
100
AcDbVertex
100
AcDb2dVertex
 10
341.660583
 20
221.263275
 30
0.0
  0
VERTEX
  5
113
330
10C
100
AcDbEntity
  8
0
 62
     7
370
     0
390
1D
100
AcDbVertex
100
AcDb2dVertex
 10
341.694733
 20
221.046097
 30
0.0
  0
VERTEX
  5
114
330
10C
100
AcDbEntity
  8
0
 62
     7
370
     0
390
1D
100
AcDbVertex
100
AcDb2dVertex
 10
341.735413
 20
220.830032
 30
0.0
  0
VERTEX
  5
115
330
10C
100
AcDbEntity
  8
0
 62
     7
370
     0
390
1D
100
AcDbVertex
100
AcDb2dVertex
 10
341.782501
 20
220.61528
 30
0.0
  0
VERTEX
  5
116
330
10C
100
AcDbEntity
  8
0
 62
     7
370
     0
390
1D
100
AcDbVertex
100
AcDb2dVertex
 10
341.835999
 20
220.402023
 30
0.0
  0
VERTEX
  5
117
330
10C
100
AcDbEntity
  8
0
 62
     7
370
     0
390
1D
100
AcDbVertex
100
AcDb2dVertex
 10
341.895874
 20
220.19046
 30
0.0
  0
VERTEX
  5
118
330
10C
100
AcDbEntity
  8
0
 62
     7
370
     0
390
1D
100
AcDbVertex
100
AcDb2dVertex
 10
341.962067
 20
219.980804
 30
0.0
  0
VERTEX
  5
119
330
10C
100
AcDbEntity
  8
0
 62
     7
370
     0
390
1D
100
AcDbVertex
100
AcDb2dVertex
 10
342.034515
 20
219.773224
 30
0.0
  0
VERTEX
  5
11A
330
10C
100
AcDbEntity
  8
0
 62
     7
370
     0
390
1D
100
AcDbVertex
100
AcDb2dVertex
 10
342.113159
 20
219.567902
 30
0.0
  0
VERTEX
  5
11B
330
10C
100
AcDbEntity
  8
0
 62
     7
370
     0
390
1D
100
AcDbVertex
100
AcDb2dVertex
 10
342.197937
 20
219.365051
 30
0.0
  0
VERTEX
  5
11C
330
10C
100
AcDbEntity
  8
0
 62
     7
370
     0
390
1D
100
AcDbVertex
100
AcDb2dVertex
 10
342.288788
 20
219.164825
 30
0.0
  0
VERTEX
  5
11D
330
10C
100
AcDbEntity
  8
0
 62
     7
370
     0
390
1D
100
AcDbVertex
100
AcDb2dVertex
 10
342.38562
 20
218.967438
 30
0.0
  0
VERTEX
  5
11E
330
10C
100
AcDbEntity
  8
0
 62
     7
370
     0
390
1D
100
AcDbVertex
100
AcDb2dVertex
 10
342.488373
 20
218.773071
 30
0.0
  0
VERTEX
  5
11F
330
10C
100
AcDbEntity
  8
0
 62
     7
370
     0
390
1D
100
AcDbVertex
100
AcDb2dVertex
 10
342.596924
 20
218.581894
 30
0.0
  0
VERTEX
  5
120
330
10C
100
AcDbEntity
  8
0
 62
     7
370
     0
390
1D
100
AcDbVertex
100
AcDb2dVertex
 10
342.711212
 20
218.394104
 30
0.0
  0
VERTEX
  5
121
330
10C
100
AcDbEntity
  8
0
 62
     7
370
     0
390
1D
100
AcDbVertex
100
AcDb2dVertex
 10
342.831146
 20
218.209839
 30
0.0
  0
VERTEX
  5
122
330
10C
100
AcDbEntity
  8
0
 62
     7
370
     0
390
1D
100
AcDbVertex
100
AcDb2dVertex
 10
342.956604
 20
218.029327
 30
0.0
  0
VERTEX
  5
123
330
10C
100
AcDbEntity
  8
0
 62
     7
370
     0
390
1D
100
AcDbVertex
100
AcDb2dVertex
 10
343.087006
 20
217.853363
 30
0.0
  0
VERTEX
  5
124
330
10C
100
AcDbEntity
  8
0
 62
     7
370
     0
390
1D
100
AcDbVertex
100
AcDb2dVertex
 10
343.222656
 20
217.681458
 30
0.0
  0
VERTEX
  5
125
330
10C
100
AcDbEntity
  8
0
 62
     7
370
     0
390
1D
100
AcDbVertex
100
AcDb2dVertex
 10
343.363495
 20
217.513733
 30
0.0
  0
VERTEX
  5
126
330
10C
100
AcDbEntity
  8
0
 62
     7
370
     0
390
1D
100
AcDbVertex
100
AcDb2dVertex
 10
343.509369
 20
217.350403
 30
0.0
  0
VERTEX
  5
127
330
10C
100
AcDbEntity
  8
0
 62
     7
370
     0
390
1D
100
AcDbVertex
100
AcDb2dVertex
 10
343.660187
 20
217.191589
 30
0.0
  0
VERTEX
  5
128
330
10C
100
AcDbEntity
  8
0
 62
     7
370
     0
390
1D
100
AcDbVertex
100
AcDb2dVertex
 10
343.815765
 20
217.037476
 30
0.0
  0
VERTEX
  5
129
330
10C
100
AcDbEntity
  8
0
 62
     7
370
     0
390
1D
100
AcDbVertex
100
AcDb2dVertex
 10
343.976013
 20
216.888184
 30
0.0
  0
VERTEX
  5
12A
330
10C
100
AcDbEntity
  8
0
 62
     7
370
     0
390
1D
100
AcDbVertex
100
AcDb2dVertex
 10
344.140778
 20
216.743896
 30
0.0
  0
VERTEX
  5
12B
330
10C
100
AcDbEntity
  8
0
 62
     7
370
     0
390
1D
100
AcDbVertex
100
AcDb2dVertex
 10
344.309875
 20
216.604767
 30
0.0
  0
VERTEX
  5
12C
330
10C
100
AcDbEntity
  8
0
 62
     7
370
     0
390
1D
100
AcDbVertex
100
AcDb2dVertex
 10
344.483215
 20
216.470917
 30
0.0
  0
VERTEX
  5
12D
330
10C
100
AcDbEntity
  8
0
 62
     7
370
     0
390
1D
100
AcDbVertex
100
AcDb2dVertex
 10
344.660614
 20
216.342484
 30
0.0
  0
VERTEX
  5
12E
330
10C
100
AcDbEntity
  8
0
 62
     7
370
     0
390
1D
100
AcDbVertex
100
AcDb2dVertex
 10
344.841888
 20
216.21962
 30
0.0
  0
VERTEX
  5
12F
330
10C
100
AcDbEntity
  8
0
 62
     7
370
     0
390
1D
100
AcDbVertex
100
AcDb2dVertex
 10
345.026917
 20
216.102448
 30
0.0
  0
VERTEX
  5
130
330
10C
100
AcDbEntity
  8
0
 62
     7
370
     0
390
1D
100
AcDbVertex
100
AcDb2dVertex
 10
345.215485
 20
215.991089
 30
0.0
  0
VERTEX
  5
131
330
10C
100
AcDbEntity
  8
0
 62
     7
370
     0
390
1D
100
AcDbVertex
100
AcDb2dVertex
 10
345.40744
 20
215.885681
 30
0.0
  0
VERTEX
  5
132
330
10C
100
AcDbEntity
  8
0
 62
     7
370
     0
390
1D
100
AcDbVertex
100
AcDb2dVertex
 10
345.6026
 20
215.786346
 30
0.0
  0
VERTEX
  5
133
330
10C
100
AcDbEntity
  8
0
 62
     7
370
     0
390
1D
100
AcDbVertex
100
AcDb2dVertex
 10
345.800781
 20
215.693161
 30
0.0
  0
VERTEX
  5
134
330
10C
100
AcDbEntity
  8
0
 62
     7
370
     0
390
1D
100
AcDbVertex
100
AcDb2dVertex
 10
346.001801
 20
215.606247
 30
0.0
  0
VERTEX
  5
135
330
10C
100
AcDbEntity
  8
0
 62
     7
370
     0
390
1D
100
AcDbVertex
100
AcDb2dVertex
 10
346.205444
 20
215.525696
 30
0.0
  0
VERTEX
  5
136
330
10C
100
AcDbEntity
  8
0
 62
     7
370
     0
390
1D
100
AcDbVertex
100
AcDb2dVertex
 10
346.41153
 20
215.45163
 30
0.0
  0
VERTEX
  5
137
330
10C
100
AcDbEntity
  8
0
 62
     7
370
     0
390
1D
100
AcDbVertex
100
AcDb2dVertex
 10
346.619843
 20
215.384094
 30
0.0
  0
SEQEND
  5
138
330
10C
100
AcDbEntity
  8
0
370
     0
390
1D
  0
POLYLINE
  5
139
330
A
100
AcDbEntity
  8
0
 62
     7
370
    35
390
1D
100
AcDb2dPolyline
 66
     1
 10
0.0
 20
0.0
 30
0.0
  0
VERTEX
  5
13A
330
139
100
AcDbEntity
  8
0
 62
     7
370
     0
390
1D
100
AcDbVertex
100
AcDb2dVertex
 10
343.68866
 20
227.402039
 30
0.0
  0
VERTEX
  5
13B
330
139
100
AcDbEntity
  8
0
 62
     7
370
     0
390
1D
100
AcDbVertex
100
AcDb2dVertex
 10
343.567963
 20
227.278748
 30
0.0
  0
VERTEX
  5
13C
330
139
100
AcDbEntity
  8
0
 62
     7
370
     0
390
1D
100
AcDbVertex
100
AcDb2dVertex
 10
343.450317
 20
227.152527
 30
0.0
  0
VERTEX
  5
13D
330
139
100
AcDbEntity
  8
0
 62
     7
370
     0
390
1D
100
AcDbVertex
100
AcDb2dVertex
 10
343.335846
 20
227.023468
 30
0.0
  0
VERTEX
  5
13E
330
139
100
AcDbEntity
  8
0
 62
     7
370
     0
390
1D
100
AcDbVertex
100
AcDb2dVertex
 10
343.224518
 20
226.891632
 30
0.0
  0
VERTEX
  5
13F
330
139
100
AcDbEntity
  8
0
 62
     7
370
     0
390
1D
100
AcDbVertex
100
AcDb2dVertex
 10
343.116486
 20
226.757111
 30
0.0
  0
VERTEX
  5
140
330
139
100
AcDbEntity
  8
0
 62
     7
370
     0
390
1D
100
AcDbVertex
100
AcDb2dVertex
 10
343.011749
 20
226.620026
 30
0.0
  0
VERTEX
  5
141
330
139
100
AcDbEntity
  8
0
 62
     7
370
     0
390
1D
100
AcDbVertex
100
AcDb2dVertex
 10
342.91037
 20
226.480408
 30
0.0
  0
VERTEX
  5
142
330
139
100
AcDbEntity
  8
0
 62
     7
370
     0
390
1D
100
AcDbVertex
100
AcDb2dVertex
 10
342.812408
 20
226.338364
 30
0.0
  0
VERTEX
  5
143
330
139
100
AcDbEntity
  8
0
 62
     7
370
     0
390
1D
100
AcDbVertex
100
AcDb2dVertex
 10
342.717957
 20
226.194
 30
0.0
  0
VERTEX
  5
144
330
139
100
AcDbEntity
  8
0
 62
     7
370
     0
390
1D
100
AcDbVertex
100
AcDb2dVertex
 10
342.626984
 20
226.047379
 30
0.0
  0
VERTEX
  5
145
330
139
100
AcDbEntity
  8
0
 62
     7
370
     0
390
1D
100
AcDbVertex
100
AcDb2dVertex
 10
342.539612
 20
225.898605
 30
0.0
  0
VERTEX
  5
146
330
139
100
AcDbEntity
  8
0
 62
     7
370
     0
390
1D
100
AcDbVertex
100
AcDb2dVertex
 10
342.455841
 20
225.747772
 30
0.0
  0
VERTEX
  5
147
330
139
100
AcDbEntity
  8
0
 62
     7
370
     0
390
1D
100
AcDbVertex
100
AcDb2dVertex
 10
342.375702
 20
225.59494
 30
0.0
  0
VERTEX
  5
148
330
139
100
AcDbEntity
  8
0
 62
     7
370
     0
390
1D
100
AcDbVertex
100
AcDb2dVertex
 10
342.299286
 20
225.440247
 30
0.0
  0
VERTEX
  5
149
330
139
100
AcDbEntity
  8
0
 62
     7
370
     0
390
1D
100
AcDbVertex
100
AcDb2dVertex
 10
342.226624
 20
225.283752
 30
0.0
  0
VERTEX
  5
14A
330
139
100
AcDbEntity
  8
0
 62
     7
370
     0
390
1D
100
AcDbVertex
100
AcDb2dVertex
 10
342.157715
 20
225.12558
 30
0.0
  0
VERTEX
  5
14B
330
139
100
AcDbEntity
  8
0
 62
     7
370
     0
390
1D
100
AcDbVertex
100
AcDb2dVertex
 10
342.09259
 20
224.96579
 30
0.0
  0
VERTEX
  5
14C
330
139
100
AcDbEntity
  8
0
 62
     7
370
     0
390
1D
100
AcDbVertex
100
AcDb2dVertex
 10
342.031342
 20
224.804489
 30
0.0
  0
VERTEX
  5
14D
330
139
100
AcDbEntity
  8
0
 62
     7
370
     0
390
1D
100
AcDbVertex
100
AcDb2dVertex
 10
341.973938
 20
224.641785
 30
0.0
  0
VERTEX
  5
14E
330
139
100
AcDbEntity
  8
0
 62
     7
370
     0
390
1D
100
AcDbVertex
100
AcDb2dVertex
 10
341.92041
 20
224.477753
 30
0.0
  0
VERTEX
  5
14F
330
139
100
AcDbEntity
  8
0
 62
     7
370
     0
390
1D
100
AcDbVertex
100
AcDb2dVertex
 10
341.87085
 20
224.312485
 30
0.0
  0
VERTEX
  5
150
330
139
100
AcDbEntity
  8
0
 62
     7
370
     0
390
1D
100
AcDbVertex
100
AcDb2dVertex
 10
341.825195
 20
224.146088
 30
0.0
  0
VERTEX
  5
151
330
139
100
AcDbEntity
  8
0
 62
     7
370
     0
390
1D
100
AcDbVertex
100
AcDb2dVertex
 10
341.783508
 20
223.978668
 30
0.0
  0
VERTEX
  5
152
330
139
100
AcDbEntity
  8
0
 62
     7
370
     0
390
1D
100
AcDbVertex
100
AcDb2dVertex
 10
341.745789
 20
223.810303
 30
0.0
  0
VERTEX
  5
153
330
139
100
AcDbEntity
  8
0
 62
     7
370
     0
390
1D
100
AcDbVertex
100
AcDb2dVertex
 10
341.712097
 20
223.641083
 30
0.0
  0
VERTEX
  5
154
330
139
100
AcDbEntity
  8
0
 62
     7
370
     0
390
1D
100
AcDbVertex
100
AcDb2dVertex
 10
341.682373
 20
223.47113
 30
0.0
  0
VERTEX
  5
155
330
139
100
AcDbEntity
  8
0
 62
     7
370
     0
390
1D
100
AcDbVertex
100
AcDb2dVertex
 10
341.658508
 20
223.313385
 30
0.0
  0
VERTEX
  5
156
330
139
100
AcDbEntity
  8
0
 62
     7
370
     0
390
1D
100
AcDbVertex
100
AcDb2dVertex
 10
341.638062
 20
223.155121
 30
0.0
  0
VERTEX
  5
157
330
139
100
AcDbEntity
  8
0
 62
     7
370
     0
390
1D
100
AcDbVertex
100
AcDb2dVertex
 10
341.621094
 20
222.996414
 30
0.0
  0
VERTEX
  5
158
330
139
100
AcDbEntity
  8
0
 62
     7
370
     0
390
1D
100
AcDbVertex
100
AcDb2dVertex
 10
341.607574
 20
222.837357
 30
0.0
  0
VERTEX
  5
159
330
139
100
AcDbEntity
  8
0
 62
     7
370
     0
390
1D
100
AcDbVertex
100
AcDb2dVertex
 10
341.597534
 20
222.67807
 30
0.0
  0
VERTEX
  5
15A
330
139
100
AcDbEntity
  8
0
 62
     7
370
     0
390
1D
100
AcDbVertex
100
AcDb2dVertex
 10
341.590942
 20
222.518616
 30
0.0
  0
VERTEX
  5
15B
330
139
100
AcDbEntity
  8
0
 62
     7
370
     0
390
1D
100
AcDbVertex
100
AcDb2dVertex
 10
341.58786
 20
222.359116
 30
0.0
  0
SEQEND
  5
15C
330
139
100
AcDbEntity
  8
0
370
     0
390
1D
  0
LINE
  5
15D
330
A
100
AcDbEntity
  8
0
 62
     7
370
    35
390
1D
100
AcDbLine
 10
335.305481
 20
261.772949
 30
0.0
 11
343.68866
 21
227.402039
 31
0.0
  0
ELLIPSE
  5
15E
330
A
100
AcDbEntity
  8
0
 62
     7
370
    35
390
1D
100
AcDbEllipse
 10
330.411133
 20
268.585754
 30
0.0
 11
2.535247802734375
 21
-8.222015380859375
 31
0.0
210
0.0
220
0.0
230
1.0
 40
0.812829
 41
6.247998193287582
 42
6.674846689203069
  0
POLYLINE
  5
15F
330
A
100
AcDbEntity
  8
0
 62
     7
370
    35
390
1D
100
AcDb2dPolyline
 66
     1
 10
0.0
 20
0.0
 30
0.0
  0
VERTEX
  5
160
330
15F
100
AcDbEntity
  8
0
 62
     7
370
     0
390
1D
100
AcDbVertex
100
AcDb2dVertex
 10
323.630005
 20
266.827759
 30
0.0
  0
VERTEX
  5
161
330
15F
100
AcDbEntity
  8
0
 62
     7
370
     0
390
1D
100
AcDbVertex
100
AcDb2dVertex
 10
323.709106
 20
266.556824
 30
0.0
  0
VERTEX
  5
162
330
15F
100
AcDbEntity
  8
0
 62
     7
370
     0
390
1D
100
AcDbVertex
100
AcDb2dVertex
 10
323.79541
 20
266.288086
 30
0.0
  0
VERTEX
  5
163
330
15F
100
AcDbEntity
  8
0
 62
     7
370
     0
390
1D
100
AcDbVertex
100
AcDb2dVertex
 10
323.888824
 20
266.021729
 30
0.0
  0
VERTEX
  5
164
330
15F
100
AcDbEntity
  8
0
 62
     7
370
     0
390
1D
100
AcDbVertex
100
AcDb2dVertex
 10
323.989319
 20
265.757935
 30
0.0
  0
VERTEX
  5
165
330
15F
100
AcDbEntity
  8
0
 62
     7
370
     0
390
1D
100
AcDbVertex
100
AcDb2dVertex
 10
324.096832
 20
265.496918
 30
0.0
  0
VERTEX
  5
166
330
15F
100
AcDbEntity
  8
0
 62
     7
370
     0
390
1D
100
AcDbVertex
100
AcDb2dVertex
 10
324.211304
 20
265.238892
 30
0.0
  0
VERTEX
  5
167
330
15F
100
AcDbEntity
  8
0
 62
     7
370
     0
390
1D
100
AcDbVertex
100
AcDb2dVertex
 10
324.332672
 20
264.984039
 30
0.0
  0
VERTEX
  5
168
330
15F
100
AcDbEntity
  8
0
 62
     7
370
     0
390
1D
100
AcDbVertex
100
AcDb2dVertex
 10
324.460907
 20
264.732544
 30
0.0
  0
VERTEX
  5
169
330
15F
100
AcDbEntity
  8
0
 62
     7
370
     0
390
1D
100
AcDbVertex
100
AcDb2dVertex
 10
324.602051
 20
264.473877
 30
0.0
  0
VERTEX
  5
16A
330
15F
100
AcDbEntity
  8
0
 62
     7
370
     0
390
1D
100
AcDbVertex
100
AcDb2dVertex
 10
324.75061
 20
264.21936
 30
0.0
  0
VERTEX
  5
16B
330
15F
100
AcDbEntity
  8
0
 62
     7
370
     0
390
1D
100
AcDbVertex
100
AcDb2dVertex
 10
324.906494
 20
263.969177
 30
0.0
  0
VERTEX
  5
16C
330
15F
100
AcDbEntity
  8
0
 62
     7
370
     0
390
1D
100
AcDbVertex
100
AcDb2dVertex
 10
325.069672
 20
263.723694
 30
0.0
  0
VERTEX
  5
16D
330
15F
100
AcDbEntity
  8
0
 62
     7
370
     0
390
1D
100
AcDbVertex
100
AcDb2dVertex
 10
325.240112
 20
263.483093
 30
0.0
  0
VERTEX
  5
16E
330
15F
100
AcDbEntity
  8
0
 62
     7
370
     0
390
1D
100
AcDbVertex
100
AcDb2dVertex
 10
325.417755
 20
263.247681
 30
0.0
  0
VERTEX
  5
16F
330
15F
100
AcDbEntity
  8
0
 62
     7
370
     0
390
1D
100
AcDbVertex
100
AcDb2dVertex
 10
325.602509
 20
263.017761
 30
0.0
  0
VERTEX
  5
170
330
15F
100
AcDbEntity
  8
0
 62
     7
370
     0
390
1D
100
AcDbVertex
100
AcDb2dVertex
 10
325.697571
 20
262.904907
 30
0.0
  0
VERTEX
  5
171
330
15F
100
AcDbEntity
  8
0
 62
     7
370
     0
390
1D
100
AcDbVertex
100
AcDb2dVertex
 10
325.794434
 20
262.793549
 30
0.0
  0
VERTEX
  5
172
330
15F
100
AcDbEntity
  8
0
 62
     7
370
     0
390
1D
100
AcDbVertex
100
AcDb2dVertex
 10
325.892883
 20
262.683838
 30
0.0
  0
VERTEX
  5
173
330
15F
100
AcDbEntity
  8
0
 62
     7
370
     0
390
1D
100
AcDbVertex
100
AcDb2dVertex
 10
325.993103
 20
262.575714
 30
0.0
  0
VERTEX
  5
174
330
15F
100
AcDbEntity
  8
0
 62
     7
370
     0
390
1D
100
AcDbVertex
100
AcDb2dVertex
 10
326.177917
 20
262.385101
 30
0.0
  0
VERTEX
  5
175
330
15F
100
AcDbEntity
  8
0
 62
     7
370
     0
390
1D
100
AcDbVertex
100
AcDb2dVertex
 10
326.368225
 20
262.200012
 30
0.0
  0
VERTEX
  5
176
330
15F
100
AcDbEntity
  8
0
 62
     7
370
     0
390
1D
100
AcDbVertex
100
AcDb2dVertex
 10
326.563934
 20
262.020691
 30
0.0
  0
VERTEX
  5
177
330
15F
100
AcDbEntity
  8
0
 62
     7
370
     0
390
1D
100
AcDbVertex
100
AcDb2dVertex
 10
326.764984
 20
261.847412
 30
0.0
  0
VERTEX
  5
178
330
15F
100
AcDbEntity
  8
0
 62
     7
370
     0
390
1D
100
AcDbVertex
100
AcDb2dVertex
 10
326.971283
 20
261.68045
 30
0.0
  0
VERTEX
  5
179
330
15F
100
AcDbEntity
  8
0
 62
     7
370
     0
390
1D
100
AcDbVertex
100
AcDb2dVertex
 10
327.182678
 20
261.520142
 30
0.0
  0
VERTEX
  5
17A
330
15F
100
AcDbEntity
  8
0
 62
     7
370
     0
390
1D
100
AcDbVertex
100
AcDb2dVertex
 10
327.399109
 20
261.366699
 30
0.0
  0
VERTEX
  5
17B
330
15F
100
AcDbEntity
  8
0
 62
     7
370
     0
390
1D
100
AcDbVertex
100
AcDb2dVertex
 10
327.620422
 20
261.22052
 30
0.0
  0
VERTEX
  5
17C
330
15F
100
AcDbEntity
  8
0
 62
     7
370
     0
390
1D
100
AcDbVertex
100
AcDb2dVertex
 10
327.846466
 20
261.081818
 30
0.0
  0
VERTEX
  5
17D
330
15F
100
AcDbEntity
  8
0
 62
     7
370
     0
390
1D
100
AcDbVertex
100
AcDb2dVertex
 10
327.961243
 20
261.015381
 30
0.0
  0
VERTEX
  5
17E
330
15F
100
AcDbEntity
  8
0
 62
     7
370
     0
390
1D
100
AcDbVertex
100
AcDb2dVertex
 10
328.077118
 20
260.950958
 30
0.0
  0
VERTEX
  5
17F
330
15F
100
AcDbEntity
  8
0
 62
     7
370
     0
390
1D
100
AcDbVertex
100
AcDb2dVertex
 10
328.306671
 20
260.830994
 30
0.0
  0
VERTEX
  5
180
330
15F
100
AcDbEntity
  8
0
 62
     7
370
     0
390
1D
100
AcDbVertex
100
AcDb2dVertex
 10
328.423706
 20
260.773682
 30
0.0
  0
VERTEX
  5
181
330
15F
100
AcDbEntity
  8
0
 62
     7
370
     0
390
1D
100
AcDbVertex
100
AcDb2dVertex
 10
328.541748
 20
260.718445
 30
0.0
  0
VERTEX
  5
182
330
15F
100
AcDbEntity
  8
0
 62
     7
370
     0
390
1D
100
AcDbVertex
100
AcDb2dVertex
 10
328.659302
 20
260.666016
 30
0.0
  0
VERTEX
  5
183
330
15F
100
AcDbEntity
  8
0
 62
     7
370
     0
390
1D
100
AcDbVertex
100
AcDb2dVertex
 10
328.77774
 20
260.615662
 30
0.0
  0
VERTEX
  5
184
330
15F
100
AcDbEntity
  8
0
 62
     7
370
     0
390
1D
100
AcDbVertex
100
AcDb2dVertex
 10
328.970337
 20
260.539124
 30
0.0
  0
VERTEX
  5
185
330
15F
100
AcDbEntity
  8
0
 62
     7
370
     0
390
1D
100
AcDbVertex
100
AcDb2dVertex
 10
329.165131
 20
260.468323
 30
0.0
  0
VERTEX
  5
186
330
15F
100
AcDbEntity
  8
0
 62
     7
370
     0
390
1D
100
AcDbVertex
100
AcDb2dVertex
 10
329.361938
 20
260.403442
 30
0.0
  0
VERTEX
  5
187
330
15F
100
AcDbEntity
  8
0
 62
     7
370
     0
390
1D
100
AcDbVertex
100
AcDb2dVertex
 10
329.560669
 20
260.344604
 30
0.0
  0
VERTEX
  5
188
330
15F
100
AcDbEntity
  8
0
 62
     7
370
     0
390
1D
100
AcDbVertex
100
AcDb2dVertex
 10
329.761139
 20
260.291992
 30
0.0
  0
VERTEX
  5
189
330
15F
100
AcDbEntity
  8
0
 62
     7
370
     0
390
1D
100
AcDbVertex
100
AcDb2dVertex
 10
329.982178
 20
260.24173
 30
0.0
  0
VERTEX
  5
18A
330
15F
100
AcDbEntity
  8
0
 62
     7
370
     0
390
1D
100
AcDbVertex
100
AcDb2dVertex
 10
330.204834
 20
260.19928
 30
0.0
  0
VERTEX
  5
18B
330
15F
100
AcDbEntity
  8
0
 62
     7
370
     0
390
1D
100
AcDbVertex
100
AcDb2dVertex
 10
330.428833
 20
260.164825
 30
0.0
  0
VERTEX
  5
18C
330
15F
100
AcDbEntity
  8
0
 62
     7
370
     0
390
1D
100
AcDbVertex
100
AcDb2dVertex
 10
330.653961
 20
260.138519
 30
0.0
  0
VERTEX
  5
18D
330
15F
100
AcDbEntity
  8
0
 62
     7
370
     0
390
1D
100
AcDbVertex
100
AcDb2dVertex
 10
330.879852
 20
260.120544
 30
0.0
  0
VERTEX
  5
18E
330
15F
100
AcDbEntity
  8
0
 62
     7
370
     0
390
1D
100
AcDbVertex
100
AcDb2dVertex
 10
331.106293
 20
260.110992
 30
0.0
  0
VERTEX
  5
18F
330
15F
100
AcDbEntity
  8
0
 62
     7
370
     0
390
1D
100
AcDbVertex
100
AcDb2dVertex
 10
331.332886
 20
260.110016
 30
0.0
  0
VERTEX
  5
190
330
15F
100
AcDbEntity
  8
0
 62
     7
370
     0
390
1D
100
AcDbVertex
100
AcDb2dVertex
 10
331.559387
 20
260.117737
 30
0.0
  0
VERTEX
  5
191
330
15F
100
AcDbEntity
  8
0
 62
     7
370
     0
390
1D
100
AcDbVertex
100
AcDb2dVertex
 10
331.753143
 20
260.131287
 30
0.0
  0
VERTEX
  5
192
330
15F
100
AcDbEntity
  8
0
 62
     7
370
     0
390
1D
100
AcDbVertex
100
AcDb2dVertex
 10
331.946472
 20
260.151306
 30
0.0
  0
VERTEX
  5
193
330
15F
100
AcDbEntity
  8
0
 62
     7
370
     0
390
1D
100
AcDbVertex
100
AcDb2dVertex
 10
332.139069
 20
260.177856
 30
0.0
  0
VERTEX
  5
194
330
15F
100
AcDbEntity
  8
0
 62
     7
370
     0
390
1D
100
AcDbVertex
100
AcDb2dVertex
 10
332.330658
 20
260.210876
 30
0.0
  0
VERTEX
  5
195
330
15F
100
AcDbEntity
  8
0
 62
     7
370
     0
390
1D
100
AcDbVertex
100
AcDb2dVertex
 10
332.520935
 20
260.250366
 30
0.0
  0
VERTEX
  5
196
330
15F
100
AcDbEntity
  8
0
 62
     7
370
     0
390
1D
100
AcDbVertex
100
AcDb2dVertex
 10
332.709686
 20
260.296326
 30
0.0
  0
SEQEND
  5
197
330
15F
100
AcDbEntity
  8
0
370
     0
390
1D
  0
ELLIPSE
  5
198
330
A
100
AcDbEntity
  8
0
 62
     7
370
    35
390
1D
100
AcDbEllipse
 10
330.405121
 20
268.599335
 30
0.0
 11
2.547393798828125
 21
-8.234809875488281
 31
0.0
210
0.0
220
0.0
230
1.0
 40
0.812151
 41
3.793108251510116
 42
4.676442092218772
  0
LINE
  5
199
330
A
100
AcDbEntity
  8
0
 62
     7
370
    35
390
1D
100
AcDbLine
 10
324.324036
 20
273.892822
 30
0.0
 11
284.543213
 21
273.892822
 31
0.0
  0
ARC
  5
19A
330
A
100
AcDbEntity
  8
0
 62
     7
370
    35
390
1D
100
AcDbCircle
 10
278.127502
 20
264.715271
 30
0.0
 40
11.197863
100
AcDbArc
 50
44.013596
 51
55.043887
  0
ELLIPSE
  5
19B
330
A
100
AcDbEntity
  8
0
 62
     7
370
    35
390
1D
100
AcDbEllipse
 10
281.937744
 20
268.608948
 30
0.0
 11
5.761749267578125
 21
-5.633377075195312
 31
0.0
210
0.0
220
0.0
230
1.0
 40
0.7135700000000001
 41
3.222231176727175
 42
7.81468945525355
  0
LINE
  5
19C
330
A
100
AcDbEntity
  8
0
 62
     7
370
    35
390
1D
100
AcDbLine
 10
275.870941
 20
273.892822
 30
0.0
 11
148.463425
 21
273.892822
 31
0.0
  0
ELLIPSE
  5
19D
330
A
100
AcDbEntity
  8
0
 62
     7
370
    35
390
1D
100
AcDbEllipse
 10
142.396576
 20
268.608948
 30
0.0
 11
5.761779785156251
 21
5.633377075195313
 31
0.0
210
0.0
220
0.0
230
0.9999999999999999
 40
0.713568
 41
1.61008680462501
 42
6.202545083113863
  0
ARC
  5
19E
330
A
100
AcDbEntity
  8
0
 62
     7
370
    35
390
1D
100
AcDbCircle
 10
146.206863
 20
264.715271
 30
0.0
 40
11.197863
100
AcDbArc
 50
124.956112
 51
135.986403
  0
LINE
  5
19F
330
A
100
AcDbEntity
  8
0
 62
     7
370
    35
390
1D
100
AcDbLine
 10
139.791122
 20
273.892822
 30
0.0
 11
100.010315
 21
273.892822
 31
0.0
  0
ELLIPSE
  5
1A0
330
A
100
AcDbEntity
  8
0
 62
     7
370
    35
390
1D
100
AcDbEllipse
 10
93.92923
 20
268.599335
 30
0.0
 11
-2.547393798828125
 21
-8.234809875488281
 31
0.0
210
0.0
220
0.0
230
1.0
 40
0.812151
 41
1.606743215122689
 42
2.49007705581543
  0
POLYLINE
  5
1A1
330
A
100
AcDbEntity
  8
0
 62
     7
370
    35
390
1D
100
AcDb2dPolyline
 66
     1
 10
0.0
 20
0.0
 30
0.0
  0
VERTEX
  5
1A2
330
1A1
100
AcDbEntity
  8
0
 62
     7
370
     0
390
1D
100
AcDbVertex
100
AcDb2dVertex
 10
100.704346
 20
266.827759
 30
0.0
  0
VERTEX
  5
1A3
330
1A1
100
AcDbEntity
  8
0
 62
     7
370
     0
390
1D
100
AcDbVertex
100
AcDb2dVertex
 10
100.625244
 20
266.556824
 30
0.0
  0
VERTEX
  5
1A4
330
1A1
100
AcDbEntity
  8
0
 62
     7
370
     0
390
1D
100
AcDbVertex
100
AcDb2dVertex
 10
100.53894
 20
266.288086
 30
0.0
  0
VERTEX
  5
1A5
330
1A1
100
AcDbEntity
  8
0
 62
     7
370
     0
390
1D
100
AcDbVertex
100
AcDb2dVertex
 10
100.445526
 20
266.021729
 30
0.0
  0
VERTEX
  5
1A6
330
1A1
100
AcDbEntity
  8
0
 62
     7
370
     0
390
1D
100
AcDbVertex
100
AcDb2dVertex
 10
100.345032
 20
265.757935
 30
0.0
  0
VERTEX
  5
1A7
330
1A1
100
AcDbEntity
  8
0
 62
     7
370
     0
390
1D
100
AcDbVertex
100
AcDb2dVertex
 10
100.237518
 20
265.496918
 30
0.0
  0
VERTEX
  5
1A8
330
1A1
100
AcDbEntity
  8
0
 62
     7
370
     0
390
1D
100
AcDbVertex
100
AcDb2dVertex
 10
100.123047
 20
265.238892
 30
0.0
  0
VERTEX
  5
1A9
330
1A1
100
AcDbEntity
  8
0
 62
     7
370
     0
390
1D
100
AcDbVertex
100
AcDb2dVertex
 10
100.001678
 20
264.984039
 30
0.0
  0
VERTEX
  5
1AA
330
1A1
100
AcDbEntity
  8
0
 62
     7
370
     0
390
1D
100
AcDbVertex
100
AcDb2dVertex
 10
99.873444
 20
264.732544
 30
0.0
  0
VERTEX
  5
1AB
330
1A1
100
AcDbEntity
  8
0
 62
     7
370
     0
390
1D
100
AcDbVertex
100
AcDb2dVertex
 10
99.7323
 20
264.473877
 30
0.0
  0
VERTEX
  5
1AC
330
1A1
100
AcDbEntity
  8
0
 62
     7
370
     0
390
1D
100
AcDbVertex
100
AcDb2dVertex
 10
99.58374
 20
264.21936
 30
0.0
  0
VERTEX
  5
1AD
330
1A1
100
AcDbEntity
  8
0
 62
     7
370
     0
390
1D
100
AcDbVertex
100
AcDb2dVertex
 10
99.427856
 20
263.969177
 30
0.0
  0
VERTEX
  5
1AE
330
1A1
100
AcDbEntity
  8
0
 62
     7
370
     0
390
1D
100
AcDbVertex
100
AcDb2dVertex
 10
99.264679
 20
263.723694
 30
0.0
  0
VERTEX
  5
1AF
330
1A1
100
AcDbEntity
  8
0
 62
     7
370
     0
390
1D
100
AcDbVertex
100
AcDb2dVertex
 10
99.094238
 20
263.483093
 30
0.0
  0
VERTEX
  5
1B0
330
1A1
100
AcDbEntity
  8
0
 62
     7
370
     0
390
1D
100
AcDbVertex
100
AcDb2dVertex
 10
98.916595
 20
263.247681
 30
0.0
  0
VERTEX
  5
1B1
330
1A1
100
AcDbEntity
  8
0
 62
     7
370
     0
390
1D
100
AcDbVertex
100
AcDb2dVertex
 10
98.731842
 20
263.017761
 30
0.0
  0
VERTEX
  5
1B2
330
1A1
100
AcDbEntity
  8
0
 62
     7
370
     0
390
1D
100
AcDbVertex
100
AcDb2dVertex
 10
98.63678
 20
262.904907
 30
0.0
  0
VERTEX
  5
1B3
330
1A1
100
AcDbEntity
  8
0
 62
     7
370
     0
390
1D
100
AcDbVertex
100
AcDb2dVertex
 10
98.539948
 20
262.793549
 30
0.0
  0
VERTEX
  5
1B4
330
1A1
100
AcDbEntity
  8
0
 62
     7
370
     0
390
1D
100
AcDbVertex
100
AcDb2dVertex
 10
98.441467
 20
262.683838
 30
0.0
  0
VERTEX
  5
1B5
330
1A1
100
AcDbEntity
  8
0
 62
     7
370
     0
390
1D
100
AcDbVertex
100
AcDb2dVertex
 10
98.341248
 20
262.575714
 30
0.0
  0
VERTEX
  5
1B6
330
1A1
100
AcDbEntity
  8
0
 62
     7
370
     0
390
1D
100
AcDbVertex
100
AcDb2dVertex
 10
98.156433
 20
262.385101
 30
0.0
  0
VERTEX
  5
1B7
330
1A1
100
AcDbEntity
  8
0
 62
     7
370
     0
390
1D
100
AcDbVertex
100
AcDb2dVertex
 10
97.966125
 20
262.200012
 30
0.0
  0
VERTEX
  5
1B8
330
1A1
100
AcDbEntity
  8
0
 62
     7
370
     0
390
1D
100
AcDbVertex
100
AcDb2dVertex
 10
97.770416
 20
262.020691
 30
0.0
  0
VERTEX
  5
1B9
330
1A1
100
AcDbEntity
  8
0
 62
     7
370
     0
390
1D
100
AcDbVertex
100
AcDb2dVertex
 10
97.569366
 20
261.847412
 30
0.0
  0
VERTEX
  5
1BA
330
1A1
100
AcDbEntity
  8
0
 62
     7
370
     0
390
1D
100
AcDbVertex
100
AcDb2dVertex
 10
97.363068
 20
261.68045
 30
0.0
  0
VERTEX
  5
1BB
330
1A1
100
AcDbEntity
  8
0
 62
     7
370
     0
390
1D
100
AcDbVertex
100
AcDb2dVertex
 10
97.151672
 20
261.520142
 30
0.0
  0
VERTEX
  5
1BC
330
1A1
100
AcDbEntity
  8
0
 62
     7
370
     0
390
1D
100
AcDbVertex
100
AcDb2dVertex
 10
96.935242
 20
261.366699
 30
0.0
  0
VERTEX
  5
1BD
330
1A1
100
AcDbEntity
  8
0
 62
     7
370
     0
390
1D
100
AcDbVertex
100
AcDb2dVertex
 10
96.713928
 20
261.22052
 30
0.0
  0
VERTEX
  5
1BE
330
1A1
100
AcDbEntity
  8
0
 62
     7
370
     0
390
1D
100
AcDbVertex
100
AcDb2dVertex
 10
96.487885
 20
261.081818
 30
0.0
  0
VERTEX
  5
1BF
330
1A1
100
AcDbEntity
  8
0
 62
     7
370
     0
390
1D
100
AcDbVertex
100
AcDb2dVertex
 10
96.373138
 20
261.015381
 30
0.0
  0
VERTEX
  5
1C0
330
1A1
100
AcDbEntity
  8
0
 62
     7
370
     0
390
1D
100
AcDbVertex
100
AcDb2dVertex
 10
96.257233
 20
260.950958
 30
0.0
  0
VERTEX
  5
1C1
330
1A1
100
AcDbEntity
  8
0
 62
     7
370
     0
390
1D
100
AcDbVertex
100
AcDb2dVertex
 10
96.027679
 20
260.830994
 30
0.0
  0
VERTEX
  5
1C2
330
1A1
100
AcDbEntity
  8
0
 62
     7
370
     0
390
1D
100
AcDbVertex
100
AcDb2dVertex
 10
95.910645
 20
260.773682
 30
0.0
  0
VERTEX
  5
1C3
330
1A1
100
AcDbEntity
  8
0
 62
     7
370
     0
390
1D
100
AcDbVertex
100
AcDb2dVertex
 10
95.792603
 20
260.718445
 30
0.0
  0
VERTEX
  5
1C4
330
1A1
100
AcDbEntity
  8
0
 62
     7
370
     0
390
1D
100
AcDbVertex
100
AcDb2dVertex
 10
95.675079
 20
260.666016
 30
0.0
  0
VERTEX
  5
1C5
330
1A1
100
AcDbEntity
  8
0
 62
     7
370
     0
390
1D
100
AcDbVertex
100
AcDb2dVertex
 10
95.55661
 20
260.615662
 30
0.0
  0
VERTEX
  5
1C6
330
1A1
100
AcDbEntity
  8
0
 62
     7
370
     0
390
1D
100
AcDbVertex
100
AcDb2dVertex
 10
95.364014
 20
260.539124
 30
0.0
  0
VERTEX
  5
1C7
330
1A1
100
AcDbEntity
  8
0
 62
     7
370
     0
390
1D
100
AcDbVertex
100
AcDb2dVertex
 10
95.16922
 20
260.468323
 30
0.0
  0
VERTEX
  5
1C8
330
1A1
100
AcDbEntity
  8
0
 62
     7
370
     0
390
1D
100
AcDbVertex
100
AcDb2dVertex
 10
94.972412
 20
260.403442
 30
0.0
  0
VERTEX
  5
1C9
330
1A1
100
AcDbEntity
  8
0
 62
     7
370
     0
390
1D
100
AcDbVertex
100
AcDb2dVertex
 10
94.773682
 20
260.344604
 30
0.0
  0
VERTEX
  5
1CA
330
1A1
100
AcDbEntity
  8
0
 62
     7
370
     0
390
1D
100
AcDbVertex
100
AcDb2dVertex
 10
94.573212
 20
260.291992
 30
0.0
  0
VERTEX
  5
1CB
330
1A1
100
AcDbEntity
  8
0
 62
     7
370
     0
390
1D
100
AcDbVertex
100
AcDb2dVertex
 10
94.352173
 20
260.24173
 30
0.0
  0
VERTEX
  5
1CC
330
1A1
100
AcDbEntity
  8
0
 62
     7
370
     0
390
1D
100
AcDbVertex
100
AcDb2dVertex
 10
94.129517
 20
260.19928
 30
0.0
  0
VERTEX
  5
1CD
330
1A1
100
AcDbEntity
  8
0
 62
     7
370
     0
390
1D
100
AcDbVertex
100
AcDb2dVertex
 10
93.905518
 20
260.164825
 30
0.0
  0
VERTEX
  5
1CE
330
1A1
100
AcDbEntity
  8
0
 62
     7
370
     0
390
1D
100
AcDbVertex
100
AcDb2dVertex
 10
93.680389
 20
260.138519
 30
0.0
  0
VERTEX
  5
1CF
330
1A1
100
AcDbEntity
  8
0
 62
     7
370
     0
390
1D
100
AcDbVertex
100
AcDb2dVertex
 10
93.454498
 20
260.120544
 30
0.0
  0
VERTEX
  5
1D0
330
1A1
100
AcDbEntity
  8
0
 62
     7
370
     0
390
1D
100
AcDbVertex
100
AcDb2dVertex
 10
93.228058
 20
260.110992
 30
0.0
  0
VERTEX
  5
1D1
330
1A1
100
AcDbEntity
  8
0
 62
     7
370
     0
390
1D
100
AcDbVertex
100
AcDb2dVertex
 10
93.001465
 20
260.110016
 30
0.0
  0
VERTEX
  5
1D2
330
1A1
100
AcDbEntity
  8
0
 62
     7
370
     0
390
1D
100
AcDbVertex
100
AcDb2dVertex
 10
92.774963
 20
260.117737
 30
0.0
  0
VERTEX
  5
1D3
330
1A1
100
AcDbEntity
  8
0
 62
     7
370
     0
390
1D
100
AcDbVertex
100
AcDb2dVertex
 10
92.581207
 20
260.131287
 30
0.0
  0
VERTEX
  5
1D4
330
1A1
100
AcDbEntity
  8
0
 62
     7
370
     0
390
1D
100
AcDbVertex
100
AcDb2dVertex
 10
92.387909
 20
260.151306
 30
0.0
  0
VERTEX
  5
1D5
330
1A1
100
AcDbEntity
  8
0
 62
     7
370
     0
390
1D
100
AcDbVertex
100
AcDb2dVertex
 10
92.195282
 20
260.177856
 30
0.0
  0
VERTEX
  5
1D6
330
1A1
100
AcDbEntity
  8
0
 62
     7
370
     0
390
1D
100
AcDbVertex
100
AcDb2dVertex
 10
92.003693
 20
260.210876
 30
0.0
  0
VERTEX
  5
1D7
330
1A1
100
AcDbEntity
  8
0
 62
     7
370
     0
390
1D
100
AcDbVertex
100
AcDb2dVertex
 10
91.813416
 20
260.250366
 30
0.0
  0
VERTEX
  5
1D8
330
1A1
100
AcDbEntity
  8
0
 62
     7
370
     0
390
1D
100
AcDbVertex
100
AcDb2dVertex
 10
91.624664
 20
260.296326
 30
0.0
  0
SEQEND
  5
1D9
330
1A1
100
AcDbEntity
  8
0
370
     0
390
1D
  0
ELLIPSE
  5
1DA
330
A
100
AcDbEntity
  8
0
 62
     7
370
    35
390
1D
100
AcDbEllipse
 10
93.923218
 20
268.585754
 30
0.0
 11
-2.535247802734375
 21
-8.222015380859375
 31
0.0
210
0.0
220
0.0
230
1.0
 40
0.812829
 41
5.891523913334116
 42
6.31837241389836
  0
LINE
  5
1DB
330
A
100
AcDbEntity
  8
0
 62
     7
370
    35
390
1D
100
AcDbLine
 10
89.02887
 20
261.772949
 30
0.0
 11
80.645721
 21
227.402039
 31
0.0
  0
POLYLINE
  5
1DC
330
A
100
AcDbEntity
  8
0
 62
     7
370
    35
390
1D
100
AcDb2dPolyline
 66
     1
 10
0.0
 20
0.0
 30
0.0
  0
VERTEX
  5
1DD
330
1DC
100
AcDbEntity
  8
0
 62
     7
370
     0
390
1D
100
AcDbVertex
100
AcDb2dVertex
 10
80.645721
 20
227.402039
 30
0.0
  0
VERTEX
  5
1DE
330
1DC
100
AcDbEntity
  8
0
 62
     7
370
     0
390
1D
100
AcDbVertex
100
AcDb2dVertex
 10
80.766388
 20
227.278748
 30
0.0
  0
VERTEX
  5
1DF
330
1DC
100
AcDbEntity
  8
0
 62
     7
370
     0
390
1D
100
AcDbVertex
100
AcDb2dVertex
 10
80.884033
 20
227.152527
 30
0.0
  0
VERTEX
  5
1E0
330
1DC
100
AcDbEntity
  8
0
 62
     7
370
     0
390
1D
100
AcDbVertex
100
AcDb2dVertex
 10
80.998505
 20
227.023468
 30
0.0
  0
VERTEX
  5
1E1
330
1DC
100
AcDbEntity
  8
0
 62
     7
370
     0
390
1D
100
AcDbVertex
100
AcDb2dVertex
 10
81.109833
 20
226.891632
 30
0.0
  0
VERTEX
  5
1E2
330
1DC
100
AcDbEntity
  8
0
 62
     7
370
     0
390
1D
100
AcDbVertex
100
AcDb2dVertex
 10
81.217865
 20
226.757111
 30
0.0
  0
VERTEX
  5
1E3
330
1DC
100
AcDbEntity
  8
0
 62
     7
370
     0
390
1D
100
AcDbVertex
100
AcDb2dVertex
 10
81.322601
 20
226.620026
 30
0.0
  0
VERTEX
  5
1E4
330
1DC
100
AcDbEntity
  8
0
 62
     7
370
     0
390
1D
100
AcDbVertex
100
AcDb2dVertex
 10
81.423981
 20
226.480408
 30
0.0
  0
VERTEX
  5
1E5
330
1DC
100
AcDbEntity
  8
0
 62
     7
370
     0
390
1D
100
AcDbVertex
100
AcDb2dVertex
 10
81.521942
 20
226.338364
 30
0.0
  0
VERTEX
  5
1E6
330
1DC
100
AcDbEntity
  8
0
 62
     7
370
     0
390
1D
100
AcDbVertex
100
AcDb2dVertex
 10
81.616425
 20
226.194
 30
0.0
  0
VERTEX
  5
1E7
330
1DC
100
AcDbEntity
  8
0
 62
     7
370
     0
390
1D
100
AcDbVertex
100
AcDb2dVertex
 10
81.707367
 20
226.047379
 30
0.0
  0
VERTEX
  5
1E8
330
1DC
100
AcDbEntity
  8
0
 62
     7
370
     0
390
1D
100
AcDbVertex
100
AcDb2dVertex
 10
81.794739
 20
225.898605
 30
0.0
  0
VERTEX
  5
1E9
330
1DC
100
AcDbEntity
  8
0
 62
     7
370
     0
390
1D
100
AcDbVertex
100
AcDb2dVertex
 10
81.87851
 20
225.747772
 30
0.0
  0
VERTEX
  5
1EA
330
1DC
100
AcDbEntity
  8
0
 62
     7
370
     0
390
1D
100
AcDbVertex
100
AcDb2dVertex
 10
81.958649
 20
225.59494
 30
0.0
  0
VERTEX
  5
1EB
330
1DC
100
AcDbEntity
  8
0
 62
     7
370
     0
390
1D
100
AcDbVertex
100
AcDb2dVertex
 10
82.035065
 20
225.440247
 30
0.0
  0
VERTEX
  5
1EC
330
1DC
100
AcDbEntity
  8
0
 62
     7
370
     0
390
1D
100
AcDbVertex
100
AcDb2dVertex
 10
82.107727
 20
225.283752
 30
0.0
  0
VERTEX
  5
1ED
330
1DC
100
AcDbEntity
  8
0
 62
     7
370
     0
390
1D
100
AcDbVertex
100
AcDb2dVertex
 10
82.176636
 20
225.12558
 30
0.0
  0
VERTEX
  5
1EE
330
1DC
100
AcDbEntity
  8
0
 62
     7
370
     0
390
1D
100
AcDbVertex
100
AcDb2dVertex
 10
82.24176
 20
224.96579
 30
0.0
  0
VERTEX
  5
1EF
330
1DC
100
AcDbEntity
  8
0
 62
     7
370
     0
390
1D
100
AcDbVertex
100
AcDb2dVertex
 10
82.303009
 20
224.804489
 30
0.0
  0
VERTEX
  5
1F0
330
1DC
100
AcDbEntity
  8
0
 62
     7
370
     0
390
1D
100
AcDbVertex
100
AcDb2dVertex
 10
82.360413
 20
224.641785
 30
0.0
  0
VERTEX
  5
1F1
330
1DC
100
AcDbEntity
  8
0
 62
     7
370
     0
390
1D
100
AcDbVertex
100
AcDb2dVertex
 10
82.41394
 20
224.477753
 30
0.0
  0
VERTEX
  5
1F2
330
1DC
100
AcDbEntity
  8
0
 62
     7
370
     0
390
1D
100
AcDbVertex
100
AcDb2dVertex
 10
82.463531
 20
224.312485
 30
0.0
  0
VERTEX
  5
1F3
330
1DC
100
AcDbEntity
  8
0
 62
     7
370
     0
390
1D
100
AcDbVertex
100
AcDb2dVertex
 10
82.509155
 20
224.146088
 30
0.0
  0
VERTEX
  5
1F4
330
1DC
100
AcDbEntity
  8
0
 62
     7
370
     0
390
1D
100
AcDbVertex
100
AcDb2dVertex
 10
82.550842
 20
223.978668
 30
0.0
  0
VERTEX
  5
1F5
330
1DC
100
AcDbEntity
  8
0
 62
     7
370
     0
390
1D
100
AcDbVertex
100
AcDb2dVertex
 10
82.588562
 20
223.810303
 30
0.0
  0
VERTEX
  5
1F6
330
1DC
100
AcDbEntity
  8
0
 62
     7
370
     0
390
1D
100
AcDbVertex
100
AcDb2dVertex
 10
82.622253
 20
223.641083
 30
0.0
  0
VERTEX
  5
1F7
330
1DC
100
AcDbEntity
  8
0
 62
     7
370
     0
390
1D
100
AcDbVertex
100
AcDb2dVertex
 10
82.651978
 20
223.47113
 30
0.0
  0
VERTEX
  5
1F8
330
1DC
100
AcDbEntity
  8
0
 62
     7
370
     0
390
1D
100
AcDbVertex
100
AcDb2dVertex
 10
82.675842
 20
223.313385
 30
0.0
  0
VERTEX
  5
1F9
330
1DC
100
AcDbEntity
  8
0
 62
     7
370
     0
390
1D
100
AcDbVertex
100
AcDb2dVertex
 10
82.696289
 20
223.155121
 30
0.0
  0
VERTEX
  5
1FA
330
1DC
100
AcDbEntity
  8
0
 62
     7
370
     0
390
1D
100
AcDbVertex
100
AcDb2dVertex
 10
82.713257
 20
222.996414
 30
0.0
  0
VERTEX
  5
1FB
330
1DC
100
AcDbEntity
  8
0
 62
     7
370
     0
390
1D
100
AcDbVertex
100
AcDb2dVertex
 10
82.726776
 20
222.837357
 30
0.0
  0
VERTEX
  5
1FC
330
1DC
100
AcDbEntity
  8
0
 62
     7
370
     0
390
1D
100
AcDbVertex
100
AcDb2dVertex
 10
82.736816
 20
222.67807
 30
0.0
  0
VERTEX
  5
1FD
330
1DC
100
AcDbEntity
  8
0
 62
     7
370
     0
390
1D
100
AcDbVertex
100
AcDb2dVertex
 10
82.743408
 20
222.518616
 30
0.0
  0
VERTEX
  5
1FE
330
1DC
100
AcDbEntity
  8
0
 62
     7
370
     0
390
1D
100
AcDbVertex
100
AcDb2dVertex
 10
82.74649
 20
222.359116
 30
0.0
  0
SEQEND
  5
1FF
330
1DC
100
AcDbEntity
  8
0
370
     0
390
1D
  0
VIEWPORT
  5
200
330
B
100
AcDbEntity
 67
     1
  8
0
 62
     0
 48
0.0
370
     0
390
1D
100
AcDbViewport
 10
0.0
 20
0.0
 30
0.0
 40
1000.0
 41
1000.0
 68
     1
 69
     1
 12
0.0
 22
0.0
 13
0.0
 23
0.0
 14
1.0
 24
1.0
 15
1.0
 25
1.0
 16
0.0
 26
0.0
 36
1.0
 17
0.0
 27
0.0
 37
0.0
 42
50.0
 43
0.0
 44
0.0
 45
1000.0
 50
0.0
 51
0.0
 72
   100
 90
        0
  1

281
     0
 71
     0
 74
     1
110
0.0
120
0.0
130
0.0
111
1.0
121
0.0
131
0.0
112
0.0
122
1.0
132
0.0
 79
     0
146
0.0
170
     0
 61
     5
292
     1
282
     1
141
0.0
142
0.0
 63
   256
  0
ENDSEC
  0
SECTION
  2
OBJECTS
  0
DICTIONARY
  5
19
330
0
100
AcDbDictionary
281
     1
  3
ACAD_GROUP
350
1A
  3
ACAD_LAYOUT
350
1E
  3
ACAD_MLEADERSTYLE
350
224
  3
ACAD_MLINESTYLE
350
1B
  3
ACAD_PLOTSETTINGS
350
22
  3
ACAD_PLOTSTYLENAME
350
1F
  3
ACAD_SCALELIST
350
201
  3
ACAD_TABLESTYLE
350
223
  3
ACAD_WIPEOUT_VARS
350
23
  3
AcDbVariableDictionary
350
225
  0
DICTIONARY
  5
1A
102
{ACAD_REACTORS
330
19
102
}
330
19
100
AcDbDictionary
281
     1
  0
DICTIONARY
  5
1E
102
{ACAD_REACTORS
330
19
102
}
330
19
100
AcDbDictionary
281
     1
  3
Layout1
350
21
  3
Model
350
20
  0
DICTIONARY
  5
224
102
{ACAD_REACTORS
330
19
102
}
330
19
100
AcDbDictionary
281
     1
  0
DICTIONARY
  5
1B
102
{ACAD_REACTORS
330
19
102
}
330
19
100
AcDbDictionary
281
     1
  3
Standard
350
1C
  0
DICTIONARY
  5
22
102
{ACAD_REACTORS
330
19
102
}
330
19
100
AcDbDictionary
281
     1
  0
ACDBDICTIONARYWDFLT
  5
1F
102
{ACAD_REACTORS
330
19
102
}
330
19
100
AcDbDictionary
281
     1
  3
Normal
350
1D
100
AcDbDictionaryWithDefault
340
1D
  0
DICTIONARY
  5
201
102
{ACAD_REACTORS
330
19
102
}
330
19
100
AcDbDictionary
281
     1
  3
A0
350
202
  3
A1
350
203
  3
A2
350
204
  3
A3
350
205
  3
A4
350
206
  3
A5
350
207
  3
A6
350
208
  3
A7
350
209
  3
A8
350
20A
  3
A9
350
20B
  3
B0
350
20C
  3
B1
350
20D
  3
B2
350
20E
  3
B3
350
20F
  3
B4
350
210
  3
B5
350
211
  3
B6
350
212
  3
B7
350
213
  3
B8
350
214
  3
B9
350
215
  3
C0
350
216
  3
C1
350
217
  3
C2
350
218
  3
C3
350
219
  3
C4
350
21A
  3
C5
350
21B
  3
C6
350
21C
  3
C7
350
21D
  3
C8
350
21E
  3
C9
350
21F
  3
D0
350
220
  3
D1
350
221
  3
D2
350
222
  0
DICTIONARY
  5
223
102
{ACAD_REACTORS
330
19
102
}
330
19
100
AcDbDictionary
281
     1
  0
WIPEOUTVARIABLES
  5
23
330
19
100
AcDbWipeoutVariables
 70
     1
  0
DICTIONARY
  5
225
102
{ACAD_REACTORS
330
19
102
}
330
19
100
AcDbDictionary
281
     1
  3
CANNOSCALE
350
226
  0
LAYOUT
  5
21
102
{ACAD_REACTORS
330
1E
102
}
330
1E
100
AcDbPlotSettings
  1

  2

  4

  6

 40
0.0
 41
0.0
 42
0.0
 43
0.0
 44
0.0
 45
0.0
 46
0.0
 47
0.0
 48
0.0
 49
0.0
140
0.0
141
0.0
142
1.0
143
1.0
 70
     0
 72
     0
 73
     0
 74
     0
  7

 75
     0
 76
     0
 77
     2
 78
   300
147
1.0
148
0.0
149
0.0
100
AcDbLayout
  1
Layout1
 70
     0
 71
     0
 10
0.0
 20
0.0
 11
0.0
 21
0.0
 12
0.0
 22
0.0
 32
0.0
 14
0.0
 24
0.0
 34
0.0
 15
0.0
 25
0.0
 35
0.0
146
0.0
 13
0.0
 23
0.0
 33
0.0
 16
0.0
 26
0.0
 36
0.0
 17
0.0
 27
0.0
 37
0.0
 76
     0
330
B
331
200
  0
LAYOUT
  5
20
102
{ACAD_REACTORS
330
1E
102
}
330
1E
100
AcDbPlotSettings
  1

  2

  4

  6

 40
0.0
 41
0.0
 42
0.0
 43
0.0
 44
0.0
 45
0.0
 46
0.0
 47
0.0
 48
0.0
 49
0.0
140
0.0
141
0.0
142
1.0
143
1.0
 70
  1024
 72
     0
 73
     0
 74
     0
  7

 75
     0
 76
     0
 77
     2
 78
   300
147
1.0
148
0.0
149
0.0
100
AcDbLayout
  1
Model
 70
     0
 71
     0
 10
0.0
 20
0.0
 11
0.0
 21
0.0
 12
0.0
 22
0.0
 32
0.0
 14
0.0
 24
0.0
 34
0.0
 15
0.0
 25
0.0
 35
0.0
146
0.0
 13
0.0
 23
0.0
 33
0.0
 16
0.0
 26
0.0
 36
0.0
 17
0.0
 27
0.0
 37
0.0
 76
     0
330
A
331
15
  0
MLINESTYLE
  5
1C
102
{ACAD_REACTORS
330
1B
102
}
330
1B
100
AcDbMlineStyle
  2
Standard
 70
     0
  3

 62
     0
 51
90.0
 52
90.0
 71
     2
 49
0.5
 62
   256
  6
BYLAYER
 49
-0.5
 62
   256
  6
BYLAYER
  0
ACDBPLACEHOLDER
  5
1D
102
{ACAD_REACTORS
330
1F
102
}
330
1F
  0
SCALE
  5
202
102
{ACAD_REACTORS
330
201
102
}
330
201
100
AcDbScale
 70
     0
300
1:1
140
1.0
141
1.0
290
     1
  0
SCALE
  5
203
102
{ACAD_REACTORS
330
201
102
}
330
201
100
AcDbScale
 70
     0
300
1:2
140
1.0
141
2.0
290
     0
  0
SCALE
  5
204
102
{ACAD_REACTORS
330
201
102
}
330
201
100
AcDbScale
 70
     0
300
1:4
140
1.0
141
4.0
290
     0
  0
SCALE
  5
205
102
{ACAD_REACTORS
330
201
102
}
330
201
100
AcDbScale
 70
     0
300
1:5
140
1.0
141
5.0
290
     0
  0
SCALE
  5
206
102
{ACAD_REACTORS
330
201
102
}
330
201
100
AcDbScale
 70
     0
300
1:8
140
1.0
141
8.0
290
     0
  0
SCALE
  5
207
102
{ACAD_REACTORS
330
201
102
}
330
201
100
AcDbScale
 70
     0
300
1:10
140
1.0
141
10.0
290
     0
  0
SCALE
  5
208
102
{ACAD_REACTORS
330
201
102
}
330
201
100
AcDbScale
 70
     0
300
1:16
140
1.0
141
16.0
290
     0
  0
SCALE
  5
209
102
{ACAD_REACTORS
330
201
102
}
330
201
100
AcDbScale
 70
     0
300
1:20
140
1.0
141
20.0
290
     0
  0
SCALE
  5
20A
102
{ACAD_REACTORS
330
201
102
}
330
201
100
AcDbScale
 70
     0
300
1:30
140
1.0
141
30.0
290
     0
  0
SCALE
  5
20B
102
{ACAD_REACTORS
330
201
102
}
330
201
100
AcDbScale
 70
     0
300
1:40
140
1.0
141
40.0
290
     0
  0
SCALE
  5
20C
102
{ACAD_REACTORS
330
201
102
}
330
201
100
AcDbScale
 70
     0
300
1:50
140
1.0
141
50.0
290
     0
  0
SCALE
  5
20D
102
{ACAD_REACTORS
330
201
102
}
330
201
100
AcDbScale
 70
     0
300
1:100
140
1.0
141
100.0
290
     0
  0
SCALE
  5
20E
102
{ACAD_REACTORS
330
201
102
}
330
201
100
AcDbScale
 70
     0
300
2:1
140
2.0
141
1.0
290
     0
  0
SCALE
  5
20F
102
{ACAD_REACTORS
330
201
102
}
330
201
100
AcDbScale
 70
     0
300
4:1
140
4.0
141
1.0
290
     0
  0
SCALE
  5
210
102
{ACAD_REACTORS
330
201
102
}
330
201
100
AcDbScale
 70
     0
300
8:1
140
8.0
141
1.0
290
     0
  0
SCALE
  5
211
102
{ACAD_REACTORS
330
201
102
}
330
201
100
AcDbScale
 70
     0
300
10:1
140
10.0
141
1.0
290
     0
  0
SCALE
  5
212
102
{ACAD_REACTORS
330
201
102
}
330
201
100
AcDbScale
 70
     0
300
100:1
140
100.0
141
1.0
290
     0
  0
SCALE
  5
213
102
{ACAD_REACTORS
330
201
102
}
330
201
100
AcDbScale
 70
     0
300
1/128" = 1'-0"
140
0.0078125
141
12.0
290
     0
  0
SCALE
  5
214
102
{ACAD_REACTORS
330
201
102
}
330
201
100
AcDbScale
 70
     0
300
1/64" = 1'-0"
140
0.015625
141
12.0
290
     0
  0
SCALE
  5
215
102
{ACAD_REACTORS
330
201
102
}
330
201
100
AcDbScale
 70
     0
300
1/32" = 1'-0"
140
0.03125
141
12.0
290
     0
  0
SCALE
  5
216
102
{ACAD_REACTORS
330
201
102
}
330
201
100
AcDbScale
 70
     0
300
1/16" = 1'-0"
140
0.0625
141
12.0
290
     0
  0
SCALE
  5
217
102
{ACAD_REACTORS
330
201
102
}
330
201
100
AcDbScale
 70
     0
300
3/32" = 1'-0"
140
0.09375
141
12.0
290
     0
  0
SCALE
  5
218
102
{ACAD_REACTORS
330
201
102
}
330
201
100
AcDbScale
 70
     0
300
1/8" = 1'-0"
140
0.125
141
12.0
290
     0
  0
SCALE
  5
219
102
{ACAD_REACTORS
330
201
102
}
330
201
100
AcDbScale
 70
     0
300
3/16" = 1'-0"
140
0.1875
141
12.0
290
     0
  0
SCALE
  5
21A
102
{ACAD_REACTORS
330
201
102
}
330
201
100
AcDbScale
 70
     0
300
1/4" = 1'-0"
140
0.25
141
12.0
290
     0
  0
SCALE
  5
21B
102
{ACAD_REACTORS
330
201
102
}
330
201
100
AcDbScale
 70
     0
300
3/8" = 1'-0"
140
0.375
141
12.0
290
     0
  0
SCALE
  5
21C
102
{ACAD_REACTORS
330
201
102
}
330
201
100
AcDbScale
 70
     0
300
1/2" = 1'-0"
140
0.5
141
12.0
290
     0
  0
SCALE
  5
21D
102
{ACAD_REACTORS
330
201
102
}
330
201
100
AcDbScale
 70
     0
300
3/4" = 1'-0"
140
0.75
141
12.0
290
     0
  0
SCALE
  5
21E
102
{ACAD_REACTORS
330
201
102
}
330
201
100
AcDbScale
 70
     0
300
1" = 1'-0"
140
1.0
141
12.0
290
     0
  0
SCALE
  5
21F
102
{ACAD_REACTORS
330
201
102
}
330
201
100
AcDbScale
 70
     0
300
1-1/2" = 1'-0"
140
1.5
141
12.0
290
     0
  0
SCALE
  5
220
102
{ACAD_REACTORS
330
201
102
}
330
201
100
AcDbScale
 70
     0
300
3" = 1'-0"
140
3.0
141
12.0
290
     0
  0
SCALE
  5
221
102
{ACAD_REACTORS
330
201
102
}
330
201
100
AcDbScale
 70
     0
300
6" = 1'-0"
140
6.0
141
12.0
290
     0
  0
SCALE
  5
222
102
{ACAD_REACTORS
330
201
102
}
330
201
100
AcDbScale
 70
     0
300
1'-0" = 1'-0"
140
12.0
141
12.0
290
     0
  0
DICTIONARYVAR
  5
226
102
{ACAD_REACTORS
330
225
102
}
330
225
100
DictionaryVariables
280
     0
  1
1:1
  0
ENDSEC
  0
EOF
