<?xml version="1.0" encoding="utf-8" ?><!DOCTYPE svg PUBLIC "-//W3C//DTD SVG 1.1//EN" "http://www.w3.org/Graphics/SVG/1.1/DTD/svg11.dtd" 
[ <!ATTLIST svg 
  xmlns:dsy CDATA #FIXED "http://www.3ds.com/print"  
    dsy:text-version CDATA #IMPLIED > 

  <!ATTLIST text 
  xmlns:dsy CDATA #FIXED "http://www.3ds.com/print" 
    dsy:text-version CDATA #IMPLIED > 
]><svg xmlns="http://www.w3.org/2000/svg" xmlns:dsy="http://www.3ds.com/print" dsy:text-version="18000" width="297" height="210" viewBox="0 0 297 210" version="1.1"><g stroke="rgb(0, 0, 0)" stroke-width="0.13" stroke-linecap="butt" stroke-linejoin="miter" fill="none"><path d="M 185.5 122.5 L 222.227 122.5"/><path d="M 185.5 87.5 L 222.227 87.5"/></g><g stroke="rgb(0, 0, 0)" stroke-width="0.35" stroke-linecap="butt" stroke-linejoin="miter" fill="none"><path d="M 183.5 87.5 L 183.5 122.5"/><path d="M 113.5 122.5 L 113.5 87.5"/><path d="M 183.5 87.5 L 113.5 87.5"/><path d="M 138.284 122.5 L 165.5 122.5"/><path d="M 175.5 122.5 L 183.5 122.5"/><path d="M 113.5 122.5 L 118.716 122.5"/><path d="M 138.284 122.5 A 10 10 0 0 0 118.716 122.5"/><path d="M 165.5 122.5 L 165.5 107.5"/><path d="M 165.5 107.5 L 175.5 107.5"/><path d="M 175.5 107.5 L 175.5 122.5"/><circle cx="150.608" cy="96.408" r="3.19998"/></g><g stroke="rgb(0, 0, 0)" stroke-width="0.13" stroke-linecap="butt" stroke-linejoin="miter" fill="none"><path d="M 217.127 108.139 L 217.163 108.139 L 217.647 108.058 L 218.01 107.821 L 218.242 107.448 L 218.328 106.954 L 218.242 106.429 L 218.02 106.036 L 217.667 105.784 L 217.213 105.693 L 216.916 105.733 L 216.674 105.844 L 216.487 106.026 L 216.351 106.268 L 216.078 105.94 L 215.645 105.824 L 215.251 105.9 L 214.954 106.117 L 214.767 106.47 L 214.702 106.954 L 214.782 107.408 L 215.004 107.756 L 215.357 107.983 L 215.826 108.058 L 215.862 108.058 L 215.862 107.609 L 215.539 107.569 L 215.307 107.438 L 215.166 107.226 L 215.115 106.929 L 215.156 106.666 L 215.261 106.475 L 215.433 106.359 L 215.665 106.313 L 215.912 106.359 L 216.078 106.48 L 216.179 106.691 L 216.21 106.979 L 216.205 107.176 L 216.603 107.176 L 216.593 106.929 L 216.638 106.611 L 216.759 106.374 L 216.956 106.233 L 217.213 106.182 L 217.506 106.238 L 217.723 106.384 L 217.859 106.616 L 217.904 106.923 L 217.854 107.241 L 217.702 107.473 L 217.46 107.619 L 217.127 107.675 L 217.127 108.139 L 217.127 108.139 z M 217.314 104.383 L 217.728 104.272 L 218.05 104.025 L 218.252 103.662 L 218.328 103.198 L 218.237 102.688 L 217.99 102.29 L 217.596 102.038 L 217.092 101.942 L 216.623 102.028 L 216.255 102.27 L 216.018 102.648 L 215.932 103.137 L 215.993 103.515 L 216.159 103.808 L 215.216 103.667 L 215.216 102.133 L 214.803 102.133 L 214.803 104.004 L 216.658 104.282 L 216.658 103.878 L 216.421 103.586 L 216.336 103.213 L 216.391 102.89 L 216.553 102.643 L 216.8 102.486 L 217.117 102.431 L 217.435 102.486 L 217.682 102.648 L 217.839 102.895 L 217.894 103.213 L 217.859 103.48 L 217.743 103.687 L 217.561 103.838 L 217.314 103.914 L 217.314 104.383 L 217.314 104.383 z" stroke="none" fill-rule="evenodd" fill="rgb(0, 0, 0)"/><path d="M 219.709 120.568 L 220.227 122.5 L 220.744 120.568"/><path d="M 220.744 89.4319 L 220.227 87.5 L 219.709 89.4319"/><path d="M 220.227 122.5 L 220.227 87.5"/></g></svg>