<?xml version="1.0" encoding="utf-8" ?><!DOCTYPE svg PUBLIC "-//W3C//DTD SVG 1.1//EN" "http://www.w3.org/Graphics/SVG/1.1/DTD/svg11.dtd" 
[ <!ATTLIST svg 
  xmlns:dsy CDATA #FIXED "http://www.3ds.com/print"  
    dsy:text-version CDATA #IMPLIED > 

  <!ATTLIST text 
  xmlns:dsy CDATA #FIXED "http://www.3ds.com/print" 
    dsy:text-version CDATA #IMPLIED > 
]><svg xmlns="http://www.w3.org/2000/svg" xmlns:dsy="http://www.3ds.com/print" dsy:text-version="18000" width="297" height="210" viewBox="0 0 297 210" version="1.1"><g stroke="rgb(0, 0, 0)" stroke-width="0.35" stroke-linecap="butt" stroke-linejoin="miter" fill="none"><path d="M 5.2545 86.974 L 5.2545 56.974"/><path d="M 5.2545 56.974 L 291.745 56.974"/><path d="M 291.745 56.974 L 291.745 86.974"/><path d="M 291.745 86.974 L 281.53 86.974"/><path d="M 15.0203 86.974 L 5.2545 86.974"/><path d="M 34.5888 86.974 A 10 10 0 0 0 15.0203 86.974"/><path d="M 281.53 86.974 A 10 10 0 0 0 261.961 86.974"/><circle cx="35.4079" cy="71.5462" r="3.20001"/><circle cx="272.986" cy="62.3823" r="3.20001"/><circle cx="266.691" cy="68.517" r="3.20001"/><path d="M 183.109 83.8866 A 8.34651 7.4991 -0.0207842 0 0 181.299 86.974"/><path d="M 202.365 86.974 A 11.3027 11.3027 0 0 0 181.299 86.9741"/><path d="M 212.095 86.974 L 202.365 86.974"/><path d="M 181.299 86.974 L 166.191 86.974"/><path d="M 166.191 86.974 A 8.34703 7.49939 -359.986 0 0 164.381 83.8866"/><path d="M 166.191 86.974 A 11.3027 11.3027 0 0 0 145.125 86.974"/><path d="M 145.125 86.974 L 135.395 86.974"/><path d="M 233.161 86.974 A 8.34703 7.49939 -359.986 0 0 231.351 83.8866"/><path d="M 233.161 86.974 A 11.3027 11.3027 0 0 0 212.095 86.974"/><path d="M 261.961 86.974 L 233.161 86.974"/><path d="M 116.139 83.8866 A 8.34651 7.4991 -0.0207819 0 0 114.329 86.974"/><path d="M 135.395 86.974 A 11.3027 11.3027 0 0 0 114.329 86.9741"/><path d="M 114.329 86.974 L 34.5888 86.974"/><path d="M 242.945 83.974 L 242.945 76.174"/><path d="M 242.945 83.974 L 250.746 83.974"/><path d="M 250.746 76.174 L 250.746 83.974"/><path d="M 250.746 76.174 L 242.945 76.174"/><path d="M 169.146 83.974 L 169.146 76.174"/><path d="M 169.146 83.974 L 176.945 83.974"/><path d="M 176.945 76.174 L 176.945 83.974"/><path d="M 176.945 76.174 L 169.146 76.174"/><path d="M 83.3455 83.974 L 83.3455 76.174"/><path d="M 83.3455 83.974 L 91.1455 83.974"/><path d="M 91.1455 76.174 L 91.1455 83.974"/><path d="M 91.1455 76.174 L 83.3455 76.174"/></g><g stroke="rgb(0, 0, 0)" stroke-width="0.13" stroke-linecap="butt" stroke-linejoin="miter" fill="none"><path d="M 6.46459 115.596 L 6.49989 115.596 L 6.98404 115.516 L 7.34715 115.279 L 7.57914 114.905 L 7.66488 114.411 L 7.57914 113.887 L 7.35724 113.493 L 7.00421 113.241 L 6.55032 113.15 L 6.25277 113.191 L 6.0107 113.302 L 5.8241 113.483 L 5.68793 113.725 L 5.4156 113.398 L 4.98188 113.282 L 4.58851 113.357 L 4.29096 113.574 L 4.10436 113.927 L 4.0388 114.411 L 4.11949 114.865 L 4.34139 115.213 L 4.69442 115.44 L 5.16344 115.516 L 5.19874 115.516 L 5.19874 115.067 L 4.87597 115.026 L 4.64398 114.895 L 4.50277 114.684 L 4.45234 114.386 L 4.49269 114.124 L 4.59859 113.932 L 4.77006 113.816 L 5.00205 113.771 L 5.24917 113.816 L 5.4156 113.937 L 5.51646 114.149 L 5.54672 114.436 L 5.54168 114.633 L 5.94009 114.633 L 5.93001 114.386 L 5.9754 114.068 L 6.09643 113.831 L 6.29312 113.69 L 6.55032 113.64 L 6.84283 113.695 L 7.05969 113.841 L 7.19586 114.073 L 7.24125 114.381 L 7.19081 114.699 L 7.03952 114.931 L 6.79744 115.077 L 6.46459 115.132 L 6.46459 115.596 L 6.46459 115.596 z M 5.85436 111.805 L 6.64614 111.729 L 7.21099 111.492 L 7.55393 111.114 L 7.66488 110.589 L 7.55393 110.07 L 7.21099 109.692 L 6.64614 109.46 L 5.85436 109.379 L 5.06762 109.46 L 4.75493 109.556 L 4.49773 109.692 L 4.15479 110.07 L 4.0388 110.589 L 4.15479 111.114 L 4.50277 111.492 L 5.06762 111.729 L 5.85436 111.805 L 5.85436 111.805 z M 5.85436 111.321 L 5.24413 111.28 L 4.80537 111.154 L 4.54816 110.927 L 4.45738 110.589 L 4.54816 110.257 L 4.80537 110.03 L 5.24413 109.904 L 5.85436 109.863 L 6.46963 109.904 L 6.90839 110.03 L 7.1656 110.257 L 7.25133 110.589 L 7.1656 110.927 L 6.90839 111.154 L 6.46963 111.28 L 5.85436 111.321 L 5.85436 111.321 z" stroke="none" fill-rule="evenodd" fill="rgb(0, 0, 0)"/><path d="M 9.04637 85.0422 L 9.56401 86.974 L 10.0817 85.0422"/><path d="M 10.0817 58.9059 L 9.56401 56.974 L 9.04637 58.9059"/><path d="M 9.56401 115.843 L 9.56401 56.974"/></g></svg>