<?xml version="1.0" encoding="utf-8" ?><!DOCTYPE svg PUBLIC "-//W3C//DTD SVG 1.1//EN" "http://www.w3.org/Graphics/SVG/1.1/DTD/svg11.dtd" 
[ <!ATTLIST svg 
  xmlns:dsy CDATA #FIXED "http://www.3ds.com/print"  
    dsy:text-version CDATA #IMPLIED > 

  <!ATTLIST text 
  xmlns:dsy CDATA #FIXED "http://www.3ds.com/print" 
    dsy:text-version CDATA #IMPLIED > 
]><svg xmlns="http://www.w3.org/2000/svg" xmlns:dsy="http://www.3ds.com/print" dsy:text-version="18000" width="297" height="210" viewBox="0 0 297 210" version="1.1"><g stroke="rgb(0, 0, 0)" stroke-width="0.13" stroke-linecap="butt" stroke-linejoin="miter" fill="none"><path d="M 5.78531 48.1391 L 5.78531 109.129"/><path d="M 292.276 48.1391 L 292.276 109.129"/></g><g stroke="rgb(0, 0, 0)" stroke-width="0.35" stroke-linecap="butt" stroke-linejoin="miter" fill="none"><path d="M 133.759 46.1391 L 133.759 66.1391"/><path d="M 113.759 46.1391 L 113.759 66.1391"/><path d="M 133.759 66.1391 L 113.759 66.1391"/><path d="M 232.492 46.1391 L 232.492 66.1391"/><path d="M 192.492 46.1391 L 192.492 66.1391"/><path d="M 232.492 66.1391 L 192.492 66.1391"/><path d="M 40.1196 46.1391 L 40.1196 66.1391"/><path d="M 60.1196 66.1391 L 40.1196 66.1391"/><path d="M 60.1196 46.1391 L 60.1196 66.1391"/><path d="M 5.78531 46.1391 L 5.78531 16.1391"/><path d="M 15.5511 46.1391 L 5.78531 46.1391"/><path d="M 5.78531 16.1391 L 292.276 16.1391"/><path d="M 35.1196 46.1391 A 10 10 0 0 0 15.5511 46.1391"/><path d="M 40.1196 46.1391 L 35.1196 46.1391"/><path d="M 292.276 16.1391 L 292.276 46.1391"/><path d="M 292.276 46.1391 L 282.061 46.1391"/><path d="M 282.061 46.1391 A 10 10 0 0 0 262.492 46.1391"/><path d="M 262.492 46.1391 L 232.492 46.1391"/><path d="M 127.935 53.4711 L 120.135 53.4711"/><path d="M 127.935 53.4711 L 127.935 61.2711"/><path d="M 120.135 61.2711 L 120.135 53.4711"/><path d="M 120.135 61.2711 L 127.935 61.2711"/><path d="M 54.1353 53.4711 L 46.3353 53.4711"/><path d="M 54.1353 53.4711 L 54.1353 61.2711"/><path d="M 46.3353 61.2711 L 46.3353 53.4711"/><path d="M 46.3353 61.2711 L 54.1353 61.2711"/><path d="M 213.735 53.4711 L 205.935 53.4711"/><path d="M 213.735 53.4711 L 213.735 61.2711"/><path d="M 205.935 61.2711 L 205.935 53.4711"/><path d="M 205.935 61.2711 L 213.735 61.2711"/><path d="M 137.712 43.349 A 8.34486 7.49805 -0.0490372 0 0 135.913 46.139"/><path d="M 154.754 46.1391 A 10.2742 10.2742 0 0 0 135.913 46.1391"/><path d="M 108.96 43.349 L 109.075 43.4645"/><path d="M 108.96 43.349 L 109.063 43.4645"/><path d="M 110.759 46.1391 A 8.33363 7.49074 -359.764 0 0 109.075 43.4645"/><path d="M 110.759 46.1391 A 10.2742 10.2742 0 0 0 109.063 43.4645"/><path d="M 113.759 46.1391 L 110.759 46.1391"/><path d="M 135.913 46.1391 L 133.759 46.1391"/><path d="M 108.96 43.349 A 10.2742 10.2742 0 0 0 91.9178 46.1391"/><path d="M 70.742 43.349 A 8.34148 7.49557 -0.11341 0 0 68.9428 46.1391"/><path d="M 87.7841 46.1391 A 10.2742 10.2742 0 0 0 68.9428 46.1391"/><path d="M 68.9428 46.1391 L 60.1196 46.1391"/><path d="M 91.9178 46.1391 L 87.784 46.1391"/><path d="M 175.93 43.349 A 10.2742 10.2742 0 0 0 158.888 46.1391"/><path d="M 176.045 43.4645 L 175.93 43.349"/><path d="M 177.729 46.1391 A 8.34416 7.49736 -359.932 0 0 176.045 43.4645"/><path d="M 192.492 46.1391 L 177.729 46.1391"/><path d="M 158.888 46.1391 L 154.754 46.1391"/><path d="M 177.729 46.1391 A 10.2742 10.2742 0 0 0 176.033 43.4645"/><path d="M 175.93 43.349 L 176.033 43.4645"/></g><g stroke="rgb(0, 0, 0)" stroke-width="0.13" stroke-linecap="butt" stroke-linejoin="miter" fill="none"><path d="M 138.46 105.129 L 140.866 105.129 L 140.866 104.695 L 138.965 104.695 L 139.07 104.458 L 139.252 104.261 L 139.812 103.903 L 140.109 103.752 L 140.442 103.535 L 140.679 103.283 L 140.815 102.985 L 140.866 102.647 L 140.78 102.224 L 140.543 101.891 L 140.18 101.679 L 139.711 101.604 L 139.227 101.689 L 138.859 101.926 L 138.622 102.305 L 138.541 102.804 L 138.541 102.874 L 139 102.874 L 139 102.834 L 139.045 102.491 L 139.181 102.239 L 139.398 102.078 L 139.686 102.022 L 139.978 102.073 L 140.195 102.199 L 140.336 102.395 L 140.387 102.642 L 140.351 102.874 L 140.256 103.071 L 140.094 103.243 L 139.872 103.394 L 139.575 103.555 L 139.081 103.868 L 138.733 104.201 L 138.526 104.604 L 138.46 105.114 L 138.46 105.129 L 138.46 105.129 z M 142.801 103.243 L 142.544 103.384 L 142.368 103.58 L 142.257 103.828 L 142.221 104.125 L 142.302 104.574 L 142.534 104.922 L 142.912 105.144 L 143.427 105.23 L 143.936 105.144 L 144.314 104.922 L 144.546 104.574 L 144.632 104.125 L 144.592 103.828 L 144.486 103.58 L 144.304 103.384 L 144.052 103.243 L 144.254 103.122 L 144.395 102.955 L 144.481 102.753 L 144.511 102.506 L 144.43 102.148 L 144.219 101.861 L 143.876 101.674 L 143.427 101.604 L 142.973 101.674 L 142.63 101.861 L 142.413 102.148 L 142.337 102.506 L 142.363 102.753 L 142.448 102.955 L 142.801 103.243 L 142.801 103.243 z M 142.706 104.115 L 142.751 103.848 L 142.897 103.646 L 143.124 103.515 L 143.427 103.469 L 143.724 103.515 L 143.951 103.646 L 144.098 103.848 L 144.148 104.115 L 144.098 104.402 L 143.951 104.619 L 143.724 104.761 L 143.427 104.806 L 143.124 104.761 L 142.897 104.619 L 142.751 104.402 L 142.706 104.115 L 142.706 104.115 z M 142.817 102.547 L 142.857 102.325 L 142.978 102.153 L 143.17 102.047 L 143.427 102.007 L 143.679 102.047 L 143.871 102.153 L 143.992 102.325 L 144.037 102.547 L 143.992 102.774 L 143.871 102.95 L 143.679 103.066 L 143.427 103.101 L 143.17 103.061 L 142.978 102.95 L 142.857 102.774 L 142.817 102.547 L 142.817 102.547 z M 148.373 102.572 L 148.277 102.163 L 148.055 101.861 L 147.712 101.669 L 147.269 101.604 L 146.971 101.639 L 146.714 101.735 L 146.487 101.891 L 146.295 102.113 L 146.144 102.39 L 146.033 102.728 L 145.962 103.127 L 145.942 103.575 L 146.023 104.292 L 146.27 104.811 L 146.669 105.124 L 147.213 105.23 L 147.702 105.139 L 148.076 104.902 L 148.318 104.529 L 148.403 104.055 L 148.318 103.575 L 148.086 103.207 L 147.728 102.975 L 147.284 102.895 L 146.805 102.995 L 146.447 103.283 L 146.522 102.728 L 146.684 102.33 L 146.931 102.093 L 147.274 102.012 L 147.526 102.052 L 147.718 102.158 L 147.844 102.335 L 147.909 102.572 L 148.373 102.572 L 148.373 102.572 z M 147.914 104.06 L 147.859 104.377 L 147.718 104.619 L 147.491 104.781 L 147.208 104.831 L 146.911 104.781 L 146.684 104.624 L 146.537 104.382 L 146.492 104.065 L 146.542 103.752 L 146.684 103.515 L 146.916 103.364 L 147.228 103.308 L 147.501 103.364 L 147.718 103.51 L 147.859 103.747 L 147.914 104.06 L 147.914 104.06 z M 150.551 105.129 L 151.247 105.129 L 151.247 104.377 L 150.551 104.377 L 150.551 105.129 L 150.551 105.129 z M 154.912 105.129 L 155.366 105.129 L 155.366 104.261 L 155.865 104.261 L 155.865 103.858 L 155.366 103.858 L 155.366 101.704 L 154.907 101.704 L 153.374 103.817 L 153.374 104.261 L 154.912 104.261 L 154.912 105.129 L 154.912 105.129 z M 153.798 103.858 L 154.912 102.289 L 154.912 103.858 L 153.798 103.858 L 153.798 103.858 z M 157.16 104.261 L 157.236 104.66 L 157.453 104.967 L 157.796 105.159 L 158.25 105.23 L 158.547 105.194 L 158.815 105.103 L 159.042 104.947 L 159.233 104.725 L 159.384 104.448 L 159.495 104.105 L 159.561 103.712 L 159.586 103.258 L 159.5 102.547 L 159.253 102.027 L 158.86 101.714 L 158.32 101.604 L 157.826 101.694 L 157.453 101.936 L 157.211 102.31 L 157.13 102.779 L 157.211 103.263 L 157.448 103.631 L 157.801 103.863 L 158.25 103.939 L 158.724 103.843 L 159.082 103.55 L 159.001 104.11 L 158.84 104.508 L 158.593 104.745 L 158.255 104.821 L 157.993 104.786 L 157.801 104.675 L 157.675 104.498 L 157.624 104.261 L 157.16 104.261 L 157.16 104.261 z M 157.619 102.774 L 157.67 102.461 L 157.811 102.214 L 158.033 102.057 L 158.32 102.002 L 158.618 102.057 L 158.845 102.214 L 158.986 102.456 L 159.042 102.768 L 158.986 103.086 L 158.845 103.323 L 158.613 103.469 L 158.305 103.52 L 158.028 103.469 L 157.811 103.323 L 157.67 103.091 L 157.619 102.774 L 157.619 102.774 z" stroke="none" fill-rule="evenodd" fill="rgb(0, 0, 0)"/><path d="M 7.71716 106.611 L 5.78531 107.129 L 7.71716 107.646"/><path d="M 290.344 107.646 L 292.276 107.129 L 290.344 106.611"/><path d="M 5.78531 107.129 L 292.276 107.129"/></g></svg>