<?xml version="1.0" encoding="utf-8" ?><!DOCTYPE svg PUBLIC "-//W3C//DTD SVG 1.1//EN" "http://www.w3.org/Graphics/SVG/1.1/DTD/svg11.dtd" 
[ <!ATTLIST svg 
  xmlns:dsy CDATA #FIXED "http://www.3ds.com/print"  
    dsy:text-version CDATA #IMPLIED > 

  <!ATTLIST text 
  xmlns:dsy CDATA #FIXED "http://www.3ds.com/print" 
    dsy:text-version CDATA #IMPLIED > 
]><svg xmlns="http://www.w3.org/2000/svg" xmlns:dsy="http://www.3ds.com/print" dsy:text-version="18000" width="297" height="210" viewBox="0 0 297 210" version="1.1"><g stroke="rgb(0, 0, 0)" stroke-width="0.13" stroke-linecap="butt" stroke-linejoin="miter" fill="none"><path d="M 136.284 120 L 94.6445 120"/><path d="M 111.5 90 L 94.6445 90"/></g><g stroke="rgb(0, 0, 0)" stroke-width="0.35" stroke-linecap="butt" stroke-linejoin="miter" fill="none"><path d="M 183.5 90 L 183.5 120"/><path d="M 113.5 120 L 113.5 90"/><path d="M 183.5 90 L 113.5 90"/><path d="M 138.284 120 L 169.5 120"/><path d="M 175.5 120 L 183.5 120"/><path d="M 113.5 120 L 118.716 120"/><path d="M 138.284 120 A 10 10 0 0 0 118.716 120"/><path d="M 169.5 120 L 169.5 105"/><path d="M 169.5 105 L 175.5 105"/><path d="M 175.5 105 L 175.5 120"/><circle cx="150.608" cy="93.908" r="3.19998"/></g><g stroke="rgb(0, 0, 0)" stroke-width="0.13" stroke-linecap="butt" stroke-linejoin="miter" fill="none"><path d="M 93.5451 108.139 L 93.5804 108.139 L 94.0645 108.058 L 94.4276 107.821 L 94.6596 107.448 L 94.7454 106.954 L 94.6596 106.429 L 94.4377 106.036 L 94.0847 105.784 L 93.6308 105.693 L 93.3333 105.733 L 93.0912 105.844 L 92.9046 106.026 L 92.7684 106.268 L 92.4961 105.94 L 92.0624 105.824 L 91.669 105.9 L 91.3714 106.117 L 91.1848 106.47 L 91.1193 106.954 L 91.2 107.408 L 91.4219 107.756 L 91.7749 107.983 L 92.2439 108.058 L 92.2792 108.058 L 92.2792 107.609 L 91.9565 107.569 L 91.7245 107.438 L 91.5833 107.226 L 91.5328 106.929 L 91.5732 106.666 L 91.6791 106.475 L 91.8505 106.359 L 92.0825 106.313 L 92.3297 106.359 L 92.4961 106.48 L 92.5969 106.691 L 92.6272 106.979 L 92.6222 107.176 L 93.0206 107.176 L 93.0105 106.929 L 93.0559 106.611 L 93.1769 106.374 L 93.3736 106.233 L 93.6308 106.182 L 93.9233 106.238 L 94.1402 106.384 L 94.2763 106.616 L 94.3217 106.923 L 94.2713 107.241 L 94.12 107.473 L 93.8779 107.619 L 93.5451 107.675 L 93.5451 108.139 L 93.5451 108.139 z M 92.9348 104.347 L 93.7266 104.272 L 94.2915 104.035 L 94.6344 103.656 L 94.7454 103.132 L 94.6344 102.613 L 94.2915 102.234 L 93.7266 102.002 L 92.9348 101.922 L 92.1481 102.002 L 91.8354 102.098 L 91.5782 102.234 L 91.2353 102.613 L 91.1193 103.132 L 91.2353 103.656 L 91.5833 104.035 L 92.1481 104.272 L 92.9348 104.347 L 92.9348 104.347 z M 92.9348 103.863 L 92.3246 103.823 L 91.8858 103.697 L 91.6286 103.47 L 91.5379 103.132 L 91.6286 102.799 L 91.8858 102.572 L 92.3246 102.446 L 92.9348 102.406 L 93.5501 102.446 L 93.9889 102.572 L 94.2461 102.799 L 94.3318 103.132 L 94.2461 103.47 L 93.9889 103.697 L 93.5501 103.823 L 92.9348 103.863 L 92.9348 103.863 z" stroke="none" fill-rule="evenodd" fill="rgb(0, 0, 0)"/><path d="M 96.1269 118.068 L 96.6445 120 L 97.1621 118.068"/><path d="M 97.1621 91.9319 L 96.6445 90 L 96.1269 91.9319"/><path d="M 96.6445 120 L 96.6445 90"/></g></svg>