<?xml version="1.0" encoding="utf-8" ?><!DOCTYPE svg PUBLIC "-//W3C//DTD SVG 1.1//EN" "http://www.w3.org/Graphics/SVG/1.1/DTD/svg11.dtd" 
[ <!ATTLIST svg 
  xmlns:dsy CDATA #FIXED "http://www.3ds.com/print"  
    dsy:text-version CDATA #IMPLIED > 

  <!ATTLIST text 
  xmlns:dsy CDATA #FIXED "http://www.3ds.com/print" 
    dsy:text-version CDATA #IMPLIED > 
]><svg xmlns="http://www.w3.org/2000/svg" xmlns:dsy="http://www.3ds.com/print" dsy:text-version="18000" width="594" height="420" viewBox="0 0 594 420" version="1.1"><g stroke="rgb(0, 0, 0)" stroke-width="0.13" stroke-linecap="butt" stroke-linejoin="miter" fill="none"><path d="M 138.681 98.2497 L 74.9201 98.2497"/><path d="M 108.897 68.2497 L 74.9201 68.2497"/></g><g stroke="rgb(0, 0, 0)" stroke-width="0.35" stroke-linecap="butt" stroke-linejoin="miter" fill="none"><path d="M 110.897 98.2497 L 110.897 68.2497"/><path d="M 530.137 68.2497 L 530.137 98.2497"/><path d="M 500.353 98.2497 L 140.681 98.2497"/><path d="M 530.137 98.2497 L 519.921 98.2497"/><path d="M 121.113 98.2497 L 110.897 98.2497"/><path d="M 140.681 98.2497 A 10 10 0 0 0 121.113 98.2497"/><path d="M 519.921 98.2497 A 10 10 0 0 0 500.353 98.2497"/><path d="M 287.697 68.2497 L 414.752 68.2497"/><path d="M 414.752 83.2497 L 414.752 68.2497"/><path d="M 414.752 83.2497 L 424.752 83.2497"/><path d="M 424.752 68.2497 L 424.752 83.2497"/><path d="M 424.752 68.2497 L 530.137 68.2497"/><path d="M 110.897 68.2497 L 277.697 68.2497"/><path d="M 277.697 83.2497 L 277.697 68.2497"/><path d="M 277.697 83.2497 L 287.697 83.2497"/><path d="M 287.697 68.2497 L 287.697 83.2497"/></g><g stroke="rgb(0, 0, 0)" stroke-width="0.13" stroke-linecap="butt" stroke-linejoin="miter" fill="none"><path d="M 73.8207 86.3886 L 73.856 86.3886 L 74.3401 86.3079 L 74.7033 86.0709 L 74.9352 85.6977 L 75.021 85.2034 L 74.9352 84.6789 L 74.7133 84.2856 L 74.3603 84.0334 L 73.9064 83.9426 L 73.6089 83.983 L 73.3668 84.0939 L 73.1802 84.2755 L 73.044 84.5175 L 72.7717 84.1897 L 72.338 84.0738 L 71.9446 84.1494 L 71.647 84.3662 L 71.4604 84.7193 L 71.3949 85.2034 L 71.4756 85.6573 L 71.6975 86.0053 L 72.0505 86.2322 L 72.5195 86.3079 L 72.5548 86.3079 L 72.5548 85.859 L 72.2321 85.8187 L 72.0001 85.6876 L 71.8589 85.4758 L 71.8084 85.1782 L 71.8488 84.916 L 71.9547 84.7243 L 72.1262 84.6083 L 72.3581 84.5629 L 72.6053 84.6083 L 72.7717 84.7294 L 72.8726 84.9412 L 72.9028 85.2286 L 72.8978 85.4253 L 73.2962 85.4253 L 73.2861 85.1782 L 73.3315 84.8605 L 73.4525 84.6235 L 73.6492 84.4822 L 73.9064 84.4318 L 74.1989 84.4873 L 74.4158 84.6335 L 74.552 84.8655 L 74.5973 85.1732 L 74.5469 85.4909 L 74.3956 85.7229 L 74.1535 85.8691 L 73.8207 85.9246 L 73.8207 86.3886 L 73.8207 86.3886 z M 73.2105 82.5971 L 74.0022 82.5215 L 74.5671 82.2844 L 74.91 81.9062 L 75.021 81.3817 L 74.91 80.8622 L 74.5671 80.484 L 74.0022 80.252 L 73.2105 80.1713 L 72.4237 80.252 L 72.111 80.3478 L 71.8538 80.484 L 71.5109 80.8622 L 71.3949 81.3817 L 71.5109 81.9062 L 71.8589 82.2844 L 72.4237 82.5215 L 73.2105 82.5971 L 73.2105 82.5971 z M 73.2105 82.1129 L 72.6002 82.0726 L 72.1615 81.9465 L 71.9043 81.7196 L 71.8135 81.3817 L 71.9043 81.0488 L 72.1615 80.8219 L 72.6002 80.6958 L 73.2105 80.6555 L 73.8257 80.6958 L 74.2645 80.8219 L 74.5217 81.0488 L 74.6074 81.3817 L 74.5217 81.7196 L 74.2645 81.9465 L 73.8257 82.0726 L 73.2105 82.1129 L 73.2105 82.1129 z" stroke="none" fill-rule="evenodd" fill="rgb(0, 0, 0)"/><path d="M 76.4025 96.3178 L 76.9201 98.2497 L 77.4378 96.3178"/><path d="M 77.4378 70.1815 L 76.9201 68.2497 L 76.4025 70.1815"/><path d="M 76.9201 98.2497 L 76.9201 68.2497"/></g></svg>