G04 EAGLE Gerber RS-274X export*
G75*
%MOMM*%
%FSLAX34Y34*%
%LPD*%
%INBottom Copper*%
%IPPOS*%
%AMOC8*
5,1,8,0,0,1.08239X$1,22.5*%
G01*
%ADD10P,1.732040X8X22.500000*%
%ADD11R,1.258000X1.258000*%
%ADD12C,1.258000*%
%ADD13C,6.462000*%
%ADD14C,2.400000*%
%ADD15C,2.100000*%
%ADD16C,1.950000*%
%ADD17C,1.800000*%
%ADD18C,1.508000*%
%ADD19C,3.400000*%
%ADD20P,1.649562X8X22.500000*%
%ADD21C,0.756400*%
%ADD22C,0.200000*%
%ADD23C,1.006400*%
%ADD24C,0.152400*%
%ADD25C,0.508000*%
%ADD26C,0.806400*%

G36*
X1054100Y49986D02*
X1054100Y49986D01*
X1054165Y49997D01*
X1054231Y49999D01*
X1054274Y50017D01*
X1054321Y50025D01*
X1054378Y50059D01*
X1054438Y50083D01*
X1054473Y50115D01*
X1054514Y50139D01*
X1054556Y50190D01*
X1054604Y50235D01*
X1054626Y50277D01*
X1054655Y50314D01*
X1054676Y50376D01*
X1054707Y50434D01*
X1054715Y50489D01*
X1054727Y50526D01*
X1054726Y50566D01*
X1054734Y50620D01*
X1054734Y54766D01*
X1054726Y54810D01*
X1054713Y54930D01*
X1053339Y60056D01*
X1053339Y66944D01*
X1054713Y72070D01*
X1054716Y72114D01*
X1054734Y72234D01*
X1054734Y88266D01*
X1070766Y88266D01*
X1070810Y88274D01*
X1070930Y88287D01*
X1076056Y89661D01*
X1082944Y89661D01*
X1088070Y88287D01*
X1088114Y88284D01*
X1088234Y88266D01*
X1094107Y88266D01*
X1094172Y88277D01*
X1094238Y88279D01*
X1094281Y88297D01*
X1094328Y88305D01*
X1094385Y88339D01*
X1094445Y88364D01*
X1094480Y88395D01*
X1094521Y88420D01*
X1094563Y88471D01*
X1094611Y88515D01*
X1094633Y88557D01*
X1094662Y88594D01*
X1094683Y88656D01*
X1094714Y88715D01*
X1094722Y88769D01*
X1094734Y88806D01*
X1094733Y88846D01*
X1094741Y88900D01*
X1094741Y136564D01*
X1094725Y136652D01*
X1094716Y136741D01*
X1094706Y136762D01*
X1094702Y136785D01*
X1094656Y136862D01*
X1094617Y136942D01*
X1094600Y136958D01*
X1094587Y136978D01*
X1094518Y137034D01*
X1094454Y137096D01*
X1094432Y137105D01*
X1094413Y137120D01*
X1094329Y137148D01*
X1094247Y137183D01*
X1094223Y137184D01*
X1094201Y137192D01*
X1094112Y137189D01*
X1094023Y137193D01*
X1094000Y137186D01*
X1093976Y137185D01*
X1093894Y137152D01*
X1093809Y137124D01*
X1093788Y137109D01*
X1093769Y137101D01*
X1093731Y137067D01*
X1093659Y137013D01*
X1088565Y131919D01*
X1080595Y131919D01*
X1074959Y137555D01*
X1074959Y145525D01*
X1080595Y151161D01*
X1088565Y151161D01*
X1093659Y146067D01*
X1093732Y146016D01*
X1093801Y145960D01*
X1093823Y145953D01*
X1093843Y145939D01*
X1093929Y145917D01*
X1094013Y145888D01*
X1094037Y145889D01*
X1094060Y145883D01*
X1094149Y145892D01*
X1094238Y145895D01*
X1094260Y145904D01*
X1094283Y145906D01*
X1094363Y145946D01*
X1094445Y145979D01*
X1094463Y145995D01*
X1094484Y146006D01*
X1094545Y146071D01*
X1094611Y146131D01*
X1094622Y146152D01*
X1094638Y146169D01*
X1094673Y146251D01*
X1094714Y146330D01*
X1094717Y146356D01*
X1094726Y146376D01*
X1094728Y146426D01*
X1094741Y146516D01*
X1094741Y200294D01*
X1094725Y200382D01*
X1094716Y200471D01*
X1094706Y200492D01*
X1094702Y200515D01*
X1094656Y200592D01*
X1094617Y200672D01*
X1094600Y200688D01*
X1094587Y200708D01*
X1094518Y200764D01*
X1094454Y200826D01*
X1094432Y200835D01*
X1094413Y200850D01*
X1094329Y200878D01*
X1094247Y200913D01*
X1094223Y200914D01*
X1094201Y200922D01*
X1094112Y200919D01*
X1094023Y200923D01*
X1094000Y200916D01*
X1093976Y200915D01*
X1093894Y200882D01*
X1093809Y200854D01*
X1093788Y200839D01*
X1093769Y200831D01*
X1093731Y200797D01*
X1093659Y200743D01*
X1088565Y195649D01*
X1080595Y195649D01*
X1074959Y201285D01*
X1074959Y209255D01*
X1080595Y214891D01*
X1088565Y214891D01*
X1093659Y209797D01*
X1093732Y209746D01*
X1093801Y209690D01*
X1093823Y209683D01*
X1093843Y209669D01*
X1093929Y209647D01*
X1094013Y209618D01*
X1094037Y209619D01*
X1094060Y209613D01*
X1094149Y209622D01*
X1094238Y209625D01*
X1094260Y209634D01*
X1094283Y209636D01*
X1094363Y209676D01*
X1094445Y209709D01*
X1094463Y209725D01*
X1094484Y209736D01*
X1094545Y209801D01*
X1094611Y209861D01*
X1094622Y209882D01*
X1094638Y209899D01*
X1094673Y209981D01*
X1094714Y210060D01*
X1094717Y210086D01*
X1094726Y210106D01*
X1094728Y210156D01*
X1094741Y210246D01*
X1094741Y231244D01*
X1094725Y231332D01*
X1094716Y231421D01*
X1094706Y231442D01*
X1094702Y231465D01*
X1094656Y231542D01*
X1094617Y231622D01*
X1094600Y231638D01*
X1094587Y231658D01*
X1094518Y231714D01*
X1094454Y231776D01*
X1094432Y231785D01*
X1094413Y231800D01*
X1094329Y231828D01*
X1094247Y231863D01*
X1094223Y231864D01*
X1094201Y231872D01*
X1094112Y231869D01*
X1094023Y231873D01*
X1094000Y231866D01*
X1093976Y231865D01*
X1093894Y231832D01*
X1093809Y231804D01*
X1093788Y231789D01*
X1093769Y231781D01*
X1093731Y231747D01*
X1093659Y231693D01*
X1088565Y226599D01*
X1080595Y226599D01*
X1074959Y232235D01*
X1074959Y240205D01*
X1080595Y245841D01*
X1088565Y245841D01*
X1093659Y240747D01*
X1093732Y240696D01*
X1093801Y240640D01*
X1093823Y240633D01*
X1093843Y240619D01*
X1093929Y240597D01*
X1094013Y240568D01*
X1094037Y240569D01*
X1094060Y240563D01*
X1094149Y240572D01*
X1094238Y240575D01*
X1094260Y240584D01*
X1094283Y240586D01*
X1094363Y240626D01*
X1094445Y240659D01*
X1094463Y240675D01*
X1094484Y240686D01*
X1094545Y240751D01*
X1094611Y240811D01*
X1094622Y240832D01*
X1094638Y240849D01*
X1094673Y240931D01*
X1094714Y241010D01*
X1094717Y241036D01*
X1094726Y241056D01*
X1094728Y241106D01*
X1094741Y241196D01*
X1094741Y286499D01*
X1094728Y286574D01*
X1094728Y286579D01*
X1094726Y286582D01*
X1094725Y286587D01*
X1094716Y286676D01*
X1094706Y286697D01*
X1094702Y286720D01*
X1094656Y286797D01*
X1094617Y286877D01*
X1094600Y286893D01*
X1094587Y286913D01*
X1094518Y286969D01*
X1094454Y287031D01*
X1094432Y287040D01*
X1094413Y287055D01*
X1094329Y287083D01*
X1094247Y287118D01*
X1094223Y287119D01*
X1094201Y287127D01*
X1094112Y287124D01*
X1094023Y287128D01*
X1094000Y287121D01*
X1093976Y287120D01*
X1093894Y287087D01*
X1093809Y287059D01*
X1093788Y287044D01*
X1093769Y287036D01*
X1093731Y287002D01*
X1093659Y286948D01*
X1088565Y281854D01*
X1080595Y281854D01*
X1074959Y287490D01*
X1074959Y295460D01*
X1080595Y301096D01*
X1088565Y301096D01*
X1093659Y296002D01*
X1093732Y295951D01*
X1093801Y295895D01*
X1093823Y295888D01*
X1093843Y295874D01*
X1093929Y295852D01*
X1094013Y295823D01*
X1094037Y295824D01*
X1094060Y295818D01*
X1094149Y295827D01*
X1094238Y295830D01*
X1094260Y295839D01*
X1094283Y295841D01*
X1094363Y295881D01*
X1094445Y295914D01*
X1094463Y295930D01*
X1094484Y295941D01*
X1094545Y296006D01*
X1094611Y296066D01*
X1094622Y296087D01*
X1094638Y296104D01*
X1094673Y296186D01*
X1094714Y296265D01*
X1094717Y296291D01*
X1094726Y296311D01*
X1094728Y296361D01*
X1094741Y296451D01*
X1094741Y362269D01*
X1094725Y362357D01*
X1094716Y362446D01*
X1094706Y362467D01*
X1094702Y362490D01*
X1094656Y362567D01*
X1094617Y362647D01*
X1094600Y362663D01*
X1094587Y362683D01*
X1094518Y362739D01*
X1094454Y362801D01*
X1094432Y362810D01*
X1094413Y362825D01*
X1094329Y362853D01*
X1094247Y362888D01*
X1094223Y362889D01*
X1094201Y362897D01*
X1094112Y362894D01*
X1094023Y362898D01*
X1094000Y362891D01*
X1093976Y362890D01*
X1093894Y362857D01*
X1093809Y362829D01*
X1093788Y362814D01*
X1093769Y362806D01*
X1093731Y362772D01*
X1093659Y362718D01*
X1088565Y357624D01*
X1086201Y357624D01*
X1086152Y357615D01*
X1086102Y357617D01*
X1086042Y357596D01*
X1085980Y357585D01*
X1085937Y357559D01*
X1085890Y357543D01*
X1085829Y357495D01*
X1085787Y357470D01*
X1085770Y357450D01*
X1085742Y357428D01*
X1074188Y345327D01*
X1074169Y345297D01*
X1074143Y345274D01*
X1074107Y345205D01*
X1074064Y345140D01*
X1074056Y345105D01*
X1074040Y345074D01*
X1074025Y344969D01*
X1074014Y344921D01*
X1074015Y344907D01*
X1074013Y344889D01*
X1074013Y330066D01*
X1069719Y325771D01*
X1069694Y325737D01*
X1069663Y325708D01*
X1069631Y325645D01*
X1069590Y325587D01*
X1069580Y325546D01*
X1069560Y325508D01*
X1069547Y325419D01*
X1069534Y325370D01*
X1069537Y325349D01*
X1069533Y325323D01*
X1069533Y325100D01*
X1068652Y322974D01*
X1067261Y321583D01*
X1067211Y321510D01*
X1067155Y321441D01*
X1067147Y321419D01*
X1067133Y321399D01*
X1067111Y321313D01*
X1067083Y321229D01*
X1067083Y321205D01*
X1067077Y321182D01*
X1067087Y321093D01*
X1067089Y321004D01*
X1067098Y320982D01*
X1067101Y320959D01*
X1067140Y320879D01*
X1067174Y320797D01*
X1067190Y320779D01*
X1067200Y320758D01*
X1067265Y320697D01*
X1067325Y320631D01*
X1067346Y320620D01*
X1067363Y320604D01*
X1067445Y320569D01*
X1067525Y320528D01*
X1067551Y320525D01*
X1067570Y320516D01*
X1067620Y320514D01*
X1067710Y320501D01*
X1076288Y320501D01*
X1076330Y320508D01*
X1076373Y320506D01*
X1076440Y320528D01*
X1076509Y320540D01*
X1076546Y320562D01*
X1076586Y320575D01*
X1076659Y320629D01*
X1076702Y320655D01*
X1076716Y320671D01*
X1076737Y320687D01*
X1076905Y320855D01*
X1076930Y320890D01*
X1076961Y320919D01*
X1076993Y320982D01*
X1077034Y321039D01*
X1077044Y321080D01*
X1077064Y321118D01*
X1077077Y321208D01*
X1077090Y321257D01*
X1077087Y321277D01*
X1077091Y321304D01*
X1077091Y323730D01*
X1077972Y325856D01*
X1079598Y327482D01*
X1081724Y328363D01*
X1084024Y328363D01*
X1086150Y327482D01*
X1087776Y325856D01*
X1088657Y323730D01*
X1088657Y321430D01*
X1087776Y319304D01*
X1086150Y317678D01*
X1084024Y316797D01*
X1081598Y316797D01*
X1081556Y316790D01*
X1081513Y316792D01*
X1081446Y316770D01*
X1081377Y316758D01*
X1081340Y316736D01*
X1081300Y316723D01*
X1081227Y316669D01*
X1081184Y316643D01*
X1081170Y316627D01*
X1081149Y316611D01*
X1079037Y314499D01*
X1070677Y314499D01*
X1070612Y314488D01*
X1070546Y314486D01*
X1070503Y314468D01*
X1070456Y314460D01*
X1070399Y314426D01*
X1070339Y314401D01*
X1070304Y314370D01*
X1070263Y314345D01*
X1070221Y314294D01*
X1070173Y314250D01*
X1070151Y314208D01*
X1070122Y314171D01*
X1070101Y314109D01*
X1070070Y314050D01*
X1070062Y313996D01*
X1070050Y313959D01*
X1070051Y313919D01*
X1070043Y313865D01*
X1070043Y312540D01*
X1069162Y310414D01*
X1067536Y308788D01*
X1065410Y307907D01*
X1063110Y307907D01*
X1060984Y308788D01*
X1059358Y310414D01*
X1058477Y312540D01*
X1058477Y314840D01*
X1059358Y316966D01*
X1060984Y318592D01*
X1062641Y319278D01*
X1062715Y319326D01*
X1062794Y319369D01*
X1062810Y319387D01*
X1062829Y319400D01*
X1062883Y319471D01*
X1062942Y319538D01*
X1062950Y319560D01*
X1062964Y319579D01*
X1062990Y319664D01*
X1063021Y319747D01*
X1063021Y319771D01*
X1063028Y319794D01*
X1063022Y319883D01*
X1063023Y319972D01*
X1063015Y319994D01*
X1063013Y320018D01*
X1062977Y320099D01*
X1062946Y320183D01*
X1062931Y320201D01*
X1062921Y320223D01*
X1062859Y320286D01*
X1062801Y320354D01*
X1062779Y320367D01*
X1062764Y320382D01*
X1062718Y320404D01*
X1062641Y320450D01*
X1060474Y321348D01*
X1058848Y322974D01*
X1057967Y325100D01*
X1057967Y327400D01*
X1058848Y329526D01*
X1059224Y329902D01*
X1059281Y329984D01*
X1059342Y330065D01*
X1059345Y330076D01*
X1059352Y330086D01*
X1059377Y330183D01*
X1059406Y330280D01*
X1059405Y330292D01*
X1059408Y330303D01*
X1059398Y330403D01*
X1059391Y330504D01*
X1059386Y330515D01*
X1059385Y330527D01*
X1059340Y330617D01*
X1059299Y330709D01*
X1059291Y330717D01*
X1059285Y330728D01*
X1059212Y330797D01*
X1059141Y330868D01*
X1059131Y330873D01*
X1059122Y330882D01*
X1059029Y330921D01*
X1058938Y330963D01*
X1058926Y330964D01*
X1058915Y330969D01*
X1058815Y330974D01*
X1058715Y330982D01*
X1058702Y330979D01*
X1058691Y330979D01*
X1058648Y330965D01*
X1058533Y330936D01*
X1057400Y330467D01*
X1055100Y330467D01*
X1052974Y331348D01*
X1051348Y332974D01*
X1050467Y335100D01*
X1050467Y337400D01*
X1051348Y339526D01*
X1052974Y341152D01*
X1053096Y341203D01*
X1053141Y341232D01*
X1053191Y341252D01*
X1053235Y341292D01*
X1053285Y341324D01*
X1053317Y341367D01*
X1053357Y341404D01*
X1053384Y341456D01*
X1053419Y341503D01*
X1053435Y341555D01*
X1053460Y341603D01*
X1053470Y341674D01*
X1053483Y341718D01*
X1053481Y341749D01*
X1053487Y341789D01*
X1053487Y363751D01*
X1053482Y363779D01*
X1053484Y363815D01*
X1053384Y364800D01*
X1053404Y364839D01*
X1053453Y364928D01*
X1053455Y364938D01*
X1053460Y364948D01*
X1053476Y365056D01*
X1054175Y365755D01*
X1054191Y365778D01*
X1054218Y365803D01*
X1076143Y392690D01*
X1076159Y392720D01*
X1076183Y392744D01*
X1076213Y392817D01*
X1076252Y392886D01*
X1076257Y392920D01*
X1076270Y392951D01*
X1076274Y393030D01*
X1076285Y393108D01*
X1076279Y393141D01*
X1076280Y393175D01*
X1076256Y393250D01*
X1076240Y393328D01*
X1076222Y393356D01*
X1076211Y393389D01*
X1076146Y393477D01*
X1076120Y393518D01*
X1076110Y393526D01*
X1076100Y393539D01*
X1074959Y394680D01*
X1074959Y402650D01*
X1080595Y408286D01*
X1088565Y408286D01*
X1093659Y403192D01*
X1093732Y403141D01*
X1093801Y403085D01*
X1093823Y403078D01*
X1093843Y403064D01*
X1093929Y403042D01*
X1094013Y403013D01*
X1094037Y403014D01*
X1094060Y403008D01*
X1094149Y403017D01*
X1094238Y403020D01*
X1094260Y403029D01*
X1094283Y403031D01*
X1094363Y403071D01*
X1094445Y403104D01*
X1094463Y403120D01*
X1094484Y403131D01*
X1094545Y403196D01*
X1094611Y403256D01*
X1094622Y403277D01*
X1094638Y403294D01*
X1094673Y403376D01*
X1094714Y403455D01*
X1094717Y403481D01*
X1094726Y403501D01*
X1094728Y403551D01*
X1094741Y403641D01*
X1094741Y450624D01*
X1094725Y450712D01*
X1094716Y450801D01*
X1094706Y450822D01*
X1094702Y450845D01*
X1094656Y450922D01*
X1094617Y451002D01*
X1094600Y451018D01*
X1094587Y451038D01*
X1094518Y451094D01*
X1094454Y451156D01*
X1094432Y451165D01*
X1094413Y451180D01*
X1094329Y451208D01*
X1094247Y451243D01*
X1094223Y451244D01*
X1094201Y451252D01*
X1094112Y451249D01*
X1094023Y451253D01*
X1094000Y451246D01*
X1093976Y451245D01*
X1093894Y451212D01*
X1093809Y451184D01*
X1093788Y451169D01*
X1093769Y451161D01*
X1093731Y451127D01*
X1093659Y451073D01*
X1088565Y445979D01*
X1080595Y445979D01*
X1074959Y451615D01*
X1074959Y459585D01*
X1080595Y465221D01*
X1088565Y465221D01*
X1093659Y460127D01*
X1093732Y460076D01*
X1093801Y460020D01*
X1093823Y460013D01*
X1093843Y459999D01*
X1093929Y459977D01*
X1094013Y459948D01*
X1094037Y459949D01*
X1094060Y459943D01*
X1094149Y459952D01*
X1094238Y459955D01*
X1094260Y459964D01*
X1094283Y459966D01*
X1094363Y460006D01*
X1094445Y460039D01*
X1094463Y460055D01*
X1094484Y460066D01*
X1094545Y460131D01*
X1094611Y460191D01*
X1094622Y460212D01*
X1094638Y460229D01*
X1094673Y460311D01*
X1094714Y460390D01*
X1094717Y460416D01*
X1094726Y460436D01*
X1094728Y460486D01*
X1094741Y460576D01*
X1094741Y519829D01*
X1094725Y519917D01*
X1094716Y520006D01*
X1094706Y520027D01*
X1094702Y520050D01*
X1094656Y520127D01*
X1094617Y520207D01*
X1094600Y520223D01*
X1094587Y520243D01*
X1094518Y520299D01*
X1094454Y520361D01*
X1094432Y520370D01*
X1094413Y520385D01*
X1094329Y520413D01*
X1094247Y520448D01*
X1094223Y520449D01*
X1094201Y520457D01*
X1094112Y520454D01*
X1094023Y520458D01*
X1094000Y520451D01*
X1093976Y520450D01*
X1093894Y520417D01*
X1093809Y520389D01*
X1093788Y520374D01*
X1093769Y520366D01*
X1093731Y520332D01*
X1093659Y520278D01*
X1088565Y515184D01*
X1080595Y515184D01*
X1074959Y520820D01*
X1074959Y528790D01*
X1080595Y534426D01*
X1088565Y534426D01*
X1093659Y529332D01*
X1093732Y529281D01*
X1093801Y529225D01*
X1093823Y529218D01*
X1093843Y529204D01*
X1093929Y529182D01*
X1094013Y529153D01*
X1094037Y529154D01*
X1094060Y529148D01*
X1094149Y529157D01*
X1094238Y529160D01*
X1094260Y529169D01*
X1094283Y529171D01*
X1094363Y529211D01*
X1094445Y529244D01*
X1094463Y529260D01*
X1094484Y529271D01*
X1094545Y529336D01*
X1094611Y529396D01*
X1094622Y529417D01*
X1094638Y529434D01*
X1094673Y529516D01*
X1094714Y529595D01*
X1094717Y529621D01*
X1094726Y529641D01*
X1094728Y529691D01*
X1094741Y529781D01*
X1094741Y551031D01*
X1094725Y551118D01*
X1094716Y551207D01*
X1094706Y551228D01*
X1094702Y551251D01*
X1094656Y551328D01*
X1094617Y551408D01*
X1094600Y551424D01*
X1094587Y551445D01*
X1094518Y551501D01*
X1094454Y551562D01*
X1094432Y551571D01*
X1094413Y551586D01*
X1094329Y551615D01*
X1094247Y551649D01*
X1094223Y551650D01*
X1094201Y551658D01*
X1094112Y551655D01*
X1094023Y551659D01*
X1094000Y551652D01*
X1093976Y551651D01*
X1093894Y551618D01*
X1093809Y551591D01*
X1093788Y551575D01*
X1093769Y551567D01*
X1093731Y551533D01*
X1093659Y551479D01*
X1088789Y546609D01*
X1085849Y546609D01*
X1085849Y556135D01*
X1085838Y556200D01*
X1085836Y556265D01*
X1085818Y556309D01*
X1085810Y556356D01*
X1085776Y556412D01*
X1085751Y556473D01*
X1085719Y556508D01*
X1085695Y556549D01*
X1085644Y556590D01*
X1085600Y556639D01*
X1085558Y556661D01*
X1085521Y556690D01*
X1085459Y556711D01*
X1085400Y556741D01*
X1085346Y556750D01*
X1085309Y556762D01*
X1085269Y556761D01*
X1085215Y556769D01*
X1084579Y556769D01*
X1084579Y556771D01*
X1085215Y556771D01*
X1085280Y556783D01*
X1085345Y556784D01*
X1085389Y556802D01*
X1085436Y556811D01*
X1085493Y556844D01*
X1085553Y556869D01*
X1085588Y556901D01*
X1085629Y556925D01*
X1085670Y556976D01*
X1085719Y557020D01*
X1085741Y557062D01*
X1085770Y557099D01*
X1085791Y557161D01*
X1085822Y557220D01*
X1085830Y557274D01*
X1085842Y557311D01*
X1085841Y557351D01*
X1085849Y557405D01*
X1085849Y566931D01*
X1088789Y566931D01*
X1093659Y562061D01*
X1093732Y562010D01*
X1093801Y561954D01*
X1093823Y561946D01*
X1093843Y561933D01*
X1093929Y561911D01*
X1094013Y561882D01*
X1094037Y561883D01*
X1094060Y561877D01*
X1094149Y561886D01*
X1094238Y561889D01*
X1094260Y561898D01*
X1094283Y561900D01*
X1094363Y561940D01*
X1094445Y561973D01*
X1094463Y561989D01*
X1094484Y562000D01*
X1094545Y562064D01*
X1094611Y562124D01*
X1094622Y562146D01*
X1094638Y562163D01*
X1094673Y562245D01*
X1094714Y562324D01*
X1094717Y562350D01*
X1094726Y562369D01*
X1094728Y562420D01*
X1094741Y562509D01*
X1094741Y685800D01*
X1094730Y685865D01*
X1094728Y685931D01*
X1094710Y685974D01*
X1094702Y686021D01*
X1094668Y686078D01*
X1094643Y686138D01*
X1094612Y686173D01*
X1094587Y686214D01*
X1094536Y686256D01*
X1094492Y686304D01*
X1094450Y686326D01*
X1094413Y686355D01*
X1094351Y686376D01*
X1094292Y686407D01*
X1094238Y686415D01*
X1094201Y686427D01*
X1094161Y686426D01*
X1094107Y686434D01*
X1088234Y686434D01*
X1088190Y686426D01*
X1088070Y686413D01*
X1082944Y685039D01*
X1076056Y685039D01*
X1070930Y686413D01*
X1070886Y686416D01*
X1070766Y686434D01*
X1054734Y686434D01*
X1054734Y702466D01*
X1054726Y702510D01*
X1054713Y702630D01*
X1053339Y707756D01*
X1053339Y714644D01*
X1054713Y719770D01*
X1054716Y719814D01*
X1054734Y719934D01*
X1054734Y725825D01*
X1054723Y725890D01*
X1054721Y725956D01*
X1054703Y725999D01*
X1054695Y726046D01*
X1054661Y726102D01*
X1054636Y726163D01*
X1054604Y726198D01*
X1054580Y726239D01*
X1054529Y726280D01*
X1054485Y726329D01*
X1054443Y726351D01*
X1054406Y726380D01*
X1054344Y726401D01*
X1054285Y726431D01*
X1054231Y726440D01*
X1054194Y726452D01*
X1054154Y726451D01*
X1054100Y726459D01*
X213995Y726341D01*
X213930Y726329D01*
X213864Y726327D01*
X213821Y726309D01*
X213774Y726301D01*
X213717Y726268D01*
X213657Y726243D01*
X213622Y726211D01*
X213581Y726187D01*
X213539Y726136D01*
X213491Y726092D01*
X213469Y726049D01*
X213440Y726013D01*
X213419Y725950D01*
X213388Y725892D01*
X213380Y725837D01*
X213368Y725800D01*
X213369Y725761D01*
X213361Y725707D01*
X213361Y363570D01*
X213377Y363482D01*
X213386Y363394D01*
X213396Y363373D01*
X213400Y363349D01*
X213446Y363273D01*
X213485Y363193D01*
X213502Y363176D01*
X213515Y363156D01*
X213584Y363100D01*
X213648Y363039D01*
X213670Y363030D01*
X213689Y363015D01*
X213773Y362986D01*
X213855Y362951D01*
X213879Y362950D01*
X213901Y362943D01*
X213990Y362945D01*
X214079Y362941D01*
X214102Y362949D01*
X214126Y362949D01*
X214208Y362983D01*
X214293Y363010D01*
X214314Y363026D01*
X214333Y363034D01*
X214371Y363068D01*
X214443Y363122D01*
X217329Y366007D01*
X221648Y367796D01*
X226322Y367796D01*
X230641Y366007D01*
X233947Y362701D01*
X235736Y358382D01*
X235736Y353708D01*
X233947Y349389D01*
X230641Y346083D01*
X226322Y344294D01*
X221648Y344294D01*
X217329Y346083D01*
X214443Y348968D01*
X214370Y349019D01*
X214301Y349075D01*
X214279Y349083D01*
X214259Y349097D01*
X214173Y349119D01*
X214089Y349147D01*
X214065Y349147D01*
X214042Y349153D01*
X213953Y349143D01*
X213864Y349141D01*
X213842Y349132D01*
X213819Y349129D01*
X213739Y349090D01*
X213657Y349056D01*
X213639Y349040D01*
X213618Y349030D01*
X213557Y348965D01*
X213491Y348905D01*
X213480Y348884D01*
X213464Y348867D01*
X213429Y348785D01*
X213388Y348705D01*
X213385Y348679D01*
X213376Y348660D01*
X213374Y348610D01*
X213361Y348520D01*
X213361Y303570D01*
X213372Y303505D01*
X213374Y303442D01*
X213383Y303421D01*
X213386Y303394D01*
X213396Y303373D01*
X213400Y303349D01*
X213438Y303286D01*
X213459Y303234D01*
X213472Y303220D01*
X213485Y303193D01*
X213502Y303176D01*
X213515Y303156D01*
X213576Y303106D01*
X213610Y303069D01*
X213625Y303061D01*
X213648Y303039D01*
X213670Y303030D01*
X213689Y303015D01*
X213767Y302988D01*
X213810Y302966D01*
X213825Y302964D01*
X213855Y302951D01*
X213879Y302950D01*
X213901Y302943D01*
X213956Y302944D01*
X213995Y302939D01*
X213998Y302939D01*
X214026Y302944D01*
X214079Y302941D01*
X214102Y302949D01*
X214126Y302949D01*
X214180Y302971D01*
X214219Y302978D01*
X214248Y302996D01*
X214293Y303010D01*
X214314Y303026D01*
X214333Y303034D01*
X214371Y303068D01*
X214373Y303070D01*
X214412Y303092D01*
X214424Y303107D01*
X214443Y303122D01*
X217329Y306007D01*
X221648Y307796D01*
X226322Y307796D01*
X230641Y306007D01*
X233947Y302701D01*
X235736Y298382D01*
X235736Y293708D01*
X234276Y290184D01*
X234265Y290132D01*
X234244Y290082D01*
X234241Y290023D01*
X234229Y289965D01*
X234236Y289912D01*
X234234Y289858D01*
X234252Y289801D01*
X234260Y289743D01*
X234286Y289695D01*
X234302Y289644D01*
X234345Y289587D01*
X234367Y289546D01*
X234390Y289526D01*
X234414Y289493D01*
X252209Y271699D01*
X254013Y269894D01*
X254013Y226407D01*
X254020Y226365D01*
X254018Y226323D01*
X254040Y226256D01*
X254052Y226186D01*
X254074Y226150D01*
X254087Y226109D01*
X254141Y226037D01*
X254167Y225993D01*
X254183Y225980D01*
X254199Y225959D01*
X373459Y106699D01*
X373493Y106674D01*
X373522Y106643D01*
X373585Y106611D01*
X373643Y106570D01*
X373684Y106560D01*
X373722Y106540D01*
X373811Y106527D01*
X373860Y106514D01*
X373881Y106517D01*
X373907Y106513D01*
X421144Y106513D01*
X422763Y104894D01*
X422763Y97657D01*
X422770Y97615D01*
X422768Y97573D01*
X422790Y97506D01*
X422802Y97436D01*
X422824Y97400D01*
X422837Y97359D01*
X422891Y97287D01*
X422917Y97243D01*
X422933Y97230D01*
X422948Y97209D01*
X423029Y97128D01*
X423083Y97091D01*
X423131Y97046D01*
X423174Y97027D01*
X423213Y97000D01*
X423277Y96984D01*
X423337Y96958D01*
X423384Y96956D01*
X423430Y96944D01*
X423496Y96951D01*
X423561Y96948D01*
X423606Y96963D01*
X423653Y96968D01*
X423712Y96997D01*
X423775Y97017D01*
X423819Y97050D01*
X423854Y97067D01*
X423881Y97096D01*
X423926Y97128D01*
X424136Y97338D01*
X427642Y98791D01*
X431438Y98791D01*
X431527Y98754D01*
X431553Y98748D01*
X431573Y98738D01*
X431647Y98727D01*
X431723Y98707D01*
X431734Y98709D01*
X431746Y98706D01*
X431846Y98720D01*
X431946Y98731D01*
X431956Y98736D01*
X431968Y98737D01*
X432057Y98785D01*
X432147Y98830D01*
X432155Y98839D01*
X432165Y98844D01*
X432232Y98920D01*
X432301Y98993D01*
X432305Y99004D01*
X432313Y99013D01*
X432349Y99107D01*
X432388Y99200D01*
X432389Y99212D01*
X432393Y99223D01*
X432394Y99324D01*
X432398Y99424D01*
X432395Y99435D01*
X432395Y99447D01*
X432386Y99472D01*
X432386Y99475D01*
X432376Y99500D01*
X432360Y99542D01*
X432330Y99638D01*
X432322Y99648D01*
X432318Y99658D01*
X432305Y99673D01*
X432301Y99683D01*
X432274Y99713D01*
X432218Y99788D01*
X367158Y164848D01*
X367123Y164873D01*
X367094Y164904D01*
X367031Y164936D01*
X366974Y164977D01*
X366933Y164987D01*
X366895Y165007D01*
X366805Y165020D01*
X366756Y165033D01*
X366736Y165030D01*
X366709Y165034D01*
X354021Y165034D01*
X352849Y166206D01*
X352849Y180444D01*
X354021Y181616D01*
X368259Y181616D01*
X369431Y180444D01*
X369431Y171326D01*
X369438Y171284D01*
X369436Y171241D01*
X369458Y171174D01*
X369470Y171105D01*
X369492Y171068D01*
X369505Y171028D01*
X369559Y170955D01*
X369585Y170912D01*
X369601Y170898D01*
X369617Y170877D01*
X445897Y94597D01*
X445951Y94559D01*
X445999Y94514D01*
X446042Y94496D01*
X446081Y94469D01*
X446145Y94452D01*
X446206Y94426D01*
X446253Y94424D01*
X446299Y94413D01*
X446364Y94419D01*
X446430Y94416D01*
X446475Y94431D01*
X446522Y94436D01*
X446581Y94465D01*
X446643Y94485D01*
X446688Y94518D01*
X446723Y94535D01*
X446750Y94564D01*
X446794Y94597D01*
X449536Y97338D01*
X453042Y98791D01*
X456838Y98791D01*
X460344Y97338D01*
X463028Y94654D01*
X464481Y91148D01*
X464481Y72272D01*
X463028Y68766D01*
X460344Y66082D01*
X456838Y64629D01*
X453042Y64629D01*
X449536Y66082D01*
X446852Y68766D01*
X445399Y72272D01*
X445399Y86344D01*
X445392Y86386D01*
X445394Y86429D01*
X445372Y86496D01*
X445360Y86565D01*
X445338Y86602D01*
X445325Y86642D01*
X445271Y86715D01*
X445245Y86758D01*
X445229Y86772D01*
X445213Y86793D01*
X440078Y91928D01*
X439996Y91985D01*
X439915Y92046D01*
X439904Y92049D01*
X439894Y92056D01*
X439797Y92081D01*
X439700Y92110D01*
X439688Y92109D01*
X439677Y92112D01*
X439577Y92102D01*
X439476Y92095D01*
X439465Y92090D01*
X439454Y92089D01*
X439364Y92044D01*
X439272Y92003D01*
X439263Y91995D01*
X439253Y91989D01*
X439183Y91916D01*
X439112Y91846D01*
X439107Y91835D01*
X439099Y91826D01*
X439059Y91733D01*
X439017Y91642D01*
X439016Y91630D01*
X439011Y91620D01*
X439007Y91519D01*
X438998Y91419D01*
X439002Y91406D01*
X439001Y91395D01*
X439015Y91352D01*
X439044Y91237D01*
X439081Y91148D01*
X439081Y72272D01*
X437628Y68766D01*
X434944Y66082D01*
X431438Y64629D01*
X427642Y64629D01*
X424136Y66082D01*
X421452Y68766D01*
X419999Y72272D01*
X419999Y91148D01*
X420187Y91602D01*
X420199Y91655D01*
X420220Y91705D01*
X420223Y91763D01*
X420235Y91821D01*
X420228Y91875D01*
X420230Y91929D01*
X420212Y91985D01*
X420204Y92043D01*
X420178Y92091D01*
X420161Y92142D01*
X420119Y92200D01*
X420097Y92240D01*
X420074Y92261D01*
X420050Y92293D01*
X417237Y95106D01*
X417237Y100353D01*
X417226Y100418D01*
X417224Y100484D01*
X417206Y100527D01*
X417198Y100574D01*
X417164Y100631D01*
X417139Y100691D01*
X417108Y100726D01*
X417083Y100767D01*
X417032Y100809D01*
X416988Y100857D01*
X416946Y100879D01*
X416909Y100908D01*
X416847Y100929D01*
X416788Y100960D01*
X416734Y100968D01*
X416697Y100980D01*
X416657Y100979D01*
X416603Y100987D01*
X371356Y100987D01*
X248487Y223856D01*
X248487Y267343D01*
X248480Y267385D01*
X248482Y267427D01*
X248460Y267494D01*
X248448Y267564D01*
X248426Y267600D01*
X248413Y267641D01*
X248359Y267713D01*
X248333Y267757D01*
X248317Y267770D01*
X248301Y267791D01*
X230494Y285599D01*
X230450Y285629D01*
X230412Y285668D01*
X230358Y285693D01*
X230310Y285727D01*
X230258Y285740D01*
X230209Y285763D01*
X230150Y285768D01*
X230093Y285783D01*
X230039Y285777D01*
X229985Y285781D01*
X229916Y285764D01*
X229870Y285759D01*
X229842Y285746D01*
X229803Y285736D01*
X226322Y284294D01*
X221648Y284294D01*
X217329Y286083D01*
X214443Y288968D01*
X214370Y289019D01*
X214301Y289075D01*
X214279Y289083D01*
X214259Y289097D01*
X214173Y289119D01*
X214089Y289147D01*
X214065Y289147D01*
X214042Y289153D01*
X213953Y289143D01*
X213864Y289141D01*
X213842Y289132D01*
X213819Y289129D01*
X213739Y289090D01*
X213657Y289056D01*
X213639Y289040D01*
X213618Y289030D01*
X213557Y288965D01*
X213491Y288905D01*
X213480Y288884D01*
X213464Y288867D01*
X213429Y288785D01*
X213388Y288705D01*
X213385Y288679D01*
X213376Y288660D01*
X213374Y288610D01*
X213361Y288520D01*
X213361Y218790D01*
X213377Y218702D01*
X213386Y218614D01*
X213396Y218593D01*
X213400Y218569D01*
X213446Y218493D01*
X213485Y218413D01*
X213502Y218396D01*
X213515Y218376D01*
X213584Y218320D01*
X213648Y218259D01*
X213670Y218250D01*
X213689Y218235D01*
X213773Y218206D01*
X213855Y218171D01*
X213879Y218170D01*
X213901Y218163D01*
X213990Y218165D01*
X214079Y218161D01*
X214102Y218169D01*
X214126Y218169D01*
X214208Y218203D01*
X214293Y218230D01*
X214314Y218246D01*
X214333Y218254D01*
X214371Y218288D01*
X214443Y218342D01*
X217329Y221227D01*
X221648Y223016D01*
X226322Y223016D01*
X230641Y221227D01*
X233947Y217921D01*
X235736Y213602D01*
X235736Y208928D01*
X233947Y204609D01*
X230641Y201303D01*
X226322Y199514D01*
X221648Y199514D01*
X217329Y201303D01*
X214443Y204188D01*
X214370Y204239D01*
X214301Y204295D01*
X214279Y204303D01*
X214259Y204317D01*
X214173Y204339D01*
X214089Y204367D01*
X214065Y204367D01*
X214042Y204373D01*
X213953Y204363D01*
X213864Y204361D01*
X213842Y204352D01*
X213819Y204349D01*
X213739Y204310D01*
X213657Y204276D01*
X213639Y204260D01*
X213618Y204250D01*
X213557Y204185D01*
X213491Y204125D01*
X213480Y204104D01*
X213464Y204087D01*
X213429Y204005D01*
X213388Y203925D01*
X213385Y203899D01*
X213376Y203880D01*
X213374Y203830D01*
X213361Y203740D01*
X213361Y158790D01*
X213377Y158702D01*
X213386Y158614D01*
X213396Y158593D01*
X213400Y158569D01*
X213446Y158493D01*
X213485Y158413D01*
X213502Y158396D01*
X213515Y158376D01*
X213584Y158320D01*
X213648Y158259D01*
X213670Y158250D01*
X213689Y158235D01*
X213773Y158206D01*
X213855Y158171D01*
X213879Y158170D01*
X213901Y158163D01*
X213990Y158165D01*
X214079Y158161D01*
X214102Y158169D01*
X214126Y158169D01*
X214208Y158203D01*
X214293Y158230D01*
X214314Y158246D01*
X214333Y158254D01*
X214371Y158288D01*
X214443Y158342D01*
X217329Y161227D01*
X221648Y163016D01*
X226322Y163016D01*
X230641Y161227D01*
X233947Y157921D01*
X235736Y153602D01*
X235736Y148928D01*
X233947Y144609D01*
X230641Y141303D01*
X226322Y139514D01*
X221648Y139514D01*
X217329Y141303D01*
X214443Y144188D01*
X214370Y144239D01*
X214301Y144295D01*
X214279Y144303D01*
X214259Y144317D01*
X214173Y144339D01*
X214089Y144367D01*
X214065Y144367D01*
X214042Y144373D01*
X213953Y144363D01*
X213864Y144361D01*
X213842Y144352D01*
X213819Y144349D01*
X213739Y144310D01*
X213657Y144276D01*
X213639Y144260D01*
X213618Y144250D01*
X213557Y144185D01*
X213491Y144125D01*
X213480Y144104D01*
X213464Y144087D01*
X213429Y144005D01*
X213388Y143925D01*
X213385Y143899D01*
X213376Y143880D01*
X213374Y143830D01*
X213361Y143740D01*
X213361Y88900D01*
X213372Y88835D01*
X213374Y88769D01*
X213392Y88726D01*
X213400Y88679D01*
X213434Y88622D01*
X213459Y88562D01*
X213490Y88527D01*
X213515Y88486D01*
X213566Y88445D01*
X213610Y88396D01*
X213652Y88374D01*
X213689Y88345D01*
X213751Y88324D01*
X213810Y88293D01*
X213864Y88285D01*
X213901Y88273D01*
X213941Y88274D01*
X213995Y88266D01*
X219866Y88266D01*
X219910Y88274D01*
X220030Y88287D01*
X225156Y89661D01*
X232044Y89661D01*
X237170Y88287D01*
X237214Y88284D01*
X237334Y88266D01*
X253366Y88266D01*
X253366Y72234D01*
X253374Y72190D01*
X253387Y72070D01*
X254761Y66944D01*
X254761Y60056D01*
X253387Y54930D01*
X253384Y54886D01*
X253366Y54766D01*
X253366Y50507D01*
X253377Y50442D01*
X253379Y50376D01*
X253397Y50333D01*
X253405Y50286D01*
X253439Y50230D01*
X253464Y50169D01*
X253496Y50134D01*
X253520Y50093D01*
X253571Y50052D01*
X253615Y50003D01*
X253657Y49981D01*
X253694Y49952D01*
X253756Y49931D01*
X253815Y49901D01*
X253869Y49892D01*
X253906Y49880D01*
X253946Y49881D01*
X254000Y49873D01*
X1054100Y49986D01*
G37*
%LPC*%
G36*
X987077Y56114D02*
X987077Y56114D01*
X983034Y57789D01*
X979939Y60884D01*
X978264Y64927D01*
X978264Y69303D01*
X979939Y73346D01*
X983034Y76441D01*
X987077Y78116D01*
X987696Y78116D01*
X987738Y78123D01*
X987780Y78121D01*
X987847Y78143D01*
X987917Y78155D01*
X987953Y78177D01*
X987994Y78190D01*
X988066Y78244D01*
X988110Y78270D01*
X988123Y78286D01*
X988144Y78302D01*
X989041Y79199D01*
X1010477Y100635D01*
X1010528Y100708D01*
X1010584Y100777D01*
X1010592Y100799D01*
X1010606Y100819D01*
X1010628Y100905D01*
X1010656Y100989D01*
X1010656Y101013D01*
X1010661Y101036D01*
X1010652Y101125D01*
X1010650Y101214D01*
X1010641Y101236D01*
X1010638Y101259D01*
X1010599Y101339D01*
X1010565Y101421D01*
X1010549Y101439D01*
X1010539Y101460D01*
X1010474Y101521D01*
X1010414Y101587D01*
X1010393Y101598D01*
X1010376Y101614D01*
X1010294Y101649D01*
X1010214Y101690D01*
X1010188Y101693D01*
X1010169Y101702D01*
X1010134Y101703D01*
X1007974Y102598D01*
X1006348Y104224D01*
X1005467Y106350D01*
X1005467Y108650D01*
X1005518Y108772D01*
X1005529Y108825D01*
X1005550Y108874D01*
X1005553Y108933D01*
X1005565Y108991D01*
X1005558Y109044D01*
X1005560Y109099D01*
X1005542Y109155D01*
X1005534Y109213D01*
X1005508Y109261D01*
X1005492Y109312D01*
X1005449Y109369D01*
X1005427Y109410D01*
X1005404Y109430D01*
X1005380Y109463D01*
X987237Y127606D01*
X987237Y131824D01*
X987228Y131877D01*
X987228Y131931D01*
X987208Y131987D01*
X987198Y132045D01*
X987170Y132091D01*
X987152Y132142D01*
X987113Y132187D01*
X987083Y132238D01*
X987041Y132272D01*
X987006Y132313D01*
X986945Y132350D01*
X986909Y132379D01*
X986880Y132389D01*
X986846Y132410D01*
X983034Y133989D01*
X979939Y137084D01*
X978264Y141127D01*
X978264Y145503D01*
X979515Y148524D01*
X979527Y148577D01*
X979548Y148627D01*
X979551Y148685D01*
X979563Y148743D01*
X979556Y148797D01*
X979558Y148851D01*
X979540Y148907D01*
X979532Y148965D01*
X979506Y149013D01*
X979489Y149064D01*
X979447Y149121D01*
X979425Y149162D01*
X979402Y149183D01*
X979378Y149215D01*
X931541Y197051D01*
X931149Y197443D01*
X931086Y197488D01*
X931028Y197539D01*
X930994Y197551D01*
X930965Y197572D01*
X930890Y197591D01*
X930818Y197618D01*
X930782Y197619D01*
X930748Y197627D01*
X930671Y197619D01*
X930593Y197620D01*
X930560Y197608D01*
X930525Y197604D01*
X930456Y197570D01*
X930383Y197544D01*
X930355Y197521D01*
X930324Y197505D01*
X930271Y197448D01*
X930212Y197398D01*
X930191Y197364D01*
X930170Y197342D01*
X930152Y197299D01*
X930115Y197238D01*
X929902Y196724D01*
X928276Y195098D01*
X926150Y194217D01*
X923850Y194217D01*
X921724Y195098D01*
X920098Y196724D01*
X919217Y198850D01*
X919217Y201150D01*
X919268Y201272D01*
X919279Y201325D01*
X919300Y201374D01*
X919303Y201433D01*
X919315Y201491D01*
X919308Y201544D01*
X919310Y201599D01*
X919292Y201655D01*
X919284Y201713D01*
X919258Y201761D01*
X919242Y201812D01*
X919199Y201869D01*
X919177Y201910D01*
X919154Y201930D01*
X919130Y201963D01*
X913487Y207606D01*
X913487Y248593D01*
X913480Y248635D01*
X913482Y248677D01*
X913460Y248744D01*
X913448Y248814D01*
X913426Y248850D01*
X913413Y248891D01*
X913359Y248963D01*
X913333Y249007D01*
X913317Y249020D01*
X913301Y249041D01*
X898904Y263438D01*
X898872Y263461D01*
X898850Y263485D01*
X898849Y263486D01*
X898841Y263494D01*
X898778Y263526D01*
X898720Y263567D01*
X898679Y263577D01*
X898641Y263597D01*
X898552Y263610D01*
X898503Y263623D01*
X898482Y263620D01*
X898456Y263624D01*
X897213Y263624D01*
X892619Y265527D01*
X889102Y269044D01*
X887199Y273638D01*
X887199Y278612D01*
X889102Y283206D01*
X892619Y286723D01*
X897213Y288626D01*
X902187Y288626D01*
X906781Y286723D01*
X910298Y283206D01*
X912201Y278612D01*
X912201Y273638D01*
X910298Y269044D01*
X906781Y265527D01*
X906137Y265261D01*
X906072Y265219D01*
X906002Y265184D01*
X905978Y265159D01*
X905948Y265139D01*
X905901Y265077D01*
X905848Y265021D01*
X905834Y264988D01*
X905813Y264960D01*
X905791Y264886D01*
X905761Y264814D01*
X905759Y264779D01*
X905749Y264745D01*
X905754Y264668D01*
X905751Y264590D01*
X905762Y264557D01*
X905764Y264521D01*
X905796Y264450D01*
X905820Y264377D01*
X905844Y264344D01*
X905856Y264316D01*
X905889Y264283D01*
X905931Y264226D01*
X919013Y251144D01*
X919013Y210157D01*
X919020Y210115D01*
X919018Y210073D01*
X919040Y210006D01*
X919052Y209936D01*
X919074Y209900D01*
X919087Y209859D01*
X919141Y209787D01*
X919167Y209743D01*
X919183Y209730D01*
X919199Y209709D01*
X923037Y205870D01*
X923082Y205839D01*
X923120Y205800D01*
X923173Y205776D01*
X923221Y205742D01*
X923274Y205728D01*
X923323Y205705D01*
X923382Y205701D01*
X923439Y205686D01*
X923493Y205692D01*
X923546Y205687D01*
X923616Y205704D01*
X923662Y205709D01*
X923689Y205723D01*
X923728Y205732D01*
X923850Y205783D01*
X926150Y205783D01*
X928276Y204902D01*
X928655Y204523D01*
X928728Y204473D01*
X928797Y204417D01*
X928819Y204409D01*
X928839Y204395D01*
X928925Y204373D01*
X929009Y204345D01*
X929033Y204345D01*
X929056Y204339D01*
X929145Y204349D01*
X929234Y204351D01*
X929255Y204360D01*
X929279Y204363D01*
X929359Y204402D01*
X929441Y204436D01*
X929459Y204452D01*
X929480Y204462D01*
X929541Y204527D01*
X929607Y204587D01*
X929618Y204608D01*
X929634Y204625D01*
X929669Y204707D01*
X929710Y204787D01*
X929713Y204813D01*
X929722Y204832D01*
X929724Y204882D01*
X929737Y204972D01*
X929737Y266093D01*
X929730Y266135D01*
X929732Y266177D01*
X929710Y266244D01*
X929698Y266314D01*
X929676Y266350D01*
X929663Y266391D01*
X929609Y266463D01*
X929583Y266507D01*
X929567Y266520D01*
X929551Y266541D01*
X896541Y299551D01*
X896507Y299576D01*
X896478Y299607D01*
X896415Y299639D01*
X896357Y299680D01*
X896316Y299690D01*
X896278Y299710D01*
X896189Y299723D01*
X896140Y299736D01*
X896119Y299733D01*
X896093Y299737D01*
X874287Y299737D01*
X874234Y299728D01*
X874179Y299728D01*
X874124Y299708D01*
X874066Y299698D01*
X874019Y299670D01*
X873968Y299652D01*
X873923Y299613D01*
X873873Y299583D01*
X873839Y299541D01*
X873797Y299506D01*
X873761Y299445D01*
X873731Y299409D01*
X873722Y299380D01*
X873701Y299346D01*
X870808Y292362D01*
X865463Y287017D01*
X858479Y284124D01*
X850921Y284124D01*
X843937Y287017D01*
X838592Y292362D01*
X835699Y299346D01*
X835699Y306904D01*
X838592Y313888D01*
X843937Y319233D01*
X850921Y322126D01*
X851603Y322126D01*
X851668Y322137D01*
X851734Y322139D01*
X851777Y322157D01*
X851824Y322165D01*
X851881Y322199D01*
X851941Y322224D01*
X851976Y322255D01*
X852017Y322280D01*
X852059Y322331D01*
X852107Y322375D01*
X852129Y322417D01*
X852158Y322454D01*
X852179Y322516D01*
X852210Y322575D01*
X852218Y322629D01*
X852230Y322666D01*
X852229Y322706D01*
X852237Y322760D01*
X852237Y417394D01*
X980380Y545537D01*
X980411Y545582D01*
X980450Y545620D01*
X980474Y545673D01*
X980508Y545721D01*
X980522Y545774D01*
X980545Y545823D01*
X980549Y545882D01*
X980564Y545939D01*
X980558Y545993D01*
X980563Y546046D01*
X980546Y546116D01*
X980541Y546162D01*
X980527Y546189D01*
X980518Y546228D01*
X980467Y546350D01*
X980467Y548650D01*
X981348Y550776D01*
X982974Y552402D01*
X985100Y553283D01*
X987400Y553283D01*
X989526Y552402D01*
X991152Y550776D01*
X992033Y548650D01*
X992033Y546350D01*
X991152Y544224D01*
X989526Y542598D01*
X987400Y541717D01*
X985100Y541717D01*
X984978Y541768D01*
X984925Y541779D01*
X984876Y541800D01*
X984817Y541803D01*
X984759Y541815D01*
X984706Y541808D01*
X984651Y541810D01*
X984595Y541792D01*
X984537Y541784D01*
X984489Y541758D01*
X984438Y541742D01*
X984381Y541699D01*
X984340Y541677D01*
X984320Y541654D01*
X984287Y541630D01*
X857949Y415291D01*
X857924Y415257D01*
X857893Y415228D01*
X857861Y415165D01*
X857820Y415107D01*
X857810Y415066D01*
X857790Y415028D01*
X857777Y414939D01*
X857764Y414890D01*
X857767Y414869D01*
X857763Y414843D01*
X857763Y389240D01*
X857778Y389152D01*
X857788Y389064D01*
X857798Y389042D01*
X857802Y389019D01*
X857848Y388942D01*
X857887Y388862D01*
X857904Y388846D01*
X857917Y388826D01*
X857986Y388770D01*
X858050Y388709D01*
X858072Y388699D01*
X858091Y388684D01*
X858175Y388656D01*
X858257Y388621D01*
X858281Y388620D01*
X858303Y388612D01*
X858392Y388615D01*
X858481Y388611D01*
X858504Y388618D01*
X858528Y388619D01*
X858610Y388653D01*
X858695Y388680D01*
X858716Y388695D01*
X858735Y388703D01*
X858773Y388737D01*
X858845Y388791D01*
X859766Y389712D01*
X862351Y390783D01*
X865149Y390783D01*
X865740Y390538D01*
X865793Y390526D01*
X865843Y390505D01*
X865902Y390502D01*
X865960Y390490D01*
X866013Y390497D01*
X866067Y390495D01*
X866123Y390513D01*
X866182Y390521D01*
X866229Y390547D01*
X866281Y390564D01*
X866338Y390606D01*
X866379Y390628D01*
X866399Y390651D01*
X866432Y390675D01*
X983075Y507318D01*
X983106Y507363D01*
X983144Y507401D01*
X983169Y507454D01*
X983203Y507503D01*
X983216Y507555D01*
X983239Y507604D01*
X983244Y507663D01*
X983259Y507720D01*
X983253Y507774D01*
X983258Y507828D01*
X983240Y507897D01*
X983236Y507943D01*
X983222Y507970D01*
X983212Y508010D01*
X982967Y508601D01*
X982967Y511399D01*
X984038Y513984D01*
X986016Y515962D01*
X988601Y517033D01*
X991399Y517033D01*
X993984Y515962D01*
X995962Y513984D01*
X997033Y511399D01*
X997033Y508601D01*
X995962Y506016D01*
X993984Y504038D01*
X991399Y502967D01*
X988601Y502967D01*
X988010Y503212D01*
X987957Y503224D01*
X987907Y503245D01*
X987848Y503248D01*
X987790Y503260D01*
X987737Y503253D01*
X987683Y503255D01*
X987627Y503237D01*
X987568Y503229D01*
X987521Y503203D01*
X987469Y503186D01*
X987412Y503144D01*
X987371Y503122D01*
X987351Y503099D01*
X987318Y503075D01*
X870675Y386432D01*
X870644Y386387D01*
X870606Y386349D01*
X870581Y386296D01*
X870547Y386247D01*
X870534Y386195D01*
X870511Y386146D01*
X870506Y386087D01*
X870491Y386030D01*
X870497Y385976D01*
X870492Y385922D01*
X870510Y385853D01*
X870514Y385807D01*
X870528Y385780D01*
X870538Y385740D01*
X870783Y385149D01*
X870783Y382351D01*
X869712Y379766D01*
X867734Y377788D01*
X865149Y376717D01*
X862351Y376717D01*
X859766Y377788D01*
X858845Y378709D01*
X858772Y378760D01*
X858703Y378816D01*
X858681Y378823D01*
X858661Y378837D01*
X858575Y378859D01*
X858491Y378888D01*
X858467Y378887D01*
X858444Y378893D01*
X858355Y378884D01*
X858266Y378881D01*
X858244Y378872D01*
X858221Y378870D01*
X858141Y378830D01*
X858059Y378797D01*
X858041Y378781D01*
X858020Y378770D01*
X857959Y378705D01*
X857893Y378645D01*
X857882Y378624D01*
X857866Y378607D01*
X857831Y378525D01*
X857790Y378446D01*
X857787Y378419D01*
X857778Y378400D01*
X857776Y378350D01*
X857763Y378260D01*
X857763Y322760D01*
X857774Y322695D01*
X857776Y322629D01*
X857794Y322586D01*
X857802Y322539D01*
X857836Y322482D01*
X857861Y322422D01*
X857893Y322387D01*
X857917Y322346D01*
X857968Y322304D01*
X858012Y322256D01*
X858054Y322234D01*
X858091Y322205D01*
X858153Y322184D01*
X858212Y322153D01*
X858266Y322145D01*
X858303Y322133D01*
X858343Y322134D01*
X858397Y322126D01*
X858479Y322126D01*
X865463Y319233D01*
X870808Y313888D01*
X873701Y306904D01*
X873701Y305897D01*
X873712Y305832D01*
X873714Y305766D01*
X873732Y305723D01*
X873740Y305676D01*
X873774Y305619D01*
X873799Y305559D01*
X873830Y305524D01*
X873855Y305483D01*
X873906Y305441D01*
X873950Y305393D01*
X873992Y305371D01*
X874029Y305342D01*
X874091Y305321D01*
X874150Y305290D01*
X874204Y305282D01*
X874241Y305270D01*
X874281Y305271D01*
X874335Y305263D01*
X898644Y305263D01*
X935263Y268644D01*
X935263Y201407D01*
X935270Y201365D01*
X935268Y201323D01*
X935290Y201256D01*
X935302Y201186D01*
X935324Y201150D01*
X935337Y201109D01*
X935391Y201037D01*
X935417Y200993D01*
X935433Y200980D01*
X935449Y200959D01*
X983252Y153155D01*
X983296Y153124D01*
X983334Y153086D01*
X983388Y153061D01*
X983436Y153027D01*
X983489Y153014D01*
X983538Y152991D01*
X983596Y152986D01*
X983653Y152971D01*
X983707Y152977D01*
X983761Y152972D01*
X983830Y152990D01*
X983877Y152994D01*
X983904Y153008D01*
X983943Y153018D01*
X987077Y154316D01*
X991453Y154316D01*
X995496Y152641D01*
X998591Y149546D01*
X1000266Y145503D01*
X1000266Y141127D01*
X998591Y137084D01*
X995496Y133989D01*
X993154Y133019D01*
X993109Y132990D01*
X993059Y132969D01*
X993015Y132930D01*
X992965Y132898D01*
X992933Y132854D01*
X992893Y132818D01*
X992866Y132765D01*
X992831Y132718D01*
X992815Y132666D01*
X992790Y132618D01*
X992780Y132548D01*
X992767Y132503D01*
X992769Y132473D01*
X992763Y132433D01*
X992763Y130157D01*
X992770Y130115D01*
X992768Y130073D01*
X992790Y130006D01*
X992802Y129936D01*
X992824Y129900D01*
X992837Y129859D01*
X992891Y129787D01*
X992917Y129743D01*
X992933Y129730D01*
X992949Y129709D01*
X1009287Y113370D01*
X1009332Y113339D01*
X1009370Y113300D01*
X1009423Y113276D01*
X1009471Y113242D01*
X1009524Y113228D01*
X1009573Y113205D01*
X1009632Y113201D01*
X1009689Y113186D01*
X1009743Y113192D01*
X1009796Y113187D01*
X1009866Y113204D01*
X1009912Y113209D01*
X1009939Y113223D01*
X1009978Y113232D01*
X1010100Y113283D01*
X1012400Y113283D01*
X1014526Y112402D01*
X1016152Y110776D01*
X1017051Y108605D01*
X1017058Y108545D01*
X1017068Y108524D01*
X1017072Y108500D01*
X1017118Y108423D01*
X1017157Y108344D01*
X1017174Y108327D01*
X1017187Y108307D01*
X1017256Y108251D01*
X1017320Y108190D01*
X1017342Y108181D01*
X1017361Y108166D01*
X1017445Y108137D01*
X1017527Y108102D01*
X1017551Y108101D01*
X1017573Y108094D01*
X1017662Y108096D01*
X1017751Y108092D01*
X1017774Y108100D01*
X1017798Y108100D01*
X1017880Y108134D01*
X1017965Y108161D01*
X1017986Y108177D01*
X1018005Y108185D01*
X1018043Y108219D01*
X1018115Y108273D01*
X1032051Y122209D01*
X1032076Y122243D01*
X1032107Y122272D01*
X1032139Y122335D01*
X1032180Y122393D01*
X1032190Y122434D01*
X1032210Y122472D01*
X1032223Y122561D01*
X1032236Y122610D01*
X1032233Y122631D01*
X1032237Y122657D01*
X1032237Y237528D01*
X1032222Y237616D01*
X1032212Y237704D01*
X1032202Y237726D01*
X1032198Y237749D01*
X1032152Y237826D01*
X1032113Y237905D01*
X1032096Y237922D01*
X1032083Y237942D01*
X1032014Y237998D01*
X1031950Y238059D01*
X1031928Y238069D01*
X1031909Y238083D01*
X1031825Y238112D01*
X1031743Y238147D01*
X1031719Y238148D01*
X1031697Y238155D01*
X1031608Y238153D01*
X1031519Y238157D01*
X1031496Y238149D01*
X1031472Y238149D01*
X1031390Y238115D01*
X1031305Y238088D01*
X1031284Y238072D01*
X1031265Y238064D01*
X1031227Y238030D01*
X1031155Y237977D01*
X1030776Y237598D01*
X1028650Y236717D01*
X1026350Y236717D01*
X1024224Y237598D01*
X1023863Y237959D01*
X1023799Y238003D01*
X1023741Y238054D01*
X1023708Y238067D01*
X1023679Y238087D01*
X1023604Y238106D01*
X1023531Y238134D01*
X1023496Y238134D01*
X1023462Y238143D01*
X1023385Y238135D01*
X1023307Y238136D01*
X1023274Y238124D01*
X1023238Y238120D01*
X1023169Y238086D01*
X1023096Y238059D01*
X1023069Y238036D01*
X1023037Y238020D01*
X1022984Y237964D01*
X1022925Y237914D01*
X1022904Y237879D01*
X1022883Y237857D01*
X1022865Y237814D01*
X1022829Y237753D01*
X1022402Y236724D01*
X1020776Y235098D01*
X1019404Y234530D01*
X1019359Y234500D01*
X1019309Y234480D01*
X1019265Y234440D01*
X1019215Y234408D01*
X1019183Y234365D01*
X1019143Y234329D01*
X1019116Y234276D01*
X1019081Y234229D01*
X1019065Y234177D01*
X1019040Y234129D01*
X1019030Y234059D01*
X1019017Y234014D01*
X1019019Y233983D01*
X1019013Y233944D01*
X1019013Y179289D01*
X1019022Y179235D01*
X1019022Y179181D01*
X1019042Y179126D01*
X1019052Y179068D01*
X1019080Y179021D01*
X1019098Y178970D01*
X1019137Y178925D01*
X1019167Y178875D01*
X1019209Y178840D01*
X1019244Y178799D01*
X1019305Y178762D01*
X1019341Y178733D01*
X1019370Y178723D01*
X1019404Y178703D01*
X1019526Y178652D01*
X1021152Y177026D01*
X1022033Y174900D01*
X1022033Y172600D01*
X1021152Y170474D01*
X1019526Y168848D01*
X1017400Y167967D01*
X1015100Y167967D01*
X1012974Y168848D01*
X1011348Y170474D01*
X1010467Y172600D01*
X1010467Y174900D01*
X1011348Y177026D01*
X1012974Y178652D01*
X1013096Y178703D01*
X1013141Y178732D01*
X1013191Y178752D01*
X1013235Y178792D01*
X1013285Y178824D01*
X1013317Y178867D01*
X1013357Y178904D01*
X1013384Y178956D01*
X1013419Y179003D01*
X1013435Y179055D01*
X1013460Y179103D01*
X1013470Y179174D01*
X1013483Y179218D01*
X1013481Y179249D01*
X1013487Y179289D01*
X1013487Y235572D01*
X1013480Y235614D01*
X1013482Y235656D01*
X1013460Y235723D01*
X1013448Y235793D01*
X1013426Y235829D01*
X1013413Y235870D01*
X1013359Y235943D01*
X1013333Y235986D01*
X1013317Y235999D01*
X1013301Y236020D01*
X1012598Y236724D01*
X1011717Y238850D01*
X1011717Y241150D01*
X1012598Y243276D01*
X1012977Y243655D01*
X1013027Y243728D01*
X1013083Y243797D01*
X1013091Y243819D01*
X1013105Y243839D01*
X1013127Y243925D01*
X1013155Y244009D01*
X1013155Y244033D01*
X1013161Y244056D01*
X1013151Y244145D01*
X1013149Y244234D01*
X1013140Y244255D01*
X1013137Y244279D01*
X1013098Y244359D01*
X1013064Y244441D01*
X1013048Y244459D01*
X1013038Y244480D01*
X1012973Y244541D01*
X1012913Y244607D01*
X1012892Y244618D01*
X1012875Y244634D01*
X1012793Y244669D01*
X1012713Y244710D01*
X1012687Y244713D01*
X1012668Y244722D01*
X1012618Y244724D01*
X1012528Y244737D01*
X971586Y244737D01*
X958562Y257761D01*
X958562Y261201D01*
X958553Y261255D01*
X958553Y261309D01*
X958533Y261364D01*
X958523Y261422D01*
X958495Y261469D01*
X958477Y261520D01*
X958438Y261565D01*
X958408Y261615D01*
X958366Y261650D01*
X958331Y261691D01*
X958270Y261728D01*
X958234Y261757D01*
X958205Y261767D01*
X958171Y261787D01*
X958049Y261838D01*
X956423Y263464D01*
X955542Y265590D01*
X955542Y267890D01*
X956423Y270016D01*
X958049Y271642D01*
X960175Y272523D01*
X962475Y272523D01*
X964601Y271642D01*
X966227Y270016D01*
X967108Y267890D01*
X967108Y266244D01*
X967121Y266168D01*
X967127Y266091D01*
X967141Y266059D01*
X967147Y266024D01*
X967187Y265957D01*
X967219Y265886D01*
X967243Y265861D01*
X967262Y265830D01*
X967322Y265782D01*
X967376Y265726D01*
X967408Y265711D01*
X967436Y265689D01*
X967509Y265664D01*
X967579Y265631D01*
X967615Y265628D01*
X967648Y265617D01*
X967726Y265619D01*
X967803Y265613D01*
X967842Y265623D01*
X967873Y265624D01*
X967916Y265641D01*
X967985Y265658D01*
X969130Y266133D01*
X971556Y266133D01*
X971598Y266140D01*
X971641Y266138D01*
X971708Y266160D01*
X971777Y266172D01*
X971814Y266194D01*
X971854Y266207D01*
X971927Y266261D01*
X971970Y266287D01*
X971983Y266302D01*
X971990Y266306D01*
X971993Y266310D01*
X972005Y266319D01*
X983007Y277321D01*
X1009290Y277321D01*
X1009332Y277328D01*
X1009374Y277326D01*
X1009441Y277348D01*
X1009511Y277360D01*
X1009547Y277382D01*
X1009588Y277395D01*
X1009661Y277449D01*
X1009704Y277475D01*
X1009717Y277491D01*
X1009738Y277507D01*
X1011454Y279222D01*
X1013580Y280103D01*
X1015880Y280103D01*
X1018006Y279222D01*
X1019632Y277596D01*
X1020513Y275470D01*
X1020513Y273170D01*
X1019632Y271044D01*
X1018006Y269418D01*
X1015880Y268537D01*
X1013580Y268537D01*
X1011454Y269418D01*
X1009738Y271133D01*
X1009704Y271158D01*
X1009675Y271189D01*
X1009612Y271221D01*
X1009554Y271262D01*
X1009513Y271272D01*
X1009475Y271292D01*
X1009386Y271305D01*
X1009337Y271318D01*
X1009316Y271315D01*
X1009290Y271319D01*
X985756Y271319D01*
X985714Y271312D01*
X985671Y271314D01*
X985604Y271292D01*
X985535Y271280D01*
X985498Y271258D01*
X985458Y271245D01*
X985385Y271191D01*
X985342Y271165D01*
X985328Y271149D01*
X985307Y271133D01*
X976249Y262075D01*
X976224Y262040D01*
X976193Y262011D01*
X976161Y261948D01*
X976120Y261891D01*
X976110Y261850D01*
X976090Y261812D01*
X976077Y261722D01*
X976064Y261673D01*
X976067Y261653D01*
X976063Y261626D01*
X976063Y259200D01*
X975182Y257074D01*
X973556Y255448D01*
X971430Y254567D01*
X971101Y254567D01*
X971013Y254551D01*
X970925Y254542D01*
X970904Y254532D01*
X970880Y254528D01*
X970804Y254482D01*
X970724Y254443D01*
X970707Y254426D01*
X970687Y254413D01*
X970631Y254344D01*
X970570Y254280D01*
X970561Y254258D01*
X970546Y254239D01*
X970517Y254155D01*
X970482Y254073D01*
X970481Y254049D01*
X970474Y254027D01*
X970476Y253938D01*
X970472Y253849D01*
X970480Y253826D01*
X970480Y253802D01*
X970514Y253720D01*
X970541Y253635D01*
X970557Y253614D01*
X970565Y253595D01*
X970599Y253557D01*
X970653Y253485D01*
X973689Y250448D01*
X973716Y250430D01*
X973719Y250426D01*
X973724Y250423D01*
X973752Y250393D01*
X973815Y250361D01*
X973873Y250320D01*
X973914Y250310D01*
X973952Y250290D01*
X974041Y250277D01*
X974090Y250264D01*
X974111Y250267D01*
X974137Y250263D01*
X1028644Y250263D01*
X1030263Y248644D01*
X1030263Y248039D01*
X1030272Y247985D01*
X1030272Y247931D01*
X1030292Y247876D01*
X1030302Y247818D01*
X1030330Y247771D01*
X1030348Y247720D01*
X1030387Y247675D01*
X1030417Y247625D01*
X1030459Y247590D01*
X1030494Y247549D01*
X1030555Y247512D01*
X1030591Y247483D01*
X1030620Y247473D01*
X1030654Y247453D01*
X1030776Y247402D01*
X1031155Y247023D01*
X1031228Y246973D01*
X1031297Y246917D01*
X1031319Y246909D01*
X1031339Y246895D01*
X1031425Y246873D01*
X1031509Y246845D01*
X1031533Y246845D01*
X1031556Y246839D01*
X1031645Y246849D01*
X1031734Y246851D01*
X1031755Y246860D01*
X1031779Y246863D01*
X1031859Y246902D01*
X1031941Y246936D01*
X1031959Y246952D01*
X1031980Y246962D01*
X1032041Y247027D01*
X1032107Y247087D01*
X1032118Y247108D01*
X1032134Y247125D01*
X1032169Y247207D01*
X1032210Y247287D01*
X1032213Y247313D01*
X1032222Y247332D01*
X1032224Y247382D01*
X1032237Y247472D01*
X1032237Y268644D01*
X1034041Y270448D01*
X1035380Y271787D01*
X1035411Y271832D01*
X1035450Y271870D01*
X1035475Y271923D01*
X1035508Y271971D01*
X1035522Y272024D01*
X1035545Y272073D01*
X1035549Y272132D01*
X1035564Y272189D01*
X1035559Y272243D01*
X1035563Y272297D01*
X1035546Y272366D01*
X1035541Y272412D01*
X1035527Y272439D01*
X1035518Y272478D01*
X1035467Y272600D01*
X1035467Y274900D01*
X1036348Y277026D01*
X1037974Y278652D01*
X1040100Y279533D01*
X1040323Y279533D01*
X1040365Y279540D01*
X1040407Y279538D01*
X1040474Y279560D01*
X1040544Y279572D01*
X1040580Y279594D01*
X1040621Y279607D01*
X1040694Y279661D01*
X1040737Y279687D01*
X1040750Y279703D01*
X1040771Y279719D01*
X1043301Y282249D01*
X1043326Y282283D01*
X1043357Y282312D01*
X1043389Y282375D01*
X1043430Y282433D01*
X1043440Y282474D01*
X1043460Y282512D01*
X1043473Y282601D01*
X1043486Y282650D01*
X1043483Y282671D01*
X1043487Y282697D01*
X1043487Y435028D01*
X1043472Y435116D01*
X1043462Y435204D01*
X1043452Y435226D01*
X1043448Y435249D01*
X1043402Y435326D01*
X1043363Y435405D01*
X1043346Y435422D01*
X1043333Y435442D01*
X1043264Y435498D01*
X1043200Y435559D01*
X1043178Y435569D01*
X1043159Y435583D01*
X1043075Y435612D01*
X1042993Y435647D01*
X1042969Y435648D01*
X1042947Y435655D01*
X1042858Y435653D01*
X1042769Y435657D01*
X1042746Y435649D01*
X1042722Y435649D01*
X1042640Y435615D01*
X1042555Y435588D01*
X1042534Y435572D01*
X1042515Y435564D01*
X1042477Y435530D01*
X1042405Y435477D01*
X1042026Y435098D01*
X1039900Y434217D01*
X1037600Y434217D01*
X1037478Y434268D01*
X1037426Y434279D01*
X1037376Y434300D01*
X1037317Y434303D01*
X1037259Y434315D01*
X1037206Y434308D01*
X1037151Y434310D01*
X1037095Y434292D01*
X1037037Y434284D01*
X1036989Y434258D01*
X1036938Y434242D01*
X1036881Y434199D01*
X1036840Y434177D01*
X1036819Y434154D01*
X1036787Y434130D01*
X932120Y329463D01*
X932089Y329418D01*
X932050Y329380D01*
X932025Y329327D01*
X931992Y329279D01*
X931978Y329226D01*
X931955Y329177D01*
X931951Y329118D01*
X931936Y329061D01*
X931941Y329007D01*
X931937Y328953D01*
X931954Y328884D01*
X931959Y328838D01*
X931973Y328811D01*
X931982Y328772D01*
X932033Y328650D01*
X932033Y326350D01*
X931152Y324224D01*
X929526Y322598D01*
X927400Y321717D01*
X925100Y321717D01*
X922974Y322598D01*
X921348Y324224D01*
X920467Y326350D01*
X920467Y328650D01*
X921348Y330776D01*
X922974Y332402D01*
X925100Y333283D01*
X927400Y333283D01*
X927522Y333232D01*
X927574Y333221D01*
X927624Y333200D01*
X927683Y333197D01*
X927741Y333185D01*
X927794Y333192D01*
X927849Y333190D01*
X927905Y333208D01*
X927963Y333216D01*
X928011Y333242D01*
X928062Y333258D01*
X928119Y333301D01*
X928160Y333323D01*
X928181Y333346D01*
X928213Y333370D01*
X1032880Y438037D01*
X1032911Y438082D01*
X1032950Y438120D01*
X1032975Y438173D01*
X1033008Y438221D01*
X1033022Y438274D01*
X1033045Y438323D01*
X1033049Y438382D01*
X1033064Y438439D01*
X1033059Y438493D01*
X1033063Y438547D01*
X1033046Y438616D01*
X1033041Y438662D01*
X1033027Y438689D01*
X1033018Y438728D01*
X1032967Y438850D01*
X1032967Y441150D01*
X1033848Y443276D01*
X1035474Y444902D01*
X1037600Y445783D01*
X1039900Y445783D01*
X1042026Y444902D01*
X1042405Y444523D01*
X1042478Y444473D01*
X1042547Y444417D01*
X1042569Y444409D01*
X1042589Y444395D01*
X1042675Y444373D01*
X1042759Y444345D01*
X1042783Y444345D01*
X1042806Y444339D01*
X1042895Y444349D01*
X1042984Y444351D01*
X1043005Y444360D01*
X1043029Y444363D01*
X1043109Y444402D01*
X1043191Y444436D01*
X1043209Y444452D01*
X1043230Y444462D01*
X1043291Y444527D01*
X1043357Y444587D01*
X1043368Y444608D01*
X1043384Y444625D01*
X1043419Y444707D01*
X1043460Y444787D01*
X1043463Y444813D01*
X1043472Y444832D01*
X1043474Y444882D01*
X1043478Y444910D01*
X1043480Y444917D01*
X1043480Y444924D01*
X1043487Y444972D01*
X1043487Y496444D01*
X1043478Y496497D01*
X1043478Y496551D01*
X1043458Y496607D01*
X1043448Y496664D01*
X1043420Y496711D01*
X1043402Y496762D01*
X1043363Y496807D01*
X1043333Y496858D01*
X1043291Y496892D01*
X1043256Y496933D01*
X1043195Y496970D01*
X1043159Y496999D01*
X1043130Y497009D01*
X1043096Y497030D01*
X1041724Y497598D01*
X1040098Y499224D01*
X1039217Y501350D01*
X1039217Y503650D01*
X1040098Y505776D01*
X1041724Y507402D01*
X1043850Y508283D01*
X1046150Y508283D01*
X1048276Y507402D01*
X1049902Y505776D01*
X1050783Y503650D01*
X1050783Y501350D01*
X1049902Y499224D01*
X1049199Y498521D01*
X1049174Y498486D01*
X1049143Y498457D01*
X1049111Y498394D01*
X1049070Y498336D01*
X1049060Y498295D01*
X1049040Y498257D01*
X1049027Y498168D01*
X1049014Y498119D01*
X1049017Y498098D01*
X1049013Y498072D01*
X1049013Y280146D01*
X1047209Y278342D01*
X1047209Y278341D01*
X1046376Y277509D01*
X1046345Y277465D01*
X1046306Y277426D01*
X1046282Y277373D01*
X1046248Y277325D01*
X1046234Y277272D01*
X1046211Y277223D01*
X1046207Y277164D01*
X1046192Y277107D01*
X1046198Y277054D01*
X1046193Y277000D01*
X1046210Y276931D01*
X1046215Y276884D01*
X1046229Y276857D01*
X1046238Y276818D01*
X1047033Y274900D01*
X1047033Y272600D01*
X1046152Y270474D01*
X1044526Y268848D01*
X1042400Y267967D01*
X1040100Y267967D01*
X1039978Y268018D01*
X1039957Y268022D01*
X1039948Y268027D01*
X1039921Y268031D01*
X1039876Y268050D01*
X1039817Y268053D01*
X1039759Y268065D01*
X1039706Y268058D01*
X1039651Y268060D01*
X1039595Y268042D01*
X1039537Y268034D01*
X1039489Y268008D01*
X1039438Y267992D01*
X1039381Y267949D01*
X1039340Y267927D01*
X1039324Y267909D01*
X1039311Y267901D01*
X1039303Y267892D01*
X1039287Y267880D01*
X1037948Y266541D01*
X1037924Y266507D01*
X1037893Y266478D01*
X1037861Y266415D01*
X1037820Y266357D01*
X1037810Y266316D01*
X1037790Y266278D01*
X1037777Y266189D01*
X1037764Y266140D01*
X1037767Y266119D01*
X1037763Y266093D01*
X1037763Y120106D01*
X995179Y77522D01*
X995135Y77458D01*
X995084Y77400D01*
X995071Y77367D01*
X995051Y77338D01*
X995031Y77263D01*
X995004Y77190D01*
X995004Y77155D01*
X994995Y77120D01*
X995003Y77043D01*
X995002Y76966D01*
X995014Y76932D01*
X995018Y76897D01*
X995052Y76828D01*
X995079Y76755D01*
X995102Y76728D01*
X995117Y76696D01*
X995174Y76643D01*
X995224Y76584D01*
X995259Y76563D01*
X995281Y76542D01*
X995323Y76524D01*
X995385Y76487D01*
X995497Y76441D01*
X998591Y73346D01*
X1000266Y69303D01*
X1000266Y64927D01*
X998591Y60884D01*
X995496Y57789D01*
X991453Y56114D01*
X987077Y56114D01*
G37*
%LPD*%
%LPC*%
G36*
X747717Y192318D02*
X747717Y192318D01*
X741858Y198177D01*
X741858Y206463D01*
X742171Y206775D01*
X742208Y206829D01*
X742253Y206877D01*
X742272Y206921D01*
X742299Y206959D01*
X742315Y207023D01*
X742341Y207084D01*
X742343Y207131D01*
X742355Y207177D01*
X742348Y207242D01*
X742351Y207308D01*
X742336Y207353D01*
X742331Y207400D01*
X742302Y207459D01*
X742282Y207522D01*
X742249Y207566D01*
X742232Y207601D01*
X742203Y207628D01*
X742171Y207672D01*
X739041Y210802D01*
X737237Y212606D01*
X737237Y228211D01*
X737228Y228265D01*
X737228Y228319D01*
X737208Y228374D01*
X737198Y228432D01*
X737170Y228479D01*
X737152Y228530D01*
X737113Y228575D01*
X737083Y228625D01*
X737041Y228660D01*
X737006Y228701D01*
X736945Y228738D01*
X736909Y228767D01*
X736880Y228777D01*
X736846Y228797D01*
X736724Y228848D01*
X735098Y230474D01*
X734217Y232600D01*
X734217Y234900D01*
X735098Y237026D01*
X736724Y238652D01*
X738850Y239533D01*
X741150Y239533D01*
X741272Y239482D01*
X741324Y239471D01*
X741374Y239450D01*
X741433Y239447D01*
X741491Y239435D01*
X741544Y239442D01*
X741599Y239440D01*
X741655Y239458D01*
X741713Y239466D01*
X741761Y239492D01*
X741812Y239508D01*
X741869Y239551D01*
X741910Y239573D01*
X741931Y239596D01*
X741963Y239620D01*
X751727Y249385D01*
X751778Y249458D01*
X751834Y249527D01*
X751842Y249549D01*
X751856Y249569D01*
X751878Y249655D01*
X751906Y249739D01*
X751906Y249763D01*
X751911Y249786D01*
X751902Y249875D01*
X751900Y249964D01*
X751891Y249986D01*
X751888Y250009D01*
X751849Y250089D01*
X751815Y250171D01*
X751799Y250189D01*
X751789Y250210D01*
X751724Y250271D01*
X751664Y250337D01*
X751643Y250348D01*
X751626Y250364D01*
X751544Y250399D01*
X751464Y250440D01*
X751438Y250443D01*
X751419Y250452D01*
X751384Y250453D01*
X749224Y251348D01*
X747598Y252974D01*
X746717Y255100D01*
X746717Y257400D01*
X747598Y259526D01*
X749224Y261152D01*
X751350Y262033D01*
X752853Y262033D01*
X752918Y262044D01*
X752984Y262046D01*
X753027Y262064D01*
X753074Y262072D01*
X753131Y262106D01*
X753191Y262131D01*
X753226Y262162D01*
X753267Y262187D01*
X753309Y262238D01*
X753357Y262282D01*
X753379Y262324D01*
X753408Y262361D01*
X753429Y262423D01*
X753460Y262482D01*
X753468Y262536D01*
X753480Y262573D01*
X753479Y262613D01*
X753487Y262667D01*
X753487Y346895D01*
X753476Y346960D01*
X753474Y347026D01*
X753456Y347069D01*
X753448Y347116D01*
X753414Y347173D01*
X753389Y347233D01*
X753358Y347268D01*
X753333Y347309D01*
X753282Y347351D01*
X753238Y347399D01*
X753196Y347421D01*
X753159Y347450D01*
X753097Y347471D01*
X753038Y347502D01*
X752984Y347510D01*
X752947Y347522D01*
X752907Y347521D01*
X752853Y347529D01*
X752715Y347529D01*
X747569Y349661D01*
X743631Y353599D01*
X741499Y358745D01*
X741499Y364315D01*
X743615Y369424D01*
X743627Y369477D01*
X743648Y369527D01*
X743651Y369585D01*
X743663Y369643D01*
X743656Y369697D01*
X743658Y369751D01*
X743640Y369807D01*
X743632Y369865D01*
X743606Y369913D01*
X743589Y369964D01*
X743547Y370021D01*
X743525Y370062D01*
X743502Y370083D01*
X743478Y370115D01*
X697791Y415801D01*
X695987Y417606D01*
X695987Y539585D01*
X695976Y539650D01*
X695974Y539716D01*
X695956Y539759D01*
X695948Y539806D01*
X695914Y539863D01*
X695889Y539923D01*
X695858Y539958D01*
X695833Y539999D01*
X695782Y540041D01*
X695738Y540089D01*
X695696Y540111D01*
X695659Y540140D01*
X695597Y540161D01*
X695538Y540192D01*
X695484Y540200D01*
X695447Y540212D01*
X695407Y540211D01*
X695353Y540219D01*
X693983Y540219D01*
X685257Y542557D01*
X677433Y547075D01*
X671045Y553463D01*
X666527Y561287D01*
X664189Y570013D01*
X664189Y579047D01*
X666527Y587773D01*
X671045Y595597D01*
X677433Y601985D01*
X685257Y606503D01*
X693983Y608841D01*
X703017Y608841D01*
X711743Y606503D01*
X719567Y601985D01*
X725955Y595597D01*
X730473Y587773D01*
X732811Y579047D01*
X732811Y570013D01*
X730473Y561287D01*
X725955Y553463D01*
X719567Y547075D01*
X711743Y542557D01*
X703017Y540219D01*
X702147Y540219D01*
X702082Y540208D01*
X702016Y540206D01*
X701973Y540188D01*
X701926Y540180D01*
X701869Y540146D01*
X701809Y540121D01*
X701774Y540090D01*
X701733Y540065D01*
X701691Y540014D01*
X701643Y539970D01*
X701621Y539928D01*
X701592Y539891D01*
X701571Y539829D01*
X701540Y539770D01*
X701532Y539716D01*
X701520Y539679D01*
X701521Y539639D01*
X701513Y539585D01*
X701513Y420157D01*
X701520Y420115D01*
X701518Y420073D01*
X701540Y420006D01*
X701552Y419936D01*
X701574Y419900D01*
X701587Y419859D01*
X701641Y419787D01*
X701667Y419743D01*
X701683Y419730D01*
X701699Y419709D01*
X747580Y373827D01*
X747624Y373797D01*
X747662Y373758D01*
X747716Y373733D01*
X747764Y373699D01*
X747816Y373686D01*
X747865Y373663D01*
X747924Y373658D01*
X747981Y373643D01*
X748035Y373649D01*
X748089Y373645D01*
X748158Y373662D01*
X748204Y373667D01*
X748232Y373680D01*
X748271Y373690D01*
X752715Y375531D01*
X758285Y375531D01*
X763431Y373399D01*
X767369Y369461D01*
X769501Y364315D01*
X769501Y358745D01*
X767369Y353599D01*
X763431Y349661D01*
X759404Y347993D01*
X759359Y347964D01*
X759309Y347943D01*
X759265Y347904D01*
X759215Y347872D01*
X759183Y347828D01*
X759143Y347792D01*
X759116Y347740D01*
X759081Y347692D01*
X759065Y347641D01*
X759040Y347592D01*
X759030Y347522D01*
X759017Y347477D01*
X759019Y347447D01*
X759013Y347407D01*
X759013Y258856D01*
X758370Y258213D01*
X758339Y258168D01*
X758300Y258130D01*
X758276Y258077D01*
X758242Y258029D01*
X758228Y257976D01*
X758205Y257927D01*
X758201Y257868D01*
X758186Y257811D01*
X758192Y257757D01*
X758187Y257704D01*
X758204Y257634D01*
X758209Y257588D01*
X758223Y257561D01*
X758232Y257522D01*
X758301Y257355D01*
X758308Y257295D01*
X758318Y257274D01*
X758322Y257250D01*
X758368Y257173D01*
X758407Y257094D01*
X758424Y257077D01*
X758437Y257057D01*
X758506Y257001D01*
X758570Y256940D01*
X758592Y256931D01*
X758611Y256916D01*
X758695Y256887D01*
X758777Y256852D01*
X758801Y256851D01*
X758823Y256844D01*
X758912Y256846D01*
X759001Y256842D01*
X759024Y256850D01*
X759048Y256850D01*
X759130Y256884D01*
X759215Y256911D01*
X759236Y256927D01*
X759255Y256935D01*
X759293Y256969D01*
X759365Y257023D01*
X809551Y307209D01*
X809576Y307243D01*
X809607Y307272D01*
X809639Y307335D01*
X809680Y307393D01*
X809690Y307434D01*
X809710Y307472D01*
X809723Y307561D01*
X809736Y307610D01*
X809733Y307631D01*
X809737Y307657D01*
X809737Y474894D01*
X876171Y541328D01*
X876174Y541333D01*
X876179Y541337D01*
X876239Y541425D01*
X876299Y541512D01*
X876300Y541518D01*
X876304Y541523D01*
X876328Y541627D01*
X876355Y541729D01*
X876354Y541735D01*
X876355Y541742D01*
X876342Y541848D01*
X876331Y541952D01*
X876329Y541958D01*
X876328Y541964D01*
X876279Y542059D01*
X876232Y542153D01*
X876227Y542158D01*
X876224Y542163D01*
X876146Y542234D01*
X876069Y542307D01*
X876063Y542310D01*
X876058Y542314D01*
X875886Y542389D01*
X875257Y542557D01*
X867433Y547075D01*
X861045Y553463D01*
X856527Y561287D01*
X854189Y570013D01*
X854189Y579047D01*
X856527Y587773D01*
X861045Y595597D01*
X867433Y601985D01*
X875257Y606503D01*
X883983Y608841D01*
X893017Y608841D01*
X901743Y606503D01*
X909567Y601985D01*
X915955Y595597D01*
X920473Y587773D01*
X922811Y579047D01*
X922811Y570013D01*
X920473Y561287D01*
X915955Y553463D01*
X909567Y547075D01*
X901743Y542557D01*
X893017Y540219D01*
X883983Y540219D01*
X883464Y540358D01*
X883451Y540359D01*
X883440Y540364D01*
X883340Y540369D01*
X883240Y540377D01*
X883228Y540374D01*
X883216Y540374D01*
X883121Y540344D01*
X883024Y540317D01*
X883014Y540310D01*
X883002Y540306D01*
X882851Y540194D01*
X815449Y472791D01*
X815424Y472757D01*
X815393Y472728D01*
X815361Y472665D01*
X815320Y472607D01*
X815310Y472566D01*
X815290Y472528D01*
X815277Y472439D01*
X815264Y472390D01*
X815267Y472369D01*
X815263Y472343D01*
X815263Y305106D01*
X813459Y303301D01*
X745870Y235713D01*
X745839Y235668D01*
X745800Y235630D01*
X745775Y235577D01*
X745742Y235529D01*
X745728Y235476D01*
X745705Y235427D01*
X745701Y235368D01*
X745686Y235311D01*
X745691Y235257D01*
X745687Y235203D01*
X745704Y235134D01*
X745709Y235088D01*
X745723Y235061D01*
X745732Y235022D01*
X745783Y234900D01*
X745783Y232600D01*
X744902Y230474D01*
X743276Y228848D01*
X743154Y228797D01*
X743109Y228768D01*
X743059Y228748D01*
X743015Y228708D01*
X742965Y228676D01*
X742933Y228633D01*
X742893Y228596D01*
X742866Y228544D01*
X742831Y228497D01*
X742815Y228445D01*
X742790Y228397D01*
X742780Y228326D01*
X742767Y228282D01*
X742769Y228251D01*
X742763Y228211D01*
X742763Y215157D01*
X742770Y215115D01*
X742768Y215073D01*
X742790Y215006D01*
X742802Y214936D01*
X742824Y214900D01*
X742837Y214859D01*
X742891Y214786D01*
X742917Y214743D01*
X742933Y214730D01*
X742948Y214709D01*
X746078Y211579D01*
X746132Y211542D01*
X746180Y211497D01*
X746223Y211478D01*
X746262Y211451D01*
X746326Y211435D01*
X746386Y211409D01*
X746434Y211407D01*
X746479Y211395D01*
X746545Y211402D01*
X746610Y211399D01*
X746655Y211414D01*
X746702Y211419D01*
X746761Y211448D01*
X746824Y211468D01*
X746868Y211501D01*
X746904Y211518D01*
X746931Y211547D01*
X746975Y211579D01*
X747717Y212322D01*
X756003Y212322D01*
X761862Y206463D01*
X761862Y198177D01*
X756003Y192318D01*
X747717Y192318D01*
G37*
%LPD*%
%LPC*%
G36*
X595942Y282273D02*
X595942Y282273D01*
X590083Y288132D01*
X590083Y296418D01*
X595942Y302277D01*
X602853Y302277D01*
X602918Y302288D01*
X602984Y302290D01*
X603027Y302308D01*
X603074Y302316D01*
X603131Y302350D01*
X603191Y302375D01*
X603226Y302406D01*
X603267Y302431D01*
X603309Y302482D01*
X603357Y302526D01*
X603379Y302568D01*
X603408Y302605D01*
X603429Y302667D01*
X603460Y302726D01*
X603468Y302780D01*
X603480Y302817D01*
X603480Y302843D01*
X603480Y302845D01*
X603480Y302861D01*
X603487Y302911D01*
X603487Y376278D01*
X603472Y376366D01*
X603462Y376454D01*
X603452Y376476D01*
X603448Y376499D01*
X603402Y376576D01*
X603363Y376655D01*
X603346Y376672D01*
X603333Y376692D01*
X603264Y376748D01*
X603200Y376809D01*
X603178Y376819D01*
X603159Y376833D01*
X603075Y376862D01*
X602993Y376897D01*
X602969Y376898D01*
X602947Y376905D01*
X602858Y376903D01*
X602769Y376907D01*
X602746Y376899D01*
X602722Y376899D01*
X602640Y376865D01*
X602555Y376838D01*
X602534Y376822D01*
X602515Y376814D01*
X602477Y376780D01*
X602405Y376727D01*
X602026Y376348D01*
X601904Y376297D01*
X601859Y376268D01*
X601809Y376248D01*
X601765Y376208D01*
X601715Y376176D01*
X601683Y376133D01*
X601643Y376096D01*
X601616Y376044D01*
X601581Y375997D01*
X601565Y375945D01*
X601540Y375897D01*
X601530Y375826D01*
X601517Y375782D01*
X601519Y375751D01*
X601513Y375711D01*
X601513Y375106D01*
X580870Y354463D01*
X580839Y354418D01*
X580800Y354380D01*
X580776Y354327D01*
X580742Y354279D01*
X580728Y354226D01*
X580705Y354177D01*
X580701Y354118D01*
X580686Y354061D01*
X580692Y354007D01*
X580687Y353954D01*
X580704Y353884D01*
X580709Y353838D01*
X580723Y353811D01*
X580732Y353772D01*
X580783Y353650D01*
X580783Y351350D01*
X579902Y349224D01*
X578276Y347598D01*
X576150Y346717D01*
X573850Y346717D01*
X571724Y347598D01*
X570098Y349224D01*
X569217Y351350D01*
X569217Y353650D01*
X570098Y355776D01*
X571724Y357402D01*
X573850Y358283D01*
X576150Y358283D01*
X576272Y358232D01*
X576325Y358221D01*
X576374Y358200D01*
X576433Y358197D01*
X576491Y358185D01*
X576544Y358192D01*
X576599Y358190D01*
X576655Y358208D01*
X576713Y358216D01*
X576761Y358242D01*
X576812Y358258D01*
X576869Y358301D01*
X576910Y358323D01*
X576930Y358346D01*
X576963Y358370D01*
X594759Y376166D01*
X594797Y376220D01*
X594842Y376268D01*
X594860Y376311D01*
X594887Y376350D01*
X594903Y376414D01*
X594929Y376475D01*
X594931Y376522D01*
X594943Y376568D01*
X594936Y376633D01*
X594939Y376699D01*
X594925Y376744D01*
X594920Y376791D01*
X594891Y376850D01*
X594870Y376912D01*
X594838Y376956D01*
X594820Y376992D01*
X594792Y377019D01*
X594759Y377063D01*
X593848Y377974D01*
X592967Y380100D01*
X592967Y382400D01*
X593848Y384526D01*
X595474Y386152D01*
X597600Y387033D01*
X599900Y387033D01*
X602026Y386152D01*
X602405Y385773D01*
X602478Y385723D01*
X602547Y385667D01*
X602569Y385659D01*
X602589Y385645D01*
X602675Y385623D01*
X602759Y385595D01*
X602783Y385595D01*
X602806Y385589D01*
X602895Y385599D01*
X602984Y385601D01*
X603005Y385610D01*
X603029Y385613D01*
X603109Y385652D01*
X603191Y385686D01*
X603209Y385702D01*
X603230Y385712D01*
X603291Y385777D01*
X603357Y385837D01*
X603368Y385858D01*
X603384Y385875D01*
X603419Y385957D01*
X603460Y386037D01*
X603463Y386063D01*
X603472Y386082D01*
X603474Y386132D01*
X603487Y386222D01*
X603487Y394843D01*
X603480Y394885D01*
X603482Y394927D01*
X603460Y394994D01*
X603448Y395064D01*
X603426Y395100D01*
X603413Y395141D01*
X603359Y395213D01*
X603333Y395257D01*
X603317Y395270D01*
X603301Y395291D01*
X374509Y624084D01*
X374498Y624091D01*
X374491Y624102D01*
X374406Y624155D01*
X374325Y624212D01*
X374312Y624215D01*
X374301Y624222D01*
X374204Y624243D01*
X374107Y624268D01*
X374095Y624267D01*
X374082Y624270D01*
X373992Y624259D01*
X364903Y624259D01*
X356177Y626597D01*
X348353Y631115D01*
X341965Y637503D01*
X337447Y645327D01*
X335109Y654053D01*
X335109Y663087D01*
X337447Y671813D01*
X341965Y679637D01*
X348353Y686025D01*
X356177Y690543D01*
X364903Y692881D01*
X373937Y692881D01*
X382663Y690543D01*
X390487Y686025D01*
X396875Y679637D01*
X401393Y671813D01*
X403731Y663087D01*
X403731Y654053D01*
X401393Y645327D01*
X396875Y637503D01*
X390487Y631115D01*
X382663Y626597D01*
X381474Y626279D01*
X381468Y626276D01*
X381462Y626275D01*
X381367Y626228D01*
X381271Y626183D01*
X381266Y626179D01*
X381261Y626176D01*
X381188Y626099D01*
X381114Y626023D01*
X381111Y626017D01*
X381107Y626013D01*
X381066Y625915D01*
X381022Y625818D01*
X381022Y625812D01*
X381019Y625806D01*
X381015Y625700D01*
X381008Y625594D01*
X381010Y625588D01*
X381009Y625582D01*
X381042Y625481D01*
X381072Y625379D01*
X381076Y625374D01*
X381078Y625368D01*
X381189Y625218D01*
X609013Y397394D01*
X609013Y297755D01*
X609020Y297713D01*
X609018Y297670D01*
X609040Y297603D01*
X609052Y297534D01*
X609074Y297497D01*
X609087Y297457D01*
X609141Y297384D01*
X609167Y297341D01*
X609183Y297327D01*
X609199Y297306D01*
X609647Y296858D01*
X609701Y296821D01*
X609748Y296775D01*
X609792Y296757D01*
X609831Y296730D01*
X609894Y296714D01*
X609955Y296688D01*
X610002Y296686D01*
X610048Y296674D01*
X610113Y296681D01*
X610179Y296678D01*
X610224Y296692D01*
X610271Y296697D01*
X610330Y296726D01*
X610393Y296747D01*
X610437Y296779D01*
X610472Y296797D01*
X610499Y296825D01*
X610543Y296858D01*
X616287Y302602D01*
X624573Y302602D01*
X630432Y296743D01*
X630432Y288457D01*
X624573Y282598D01*
X616287Y282598D01*
X610868Y288017D01*
X610815Y288054D01*
X610767Y288100D01*
X610723Y288118D01*
X610684Y288145D01*
X610621Y288161D01*
X610560Y288187D01*
X610513Y288189D01*
X610467Y288201D01*
X610402Y288194D01*
X610336Y288197D01*
X610291Y288183D01*
X610244Y288178D01*
X610185Y288149D01*
X610122Y288128D01*
X610078Y288096D01*
X610043Y288078D01*
X610016Y288050D01*
X609972Y288017D01*
X604228Y282273D01*
X595942Y282273D01*
G37*
%LPD*%
%LPC*%
G36*
X266498Y363544D02*
X266498Y363544D01*
X261904Y365447D01*
X258387Y368964D01*
X256484Y373558D01*
X256484Y378532D01*
X257366Y380659D01*
X257377Y380712D01*
X257398Y380762D01*
X257401Y380821D01*
X257413Y380878D01*
X257406Y380932D01*
X257408Y380986D01*
X257390Y381042D01*
X257382Y381101D01*
X257356Y381148D01*
X257340Y381200D01*
X257297Y381257D01*
X257275Y381298D01*
X257252Y381318D01*
X257228Y381350D01*
X257055Y381524D01*
X254209Y384369D01*
X254209Y433958D01*
X254192Y434052D01*
X254181Y434147D01*
X254173Y434162D01*
X254170Y434179D01*
X254121Y434261D01*
X254077Y434346D01*
X254064Y434357D01*
X254055Y434372D01*
X253982Y434432D01*
X253911Y434496D01*
X253893Y434504D01*
X253881Y434514D01*
X253834Y434530D01*
X253739Y434571D01*
X246177Y436597D01*
X238353Y441115D01*
X231965Y447503D01*
X227447Y455327D01*
X225109Y464053D01*
X225109Y473087D01*
X227447Y481813D01*
X231965Y489637D01*
X238353Y496025D01*
X246177Y500543D01*
X254903Y502881D01*
X263937Y502881D01*
X272663Y500543D01*
X280487Y496025D01*
X286875Y489637D01*
X291393Y481813D01*
X293731Y473087D01*
X293731Y464053D01*
X291393Y455327D01*
X286875Y447503D01*
X280487Y441115D01*
X272663Y436597D01*
X263937Y434259D01*
X263925Y434259D01*
X263860Y434248D01*
X263794Y434246D01*
X263751Y434228D01*
X263704Y434220D01*
X263647Y434186D01*
X263587Y434161D01*
X263552Y434130D01*
X263511Y434105D01*
X263469Y434054D01*
X263421Y434010D01*
X263399Y433968D01*
X263370Y433931D01*
X263349Y433869D01*
X263318Y433810D01*
X263310Y433756D01*
X263298Y433719D01*
X263299Y433690D01*
X263298Y433688D01*
X263298Y433674D01*
X263291Y433625D01*
X263291Y388394D01*
X263298Y388352D01*
X263296Y388309D01*
X263318Y388242D01*
X263330Y388173D01*
X263352Y388136D01*
X263365Y388096D01*
X263419Y388023D01*
X263445Y387980D01*
X263461Y387966D01*
X263476Y387945D01*
X263637Y387784D01*
X263682Y387753D01*
X263720Y387715D01*
X263773Y387690D01*
X263821Y387656D01*
X263874Y387643D01*
X263923Y387620D01*
X263982Y387615D01*
X264039Y387600D01*
X264093Y387606D01*
X264147Y387602D01*
X264215Y387619D01*
X264262Y387624D01*
X264289Y387637D01*
X264328Y387647D01*
X266498Y388546D01*
X271472Y388546D01*
X276066Y386643D01*
X279583Y383126D01*
X281486Y378532D01*
X281486Y373558D01*
X279583Y368964D01*
X276066Y365447D01*
X271472Y363544D01*
X266498Y363544D01*
G37*
%LPD*%
%LPC*%
G36*
X364903Y434259D02*
X364903Y434259D01*
X356177Y436597D01*
X348353Y441115D01*
X341965Y447503D01*
X337447Y455327D01*
X335109Y464053D01*
X335109Y473087D01*
X337447Y481813D01*
X341965Y489637D01*
X348353Y496025D01*
X356177Y500543D01*
X364903Y502881D01*
X373937Y502881D01*
X382663Y500543D01*
X390487Y496025D01*
X396875Y489637D01*
X401393Y481813D01*
X403731Y473087D01*
X403731Y464053D01*
X401393Y455327D01*
X396875Y447503D01*
X390487Y441115D01*
X382663Y436597D01*
X373937Y434259D01*
X364903Y434259D01*
G37*
%LPD*%
%LPC*%
G36*
X254903Y624259D02*
X254903Y624259D01*
X246177Y626597D01*
X238353Y631115D01*
X231965Y637503D01*
X227447Y645327D01*
X225109Y654053D01*
X225109Y663087D01*
X227447Y671813D01*
X231965Y679637D01*
X238353Y686025D01*
X246177Y690543D01*
X254903Y692881D01*
X263937Y692881D01*
X272663Y690543D01*
X280487Y686025D01*
X286875Y679637D01*
X291393Y671813D01*
X293731Y663087D01*
X293731Y654053D01*
X291393Y645327D01*
X286875Y637503D01*
X280487Y631115D01*
X272663Y626597D01*
X263937Y624259D01*
X254903Y624259D01*
G37*
%LPD*%
%LPC*%
G36*
X883983Y650219D02*
X883983Y650219D01*
X875257Y652557D01*
X867433Y657075D01*
X861045Y663463D01*
X856527Y671287D01*
X854189Y680013D01*
X854189Y689047D01*
X856527Y697773D01*
X861045Y705597D01*
X867433Y711985D01*
X875257Y716503D01*
X883983Y718841D01*
X893017Y718841D01*
X901743Y716503D01*
X909567Y711985D01*
X915955Y705597D01*
X920473Y697773D01*
X922811Y689047D01*
X922811Y680013D01*
X920473Y671287D01*
X915955Y663463D01*
X909567Y657075D01*
X901743Y652557D01*
X893017Y650219D01*
X883983Y650219D01*
G37*
%LPD*%
%LPC*%
G36*
X693983Y650219D02*
X693983Y650219D01*
X685257Y652557D01*
X677433Y657075D01*
X671045Y663463D01*
X666527Y671287D01*
X664189Y680013D01*
X664189Y689047D01*
X666527Y697773D01*
X671045Y705597D01*
X677433Y711985D01*
X685257Y716503D01*
X693983Y718841D01*
X703017Y718841D01*
X711743Y716503D01*
X719567Y711985D01*
X725955Y705597D01*
X730473Y697773D01*
X732811Y689047D01*
X732811Y680013D01*
X730473Y671287D01*
X725955Y663463D01*
X719567Y657075D01*
X711743Y652557D01*
X703017Y650219D01*
X693983Y650219D01*
G37*
%LPD*%
%LPC*%
G36*
X614092Y63359D02*
X614092Y63359D01*
X610586Y64812D01*
X607902Y67496D01*
X606449Y71002D01*
X606449Y89878D01*
X607902Y93384D01*
X610586Y96068D01*
X611846Y96590D01*
X611891Y96619D01*
X611941Y96640D01*
X611985Y96680D01*
X612035Y96711D01*
X612067Y96755D01*
X612107Y96791D01*
X612134Y96844D01*
X612169Y96891D01*
X612185Y96943D01*
X612210Y96991D01*
X612220Y97061D01*
X612233Y97106D01*
X612231Y97136D01*
X612237Y97176D01*
X612237Y182343D01*
X612230Y182385D01*
X612232Y182427D01*
X612210Y182494D01*
X612198Y182564D01*
X612176Y182600D01*
X612163Y182641D01*
X612109Y182713D01*
X612083Y182757D01*
X612067Y182770D01*
X612051Y182791D01*
X608213Y186630D01*
X608168Y186661D01*
X608130Y186700D01*
X608077Y186725D01*
X608029Y186758D01*
X607976Y186772D01*
X607927Y186795D01*
X607868Y186799D01*
X607811Y186814D01*
X607757Y186809D01*
X607703Y186813D01*
X607634Y186796D01*
X607588Y186791D01*
X607561Y186777D01*
X607522Y186768D01*
X607400Y186717D01*
X605100Y186717D01*
X602974Y187598D01*
X601348Y189224D01*
X600467Y191350D01*
X600467Y193650D01*
X601348Y195776D01*
X602974Y197402D01*
X605100Y198283D01*
X607400Y198283D01*
X609526Y197402D01*
X611152Y195776D01*
X612033Y193650D01*
X612033Y191350D01*
X611982Y191228D01*
X611971Y191176D01*
X611950Y191126D01*
X611947Y191067D01*
X611935Y191009D01*
X611942Y190956D01*
X611940Y190901D01*
X611958Y190845D01*
X611966Y190787D01*
X611992Y190739D01*
X612008Y190688D01*
X612051Y190631D01*
X612073Y190590D01*
X612096Y190569D01*
X612120Y190537D01*
X615959Y186699D01*
X617763Y184894D01*
X617763Y147472D01*
X617779Y147384D01*
X617788Y147296D01*
X617798Y147274D01*
X617802Y147251D01*
X617848Y147174D01*
X617887Y147095D01*
X617904Y147078D01*
X617917Y147058D01*
X617986Y147002D01*
X618050Y146941D01*
X618072Y146931D01*
X618091Y146917D01*
X618175Y146888D01*
X618257Y146853D01*
X618281Y146852D01*
X618303Y146845D01*
X618392Y146847D01*
X618481Y146843D01*
X618504Y146851D01*
X618528Y146851D01*
X618610Y146885D01*
X618695Y146912D01*
X618716Y146928D01*
X618735Y146936D01*
X618773Y146970D01*
X618845Y147023D01*
X620474Y148652D01*
X622600Y149533D01*
X624900Y149533D01*
X625022Y149482D01*
X625039Y149479D01*
X625041Y149478D01*
X625048Y149477D01*
X625074Y149471D01*
X625124Y149450D01*
X625183Y149447D01*
X625241Y149435D01*
X625294Y149442D01*
X625349Y149440D01*
X625405Y149458D01*
X625463Y149466D01*
X625511Y149492D01*
X625562Y149508D01*
X625619Y149551D01*
X625660Y149573D01*
X625680Y149595D01*
X625694Y149604D01*
X625699Y149610D01*
X625713Y149620D01*
X668301Y192209D01*
X670106Y194013D01*
X734894Y194013D01*
X736513Y192394D01*
X736513Y173907D01*
X736520Y173865D01*
X736518Y173823D01*
X736540Y173756D01*
X736552Y173686D01*
X736574Y173650D01*
X736587Y173609D01*
X736641Y173537D01*
X736667Y173493D01*
X736683Y173480D01*
X736699Y173459D01*
X741787Y168370D01*
X741832Y168339D01*
X741870Y168300D01*
X741923Y168275D01*
X741971Y168242D01*
X742024Y168228D01*
X742073Y168205D01*
X742132Y168201D01*
X742189Y168186D01*
X742243Y168191D01*
X742297Y168187D01*
X742366Y168204D01*
X742412Y168209D01*
X742439Y168223D01*
X742478Y168232D01*
X742600Y168283D01*
X744900Y168283D01*
X747026Y167402D01*
X748652Y165776D01*
X749533Y163650D01*
X749533Y161350D01*
X748652Y159224D01*
X747026Y157598D01*
X744900Y156717D01*
X742600Y156717D01*
X740474Y157598D01*
X738848Y159224D01*
X737967Y161350D01*
X737967Y163650D01*
X738018Y163772D01*
X738029Y163824D01*
X738050Y163874D01*
X738053Y163933D01*
X738065Y163991D01*
X738058Y164044D01*
X738060Y164099D01*
X738042Y164155D01*
X738034Y164213D01*
X738008Y164261D01*
X737992Y164312D01*
X737949Y164369D01*
X737927Y164410D01*
X737904Y164431D01*
X737880Y164463D01*
X730987Y171356D01*
X730987Y187853D01*
X730976Y187918D01*
X730974Y187984D01*
X730956Y188027D01*
X730948Y188074D01*
X730914Y188131D01*
X730889Y188191D01*
X730858Y188226D01*
X730833Y188267D01*
X730782Y188309D01*
X730738Y188357D01*
X730696Y188379D01*
X730659Y188408D01*
X730597Y188429D01*
X730538Y188460D01*
X730484Y188468D01*
X730447Y188480D01*
X730407Y188479D01*
X730353Y188487D01*
X721222Y188487D01*
X721134Y188472D01*
X721046Y188462D01*
X721024Y188452D01*
X721001Y188448D01*
X720924Y188402D01*
X720845Y188363D01*
X720828Y188346D01*
X720808Y188333D01*
X720752Y188264D01*
X720691Y188200D01*
X720681Y188178D01*
X720667Y188159D01*
X720638Y188075D01*
X720603Y187993D01*
X720602Y187969D01*
X720595Y187947D01*
X720597Y187858D01*
X720593Y187769D01*
X720601Y187746D01*
X720601Y187722D01*
X720635Y187640D01*
X720662Y187555D01*
X720678Y187534D01*
X720686Y187515D01*
X720720Y187477D01*
X720773Y187405D01*
X721152Y187026D01*
X722033Y184900D01*
X722033Y182600D01*
X721152Y180474D01*
X719526Y178848D01*
X717400Y177967D01*
X715100Y177967D01*
X714978Y178018D01*
X714925Y178029D01*
X714876Y178050D01*
X714817Y178053D01*
X714759Y178065D01*
X714706Y178058D01*
X714651Y178060D01*
X714595Y178042D01*
X714537Y178034D01*
X714489Y178008D01*
X714438Y177992D01*
X714381Y177949D01*
X714340Y177927D01*
X714320Y177904D01*
X714287Y177880D01*
X645449Y109041D01*
X645424Y109007D01*
X645393Y108978D01*
X645361Y108915D01*
X645320Y108857D01*
X645310Y108816D01*
X645290Y108778D01*
X645277Y108689D01*
X645264Y108640D01*
X645267Y108619D01*
X645263Y108593D01*
X645263Y97126D01*
X645272Y97073D01*
X645272Y97019D01*
X645292Y96964D01*
X645302Y96906D01*
X645330Y96859D01*
X645348Y96808D01*
X645387Y96763D01*
X645417Y96712D01*
X645459Y96678D01*
X645494Y96637D01*
X645555Y96600D01*
X645591Y96571D01*
X645620Y96561D01*
X645654Y96541D01*
X646794Y96068D01*
X649478Y93384D01*
X650931Y89878D01*
X650931Y71002D01*
X649478Y67496D01*
X646794Y64812D01*
X643288Y63359D01*
X639492Y63359D01*
X635986Y64812D01*
X633302Y67496D01*
X631849Y71002D01*
X631849Y89878D01*
X633302Y93384D01*
X635986Y96068D01*
X639346Y97460D01*
X639391Y97489D01*
X639441Y97510D01*
X639485Y97549D01*
X639535Y97581D01*
X639567Y97624D01*
X639607Y97661D01*
X639634Y97713D01*
X639669Y97761D01*
X639685Y97812D01*
X639710Y97861D01*
X639720Y97931D01*
X639733Y97976D01*
X639731Y98006D01*
X639737Y98046D01*
X639737Y111144D01*
X710380Y181787D01*
X710411Y181832D01*
X710450Y181870D01*
X710474Y181923D01*
X710508Y181971D01*
X710522Y182024D01*
X710545Y182073D01*
X710549Y182132D01*
X710564Y182189D01*
X710558Y182243D01*
X710563Y182296D01*
X710546Y182366D01*
X710541Y182412D01*
X710527Y182439D01*
X710518Y182478D01*
X710467Y182600D01*
X710467Y184900D01*
X711348Y187026D01*
X711727Y187405D01*
X711777Y187478D01*
X711833Y187547D01*
X711841Y187569D01*
X711855Y187589D01*
X711877Y187675D01*
X711905Y187759D01*
X711905Y187783D01*
X711911Y187806D01*
X711901Y187895D01*
X711899Y187984D01*
X711890Y188005D01*
X711887Y188029D01*
X711848Y188109D01*
X711814Y188191D01*
X711798Y188209D01*
X711788Y188230D01*
X711723Y188291D01*
X711663Y188357D01*
X711642Y188368D01*
X711625Y188384D01*
X711543Y188419D01*
X711463Y188460D01*
X711437Y188463D01*
X711418Y188472D01*
X711368Y188474D01*
X711278Y188487D01*
X672657Y188487D01*
X672615Y188480D01*
X672573Y188482D01*
X672506Y188460D01*
X672436Y188448D01*
X672400Y188426D01*
X672359Y188413D01*
X672287Y188359D01*
X672243Y188333D01*
X672230Y188317D01*
X672209Y188301D01*
X629620Y145713D01*
X629589Y145668D01*
X629550Y145630D01*
X629525Y145577D01*
X629492Y145529D01*
X629478Y145476D01*
X629455Y145427D01*
X629451Y145368D01*
X629436Y145311D01*
X629441Y145257D01*
X629437Y145203D01*
X629454Y145134D01*
X629459Y145088D01*
X629473Y145061D01*
X629482Y145022D01*
X629533Y144900D01*
X629533Y142600D01*
X628652Y140474D01*
X627026Y138848D01*
X624900Y137967D01*
X622600Y137967D01*
X620474Y138848D01*
X618845Y140477D01*
X618772Y140527D01*
X618703Y140583D01*
X618681Y140591D01*
X618661Y140605D01*
X618575Y140627D01*
X618491Y140655D01*
X618467Y140655D01*
X618444Y140661D01*
X618355Y140651D01*
X618266Y140649D01*
X618244Y140640D01*
X618221Y140637D01*
X618141Y140598D01*
X618059Y140564D01*
X618041Y140548D01*
X618020Y140538D01*
X617959Y140473D01*
X617893Y140413D01*
X617882Y140392D01*
X617866Y140375D01*
X617831Y140293D01*
X617790Y140213D01*
X617787Y140187D01*
X617778Y140168D01*
X617776Y140118D01*
X617763Y140028D01*
X617763Y97996D01*
X617772Y97943D01*
X617772Y97889D01*
X617792Y97833D01*
X617802Y97775D01*
X617830Y97729D01*
X617848Y97678D01*
X617887Y97633D01*
X617917Y97582D01*
X617959Y97548D01*
X617994Y97507D01*
X618055Y97470D01*
X618091Y97441D01*
X618120Y97431D01*
X618154Y97410D01*
X621394Y96068D01*
X624078Y93384D01*
X625531Y89878D01*
X625531Y71002D01*
X624078Y67496D01*
X621394Y64812D01*
X617888Y63359D01*
X614092Y63359D01*
G37*
%LPD*%
%LPC*%
G36*
X690412Y62619D02*
X690412Y62619D01*
X686906Y64072D01*
X684222Y66756D01*
X682769Y70262D01*
X682769Y89138D01*
X684222Y92644D01*
X686906Y95328D01*
X690412Y96781D01*
X694208Y96781D01*
X697714Y95328D01*
X700369Y92673D01*
X700423Y92636D01*
X700471Y92591D01*
X700515Y92572D01*
X700554Y92545D01*
X700617Y92529D01*
X700678Y92503D01*
X700725Y92501D01*
X700771Y92489D01*
X700836Y92496D01*
X700902Y92493D01*
X700947Y92508D01*
X700994Y92513D01*
X701053Y92542D01*
X701116Y92562D01*
X701160Y92595D01*
X701195Y92612D01*
X701222Y92641D01*
X701266Y92673D01*
X750801Y142209D01*
X752606Y144013D01*
X799830Y144013D01*
X799895Y144024D01*
X799961Y144026D01*
X800004Y144044D01*
X800051Y144052D01*
X800108Y144086D01*
X800168Y144111D01*
X800203Y144142D01*
X800244Y144167D01*
X800286Y144218D01*
X800334Y144262D01*
X800356Y144304D01*
X800385Y144341D01*
X800406Y144403D01*
X800437Y144462D01*
X800445Y144516D01*
X800457Y144553D01*
X800456Y144593D01*
X800464Y144647D01*
X800464Y145503D01*
X802139Y149546D01*
X805234Y152641D01*
X809277Y154316D01*
X813653Y154316D01*
X817696Y152641D01*
X820791Y149546D01*
X822466Y145503D01*
X822466Y141127D01*
X820791Y137084D01*
X817696Y133989D01*
X813653Y132314D01*
X809277Y132314D01*
X805234Y133989D01*
X802139Y137084D01*
X801720Y138096D01*
X801691Y138141D01*
X801670Y138191D01*
X801630Y138235D01*
X801599Y138285D01*
X801555Y138317D01*
X801519Y138357D01*
X801466Y138384D01*
X801419Y138419D01*
X801367Y138435D01*
X801319Y138460D01*
X801249Y138470D01*
X801204Y138483D01*
X801174Y138481D01*
X801134Y138487D01*
X755157Y138487D01*
X755115Y138480D01*
X755073Y138482D01*
X755006Y138460D01*
X754936Y138448D01*
X754900Y138426D01*
X754859Y138413D01*
X754787Y138359D01*
X754743Y138333D01*
X754730Y138317D01*
X754709Y138301D01*
X713587Y97180D01*
X713530Y97097D01*
X713469Y97017D01*
X713465Y97005D01*
X713459Y96995D01*
X713434Y96898D01*
X713405Y96802D01*
X713406Y96790D01*
X713403Y96778D01*
X713413Y96679D01*
X713420Y96578D01*
X713425Y96567D01*
X713426Y96555D01*
X713470Y96465D01*
X713512Y96373D01*
X713520Y96365D01*
X713525Y96354D01*
X713599Y96285D01*
X713669Y96213D01*
X713680Y96208D01*
X713689Y96200D01*
X713781Y96161D01*
X713872Y96118D01*
X713884Y96117D01*
X713895Y96113D01*
X713996Y96108D01*
X714096Y96100D01*
X714109Y96103D01*
X714119Y96103D01*
X714163Y96117D01*
X714278Y96145D01*
X715812Y96781D01*
X719608Y96781D01*
X723114Y95328D01*
X725798Y92644D01*
X727251Y89138D01*
X727251Y70262D01*
X725798Y66756D01*
X723114Y64072D01*
X719608Y62619D01*
X715812Y62619D01*
X712306Y64072D01*
X709622Y66756D01*
X708169Y70262D01*
X708169Y89138D01*
X708805Y90672D01*
X708826Y90770D01*
X708851Y90868D01*
X708850Y90880D01*
X708853Y90891D01*
X708838Y90991D01*
X708828Y91091D01*
X708823Y91102D01*
X708821Y91113D01*
X708773Y91202D01*
X708729Y91292D01*
X708720Y91300D01*
X708714Y91311D01*
X708638Y91377D01*
X708565Y91446D01*
X708554Y91451D01*
X708545Y91458D01*
X708452Y91494D01*
X708359Y91533D01*
X708347Y91534D01*
X708336Y91538D01*
X708235Y91539D01*
X708135Y91543D01*
X708123Y91540D01*
X708111Y91540D01*
X708017Y91506D01*
X707921Y91475D01*
X707910Y91467D01*
X707900Y91463D01*
X707866Y91434D01*
X707770Y91363D01*
X702037Y85629D01*
X702012Y85595D01*
X701981Y85566D01*
X701949Y85503D01*
X701908Y85445D01*
X701898Y85404D01*
X701878Y85366D01*
X701865Y85277D01*
X701852Y85228D01*
X701855Y85207D01*
X701851Y85181D01*
X701851Y70262D01*
X700398Y66756D01*
X697714Y64072D01*
X694208Y62619D01*
X690412Y62619D01*
G37*
%LPD*%
%LPC*%
G36*
X897213Y203624D02*
X897213Y203624D01*
X892619Y205527D01*
X889102Y209044D01*
X887199Y213638D01*
X887199Y218612D01*
X888486Y221717D01*
X888497Y221770D01*
X888518Y221820D01*
X888521Y221879D01*
X888533Y221936D01*
X888526Y221990D01*
X888528Y222044D01*
X888510Y222100D01*
X888502Y222158D01*
X888476Y222206D01*
X888460Y222258D01*
X888417Y222315D01*
X888395Y222356D01*
X888372Y222376D01*
X888348Y222408D01*
X830193Y280563D01*
X828249Y282507D01*
X828249Y347298D01*
X828240Y347352D01*
X828240Y347406D01*
X828220Y347461D01*
X828210Y347519D01*
X828182Y347566D01*
X828164Y347617D01*
X828125Y347662D01*
X828095Y347712D01*
X828053Y347747D01*
X828018Y347788D01*
X827957Y347825D01*
X827921Y347854D01*
X827892Y347864D01*
X827858Y347884D01*
X823569Y349661D01*
X819631Y353599D01*
X817499Y358745D01*
X817499Y364315D01*
X819631Y369461D01*
X823569Y373399D01*
X828715Y375531D01*
X834285Y375531D01*
X839431Y373399D01*
X843369Y369461D01*
X845501Y364315D01*
X845501Y358745D01*
X843369Y353599D01*
X839431Y349661D01*
X834642Y347677D01*
X834597Y347648D01*
X834547Y347628D01*
X834503Y347588D01*
X834453Y347556D01*
X834421Y347513D01*
X834381Y347476D01*
X834354Y347424D01*
X834319Y347377D01*
X834303Y347325D01*
X834278Y347277D01*
X834268Y347206D01*
X834255Y347162D01*
X834257Y347131D01*
X834251Y347091D01*
X834251Y285256D01*
X834258Y285214D01*
X834256Y285171D01*
X834278Y285104D01*
X834290Y285035D01*
X834312Y284998D01*
X834325Y284958D01*
X834379Y284885D01*
X834405Y284842D01*
X834421Y284828D01*
X834437Y284807D01*
X892250Y226994D01*
X892280Y226973D01*
X892293Y226959D01*
X892304Y226953D01*
X892333Y226924D01*
X892386Y226899D01*
X892434Y226866D01*
X892487Y226852D01*
X892536Y226829D01*
X892594Y226824D01*
X892652Y226810D01*
X892705Y226815D01*
X892759Y226811D01*
X892828Y226828D01*
X892875Y226833D01*
X892902Y226846D01*
X892941Y226856D01*
X897213Y228626D01*
X902187Y228626D01*
X906781Y226723D01*
X910298Y223206D01*
X912201Y218612D01*
X912201Y213638D01*
X910298Y209044D01*
X906781Y205527D01*
X902187Y203624D01*
X897213Y203624D01*
G37*
%LPD*%
%LPC*%
G36*
X351442Y64629D02*
X351442Y64629D01*
X347936Y66082D01*
X345252Y68766D01*
X343799Y72272D01*
X343799Y84516D01*
X343792Y84558D01*
X343794Y84601D01*
X343772Y84668D01*
X343760Y84737D01*
X343738Y84774D01*
X343725Y84814D01*
X343671Y84887D01*
X343645Y84930D01*
X343629Y84944D01*
X343613Y84965D01*
X310805Y117773D01*
X310770Y117798D01*
X310741Y117829D01*
X310679Y117861D01*
X310621Y117902D01*
X310580Y117912D01*
X310542Y117932D01*
X310452Y117945D01*
X310403Y117958D01*
X310383Y117955D01*
X310356Y117959D01*
X280328Y117959D01*
X280274Y117950D01*
X280220Y117950D01*
X280165Y117930D01*
X280107Y117920D01*
X280060Y117892D01*
X280009Y117874D01*
X279964Y117835D01*
X279914Y117805D01*
X279879Y117763D01*
X279838Y117728D01*
X279801Y117667D01*
X279772Y117631D01*
X279762Y117602D01*
X279742Y117568D01*
X279583Y117184D01*
X276066Y113667D01*
X271472Y111764D01*
X266498Y111764D01*
X261904Y113667D01*
X258387Y117184D01*
X256484Y121778D01*
X256484Y126752D01*
X258387Y131346D01*
X261904Y134863D01*
X266498Y136766D01*
X271472Y136766D01*
X276066Y134863D01*
X279583Y131346D01*
X281204Y127432D01*
X281233Y127387D01*
X281253Y127337D01*
X281293Y127293D01*
X281325Y127243D01*
X281368Y127211D01*
X281405Y127171D01*
X281457Y127144D01*
X281504Y127109D01*
X281556Y127093D01*
X281604Y127068D01*
X281675Y127058D01*
X281719Y127045D01*
X281750Y127047D01*
X281790Y127041D01*
X314381Y127041D01*
X345561Y95861D01*
X345615Y95823D01*
X345663Y95778D01*
X345706Y95759D01*
X345745Y95733D01*
X345809Y95716D01*
X345870Y95690D01*
X345917Y95688D01*
X345962Y95677D01*
X346028Y95683D01*
X346094Y95680D01*
X346139Y95695D01*
X346186Y95700D01*
X346245Y95729D01*
X346307Y95749D01*
X346351Y95782D01*
X346387Y95799D01*
X346414Y95828D01*
X346458Y95861D01*
X347936Y97338D01*
X351442Y98791D01*
X355238Y98791D01*
X358744Y97338D01*
X361428Y94654D01*
X362881Y91148D01*
X362881Y72272D01*
X361428Y68766D01*
X358744Y66082D01*
X355238Y64629D01*
X351442Y64629D01*
G37*
%LPD*%
%LPC*%
G36*
X588692Y63359D02*
X588692Y63359D01*
X585186Y64812D01*
X582502Y67496D01*
X581049Y71002D01*
X581049Y89878D01*
X582502Y93384D01*
X585186Y96068D01*
X585596Y96238D01*
X585641Y96267D01*
X585691Y96288D01*
X585735Y96327D01*
X585785Y96359D01*
X585817Y96403D01*
X585857Y96439D01*
X585884Y96492D01*
X585919Y96539D01*
X585935Y96591D01*
X585960Y96639D01*
X585970Y96709D01*
X585983Y96754D01*
X585981Y96784D01*
X585987Y96824D01*
X585987Y259843D01*
X585980Y259885D01*
X585982Y259927D01*
X585960Y259994D01*
X585948Y260064D01*
X585926Y260100D01*
X585913Y260141D01*
X585859Y260213D01*
X585833Y260257D01*
X585817Y260270D01*
X585801Y260291D01*
X566963Y279130D01*
X566918Y279161D01*
X566880Y279200D01*
X566827Y279225D01*
X566779Y279258D01*
X566726Y279272D01*
X566677Y279295D01*
X566618Y279299D01*
X566561Y279314D01*
X566507Y279309D01*
X566453Y279313D01*
X566384Y279296D01*
X566338Y279291D01*
X566311Y279277D01*
X566272Y279268D01*
X566150Y279217D01*
X563850Y279217D01*
X561724Y280098D01*
X560098Y281724D01*
X559217Y283850D01*
X559217Y286150D01*
X560098Y288276D01*
X561724Y289902D01*
X563850Y290783D01*
X566150Y290783D01*
X568276Y289902D01*
X569902Y288276D01*
X570783Y286150D01*
X570783Y283850D01*
X570732Y283728D01*
X570721Y283676D01*
X570700Y283626D01*
X570697Y283567D01*
X570685Y283509D01*
X570692Y283456D01*
X570690Y283401D01*
X570708Y283345D01*
X570716Y283287D01*
X570742Y283239D01*
X570758Y283188D01*
X570801Y283131D01*
X570823Y283090D01*
X570846Y283069D01*
X570870Y283037D01*
X589709Y264199D01*
X591513Y262394D01*
X591513Y98155D01*
X591524Y98090D01*
X591526Y98024D01*
X591544Y97981D01*
X591552Y97934D01*
X591586Y97877D01*
X591611Y97817D01*
X591642Y97782D01*
X591667Y97741D01*
X591718Y97699D01*
X591762Y97651D01*
X591804Y97629D01*
X591841Y97600D01*
X591903Y97579D01*
X591962Y97548D01*
X592016Y97540D01*
X592053Y97528D01*
X592093Y97529D01*
X592147Y97521D01*
X592488Y97521D01*
X595994Y96068D01*
X598678Y93384D01*
X600131Y89878D01*
X600131Y71002D01*
X598678Y67496D01*
X595994Y64812D01*
X592488Y63359D01*
X588692Y63359D01*
G37*
%LPD*%
%LPC*%
G36*
X537892Y63359D02*
X537892Y63359D01*
X534386Y64812D01*
X531702Y67496D01*
X530249Y71002D01*
X530249Y89878D01*
X531702Y93384D01*
X534386Y96068D01*
X535596Y96570D01*
X535641Y96599D01*
X535691Y96619D01*
X535735Y96659D01*
X535785Y96691D01*
X535817Y96734D01*
X535857Y96771D01*
X535884Y96823D01*
X535919Y96870D01*
X535935Y96922D01*
X535960Y96970D01*
X535970Y97040D01*
X535983Y97085D01*
X535981Y97116D01*
X535987Y97155D01*
X535987Y209843D01*
X535980Y209885D01*
X535982Y209927D01*
X535960Y209994D01*
X535948Y210064D01*
X535926Y210100D01*
X535913Y210141D01*
X535859Y210213D01*
X535833Y210257D01*
X535817Y210270D01*
X535801Y210291D01*
X523213Y222880D01*
X523168Y222911D01*
X523130Y222950D01*
X523077Y222975D01*
X523029Y223008D01*
X522976Y223022D01*
X522927Y223045D01*
X522868Y223049D01*
X522811Y223064D01*
X522757Y223059D01*
X522703Y223063D01*
X522634Y223046D01*
X522588Y223041D01*
X522561Y223027D01*
X522522Y223018D01*
X522400Y222967D01*
X520100Y222967D01*
X517974Y223848D01*
X516348Y225474D01*
X515467Y227600D01*
X515467Y229900D01*
X516348Y232026D01*
X517974Y233652D01*
X520100Y234533D01*
X522400Y234533D01*
X524526Y233652D01*
X526152Y232026D01*
X527033Y229900D01*
X527033Y227600D01*
X526982Y227478D01*
X526971Y227426D01*
X526950Y227376D01*
X526947Y227317D01*
X526935Y227259D01*
X526942Y227206D01*
X526940Y227151D01*
X526958Y227095D01*
X526966Y227037D01*
X526992Y226989D01*
X527008Y226938D01*
X527051Y226881D01*
X527073Y226840D01*
X527096Y226819D01*
X527120Y226787D01*
X539709Y214199D01*
X541513Y212394D01*
X541513Y98017D01*
X541522Y97964D01*
X541522Y97910D01*
X541542Y97854D01*
X541552Y97796D01*
X541580Y97750D01*
X541598Y97699D01*
X541637Y97654D01*
X541667Y97603D01*
X541709Y97569D01*
X541744Y97528D01*
X541805Y97491D01*
X541841Y97462D01*
X541870Y97452D01*
X541904Y97431D01*
X545194Y96068D01*
X547878Y93384D01*
X549331Y89878D01*
X549331Y71002D01*
X547878Y67496D01*
X545194Y64812D01*
X541688Y63359D01*
X537892Y63359D01*
G37*
%LPD*%
%LPC*%
G36*
X512492Y63359D02*
X512492Y63359D01*
X508986Y64812D01*
X506302Y67496D01*
X504849Y71002D01*
X504849Y85981D01*
X504842Y86023D01*
X504844Y86065D01*
X504822Y86132D01*
X504810Y86202D01*
X504788Y86238D01*
X504775Y86279D01*
X504721Y86351D01*
X504695Y86395D01*
X504679Y86408D01*
X504663Y86429D01*
X458487Y132606D01*
X458487Y146179D01*
X458476Y146244D01*
X458474Y146310D01*
X458456Y146353D01*
X458448Y146400D01*
X458414Y146457D01*
X458389Y146517D01*
X458358Y146552D01*
X458333Y146593D01*
X458282Y146635D01*
X458238Y146683D01*
X458196Y146705D01*
X458159Y146734D01*
X458097Y146755D01*
X458038Y146786D01*
X457984Y146794D01*
X457947Y146806D01*
X457907Y146805D01*
X457853Y146813D01*
X457277Y146813D01*
X451418Y152672D01*
X451418Y160958D01*
X457277Y166817D01*
X465563Y166817D01*
X471422Y160958D01*
X471422Y152672D01*
X465563Y146813D01*
X464647Y146813D01*
X464582Y146802D01*
X464516Y146800D01*
X464473Y146782D01*
X464426Y146774D01*
X464369Y146740D01*
X464309Y146715D01*
X464274Y146684D01*
X464233Y146659D01*
X464191Y146608D01*
X464143Y146564D01*
X464121Y146522D01*
X464092Y146485D01*
X464071Y146423D01*
X464040Y146364D01*
X464032Y146310D01*
X464020Y146273D01*
X464021Y146233D01*
X464013Y146179D01*
X464013Y135157D01*
X464020Y135115D01*
X464018Y135073D01*
X464040Y135006D01*
X464052Y134936D01*
X464074Y134900D01*
X464087Y134859D01*
X464141Y134787D01*
X464167Y134743D01*
X464183Y134730D01*
X464199Y134709D01*
X505464Y93443D01*
X505518Y93406D01*
X505566Y93361D01*
X505609Y93342D01*
X505648Y93315D01*
X505712Y93299D01*
X505772Y93273D01*
X505820Y93271D01*
X505865Y93259D01*
X505931Y93266D01*
X505996Y93263D01*
X506041Y93278D01*
X506088Y93283D01*
X506147Y93312D01*
X506210Y93332D01*
X506254Y93365D01*
X506290Y93382D01*
X506317Y93411D01*
X506361Y93443D01*
X508986Y96068D01*
X512492Y97521D01*
X516288Y97521D01*
X519794Y96068D01*
X522478Y93384D01*
X523931Y89878D01*
X523931Y71002D01*
X522478Y67496D01*
X519794Y64812D01*
X516288Y63359D01*
X512492Y63359D01*
G37*
%LPD*%
%LPC*%
G36*
X850921Y177124D02*
X850921Y177124D01*
X843937Y180017D01*
X838592Y185362D01*
X835699Y192346D01*
X835699Y199904D01*
X838592Y206888D01*
X843937Y212233D01*
X850921Y215126D01*
X858479Y215126D01*
X865463Y212233D01*
X870808Y206888D01*
X873701Y199904D01*
X873701Y192346D01*
X870808Y185362D01*
X865463Y180017D01*
X858479Y177124D01*
X850921Y177124D01*
G37*
%LPD*%
%LPC*%
G36*
X796921Y230624D02*
X796921Y230624D01*
X789937Y233517D01*
X784592Y238862D01*
X781699Y245846D01*
X781699Y253404D01*
X784592Y260388D01*
X789937Y265733D01*
X796921Y268626D01*
X804479Y268626D01*
X811463Y265733D01*
X816808Y260388D01*
X819701Y253404D01*
X819701Y245846D01*
X816808Y238862D01*
X811463Y233517D01*
X804479Y230624D01*
X796921Y230624D01*
G37*
%LPD*%
%LPC*%
G36*
X657600Y191717D02*
X657600Y191717D01*
X655474Y192598D01*
X653848Y194224D01*
X652967Y196350D01*
X652967Y198650D01*
X653848Y200776D01*
X655474Y202402D01*
X657600Y203283D01*
X659900Y203283D01*
X660022Y203232D01*
X660075Y203221D01*
X660124Y203200D01*
X660183Y203197D01*
X660241Y203185D01*
X660294Y203192D01*
X660349Y203190D01*
X660405Y203208D01*
X660463Y203216D01*
X660511Y203242D01*
X660562Y203258D01*
X660619Y203301D01*
X660660Y203323D01*
X660680Y203346D01*
X660713Y203370D01*
X664551Y207209D01*
X664576Y207243D01*
X664607Y207272D01*
X664639Y207335D01*
X664680Y207393D01*
X664690Y207434D01*
X664710Y207472D01*
X664723Y207561D01*
X664736Y207610D01*
X664733Y207631D01*
X664737Y207657D01*
X664737Y258778D01*
X664722Y258866D01*
X664712Y258954D01*
X664702Y258976D01*
X664698Y258999D01*
X664652Y259076D01*
X664613Y259155D01*
X664596Y259172D01*
X664583Y259192D01*
X664514Y259248D01*
X664450Y259309D01*
X664428Y259319D01*
X664409Y259333D01*
X664325Y259362D01*
X664243Y259397D01*
X664219Y259398D01*
X664197Y259405D01*
X664108Y259403D01*
X664019Y259407D01*
X663996Y259399D01*
X663972Y259399D01*
X663890Y259365D01*
X663805Y259338D01*
X663784Y259322D01*
X663765Y259314D01*
X663727Y259280D01*
X663655Y259227D01*
X663276Y258848D01*
X661150Y257967D01*
X658850Y257967D01*
X658728Y258018D01*
X658675Y258029D01*
X658626Y258050D01*
X658567Y258053D01*
X658509Y258065D01*
X658456Y258058D01*
X658401Y258060D01*
X658345Y258042D01*
X658287Y258034D01*
X658239Y258008D01*
X658188Y257992D01*
X658131Y257949D01*
X658090Y257927D01*
X658070Y257904D01*
X658037Y257880D01*
X627741Y227584D01*
X627703Y227530D01*
X627658Y227482D01*
X627640Y227439D01*
X627613Y227400D01*
X627597Y227336D01*
X627571Y227275D01*
X627569Y227228D01*
X627557Y227182D01*
X627564Y227117D01*
X627561Y227051D01*
X627575Y227006D01*
X627580Y226959D01*
X627609Y226900D01*
X627630Y226838D01*
X627662Y226794D01*
X627680Y226758D01*
X627708Y226731D01*
X627741Y226687D01*
X628652Y225776D01*
X629533Y223650D01*
X629533Y221350D01*
X628652Y219224D01*
X627026Y217598D01*
X624900Y216717D01*
X622600Y216717D01*
X620474Y217598D01*
X618848Y219224D01*
X617967Y221350D01*
X617967Y223650D01*
X618848Y225776D01*
X620474Y227402D01*
X620596Y227453D01*
X620641Y227482D01*
X620691Y227502D01*
X620735Y227542D01*
X620785Y227574D01*
X620817Y227617D01*
X620857Y227654D01*
X620884Y227706D01*
X620919Y227753D01*
X620935Y227805D01*
X620960Y227853D01*
X620970Y227924D01*
X620983Y227968D01*
X620981Y227999D01*
X620987Y228039D01*
X620987Y228644D01*
X654130Y261787D01*
X654161Y261832D01*
X654200Y261870D01*
X654224Y261923D01*
X654258Y261971D01*
X654272Y262024D01*
X654295Y262073D01*
X654299Y262132D01*
X654314Y262189D01*
X654308Y262243D01*
X654313Y262296D01*
X654296Y262366D01*
X654291Y262412D01*
X654277Y262439D01*
X654268Y262478D01*
X654217Y262600D01*
X654217Y264900D01*
X655098Y267026D01*
X656724Y268652D01*
X658850Y269533D01*
X661150Y269533D01*
X663276Y268652D01*
X663655Y268273D01*
X663728Y268223D01*
X663797Y268167D01*
X663819Y268159D01*
X663839Y268145D01*
X663925Y268123D01*
X664009Y268095D01*
X664033Y268095D01*
X664056Y268089D01*
X664145Y268099D01*
X664234Y268101D01*
X664255Y268110D01*
X664279Y268113D01*
X664359Y268152D01*
X664441Y268186D01*
X664459Y268202D01*
X664480Y268212D01*
X664541Y268277D01*
X664607Y268337D01*
X664618Y268358D01*
X664634Y268375D01*
X664669Y268457D01*
X664710Y268537D01*
X664713Y268563D01*
X664722Y268582D01*
X664724Y268632D01*
X664737Y268722D01*
X664737Y275711D01*
X664728Y275765D01*
X664728Y275819D01*
X664708Y275874D01*
X664698Y275932D01*
X664670Y275979D01*
X664652Y276030D01*
X664613Y276075D01*
X664583Y276125D01*
X664541Y276160D01*
X664506Y276201D01*
X664445Y276238D01*
X664409Y276267D01*
X664380Y276277D01*
X664346Y276297D01*
X664224Y276348D01*
X662598Y277974D01*
X661717Y280100D01*
X661717Y282400D01*
X662598Y284526D01*
X664224Y286152D01*
X666350Y287033D01*
X668650Y287033D01*
X670776Y286152D01*
X672402Y284526D01*
X673283Y282400D01*
X673283Y280100D01*
X672402Y277974D01*
X670776Y276348D01*
X670654Y276297D01*
X670609Y276268D01*
X670559Y276248D01*
X670515Y276208D01*
X670465Y276176D01*
X670433Y276133D01*
X670393Y276096D01*
X670366Y276044D01*
X670331Y275997D01*
X670315Y275945D01*
X670290Y275897D01*
X670280Y275826D01*
X670267Y275782D01*
X670269Y275751D01*
X670263Y275711D01*
X670263Y205106D01*
X664620Y199463D01*
X664589Y199418D01*
X664550Y199380D01*
X664526Y199327D01*
X664492Y199279D01*
X664478Y199226D01*
X664455Y199177D01*
X664451Y199118D01*
X664436Y199061D01*
X664442Y199007D01*
X664437Y198954D01*
X664454Y198884D01*
X664459Y198838D01*
X664473Y198811D01*
X664482Y198772D01*
X664533Y198650D01*
X664533Y196350D01*
X663652Y194224D01*
X662026Y192598D01*
X659900Y191717D01*
X657600Y191717D01*
G37*
%LPD*%
%LPC*%
G36*
X563292Y63359D02*
X563292Y63359D01*
X559786Y64812D01*
X557102Y67496D01*
X555649Y71002D01*
X555649Y89878D01*
X557102Y93384D01*
X559786Y96068D01*
X560596Y96404D01*
X560641Y96433D01*
X560691Y96453D01*
X560735Y96493D01*
X560785Y96525D01*
X560817Y96568D01*
X560857Y96605D01*
X560884Y96657D01*
X560919Y96704D01*
X560935Y96756D01*
X560960Y96804D01*
X560970Y96875D01*
X560983Y96919D01*
X560981Y96950D01*
X560987Y96990D01*
X560987Y123449D01*
X560976Y123514D01*
X560974Y123580D01*
X560956Y123623D01*
X560948Y123670D01*
X560914Y123727D01*
X560889Y123787D01*
X560858Y123822D01*
X560833Y123863D01*
X560782Y123905D01*
X560738Y123953D01*
X560696Y123975D01*
X560659Y124004D01*
X560597Y124025D01*
X560538Y124056D01*
X560484Y124064D01*
X560447Y124076D01*
X560407Y124075D01*
X560353Y124083D01*
X559727Y124083D01*
X553868Y129942D01*
X553868Y138228D01*
X559727Y144087D01*
X568013Y144087D01*
X573872Y138228D01*
X573872Y129942D01*
X568013Y124083D01*
X567147Y124083D01*
X567082Y124072D01*
X567016Y124070D01*
X566973Y124052D01*
X566926Y124044D01*
X566869Y124010D01*
X566809Y123985D01*
X566774Y123954D01*
X566733Y123929D01*
X566691Y123878D01*
X566643Y123834D01*
X566621Y123792D01*
X566592Y123755D01*
X566571Y123693D01*
X566540Y123634D01*
X566532Y123580D01*
X566520Y123543D01*
X566520Y123540D01*
X566521Y123503D01*
X566513Y123449D01*
X566513Y98155D01*
X566524Y98090D01*
X566526Y98024D01*
X566544Y97981D01*
X566552Y97934D01*
X566586Y97877D01*
X566611Y97817D01*
X566642Y97782D01*
X566667Y97741D01*
X566718Y97699D01*
X566762Y97651D01*
X566804Y97629D01*
X566841Y97600D01*
X566903Y97579D01*
X566962Y97548D01*
X567016Y97540D01*
X567053Y97528D01*
X567070Y97528D01*
X570594Y96068D01*
X573278Y93384D01*
X574731Y89878D01*
X574731Y71002D01*
X573278Y67496D01*
X570594Y64812D01*
X567088Y63359D01*
X563292Y63359D01*
G37*
%LPD*%
%LPC*%
G36*
X552600Y206717D02*
X552600Y206717D01*
X550474Y207598D01*
X548848Y209224D01*
X547967Y211350D01*
X547967Y213650D01*
X548848Y215776D01*
X550474Y217402D01*
X550596Y217453D01*
X550641Y217482D01*
X550691Y217502D01*
X550735Y217542D01*
X550785Y217574D01*
X550817Y217617D01*
X550857Y217654D01*
X550884Y217706D01*
X550919Y217753D01*
X550935Y217805D01*
X550960Y217853D01*
X550970Y217924D01*
X550983Y217968D01*
X550981Y217999D01*
X550987Y218039D01*
X550987Y349894D01*
X552791Y351699D01*
X566630Y365537D01*
X566661Y365582D01*
X566700Y365620D01*
X566725Y365673D01*
X566758Y365721D01*
X566772Y365774D01*
X566795Y365823D01*
X566799Y365882D01*
X566814Y365939D01*
X566809Y365993D01*
X566813Y366047D01*
X566796Y366116D01*
X566791Y366162D01*
X566777Y366189D01*
X566768Y366228D01*
X566717Y366350D01*
X566717Y368650D01*
X567598Y370776D01*
X569224Y372402D01*
X571350Y373283D01*
X573650Y373283D01*
X575776Y372402D01*
X577402Y370776D01*
X578283Y368650D01*
X578283Y366350D01*
X577402Y364224D01*
X575776Y362598D01*
X573650Y361717D01*
X571350Y361717D01*
X571228Y361768D01*
X571176Y361779D01*
X571126Y361800D01*
X571067Y361803D01*
X571009Y361815D01*
X570956Y361808D01*
X570901Y361810D01*
X570845Y361792D01*
X570787Y361784D01*
X570739Y361758D01*
X570688Y361742D01*
X570631Y361699D01*
X570590Y361677D01*
X570569Y361654D01*
X570537Y361630D01*
X556699Y347791D01*
X556674Y347757D01*
X556643Y347728D01*
X556612Y347667D01*
X556592Y347642D01*
X556588Y347633D01*
X556570Y347607D01*
X556560Y347566D01*
X556540Y347528D01*
X556530Y347462D01*
X556520Y347430D01*
X556520Y347412D01*
X556514Y347390D01*
X556517Y347369D01*
X556513Y347343D01*
X556513Y218039D01*
X556522Y217985D01*
X556522Y217931D01*
X556542Y217876D01*
X556552Y217818D01*
X556580Y217771D01*
X556598Y217720D01*
X556637Y217675D01*
X556667Y217625D01*
X556709Y217590D01*
X556744Y217549D01*
X556805Y217512D01*
X556841Y217483D01*
X556870Y217473D01*
X556904Y217453D01*
X557026Y217402D01*
X558652Y215776D01*
X559533Y213650D01*
X559533Y211350D01*
X558652Y209224D01*
X557026Y207598D01*
X554900Y206717D01*
X552600Y206717D01*
G37*
%LPD*%
%LPC*%
G36*
X1008850Y434217D02*
X1008850Y434217D01*
X1006724Y435098D01*
X1005098Y436724D01*
X1004217Y438850D01*
X1004217Y441150D01*
X1005098Y443276D01*
X1006724Y444902D01*
X1006846Y444953D01*
X1006891Y444982D01*
X1006941Y445002D01*
X1006985Y445042D01*
X1007035Y445074D01*
X1007067Y445117D01*
X1007107Y445154D01*
X1007134Y445206D01*
X1007169Y445253D01*
X1007185Y445305D01*
X1007210Y445353D01*
X1007220Y445424D01*
X1007233Y445468D01*
X1007231Y445499D01*
X1007237Y445539D01*
X1007237Y493644D01*
X1010380Y496787D01*
X1010411Y496832D01*
X1010450Y496870D01*
X1010474Y496923D01*
X1010508Y496971D01*
X1010522Y497024D01*
X1010545Y497073D01*
X1010549Y497132D01*
X1010564Y497189D01*
X1010558Y497243D01*
X1010563Y497296D01*
X1010546Y497366D01*
X1010541Y497412D01*
X1010527Y497439D01*
X1010518Y497478D01*
X1010467Y497600D01*
X1010467Y499900D01*
X1011348Y502026D01*
X1012974Y503652D01*
X1013096Y503703D01*
X1013141Y503732D01*
X1013191Y503752D01*
X1013235Y503792D01*
X1013285Y503824D01*
X1013317Y503867D01*
X1013357Y503904D01*
X1013384Y503956D01*
X1013419Y504003D01*
X1013435Y504055D01*
X1013460Y504103D01*
X1013470Y504174D01*
X1013483Y504218D01*
X1013481Y504249D01*
X1013487Y504289D01*
X1013487Y551093D01*
X1013480Y551135D01*
X1013482Y551177D01*
X1013460Y551244D01*
X1013448Y551314D01*
X1013426Y551350D01*
X1013413Y551391D01*
X1013359Y551463D01*
X1013333Y551507D01*
X1013317Y551520D01*
X1013301Y551541D01*
X998213Y566630D01*
X998185Y566649D01*
X998179Y566656D01*
X998167Y566662D01*
X998130Y566700D01*
X998077Y566724D01*
X998029Y566758D01*
X997976Y566772D01*
X997927Y566795D01*
X997868Y566799D01*
X997811Y566814D01*
X997757Y566808D01*
X997704Y566813D01*
X997634Y566796D01*
X997588Y566791D01*
X997561Y566777D01*
X997522Y566768D01*
X997400Y566717D01*
X995100Y566717D01*
X992974Y567598D01*
X991348Y569224D01*
X990467Y571350D01*
X990467Y573650D01*
X991348Y575776D01*
X992974Y577402D01*
X995100Y578283D01*
X997400Y578283D01*
X999526Y577402D01*
X1001152Y575776D01*
X1002033Y573650D01*
X1002033Y571350D01*
X1001982Y571228D01*
X1001971Y571175D01*
X1001950Y571126D01*
X1001947Y571067D01*
X1001935Y571009D01*
X1001942Y570956D01*
X1001940Y570901D01*
X1001958Y570845D01*
X1001966Y570787D01*
X1001992Y570739D01*
X1002008Y570688D01*
X1002051Y570631D01*
X1002073Y570590D01*
X1002096Y570570D01*
X1002120Y570537D01*
X1019013Y553644D01*
X1019013Y504289D01*
X1019022Y504235D01*
X1019022Y504181D01*
X1019042Y504126D01*
X1019052Y504068D01*
X1019080Y504021D01*
X1019098Y503970D01*
X1019137Y503925D01*
X1019167Y503875D01*
X1019209Y503840D01*
X1019244Y503799D01*
X1019305Y503762D01*
X1019341Y503733D01*
X1019370Y503723D01*
X1019404Y503703D01*
X1019526Y503652D01*
X1021152Y502026D01*
X1022033Y499900D01*
X1022033Y497600D01*
X1021152Y495474D01*
X1019526Y493848D01*
X1017400Y492967D01*
X1015100Y492967D01*
X1014978Y493018D01*
X1014925Y493029D01*
X1014876Y493050D01*
X1014817Y493053D01*
X1014759Y493065D01*
X1014706Y493058D01*
X1014651Y493060D01*
X1014595Y493042D01*
X1014537Y493034D01*
X1014489Y493008D01*
X1014438Y492992D01*
X1014381Y492949D01*
X1014340Y492927D01*
X1014320Y492904D01*
X1014287Y492880D01*
X1012949Y491541D01*
X1012924Y491507D01*
X1012893Y491478D01*
X1012861Y491415D01*
X1012820Y491357D01*
X1012810Y491316D01*
X1012790Y491278D01*
X1012777Y491189D01*
X1012764Y491140D01*
X1012767Y491119D01*
X1012763Y491093D01*
X1012763Y445539D01*
X1012772Y445485D01*
X1012772Y445431D01*
X1012792Y445376D01*
X1012802Y445318D01*
X1012830Y445271D01*
X1012848Y445220D01*
X1012887Y445175D01*
X1012917Y445125D01*
X1012959Y445090D01*
X1012994Y445049D01*
X1013055Y445012D01*
X1013091Y444983D01*
X1013120Y444973D01*
X1013154Y444953D01*
X1013276Y444902D01*
X1014902Y443276D01*
X1015783Y441150D01*
X1015783Y438850D01*
X1014902Y436724D01*
X1013276Y435098D01*
X1011150Y434217D01*
X1008850Y434217D01*
G37*
%LPD*%
%LPC*%
G36*
X1013850Y285467D02*
X1013850Y285467D01*
X1011724Y286348D01*
X1010098Y287974D01*
X1009217Y290100D01*
X1009217Y292400D01*
X1010098Y294526D01*
X1011724Y296152D01*
X1013160Y296747D01*
X1013245Y296801D01*
X1013331Y296853D01*
X1013339Y296862D01*
X1013349Y296868D01*
X1013409Y296949D01*
X1013473Y297027D01*
X1013477Y297038D01*
X1013484Y297048D01*
X1013513Y297144D01*
X1013545Y297239D01*
X1013544Y297251D01*
X1013548Y297263D01*
X1013541Y297364D01*
X1013538Y297464D01*
X1013534Y297475D01*
X1013533Y297486D01*
X1013491Y297579D01*
X1013454Y297671D01*
X1013446Y297680D01*
X1013441Y297691D01*
X1013370Y297763D01*
X1013302Y297837D01*
X1013292Y297843D01*
X1013283Y297851D01*
X1013192Y297893D01*
X1013103Y297940D01*
X1013090Y297942D01*
X1013080Y297946D01*
X1013035Y297950D01*
X1012917Y297967D01*
X1011350Y297967D01*
X1009224Y298848D01*
X1007598Y300474D01*
X1006717Y302600D01*
X1006717Y304900D01*
X1007598Y307026D01*
X1009224Y308652D01*
X1011350Y309533D01*
X1012853Y309533D01*
X1012918Y309544D01*
X1012984Y309546D01*
X1013027Y309564D01*
X1013074Y309572D01*
X1013131Y309606D01*
X1013191Y309631D01*
X1013226Y309662D01*
X1013267Y309687D01*
X1013309Y309738D01*
X1013357Y309782D01*
X1013379Y309824D01*
X1013408Y309861D01*
X1013429Y309923D01*
X1013460Y309982D01*
X1013468Y310036D01*
X1013480Y310073D01*
X1013479Y310113D01*
X1013487Y310167D01*
X1013487Y351961D01*
X1013478Y352015D01*
X1013478Y352069D01*
X1013458Y352124D01*
X1013448Y352182D01*
X1013420Y352229D01*
X1013402Y352280D01*
X1013363Y352325D01*
X1013333Y352375D01*
X1013291Y352410D01*
X1013256Y352451D01*
X1013195Y352488D01*
X1013159Y352517D01*
X1013130Y352527D01*
X1013096Y352547D01*
X1012974Y352598D01*
X1011348Y354224D01*
X1010467Y356350D01*
X1010467Y358650D01*
X1011348Y360776D01*
X1012974Y362402D01*
X1015100Y363283D01*
X1017400Y363283D01*
X1019526Y362402D01*
X1021152Y360776D01*
X1022033Y358650D01*
X1022033Y358032D01*
X1022048Y357944D01*
X1022058Y357856D01*
X1022068Y357834D01*
X1022072Y357811D01*
X1022118Y357734D01*
X1022157Y357655D01*
X1022174Y357638D01*
X1022187Y357618D01*
X1022256Y357562D01*
X1022320Y357501D01*
X1022342Y357491D01*
X1022361Y357477D01*
X1022445Y357448D01*
X1022527Y357413D01*
X1022551Y357412D01*
X1022573Y357405D01*
X1022662Y357407D01*
X1022751Y357403D01*
X1022774Y357411D01*
X1022798Y357411D01*
X1022880Y357445D01*
X1022965Y357472D01*
X1022986Y357488D01*
X1023005Y357496D01*
X1023043Y357530D01*
X1023115Y357583D01*
X1024224Y358692D01*
X1026350Y359573D01*
X1028650Y359573D01*
X1030776Y358692D01*
X1032402Y357066D01*
X1033283Y354940D01*
X1033283Y352640D01*
X1032402Y350514D01*
X1030776Y348888D01*
X1028650Y348007D01*
X1026350Y348007D01*
X1026228Y348058D01*
X1026176Y348069D01*
X1026126Y348090D01*
X1026067Y348093D01*
X1026009Y348105D01*
X1025956Y348098D01*
X1025901Y348100D01*
X1025845Y348082D01*
X1025787Y348074D01*
X1025739Y348048D01*
X1025688Y348032D01*
X1025631Y347989D01*
X1025590Y347967D01*
X1025570Y347944D01*
X1025537Y347920D01*
X1022948Y345331D01*
X1022924Y345297D01*
X1022893Y345268D01*
X1022861Y345205D01*
X1022820Y345147D01*
X1022810Y345106D01*
X1022790Y345068D01*
X1022777Y344979D01*
X1022764Y344930D01*
X1022767Y344909D01*
X1022763Y344883D01*
X1022763Y295106D01*
X1020870Y293213D01*
X1020839Y293168D01*
X1020800Y293130D01*
X1020775Y293077D01*
X1020742Y293029D01*
X1020728Y292976D01*
X1020705Y292927D01*
X1020701Y292868D01*
X1020686Y292811D01*
X1020691Y292757D01*
X1020687Y292703D01*
X1020704Y292634D01*
X1020709Y292588D01*
X1020723Y292561D01*
X1020732Y292522D01*
X1020783Y292400D01*
X1020783Y290100D01*
X1019902Y287974D01*
X1018276Y286348D01*
X1016150Y285467D01*
X1013850Y285467D01*
G37*
%LPD*%
%LPC*%
G36*
X507600Y282967D02*
X507600Y282967D01*
X505474Y283848D01*
X503848Y285474D01*
X502967Y287600D01*
X502967Y289900D01*
X503848Y292026D01*
X505474Y293652D01*
X505596Y293703D01*
X505641Y293732D01*
X505691Y293752D01*
X505735Y293792D01*
X505785Y293824D01*
X505817Y293867D01*
X505857Y293904D01*
X505884Y293956D01*
X505919Y294003D01*
X505935Y294055D01*
X505960Y294103D01*
X505970Y294174D01*
X505983Y294218D01*
X505981Y294249D01*
X505987Y294289D01*
X505987Y374461D01*
X505978Y374515D01*
X505978Y374569D01*
X505958Y374624D01*
X505948Y374682D01*
X505920Y374729D01*
X505902Y374780D01*
X505863Y374825D01*
X505833Y374875D01*
X505791Y374910D01*
X505756Y374951D01*
X505695Y374988D01*
X505659Y375017D01*
X505630Y375027D01*
X505596Y375047D01*
X505474Y375098D01*
X503848Y376724D01*
X502967Y378850D01*
X502967Y381150D01*
X503848Y383276D01*
X505474Y384902D01*
X507600Y385783D01*
X509900Y385783D01*
X512026Y384902D01*
X513652Y383276D01*
X514533Y381150D01*
X514533Y378850D01*
X513652Y376724D01*
X512026Y375098D01*
X511904Y375047D01*
X511859Y375018D01*
X511809Y374998D01*
X511765Y374958D01*
X511715Y374926D01*
X511683Y374883D01*
X511643Y374846D01*
X511616Y374794D01*
X511581Y374747D01*
X511565Y374695D01*
X511540Y374647D01*
X511530Y374576D01*
X511517Y374532D01*
X511519Y374501D01*
X511513Y374461D01*
X511513Y294289D01*
X511522Y294235D01*
X511522Y294181D01*
X511542Y294126D01*
X511552Y294068D01*
X511580Y294021D01*
X511598Y293970D01*
X511637Y293925D01*
X511667Y293875D01*
X511709Y293840D01*
X511744Y293799D01*
X511805Y293762D01*
X511841Y293733D01*
X511870Y293723D01*
X511904Y293703D01*
X512026Y293652D01*
X513652Y292026D01*
X514533Y289900D01*
X514533Y287600D01*
X513652Y285474D01*
X512026Y283848D01*
X509900Y282967D01*
X507600Y282967D01*
G37*
%LPD*%
%LPC*%
G36*
X540100Y231717D02*
X540100Y231717D01*
X537974Y232598D01*
X536348Y234224D01*
X535467Y236350D01*
X535467Y238650D01*
X535518Y238772D01*
X535529Y238824D01*
X535550Y238874D01*
X535553Y238933D01*
X535565Y238991D01*
X535558Y239044D01*
X535560Y239099D01*
X535542Y239155D01*
X535534Y239213D01*
X535508Y239261D01*
X535492Y239312D01*
X535449Y239369D01*
X535427Y239410D01*
X535404Y239431D01*
X535380Y239463D01*
X481963Y292880D01*
X481918Y292911D01*
X481880Y292950D01*
X481827Y292975D01*
X481779Y293008D01*
X481726Y293022D01*
X481677Y293045D01*
X481618Y293049D01*
X481561Y293064D01*
X481507Y293059D01*
X481453Y293063D01*
X481384Y293046D01*
X481338Y293041D01*
X481311Y293027D01*
X481272Y293018D01*
X481150Y292967D01*
X478850Y292967D01*
X476724Y293848D01*
X475098Y295474D01*
X474217Y297600D01*
X474217Y299900D01*
X475098Y302026D01*
X476724Y303652D01*
X478850Y304533D01*
X481150Y304533D01*
X483276Y303652D01*
X484902Y302026D01*
X485783Y299900D01*
X485783Y297600D01*
X485732Y297478D01*
X485721Y297426D01*
X485700Y297376D01*
X485698Y297328D01*
X485696Y297324D01*
X485697Y297315D01*
X485685Y297259D01*
X485692Y297206D01*
X485690Y297151D01*
X485703Y297111D01*
X485703Y297100D01*
X485709Y297084D01*
X485716Y297037D01*
X485742Y296989D01*
X485758Y296938D01*
X485781Y296907D01*
X485787Y296892D01*
X485805Y296872D01*
X485823Y296840D01*
X485846Y296819D01*
X485870Y296787D01*
X539287Y243370D01*
X539332Y243339D01*
X539370Y243300D01*
X539423Y243275D01*
X539471Y243242D01*
X539524Y243228D01*
X539573Y243205D01*
X539632Y243201D01*
X539689Y243186D01*
X539743Y243191D01*
X539797Y243187D01*
X539866Y243204D01*
X539912Y243209D01*
X539939Y243223D01*
X539978Y243232D01*
X540100Y243283D01*
X542400Y243283D01*
X544526Y242402D01*
X546152Y240776D01*
X547033Y238650D01*
X547033Y236350D01*
X546152Y234224D01*
X544526Y232598D01*
X542400Y231717D01*
X540100Y231717D01*
G37*
%LPD*%
%LPC*%
G36*
X579635Y511569D02*
X579635Y511569D01*
X574489Y513701D01*
X570551Y517639D01*
X568419Y522785D01*
X568419Y528355D01*
X570551Y533501D01*
X574489Y537439D01*
X579635Y539571D01*
X585205Y539571D01*
X590351Y537439D01*
X594289Y533501D01*
X596421Y528355D01*
X596421Y522785D01*
X594289Y517639D01*
X590351Y513701D01*
X585205Y511569D01*
X579635Y511569D01*
G37*
%LPD*%
%LPC*%
G36*
X579635Y587569D02*
X579635Y587569D01*
X574489Y589701D01*
X570551Y593639D01*
X568419Y598785D01*
X568419Y604355D01*
X570551Y609501D01*
X574489Y613439D01*
X579635Y615571D01*
X585205Y615571D01*
X590351Y613439D01*
X594289Y609501D01*
X596421Y604355D01*
X596421Y598785D01*
X594289Y593639D01*
X590351Y589701D01*
X585205Y587569D01*
X579635Y587569D01*
G37*
%LPD*%
%LPC*%
G36*
X376842Y64629D02*
X376842Y64629D01*
X373336Y66082D01*
X370652Y68766D01*
X369199Y72272D01*
X369199Y91148D01*
X370652Y94654D01*
X373336Y97338D01*
X376842Y98791D01*
X380638Y98791D01*
X384144Y97338D01*
X386828Y94654D01*
X388281Y91148D01*
X388281Y72272D01*
X386828Y68766D01*
X384144Y66082D01*
X380638Y64629D01*
X376842Y64629D01*
G37*
%LPD*%
%LPC*%
G36*
X478442Y64629D02*
X478442Y64629D01*
X474936Y66082D01*
X472252Y68766D01*
X470799Y72272D01*
X470799Y91148D01*
X472252Y94654D01*
X474936Y97338D01*
X478442Y98791D01*
X482238Y98791D01*
X485744Y97338D01*
X488428Y94654D01*
X489881Y91148D01*
X489881Y72272D01*
X488428Y68766D01*
X485744Y66082D01*
X482238Y64629D01*
X478442Y64629D01*
G37*
%LPD*%
%LPC*%
G36*
X1045652Y641619D02*
X1045652Y641619D01*
X1042146Y643072D01*
X1039462Y645756D01*
X1038009Y649262D01*
X1038009Y668138D01*
X1039462Y671644D01*
X1042146Y674328D01*
X1045652Y675781D01*
X1049448Y675781D01*
X1052954Y674328D01*
X1055638Y671644D01*
X1057091Y668138D01*
X1057091Y649262D01*
X1055638Y645756D01*
X1052954Y643072D01*
X1049448Y641619D01*
X1045652Y641619D01*
G37*
%LPD*%
%LPC*%
G36*
X741212Y62619D02*
X741212Y62619D01*
X737706Y64072D01*
X735022Y66756D01*
X733569Y70262D01*
X733569Y89138D01*
X735022Y92644D01*
X737706Y95328D01*
X741212Y96781D01*
X745008Y96781D01*
X748514Y95328D01*
X751198Y92644D01*
X752651Y89138D01*
X752651Y70262D01*
X751198Y66756D01*
X748514Y64072D01*
X745008Y62619D01*
X741212Y62619D01*
G37*
%LPD*%
%LPC*%
G36*
X766612Y62619D02*
X766612Y62619D01*
X763106Y64072D01*
X760422Y66756D01*
X758969Y70262D01*
X758969Y89138D01*
X760422Y92644D01*
X763106Y95328D01*
X766612Y96781D01*
X770408Y96781D01*
X773914Y95328D01*
X776598Y92644D01*
X778051Y89138D01*
X778051Y70262D01*
X776598Y66756D01*
X773914Y64072D01*
X770408Y62619D01*
X766612Y62619D01*
G37*
%LPD*%
%LPC*%
G36*
X969452Y641619D02*
X969452Y641619D01*
X965946Y643072D01*
X963262Y645756D01*
X961809Y649262D01*
X961809Y668138D01*
X963262Y671644D01*
X965946Y674328D01*
X969452Y675781D01*
X973248Y675781D01*
X976754Y674328D01*
X979438Y671644D01*
X980891Y668138D01*
X980891Y649262D01*
X979438Y645756D01*
X976754Y643072D01*
X973248Y641619D01*
X969452Y641619D01*
G37*
%LPD*%
%LPC*%
G36*
X1020252Y641619D02*
X1020252Y641619D01*
X1016746Y643072D01*
X1014062Y645756D01*
X1012609Y649262D01*
X1012609Y668138D01*
X1014062Y671644D01*
X1016746Y674328D01*
X1020252Y675781D01*
X1024048Y675781D01*
X1027554Y674328D01*
X1030238Y671644D01*
X1031691Y668138D01*
X1031691Y649262D01*
X1030238Y645756D01*
X1027554Y643072D01*
X1024048Y641619D01*
X1020252Y641619D01*
G37*
%LPD*%
%LPC*%
G36*
X994852Y641619D02*
X994852Y641619D01*
X991346Y643072D01*
X988662Y645756D01*
X987209Y649262D01*
X987209Y668138D01*
X988662Y671644D01*
X991346Y674328D01*
X994852Y675781D01*
X998648Y675781D01*
X1002154Y674328D01*
X1004838Y671644D01*
X1006291Y668138D01*
X1006291Y649262D01*
X1004838Y645756D01*
X1002154Y643072D01*
X998648Y641619D01*
X994852Y641619D01*
G37*
%LPD*%
%LPC*%
G36*
X402242Y64629D02*
X402242Y64629D01*
X398736Y66082D01*
X396052Y68766D01*
X394599Y72272D01*
X394599Y91148D01*
X396052Y94654D01*
X398736Y97338D01*
X402242Y98791D01*
X406038Y98791D01*
X409544Y97338D01*
X412228Y94654D01*
X413681Y91148D01*
X413681Y72272D01*
X412228Y68766D01*
X409544Y66082D01*
X406038Y64629D01*
X402242Y64629D01*
G37*
%LPD*%
%LPC*%
G36*
X266498Y218764D02*
X266498Y218764D01*
X261904Y220667D01*
X258387Y224184D01*
X256484Y228778D01*
X256484Y233752D01*
X258387Y238346D01*
X261904Y241863D01*
X266498Y243766D01*
X271472Y243766D01*
X276066Y241863D01*
X279583Y238346D01*
X281486Y233752D01*
X281486Y228778D01*
X279583Y224184D01*
X276066Y220667D01*
X271472Y218764D01*
X266498Y218764D01*
G37*
%LPD*%
%LPC*%
G36*
X320498Y313544D02*
X320498Y313544D01*
X315904Y315447D01*
X312387Y318964D01*
X310484Y323558D01*
X310484Y328532D01*
X312387Y333126D01*
X315904Y336643D01*
X320498Y338546D01*
X325472Y338546D01*
X330066Y336643D01*
X333583Y333126D01*
X335486Y328532D01*
X335486Y323558D01*
X333583Y318964D01*
X330066Y315447D01*
X325472Y313544D01*
X320498Y313544D01*
G37*
%LPD*%
%LPC*%
G36*
X266498Y256544D02*
X266498Y256544D01*
X261904Y258447D01*
X258387Y261964D01*
X256484Y266558D01*
X256484Y271532D01*
X258387Y276126D01*
X261904Y279643D01*
X266498Y281546D01*
X271472Y281546D01*
X276066Y279643D01*
X279583Y276126D01*
X281486Y271532D01*
X281486Y266558D01*
X279583Y261964D01*
X276066Y258447D01*
X271472Y256544D01*
X266498Y256544D01*
G37*
%LPD*%
%LPC*%
G36*
X320498Y168764D02*
X320498Y168764D01*
X315904Y170667D01*
X312387Y174184D01*
X310484Y178778D01*
X310484Y183752D01*
X312387Y188346D01*
X315904Y191863D01*
X320498Y193766D01*
X325472Y193766D01*
X330066Y191863D01*
X333583Y188346D01*
X335486Y183752D01*
X335486Y178778D01*
X333583Y174184D01*
X330066Y170667D01*
X325472Y168764D01*
X320498Y168764D01*
G37*
%LPD*%
%LPC*%
G36*
X809277Y56114D02*
X809277Y56114D01*
X805234Y57789D01*
X802139Y60884D01*
X800464Y64927D01*
X800464Y69303D01*
X802139Y73346D01*
X805234Y76441D01*
X809277Y78116D01*
X813653Y78116D01*
X817696Y76441D01*
X820791Y73346D01*
X822466Y69303D01*
X822466Y64927D01*
X820791Y60884D01*
X817696Y57789D01*
X813653Y56114D01*
X809277Y56114D01*
G37*
%LPD*%
%LPC*%
G36*
X885477Y56114D02*
X885477Y56114D01*
X881434Y57789D01*
X878339Y60884D01*
X876664Y64927D01*
X876664Y69303D01*
X878339Y73346D01*
X881434Y76441D01*
X885477Y78116D01*
X889853Y78116D01*
X893896Y76441D01*
X896991Y73346D01*
X898666Y69303D01*
X898666Y64927D01*
X896991Y60884D01*
X893896Y57789D01*
X889853Y56114D01*
X885477Y56114D01*
G37*
%LPD*%
%LPC*%
G36*
X885477Y132314D02*
X885477Y132314D01*
X881434Y133989D01*
X878339Y137084D01*
X876664Y141127D01*
X876664Y145503D01*
X878339Y149546D01*
X881434Y152641D01*
X885477Y154316D01*
X889853Y154316D01*
X893896Y152641D01*
X896991Y149546D01*
X898666Y145503D01*
X898666Y141127D01*
X896991Y137084D01*
X893896Y133989D01*
X889853Y132314D01*
X885477Y132314D01*
G37*
%LPD*%
%LPC*%
G36*
X422372Y146123D02*
X422372Y146123D01*
X416513Y151982D01*
X416513Y160268D01*
X422372Y166127D01*
X430658Y166127D01*
X436517Y160268D01*
X436517Y151982D01*
X430658Y146123D01*
X422372Y146123D01*
G37*
%LPD*%
%LPC*%
G36*
X561357Y154503D02*
X561357Y154503D01*
X555498Y160362D01*
X555498Y168648D01*
X561357Y174507D01*
X569643Y174507D01*
X575502Y168648D01*
X575502Y160362D01*
X569643Y154503D01*
X561357Y154503D01*
G37*
%LPD*%
%LPC*%
G36*
X435677Y367393D02*
X435677Y367393D01*
X429818Y373252D01*
X429818Y381538D01*
X435677Y387397D01*
X443963Y387397D01*
X449822Y381538D01*
X449822Y373252D01*
X443963Y367393D01*
X435677Y367393D01*
G37*
%LPD*%
%LPC*%
G36*
X506850Y98357D02*
X506850Y98357D01*
X504724Y99238D01*
X503098Y100864D01*
X502217Y102990D01*
X502217Y105416D01*
X502210Y105458D01*
X502212Y105501D01*
X502190Y105568D01*
X502178Y105637D01*
X502156Y105674D01*
X502143Y105714D01*
X502089Y105787D01*
X502063Y105830D01*
X502047Y105844D01*
X502031Y105865D01*
X498649Y109247D01*
X498649Y119020D01*
X498642Y119062D01*
X498644Y119104D01*
X498636Y119128D01*
X498636Y119137D01*
X498624Y119166D01*
X498622Y119171D01*
X498610Y119241D01*
X498588Y119277D01*
X498575Y119318D01*
X498521Y119391D01*
X498495Y119434D01*
X498479Y119447D01*
X498463Y119468D01*
X496748Y121184D01*
X495867Y123310D01*
X495867Y125610D01*
X496748Y127736D01*
X498374Y129362D01*
X500500Y130243D01*
X502800Y130243D01*
X504926Y129362D01*
X506552Y127736D01*
X507433Y125610D01*
X507433Y123310D01*
X506552Y121184D01*
X504837Y119468D01*
X504812Y119434D01*
X504781Y119405D01*
X504749Y119342D01*
X504708Y119284D01*
X504698Y119243D01*
X504678Y119205D01*
X504667Y119126D01*
X504658Y119100D01*
X504658Y119089D01*
X504652Y119067D01*
X504655Y119046D01*
X504651Y119020D01*
X504651Y111996D01*
X504658Y111954D01*
X504656Y111911D01*
X504678Y111844D01*
X504690Y111775D01*
X504712Y111738D01*
X504725Y111698D01*
X504779Y111625D01*
X504805Y111582D01*
X504821Y111568D01*
X504837Y111547D01*
X506275Y110109D01*
X506310Y110084D01*
X506339Y110053D01*
X506402Y110021D01*
X506459Y109980D01*
X506500Y109970D01*
X506538Y109950D01*
X506628Y109937D01*
X506677Y109924D01*
X506697Y109927D01*
X506724Y109923D01*
X509150Y109923D01*
X511276Y109042D01*
X512902Y107416D01*
X513783Y105290D01*
X513783Y102990D01*
X512902Y100864D01*
X511276Y99238D01*
X509150Y98357D01*
X506850Y98357D01*
G37*
%LPD*%
%LPC*%
G36*
X293330Y135322D02*
X293330Y135322D01*
X291204Y136203D01*
X289578Y137829D01*
X288697Y139955D01*
X288697Y142255D01*
X289578Y144381D01*
X291204Y146007D01*
X293330Y146888D01*
X295630Y146888D01*
X297756Y146007D01*
X299472Y144292D01*
X299506Y144267D01*
X299535Y144236D01*
X299598Y144204D01*
X299656Y144163D01*
X299697Y144153D01*
X299735Y144133D01*
X299824Y144120D01*
X299873Y144107D01*
X299894Y144110D01*
X299920Y144106D01*
X307445Y144106D01*
X307487Y144113D01*
X307529Y144111D01*
X307596Y144133D01*
X307666Y144145D01*
X307702Y144167D01*
X307743Y144180D01*
X307816Y144234D01*
X307859Y144260D01*
X307872Y144276D01*
X307893Y144292D01*
X309609Y146007D01*
X311735Y146888D01*
X314035Y146888D01*
X316161Y146007D01*
X317787Y144381D01*
X318668Y142255D01*
X318668Y139955D01*
X317787Y137829D01*
X316161Y136203D01*
X314035Y135322D01*
X311735Y135322D01*
X309609Y136203D01*
X307893Y137918D01*
X307859Y137943D01*
X307830Y137974D01*
X307767Y138006D01*
X307709Y138047D01*
X307668Y138057D01*
X307630Y138077D01*
X307541Y138090D01*
X307492Y138103D01*
X307471Y138100D01*
X307445Y138104D01*
X299920Y138104D01*
X299878Y138097D01*
X299836Y138099D01*
X299769Y138077D01*
X299699Y138065D01*
X299663Y138043D01*
X299622Y138030D01*
X299549Y137976D01*
X299506Y137950D01*
X299493Y137934D01*
X299472Y137918D01*
X297756Y136203D01*
X295630Y135322D01*
X293330Y135322D01*
G37*
%LPD*%
%LPC*%
G36*
X379491Y165034D02*
X379491Y165034D01*
X376444Y166296D01*
X374111Y168629D01*
X372849Y171676D01*
X372849Y174974D01*
X374111Y178021D01*
X376444Y180354D01*
X379491Y181616D01*
X382789Y181616D01*
X385836Y180354D01*
X388169Y178021D01*
X389431Y174974D01*
X389431Y171676D01*
X388169Y168629D01*
X385836Y166296D01*
X382789Y165034D01*
X379491Y165034D01*
G37*
%LPD*%
%LPC*%
G36*
X383516Y356569D02*
X383516Y356569D01*
X380469Y357831D01*
X378136Y360164D01*
X376874Y363211D01*
X376874Y366509D01*
X378136Y369556D01*
X380469Y371889D01*
X383516Y373151D01*
X386814Y373151D01*
X389861Y371889D01*
X392194Y369556D01*
X393456Y366509D01*
X393456Y363211D01*
X392194Y360164D01*
X389861Y357831D01*
X386814Y356569D01*
X383516Y356569D01*
G37*
%LPD*%
%LPC*%
G36*
X1074419Y558039D02*
X1074419Y558039D01*
X1074419Y560979D01*
X1080371Y566931D01*
X1083311Y566931D01*
X1083311Y558039D01*
X1074419Y558039D01*
G37*
%LPD*%
%LPC*%
G36*
X1080371Y546609D02*
X1080371Y546609D01*
X1074419Y552561D01*
X1074419Y555501D01*
X1083311Y555501D01*
X1083311Y546609D01*
X1080371Y546609D01*
G37*
%LPD*%
%LPC*%
G36*
X366434Y366129D02*
X366434Y366129D01*
X366434Y373691D01*
X371790Y373691D01*
X372436Y373518D01*
X373015Y373183D01*
X373488Y372710D01*
X373823Y372131D01*
X373996Y371485D01*
X373996Y366129D01*
X366434Y366129D01*
G37*
%LPD*%
%LPC*%
G36*
X356334Y366129D02*
X356334Y366129D01*
X356334Y371485D01*
X356507Y372131D01*
X356842Y372710D01*
X357315Y373183D01*
X357894Y373518D01*
X358540Y373691D01*
X363896Y373691D01*
X363896Y366129D01*
X356334Y366129D01*
G37*
%LPD*%
%LPC*%
G36*
X366434Y356029D02*
X366434Y356029D01*
X366434Y363591D01*
X373996Y363591D01*
X373996Y358235D01*
X373823Y357589D01*
X373488Y357010D01*
X373015Y356537D01*
X372436Y356202D01*
X371790Y356029D01*
X366434Y356029D01*
G37*
%LPD*%
%LPC*%
G36*
X358540Y356029D02*
X358540Y356029D01*
X357894Y356202D01*
X357315Y356537D01*
X356842Y357010D01*
X356507Y357589D01*
X356334Y358235D01*
X356334Y363591D01*
X363896Y363591D01*
X363896Y356029D01*
X358540Y356029D01*
G37*
%LPD*%
%LPC*%
G36*
X365164Y364859D02*
X365164Y364859D01*
X365164Y364861D01*
X365166Y364861D01*
X365166Y364859D01*
X365164Y364859D01*
G37*
%LPD*%
D10*
X563870Y134085D03*
X620430Y292600D03*
X426515Y156125D03*
X439820Y377395D03*
X600085Y292275D03*
X461420Y156815D03*
X751860Y202320D03*
X565500Y164505D03*
D11*
X361140Y173325D03*
D12*
X381140Y173325D03*
D11*
X365165Y364860D03*
D12*
X385165Y364860D03*
D13*
X259420Y468570D03*
X369420Y468570D03*
D14*
X582420Y525570D03*
X582420Y601570D03*
D13*
X369420Y658570D03*
X259420Y658570D03*
X698500Y684530D03*
X698500Y574530D03*
D14*
X755500Y361530D03*
X831500Y361530D03*
D13*
X888500Y574530D03*
X888500Y684530D03*
D15*
X268985Y231265D03*
X268985Y124265D03*
D16*
X223985Y211265D03*
X223985Y151265D03*
D15*
X322985Y181265D03*
D17*
X989265Y143315D03*
X887665Y143315D03*
X811465Y143315D03*
X811465Y67115D03*
X887665Y67115D03*
X989265Y67115D03*
D15*
X268985Y376045D03*
X268985Y269045D03*
D16*
X223985Y356045D03*
X223985Y296045D03*
D15*
X322985Y326045D03*
D18*
X971350Y651160D02*
X971350Y666240D01*
X996750Y666240D02*
X996750Y651160D01*
X1022150Y651160D02*
X1022150Y666240D01*
X1047550Y666240D02*
X1047550Y651160D01*
X768510Y87240D02*
X768510Y72160D01*
X743110Y72160D02*
X743110Y87240D01*
X717710Y87240D02*
X717710Y72160D01*
X692310Y72160D02*
X692310Y87240D01*
X641390Y87980D02*
X641390Y72900D01*
X615990Y72900D02*
X615990Y87980D01*
X590590Y87980D02*
X590590Y72900D01*
X565190Y72900D02*
X565190Y87980D01*
X539790Y87980D02*
X539790Y72900D01*
X514390Y72900D02*
X514390Y87980D01*
X480340Y89250D02*
X480340Y74170D01*
X454940Y74170D02*
X454940Y89250D01*
X429540Y89250D02*
X429540Y74170D01*
X404140Y74170D02*
X404140Y89250D01*
X378740Y89250D02*
X378740Y74170D01*
X353340Y74170D02*
X353340Y89250D01*
D15*
X899700Y276125D03*
D19*
X854700Y303125D03*
X800700Y249625D03*
X854700Y196125D03*
D15*
X899700Y216125D03*
D20*
X1084580Y524805D03*
X1084580Y455600D03*
X1084580Y367245D03*
X1084580Y291475D03*
X1084580Y141540D03*
X1084580Y556770D03*
X1084580Y398665D03*
X1084580Y236220D03*
X1084580Y205270D03*
D21*
X294480Y141105D03*
D22*
X312885Y141105D01*
D21*
X312885Y141105D03*
X970280Y260350D03*
D22*
X984250Y274320D01*
X1014730Y274320D01*
D21*
X1014730Y274320D03*
X1082874Y322580D03*
D22*
X1077794Y317500D01*
X1068070Y317500D01*
X1064260Y313690D01*
D21*
X1064260Y313690D03*
X501650Y124460D03*
D22*
X501650Y110490D01*
X508000Y104140D01*
D21*
X508000Y104140D03*
D22*
X863750Y383750D02*
X990000Y510000D01*
X831250Y283750D02*
X898750Y216250D01*
X831250Y283750D02*
X831250Y361250D01*
X898750Y216250D02*
X899700Y216125D01*
X831250Y361250D02*
X831500Y361530D01*
X453750Y82500D02*
X363750Y172500D01*
X361250Y172500D01*
X453750Y82500D02*
X454940Y81710D01*
X361250Y172500D02*
X361140Y173325D01*
D23*
X990000Y510000D03*
X863750Y383750D03*
D24*
X588750Y261250D02*
X565000Y285000D01*
X588750Y261250D02*
X588750Y82500D01*
X590000Y81250D01*
X590590Y80440D01*
D21*
X565000Y285000D03*
D24*
X601250Y292500D02*
X606250Y297500D01*
X606250Y396250D01*
X370000Y632500D01*
X370000Y657500D01*
X600085Y292275D02*
X601250Y292500D01*
X370000Y657500D02*
X369420Y658570D01*
X598750Y376250D02*
X575000Y352500D01*
X598750Y376250D02*
X598750Y381250D01*
D21*
X575000Y352500D03*
X598750Y381250D03*
D25*
X268750Y376250D02*
X258750Y386250D01*
X258750Y467500D01*
D24*
X268750Y376250D02*
X268985Y376045D01*
X258750Y467500D02*
X259420Y468570D01*
X623750Y227500D02*
X660000Y263750D01*
X623750Y227500D02*
X623750Y222500D01*
D21*
X660000Y263750D03*
X623750Y222500D03*
D24*
X513750Y81250D02*
X461250Y133750D01*
X461250Y156250D01*
X513750Y81250D02*
X514390Y80440D01*
X461250Y156250D02*
X461420Y156815D01*
X508750Y288750D02*
X508750Y380000D01*
D21*
X508750Y288750D03*
X508750Y380000D03*
D24*
X480000Y298750D02*
X541250Y237500D01*
D21*
X541250Y237500D03*
X480000Y298750D03*
D24*
X740000Y213750D02*
X751250Y202500D01*
X740000Y213750D02*
X740000Y233750D01*
X751250Y202500D02*
X751860Y202320D01*
X740000Y233750D02*
X812500Y306250D01*
X812500Y473750D01*
X887500Y548750D01*
X887500Y573750D01*
X888500Y574530D01*
D21*
X740000Y233750D03*
D24*
X752500Y256250D02*
X756250Y260000D01*
X756250Y361250D01*
X755500Y361530D01*
X755000Y362500D02*
X698750Y418750D01*
X698750Y573750D01*
X755000Y362500D02*
X755500Y361530D01*
X698750Y573750D02*
X698500Y574530D01*
D21*
X752500Y256250D03*
D24*
X667500Y206250D02*
X658750Y197500D01*
X667500Y206250D02*
X667500Y281250D01*
D21*
X658750Y197500D03*
X667500Y281250D03*
D24*
X716250Y183750D02*
X642500Y110000D01*
X642500Y81250D01*
X641390Y80440D01*
D21*
X716250Y183750D03*
D24*
X565000Y81250D02*
X563750Y82500D01*
X563750Y133750D01*
X565000Y81250D02*
X565190Y80440D01*
X563750Y133750D02*
X563870Y134085D01*
D25*
X352500Y82500D02*
X312500Y122500D01*
X270000Y122500D01*
D24*
X270000Y123750D01*
X352500Y82500D02*
X353340Y81710D01*
D25*
X270000Y123750D02*
X268985Y124265D01*
D24*
X251250Y268750D02*
X225000Y295000D01*
X251250Y268750D02*
X251250Y225000D01*
X372500Y103750D01*
X420000Y103750D01*
X420000Y96250D01*
X428750Y87500D01*
X428750Y82500D01*
X225000Y295000D02*
X223985Y296045D01*
X428750Y82500D02*
X429540Y81710D01*
D26*
X480000Y286250D03*
X1017500Y475000D03*
X548750Y137500D03*
X596250Y256250D03*
X938750Y296250D03*
X631250Y168750D03*
X1066250Y256250D03*
X1008750Y313750D03*
X968750Y440000D03*
X980000Y621250D03*
X1042500Y181250D03*
X526250Y156250D03*
X741250Y176250D03*
D24*
X553750Y348750D02*
X572500Y367500D01*
X553750Y348750D02*
X553750Y212500D01*
D21*
X572500Y367500D03*
X553750Y212500D03*
D24*
X990000Y128750D02*
X1011250Y107500D01*
X990000Y128750D02*
X990000Y142500D01*
X989265Y143315D01*
X988750Y143750D02*
X932500Y200000D01*
X932500Y267500D01*
X897500Y302500D01*
X855000Y302500D01*
X988750Y143750D02*
X989265Y143315D01*
X855000Y302500D02*
X854700Y303125D01*
X855000Y416250D02*
X986250Y547500D01*
X855000Y416250D02*
X855000Y303750D01*
X854700Y303125D01*
D21*
X1011250Y107500D03*
X986250Y547500D03*
D24*
X1041250Y273750D02*
X1035000Y267500D01*
X1035000Y121250D01*
X990000Y76250D01*
X990000Y67500D01*
X989265Y67115D01*
X1046250Y501250D02*
X1045000Y502500D01*
X1046250Y501250D02*
X1046250Y281290D01*
X1041250Y276290D02*
X1041250Y273750D01*
X1041250Y276290D02*
X1046250Y281290D01*
D21*
X1041250Y273750D03*
X1045000Y502500D03*
D24*
X753750Y141250D02*
X692500Y80000D01*
X753750Y141250D02*
X811250Y141250D01*
X811250Y142500D01*
X692500Y80000D02*
X692310Y79700D01*
X811250Y142500D02*
X811465Y143315D01*
X1020000Y346290D02*
X1027500Y353790D01*
X1020000Y346290D02*
X1020000Y296250D01*
X1015000Y291250D01*
D21*
X1027500Y353790D03*
X1015000Y291250D03*
D24*
X1010000Y492500D02*
X1016250Y498750D01*
X1010000Y492500D02*
X1010000Y440000D01*
X1016250Y552500D02*
X996250Y572500D01*
X1016250Y552500D02*
X1016250Y498750D01*
D21*
X1016250Y498750D03*
X1010000Y440000D03*
X996250Y572500D03*
D24*
X1016250Y307500D02*
X1012500Y303750D01*
X1016250Y307500D02*
X1016250Y357500D01*
D21*
X1012500Y303750D03*
X1016250Y357500D03*
D24*
X1056250Y363923D02*
X1084580Y398665D01*
X1056250Y363923D02*
X1056250Y336250D01*
D21*
X1056250Y336250D03*
D24*
X972730Y247500D02*
X961325Y258905D01*
X961325Y266740D01*
X972730Y247500D02*
X1027500Y247500D01*
X1027500Y242500D01*
D21*
X961325Y266740D03*
X1027500Y242500D03*
D24*
X671250Y191250D02*
X623750Y143750D01*
X671250Y191250D02*
X733750Y191250D01*
X733750Y172500D01*
X743750Y162500D01*
D21*
X623750Y143750D03*
X743750Y162500D03*
D24*
X615000Y183750D02*
X606250Y192500D01*
X615000Y183750D02*
X615000Y81250D01*
X615990Y80440D01*
D21*
X606250Y192500D03*
D24*
X926250Y327500D02*
X1038750Y440000D01*
D21*
X926250Y327500D03*
X1038750Y440000D03*
D24*
X538750Y211250D02*
X521250Y228750D01*
X538750Y211250D02*
X538750Y81250D01*
X539790Y80440D01*
D21*
X521250Y228750D03*
D24*
X1071250Y331210D02*
X1071250Y346250D01*
X1071250Y331210D02*
X1066290Y326250D01*
X1063750Y326250D01*
X1084580Y360211D02*
X1084580Y367245D01*
X1084580Y360211D02*
X1071250Y346250D01*
D21*
X1063750Y326250D03*
D24*
X1017500Y240000D02*
X1016250Y238750D01*
X1016250Y173750D01*
D21*
X1017500Y240000D03*
X1016250Y173750D03*
D24*
X925000Y200000D02*
X916250Y208750D01*
X916250Y250000D01*
X900000Y266250D01*
X900000Y275000D01*
X899700Y276125D01*
D21*
X925000Y200000D03*
M02*
