G04 EAGLE Gerber RS-274X export*
G75*
%MOMM*%
%FSLAX34Y34*%
%LPD*%
%IN*%
%IPPOS*%
%AMOC8*
5,1,8,0,0,1.08239X$1,22.5*%
G01*
%ADD10C,0.254000*%


D10*
X203200Y39705D02*
X1104902Y39832D01*
X1104902Y736627D01*
X203200Y736500D01*
X203200Y39705D01*
X244600Y62976D02*
X244532Y61931D01*
X244395Y60892D01*
X244190Y59865D01*
X243919Y58853D01*
X243583Y57861D01*
X243182Y56893D01*
X242718Y55954D01*
X242195Y55046D01*
X241613Y54175D01*
X240975Y53344D01*
X240284Y52557D01*
X239543Y51816D01*
X238756Y51125D01*
X237925Y50488D01*
X237054Y49906D01*
X236146Y49382D01*
X235207Y48918D01*
X234239Y48517D01*
X233247Y48181D01*
X232235Y47910D01*
X231208Y47705D01*
X230169Y47569D01*
X229124Y47500D01*
X228076Y47500D01*
X227031Y47569D01*
X225992Y47705D01*
X224965Y47910D01*
X223953Y48181D01*
X222961Y48517D01*
X221993Y48918D01*
X221054Y49382D01*
X220146Y49906D01*
X219275Y50488D01*
X218444Y51125D01*
X217657Y51816D01*
X216916Y52557D01*
X216225Y53344D01*
X215588Y54175D01*
X215006Y55046D01*
X214482Y55954D01*
X214018Y56893D01*
X213617Y57861D01*
X213281Y58853D01*
X213010Y59865D01*
X212805Y60892D01*
X212669Y61931D01*
X212600Y62976D01*
X212600Y64024D01*
X212669Y65069D01*
X212805Y66108D01*
X213010Y67135D01*
X213281Y68147D01*
X213617Y69139D01*
X214018Y70107D01*
X214482Y71046D01*
X215006Y71954D01*
X215588Y72825D01*
X216225Y73656D01*
X216916Y74443D01*
X217657Y75184D01*
X218444Y75875D01*
X219275Y76513D01*
X220146Y77095D01*
X221054Y77618D01*
X221993Y78082D01*
X222961Y78483D01*
X223953Y78819D01*
X224965Y79090D01*
X225992Y79295D01*
X227031Y79432D01*
X228076Y79500D01*
X229124Y79500D01*
X230169Y79432D01*
X231208Y79295D01*
X232235Y79090D01*
X233247Y78819D01*
X234239Y78483D01*
X235207Y78082D01*
X236146Y77618D01*
X237054Y77095D01*
X237925Y76513D01*
X238756Y75875D01*
X239543Y75184D01*
X240284Y74443D01*
X240975Y73656D01*
X241613Y72825D01*
X242195Y71954D01*
X242718Y71046D01*
X243182Y70107D01*
X243583Y69139D01*
X243919Y68147D01*
X244190Y67135D01*
X244395Y66108D01*
X244532Y65069D01*
X244600Y64024D01*
X244600Y62976D01*
X1095500Y62976D02*
X1095432Y61931D01*
X1095295Y60892D01*
X1095090Y59865D01*
X1094819Y58853D01*
X1094483Y57861D01*
X1094082Y56893D01*
X1093618Y55954D01*
X1093095Y55046D01*
X1092513Y54175D01*
X1091875Y53344D01*
X1091184Y52557D01*
X1090443Y51816D01*
X1089656Y51125D01*
X1088825Y50488D01*
X1087954Y49906D01*
X1087046Y49382D01*
X1086107Y48918D01*
X1085139Y48517D01*
X1084147Y48181D01*
X1083135Y47910D01*
X1082108Y47705D01*
X1081069Y47569D01*
X1080024Y47500D01*
X1078976Y47500D01*
X1077931Y47569D01*
X1076892Y47705D01*
X1075865Y47910D01*
X1074853Y48181D01*
X1073861Y48517D01*
X1072893Y48918D01*
X1071954Y49382D01*
X1071046Y49906D01*
X1070175Y50488D01*
X1069344Y51125D01*
X1068557Y51816D01*
X1067816Y52557D01*
X1067125Y53344D01*
X1066488Y54175D01*
X1065906Y55046D01*
X1065382Y55954D01*
X1064918Y56893D01*
X1064517Y57861D01*
X1064181Y58853D01*
X1063910Y59865D01*
X1063705Y60892D01*
X1063569Y61931D01*
X1063500Y62976D01*
X1063500Y64024D01*
X1063569Y65069D01*
X1063705Y66108D01*
X1063910Y67135D01*
X1064181Y68147D01*
X1064517Y69139D01*
X1064918Y70107D01*
X1065382Y71046D01*
X1065906Y71954D01*
X1066488Y72825D01*
X1067125Y73656D01*
X1067816Y74443D01*
X1068557Y75184D01*
X1069344Y75875D01*
X1070175Y76513D01*
X1071046Y77095D01*
X1071954Y77618D01*
X1072893Y78082D01*
X1073861Y78483D01*
X1074853Y78819D01*
X1075865Y79090D01*
X1076892Y79295D01*
X1077931Y79432D01*
X1078976Y79500D01*
X1080024Y79500D01*
X1081069Y79432D01*
X1082108Y79295D01*
X1083135Y79090D01*
X1084147Y78819D01*
X1085139Y78483D01*
X1086107Y78082D01*
X1087046Y77618D01*
X1087954Y77095D01*
X1088825Y76513D01*
X1089656Y75875D01*
X1090443Y75184D01*
X1091184Y74443D01*
X1091875Y73656D01*
X1092513Y72825D01*
X1093095Y71954D01*
X1093618Y71046D01*
X1094082Y70107D01*
X1094483Y69139D01*
X1094819Y68147D01*
X1095090Y67135D01*
X1095295Y66108D01*
X1095432Y65069D01*
X1095500Y64024D01*
X1095500Y62976D01*
X1095500Y710676D02*
X1095432Y709631D01*
X1095295Y708592D01*
X1095090Y707565D01*
X1094819Y706553D01*
X1094483Y705561D01*
X1094082Y704593D01*
X1093618Y703654D01*
X1093095Y702746D01*
X1092513Y701875D01*
X1091875Y701044D01*
X1091184Y700257D01*
X1090443Y699516D01*
X1089656Y698825D01*
X1088825Y698188D01*
X1087954Y697606D01*
X1087046Y697082D01*
X1086107Y696618D01*
X1085139Y696217D01*
X1084147Y695881D01*
X1083135Y695610D01*
X1082108Y695405D01*
X1081069Y695269D01*
X1080024Y695200D01*
X1078976Y695200D01*
X1077931Y695269D01*
X1076892Y695405D01*
X1075865Y695610D01*
X1074853Y695881D01*
X1073861Y696217D01*
X1072893Y696618D01*
X1071954Y697082D01*
X1071046Y697606D01*
X1070175Y698188D01*
X1069344Y698825D01*
X1068557Y699516D01*
X1067816Y700257D01*
X1067125Y701044D01*
X1066488Y701875D01*
X1065906Y702746D01*
X1065382Y703654D01*
X1064918Y704593D01*
X1064517Y705561D01*
X1064181Y706553D01*
X1063910Y707565D01*
X1063705Y708592D01*
X1063569Y709631D01*
X1063500Y710676D01*
X1063500Y711724D01*
X1063569Y712769D01*
X1063705Y713808D01*
X1063910Y714835D01*
X1064181Y715847D01*
X1064517Y716839D01*
X1064918Y717807D01*
X1065382Y718746D01*
X1065906Y719654D01*
X1066488Y720525D01*
X1067125Y721356D01*
X1067816Y722143D01*
X1068557Y722884D01*
X1069344Y723575D01*
X1070175Y724213D01*
X1071046Y724795D01*
X1071954Y725318D01*
X1072893Y725782D01*
X1073861Y726183D01*
X1074853Y726519D01*
X1075865Y726790D01*
X1076892Y726995D01*
X1077931Y727132D01*
X1078976Y727200D01*
X1080024Y727200D01*
X1081069Y727132D01*
X1082108Y726995D01*
X1083135Y726790D01*
X1084147Y726519D01*
X1085139Y726183D01*
X1086107Y725782D01*
X1087046Y725318D01*
X1087954Y724795D01*
X1088825Y724213D01*
X1089656Y723575D01*
X1090443Y722884D01*
X1091184Y722143D01*
X1091875Y721356D01*
X1092513Y720525D01*
X1093095Y719654D01*
X1093618Y718746D01*
X1094082Y717807D01*
X1094483Y716839D01*
X1094819Y715847D01*
X1095090Y714835D01*
X1095295Y713808D01*
X1095432Y712769D01*
X1095500Y711724D01*
X1095500Y710676D01*
M02*
