G04 EAGLE Gerber RS-274X export*
G75*
%MOMM*%
%FSLAX34Y34*%
%LPD*%
%INSoldermask Top*%
%IPPOS*%
%AMOC8*
5,1,8,0,0,1.08239X$1,22.5*%
G01*
%ADD10C,3.403200*%
%ADD11P,1.951982X8X22.500000*%
%ADD12R,1.203200X1.303200*%
%ADD13R,1.461200X1.461200*%
%ADD14C,1.461200*%
%ADD15R,1.303200X1.203200*%
%ADD16R,2.303200X1.203200*%
%ADD17R,6.053200X5.103200*%
%ADD18R,0.953200X1.403200*%
%ADD19R,1.403200X0.953200*%
%ADD20R,1.003200X1.003200*%
%ADD21R,1.753200X2.403200*%
%ADD22R,0.853200X1.853200*%
%ADD23R,1.403200X0.803200*%
%ADD24R,0.853200X1.728200*%
%ADD25R,1.853200X0.853200*%
%ADD26R,1.728200X0.853200*%
%ADD27R,1.403200X0.603200*%
%ADD28C,6.665200*%
%ADD29C,2.603200*%
%ADD30C,2.303200*%
%ADD31C,2.153200*%
%ADD32C,2.003200*%
%ADD33R,1.403200X0.853200*%
%ADD34C,1.711200*%
%ADD35C,3.603200*%
%ADD36P,1.869504X8X22.500000*%
%ADD37C,0.959600*%
%ADD38C,1.209600*%
%ADD39C,1.009600*%


D10*
X228600Y63500D03*
X1079500Y63500D03*
X1079500Y711200D03*
D11*
X563870Y134085D03*
X620430Y292600D03*
X426515Y156125D03*
X439820Y377395D03*
X600085Y292275D03*
X461420Y156815D03*
X751860Y202320D03*
X565500Y164505D03*
D12*
X756975Y138585D03*
X756975Y121585D03*
X698180Y138995D03*
X698180Y121995D03*
X1027430Y131415D03*
X1027430Y148415D03*
D13*
X361140Y173325D03*
D14*
X381140Y173325D03*
D13*
X365165Y364860D03*
D14*
X385165Y364860D03*
D15*
X349185Y220875D03*
X366185Y220875D03*
X348075Y318830D03*
X365075Y318830D03*
D12*
X483870Y173600D03*
X483870Y156600D03*
X1004570Y474100D03*
X1004570Y491100D03*
X1054100Y164220D03*
X1054100Y181220D03*
X1054075Y131385D03*
X1054075Y148385D03*
D16*
X355290Y293055D03*
X355290Y247455D03*
D17*
X423290Y270255D03*
D18*
X608075Y357340D03*
X608075Y391340D03*
D19*
X1057080Y106165D03*
X1023080Y106165D03*
D18*
X761490Y299545D03*
X761490Y265545D03*
X272390Y61095D03*
X272390Y95095D03*
D20*
X410835Y219710D03*
X388835Y219710D03*
D21*
X973625Y481250D03*
X973625Y522250D03*
D18*
X314290Y95065D03*
X314290Y61065D03*
D19*
X959995Y210110D03*
X925995Y210110D03*
D22*
X518620Y388765D03*
X493220Y388765D03*
X493220Y325765D03*
X518620Y325765D03*
D23*
X926245Y295985D03*
X926245Y286485D03*
X926245Y276985D03*
X951245Y276985D03*
X951245Y295985D03*
D24*
X968650Y399875D03*
X981350Y399875D03*
X994050Y399875D03*
X1006750Y399875D03*
X1019450Y399875D03*
X1032150Y399875D03*
X1044850Y399875D03*
X1057550Y399875D03*
X1057550Y454115D03*
X1044850Y454115D03*
X1032150Y454115D03*
X1019450Y454115D03*
X1006750Y454115D03*
X994050Y454115D03*
X981350Y454115D03*
X968650Y454115D03*
D22*
X573035Y388765D03*
X547635Y388765D03*
X547635Y325765D03*
X573035Y325765D03*
X670705Y295730D03*
X645305Y295730D03*
X645305Y232730D03*
X670705Y232730D03*
D25*
X447845Y219420D03*
X447845Y194020D03*
X510845Y194020D03*
X510845Y219420D03*
D24*
X1055945Y255995D03*
X1043245Y255995D03*
X1030545Y255995D03*
X1017845Y255995D03*
X1005145Y255995D03*
X992445Y255995D03*
X979745Y255995D03*
X979745Y201755D03*
X992445Y201755D03*
X1005145Y201755D03*
X1017845Y201755D03*
X1030545Y201755D03*
X1043245Y201755D03*
X1055945Y201755D03*
D22*
X725275Y295595D03*
X699875Y295595D03*
X699875Y232595D03*
X725275Y232595D03*
D26*
X591040Y168215D03*
X591040Y155515D03*
X591040Y142815D03*
X591040Y130115D03*
X645280Y130115D03*
X645280Y142815D03*
X645280Y155515D03*
X645280Y168215D03*
D27*
X517335Y137635D03*
X517335Y131135D03*
X517335Y124635D03*
X536335Y124635D03*
X536335Y137635D03*
D23*
X618660Y246965D03*
X618660Y256465D03*
X618660Y265965D03*
X593660Y265965D03*
X593660Y246965D03*
D22*
X1027545Y313310D03*
X1052945Y313310D03*
X1052945Y376310D03*
X1027545Y376310D03*
X1026645Y550740D03*
X1052045Y550740D03*
X1052045Y613740D03*
X1026645Y613740D03*
X970640Y550590D03*
X996040Y550590D03*
X996040Y613590D03*
X970640Y613590D03*
X998800Y376155D03*
X973400Y376155D03*
X973400Y313155D03*
X998800Y313155D03*
D28*
X259420Y468570D03*
X369420Y468570D03*
D29*
X582420Y525570D03*
X582420Y601570D03*
D28*
X369420Y658570D03*
X259420Y658570D03*
X698500Y684530D03*
X698500Y574530D03*
D29*
X755500Y361530D03*
X831500Y361530D03*
D28*
X888500Y574530D03*
X888500Y684530D03*
D30*
X268985Y231265D03*
X268985Y124265D03*
D31*
X223985Y211265D03*
X223985Y151265D03*
D30*
X322985Y181265D03*
D32*
X989265Y143315D03*
X887665Y143315D03*
X811465Y143315D03*
X811465Y67115D03*
X887665Y67115D03*
X989265Y67115D03*
D30*
X268985Y376045D03*
X268985Y269045D03*
D31*
X223985Y356045D03*
X223985Y296045D03*
D30*
X322985Y326045D03*
D33*
X619475Y318685D03*
X619475Y337885D03*
X598475Y328285D03*
X773860Y227340D03*
X773860Y246540D03*
X752860Y236940D03*
X571085Y246795D03*
X571085Y265995D03*
X550085Y256395D03*
X947070Y238610D03*
X947070Y257810D03*
X926070Y248210D03*
D15*
X1027445Y164655D03*
X1027445Y181655D03*
X577010Y303550D03*
X577010Y286550D03*
X544835Y285930D03*
X544835Y302930D03*
X484530Y140110D03*
X484530Y123110D03*
X537605Y194520D03*
X537605Y211520D03*
X1052830Y292980D03*
X1052830Y275980D03*
X1054100Y529200D03*
X1054100Y512200D03*
X1004570Y529200D03*
X1004570Y512200D03*
X1027430Y275980D03*
X1027430Y292980D03*
X1002030Y292980D03*
X1002030Y275980D03*
X1055370Y491100D03*
X1055370Y474100D03*
X1029970Y529200D03*
X1029970Y512200D03*
X698015Y194035D03*
X698015Y211035D03*
X1029970Y474100D03*
X1029970Y491100D03*
X972820Y275980D03*
X972820Y292980D03*
X670615Y211870D03*
X670615Y194870D03*
X642455Y211460D03*
X642455Y194460D03*
X727310Y122230D03*
X727310Y139230D03*
X698740Y158150D03*
X698740Y175150D03*
X670095Y158495D03*
X670095Y175495D03*
X670315Y121790D03*
X670315Y138790D03*
X618115Y193775D03*
X618115Y210775D03*
X520495Y303215D03*
X520495Y286215D03*
X593790Y194165D03*
X593790Y211165D03*
X565290Y193900D03*
X565290Y210900D03*
X520915Y266495D03*
X520915Y249495D03*
X728145Y211645D03*
X728145Y194645D03*
X755445Y158280D03*
X755445Y175280D03*
X512170Y156385D03*
X512170Y173385D03*
X727465Y158320D03*
X727465Y175320D03*
X491790Y303460D03*
X491790Y286460D03*
X540575Y155895D03*
X540575Y172895D03*
D34*
X971350Y651160D02*
X971350Y666240D01*
X996750Y666240D02*
X996750Y651160D01*
X1022150Y651160D02*
X1022150Y666240D01*
X1047550Y666240D02*
X1047550Y651160D01*
X768510Y87240D02*
X768510Y72160D01*
X743110Y72160D02*
X743110Y87240D01*
X717710Y87240D02*
X717710Y72160D01*
X692310Y72160D02*
X692310Y87240D01*
X641390Y87980D02*
X641390Y72900D01*
X615990Y72900D02*
X615990Y87980D01*
X590590Y87980D02*
X590590Y72900D01*
X565190Y72900D02*
X565190Y87980D01*
X539790Y87980D02*
X539790Y72900D01*
X514390Y72900D02*
X514390Y87980D01*
X480340Y89250D02*
X480340Y74170D01*
X454940Y74170D02*
X454940Y89250D01*
X429540Y89250D02*
X429540Y74170D01*
X404140Y74170D02*
X404140Y89250D01*
X378740Y89250D02*
X378740Y74170D01*
X353340Y74170D02*
X353340Y89250D01*
D30*
X899700Y276125D03*
D35*
X854700Y303125D03*
X800700Y249625D03*
X854700Y196125D03*
D30*
X899700Y216125D03*
D36*
X1084580Y524805D03*
X1084580Y455600D03*
X1084580Y367245D03*
X1084580Y291475D03*
X1084580Y141540D03*
X1084580Y556770D03*
X1084580Y398665D03*
X1084580Y236220D03*
X1084580Y205270D03*
D37*
X294480Y141105D03*
X312885Y141105D03*
X970280Y260350D03*
X1014730Y274320D03*
X1082874Y322580D03*
X1064260Y313690D03*
X501650Y124460D03*
X508000Y104140D03*
D38*
X990000Y510000D03*
X863750Y383750D03*
D37*
X565000Y285000D03*
X575000Y352500D03*
X598750Y381250D03*
X660000Y263750D03*
X623750Y222500D03*
X508750Y288750D03*
X508750Y380000D03*
X541250Y237500D03*
X480000Y298750D03*
X740000Y233750D03*
X752500Y256250D03*
X658750Y197500D03*
X667500Y281250D03*
X716250Y183750D03*
D39*
X480000Y286250D03*
X1017500Y475000D03*
X548750Y137500D03*
X596250Y256250D03*
X938750Y296250D03*
X631250Y168750D03*
X1066250Y256250D03*
X1008750Y313750D03*
X968750Y440000D03*
X980000Y621250D03*
X1042500Y181250D03*
X526250Y156250D03*
X741250Y176250D03*
D37*
X572500Y367500D03*
X553750Y212500D03*
X1011250Y107500D03*
X986250Y547500D03*
X1041250Y273750D03*
X1045000Y502500D03*
X1027500Y353790D03*
X1015000Y291250D03*
X1016250Y498750D03*
X1010000Y440000D03*
X996250Y572500D03*
X1012500Y303750D03*
X1016250Y357500D03*
X1056250Y336250D03*
X961325Y266740D03*
X1027500Y242500D03*
X623750Y143750D03*
X743750Y162500D03*
X606250Y192500D03*
X926250Y327500D03*
X1038750Y440000D03*
X521250Y228750D03*
X1063750Y326250D03*
X1017500Y240000D03*
X1016250Y173750D03*
X925000Y200000D03*
M02*
