G04 EAGLE Gerber RS-274X export*
G75*
%MOMM*%
%FSLAX34Y34*%
%LPD*%
%INSoldermask Bottom*%
%IPPOS*%
%AMOC8*
5,1,8,0,0,1.08239X$1,22.5*%
G01*
%ADD10C,3.403200*%
%ADD11P,1.951982X8X22.500000*%
%ADD12R,1.461200X1.461200*%
%ADD13C,1.461200*%
%ADD14C,6.665200*%
%ADD15C,2.603200*%
%ADD16C,2.303200*%
%ADD17C,2.153200*%
%ADD18C,2.003200*%
%ADD19C,1.711200*%
%ADD20C,3.603200*%
%ADD21P,1.869504X8X22.500000*%
%ADD22C,0.959600*%
%ADD23C,1.209600*%
%ADD24C,1.009600*%


D10*
X228600Y63500D03*
X1079500Y63500D03*
X1079500Y711200D03*
D11*
X563870Y134085D03*
X620430Y292600D03*
X426515Y156125D03*
X439820Y377395D03*
X600085Y292275D03*
X461420Y156815D03*
X751860Y202320D03*
X565500Y164505D03*
D12*
X361140Y173325D03*
D13*
X381140Y173325D03*
D12*
X365165Y364860D03*
D13*
X385165Y364860D03*
D14*
X259420Y468570D03*
X369420Y468570D03*
D15*
X582420Y525570D03*
X582420Y601570D03*
D14*
X369420Y658570D03*
X259420Y658570D03*
X698500Y684530D03*
X698500Y574530D03*
D15*
X755500Y361530D03*
X831500Y361530D03*
D14*
X888500Y574530D03*
X888500Y684530D03*
D16*
X268985Y231265D03*
X268985Y124265D03*
D17*
X223985Y211265D03*
X223985Y151265D03*
D16*
X322985Y181265D03*
D18*
X989265Y143315D03*
X887665Y143315D03*
X811465Y143315D03*
X811465Y67115D03*
X887665Y67115D03*
X989265Y67115D03*
D16*
X268985Y376045D03*
X268985Y269045D03*
D17*
X223985Y356045D03*
X223985Y296045D03*
D16*
X322985Y326045D03*
D19*
X971350Y651160D02*
X971350Y666240D01*
X996750Y666240D02*
X996750Y651160D01*
X1022150Y651160D02*
X1022150Y666240D01*
X1047550Y666240D02*
X1047550Y651160D01*
X768510Y87240D02*
X768510Y72160D01*
X743110Y72160D02*
X743110Y87240D01*
X717710Y87240D02*
X717710Y72160D01*
X692310Y72160D02*
X692310Y87240D01*
X641390Y87980D02*
X641390Y72900D01*
X615990Y72900D02*
X615990Y87980D01*
X590590Y87980D02*
X590590Y72900D01*
X565190Y72900D02*
X565190Y87980D01*
X539790Y87980D02*
X539790Y72900D01*
X514390Y72900D02*
X514390Y87980D01*
X480340Y89250D02*
X480340Y74170D01*
X454940Y74170D02*
X454940Y89250D01*
X429540Y89250D02*
X429540Y74170D01*
X404140Y74170D02*
X404140Y89250D01*
X378740Y89250D02*
X378740Y74170D01*
X353340Y74170D02*
X353340Y89250D01*
D16*
X899700Y276125D03*
D20*
X854700Y303125D03*
X800700Y249625D03*
X854700Y196125D03*
D16*
X899700Y216125D03*
D21*
X1084580Y524805D03*
X1084580Y455600D03*
X1084580Y367245D03*
X1084580Y291475D03*
X1084580Y141540D03*
X1084580Y556770D03*
X1084580Y398665D03*
X1084580Y236220D03*
X1084580Y205270D03*
D22*
X294480Y141105D03*
X312885Y141105D03*
X970280Y260350D03*
X1014730Y274320D03*
X1082874Y322580D03*
X1064260Y313690D03*
X501650Y124460D03*
X508000Y104140D03*
D23*
X990000Y510000D03*
X863750Y383750D03*
D22*
X565000Y285000D03*
X575000Y352500D03*
X598750Y381250D03*
X660000Y263750D03*
X623750Y222500D03*
X508750Y288750D03*
X508750Y380000D03*
X541250Y237500D03*
X480000Y298750D03*
X740000Y233750D03*
X752500Y256250D03*
X658750Y197500D03*
X667500Y281250D03*
X716250Y183750D03*
D24*
X480000Y286250D03*
X1017500Y475000D03*
X548750Y137500D03*
X596250Y256250D03*
X938750Y296250D03*
X631250Y168750D03*
X1066250Y256250D03*
X1008750Y313750D03*
X968750Y440000D03*
X980000Y621250D03*
X1042500Y181250D03*
X526250Y156250D03*
X741250Y176250D03*
D22*
X572500Y367500D03*
X553750Y212500D03*
X1011250Y107500D03*
X986250Y547500D03*
X1041250Y273750D03*
X1045000Y502500D03*
X1027500Y353790D03*
X1015000Y291250D03*
X1016250Y498750D03*
X1010000Y440000D03*
X996250Y572500D03*
X1012500Y303750D03*
X1016250Y357500D03*
X1056250Y336250D03*
X961325Y266740D03*
X1027500Y242500D03*
X623750Y143750D03*
X743750Y162500D03*
X606250Y192500D03*
X926250Y327500D03*
X1038750Y440000D03*
X521250Y228750D03*
X1063750Y326250D03*
X1017500Y240000D03*
X1016250Y173750D03*
X925000Y200000D03*
M02*
