<?xml version="1.0" encoding="utf-8" ?><!DOCTYPE svg PUBLIC "-//W3C//DTD SVG 1.1//EN" "http://www.w3.org/Graphics/SVG/1.1/DTD/svg11.dtd" 
[ <!ATTLIST svg 
  xmlns:dsy CDATA #FIXED "http://www.3ds.com/print"  
    dsy:text-version CDATA #IMPLIED > 

  <!ATTLIST text 
  xmlns:dsy CDATA #FIXED "http://www.3ds.com/print" 
    dsy:text-version CDATA #IMPLIED > 
]><svg xmlns="http://www.w3.org/2000/svg" xmlns:dsy="http://www.3ds.com/print" dsy:text-version="18000" width="420" height="297" viewBox="0 0 420 297" version="1.1"><g stroke="rgb(0, 0, 0)" stroke-width="0.35" stroke-linecap="butt" stroke-linejoin="miter" fill="none"><path d="M 262.26 68.9275 L 264.362 71.0686"/><path d="M 218.437 111.927 L 262.26 68.9275"/><path d="M 220.539 114.069 L 218.437 111.927"/><path d="M 155.113 64.6452 L 155.113 107.645"/><path d="M 152.112 64.6452 L 155.113 64.6452"/><path d="M 155.113 107.645 L 152.112 107.645"/><path d="M 141.94 107.645 L 152.112 107.645"/><path d="M 152.112 64.6452 L 141.94 64.6452"/><path d="M 220.539 114.069 L 221.886 115.441"/><path d="M 265.709 72.4406 L 264.362 71.0686"/><path d="M 162.569 173.644 A 13.1006 12.5 -292.566 0 0 143.832 174.23"/><path d="M 221.886 115.441 L 162.569 173.644"/><path d="M 280.476 57.9504 L 265.709 72.4406"/><path d="M 245.658 57.9504 L 280.476 57.9504"/><path d="M 245.658 57.9504 L 245.658 50.166"/><path d="M 245.658 50.166 L 238.932 50.166"/><path d="M 238.932 50.166 L 238.932 57.9504"/><path d="M 238.932 57.9504 L 175.868 57.9504"/><path d="M 175.868 50.166 L 175.868 57.9504"/><path d="M 175.868 50.166 L 168.931 50.166"/><path d="M 168.931 57.9504 L 168.931 50.166"/><path d="M 141.94 57.9504 L 168.931 57.9504"/><path d="M 141.94 64.6452 L 141.94 57.9504"/><path d="M 141.94 174.23 L 141.94 107.645"/><path d="M 143.832 174.23 L 141.94 174.23"/><path d="M 183.71 230.954 L 183.457 230.635"/></g></svg>