<?xml version="1.0" encoding="utf-8" ?><!DOCTYPE svg PUBLIC "-//W3C//DTD SVG 1.1//EN" "http://www.w3.org/Graphics/SVG/1.1/DTD/svg11.dtd" 
[ <!ATTLIST svg 
  xmlns:dsy CDATA #FIXED "http://www.3ds.com/print"  
    dsy:text-version CDATA #IMPLIED > 

  <!ATTLIST text 
  xmlns:dsy CDATA #FIXED "http://www.3ds.com/print" 
    dsy:text-version CDATA #IMPLIED > 
]><svg xmlns="http://www.w3.org/2000/svg" xmlns:dsy="http://www.3ds.com/print" dsy:text-version="18000" width="420" height="297" viewBox="0 0 420 297" version="1.1"><g stroke="rgb(0, 0, 0)" stroke-width="0.35" stroke-linecap="butt" stroke-linejoin="miter" fill="none"><path d="M 171.474 76.755 L 171.474 81.755"/><path d="M 171.474 76.755 L 164.537 76.755"/><path d="M 164.537 81.755 L 171.474 81.755"/><path d="M 164.537 81.755 L 164.537 76.755"/><path d="M 241.264 76.755 L 241.264 81.755"/><path d="M 241.264 76.755 L 234.537 76.755"/><path d="M 234.537 81.755 L 241.264 81.755"/><path d="M 234.537 81.755 L 234.537 76.755"/><path d="M 156.54 88.6007 A 10 10 0 0 0 137.483 88.6007"/><path d="M 129.607 71.1377 L 290.393 71.1377"/><path d="M 129.607 88.6007 L 129.607 71.1377"/><path d="M 290.393 71.1377 L 290.393 88.6007"/><path d="M 137.483 88.6007 L 129.607 88.6007"/><path d="M 290.393 88.6007 L 285.369 88.6007"/><path d="M 258.933 88.6007 L 156.54 88.6007"/><path d="M 285.369 88.6007 A 10.7076 7.5 -1.12322 0 0 271.99 81.9048"/><path d="M 271.99 81.9047 A 10.7076 7.5 -1.12322 0 0 258.933 88.6007"/></g></svg>