<?xml version="1.0" encoding="utf-8" ?><!DOCTYPE svg PUBLIC "-//W3C//DTD SVG 1.1//EN" "http://www.w3.org/Graphics/SVG/1.1/DTD/svg11.dtd" 
[ <!ATTLIST svg 
  xmlns:dsy CDATA #FIXED "http://www.3ds.com/print"  
    dsy:text-version CDATA #IMPLIED > 

  <!ATTLIST text 
  xmlns:dsy CDATA #FIXED "http://www.3ds.com/print" 
    dsy:text-version CDATA #IMPLIED > 
]><svg xmlns="http://www.w3.org/2000/svg" xmlns:dsy="http://www.3ds.com/print" dsy:text-version="18000" width="1189" height="841" viewBox="0 0 1189 841" version="1.1"><g stroke="rgb(0, 0, 0)" stroke-width="0.13" stroke-linecap="butt" stroke-linejoin="miter" fill="none"><path d="M 973.117 338.759 L 973.124 338.752"/><path d="M 971.95 338.512 L 972.408 338.054"/><path d="M 970.782 338.265 L 972.041 337.006"/><path d="M 969.615 338.018 L 971.827 335.806"/><path d="M 968.448 337.771 L 971.718 334.501"/><path d="M 967.28 337.525 L 971.691 333.114"/><path d="M 966.113 337.278 L 971.722 331.669"/><path d="M 964.945 337.031 L 971.801 330.175"/><path d="M 963.778 336.784 L 971.916 328.646"/><path d="M 962.611 336.537 L 972.091 327.057"/><path d="M 961.443 336.29 L 972.299 325.435"/><path d="M 960.276 336.043 L 972.535 323.785"/><path d="M 959.109 335.796 L 972.829 322.076"/><path d="M 957.941 335.55 L 973.162 320.329"/><path d="M 956.774 335.303 L 973.557 318.519"/><path d="M 955.607 335.056 L 973.953 316.709"/><path d="M 954.439 334.809 L 974.403 314.846"/><path d="M 953.272 334.562 L 974.952 312.883"/><path d="M 952.105 334.315 L 975.5 310.92"/><path d="M 950.938 334.068 L 976.232 308.774"/><path d="M 949.77 333.821 L 977.014 306.578"/><path d="M 948.603 333.575 L 978.135 304.042"/><path d="M 947.435 333.328 L 980.339 300.424"/><path d="M 946.268 333.081 L 979.172 300.177"/><path d="M 945.101 332.834 L 978.005 299.93"/><path d="M 943.933 332.587 L 976.837 299.683"/><path d="M 942.766 332.34 L 975.67 299.436"/><path d="M 941.599 332.093 L 974.503 299.189"/><path d="M 940.431 331.846 L 973.335 298.943"/><path d="M 939.264 331.6 L 972.168 298.696"/><path d="M 938.097 331.353 L 971.001 298.449"/><path d="M 936.929 331.106 L 969.833 298.202"/><path d="M 935.762 330.859 L 968.666 297.955"/><path d="M 934.595 330.612 L 967.499 297.708"/><path d="M 933.427 330.365 L 966.331 297.461"/><path d="M 932.26 330.118 L 965.164 297.214"/><path d="M 931.093 329.871 L 963.997 296.968"/><path d="M 929.925 329.625 L 962.829 296.721"/><path d="M 928.758 329.378 L 961.662 296.474"/><path d="M 927.591 329.131 L 960.495 296.227"/><path d="M 926.423 328.884 L 959.327 295.98"/><path d="M 925.256 328.637 L 958.16 295.733"/><path d="M 924.089 328.39 L 956.993 295.486"/><path d="M 922.921 328.143 L 955.825 295.239"/><path d="M 921.754 327.896 L 954.658 294.993"/><path d="M 920.587 327.65 L 953.491 294.746"/><path d="M 919.419 327.403 L 952.323 294.499"/><path d="M 918.252 327.156 L 951.156 294.252"/><path d="M 917.085 326.909 L 949.989 294.005"/><path d="M 915.917 326.662 L 948.821 293.758"/><path d="M 914.75 326.415 L 947.654 293.511"/><path d="M 913.583 326.168 L 946.487 293.264"/><path d="M 912.415 325.922 L 945.319 293.018"/><path d="M 911.248 325.675 L 944.152 292.771"/><path d="M 910.081 325.428 L 942.984 292.524"/><path d="M 908.913 325.181 L 941.817 292.277"/><path d="M 907.746 324.934 L 940.65 292.03"/><path d="M 906.579 324.687 L 939.482 291.783"/><path d="M 905.411 324.44 L 938.315 291.536"/><path d="M 904.244 324.193 L 937.148 291.289"/><path d="M 903.077 323.946 L 935.98 291.043"/><path d="M 901.909 323.7 L 934.813 290.796"/><path d="M 900.742 323.453 L 933.646 290.549"/><path d="M 899.575 323.206 L 932.479 290.302"/><path d="M 898.407 322.959 L 931.311 290.055"/><path d="M 897.24 322.712 L 930.144 289.808"/><path d="M 896.073 322.465 L 928.976 289.561"/><path d="M 894.905 322.218 L 927.809 289.314"/><path d="M 893.738 321.971 L 926.642 289.068"/><path d="M 892.57 321.725 L 925.474 288.821"/><path d="M 891.403 321.478 L 924.307 288.574"/><path d="M 890.236 321.231 L 923.14 288.327"/><path d="M 889.068 320.984 L 921.972 288.08"/><path d="M 887.901 320.737 L 920.805 287.833"/><path d="M 886.734 320.49 L 919.638 287.586"/><path d="M 885.566 320.243 L 918.47 287.339"/><path d="M 884.399 319.996 L 917.303 287.093"/><path d="M 883.232 319.75 L 916.136 286.846"/><path d="M 882.064 319.503 L 914.968 286.599"/><path d="M 880.897 319.256 L 913.801 286.352"/><path d="M 879.73 319.009 L 912.634 286.105"/><path d="M 878.563 318.762 L 911.466 285.858"/><path d="M 877.395 318.515 L 910.299 285.611"/><path d="M 876.228 318.268 L 909.132 285.364"/><path d="M 875.06 318.021 L 907.964 285.118"/><path d="M 873.893 317.775 L 906.797 284.871"/><path d="M 872.726 317.528 L 905.63 284.624"/><path d="M 871.558 317.281 L 904.462 284.377"/><path d="M 870.391 317.034 L 903.295 284.13"/><path d="M 869.224 316.787 L 902.128 283.883"/><path d="M 868.056 316.54 L 900.96 283.636"/><path d="M 866.889 316.293 L 899.793 283.389"/><path d="M 865.722 316.046 L 898.626 283.143"/><path d="M 864.554 315.8 L 897.458 282.896"/><path d="M 863.387 315.553 L 896.291 282.649"/><path d="M 862.22 315.306 L 895.124 282.402"/><path d="M 861.052 315.059 L 893.956 282.155"/><path d="M 859.885 314.812 L 892.789 281.908"/><path d="M 858.718 314.565 L 891.622 281.661"/><path d="M 857.55 314.318 L 890.454 281.414"/><path d="M 856.383 314.071 L 889.287 281.168"/><path d="M 855.216 313.825 L 888.12 280.921"/><path d="M 854.048 313.578 L 886.952 280.674"/><path d="M 852.881 313.331 L 885.785 280.427"/><path d="M 851.714 313.084 L 884.618 280.18"/><path d="M 850.546 312.837 L 883.45 279.933"/><path d="M 849.379 312.59 L 882.283 279.686"/><path d="M 848.212 312.343 L 881.116 279.439"/><path d="M 847.044 312.096 L 879.948 279.193"/><path d="M 845.877 311.85 L 878.781 278.946"/><path d="M 844.71 311.603 L 877.614 278.699"/><path d="M 843.542 311.356 L 876.446 278.452"/><path d="M 842.375 311.109 L 875.279 278.205"/><path d="M 841.208 310.862 L 874.112 277.958"/><path d="M 840.04 310.615 L 872.944 277.711"/><path d="M 838.873 310.368 L 871.777 277.464"/><path d="M 837.706 310.121 L 870.61 277.218"/><path d="M 836.538 309.875 L 869.442 276.971"/><path d="M 835.371 309.628 L 868.275 276.724"/><path d="M 834.204 309.381 L 867.107 276.477"/><path d="M 833.036 309.134 L 865.94 276.23"/><path d="M 831.869 308.887 L 864.773 275.983"/><path d="M 830.702 308.64 L 863.606 275.736"/><path d="M 829.534 308.393 L 862.438 275.489"/><path d="M 828.367 308.146 L 861.271 275.243"/><path d="M 827.2 307.9 L 860.104 274.996"/><path d="M 826.032 307.653 L 858.936 274.749"/><path d="M 824.865 307.406 L 857.769 274.502"/><path d="M 823.698 307.159 L 856.602 274.255"/><path d="M 822.53 306.912 L 855.434 274.008"/><path d="M 821.363 306.665 L 854.267 273.761"/><path d="M 820.196 306.418 L 853.099 273.514"/><path d="M 819.028 306.171 L 851.932 273.268"/><path d="M 817.861 305.925 L 850.765 273.021"/><path d="M 816.694 305.678 L 849.597 272.774"/><path d="M 815.526 305.431 L 848.43 272.527"/><path d="M 814.359 305.184 L 847.263 272.28"/><path d="M 813.192 304.937 L 846.095 272.033"/><path d="M 812.024 304.69 L 844.928 271.786"/><path d="M 810.857 304.443 L 843.761 271.539"/><path d="M 809.69 304.196 L 842.593 271.293"/><path d="M 808.522 303.95 L 841.426 271.046"/><path d="M 807.355 303.703 L 840.259 270.799"/><path d="M 806.188 303.456 L 839.091 270.552"/><path d="M 805.02 303.209 L 837.924 270.305"/><path d="M 803.853 302.962 L 836.757 270.058"/><path d="M 802.685 302.715 L 835.589 269.811"/><path d="M 801.518 302.468 L 834.422 269.564"/><path d="M 800.351 302.221 L 833.255 269.318"/><path d="M 799.183 301.975 L 832.087 269.071"/><path d="M 798.016 301.728 L 830.92 268.824"/><path d="M 796.849 301.481 L 829.753 268.577"/><path d="M 795.681 301.234 L 828.585 268.33"/><path d="M 794.514 300.987 L 827.418 268.083"/><path d="M 793.347 300.74 L 826.251 267.836"/><path d="M 792.179 300.493 L 825.083 267.589"/><path d="M 791.012 300.246 L 823.916 267.343"/><path d="M 789.845 300 L 822.749 267.096"/><path d="M 788.677 299.753 L 821.581 266.849"/><path d="M 787.51 299.506 L 820.414 266.602"/><path d="M 786.343 299.259 L 819.247 266.355"/><path d="M 785.175 299.012 L 818.079 266.108"/><path d="M 784.008 298.765 L 816.912 265.861"/><path d="M 782.841 298.518 L 815.745 265.614"/><path d="M 781.673 298.271 L 814.577 265.368"/><path d="M 780.506 298.025 L 813.41 265.121"/><path d="M 779.339 297.778 L 812.243 264.874"/><path d="M 778.171 297.531 L 811.075 264.627"/><path d="M 777.004 297.284 L 809.908 264.38"/><path d="M 775.837 297.037 L 808.741 264.133"/><path d="M 774.669 296.79 L 807.573 263.886"/><path d="M 773.502 296.543 L 806.406 263.639"/><path d="M 772.335 296.296 L 805.239 263.393"/><path d="M 771.167 296.05 L 804.071 263.146"/><path d="M 770 295.803 L 802.904 262.899"/><path d="M 768.833 295.556 L 801.737 262.652"/><path d="M 767.665 295.309 L 800.569 262.405"/><path d="M 766.498 295.062 L 799.402 262.158"/><path d="M 765.331 294.815 L 798.235 261.911"/><path d="M 764.163 294.568 L 797.067 261.664"/><path d="M 762.996 294.321 L 795.9 261.417"/><path d="M 761.829 294.075 L 794.733 261.171"/><path d="M 760.661 293.828 L 793.565 260.924"/><path d="M 759.494 293.581 L 792.398 260.677"/><path d="M 758.327 293.334 L 791.231 260.43"/><path d="M 757.159 293.087 L 790.063 260.183"/><path d="M 755.992 292.84 L 788.896 259.936"/><path d="M 754.825 292.593 L 787.729 259.689"/><path d="M 753.657 292.346 L 786.561 259.443"/><path d="M 752.49 292.1 L 785.394 259.196"/><path d="M 751.323 291.853 L 784.227 258.949"/><path d="M 750.155 291.606 L 783.059 258.702"/><path d="M 748.988 291.359 L 781.892 258.455"/><path d="M 747.821 291.112 L 780.724 258.208"/><path d="M 746.653 290.865 L 779.557 257.961"/><path d="M 745.486 290.618 L 778.39 257.714"/><path d="M 744.319 290.371 L 777.222 257.468"/><path d="M 743.151 290.125 L 776.055 257.221"/><path d="M 741.984 289.878 L 774.888 256.974"/><path d="M 740.817 289.631 L 773.72 256.727"/><path d="M 739.649 289.384 L 772.553 256.48"/><path d="M 738.482 289.137 L 771.386 256.233"/><path d="M 737.315 288.89 L 770.218 255.986"/><path d="M 736.147 288.643 L 769.051 255.739"/><path d="M 734.98 288.396 L 767.884 255.492"/><path d="M 733.813 288.15 L 766.716 255.246"/><path d="M 732.645 287.903 L 765.549 254.999"/><path d="M 731.478 287.656 L 764.382 254.752"/><path d="M 730.311 287.409 L 763.214 254.505"/><path d="M 729.143 287.162 L 762.047 254.258"/><path d="M 727.976 286.915 L 760.88 254.011"/><path d="M 726.809 286.668 L 759.712 253.764"/><path d="M 725.641 286.421 L 758.545 253.518"/><path d="M 724.474 286.175 L 757.378 253.271"/><path d="M 723.307 285.928 L 756.21 253.024"/><path d="M 722.139 285.681 L 755.043 252.777"/><path d="M 720.972 285.434 L 753.876 252.53"/><path d="M 719.805 285.187 L 752.708 252.283"/><path d="M 718.637 284.94 L 751.541 252.036"/><path d="M 717.47 284.693 L 750.374 251.789"/><path d="M 716.302 284.446 L 749.206 251.542"/><path d="M 715.135 284.2 L 748.039 251.296"/><path d="M 713.968 283.953 L 746.872 251.049"/><path d="M 712.8 283.706 L 745.704 250.802"/><path d="M 711.633 283.459 L 744.537 250.555"/><path d="M 710.466 283.212 L 743.37 250.308"/><path d="M 709.298 282.965 L 742.202 250.061"/><path d="M 708.131 282.718 L 741.035 249.814"/><path d="M 706.964 282.471 L 739.868 249.568"/><path d="M 705.796 282.224 L 738.7 249.321"/><path d="M 704.629 281.978 L 737.533 249.074"/><path d="M 703.462 281.731 L 736.366 248.827"/><path d="M 702.294 281.484 L 735.198 248.58"/><path d="M 701.127 281.237 L 734.031 248.333"/><path d="M 699.96 280.99 L 732.864 248.086"/><path d="M 698.792 280.743 L 731.696 247.839"/><path d="M 697.625 280.496 L 730.529 247.592"/><path d="M 696.458 280.25 L 729.362 247.346"/><path d="M 695.29 280.003 L 728.194 247.099"/><path d="M 694.123 279.756 L 727.027 246.852"/><path d="M 692.956 279.509 L 725.86 246.605"/><path d="M 691.788 279.262 L 724.692 246.358"/><path d="M 690.621 279.015 L 723.525 246.111"/><path d="M 689.454 278.768 L 722.358 245.864"/><path d="M 688.286 278.521 L 721.19 245.617"/><path d="M 687.119 278.275 L 720.023 245.371"/><path d="M 685.952 278.028 L 718.856 245.124"/><path d="M 684.784 277.781 L 717.688 244.877"/><path d="M 683.617 277.534 L 716.521 244.63"/><path d="M 682.45 277.287 L 715.354 244.383"/><path d="M 681.282 277.04 L 714.186 244.136"/><path d="M 680.115 276.793 L 713.019 243.889"/><path d="M 678.948 276.546 L 711.852 243.642"/><path d="M 677.78 276.299 L 710.684 243.396"/><path d="M 676.613 276.053 L 709.517 243.149"/><path d="M 675.446 275.806 L 708.35 242.902"/><path d="M 674.278 275.559 L 707.182 242.655"/><path d="M 673.111 275.312 L 706.015 242.408"/><path d="M 671.944 275.065 L 704.848 242.161"/><path d="M 670.776 274.818 L 703.68 241.914"/><path d="M 669.609 274.571 L 702.513 241.667"/><path d="M 668.442 274.325 L 701.346 241.421"/><path d="M 667.274 274.078 L 700.178 241.174"/><path d="M 666.107 273.831 L 699.011 240.927"/><path d="M 664.94 273.584 L 697.844 240.68"/><path d="M 663.772 273.337 L 696.676 240.433"/><path d="M 662.605 273.09 L 695.509 240.186"/><path d="M 661.438 272.843 L 694.341 239.939"/><path d="M 660.27 272.596 L 693.174 239.692"/><path d="M 659.103 272.349 L 692.007 239.446"/><path d="M 657.936 272.103 L 690.839 239.199"/><path d="M 656.768 271.856 L 689.672 238.952"/><path d="M 655.601 271.609 L 688.505 238.705"/><path d="M 654.434 271.362 L 687.337 238.458"/><path d="M 653.266 271.115 L 686.17 238.211"/><path d="M 652.099 270.868 L 685.003 237.964"/><path d="M 650.932 270.621 L 683.835 237.717"/><path d="M 649.764 270.375 L 682.668 237.471"/><path d="M 648.597 270.128 L 681.501 237.224"/><path d="M 647.43 269.881 L 680.333 236.977"/><path d="M 646.262 269.634 L 679.166 236.73"/><path d="M 645.095 269.387 L 677.999 236.483"/><path d="M 643.927 269.14 L 676.831 236.236"/><path d="M 642.76 268.893 L 675.664 235.989"/><path d="M 641.593 268.646 L 674.497 235.742"/><path d="M 640.425 268.399 L 673.329 235.496"/><path d="M 639.258 268.153 L 672.162 235.249"/><path d="M 638.091 267.906 L 670.995 235.002"/><path d="M 636.923 267.659 L 669.827 234.755"/><path d="M 635.756 267.412 L 668.66 234.508"/><path d="M 634.589 267.165 L 667.493 234.261"/><path d="M 633.421 266.918 L 666.325 234.014"/><path d="M 632.254 266.671 L 665.158 233.767"/><path d="M 631.087 266.424 L 663.991 233.521"/><path d="M 629.919 266.178 L 662.823 233.274"/><path d="M 628.752 265.931 L 661.656 233.027"/><path d="M 627.585 265.684 L 660.489 232.78"/><path d="M 626.417 265.437 L 659.321 232.533"/><path d="M 625.25 265.19 L 658.154 232.286"/><path d="M 624.083 264.943 L 656.987 232.039"/><path d="M 622.915 264.696 L 655.819 231.792"/><path d="M 621.748 264.449 L 654.652 231.546"/><path d="M 620.581 264.203 L 653.485 231.299"/><path d="M 619.413 263.956 L 652.317 231.052"/><path d="M 618.246 263.709 L 651.15 230.805"/><path d="M 617.079 263.462 L 649.983 230.558"/><path d="M 615.911 263.215 L 648.815 230.311"/><path d="M 614.744 262.968 L 647.648 230.064"/><path d="M 613.577 262.721 L 646.481 229.817"/><path d="M 612.409 262.474 L 645.313 229.571"/><path d="M 611.242 262.228 L 644.146 229.324"/><path d="M 610.075 261.981 L 642.979 229.077"/><path d="M 608.907 261.734 L 641.811 228.83"/><path d="M 607.74 261.487 L 640.644 228.583"/><path d="M 606.573 261.24 L 639.477 228.336"/><path d="M 605.405 260.993 L 638.309 228.089"/><path d="M 604.238 260.746 L 637.142 227.842"/><path d="M 603.071 260.5 L 635.975 227.596"/><path d="M 601.903 260.253 L 634.807 227.349"/><path d="M 600.736 260.006 L 633.64 227.102"/><path d="M 599.569 259.759 L 632.473 226.855"/><path d="M 598.401 259.512 L 631.305 226.608"/><path d="M 597.234 259.265 L 630.138 226.361"/><path d="M 596.067 259.018 L 628.971 226.114"/><path d="M 594.899 258.771 L 627.803 225.867"/><path d="M 593.732 258.524 L 626.636 225.621"/><path d="M 592.565 258.278 L 625.469 225.374"/><path d="M 591.397 258.031 L 624.301 225.127"/><path d="M 590.23 257.784 L 623.134 224.88"/><path d="M 589.063 257.537 L 621.967 224.633"/><path d="M 587.895 257.29 L 620.799 224.386"/><path d="M 586.728 257.043 L 619.632 224.139"/><path d="M 585.561 256.796 L 618.465 223.892"/><path d="M 584.393 256.549 L 617.297 223.646"/><path d="M 583.226 256.303 L 616.13 223.399"/><path d="M 582.059 256.056 L 614.963 223.152"/><path d="M 580.891 255.809 L 613.795 222.905"/><path d="M 579.724 255.562 L 612.628 222.658"/><path d="M 578.557 255.315 L 611.461 222.411"/><path d="M 577.389 255.068 L 610.293 222.164"/><path d="M 576.222 254.821 L 609.126 221.917"/><path d="M 575.055 254.574 L 607.958 221.671"/><path d="M 573.887 254.328 L 606.791 221.424"/><path d="M 572.72 254.081 L 605.624 221.177"/><path d="M 571.553 253.834 L 604.456 220.93"/><path d="M 570.385 253.587 L 603.289 220.683"/><path d="M 569.218 253.34 L 602.122 220.436"/><path d="M 568.051 253.093 L 600.954 220.189"/><path d="M 566.883 252.846 L 599.787 219.942"/><path d="M 565.716 252.599 L 598.62 219.696"/><path d="M 564.549 252.353 L 597.452 219.449"/><path d="M 563.381 252.106 L 596.285 219.202"/><path d="M 562.214 251.859 L 595.118 218.955"/><path d="M 561.047 251.612 L 593.95 218.708"/><path d="M 559.879 251.365 L 592.783 218.461"/><path d="M 558.712 251.118 L 591.616 218.214"/><path d="M 557.544 250.871 L 590.448 217.967"/><path d="M 556.377 250.624 L 589.281 217.721"/><path d="M 555.21 250.378 L 588.114 217.474"/><path d="M 554.042 250.131 L 586.946 217.227"/><path d="M 552.875 249.884 L 585.779 216.98"/><path d="M 551.708 249.637 L 584.612 216.733"/><path d="M 550.54 249.39 L 583.444 216.486"/><path d="M 549.373 249.143 L 582.277 216.239"/><path d="M 548.206 248.896 L 581.11 215.992"/><path d="M 547.038 248.649 L 579.942 215.746"/><path d="M 545.871 248.403 L 578.775 215.499"/><path d="M 544.704 248.156 L 577.608 215.252"/><path d="M 543.536 247.909 L 576.44 215.005"/><path d="M 542.369 247.662 L 575.273 214.758"/><path d="M 541.202 247.415 L 574.106 214.511"/><path d="M 540.034 247.168 L 572.938 214.264"/><path d="M 538.867 246.921 L 571.771 214.017"/><path d="M 537.7 246.674 L 570.604 213.771"/><path d="M 536.532 246.428 L 569.436 213.524"/><path d="M 535.365 246.181 L 568.269 213.277"/><path d="M 534.198 245.934 L 567.102 213.03"/><path d="M 533.03 245.687 L 565.934 212.783"/><path d="M 531.863 245.44 L 564.767 212.536"/><path d="M 530.696 245.193 L 563.6 212.289"/><path d="M 529.528 244.946 L 562.432 212.042"/><path d="M 528.361 244.699 L 561.265 211.796"/><path d="M 527.194 244.453 L 560.098 211.549"/><path d="M 526.026 244.206 L 558.93 211.302"/><path d="M 524.859 243.959 L 557.763 211.055"/><path d="M 523.692 243.712 L 556.596 210.808"/><path d="M 522.524 243.465 L 555.428 210.561"/><path d="M 521.357 243.218 L 554.261 210.314"/><path d="M 520.19 242.971 L 553.094 210.067"/><path d="M 519.022 242.724 L 551.926 209.821"/><path d="M 517.855 242.478 L 550.759 209.574"/><path d="M 516.688 242.231 L 549.592 209.327"/><path d="M 515.52 241.984 L 548.424 209.08"/><path d="M 514.353 241.737 L 547.257 208.833"/><path d="M 513.186 241.49 L 546.09 208.586"/><path d="M 512.018 241.243 L 544.922 208.339"/><path d="M 510.851 240.996 L 543.755 208.092"/><path d="M 509.684 240.749 L 542.588 207.846"/><path d="M 508.516 240.503 L 541.42 207.599"/><path d="M 507.349 240.256 L 540.253 207.352"/><path d="M 506.182 240.009 L 539.086 207.105"/><path d="M 505.014 239.762 L 537.918 206.858"/><path d="M 503.847 239.515 L 536.751 206.611"/><path d="M 502.68 239.268 L 535.584 206.364"/><path d="M 501.512 239.021 L 534.416 206.117"/><path d="M 500.345 238.774 L 533.249 205.871"/><path d="M 499.178 238.528 L 532.082 205.624"/><path d="M 498.01 238.281 L 530.914 205.377"/><path d="M 496.843 238.034 L 529.747 205.13"/><path d="M 495.676 237.787 L 528.58 204.883"/><path d="M 494.508 237.54 L 527.412 204.636"/><path d="M 493.341 237.293 L 526.245 204.389"/><path d="M 492.174 237.046 L 525.078 204.142"/><path d="M 491.006 236.799 L 523.91 203.896"/><path d="M 489.839 236.553 L 522.743 203.649"/><path d="M 488.672 236.306 L 521.576 203.402"/><path d="M 487.504 236.059 L 520.408 203.155"/><path d="M 486.337 235.812 L 519.241 202.908"/><path d="M 485.169 235.565 L 518.073 202.661"/><path d="M 484.002 235.318 L 516.906 202.414"/><path d="M 482.835 235.071 L 515.739 202.167"/><path d="M 481.668 234.824 L 514.571 201.921"/><path d="M 480.5 234.578 L 513.404 201.674"/><path d="M 479.333 234.331 L 512.237 201.427"/><path d="M 478.165 234.084 L 511.069 201.18"/><path d="M 476.998 233.837 L 509.902 200.933"/><path d="M 475.831 233.59 L 508.735 200.686"/><path d="M 474.663 233.343 L 507.567 200.439"/><path d="M 473.496 233.096 L 506.4 200.192"/><path d="M 472.329 232.849 L 505.233 199.945"/><path d="M 471.161 232.603 L 504.065 199.699"/><path d="M 469.994 232.356 L 502.898 199.452"/><path d="M 468.827 232.109 L 501.731 199.205"/><path d="M 467.659 231.862 L 500.563 198.958"/><path d="M 466.492 231.615 L 499.396 198.711"/><path d="M 465.325 231.368 L 498.229 198.464"/><path d="M 464.157 231.121 L 497.061 198.217"/><path d="M 462.99 230.874 L 495.894 197.971"/><path d="M 461.823 230.628 L 494.727 197.724"/><path d="M 460.655 230.381 L 493.559 197.477"/><path d="M 459.488 230.134 L 492.392 197.23"/><path d="M 458.321 229.887 L 491.225 196.983"/><path d="M 457.153 229.64 L 490.057 196.736"/><path d="M 455.986 229.393 L 488.89 196.489"/><path d="M 454.819 229.146 L 487.723 196.242"/><path d="M 453.651 228.899 L 486.555 195.995"/><path d="M 452.484 228.653 L 485.388 195.749"/><path d="M 451.317 228.406 L 484.221 195.502"/><path d="M 450.149 228.159 L 483.053 195.255"/><path d="M 448.982 227.912 L 481.886 195.008"/><path d="M 447.815 227.665 L 480.719 194.761"/><path d="M 446.647 227.418 L 479.551 194.514"/><path d="M 445.48 227.171 L 478.384 194.267"/><path d="M 444.313 226.924 L 477.217 194.021"/><path d="M 443.145 226.678 L 476.049 193.774"/><path d="M 441.978 226.431 L 474.882 193.527"/><path d="M 440.811 226.184 L 473.715 193.28"/><path d="M 439.643 225.937 L 472.547 193.033"/><path d="M 438.476 225.69 L 471.38 192.786"/><path d="M 437.309 225.443 L 470.213 192.539"/><path d="M 436.141 225.196 L 469.045 192.292"/><path d="M 434.974 224.949 L 467.878 192.046"/><path d="M 433.807 224.703 L 466.711 191.799"/><path d="M 432.639 224.456 L 465.543 191.552"/><path d="M 431.472 224.209 L 464.376 191.305"/><path d="M 430.305 223.962 L 463.209 191.058"/><path d="M 429.137 223.715 L 462.041 190.811"/><path d="M 427.97 223.468 L 460.874 190.564"/><path d="M 426.803 223.221 L 459.707 190.317"/><path d="M 425.635 222.974 L 458.539 190.07"/><path d="M 424.468 222.728 L 457.372 189.824"/><path d="M 423.301 222.481 L 456.204 189.577"/><path d="M 422.133 222.234 L 455.037 189.33"/><path d="M 420.966 221.987 L 453.87 189.083"/><path d="M 419.799 221.74 L 452.702 188.836"/><path d="M 418.631 221.493 L 451.535 188.589"/><path d="M 417.464 221.246 L 450.368 188.342"/><path d="M 416.297 220.999 L 449.2 188.096"/><path d="M 415.129 220.753 L 448.033 187.849"/><path d="M 413.962 220.506 L 446.866 187.602"/><path d="M 412.795 220.259 L 445.698 187.355"/><path d="M 411.627 220.012 L 444.531 187.108"/><path d="M 410.46 219.765 L 443.364 186.861"/><path d="M 409.293 219.518 L 442.196 186.614"/><path d="M 408.125 219.271 L 441.029 186.367"/><path d="M 406.958 219.024 L 439.862 186.12"/><path d="M 405.791 218.778 L 438.694 185.874"/><path d="M 404.623 218.531 L 437.527 185.627"/><path d="M 403.456 218.284 L 436.36 185.38"/><path d="M 402.289 218.037 L 435.192 185.133"/><path d="M 401.121 217.79 L 434.025 184.886"/><path d="M 399.954 217.543 L 432.858 184.639"/><path d="M 398.786 217.296 L 431.69 184.392"/><path d="M 397.619 217.049 L 430.523 184.146"/><path d="M 396.452 216.802 L 429.356 183.899"/><path d="M 395.284 216.556 L 428.188 183.652"/><path d="M 394.117 216.309 L 427.021 183.405"/><path d="M 392.95 216.062 L 425.854 183.158"/><path d="M 391.782 215.815 L 424.686 182.911"/><path d="M 390.615 215.568 L 423.519 182.664"/><path d="M 389.448 215.321 L 422.352 182.417"/><path d="M 388.28 215.074 L 421.184 182.17"/><path d="M 387.113 214.828 L 420.017 181.924"/><path d="M 385.946 214.581 L 418.85 181.677"/><path d="M 384.778 214.334 L 417.682 181.43"/><path d="M 383.611 214.087 L 416.515 181.183"/><path d="M 382.444 213.84 L 415.348 180.936"/><path d="M 381.276 213.593 L 414.18 180.689"/><path d="M 380.109 213.346 L 413.013 180.442"/><path d="M 378.942 213.099 L 411.846 180.195"/><path d="M 377.774 212.853 L 410.678 179.949"/><path d="M 376.607 212.606 L 409.511 179.702"/><path d="M 375.44 212.359 L 408.344 179.455"/><path d="M 374.272 212.112 L 407.176 179.208"/><path d="M 373.105 211.865 L 406.009 178.961"/><path d="M 371.938 211.618 L 404.842 178.714"/><path d="M 370.77 211.371 L 403.674 178.467"/><path d="M 369.603 211.124 L 402.507 178.22"/><path d="M 368.436 210.878 L 401.34 177.974"/><path d="M 367.268 210.631 L 400.172 177.727"/><path d="M 366.101 210.384 L 399.005 177.48"/><path d="M 364.934 210.137 L 397.838 177.233"/><path d="M 363.766 209.89 L 396.67 176.986"/><path d="M 362.599 209.643 L 395.503 176.739"/><path d="M 361.432 209.396 L 394.336 176.492"/><path d="M 360.264 209.149 L 393.168 176.245"/><path d="M 359.097 208.903 L 392.001 175.999"/><path d="M 357.93 208.656 L 390.834 175.752"/><path d="M 356.762 208.409 L 389.666 175.505"/><path d="M 355.595 208.162 L 388.499 175.258"/><path d="M 354.428 207.915 L 387.332 175.011"/><path d="M 353.26 207.668 L 386.164 174.764"/><path d="M 352.093 207.421 L 384.997 174.517"/><path d="M 350.926 207.174 L 383.83 174.27"/><path d="M 349.758 206.927 L 382.662 174.024"/><path d="M 348.591 206.681 L 381.495 173.777"/><path d="M 347.424 206.434 L 380.328 173.53"/><path d="M 346.256 206.187 L 379.16 173.283"/><path d="M 345.089 205.94 L 377.993 173.036"/><path d="M 343.922 205.693 L 376.826 172.789"/><path d="M 342.754 205.446 L 375.658 172.542"/><path d="M 341.587 205.199 L 374.491 172.295"/><path d="M 340.42 204.953 L 373.323 172.049"/><path d="M 339.252 204.706 L 372.156 171.802"/><path d="M 338.085 204.459 L 370.989 171.555"/><path d="M 336.918 204.212 L 369.821 171.308"/><path d="M 335.75 203.965 L 368.654 171.061"/><path d="M 334.583 203.718 L 367.487 170.814"/><path d="M 333.416 203.471 L 366.319 170.567"/><path d="M 332.248 203.224 L 365.152 170.32"/><path d="M 331.081 202.977 L 363.985 170.074"/><path d="M 329.914 202.731 L 362.817 169.827"/><path d="M 328.746 202.484 L 361.65 169.58"/><path d="M 327.579 202.237 L 360.483 169.333"/><path d="M 326.412 201.99 L 359.315 169.086"/><path d="M 325.244 201.743 L 358.148 168.839"/><path d="M 324.077 201.496 L 356.981 168.592"/><path d="M 322.91 201.249 L 355.813 168.345"/><path d="M 321.742 201.003 L 354.646 168.099"/><path d="M 320.575 200.756 L 353.479 167.852"/><path d="M 319.408 200.509 L 352.311 167.605"/><path d="M 318.24 200.262 L 351.144 167.358"/><path d="M 317.073 200.015 L 349.977 167.111"/><path d="M 315.905 199.768 L 348.809 166.864"/><path d="M 314.738 199.521 L 347.642 166.617"/><path d="M 313.571 199.274 L 346.475 166.37"/><path d="M 312.403 199.027 L 345.307 166.124"/><path d="M 311.236 198.781 L 344.14 165.877"/><path d="M 310.069 198.534 L 342.973 165.63"/><path d="M 308.901 198.287 L 341.805 165.383"/><path d="M 307.734 198.04 L 340.638 165.136"/><path d="M 306.567 197.793 L 339.471 164.889"/><path d="M 305.399 197.546 L 338.303 164.642"/><path d="M 304.232 197.299 L 337.136 164.395"/><path d="M 303.065 197.052 L 335.969 164.149"/><path d="M 301.897 196.806 L 334.801 163.902"/><path d="M 300.73 196.559 L 333.634 163.655"/><path d="M 299.563 196.312 L 332.467 163.408"/><path d="M 298.395 196.065 L 331.299 163.161"/><path d="M 297.228 195.818 L 330.132 162.914"/><path d="M 296.061 195.571 L 328.965 162.667"/><path d="M 294.893 195.324 L 327.797 162.42"/><path d="M 293.726 195.077 L 326.63 162.174"/><path d="M 292.559 194.831 L 325.463 161.927"/><path d="M 291.391 194.584 L 324.295 161.68"/><path d="M 290.224 194.337 L 323.128 161.433"/><path d="M 289.057 194.09 L 321.961 161.186"/><path d="M 287.889 193.843 L 320.793 160.939"/><path d="M 286.722 193.596 L 319.626 160.692"/><path d="M 285.555 193.349 L 318.459 160.445"/><path d="M 284.387 193.102 L 317.291 160.199"/><path d="M 283.22 192.856 L 316.124 159.952"/><path d="M 282.053 192.609 L 314.957 159.705"/><path d="M 280.885 192.362 L 313.789 159.458"/><path d="M 279.718 192.115 L 312.622 159.211"/><path d="M 278.551 191.868 L 311.455 158.964"/><path d="M 277.383 191.621 L 310.287 158.717"/><path d="M 276.216 191.374 L 309.12 158.47"/><path d="M 275.049 191.127 L 307.953 158.224"/><path d="M 273.881 190.881 L 306.785 157.977"/><path d="M 272.714 190.634 L 305.618 157.73"/><path d="M 271.547 190.387 L 304.451 157.483"/><path d="M 270.379 190.14 L 303.283 157.236"/><path d="M 269.212 189.893 L 302.116 156.989"/><path d="M 268.045 189.646 L 300.949 156.742"/><path d="M 267.062 189.215 L 299.781 156.495"/><path d="M 266.581 188.282 L 298.614 156.249"/><path d="M 266.318 187.13 L 297.447 156.002"/><path d="M 266.171 185.863 L 296.279 155.755"/><path d="M 266.105 184.515 L 295.112 155.508"/><path d="M 266.103 183.102 L 293.945 155.261"/><path d="M 266.155 181.636 L 292.777 155.014"/><path d="M 266.267 180.11 L 291.61 154.767"/><path d="M 266.416 178.546 L 290.443 154.52"/><path d="M 266.596 176.952 L 289.275 154.274"/><path d="M 266.833 175.302 L 288.108 154.027"/><path d="M 267.099 173.621 L 286.94 153.78"/><path d="M 267.398 171.909 L 285.773 153.533"/><path d="M 267.784 170.108 L 284.606 153.286"/><path d="M 268.179 168.298 L 283.438 153.039"/><path d="M 268.575 166.488 L 282.271 152.792"/><path d="M 269.109 164.54 L 281.104 152.545"/><path d="M 269.658 162.577 L 279.936 152.299"/><path d="M 270.294 160.526 L 278.769 152.052"/><path d="M 271.056 158.351 L 277.602 151.805"/><path d="M 272.036 155.957 L 276.434 151.558"/><path d="M 273.573 153.005 L 275.131 151.447"/><path d="M 607.785 651.765 L 607.803 651.747"/><path d="M 607.02 651.116 L 607.126 651.01"/><path d="M 578.847 677.875 L 578.882 677.839"/><path d="M 606.13 650.592 L 606.449 650.273"/><path d="M 578.17 677.138 L 578.339 676.968"/><path d="M 605.175 650.133 L 605.771 649.536"/><path d="M 577.492 676.401 L 577.893 676.001"/><path d="M 604.123 649.77 L 605.094 648.799"/><path d="M 576.815 675.664 L 577.548 674.931"/><path d="M 602.932 649.547 L 604.417 648.062"/><path d="M 576.138 674.927 L 577.335 673.73"/><path d="M 601.65 649.415 L 603.74 647.325"/><path d="M 575.461 674.19 L 577.253 672.397"/><path d="M 600.236 649.414 L 603.062 646.588"/><path d="M 574.783 673.453 L 577.326 670.91"/><path d="M 598.619 649.617 L 602.385 645.851"/><path d="M 574.106 672.716 L 577.617 669.205"/><path d="M 596.82 650.002 L 601.708 645.114"/><path d="M 573.429 671.979 L 578.18 667.228"/><path d="M 594.753 650.654 L 601.031 644.377"/><path d="M 572.752 671.242 L 579.191 664.803"/><path d="M 592.222 651.771 L 600.353 643.64"/><path d="M 572.074 670.505 L 581.207 661.373"/><path d="M 588.591 653.988 L 599.676 642.903"/><path d="M 571.397 669.768 L 598.999 642.166"/><path d="M 570.72 669.031 L 598.322 641.429"/><path d="M 570.043 668.294 L 597.644 640.692"/><path d="M 569.365 667.557 L 596.967 639.955"/><path d="M 568.688 666.82 L 596.29 639.218"/><path d="M 568.011 666.083 L 595.613 638.481"/><path d="M 567.334 665.346 L 594.935 637.744"/><path d="M 566.656 664.609 L 594.258 637.008"/><path d="M 565.979 663.872 L 593.581 636.271"/><path d="M 565.302 663.135 L 592.904 635.534"/><path d="M 564.625 662.398 L 592.226 634.797"/><path d="M 563.947 661.661 L 591.549 634.06"/><path d="M 563.27 660.924 L 590.872 633.323"/><path d="M 562.593 660.187 L 590.195 632.586"/><path d="M 561.916 659.45 L 589.517 631.849"/><path d="M 561.238 658.714 L 588.84 631.112"/><path d="M 560.561 657.977 L 588.163 630.375"/><path d="M 559.884 657.24 L 587.486 629.638"/><path d="M 559.207 656.503 L 586.808 628.901"/><path d="M 558.529 655.766 L 586.131 628.164"/><path d="M 557.852 655.029 L 585.454 627.427"/><path d="M 557.175 654.292 L 584.777 626.69"/><path d="M 556.498 653.555 L 584.099 625.953"/><path d="M 555.82 652.818 L 583.422 625.216"/><path d="M 555.143 652.081 L 582.745 624.479"/><path d="M 554.466 651.344 L 582.068 623.742"/><path d="M 553.789 650.607 L 581.39 623.005"/><path d="M 553.111 649.87 L 580.713 622.268"/><path d="M 552.434 649.133 L 580.036 621.531"/><path d="M 551.757 648.396 L 579.359 620.794"/><path d="M 551.08 647.659 L 578.681 620.057"/><path d="M 550.402 646.922 L 578.004 619.32"/><path d="M 549.725 646.185 L 577.327 618.583"/><path d="M 549.048 645.448 L 576.65 617.846"/><path d="M 548.371 644.711 L 575.972 617.109"/><path d="M 547.693 643.974 L 575.295 616.372"/><path d="M 547.016 643.237 L 574.618 615.635"/><path d="M 546.339 642.5 L 573.941 614.899"/><path d="M 545.662 641.763 L 573.263 614.162"/><path d="M 544.984 641.026 L 572.586 613.425"/><path d="M 544.307 640.289 L 571.909 612.688"/><path d="M 543.63 639.552 L 571.232 611.951"/><path d="M 542.953 638.815 L 570.555 611.214"/><path d="M 542.276 638.078 L 569.877 610.477"/><path d="M 541.598 637.341 L 569.2 609.74"/><path d="M 540.921 636.605 L 568.523 609.003"/><path d="M 540.244 635.868 L 567.846 608.266"/><path d="M 539.567 635.131 L 567.168 607.529"/><path d="M 538.889 634.394 L 566.491 606.792"/><path d="M 538.212 633.657 L 565.814 606.055"/><path d="M 537.535 632.92 L 565.137 605.318"/><path d="M 536.858 632.183 L 564.459 604.581"/><path d="M 536.18 631.446 L 563.782 603.844"/><path d="M 535.503 630.709 L 563.105 603.107"/><path d="M 534.826 629.972 L 562.428 602.37"/><path d="M 534.149 629.235 L 561.75 601.633"/><path d="M 533.471 628.498 L 561.073 600.896"/><path d="M 532.794 627.761 L 560.396 600.159"/><path d="M 532.117 627.024 L 559.719 599.422"/><path d="M 531.44 626.287 L 559.041 598.685"/><path d="M 530.762 625.55 L 558.364 597.948"/><path d="M 530.085 624.813 L 557.687 597.211"/><path d="M 529.408 624.076 L 557.01 596.474"/><path d="M 528.731 623.339 L 556.332 595.737"/><path d="M 528.053 622.602 L 555.655 595"/><path d="M 527.376 621.865 L 554.978 594.264"/><path d="M 526.699 621.128 L 554.301 593.527"/><path d="M 526.022 620.391 L 553.623 592.79"/><path d="M 525.344 619.654 L 552.946 592.053"/><path d="M 524.667 618.917 L 552.269 591.316"/><path d="M 523.99 618.18 L 551.592 590.579"/><path d="M 523.313 617.443 L 550.914 589.842"/><path d="M 522.635 616.706 L 550.237 589.105"/><path d="M 521.958 615.969 L 549.56 588.368"/><path d="M 521.281 615.232 L 548.883 587.631"/><path d="M 520.604 614.496 L 548.205 586.894"/><path d="M 519.926 613.759 L 547.528 586.157"/><path d="M 519.249 613.022 L 546.851 585.42"/><path d="M 518.572 612.285 L 546.174 584.683"/><path d="M 517.895 611.548 L 545.496 583.946"/><path d="M 517.217 610.811 L 544.819 583.209"/><path d="M 516.54 610.074 L 544.142 582.472"/><path d="M 515.863 609.337 L 543.465 581.735"/><path d="M 515.186 608.6 L 542.787 580.998"/><path d="M 514.508 607.863 L 542.11 580.261"/><path d="M 513.831 607.126 L 541.433 579.524"/><path d="M 513.154 606.389 L 540.756 578.787"/><path d="M 512.477 605.652 L 540.078 578.05"/><path d="M 511.799 604.915 L 539.401 577.313"/><path d="M 511.122 604.178 L 538.724 576.576"/><path d="M 510.445 603.441 L 538.047 575.839"/><path d="M 509.768 602.704 L 537.369 575.102"/><path d="M 509.09 601.967 L 536.692 574.365"/><path d="M 508.413 601.23 L 536.015 573.628"/><path d="M 507.736 600.493 L 535.338 572.891"/><path d="M 507.059 599.756 L 534.66 572.155"/><path d="M 506.381 599.019 L 533.983 571.418"/><path d="M 505.704 598.282 L 533.306 570.681"/><path d="M 505.027 597.545 L 532.629 569.944"/><path d="M 504.35 596.808 L 531.951 569.207"/><path d="M 503.672 596.071 L 531.274 568.47"/><path d="M 502.995 595.334 L 530.597 567.733"/><path d="M 502.318 594.597 L 529.92 566.996"/><path d="M 501.641 593.861 L 529.242 566.259"/><path d="M 500.963 593.124 L 528.565 565.522"/><path d="M 500.286 592.387 L 527.888 564.785"/><path d="M 499.609 591.65 L 527.211 564.048"/><path d="M 498.932 590.913 L 526.533 563.311"/><path d="M 498.254 590.176 L 525.856 562.574"/><path d="M 497.577 589.439 L 525.179 561.837"/><path d="M 496.9 588.702 L 524.502 561.1"/><path d="M 496.223 587.965 L 523.824 560.363"/><path d="M 495.545 587.228 L 523.147 559.626"/><path d="M 494.868 586.491 L 522.47 558.889"/><path d="M 494.191 585.754 L 521.793 558.152"/><path d="M 493.514 585.017 L 521.115 557.415"/><path d="M 492.836 584.28 L 520.438 556.678"/><path d="M 492.159 583.543 L 519.761 555.941"/><path d="M 491.482 582.806 L 519.084 555.204"/><path d="M 490.805 582.069 L 518.406 554.467"/><path d="M 490.127 581.332 L 517.729 553.73"/><path d="M 489.45 580.595 L 517.052 552.993"/><path d="M 488.773 579.858 L 516.375 552.256"/><path d="M 488.096 579.121 L 515.697 551.519"/><path d="M 487.418 578.384 L 515.02 550.783"/><path d="M 486.741 577.647 L 514.343 550.046"/><path d="M 486.064 576.91 L 513.666 549.309"/><path d="M 485.387 576.173 L 512.988 548.572"/><path d="M 484.709 575.436 L 512.311 547.835"/><path d="M 484.032 574.699 L 511.634 547.098"/><path d="M 483.355 573.962 L 510.957 546.361"/><path d="M 482.678 573.225 L 510.279 545.624"/><path d="M 482 572.488 L 509.602 544.887"/><path d="M 481.323 571.752 L 508.925 544.15"/><path d="M 480.646 571.015 L 508.248 543.413"/><path d="M 479.969 570.278 L 507.57 542.676"/><path d="M 479.291 569.541 L 506.893 541.939"/><path d="M 478.614 568.804 L 506.216 541.202"/><path d="M 477.937 568.067 L 505.539 540.465"/><path d="M 477.26 567.33 L 504.861 539.728"/><path d="M 476.582 566.593 L 504.184 538.991"/><path d="M 475.905 565.856 L 503.507 538.254"/><path d="M 475.228 565.119 L 502.83 537.517"/><path d="M 474.551 564.382 L 502.152 536.78"/><path d="M 473.873 563.645 L 501.475 536.043"/><path d="M 473.196 562.908 L 500.798 535.306"/><path d="M 472.519 562.171 L 500.121 534.569"/><path d="M 471.842 561.434 L 499.443 533.832"/><path d="M 471.164 560.697 L 498.766 533.095"/><path d="M 470.487 559.96 L 498.089 532.358"/><path d="M 469.81 559.223 L 497.412 531.621"/><path d="M 469.133 558.486 L 496.734 530.884"/><path d="M 468.456 557.749 L 496.057 530.147"/><path d="M 467.778 557.012 L 495.38 529.41"/><path d="M 467.101 556.275 L 494.703 528.674"/><path d="M 466.424 555.538 L 494.025 527.937"/><path d="M 465.747 554.801 L 493.348 527.2"/><path d="M 465.069 554.064 L 492.671 526.463"/><path d="M 464.392 553.327 L 491.994 525.726"/><path d="M 463.715 552.59 L 491.316 524.989"/><path d="M 463.038 551.853 L 490.639 524.252"/><path d="M 462.36 551.116 L 489.962 523.515"/><path d="M 461.683 550.38 L 489.285 522.778"/><path d="M 461.006 549.643 L 488.607 522.041"/><path d="M 460.329 548.906 L 487.93 521.304"/><path d="M 459.651 548.169 L 487.253 520.567"/><path d="M 458.974 547.432 L 486.576 519.83"/><path d="M 458.297 546.695 L 485.898 519.093"/><path d="M 457.62 545.958 L 485.221 518.356"/><path d="M 456.942 545.221 L 484.544 517.619"/><path d="M 456.265 544.484 L 483.867 516.882"/><path d="M 455.588 543.747 L 483.19 516.145"/><path d="M 454.911 543.01 L 482.512 515.408"/><path d="M 454.233 542.273 L 481.835 514.671"/><path d="M 453.556 541.536 L 481.158 513.934"/><path d="M 452.879 540.799 L 480.481 513.197"/><path d="M 452.202 540.062 L 479.803 512.46"/><path d="M 451.524 539.325 L 479.126 511.723"/><path d="M 450.847 538.588 L 478.449 510.986"/><path d="M 450.17 537.851 L 477.772 510.249"/><path d="M 449.493 537.114 L 477.094 509.512"/><path d="M 448.815 536.377 L 476.417 508.775"/><path d="M 448.138 535.64 L 475.74 508.038"/><path d="M 447.461 534.903 L 475.063 507.301"/><path d="M 446.784 534.166 L 474.385 506.565"/><path d="M 446.106 533.429 L 473.708 505.828"/><path d="M 445.429 532.692 L 473.031 505.091"/><path d="M 444.752 531.955 L 472.354 504.354"/><path d="M 444.075 531.218 L 471.676 503.617"/><path d="M 443.397 530.481 L 470.999 502.88"/><path d="M 442.72 529.744 L 470.322 502.143"/><path d="M 442.043 529.008 L 469.645 501.406"/><path d="M 441.366 528.271 L 468.967 500.669"/><path d="M 440.688 527.534 L 468.29 499.932"/><path d="M 440.011 526.797 L 467.613 499.195"/><path d="M 439.334 526.06 L 466.936 498.458"/><path d="M 438.657 525.323 L 466.258 497.721"/><path d="M 437.979 524.586 L 465.581 496.984"/><path d="M 437.302 523.849 L 464.904 496.247"/><path d="M 436.625 523.112 L 464.227 495.51"/><path d="M 435.948 522.375 L 463.549 494.773"/><path d="M 435.27 521.638 L 462.872 494.036"/><path d="M 434.593 520.901 L 462.195 493.299"/><path d="M 433.916 520.164 L 461.518 492.562"/><path d="M 433.239 519.427 L 460.84 491.825"/><path d="M 432.561 518.69 L 460.163 491.088"/><path d="M 431.884 517.953 L 459.486 490.351"/><path d="M 431.207 517.216 L 458.809 489.614"/><path d="M 430.53 516.479 L 458.131 488.877"/><path d="M 429.852 515.742 L 457.454 488.14"/><path d="M 429.175 515.005 L 456.777 487.403"/><path d="M 428.498 514.268 L 456.1 486.666"/><path d="M 427.821 513.531 L 455.422 485.929"/><path d="M 427.143 512.794 L 454.745 485.193"/><path d="M 426.466 512.057 L 454.068 484.456"/><path d="M 425.789 511.32 L 453.391 483.719"/><path d="M 425.112 510.583 L 452.713 482.982"/><path d="M 424.434 509.846 L 452.036 482.245"/><path d="M 423.757 509.109 L 451.359 481.508"/><path d="M 423.08 508.372 L 450.682 480.771"/><path d="M 422.403 507.636 L 450.004 480.034"/><path d="M 421.725 506.898 L 449.327 479.297"/><path d="M 421.048 506.162 L 448.65 478.56"/><path d="M 420.371 505.425 L 447.973 477.823"/><path d="M 419.694 504.688 L 447.295 477.086"/><path d="M 419.016 503.951 L 446.618 476.349"/><path d="M 418.339 503.214 L 445.941 475.612"/><path d="M 417.662 502.477 L 445.264 474.875"/><path d="M 416.985 501.74 L 444.586 474.138"/><path d="M 416.307 501.003 L 443.909 473.401"/><path d="M 415.63 500.266 L 443.232 472.664"/><path d="M 414.953 499.529 L 442.555 471.927"/><path d="M 414.276 498.792 L 441.877 471.19"/><path d="M 413.598 498.055 L 441.2 470.453"/><path d="M 412.921 497.318 L 440.523 469.716"/><path d="M 412.244 496.581 L 439.846 468.979"/><path d="M 411.567 495.844 L 439.168 468.242"/><path d="M 410.889 495.107 L 438.491 467.505"/><path d="M 410.212 494.37 L 437.814 466.768"/><path d="M 409.535 493.633 L 437.137 466.031"/><path d="M 408.858 492.896 L 436.459 465.294"/><path d="M 408.18 492.159 L 435.782 464.557"/><path d="M 407.503 491.422 L 435.105 463.82"/><path d="M 406.826 490.685 L 434.428 463.084"/><path d="M 406.149 489.948 L 433.75 462.347"/><path d="M 405.471 489.211 L 433.073 461.61"/><path d="M 404.794 488.474 L 432.396 460.873"/><path d="M 404.117 487.737 L 431.719 460.136"/><path d="M 403.44 487 L 431.041 459.399"/><path d="M 402.762 486.263 L 430.364 458.662"/><path d="M 402.085 485.527 L 429.687 457.925"/><path d="M 401.408 484.79 L 429.01 457.188"/><path d="M 400.731 484.053 L 428.332 456.451"/><path d="M 400.053 483.316 L 427.655 455.714"/><path d="M 399.376 482.579 L 426.978 454.977"/><path d="M 398.699 481.842 L 426.301 454.24"/><path d="M 398.022 481.105 L 425.623 453.503"/><path d="M 397.344 480.368 L 424.946 452.766"/><path d="M 396.667 479.631 L 424.269 452.029"/><path d="M 395.99 478.894 L 423.592 451.292"/><path d="M 395.313 478.157 L 422.914 450.555"/><path d="M 394.635 477.42 L 422.237 449.818"/><path d="M 393.958 476.683 L 421.56 449.081"/><path d="M 393.281 475.946 L 420.883 448.344"/><path d="M 392.604 475.209 L 420.205 447.607"/><path d="M 391.927 474.472 L 419.528 446.87"/><path d="M 391.249 473.735 L 418.851 446.133"/><path d="M 390.572 472.998 L 418.174 445.396"/><path d="M 389.895 472.261 L 417.496 444.659"/><path d="M 389.217 471.524 L 416.819 443.922"/><path d="M 388.54 470.787 L 416.142 443.185"/><path d="M 387.863 470.05 L 415.465 442.449"/><path d="M 387.186 469.313 L 414.788 441.711"/><path d="M 386.509 468.576 L 414.11 440.975"/><path d="M 385.831 467.839 L 413.433 440.238"/><path d="M 385.154 467.102 L 412.756 439.501"/><path d="M 384.477 466.365 L 412.079 438.764"/><path d="M 383.8 465.628 L 411.401 438.027"/><path d="M 383.122 464.891 L 410.724 437.29"/><path d="M 382.445 464.155 L 410.047 436.553"/><path d="M 381.768 463.418 L 409.37 435.816"/><path d="M 381.091 462.681 L 408.692 435.079"/><path d="M 380.413 461.944 L 408.015 434.342"/><path d="M 379.736 461.207 L 407.338 433.605"/><path d="M 379.059 460.47 L 406.661 432.868"/><path d="M 378.382 459.733 L 405.983 432.131"/><path d="M 377.704 458.996 L 405.306 431.394"/><path d="M 377.027 458.259 L 404.629 430.657"/><path d="M 376.35 457.522 L 403.952 429.92"/><path d="M 375.673 456.785 L 403.274 429.183"/><path d="M 374.995 456.048 L 402.597 428.446"/><path d="M 374.318 455.311 L 401.92 427.709"/><path d="M 373.641 454.574 L 401.243 426.972"/><path d="M 372.964 453.837 L 400.565 426.235"/><path d="M 372.286 453.1 L 399.888 425.498"/><path d="M 371.609 452.363 L 399.211 424.761"/><path d="M 370.932 451.626 L 398.534 424.024"/><path d="M 370.255 450.889 L 397.856 423.287"/><path d="M 369.577 450.152 L 397.179 422.55"/><path d="M 368.9 449.415 L 396.502 421.813"/><path d="M 368.223 448.678 L 395.825 421.076"/><path d="M 367.546 447.941 L 395.147 420.34"/><path d="M 366.868 447.204 L 394.47 419.603"/><path d="M 366.191 446.467 L 393.793 418.866"/><path d="M 365.514 445.73 L 393.116 418.129"/><path d="M 364.837 444.993 L 392.438 417.392"/><path d="M 364.159 444.256 L 391.761 416.655"/><path d="M 363.482 443.519 L 391.084 415.918"/><path d="M 362.805 442.783 L 390.407 415.181"/><path d="M 362.128 442.046 L 389.729 414.444"/><path d="M 361.45 441.309 L 389.052 413.707"/><path d="M 360.773 440.572 L 388.375 412.97"/><path d="M 360.096 439.835 L 387.698 412.233"/><path d="M 359.419 439.098 L 387.02 411.496"/><path d="M 358.741 438.361 L 386.343 410.759"/><path d="M 358.064 437.624 L 385.666 410.022"/><path d="M 357.387 436.887 L 384.989 409.285"/><path d="M 356.71 436.15 L 384.311 408.548"/><path d="M 356.032 435.413 L 383.634 407.811"/><path d="M 355.355 434.676 L 382.957 407.074"/><path d="M 354.678 433.939 L 382.28 406.337"/><path d="M 354.001 433.202 L 381.602 405.6"/><path d="M 353.323 432.465 L 380.925 404.863"/><path d="M 352.646 431.728 L 380.248 404.126"/><path d="M 351.969 430.991 L 379.571 403.389"/><path d="M 351.292 430.254 L 378.893 402.652"/><path d="M 350.614 429.517 L 378.216 401.915"/><path d="M 349.937 428.78 L 377.539 401.178"/><path d="M 349.26 428.043 L 376.862 400.441"/><path d="M 348.583 427.306 L 376.184 399.704"/><path d="M 347.905 426.569 L 375.507 398.967"/><path d="M 347.228 425.832 L 374.83 398.231"/><path d="M 346.551 425.095 L 374.153 397.494"/><path d="M 345.874 424.358 L 373.475 396.757"/><path d="M 345.196 423.621 L 372.798 396.02"/><path d="M 344.519 422.884 L 372.121 395.283"/><path d="M 343.842 422.147 L 371.444 394.546"/><path d="M 343.165 421.41 L 370.766 393.809"/><path d="M 342.487 420.673 L 370.089 393.072"/><path d="M 341.81 419.937 L 369.412 392.335"/><path d="M 341.133 419.2 L 368.735 391.598"/><path d="M 340.456 418.463 L 368.057 390.861"/><path d="M 339.778 417.726 L 367.38 390.124"/><path d="M 339.101 416.989 L 366.703 389.387"/><path d="M 338.424 416.252 L 366.026 388.65"/><path d="M 337.747 415.515 L 365.348 387.913"/><path d="M 337.069 414.778 L 364.671 387.176"/><path d="M 336.392 414.041 L 363.994 386.439"/><path d="M 335.715 413.304 L 363.317 385.702"/><path d="M 335.038 412.567 L 362.639 384.965"/><path d="M 334.36 411.83 L 361.962 384.228"/><path d="M 333.683 411.093 L 361.285 383.491"/><path d="M 333.006 410.356 L 360.608 382.754"/><path d="M 332.329 409.619 L 359.93 382.017"/><path d="M 331.651 408.882 L 359.253 381.28"/><path d="M 330.974 408.145 L 358.576 380.543"/><path d="M 330.297 407.408 L 357.899 379.806"/><path d="M 329.62 406.671 L 357.221 379.069"/><path d="M 328.942 405.934 L 356.544 378.332"/><path d="M 328.265 405.197 L 355.867 377.595"/><path d="M 327.588 404.46 L 355.19 376.859"/><path d="M 326.911 403.723 L 354.512 376.122"/><path d="M 326.233 402.986 L 353.835 375.385"/><path d="M 325.556 402.249 L 353.158 374.648"/><path d="M 324.879 401.512 L 352.481 373.911"/><path d="M 324.202 400.775 L 351.803 373.174"/><path d="M 323.525 400.038 L 351.126 372.437"/><path d="M 322.847 399.301 L 350.449 371.7"/><path d="M 322.17 398.565 L 349.772 370.963"/><path d="M 321.493 397.828 L 349.095 370.226"/><path d="M 320.816 397.091 L 348.417 369.489"/><path d="M 320.138 396.354 L 347.74 368.752"/><path d="M 319.461 395.617 L 347.063 368.015"/><path d="M 318.784 394.88 L 346.385 367.278"/><path d="M 318.107 394.143 L 345.708 366.541"/><path d="M 317.429 393.406 L 345.031 365.804"/><path d="M 316.752 392.669 L 344.354 365.067"/><path d="M 316.075 391.932 L 343.677 364.33"/><path d="M 315.398 391.195 L 342.999 363.593"/><path d="M 314.72 390.458 L 342.322 362.856"/><path d="M 314.043 389.721 L 341.645 362.119"/><path d="M 313.366 388.984 L 340.968 361.382"/><path d="M 312.689 388.247 L 340.29 360.645"/><path d="M 312.011 387.51 L 339.613 359.908"/><path d="M 311.334 386.773 L 338.936 359.171"/><path d="M 310.657 386.036 L 338.259 358.434"/><path d="M 309.98 385.299 L 337.581 357.697"/><path d="M 309.302 384.562 L 336.904 356.96"/><path d="M 308.625 383.825 L 336.227 356.223"/><path d="M 307.948 383.088 L 335.55 355.487"/><path d="M 307.271 382.351 L 334.872 354.75"/><path d="M 306.593 381.614 L 334.195 354.013"/><path d="M 305.916 380.877 L 333.518 353.276"/><path d="M 305.239 380.14 L 332.841 352.539"/><path d="M 304.562 379.403 L 332.163 351.802"/><path d="M 303.884 378.666 L 331.486 351.065"/><path d="M 303.207 377.929 L 330.809 350.328"/><path d="M 302.53 377.193 L 330.132 349.591"/><path d="M 301.853 376.456 L 329.454 348.854"/><path d="M 301.175 375.719 L 328.777 348.117"/><path d="M 300.498 374.982 L 328.1 347.38"/><path d="M 299.821 374.245 L 327.423 346.643"/><path d="M 299.144 373.508 L 326.745 345.906"/><path d="M 298.466 372.771 L 326.068 345.169"/><path d="M 297.789 372.034 L 325.391 344.432"/><path d="M 297.112 371.297 L 324.714 343.695"/><path d="M 296.435 370.56 L 324.036 342.958"/><path d="M 295.757 369.823 L 323.359 342.221"/><path d="M 295.08 369.086 L 322.682 341.484"/><path d="M 294.403 368.349 L 322.005 340.747"/><path d="M 293.726 367.612 L 321.327 340.01"/><path d="M 293.048 366.875 L 320.65 339.273"/><path d="M 292.371 366.138 L 319.973 338.536"/><path d="M 291.694 365.401 L 319.296 337.799"/><path d="M 291.017 364.664 L 318.618 337.062"/><path d="M 290.339 363.927 L 317.941 336.325"/><path d="M 289.662 363.19 L 317.264 335.588"/><path d="M 288.985 362.453 L 316.587 334.851"/><path d="M 288.308 361.716 L 315.909 334.114"/><path d="M 287.63 360.979 L 315.232 333.378"/><path d="M 286.953 360.242 L 314.555 332.641"/><path d="M 286.276 359.505 L 313.878 331.904"/><path d="M 285.599 358.768 L 313.2 331.167"/><path d="M 284.921 358.031 L 312.523 330.43"/><path d="M 284.244 357.294 L 311.846 329.693"/><path d="M 283.567 356.557 L 311.169 328.956"/><path d="M 282.89 355.82 L 310.491 328.219"/><path d="M 282.212 355.084 L 309.814 327.482"/><path d="M 281.535 354.347 L 309.137 326.745"/><path d="M 280.858 353.61 L 308.46 326.008"/><path d="M 280.181 352.873 L 307.782 325.271"/><path d="M 279.503 352.136 L 307.105 324.534"/><path d="M 278.826 351.399 L 306.428 323.797"/><path d="M 278.149 350.662 L 305.751 323.06"/><path d="M 277.472 349.925 L 305.073 322.323"/><path d="M 276.794 349.188 L 304.396 321.586"/><path d="M 276.117 348.451 L 303.719 320.849"/><path d="M 275.44 347.714 L 303.042 320.112"/><path d="M 274.763 346.977 L 302.364 319.375"/><path d="M 274.085 346.24 L 301.687 318.638"/><path d="M 273.408 345.503 L 301.01 317.901"/><path d="M 272.731 344.766 L 300.333 317.164"/><path d="M 272.054 344.029 L 299.655 316.427"/><path d="M 271.376 343.292 L 298.978 315.69"/><path d="M 270.699 342.555 L 298.301 314.953"/><path d="M 270.022 341.818 L 297.624 314.216"/><path d="M 269.345 341.081 L 296.946 313.479"/><path d="M 268.667 340.344 L 296.269 312.742"/><path d="M 267.99 339.607 L 295.592 312.006"/><path d="M 267.313 338.87 L 294.915 311.269"/><path d="M 266.636 338.133 L 294.237 310.532"/><path d="M 265.958 337.396 L 293.56 309.795"/><path d="M 265.281 336.659 L 292.883 309.058"/><path d="M 264.604 335.922 L 292.206 308.321"/><path d="M 263.927 335.185 L 291.528 307.584"/><path d="M 263.249 334.448 L 290.851 306.847"/><path d="M 262.572 333.712 L 290.174 306.11"/><path d="M 261.895 332.975 L 289.497 305.373"/><path d="M 261.218 332.238 L 288.819 304.636"/><path d="M 260.54 331.501 L 288.142 303.899"/><path d="M 259.863 330.764 L 287.465 303.162"/><path d="M 259.186 330.027 L 286.788 302.425"/><path d="M 258.509 329.29 L 286.11 301.688"/><path d="M 257.831 328.553 L 285.433 300.951"/><path d="M 257.154 327.816 L 284.756 300.214"/><path d="M 256.477 327.079 L 284.079 299.477"/><path d="M 255.8 326.342 L 283.401 298.74"/><path d="M 255.123 325.605 L 282.724 298.003"/><path d="M 254.445 324.868 L 282.047 297.266"/><path d="M 253.768 324.131 L 281.37 296.529"/><path d="M 253.091 323.394 L 280.693 295.792"/><path d="M 252.414 322.657 L 280.015 295.055"/><path d="M 251.736 321.92 L 279.338 294.318"/><path d="M 251.059 321.183 L 278.661 293.581"/><path d="M 250.382 320.446 L 277.984 292.844"/><path d="M 249.705 319.709 L 277.306 292.107"/><path d="M 249.027 318.972 L 276.629 291.37"/><path d="M 248.35 318.235 L 275.952 290.634"/><path d="M 247.673 317.498 L 275.275 289.897"/><path d="M 246.996 316.761 L 274.597 289.16"/><path d="M 246.318 316.024 L 273.92 288.423"/><path d="M 245.641 315.287 L 273.243 287.686"/><path d="M 244.964 314.55 L 272.566 286.949"/><path d="M 244.287 313.813 L 271.888 286.212"/><path d="M 243.609 313.077 L 271.211 285.475"/><path d="M 242.932 312.34 L 270.534 284.738"/><path d="M 242.255 311.603 L 269.857 284.001"/><path d="M 241.578 310.866 L 269.179 283.264"/><path d="M 240.9 310.129 L 268.502 282.527"/><path d="M 240.223 309.392 L 267.825 281.79"/><path d="M 239.546 308.655 L 267.148 281.053"/><path d="M 238.869 307.918 L 266.47 280.316"/><path d="M 238.191 307.181 L 265.793 279.579"/><path d="M 237.514 306.444 L 265.116 278.842"/><path d="M 236.837 305.707 L 264.439 278.105"/><path d="M 236.16 304.97 L 263.761 277.368"/><path d="M 235.482 304.233 L 263.084 276.631"/><path d="M 234.805 303.496 L 262.407 275.894"/><path d="M 234.128 302.759 L 261.73 275.157"/><path d="M 233.451 302.022 L 261.052 274.42"/><path d="M 232.773 301.285 L 260.375 273.683"/><path d="M 232.096 300.548 L 259.698 272.946"/><path d="M 231.419 299.811 L 259.021 272.209"/><path d="M 230.742 299.074 L 258.343 271.472"/><path d="M 230.064 298.337 L 257.666 270.735"/><path d="M 229.387 297.6 L 256.989 269.998"/><path d="M 228.71 296.863 L 256.312 269.262"/><path d="M 228.033 296.126 L 255.634 268.525"/><path d="M 227.355 295.389 L 254.957 267.788"/><path d="M 226.678 294.652 L 254.28 267.051"/><path d="M 226.001 293.915 L 253.603 266.314"/><path d="M 225.324 293.178 L 252.925 265.577"/><path d="M 224.646 292.441 L 252.248 264.84"/><path d="M 223.969 291.704 L 251.571 264.103"/><path d="M 223.292 290.968 L 250.894 263.366"/><path d="M 222.615 290.231 L 250.216 262.629"/><path d="M 221.937 289.494 L 249.539 261.892"/><path d="M 221.26 288.757 L 248.862 261.155"/><path d="M 220.583 288.02 L 248.185 260.418"/><path d="M 219.906 287.283 L 247.507 259.681"/><path d="M 219.228 286.546 L 246.83 258.944"/><path d="M 218.551 285.809 L 246.153 258.207"/><path d="M 217.874 285.072 L 245.476 257.47"/><path d="M 217.197 284.335 L 244.798 256.733"/><path d="M 216.519 283.598 L 244.121 255.996"/><path d="M 215.842 282.861 L 243.444 255.259"/><path d="M 215.165 282.124 L 242.767 254.522"/><path d="M 214.488 281.387 L 242.089 253.785"/><path d="M 213.81 280.65 L 241.412 253.048"/><path d="M 213.133 279.913 L 240.735 252.311"/><path d="M 212.456 279.176 L 240.058 251.574"/><path d="M 211.779 278.439 L 239.38 250.837"/><path d="M 211.101 277.702 L 238.703 250.1"/><path d="M 210.424 276.965 L 238.026 249.363"/><path d="M 209.747 276.228 L 237.349 248.626"/><path d="M 209.07 275.491 L 236.671 247.89"/><path d="M 208.392 274.754 L 235.994 247.153"/><path d="M 207.715 274.017 L 235.317 246.416"/><path d="M 207.038 273.28 L 234.64 245.679"/><path d="M 206.361 272.543 L 233.962 244.942"/><path d="M 205.683 271.806 L 233.285 244.205"/><path d="M 205.006 271.069 L 232.608 243.468"/><path d="M 204.329 270.332 L 231.931 242.731"/><path d="M 203.652 269.596 L 231.253 241.994"/><path d="M 202.974 268.859 L 230.576 241.257"/><path d="M 202.297 268.122 L 229.899 240.52"/><path d="M 201.62 267.385 L 229.222 239.783"/><path d="M 200.943 266.648 L 228.544 239.046"/><path d="M 200.265 265.911 L 227.867 238.309"/><path d="M 199.588 265.174 L 227.19 237.572"/><path d="M 198.911 264.437 L 226.513 236.835"/><path d="M 198.234 263.7 L 225.835 236.098"/><path d="M 197.556 262.963 L 225.158 235.361"/><path d="M 196.879 262.226 L 224.481 234.624"/><path d="M 196.202 261.489 L 223.804 233.887"/><path d="M 195.525 260.752 L 223.126 233.15"/><path d="M 194.847 260.015 L 222.449 232.413"/><path d="M 194.17 259.278 L 221.772 231.676"/><path d="M 193.493 258.541 L 221.095 230.939"/><path d="M 192.816 257.804 L 220.417 230.202"/><path d="M 192.138 257.067 L 219.74 229.465"/><path d="M 191.461 256.33 L 219.063 228.728"/><path d="M 190.784 255.593 L 218.386 227.991"/><path d="M 190.107 254.856 L 217.693 227.27"/><path d="M 189.429 254.119 L 216.933 226.616"/><path d="M 188.787 253.347 L 216.051 226.083"/><path d="M 188.231 252.489 L 215.107 225.613"/><path d="M 187.771 251.536 L 214.056 225.25"/><path d="M 187.43 250.462 L 212.877 225.015"/><path d="M 187.203 249.275 L 211.609 224.868"/><path d="M 187.101 247.962 L 210.195 224.868"/><path d="M 187.166 246.483 L 208.596 225.053"/><path d="M 187.445 244.79 L 206.819 225.416"/><path d="M 187.977 242.844 L 204.785 226.036"/><path d="M 188.94 240.466 L 202.306 227.1"/><path d="M 190.865 237.128 L 198.781 229.211"/><path d="M 158.135 168.044 A 16.7 10.3723 -42.582 1 0 135.014 189.29"/><path d="M 156.273 166.018 A 15.7 9.75118 -42.582 1 0 133.153 187.265"/></g><g stroke="rgb(0, 0, 0)" stroke-width="0.35" stroke-linecap="butt" stroke-linejoin="miter" fill="none"><path d="M 127.265 198.709 L 128.044 166.883"/><path d="M 139.202 193.847 L 127.265 198.709"/><path d="M 160.675 170.808 L 161.101 153.419"/><path d="M 161.101 153.419 L 128.044 166.883"/><path d="M 168.299 178.283 L 167.88 178.648"/><path d="M 168.299 178.283 L 169.079 146.457"/><path d="M 169.079 146.457 L 161.101 153.419"/></g><g stroke="rgb(0, 0, 0)" stroke-width="0.13" stroke-linecap="butt" stroke-linejoin="miter" fill="none"><path d="M 86.2962 151.013 L 86.5408 141.021"/></g><g stroke="rgb(0, 0, 0)" stroke-width="0.35" stroke-linecap="butt" stroke-linejoin="miter" fill="none"><path d="M 116.842 114.574 A 26 17.4774 -358.597 0 0 81.1913 130.037"/><path d="M 81.1913 130.037 A 26 17.4774 -358.597 0 0 86.5408 141.021"/><path d="M 80.9466 140.029 A 26 17.4774 -178.597 0 0 86.2962 151.013"/><path d="M 157.452 126.047 A 8.03333 5.53995 -329.249 0 0 161.18 126.311"/><path d="M 180.096 121.453 L 165.178 117.238"/><path d="M 179.765 134.998 L 180.096 121.453"/><path d="M 116.842 114.574 L 157.452 126.047"/><path d="M 86.5408 141.021 L 113.127 164.733"/><path d="M 86.2962 151.013 L 112.925 174.764"/><path d="M 117.664 185.041 A 8.02051 3.68393 -296.77 0 0 112.925 174.764"/><path d="M 117.542 190.037 L 117.664 185.041"/><path d="M 127.265 198.709 L 117.542 190.037"/><path d="M 128.044 166.883 L 118.277 158.172"/><path d="M 118.277 158.172 L 118.155 163.168"/><path d="M 116.76 166.03 A 8.02139 3.68408 -296.771 0 0 118.155 163.168"/><path d="M 113.127 164.733 A 8.01822 3.6832 -296.775 0 0 116.76 166.03"/><path d="M 173.787 165.828 L 168.299 178.283"/><path d="M 150.881 144.893 A 8 5.37766 -358.597 0 0 154.311 141.899"/><path d="M 118.277 158.172 L 150.881 144.893"/><path d="M 180.096 121.453 L 169.079 146.457"/><path d="M 165.178 117.238 L 154.311 141.899"/></g><g stroke="rgb(0, 0, 0)" stroke-width="0.13" stroke-linecap="butt" stroke-linejoin="miter" fill="none"><path d="M 113.127 164.733 L 118.167 162.681"/><path d="M 157.452 126.047 L 148.768 145.753"/></g><g stroke="rgb(0, 0, 0)" stroke-width="0.35" stroke-linecap="butt" stroke-linejoin="miter" fill="none"><path d="M 114.174 130.743 A 16.6 11.1586 -178.597 0 0 100.486 130.403"/><path d="M 100.621 130.364 A 16 10.7553 -178.597 0 0 92.704 135.385"/><path d="M 114.026 130.693 A 16 10.7553 -178.597 0 0 100.621 130.364"/><path d="M 116.754 131.852 A 16 10.7553 -178.597 0 0 114.026 130.693"/><path d="M 121.686 136.094 A 16 10.7553 -178.597 0 0 116.754 131.852"/><path d="M 117.35 121.987 A 16.6 11.1586 -358.597 1 0 100.115 140.701"/><path d="M 100.115 140.701 A 16.6 11.1586 -358.597 0 0 114.023 141.043"/><path d="M 114.023 141.043 A 16.6 11.1586 -358.597 0 0 117.35 121.987"/><path d="M 91.3114 130.796 A 16 10.7553 -358.597 0 0 100.216 140.735"/><path d="M 113.905 141.076 A 16 10.7553 -358.597 0 0 123.302 131.579"/><path d="M 123.302 131.579 A 16 10.7553 -358.597 0 0 116.976 122.748"/><path d="M 116.976 122.748 A 16 10.7553 -358.597 0 0 91.3114 130.796"/><path d="M 237.853 176.563 A 13 2.5672 -258.059 0 0 238.069 176.663"/><path d="M 238.069 176.663 A 13 2.5672 -258.059 0 0 243.449 151.226"/><path d="M 243.449 151.226 A 13 2.5672 -258.059 0 0 243.21 151.23"/><path d="M 238.049 176.987 A 13.6 2.68568 -258.059 1 0 243.561 150.921"/><path d="M 243.561 150.921 A 13.6 2.68568 -258.059 0 0 238.076 166.921"/><path d="M 238.076 166.921 A 13.6 2.68568 -258.059 0 0 238.049 176.987"/><path d="M 193.266 215.324 A 15.7 9.75118 -222.582 0 0 192.546 205.489"/><path d="M 192.546 205.489 A 15.7 9.75118 -222.582 0 0 167.7 221.085"/><path d="M 167.7 221.085 A 15.7 9.75118 -222.582 0 0 169.427 226.737"/><path d="M 169.427 226.737 A 15.7 9.75118 -222.582 0 0 179.165 228.282"/><path d="M 194.084 211.677 A 15.1 9.37852 -222.582 1 0 179.553 228.163"/><path d="M 179.553 228.163 A 15.1 9.37852 -222.582 0 0 193.115 215.701"/><path d="M 193.115 215.701 A 15.1 9.37852 -222.582 0 0 194.084 211.677"/><path d="M 244.982 149.72 A 15.1 2.9819 -258.059 1 0 238.862 178.661"/><path d="M 238.862 178.661 A 15.1 2.9819 -258.059 0 0 245.608 153.97"/><path d="M 245.608 153.97 A 15.1 2.9819 -258.059 0 0 244.982 149.72"/><path d="M 244.007 148.584 A 15.7 3.10037 -258.059 1 0 237.51 179.305"/><path d="M 237.51 179.305 A 15.7 3.10037 -258.059 0 0 238.188 179.119"/><path d="M 244.552 149.028 A 15.7 3.10037 -258.059 0 0 244.007 148.584"/></g><g stroke="rgb(0, 0, 0)" stroke-width="0.13" stroke-linecap="butt" stroke-linejoin="miter" fill="none"><path d="M 178.546 134.74 A 16.7 3.29785 -78.0587 1 0 172.049 165.46"/><path d="M 178.405 134.71 A 15.7 3.10037 -78.0587 1 0 171.908 165.431"/></g><g stroke="rgb(0, 0, 0)" stroke-width="0.35" stroke-linecap="butt" stroke-linejoin="miter" fill="none"><path d="M 170.743 216.96 A 13 8.07423 -222.582 0 0 171.414 224.909"/><path d="M 171.414 224.909 A 13 8.07423 -222.582 0 0 190.559 207.317"/><path d="M 190.559 207.317 A 13 8.07423 -222.582 0 0 182.715 205.971"/><path d="M 182.882 205.918 A 13.6 8.44688 -222.582 0 0 170.669 217.14"/><path d="M 170.669 217.14 A 13.6 8.44688 -222.582 0 0 191.295 217.18"/><path d="M 191.295 217.18 A 13.6 8.44688 -222.582 0 0 182.882 205.918"/><path d="M 80.9466 140.029 L 81.1913 130.037"/><path d="M 156.273 166.018 L 192.546 205.489"/><path d="M 133.153 187.265 L 169.427 226.737"/><path d="M 179.553 228.163 L 179.165 228.282"/><path d="M 193.115 215.701 L 193.266 215.324"/><path d="M 238.862 178.661 L 238.188 179.119"/><path d="M 244.982 149.72 L 244.552 149.028"/><path d="M 178.405 134.71 L 244.007 148.584"/><path d="M 171.908 165.431 L 237.51 179.305"/><path d="M 171.908 165.431 A 0.287659 0.287659 0 0 0 171.779 165.43"/><path d="M 178.287 134.658 A 0.289642 0.289642 0 0 0 178.406 134.71"/><path d="M 652.563 760.592 L 651.663 759.12 L 651.061 758.164"/><path d="M 661.105 775.029 A 25.1086 16.8782 -358.598 0 0 694.44 784.645"/></g><g stroke="rgb(0, 0, 0)" stroke-width="0.13" stroke-linecap="butt" stroke-linejoin="miter" fill="none"><path d="M 661.35 765.037 A 25.6235 15.9146 -42.582 0 0 661.105 775.029"/></g><g stroke="rgb(0, 0, 0)" stroke-width="0.35" stroke-linecap="butt" stroke-linejoin="miter" fill="none"><path d="M 661.35 765.037 A 25.1085 16.8781 -358.597 0 0 697.955 773.537"/><path d="M 697.954 773.537 A 26.6997 26.6997 0 0 0 700.936 772.107"/><path d="M 694.44 784.645 A 30.457 30.457 0 0 0 697.71 783.529"/><path d="M 700.936 772.107 A 25.1075 16.8777 -358.598 0 0 709.082 755.525"/><path d="M 709.082 755.525 A 25.1055 16.8768 -358.593 0 0 703.253 747.971"/><path d="M 697.71 783.529 A 25.116 16.8823 -358.584 0 0 708.636 773.754"/><path d="M 703.253 747.972 A 7976.84 7976.84 0 0 0 687.834 736.335"/><path d="M 687.834 736.334 L 686.023 734.837 L 684.213 733.146 L 682.424 731.412 L 680.866 729.972 L 680.089 729.313 L 678.922 728.427"/><path d="M 678.922 728.427 L 677.461 727.531 L 675.985 726.891 L 674.487 726.512"/><path d="M 674.487 726.512 A 20.0162 12.4319 -42.582 0 0 673.348 726.378"/><path d="M 676.411 726.674 A 19.5 12.1113 -42.582 0 0 647.963 752.815"/></g><g stroke="rgb(0, 0, 0)" stroke-width="0.13" stroke-linecap="butt" stroke-linejoin="miter" fill="none"><path d="M 655.911 734.078 L 674.487 726.512"/></g><g stroke="rgb(0, 0, 0)" stroke-width="0.35" stroke-linecap="butt" stroke-linejoin="miter" fill="none"><path d="M 673.348 726.378 A 20.0162 12.4319 -42.582 0 0 655.911 734.078"/></g><g stroke="rgb(0, 0, 0)" stroke-width="0.13" stroke-linecap="butt" stroke-linejoin="miter" fill="none"><path d="M 652.808 750.6 L 687.834 736.334"/></g><g stroke="rgb(0, 0, 0)" stroke-width="0.35" stroke-linecap="butt" stroke-linejoin="miter" fill="none"><path d="M 652.808 750.6 L 652.124 749.171 L 651.622 747.535 L 651.326 745.771 L 651.263 743.945 L 651.449 742.114 L 651.805 740.587 L 652.337 739.12 L 653.03 737.729 L 653.598 736.814 L 654.228 735.943 L 655.029 734.988 L 655.911 734.078"/><path d="M 652.563 760.592 A 5223.96 5223.96 0 0 0 661.105 775.028"/><path d="M 652.808 750.6 A 5223.96 5223.96 0 0 0 661.349 765.036"/><path d="M 614.223 701.698 A 15.7 9.75118 -42.582 0 0 614.941 711.536"/><path d="M 628.321 688.743 A 15.7 9.75118 -42.582 0 0 614.223 701.698"/><path d="M 633.131 688.116 A 15.7 9.75118 -42.582 0 0 628.321 688.743"/><path d="M 627.934 688.862 A 15.1 9.37852 -42.582 0 0 614.374 701.322"/><path d="M 638.061 690.289 A 15.7 9.75118 -42.582 0 0 633.131 688.116"/><path d="M 691.346 758.999 A 16.6 11.1586 -358.597 0 0 677.806 758.708"/><path d="M 677.943 758.669 A 16 10.7553 -358.597 0 0 670.026 763.688"/><path d="M 691.347 758.997 A 16 10.7553 -358.597 0 0 677.943 758.669"/><path d="M 699.008 764.398 A 16 10.7553 -358.597 0 0 691.347 758.997"/><path d="M 691.344 769.347 A 16.6 11.1586 -358.597 1 0 677.438 769.006"/><path d="M 677.438 769.006 A 16.6 11.1586 -358.597 0 0 691.344 769.347"/><path d="M 700.624 759.883 A 16 10.7553 -358.597 0 0 668.633 759.101"/><path d="M 668.633 759.101 A 16 10.7553 -358.597 0 0 677.687 769.091"/><path d="M 691.23 769.379 A 16 10.7553 -358.597 0 0 693.113 768.725"/><path d="M 693.113 768.725 A 16 10.7553 -358.597 0 0 700.624 759.883"/><path d="M 708.636 773.754 A 26 26 0 0 0 709.082 755.525"/><path d="M 676.411 726.674 L 678.922 728.427"/><path d="M 647.963 752.815 L 651.061 758.164"/><path d="M 614.374 701.322 L 614.223 701.698"/><path d="M 627.934 688.862 L 628.321 688.743"/><path d="M 646.884 746.295 L 614.941 711.536"/><path d="M 670.005 725.05 L 638.061 690.289"/><path d="M 1079.54 360.837 L 1077.83 360.328 L 1076.21 360.015 L 1074.74 359.889 L 1073.39 359.927 L 1072.47 360.068 L 1072.01 360.203 L 1071.96 360.229 L 1071.95 360.234 L 1071.95 360.236"/><path d="M 1071.95 360.236 L 1071.95 360.238"/><path d="M 1071.95 360.24 A 0.918892 0.918892 0 0 0 1072.2 360.15"/><path d="M 1100.06 368.02 A 25.1086 16.8782 -358.597 0 0 1134.05 360.468"/></g><g stroke="rgb(0, 0, 0)" stroke-width="0.13" stroke-linecap="butt" stroke-linejoin="miter" fill="none"><path d="M 1100.3 358.028 A 25.6235 5.06003 -78.0587 0 0 1100.06 368.02"/></g><g stroke="rgb(0, 0, 0)" stroke-width="0.35" stroke-linecap="butt" stroke-linejoin="miter" fill="none"><path d="M 1100.3 358.028 A 25.1085 16.8781 -358.597 0 0 1135.59 348.167"/><path d="M 1135.59 348.167 A 12.1581 12.1581 0 0 0 1136.37 345.748"/><path d="M 1134.05 360.468 A 13.7811 13.7811 0 0 0 1135.35 358.16"/><path d="M 1136.38 345.748 A 11.5385 11.5385 0 0 0 1135.95 339.553"/><path d="M 1135.96 339.553 A 25.1085 16.8781 -358.597 0 0 1114.27 326.333"/><path d="M 1135.35 358.159 L 1135.51 357.783"/><path d="M 1114.27 326.331 A 13288.3 13288.3 0 0 0 1091.45 324.348"/><path d="M 1091.45 324.351 L 1089.97 324.168 L 1088.51 323.882 L 1086.82 323.426 L 1085.25 322.887 L 1083.02 321.98 L 1081.29 321.266 L 1080.42 321.013 L 1080.05 320.971"/><path d="M 1080.05 320.972 A 1.35568 1.35568 0 0 0 1079.3 321.142"/><path d="M 1079.3 321.143 A 20.0162 3.95272 -78.0587 0 0 1078.93 321.412"/><path d="M 1076.93 320.863 A 19.5 3.85079 -78.0587 0 0 1068.86 358.996"/></g><g stroke="rgb(0, 0, 0)" stroke-width="0.13" stroke-linecap="butt" stroke-linejoin="miter" fill="none"><path d="M 1073.11 335.194 L 1079.3 321.143"/></g><g stroke="rgb(0, 0, 0)" stroke-width="0.35" stroke-linecap="butt" stroke-linejoin="miter" fill="none"><path d="M 1078.93 321.412 A 20.0162 3.95272 -78.0587 0 0 1073.11 335.194"/></g><g stroke="rgb(0, 0, 0)" stroke-width="0.13" stroke-linecap="butt" stroke-linejoin="miter" fill="none"><path d="M 1079.78 350.845 L 1091.45 324.351"/></g><g stroke="rgb(0, 0, 0)" stroke-width="0.35" stroke-linecap="butt" stroke-linejoin="miter" fill="none"><path d="M 1079.78 350.845 L 1078.47 350.281 L 1077.24 349.538 L 1076.11 348.635 L 1075.11 347.59 L 1074.52 346.824 L 1074 346.012 L 1073.56 345.161 L 1073.2 344.279 L 1072.69 342.448 L 1072.52 341.231 L 1072.46 340.006 L 1072.5 338.779 L 1072.63 337.563 L 1073.11 335.194"/><path d="M 1079.53 360.836 A 11374 11374 0 0 0 1100.06 368.02"/><path d="M 1079.78 350.844 A 11374 11374 0 0 0 1100.3 358.028"/><path d="M 1002.67 340.797 A 15.7 3.10037 -78.0587 0 0 1003.22 341.241"/><path d="M 1009.04 310.706 A 15.7 3.10037 -78.0587 0 0 1002.67 340.797"/><path d="M 1008.18 311.309 A 15.1 2.9819 -78.0587 0 0 1002.24 340.105"/><path d="M 1009.71 310.52 A 15.7 3.10037 -78.0587 0 0 1009.04 310.706"/><path d="M 1008.36 311.164 A 15.1 2.9819 -78.0587 0 0 1008.18 311.309"/></g><g stroke="rgb(0, 0, 0)" stroke-width="0.13" stroke-linecap="butt" stroke-linejoin="miter" fill="none"><path d="M 1072.28 328.288 A 15.7 3.10037 -78.0587 0 0 1067.62 350.295"/></g><g stroke="rgb(0, 0, 0)" stroke-width="0.35" stroke-linecap="butt" stroke-linejoin="miter" fill="none"><path d="M 1118.35 343.069 A 16.6 11.1586 -358.597 0 0 1104.68 342.734"/><path d="M 1104.82 342.696 A 16 10.7553 -358.597 0 0 1096.9 347.715"/><path d="M 1118.22 343.023 A 16 10.7553 -358.597 0 0 1104.82 342.696"/><path d="M 1125.88 348.425 A 16 10.7553 -358.597 0 0 1118.22 343.023"/><path d="M 1118.22 353.374 A 16.6 11.1586 -358.597 1 0 1104.31 353.034"/><path d="M 1104.31 353.034 A 16.6 11.1586 -358.597 0 0 1118.22 353.374"/><path d="M 1127.5 343.91 A 16 10.7553 -358.597 0 0 1095.51 343.127"/><path d="M 1095.51 343.127 A 16 10.7553 -358.597 0 0 1104.43 353.072"/><path d="M 1118.1 353.407 A 16 10.7553 -358.597 0 0 1126.85 346.764"/><path d="M 1126.85 346.764 A 16 10.7553 -358.597 0 0 1127.5 343.91"/><path d="M 1135.51 357.783 A 26 26 0 0 0 1135.96 339.553"/><path d="M 1076.93 320.863 L 1080.05 320.971"/><path d="M 1068.86 358.996 L 1071.95 360.238"/><path d="M 1002.24 340.105 L 1002.67 340.797"/><path d="M 1008.36 311.164 L 1009.04 310.706"/><path d="M 1067.54 354.845 L 1003.22 341.241"/><path d="M 1074.04 324.124 L 1009.71 310.52"/><path d="M 275.643 151.391 A 19.5 3.85079 -258.059 0 0 266.09 183.506"/><path d="M 266.09 183.506 A 19.5 3.85079 -258.059 0 0 267.574 189.547"/><path d="M 980.515 304.039 A 16 3.15963 -258.059 1 0 973.894 335.346"/><path d="M 973.894 335.346 A 16 3.15963 -258.059 0 0 981.732 308.995"/><path d="M 981.732 308.995 A 16 3.15963 -258.059 0 0 980.515 304.039"/><path d="M 981.24 300.614 A 19.5 3.85079 -258.059 1 0 973.17 338.77"/><path d="M 973.17 338.77 A 19.5 3.85079 -258.059 0 0 982.723 306.654"/><path d="M 982.723 306.654 A 19.5 3.85079 -258.059 0 0 981.24 300.614"/><path d="M 267.574 189.547 L 973.17 338.77"/><path d="M 275.643 151.391 L 981.24 300.614"/><path d="M 217.989 227.56 A 19.5 12.1113 -222.582 0 0 187.129 246.93"/><path d="M 187.129 246.93 A 19.5 12.1113 -222.582 0 0 189.274 253.95"/><path d="M 605.557 654.475 A 16 9.93751 -222.582 1 0 581.995 676.128"/><path d="M 581.995 676.128 A 16 9.93751 -222.582 0 0 607.317 660.234"/><path d="M 607.317 660.234 A 16 9.93751 -222.582 0 0 605.557 654.475"/><path d="M 608.134 652.106 A 19.5 12.1113 -222.582 1 0 579.418 678.496"/><path d="M 579.418 678.496 A 19.5 12.1113 -222.582 0 0 610.279 659.126"/><path d="M 610.279 659.126 A 19.5 12.1113 -222.582 0 0 608.134 652.106"/><path d="M 189.274 253.95 L 579.418 678.496"/><path d="M 217.989 227.56 L 608.133 652.106"/><path d="M 1104.71 288.127 A 16 10.7553 -178.597 0 0 1136.7 288.91"/><path d="M 1130.38 280.079 A 16 10.7553 -178.597 0 0 1104.71 288.127"/><path d="M 1136.7 288.91 A 16 10.7553 -178.597 0 0 1130.38 280.079"/><path d="M 1111.57 284.174 A 11.0868 7.45264 -358.597 1 0 1130.04 284.626"/><path d="M 1115.63 281.824 A 11.3221 7.64114 -357.488 0 0 1111.57 284.174"/><path d="M 1127.41 282.671 A 12.8138 12.8138 0 0 0 1126.13 282.093"/><path d="M 1130.04 284.626 A 11.4684 7.64685 -359.907 0 0 1127.41 282.671"/><path d="M 1130.23 284.832 A 11.2468 7.56017 -358.597 0 0 1127.5 282.786"/><path d="M 1114.86 282.177 A 11.2468 7.56017 -358.597 0 0 1111.39 284.358"/><path d="M 1127.5 282.786 A 12.5896 12.5896 0 0 0 1126.82 282.457"/><path d="M 1111.6 284.54 A 10.9224 7.34213 -358.597 0 0 1111.43 292.474"/><path d="M 1129.77 292.927 A 10.9224 7.34213 -358.597 0 0 1130 284.99"/><path d="M 1104.47 298.119 A 16 10.7553 -178.597 0 0 1136.46 298.902"/><path d="M 1136.46 298.902 L 1136.7 288.91"/><path d="M 1104.47 298.119 L 1104.71 288.127"/><path d="M 1114.74 286.884 A 6 4.03323 -358.597 0 0 1118.08 290.61"/><path d="M 1123.22 290.738 A 6 4.03323 -358.597 0 0 1126.74 287.178"/><path d="M 1126.74 287.178 A 6 4.03323 -358.597 0 0 1124.37 283.866"/><path d="M 1124.37 283.866 A 6 4.03323 -358.597 0 0 1114.74 286.884"/><path d="M 1116.98 290.145 A 7.37827 7.37827 0 0 0 1118.04 290.597"/><path d="M 1118.04 290.598 A 9.05231 9.05231 0 0 0 1123.27 290.726"/><path d="M 1123.27 290.725 A 6.24 4.19458 -358.597 1 0 1116.98 290.145"/><path d="M 1117.21 281.272 A 8.96047 6.02328 -178.597 1 0 1126.16 282.127"/><path d="M 1126.16 282.127 A 10.6649 10.6649 0 0 0 1124.55 281.451"/><path d="M 1124.55 281.451 A 8.96047 6.02328 -178.597 0 0 1117.21 281.272"/><path d="M 1117.21 281.272 A 12.7006 12.7006 0 0 0 1111.6 284.538"/><path d="M 1126.47 282.264 A 12.7 12.7 0 0 0 1124.55 281.451"/><path d="M 1130 284.99 A 12.7016 12.7016 0 0 0 1126.47 282.264"/><path d="M 676.881 704.392 A 16 10.7553 -178.597 0 0 708.871 705.175"/><path d="M 702.546 696.344 A 16 10.7553 -178.597 0 0 676.881 704.392"/><path d="M 708.871 705.175 A 16 10.7553 -178.597 0 0 702.546 696.344"/><path d="M 683.741 700.439 A 11.0868 7.45264 -358.597 1 0 702.213 700.891"/><path d="M 687.799 698.089 A 11.3221 7.64114 -357.488 0 0 683.741 700.439"/><path d="M 699.577 698.936 A 12.8138 12.8138 0 0 0 698.305 698.358"/><path d="M 702.213 700.891 A 11.4684 7.64685 -359.907 0 0 699.576 698.936"/><path d="M 702.4 701.097 A 11.2468 7.56017 -358.597 0 0 699.668 699.051"/><path d="M 687.035 698.442 A 11.2468 7.56017 -358.597 0 0 683.556 700.623"/><path d="M 699.668 699.051 A 12.5896 12.5896 0 0 0 698.991 698.722"/><path d="M 683.768 700.805 A 10.9224 7.34213 -358.597 0 0 683.599 708.739"/><path d="M 701.945 709.192 A 10.9224 7.34213 -358.597 0 0 702.167 701.255"/><path d="M 676.636 714.384 A 16 10.7553 -178.597 0 0 708.627 715.167"/><path d="M 708.627 715.167 L 708.871 705.175"/><path d="M 676.636 714.384 L 676.881 704.392"/><path d="M 686.914 703.149 A 6 4.03323 -358.597 0 0 690.25 706.875"/><path d="M 695.39 707.003 A 6 4.03323 -358.597 0 0 698.911 703.443"/><path d="M 698.911 703.443 A 6 4.03323 -358.597 0 0 696.539 700.131"/><path d="M 696.539 700.131 A 6 4.03323 -358.597 0 0 686.914 703.149"/><path d="M 689.145 706.41 A 7.37827 7.37827 0 0 0 690.209 706.862"/><path d="M 690.209 706.863 A 9.05231 9.05231 0 0 0 695.438 706.991"/><path d="M 695.437 706.99 A 6.24 4.19458 -358.597 1 0 689.146 706.41"/><path d="M 689.377 697.537 A 8.96047 6.02328 -178.597 1 0 698.332 698.392"/><path d="M 698.332 698.392 A 10.6649 10.6649 0 0 0 696.724 697.716"/><path d="M 696.724 697.716 A 8.96047 6.02328 -178.597 0 0 689.377 697.537"/><path d="M 689.377 697.537 A 12.7006 12.7006 0 0 0 683.77 700.803"/><path d="M 698.645 698.529 A 12.7 12.7 0 0 0 696.724 697.716"/><path d="M 702.167 701.255 A 12.7016 12.7016 0 0 0 698.645 698.529"/><path d="M 99.88 73.8945 A 16 10.7553 -178.597 0 0 131.87 74.6771"/><path d="M 125.545 65.8461 A 16 10.7553 -178.597 0 0 99.88 73.8945"/><path d="M 131.87 74.6771 A 16 10.7553 -178.597 0 0 125.545 65.8461"/><path d="M 106.74 69.9409 A 11.0868 7.45264 -358.597 1 0 125.212 70.3932"/><path d="M 110.799 67.5914 A 11.3221 7.64114 -357.488 0 0 106.74 69.9409"/><path d="M 122.576 68.4376 A 12.8138 12.8138 0 0 0 121.304 67.86"/><path d="M 125.212 70.3932 A 11.4684 7.64685 -359.907 0 0 122.576 68.4377"/><path d="M 125.399 70.5987 A 11.2468 7.56017 -358.597 0 0 122.667 68.5532"/><path d="M 110.034 67.944 A 11.2468 7.56017 -358.597 0 0 106.555 70.1248"/><path d="M 122.667 68.5532 A 12.5896 12.5896 0 0 0 121.99 68.2244"/><path d="M 106.767 70.3067 A 10.9224 7.34213 -358.597 0 0 106.598 78.2407"/><path d="M 124.944 78.6937 A 10.9224 7.34213 -358.597 0 0 125.167 70.7571"/><path d="M 99.6354 83.8864 A 16 10.7553 -178.597 0 0 131.626 84.669"/><path d="M 131.626 84.669 L 131.87 74.6771"/><path d="M 99.6354 83.8865 L 99.88 73.8945"/><path d="M 109.913 72.6514 A 6 4.03323 -358.597 0 0 113.25 76.3773"/><path d="M 118.389 76.5052 A 6 4.03323 -358.597 0 0 121.91 72.9448"/><path d="M 121.91 72.9448 A 6 4.03323 -358.597 0 0 119.538 69.6332"/><path d="M 119.538 69.6332 A 6 4.03323 -358.597 0 0 109.913 72.6514"/><path d="M 112.145 75.9121 A 7.37827 7.37827 0 0 0 113.208 76.3636"/><path d="M 113.208 76.3649 A 9.05231 9.05231 0 0 0 118.437 76.4932"/><path d="M 118.436 76.492 A 6.24 4.19458 -358.597 1 0 112.145 75.912"/><path d="M 112.377 67.0388 A 8.96047 6.02328 -178.597 1 0 121.331 67.894"/><path d="M 121.331 67.8938 A 10.6649 10.6649 0 0 0 119.723 67.2184"/><path d="M 119.723 67.2182 A 8.96047 6.02328 -178.597 0 0 112.377 67.0388"/><path d="M 112.376 67.0388 A 12.7006 12.7006 0 0 0 106.769 70.3048"/><path d="M 121.644 68.0309 A 12.7 12.7 0 0 0 119.723 67.2181"/><path d="M 125.167 70.7571 A 12.7016 12.7016 0 0 0 121.644 68.0309"/></g></svg>