G04 EAGLE Gerber RS-274X export*
G75*
%MOMM*%
%FSLAX34Y34*%
%LPD*%
%INTop Copper*%
%IPPOS*%
%AMOC8*
5,1,8,0,0,1.08239X$1,22.5*%
G01*
%ADD10P,1.732040X8X22.500000*%
%ADD11R,1.258000X1.258000*%
%ADD12C,1.258000*%
%ADD13R,1.000000X1.100000*%
%ADD14R,1.100000X1.000000*%
%ADD15C,1.508000*%
%ADD16R,0.800000X0.800000*%
%ADD17R,1.525000X0.650000*%
%ADD18R,0.600000X1.200000*%
%ADD19R,1.650000X0.650000*%
%ADD20R,1.528000X0.650000*%
%ADD21R,2.100000X1.000000*%
%ADD22R,5.850000X4.900000*%
%ADD23R,1.550000X0.700000*%
%ADD24R,1.200000X0.400000*%
%ADD25R,0.650000X1.100000*%
%ADD26R,0.650000X1.200000*%
%ADD27R,1.100000X0.650000*%
%ADD28R,1.200000X0.650000*%
%ADD29P,1.649562X8X22.500000*%
%ADD30P,1.649562X8X112.500000*%
%ADD31P,1.649562X8X202.500000*%
%ADD32C,0.152400*%
%ADD33C,0.756400*%


D10*
X205740Y38100D03*
X316230Y19050D03*
X180340Y36830D03*
D11*
X402590Y167640D03*
D12*
X382590Y167640D03*
D13*
X328930Y169300D03*
X328930Y186300D03*
X60960Y242960D03*
X60960Y259960D03*
X351790Y186300D03*
X351790Y169300D03*
X476250Y133740D03*
X476250Y150740D03*
X17780Y229480D03*
X17780Y212480D03*
X17780Y182000D03*
X17780Y199000D03*
X351790Y154550D03*
X351790Y137550D03*
D14*
X435220Y166370D03*
X418220Y166370D03*
D11*
X449580Y167640D03*
D12*
X469580Y167640D03*
D13*
X83820Y55000D03*
X83820Y72000D03*
X204470Y167250D03*
X204470Y150250D03*
X226060Y72000D03*
X226060Y55000D03*
X226060Y135500D03*
X226060Y118500D03*
X17780Y242960D03*
X17780Y259960D03*
D15*
X30560Y59690D02*
X45640Y59690D01*
X45640Y85090D02*
X30560Y85090D01*
X30560Y110490D02*
X45640Y110490D01*
X45640Y135890D02*
X30560Y135890D01*
X30560Y161290D02*
X45640Y161290D01*
D16*
X331470Y135050D03*
X331470Y157050D03*
D17*
X127820Y245110D03*
X127820Y232410D03*
X127820Y219710D03*
X127820Y207010D03*
X182060Y207010D03*
X182060Y219710D03*
X182060Y232410D03*
X182060Y245110D03*
D18*
X330860Y95450D03*
X340360Y95450D03*
X349860Y95450D03*
X349860Y120450D03*
X330860Y120450D03*
D19*
X247900Y87630D03*
X247900Y62230D03*
X310900Y62230D03*
X310900Y87630D03*
D20*
X375480Y149860D03*
X375480Y137160D03*
X375480Y124460D03*
X375480Y111760D03*
X429700Y111760D03*
X429700Y124460D03*
X429700Y137160D03*
X429700Y149860D03*
D19*
X371090Y87630D03*
X371090Y62230D03*
X434090Y62230D03*
X434090Y87630D03*
D21*
X470220Y188020D03*
X470220Y233620D03*
D22*
X402220Y210820D03*
D17*
X127820Y95250D03*
X127820Y82550D03*
X127820Y69850D03*
X127820Y57150D03*
X182060Y57150D03*
X182060Y69850D03*
X182060Y82550D03*
X182060Y95250D03*
D23*
X182190Y113030D03*
X182190Y125730D03*
X182190Y138430D03*
X182190Y151130D03*
X182190Y163830D03*
X182190Y176530D03*
X182190Y189230D03*
X127690Y189230D03*
X127690Y176530D03*
X127690Y163830D03*
X127690Y151130D03*
X127690Y138430D03*
X127690Y125730D03*
X127690Y113030D03*
D17*
X251010Y187960D03*
X251010Y175260D03*
X251010Y162560D03*
X251010Y149860D03*
X251010Y137160D03*
X251010Y124460D03*
X251010Y111760D03*
X305250Y111760D03*
X305250Y124460D03*
X305250Y137160D03*
X305250Y149860D03*
X305250Y162560D03*
X305250Y175260D03*
X305250Y187960D03*
D24*
X103480Y184000D03*
X103480Y190500D03*
X103480Y197000D03*
X84480Y197000D03*
X84480Y184000D03*
D17*
X127820Y300990D03*
X127820Y288290D03*
X127820Y275590D03*
X127820Y262890D03*
X182060Y262890D03*
X182060Y275590D03*
X182060Y288290D03*
X182060Y300990D03*
X251010Y300990D03*
X251010Y288290D03*
X251010Y275590D03*
X251010Y262890D03*
X305250Y262890D03*
X305250Y275590D03*
X305250Y288290D03*
X305250Y300990D03*
D10*
X323850Y234950D03*
X359410Y234950D03*
X341630Y234950D03*
D25*
X330760Y16170D03*
X349960Y16170D03*
X340360Y37170D03*
D26*
X330760Y55540D03*
X349960Y55540D03*
X340360Y76540D03*
D27*
X454320Y48970D03*
X454320Y29770D03*
X475320Y39370D03*
D28*
X475320Y66600D03*
X475320Y85800D03*
X454320Y76200D03*
D14*
X39370Y212480D03*
X39370Y229480D03*
X204470Y86750D03*
X204470Y103750D03*
X204470Y72000D03*
X204470Y55000D03*
X226060Y103750D03*
X226060Y86750D03*
X83820Y212480D03*
X83820Y229480D03*
X83820Y118500D03*
X83820Y135500D03*
X105410Y118500D03*
X105410Y135500D03*
X204470Y135500D03*
X204470Y118500D03*
X62230Y274710D03*
X62230Y291710D03*
X105410Y242960D03*
X105410Y259960D03*
X39370Y242960D03*
X39370Y259960D03*
X83820Y150250D03*
X83820Y167250D03*
X83820Y259960D03*
X83820Y242960D03*
X105410Y212480D03*
X105410Y229480D03*
X83820Y291710D03*
X83820Y274710D03*
X351790Y218050D03*
X351790Y201050D03*
X328930Y201050D03*
X328930Y218050D03*
X105410Y291710D03*
X105410Y274710D03*
X233680Y41520D03*
X233680Y24520D03*
X298450Y41520D03*
X298450Y24520D03*
X39370Y182000D03*
X39370Y199000D03*
X276860Y41520D03*
X276860Y24520D03*
X255270Y24520D03*
X255270Y41520D03*
X372110Y41520D03*
X372110Y24520D03*
X434340Y24520D03*
X434340Y41520D03*
X414020Y41520D03*
X414020Y24520D03*
X392430Y41520D03*
X392430Y24520D03*
X476250Y101990D03*
X476250Y118990D03*
X455930Y118990D03*
X455930Y101990D03*
X60960Y199000D03*
X60960Y182000D03*
X105410Y150250D03*
X105410Y167250D03*
X60960Y229480D03*
X60960Y212480D03*
X105410Y86750D03*
X105410Y103750D03*
X105410Y55000D03*
X105410Y72000D03*
X83820Y103750D03*
X83820Y86750D03*
D15*
X332740Y271860D02*
X332740Y286940D01*
X358140Y286940D02*
X358140Y271860D01*
X383540Y271860D02*
X383540Y286940D01*
X408940Y286940D02*
X408940Y271860D01*
X434340Y271860D02*
X434340Y286940D01*
D29*
X59690Y19050D03*
X85090Y19050D03*
X72390Y36830D03*
X97790Y36830D03*
D17*
X251010Y243840D03*
X251010Y231140D03*
X251010Y218440D03*
X251010Y205740D03*
X305250Y205740D03*
X305250Y218440D03*
X305250Y231140D03*
X305250Y243840D03*
D14*
X204470Y230750D03*
X204470Y213750D03*
X226060Y230750D03*
X226060Y213750D03*
X204470Y262500D03*
X204470Y245500D03*
D13*
X226060Y245500D03*
X226060Y262500D03*
X226060Y150250D03*
X226060Y167250D03*
D14*
X226060Y277250D03*
X226060Y294250D03*
X204470Y277250D03*
X204470Y294250D03*
D29*
X110490Y20320D03*
D13*
X226060Y182000D03*
X226060Y199000D03*
D14*
X204470Y182000D03*
X204470Y199000D03*
X455930Y150740D03*
X455930Y133740D03*
D30*
X129540Y36830D03*
X142240Y19050D03*
X154940Y36830D03*
X167640Y19050D03*
D31*
X218440Y19050D03*
X193040Y19050D03*
D32*
X469392Y234696D02*
X469392Y243840D01*
X434340Y278892D01*
X469392Y234696D02*
X470220Y233620D01*
X434340Y278892D02*
X434340Y279400D01*
X405384Y16764D02*
X361188Y16764D01*
X350520Y16764D01*
X405384Y16764D02*
X413004Y24384D01*
X350520Y16764D02*
X349960Y16170D01*
X413004Y24384D02*
X414020Y24520D01*
X441960Y16764D02*
X454152Y28956D01*
X441960Y16764D02*
X422148Y16764D01*
X414528Y24384D01*
X454152Y28956D02*
X454320Y29770D01*
X414528Y24384D02*
X414020Y24520D01*
X332232Y158496D02*
X344424Y170688D01*
X344424Y176784D01*
X345948Y178308D01*
X356616Y178308D01*
X359664Y175260D01*
X359664Y163068D01*
X352044Y155448D01*
X332232Y158496D02*
X331470Y157050D01*
X351790Y154550D02*
X352044Y155448D01*
X268224Y33528D02*
X275844Y25908D01*
X268224Y33528D02*
X268224Y47244D01*
X283464Y62484D01*
X275844Y25908D02*
X276860Y24520D01*
X359664Y175260D02*
X377952Y175260D01*
X379476Y176784D01*
X393192Y176784D01*
X402336Y167640D01*
X402590Y167640D01*
X361188Y27432D02*
X361188Y16764D01*
X469392Y225552D02*
X469392Y233172D01*
X469392Y225552D02*
X437388Y193548D01*
X469392Y233172D02*
X470220Y233620D01*
D33*
X283464Y62484D03*
X361188Y27432D03*
X437388Y193548D03*
D32*
X204216Y54864D02*
X204216Y51816D01*
X193548Y41148D01*
X193548Y25908D02*
X193548Y19812D01*
X193548Y25908D02*
X193548Y41148D01*
X204216Y54864D02*
X204470Y55000D01*
X193548Y19812D02*
X193040Y19050D01*
X190500Y103632D02*
X204216Y103632D01*
X190500Y103632D02*
X182880Y96012D01*
X204216Y103632D02*
X204470Y103750D01*
X182880Y96012D02*
X182060Y95250D01*
X204216Y135636D02*
X204216Y149352D01*
X204216Y135636D02*
X204470Y135500D01*
X204216Y149352D02*
X204470Y150250D01*
X227076Y149352D02*
X227076Y135636D01*
X226060Y135500D01*
X227076Y149352D02*
X249936Y149352D01*
X251010Y149860D01*
X227076Y149352D02*
X226060Y150250D01*
X225552Y135636D02*
X213360Y135636D01*
X205740Y135636D01*
X204470Y135500D01*
X225552Y135636D02*
X226060Y135500D01*
X213360Y112776D02*
X205740Y105156D01*
X213360Y112776D02*
X213360Y135636D01*
X205740Y105156D02*
X204470Y103750D01*
X193548Y25908D02*
X175260Y25908D01*
X172212Y28956D01*
X161544Y28956D01*
X158496Y25908D01*
X150876Y25908D01*
X147828Y28956D01*
X137160Y28956D01*
X134112Y25908D01*
X124968Y25908D01*
X118872Y32004D01*
X118872Y41148D01*
X128016Y50292D01*
X135636Y50292D01*
X158496Y73152D01*
X158496Y86868D01*
X166116Y94488D01*
X181356Y94488D01*
X193548Y25908D02*
X193040Y19050D01*
X181356Y94488D02*
X182060Y95250D01*
X329184Y170688D02*
X333756Y170688D01*
X350520Y187452D01*
X329184Y170688D02*
X328930Y169300D01*
X350520Y187452D02*
X351790Y186300D01*
X352044Y187452D02*
X352044Y199644D01*
X351790Y201050D01*
X352044Y187452D02*
X351790Y186300D01*
X225552Y214884D02*
X205740Y214884D01*
X204470Y213750D01*
X225552Y214884D02*
X226060Y213750D01*
X185928Y243840D02*
X182880Y243840D01*
X185928Y243840D02*
X196596Y233172D01*
X196596Y222504D01*
X204216Y214884D01*
X182880Y243840D02*
X182060Y245110D01*
X204216Y214884D02*
X204470Y213750D01*
X342900Y201168D02*
X350520Y201168D01*
X342900Y201168D02*
X335280Y208788D01*
X321564Y208788D01*
X315468Y202692D01*
X315468Y201168D01*
X313944Y199644D01*
X277368Y199644D01*
X265176Y211836D01*
X228600Y211836D01*
X227076Y213360D01*
X350520Y201168D02*
X351790Y201050D01*
X227076Y213360D02*
X226060Y213750D01*
X435864Y167640D02*
X449580Y167640D01*
X435864Y167640D02*
X435220Y166370D01*
X469392Y100584D02*
X475488Y100584D01*
X469392Y100584D02*
X460248Y91440D01*
X455676Y91440D01*
X475488Y100584D02*
X476250Y101990D01*
X455676Y150876D02*
X455676Y161544D01*
X449580Y167640D01*
X455676Y150876D02*
X455930Y150740D01*
X429768Y150876D02*
X429768Y161544D01*
X434340Y166116D01*
X429768Y150876D02*
X429700Y149860D01*
X434340Y166116D02*
X435220Y166370D01*
X458724Y187452D02*
X469392Y187452D01*
X458724Y187452D02*
X454152Y182880D01*
X469392Y187452D02*
X470220Y188020D01*
X330708Y121920D02*
X315468Y137160D01*
X315468Y179832D01*
X312420Y182880D02*
X306324Y188976D01*
X312420Y182880D02*
X315468Y179832D01*
X330708Y121920D02*
X330860Y120450D01*
X305250Y187960D02*
X306324Y188976D01*
X83820Y73152D02*
X77724Y79248D01*
X76200Y79248D01*
X74676Y80772D01*
X74676Y91440D01*
X79248Y96012D01*
X97536Y96012D01*
X105156Y103632D01*
X83820Y73152D02*
X83820Y72000D01*
X105156Y103632D02*
X105410Y103750D01*
X114300Y112776D02*
X126492Y112776D01*
X114300Y112776D02*
X106680Y105156D01*
X126492Y112776D02*
X127690Y113030D01*
X106680Y105156D02*
X105410Y103750D01*
X18288Y230124D02*
X18288Y242316D01*
X17780Y242960D01*
X18288Y230124D02*
X38100Y230124D01*
X39370Y229480D01*
X18288Y230124D02*
X17780Y229480D01*
X83820Y229480D02*
X83820Y242960D01*
X83820Y243840D02*
X71628Y243840D01*
X60960Y243840D01*
X60960Y242960D01*
X83820Y242960D02*
X83820Y243840D01*
X47244Y228600D02*
X39624Y228600D01*
X47244Y228600D02*
X54864Y220980D01*
X76200Y220980D01*
X83820Y228600D01*
X39624Y228600D02*
X39370Y229480D01*
X83820Y229480D02*
X83820Y228600D01*
X105156Y272796D02*
X105156Y274320D01*
X105156Y272796D02*
X105156Y260604D01*
X105410Y259960D01*
X105156Y274320D02*
X105410Y274710D01*
X70104Y291084D02*
X62484Y291084D01*
X74676Y286512D02*
X77724Y283464D01*
X74676Y286512D02*
X70104Y291084D01*
X77724Y283464D02*
X94488Y283464D01*
X105156Y272796D01*
X62484Y291084D02*
X62230Y291710D01*
X105410Y274710D02*
X105156Y272796D01*
X25908Y181356D02*
X18288Y181356D01*
X25908Y181356D02*
X33528Y173736D01*
X53340Y173736D01*
X60960Y181356D01*
X18288Y181356D02*
X17780Y182000D01*
X60960Y182000D02*
X60960Y181356D01*
X60960Y182880D02*
X83820Y182880D01*
X84480Y184000D01*
X60960Y182880D02*
X60960Y182000D01*
X237744Y294132D02*
X298704Y294132D01*
X237744Y294132D02*
X227076Y294132D01*
X298704Y294132D02*
X304800Y300228D01*
X227076Y294132D02*
X226060Y294250D01*
X304800Y300228D02*
X305250Y300990D01*
X181356Y300228D02*
X170688Y300228D01*
X167640Y297180D01*
X181356Y300228D02*
X182060Y300990D01*
X306324Y248412D02*
X306324Y243840D01*
X306324Y248412D02*
X315468Y257556D01*
X315468Y292608D01*
X306324Y301752D01*
X306324Y243840D02*
X305250Y243840D01*
X305250Y300990D02*
X306324Y301752D01*
X88392Y182880D02*
X85344Y182880D01*
X88392Y182880D02*
X94488Y176784D01*
X85344Y182880D02*
X84480Y184000D01*
X74676Y284988D02*
X74676Y286512D01*
X74676Y284988D02*
X73152Y283464D01*
X128016Y114300D02*
X132588Y114300D01*
X141732Y123444D01*
X128016Y114300D02*
X127690Y113030D01*
X312420Y182880D02*
X318516Y188976D01*
X352044Y201168D02*
X352044Y204216D01*
X370332Y222504D01*
X370332Y242316D01*
X394716Y266700D01*
X394716Y291084D01*
X388620Y297180D01*
X320040Y297180D01*
X315468Y292608D01*
X352044Y201168D02*
X351790Y201050D01*
X166116Y94488D02*
X161544Y99060D01*
D33*
X455676Y91440D03*
X454152Y182880D03*
X167640Y297180D03*
X237744Y294132D03*
X94488Y176784D03*
X73152Y283464D03*
X71628Y243840D03*
X141732Y123444D03*
X318516Y188976D03*
X161544Y99060D03*
D32*
X38100Y243840D02*
X33528Y243840D01*
X18288Y259080D01*
X38100Y243840D02*
X39370Y242960D01*
X18288Y259080D02*
X17780Y259960D01*
X53340Y230124D02*
X60960Y230124D01*
X42672Y240792D02*
X39624Y243840D01*
X42672Y240792D02*
X53340Y230124D01*
X60960Y230124D02*
X60960Y229480D01*
X39370Y242960D02*
X39624Y243840D01*
X42672Y240792D02*
X60960Y259080D01*
X60960Y259960D01*
X42672Y240792D02*
X39370Y242960D01*
X76200Y292608D02*
X83820Y292608D01*
X76200Y292608D02*
X68580Y300228D01*
X56388Y300228D01*
X53340Y297180D01*
X53340Y268224D01*
X60960Y260604D01*
X83820Y291710D02*
X83820Y292608D01*
X60960Y260604D02*
X60960Y259960D01*
X38100Y182880D02*
X33528Y182880D01*
X18288Y198120D01*
X38100Y182880D02*
X39370Y182000D01*
X18288Y198120D02*
X17780Y199000D01*
X18288Y199644D02*
X18288Y211836D01*
X17780Y212480D01*
X18288Y199644D02*
X17780Y199000D01*
X204216Y263652D02*
X204216Y275844D01*
X204216Y263652D02*
X204470Y262500D01*
X204216Y275844D02*
X204470Y277250D01*
X205740Y263652D02*
X214884Y263652D01*
X225552Y263652D01*
X226060Y262500D01*
X205740Y263652D02*
X204470Y262500D01*
X150876Y262128D02*
X128016Y262128D01*
X150876Y262128D02*
X155448Y257556D01*
X167640Y257556D01*
X214884Y254508D02*
X214884Y263652D01*
X128016Y262128D02*
X127820Y262890D01*
X21336Y213360D02*
X18288Y213360D01*
X21336Y213360D02*
X28956Y220980D01*
X18288Y213360D02*
X17780Y212480D01*
X83820Y291084D02*
X91440Y291084D01*
X99060Y283464D01*
X111252Y283464D01*
X117348Y289560D01*
X117348Y292608D01*
X118872Y294132D01*
X140208Y294132D01*
X152400Y281940D01*
X199644Y281940D01*
X204216Y277368D01*
X83820Y291084D02*
X83820Y291710D01*
X204216Y277368D02*
X204470Y277250D01*
X83820Y118500D02*
X83820Y103750D01*
X83820Y118872D02*
X105156Y118872D01*
X105410Y118500D01*
X83820Y118500D02*
X83820Y118872D01*
X83820Y150876D02*
X105156Y150876D01*
X83820Y150876D02*
X83820Y150250D01*
X105156Y150876D02*
X105410Y150250D01*
X105156Y54864D02*
X83820Y54864D01*
X83820Y55000D01*
X105156Y54864D02*
X105410Y55000D01*
X106680Y56388D02*
X126492Y56388D01*
X127820Y57150D01*
X106680Y56388D02*
X105410Y55000D01*
X83820Y149352D02*
X77724Y149352D01*
X56388Y128016D01*
X56388Y106680D01*
X45720Y96012D01*
X27432Y96012D01*
X19812Y88392D01*
X19812Y80772D01*
X30480Y70104D01*
X70104Y70104D01*
X83820Y56388D01*
X83820Y149352D02*
X83820Y150250D01*
X83820Y56388D02*
X83820Y55000D01*
X79248Y99060D02*
X83820Y103632D01*
X79248Y99060D02*
X77724Y99060D01*
X70104Y91440D01*
X70104Y70104D01*
X83820Y103632D02*
X83820Y103750D01*
X225552Y105156D02*
X225552Y117348D01*
X225552Y105156D02*
X226060Y103750D01*
X225552Y117348D02*
X226060Y118500D01*
X251460Y112776D02*
X254508Y112776D01*
X262128Y120396D01*
X262128Y140208D01*
X259080Y143256D01*
X242316Y143256D01*
X234696Y135636D01*
X234696Y126492D01*
X227076Y118872D01*
X251010Y111760D02*
X251460Y112776D01*
X227076Y118872D02*
X226060Y118500D01*
X121920Y211836D02*
X106680Y211836D01*
X121920Y211836D02*
X126492Y207264D01*
X106680Y211836D02*
X105410Y212480D01*
X126492Y207264D02*
X127820Y207010D01*
X117348Y196596D02*
X103632Y196596D01*
X117348Y196596D02*
X126492Y205740D01*
X103480Y197000D02*
X103632Y196596D01*
X126492Y205740D02*
X127820Y207010D01*
X227076Y199644D02*
X243840Y199644D01*
X249936Y205740D01*
X227076Y199644D02*
X226060Y199000D01*
X249936Y205740D02*
X251010Y205740D01*
X225552Y167640D02*
X205740Y167640D01*
X204470Y167250D01*
X225552Y167640D02*
X226060Y167250D01*
X188976Y182880D02*
X182880Y188976D01*
X188976Y182880D02*
X190500Y182880D01*
X196596Y176784D01*
X196596Y175260D01*
X204216Y167640D01*
X182880Y188976D02*
X182190Y189230D01*
X204216Y167640D02*
X204470Y167250D01*
X217932Y198120D02*
X225552Y198120D01*
X217932Y198120D02*
X210312Y190500D01*
X198120Y190500D01*
X190500Y182880D01*
X225552Y198120D02*
X226060Y199000D01*
X158496Y205740D02*
X128016Y205740D01*
X170688Y193548D02*
X173736Y190500D01*
X170688Y193548D02*
X158496Y205740D01*
X173736Y190500D02*
X181356Y190500D01*
X128016Y205740D02*
X127820Y207010D01*
X181356Y190500D02*
X182190Y189230D01*
X259080Y143256D02*
X262128Y146304D01*
X262128Y166116D01*
X259080Y169164D01*
X228600Y169164D01*
X227076Y167640D01*
X226060Y167250D01*
X131064Y57912D02*
X128016Y57912D01*
X131064Y57912D02*
X155448Y82296D01*
X155448Y178308D01*
X170688Y193548D01*
X128016Y57912D02*
X127820Y57150D01*
X224028Y24384D02*
X225552Y24384D01*
X233172Y24384D01*
X224028Y24384D02*
X219456Y19812D01*
X233172Y24384D02*
X233680Y24520D01*
X219456Y19812D02*
X218440Y19050D01*
X225552Y24384D02*
X225552Y54864D01*
X226060Y55000D01*
X350520Y47244D02*
X371856Y25908D01*
X350520Y47244D02*
X350520Y54864D01*
X371856Y25908D02*
X372110Y24520D01*
X350520Y54864D02*
X349960Y55540D01*
X350520Y56388D02*
X350520Y67056D01*
X350520Y94488D01*
X349860Y95450D01*
X350520Y56388D02*
X349960Y55540D01*
X239268Y68580D02*
X227076Y56388D01*
X239268Y68580D02*
X335280Y68580D01*
X336804Y67056D01*
X350520Y67056D01*
X227076Y56388D02*
X226060Y55000D01*
X251460Y263652D02*
X284988Y263652D01*
X288036Y266700D01*
X251460Y263652D02*
X251010Y262890D01*
X475488Y163068D02*
X475488Y150876D01*
X475488Y163068D02*
X470916Y167640D01*
X475488Y150876D02*
X476250Y150740D01*
X470916Y167640D02*
X469580Y167640D01*
X473964Y85344D02*
X463296Y85344D01*
X473964Y85344D02*
X475320Y85800D01*
X409956Y158496D02*
X417576Y166116D01*
X409956Y158496D02*
X393192Y158496D01*
X388620Y163068D02*
X384048Y167640D01*
X388620Y163068D02*
X393192Y158496D01*
X417576Y166116D02*
X418220Y166370D01*
X384048Y167640D02*
X382590Y167640D01*
X388620Y163068D02*
X376428Y150876D01*
X375480Y149860D01*
X329184Y196596D02*
X329184Y199644D01*
X329184Y196596D02*
X329184Y187452D01*
X328930Y186300D01*
X329184Y199644D02*
X328930Y201050D01*
X344424Y135636D02*
X348996Y135636D01*
X344424Y135636D02*
X332232Y135636D01*
X348996Y135636D02*
X350520Y137160D01*
X332232Y135636D02*
X331470Y135050D01*
X350520Y137160D02*
X351790Y137550D01*
X344424Y163068D02*
X350520Y169164D01*
X344424Y163068D02*
X344424Y135636D01*
X350520Y169164D02*
X351790Y169300D01*
X327660Y182880D02*
X327660Y185928D01*
X327660Y182880D02*
X321564Y176784D01*
X321564Y144780D01*
X330708Y135636D01*
X327660Y185928D02*
X328930Y186300D01*
X330708Y135636D02*
X331470Y135050D01*
X362712Y149352D02*
X374904Y149352D01*
X362712Y149352D02*
X352044Y138684D01*
X374904Y149352D02*
X375480Y149860D01*
X352044Y138684D02*
X351790Y137550D01*
X466344Y167640D02*
X469580Y167640D01*
X466344Y167640D02*
X457200Y176784D01*
X428244Y176784D01*
X419100Y167640D01*
X418220Y166370D01*
X402336Y202692D02*
X402336Y210312D01*
X402336Y202692D02*
X428244Y176784D01*
X402336Y210312D02*
X402220Y210820D01*
X408432Y217932D02*
X408432Y278892D01*
X408432Y217932D02*
X402336Y211836D01*
X408432Y278892D02*
X408940Y279400D01*
X402336Y211836D02*
X402220Y210820D01*
X348996Y108204D02*
X348996Y96012D01*
X348996Y108204D02*
X344424Y112776D01*
X344424Y135636D01*
X348996Y96012D02*
X349860Y95450D01*
X266700Y205740D02*
X251010Y205740D01*
X266700Y205740D02*
X275844Y196596D01*
X329184Y196596D01*
X328930Y201050D01*
D33*
X167640Y257556D03*
X214884Y254508D03*
X28956Y220980D03*
X158496Y205740D03*
X288036Y266700D03*
X463296Y85344D03*
D32*
X83820Y166116D02*
X42672Y166116D01*
X38100Y161544D01*
X83820Y166116D02*
X83820Y167250D01*
X38100Y161544D02*
X38100Y161290D01*
X128016Y219456D02*
X134112Y219456D01*
X140208Y213360D01*
X128016Y219456D02*
X127820Y219710D01*
X128016Y288036D02*
X141732Y288036D01*
X160020Y269748D01*
X128016Y288036D02*
X127820Y288290D01*
X19812Y109728D02*
X19812Y97536D01*
X19812Y109728D02*
X13716Y115824D01*
X13716Y135636D01*
X38100Y160020D01*
X38100Y161290D01*
D33*
X140208Y213360D03*
X160020Y269748D03*
X19812Y97536D03*
D32*
X106680Y71628D02*
X124968Y71628D01*
X126492Y70104D01*
X106680Y71628D02*
X105410Y72000D01*
X126492Y70104D02*
X127820Y69850D01*
X105156Y71628D02*
X94488Y60960D01*
X105156Y71628D02*
X105410Y72000D01*
X251460Y288036D02*
X274320Y288036D01*
X251460Y288036D02*
X251010Y288290D01*
D33*
X94488Y60960D03*
X274320Y288036D03*
D32*
X265176Y217932D02*
X251460Y217932D01*
X265176Y231648D02*
X265176Y234696D01*
X294132Y263652D01*
X294132Y266700D01*
X301752Y274320D01*
X304800Y274320D01*
X251010Y218440D02*
X251460Y217932D01*
X304800Y274320D02*
X305250Y275590D01*
X124968Y135636D02*
X106680Y135636D01*
X124968Y135636D02*
X126492Y137160D01*
X106680Y135636D02*
X105410Y135500D01*
X126492Y137160D02*
X127690Y138430D01*
X105156Y134112D02*
X97536Y134112D01*
X89916Y126492D01*
X77724Y126492D01*
X59436Y108204D01*
X59436Y105156D01*
X38100Y83820D01*
X105156Y134112D02*
X105410Y135500D01*
X38100Y85090D02*
X38100Y83820D01*
X131064Y138684D02*
X141732Y149352D01*
X131064Y138684D02*
X128016Y138684D01*
X127690Y138430D01*
D33*
X265176Y217932D03*
X265176Y231648D03*
X141732Y149352D03*
D32*
X83820Y134112D02*
X71628Y134112D01*
X134112Y132588D02*
X141732Y132588D01*
X134112Y132588D02*
X128016Y126492D01*
X83820Y134112D02*
X83820Y135500D01*
X127690Y125730D02*
X128016Y126492D01*
X65532Y59436D02*
X38100Y59436D01*
X65532Y59436D02*
X86868Y38100D01*
X97536Y38100D01*
X38100Y59436D02*
X38100Y59690D01*
X97536Y38100D02*
X97790Y36830D01*
X106680Y45720D02*
X114300Y45720D01*
X106680Y45720D02*
X97790Y36830D01*
D33*
X71628Y134112D03*
X141732Y132588D03*
X114300Y45720D03*
D32*
X332232Y243840D02*
X332232Y278892D01*
X332232Y243840D02*
X324612Y236220D01*
X332232Y278892D02*
X332740Y279400D01*
X324612Y236220D02*
X323850Y234950D01*
X105156Y166116D02*
X97536Y166116D01*
X89916Y158496D01*
X59436Y158496D01*
X38100Y137160D01*
X105156Y166116D02*
X105410Y167250D01*
X167640Y205740D02*
X181356Y205740D01*
X182060Y207010D01*
X182880Y274320D02*
X185928Y274320D01*
X193548Y266700D01*
X193548Y252984D01*
X182880Y274320D02*
X182060Y275590D01*
X38100Y137160D02*
X19812Y118872D01*
X38100Y135890D02*
X38100Y137160D01*
D33*
X167640Y205740D03*
X193548Y252984D03*
X19812Y118872D03*
D32*
X39624Y199644D02*
X39624Y211836D01*
X39624Y199644D02*
X39370Y199000D01*
X39624Y211836D02*
X39370Y212480D01*
X121920Y231648D02*
X126492Y231648D01*
X121920Y231648D02*
X111252Y220980D01*
X94488Y220980D01*
X50292Y190500D02*
X47244Y190500D01*
X39624Y198120D01*
X126492Y231648D02*
X127820Y232410D01*
X39370Y199000D02*
X39624Y198120D01*
D33*
X94488Y220980D03*
X50292Y190500D03*
D32*
X60960Y201168D02*
X60960Y212480D01*
X60960Y201168D02*
X60960Y199000D01*
X150876Y219456D02*
X181356Y219456D01*
X150876Y219456D02*
X141732Y228600D01*
X73152Y201168D02*
X60960Y201168D01*
X181356Y219456D02*
X182060Y219710D01*
D33*
X141732Y228600D03*
X73152Y201168D03*
D32*
X128016Y245364D02*
X149352Y245364D01*
X152400Y248412D01*
X164592Y248412D01*
X181356Y231648D01*
X128016Y245364D02*
X127820Y245110D01*
X181356Y231648D02*
X182060Y232410D01*
X94488Y201168D02*
X92964Y202692D01*
X83820Y211836D01*
X94488Y201168D02*
X94488Y187452D01*
X97536Y184404D01*
X102108Y184404D01*
X83820Y211836D02*
X83820Y212480D01*
X102108Y184404D02*
X103480Y184000D01*
X147828Y115824D02*
X128016Y96012D01*
X147828Y115824D02*
X147828Y182880D01*
X141732Y188976D01*
X114300Y202692D02*
X92964Y202692D01*
X128016Y96012D02*
X127820Y95250D01*
X149352Y233172D02*
X149352Y245364D01*
X149352Y233172D02*
X156972Y225552D01*
D33*
X141732Y188976D03*
X114300Y202692D03*
X156972Y225552D03*
D32*
X105156Y86868D02*
X83820Y86868D01*
X83820Y86750D01*
X105156Y86868D02*
X105410Y86750D01*
X108204Y83820D02*
X126492Y83820D01*
X108204Y83820D02*
X106680Y85344D01*
X126492Y83820D02*
X127820Y82550D01*
X106680Y85344D02*
X105410Y86750D01*
X205740Y86868D02*
X225552Y86868D01*
X205740Y86868D02*
X204470Y86750D01*
X225552Y86868D02*
X226060Y86750D01*
X187452Y70104D02*
X182880Y70104D01*
X187452Y70104D02*
X204216Y86868D01*
X182880Y70104D02*
X182060Y69850D01*
X204216Y86868D02*
X204470Y86750D01*
X205740Y73152D02*
X225552Y73152D01*
X205740Y73152D02*
X204470Y72000D01*
X225552Y73152D02*
X226060Y72000D01*
X190500Y57912D02*
X182880Y57912D01*
X190500Y57912D02*
X204216Y71628D01*
X182880Y57912D02*
X182060Y57150D01*
X204216Y71628D02*
X204470Y72000D01*
X204216Y118872D02*
X204216Y121920D01*
X196596Y129540D01*
X196596Y156972D01*
X198120Y158496D01*
X246888Y158496D01*
X249936Y161544D01*
X204216Y118872D02*
X204470Y118500D01*
X249936Y161544D02*
X251010Y162560D01*
X181356Y82296D02*
X167640Y82296D01*
X170688Y103632D02*
X185928Y103632D01*
X188976Y106680D01*
X193548Y106680D01*
X204216Y117348D01*
X182060Y82550D02*
X181356Y82296D01*
X204216Y117348D02*
X204470Y118500D01*
X291084Y231648D02*
X304800Y231648D01*
X305250Y231140D01*
D33*
X167640Y82296D03*
X170688Y103632D03*
X291084Y231648D03*
D32*
X109728Y190500D02*
X103480Y190500D01*
X109728Y190500D02*
X117348Y182880D01*
X117348Y158496D01*
X123444Y152400D01*
X126492Y152400D01*
X127690Y151130D01*
X254508Y53340D02*
X254508Y42672D01*
X255270Y41520D01*
X112776Y292608D02*
X106680Y292608D01*
X112776Y292608D02*
X120396Y300228D01*
X126492Y300228D01*
X106680Y292608D02*
X105410Y291710D01*
X126492Y300228D02*
X127820Y300990D01*
X149352Y289560D02*
X181356Y289560D01*
X149352Y289560D02*
X138684Y300228D01*
X128016Y300228D01*
X181356Y289560D02*
X182060Y288290D01*
X128016Y300228D02*
X127820Y300990D01*
X198120Y301752D02*
X217932Y301752D01*
X249936Y301752D01*
X198120Y301752D02*
X185928Y289560D01*
X182880Y289560D01*
X249936Y301752D02*
X251010Y300990D01*
X182880Y289560D02*
X182060Y288290D01*
X283464Y288036D02*
X304800Y288036D01*
X283464Y288036D02*
X277368Y281940D01*
X265176Y281940D02*
X236220Y281940D01*
X265176Y281940D02*
X277368Y281940D01*
X236220Y281940D02*
X231648Y286512D01*
X219456Y286512D01*
X217932Y288036D01*
X217932Y301752D01*
X304800Y288036D02*
X305250Y288290D01*
X169164Y182880D02*
X169164Y132588D01*
X265176Y278892D02*
X265176Y281940D01*
D33*
X254508Y53340D03*
X169164Y132588D03*
X169164Y182880D03*
X265176Y278892D03*
D32*
X339852Y94488D02*
X339852Y91440D01*
X335280Y86868D01*
X326136Y86868D01*
X321564Y91440D01*
X321564Y92964D01*
X320040Y94488D01*
X254508Y94488D01*
X252984Y92964D02*
X248412Y88392D01*
X252984Y92964D02*
X254508Y94488D01*
X339852Y94488D02*
X340360Y95450D01*
X248412Y88392D02*
X247900Y87630D01*
X243840Y131064D02*
X249936Y137160D01*
X243840Y131064D02*
X242316Y131064D01*
X240792Y129540D01*
X240792Y105156D01*
X242316Y103632D02*
X252984Y92964D01*
X242316Y103632D02*
X240792Y105156D01*
X249936Y137160D02*
X251010Y137160D01*
X161544Y70104D02*
X129540Y38100D01*
X161544Y70104D02*
X161544Y85344D01*
X164592Y88392D01*
X192024Y88392D01*
X199644Y96012D01*
X234696Y96012D01*
X242316Y103632D01*
X129540Y38100D02*
X129540Y36830D01*
X105156Y230124D02*
X105156Y242316D01*
X105156Y230124D02*
X105410Y229480D01*
X105156Y242316D02*
X105410Y242960D01*
X237744Y275844D02*
X249936Y275844D01*
X138684Y254508D02*
X118872Y254508D01*
X106680Y242316D01*
X249936Y275844D02*
X251010Y275590D01*
X106680Y242316D02*
X105410Y242960D01*
D33*
X237744Y275844D03*
X138684Y254508D03*
D32*
X358140Y251460D02*
X358140Y279400D01*
X358140Y251460D02*
X341630Y234950D01*
X339852Y38100D02*
X327660Y38100D01*
X339852Y38100D02*
X340360Y37170D01*
D33*
X327660Y38100D03*
D32*
X321564Y77724D02*
X339852Y77724D01*
X321564Y77724D02*
X312420Y86868D01*
X339852Y77724D02*
X340360Y76540D01*
X312420Y86868D02*
X310900Y87630D01*
X297180Y42672D02*
X277368Y42672D01*
X276860Y41520D01*
X297180Y42672D02*
X298450Y41520D01*
X310896Y54864D02*
X310896Y60960D01*
X310896Y54864D02*
X298704Y42672D01*
X310896Y60960D02*
X310900Y62230D01*
X298704Y42672D02*
X298450Y41520D01*
X298704Y25908D02*
X307848Y25908D01*
X312420Y30480D01*
X318516Y30480D02*
X320040Y30480D01*
X318516Y30480D02*
X312420Y30480D01*
X320040Y30480D02*
X330708Y19812D01*
X330708Y16764D01*
X298450Y24520D02*
X298704Y25908D01*
X330708Y16764D02*
X330760Y16170D01*
X318516Y30480D02*
X318516Y33528D01*
D33*
X318516Y33528D03*
D32*
X262128Y24384D02*
X256032Y24384D01*
X262128Y24384D02*
X269748Y16764D01*
X283464Y16764D01*
X289560Y22860D01*
X289560Y30480D01*
X292608Y33528D01*
X309372Y33528D01*
X330708Y54864D01*
X256032Y24384D02*
X255270Y24520D01*
X330708Y54864D02*
X330760Y55540D01*
X234696Y48768D02*
X234696Y42672D01*
X234696Y48768D02*
X246888Y60960D01*
X234696Y42672D02*
X233680Y41520D01*
X246888Y60960D02*
X247900Y62230D01*
X463296Y38100D02*
X473964Y38100D01*
X475320Y39370D01*
D33*
X463296Y38100D03*
D32*
X454320Y76200D02*
X445008Y76200D01*
X434340Y86868D01*
X434090Y87630D01*
X434340Y25908D02*
X429768Y25908D01*
X414528Y41148D01*
X434340Y25908D02*
X434340Y24520D01*
X414528Y41148D02*
X414020Y41520D01*
X414528Y42672D02*
X432816Y60960D01*
X434090Y62230D01*
X414528Y42672D02*
X414020Y41520D01*
X434340Y42672D02*
X448056Y42672D01*
X454152Y48768D01*
X434340Y42672D02*
X434340Y41520D01*
X454152Y48768D02*
X454320Y48970D01*
X399288Y42672D02*
X393192Y42672D01*
X399288Y42672D02*
X425196Y68580D01*
X472440Y68580D01*
X473964Y67056D01*
X393192Y42672D02*
X392430Y41520D01*
X473964Y67056D02*
X475320Y66600D01*
X371856Y60960D02*
X371856Y42672D01*
X372110Y41520D01*
X371856Y60960D02*
X371090Y62230D01*
X382524Y35052D02*
X391668Y25908D01*
X382524Y80772D02*
X382524Y91440D01*
X382524Y80772D02*
X382524Y35052D01*
X382524Y91440D02*
X371856Y102108D01*
X365760Y102108D01*
X361188Y106680D01*
X361188Y137160D01*
X367284Y143256D01*
X384048Y143256D01*
X385572Y141732D01*
X385572Y132588D01*
X376428Y123444D01*
X391668Y25908D02*
X392430Y24520D01*
X376428Y123444D02*
X375480Y124460D01*
X448056Y134112D02*
X455676Y134112D01*
X448056Y134112D02*
X438912Y143256D01*
X384048Y143256D01*
X455676Y134112D02*
X455930Y133740D01*
X359664Y83820D02*
X356616Y83820D01*
X359664Y83820D02*
X362712Y80772D01*
X382524Y80772D01*
D33*
X356616Y83820D03*
D32*
X330708Y96012D02*
X330708Y108204D01*
X265176Y243840D02*
X251010Y243840D01*
X330708Y96012D02*
X330860Y95450D01*
D33*
X330708Y108204D03*
X265176Y243840D03*
D32*
X350520Y120396D02*
X350520Y111252D01*
X370332Y91440D01*
X370332Y88392D01*
X350520Y120396D02*
X349860Y120450D01*
X370332Y88392D02*
X371090Y87630D01*
X434340Y123444D02*
X445008Y112776D01*
X455676Y102108D01*
X434340Y123444D02*
X429768Y123444D01*
X455676Y102108D02*
X455930Y101990D01*
X429768Y123444D02*
X429700Y124460D01*
X469392Y134112D02*
X475488Y134112D01*
X469392Y134112D02*
X460248Y143256D01*
X448056Y143256D01*
X445008Y146304D01*
X475488Y134112D02*
X476250Y133740D01*
X374904Y137160D02*
X368808Y131064D01*
X367284Y131064D01*
X364236Y128016D01*
X364236Y108204D01*
X367284Y105156D01*
X408432Y105156D01*
X428244Y124968D01*
X375480Y137160D02*
X374904Y137160D01*
X428244Y124968D02*
X429700Y124460D01*
D33*
X445008Y146304D03*
X445008Y112776D03*
D32*
X457200Y118872D02*
X475488Y118872D01*
X457200Y118872D02*
X455930Y118990D01*
X475488Y118872D02*
X476250Y118990D01*
X403860Y112776D02*
X376428Y112776D01*
X403860Y112776D02*
X428244Y137160D01*
X376428Y112776D02*
X375480Y111760D01*
X428244Y137160D02*
X429700Y137160D01*
X448056Y120396D02*
X455676Y120396D01*
X448056Y120396D02*
X431292Y137160D01*
X429700Y137160D01*
X455676Y120396D02*
X455930Y118990D01*
X382524Y259080D02*
X382524Y278892D01*
X382524Y259080D02*
X359664Y236220D01*
X382524Y278892D02*
X383540Y279400D01*
X359664Y236220D02*
X359410Y234950D01*
X204216Y231648D02*
X204216Y245364D01*
X204216Y231648D02*
X204470Y230750D01*
X204216Y245364D02*
X204470Y245500D01*
X297180Y205740D02*
X305250Y205740D01*
X297180Y205740D02*
X289560Y213360D01*
X237744Y219456D02*
X234696Y219456D01*
X231648Y222504D01*
X213360Y222504D01*
X205740Y230124D01*
X204470Y230750D01*
D33*
X289560Y213360D03*
X237744Y219456D03*
D32*
X225552Y231648D02*
X225552Y245364D01*
X225552Y231648D02*
X226060Y230750D01*
X225552Y245364D02*
X226060Y245500D01*
X272796Y219456D02*
X304800Y219456D01*
X272796Y219456D02*
X266700Y225552D01*
X231648Y225552D01*
X227076Y230124D01*
X304800Y219456D02*
X305250Y218440D01*
X227076Y230124D02*
X226060Y230750D01*
X225552Y277368D02*
X222504Y277368D01*
X205740Y294132D01*
X225552Y277368D02*
X226060Y277250D01*
X205740Y294132D02*
X204470Y294250D01*
X243840Y237744D02*
X249936Y231648D01*
X243840Y237744D02*
X242316Y237744D01*
X234696Y245364D01*
X234696Y268224D01*
X227076Y275844D01*
X249936Y231648D02*
X251010Y231140D01*
X227076Y275844D02*
X226060Y277250D01*
X225552Y182880D02*
X205740Y182880D01*
X204470Y182000D01*
X225552Y182880D02*
X226060Y182000D01*
X251460Y182880D02*
X251460Y187452D01*
X251460Y182880D02*
X251460Y175260D01*
X251010Y175260D01*
X251460Y187452D02*
X251010Y187960D01*
X251460Y182880D02*
X227076Y182880D01*
X226060Y182000D01*
X204216Y199644D02*
X192024Y211836D01*
X192024Y224028D01*
X190500Y225552D01*
X172212Y225552D01*
X155448Y242316D01*
X79248Y192024D02*
X73152Y192024D01*
X79248Y192024D02*
X83820Y196596D01*
X204216Y199644D02*
X204470Y199000D01*
X84480Y197000D02*
X83820Y196596D01*
D33*
X155448Y242316D03*
X73152Y192024D03*
D32*
X329184Y217932D02*
X350520Y217932D01*
X329184Y217932D02*
X328930Y218050D01*
X350520Y217932D02*
X351790Y218050D01*
X304800Y257556D02*
X304800Y262128D01*
X304800Y257556D02*
X284988Y237744D01*
X284988Y228600D01*
X289560Y224028D01*
X323088Y224028D01*
X327660Y219456D01*
X304800Y262128D02*
X305250Y262890D01*
X327660Y219456D02*
X328930Y218050D01*
X50292Y260604D02*
X39624Y260604D01*
X62484Y274320D02*
X71628Y265176D01*
X39624Y260604D02*
X39370Y259960D01*
X62230Y274710D02*
X62484Y274320D01*
X128016Y275844D02*
X141732Y275844D01*
X128016Y275844D02*
X127820Y275590D01*
D33*
X50292Y260604D03*
X71628Y265176D03*
X141732Y275844D03*
D32*
X83820Y274710D02*
X83820Y259960D01*
X153924Y263652D02*
X181356Y263652D01*
X153924Y263652D02*
X147828Y269748D01*
X120396Y269748D01*
X114300Y263652D01*
X114300Y254508D01*
X111252Y251460D01*
X91440Y251460D01*
X83820Y259080D01*
X181356Y263652D02*
X182060Y262890D01*
X83820Y259960D02*
X83820Y259080D01*
M02*
