G04 EAGLE Gerber RS-274X export*
G75*
%MOMM*%
%FSLAX34Y34*%
%LPD*%
%INBottom Copper*%
%IPPOS*%
%AMOC8*
5,1,8,0,0,1.08239X$1,22.5*%
G01*
%ADD10P,1.732040X8X22.500000*%
%ADD11R,1.258000X1.258000*%
%ADD12C,1.258000*%
%ADD13C,1.508000*%
%ADD14P,1.649562X8X22.500000*%
%ADD15P,1.649562X8X112.500000*%
%ADD16P,1.649562X8X202.500000*%
%ADD17C,0.152400*%
%ADD18C,0.756400*%


D10*
X205740Y38100D03*
X316230Y19050D03*
X180340Y36830D03*
D11*
X402590Y167640D03*
D12*
X382590Y167640D03*
D11*
X449580Y167640D03*
D12*
X469580Y167640D03*
D13*
X45640Y59690D02*
X30560Y59690D01*
X30560Y85090D02*
X45640Y85090D01*
X45640Y110490D02*
X30560Y110490D01*
X30560Y135890D02*
X45640Y135890D01*
X45640Y161290D02*
X30560Y161290D01*
D10*
X323850Y234950D03*
X359410Y234950D03*
X341630Y234950D03*
D13*
X332740Y271860D02*
X332740Y286940D01*
X358140Y286940D02*
X358140Y271860D01*
X383540Y271860D02*
X383540Y286940D01*
X408940Y286940D02*
X408940Y271860D01*
X434340Y271860D02*
X434340Y286940D01*
D14*
X59690Y19050D03*
X85090Y19050D03*
X72390Y36830D03*
X97790Y36830D03*
X110490Y20320D03*
D15*
X129540Y36830D03*
X142240Y19050D03*
X154940Y36830D03*
X167640Y19050D03*
D16*
X218440Y19050D03*
X193040Y19050D03*
D17*
X283464Y62484D02*
X297180Y62484D01*
X342900Y108204D02*
X402336Y167640D01*
X342900Y108204D02*
X297180Y62484D01*
X402336Y167640D02*
X402590Y167640D01*
X361188Y79248D02*
X361188Y27432D01*
X361188Y79248D02*
X362712Y80772D01*
X362712Y88392D01*
X342900Y108204D01*
X429768Y193548D02*
X437388Y193548D01*
X429768Y193548D02*
X403860Y167640D01*
X402590Y167640D01*
D18*
X283464Y62484D03*
X361188Y27432D03*
X437388Y193548D03*
D17*
X455676Y161544D02*
X455676Y91440D01*
X455676Y161544D02*
X449580Y167640D01*
X454152Y172212D02*
X454152Y182880D01*
X454152Y172212D02*
X449580Y167640D01*
X234696Y297180D02*
X167640Y297180D01*
X234696Y297180D02*
X237744Y294132D01*
X147828Y176784D02*
X135636Y176784D01*
X94488Y176784D01*
X147828Y176784D02*
X243840Y272796D01*
X243840Y284988D02*
X243840Y288036D01*
X243840Y284988D02*
X243840Y272796D01*
X243840Y288036D02*
X237744Y294132D01*
X153924Y283464D02*
X147828Y283464D01*
X73152Y283464D01*
X153924Y283464D02*
X167640Y297180D01*
X92964Y243840D02*
X71628Y243840D01*
X92964Y243840D02*
X118872Y269748D01*
X144780Y269748D01*
X147828Y272796D01*
X147828Y283464D01*
X147828Y129540D02*
X141732Y123444D01*
X147828Y129540D02*
X147828Y135636D01*
X140208Y143256D01*
X138684Y143256D01*
X135636Y146304D01*
X135636Y176784D01*
X318516Y199644D02*
X318516Y225552D01*
X318516Y199644D02*
X318516Y188976D01*
X318516Y225552D02*
X271272Y272796D01*
X271272Y281940D01*
X268224Y284988D01*
X243840Y284988D01*
X454152Y185928D02*
X454152Y182880D01*
X454152Y185928D02*
X440436Y199644D01*
X318516Y199644D01*
X161544Y103632D02*
X161544Y99060D01*
X161544Y103632D02*
X141732Y123444D01*
D18*
X455676Y91440D03*
X454152Y182880D03*
X167640Y297180D03*
X237744Y294132D03*
X94488Y176784D03*
X73152Y283464D03*
X71628Y243840D03*
X141732Y123444D03*
X318516Y188976D03*
X161544Y99060D03*
D17*
X167640Y257556D02*
X188976Y257556D01*
X190500Y259080D01*
X210312Y259080D01*
X214884Y254508D01*
X74676Y220980D02*
X28956Y220980D01*
X74676Y220980D02*
X102108Y248412D01*
X141732Y248412D01*
X153924Y260604D01*
X153924Y272796D01*
X156972Y275844D01*
X163068Y275844D01*
X167640Y271272D01*
X167640Y257556D01*
X167640Y214884D01*
X158496Y205740D01*
X288036Y266700D02*
X323088Y266700D01*
X329184Y260604D01*
X390144Y260604D01*
X408940Y279400D01*
X463296Y161544D02*
X463296Y85344D01*
X463296Y161544D02*
X469392Y167640D01*
X469580Y167640D01*
D18*
X167640Y257556D03*
X214884Y254508D03*
X28956Y220980D03*
X158496Y205740D03*
X288036Y266700D03*
X463296Y85344D03*
D17*
X140208Y213360D02*
X105156Y213360D01*
X53340Y161544D01*
X38100Y161544D01*
X38100Y161290D01*
X160020Y246888D02*
X160020Y269748D01*
X160020Y246888D02*
X161544Y245364D01*
X161544Y239268D01*
X140208Y217932D01*
X140208Y213360D01*
X59436Y60960D02*
X59436Y19812D01*
X59436Y60960D02*
X45720Y74676D01*
X25908Y74676D01*
X19812Y80772D01*
X19812Y97536D01*
X59436Y19812D02*
X59690Y19050D01*
D18*
X140208Y213360D03*
X160020Y269748D03*
X19812Y97536D03*
D17*
X94488Y60960D02*
X94488Y54864D01*
X109728Y39624D01*
X109728Y21336D01*
X110490Y20320D01*
X252984Y288036D02*
X274320Y288036D01*
X252984Y288036D02*
X237744Y303276D01*
X83820Y303276D01*
X19812Y239268D01*
X19812Y129540D01*
X38100Y111252D01*
X88392Y60960D02*
X94488Y60960D01*
X88392Y60960D02*
X38100Y111252D01*
X38100Y110490D01*
D18*
X94488Y60960D03*
X274320Y288036D03*
D17*
X265176Y231648D02*
X265176Y217932D01*
X71628Y53340D02*
X71628Y38100D01*
X71628Y53340D02*
X41148Y83820D01*
X38100Y83820D01*
X71628Y38100D02*
X72390Y36830D01*
X38100Y83820D02*
X38100Y85090D01*
X245364Y217932D02*
X265176Y217932D01*
X245364Y217932D02*
X176784Y149352D01*
X141732Y149352D01*
D18*
X265176Y217932D03*
X265176Y231648D03*
X141732Y149352D03*
D17*
X140208Y134112D02*
X114300Y134112D01*
X71628Y134112D01*
X140208Y134112D02*
X141732Y132588D01*
X114300Y134112D02*
X114300Y45720D01*
D18*
X71628Y134112D03*
X141732Y132588D03*
X114300Y45720D03*
D17*
X144780Y182880D02*
X167640Y205740D01*
X144780Y182880D02*
X83820Y182880D01*
X38100Y137160D01*
X38100Y135890D01*
X193548Y231648D02*
X193548Y252984D01*
X193548Y231648D02*
X167640Y205740D01*
X83820Y60960D02*
X83820Y19812D01*
X83820Y60960D02*
X44196Y100584D01*
X25908Y100584D01*
X19812Y106680D01*
X19812Y118872D01*
X83820Y19812D02*
X85090Y19050D01*
D18*
X167640Y205740D03*
X193548Y252984D03*
X19812Y118872D03*
D17*
X79248Y220980D02*
X94488Y220980D01*
X79248Y220980D02*
X50292Y192024D01*
X50292Y190500D01*
D18*
X94488Y220980D03*
X50292Y190500D03*
D17*
X115824Y228600D02*
X141732Y228600D01*
X115824Y228600D02*
X88392Y201168D01*
X73152Y201168D01*
D18*
X141732Y228600D03*
X73152Y201168D03*
D17*
X128016Y188976D02*
X141732Y188976D01*
X128016Y188976D02*
X114300Y202692D01*
X156972Y213360D02*
X156972Y225552D01*
X156972Y213360D02*
X141732Y198120D01*
X141732Y188976D01*
D18*
X141732Y188976D03*
X114300Y202692D03*
X156972Y225552D03*
D17*
X167640Y100584D02*
X167640Y82296D01*
X167640Y100584D02*
X170688Y103632D01*
X291084Y220980D02*
X291084Y231648D01*
X291084Y220980D02*
X295656Y216408D01*
X295656Y210312D01*
X224028Y138684D01*
X166116Y138684D01*
X163068Y135636D01*
X163068Y111252D01*
X170688Y103632D01*
D18*
X167640Y82296D03*
X170688Y103632D03*
X291084Y231648D03*
D17*
X176784Y53340D02*
X156972Y53340D01*
X176784Y53340D02*
X254508Y53340D01*
X156972Y53340D02*
X143256Y39624D01*
X143256Y19812D01*
X142240Y19050D01*
X176784Y53340D02*
X176784Y124968D01*
X169164Y132588D01*
X169164Y182880D02*
X265176Y278892D01*
D18*
X254508Y53340D03*
X169164Y132588D03*
X169164Y182880D03*
X265176Y278892D03*
D17*
X237744Y275844D02*
X167640Y275844D01*
X164592Y278892D01*
X155448Y278892D01*
X150876Y274320D01*
X150876Y266700D01*
X138684Y254508D01*
D18*
X237744Y275844D03*
X138684Y254508D03*
D17*
X323088Y38100D02*
X327660Y38100D01*
X323088Y38100D02*
X321564Y39624D01*
X207264Y39624D01*
X205740Y38100D01*
X181356Y38100D01*
X180340Y36830D01*
D18*
X327660Y38100D03*
D17*
X318516Y33528D02*
X216408Y33528D01*
X210312Y27432D01*
X199644Y27432D01*
X198120Y28956D01*
X187452Y28956D01*
X178308Y19812D01*
X167640Y19812D01*
X167640Y19050D01*
D18*
X318516Y33528D03*
D17*
X381000Y38100D02*
X463296Y38100D01*
X381000Y38100D02*
X362712Y19812D01*
X316992Y19812D01*
X316230Y19050D01*
D18*
X463296Y38100D03*
D17*
X166116Y38100D02*
X155448Y38100D01*
X166116Y38100D02*
X176784Y48768D01*
X249936Y48768D01*
X251460Y47244D01*
X320040Y47244D01*
X356616Y83820D01*
X155448Y38100D02*
X154940Y36830D01*
D18*
X356616Y83820D03*
D17*
X330708Y108204D02*
X330708Y167640D01*
X298704Y199644D01*
X298704Y233172D01*
X288036Y243840D01*
X265176Y243840D01*
D18*
X330708Y108204D03*
X265176Y243840D03*
D17*
X445008Y146304D02*
X445008Y112776D01*
D18*
X445008Y146304D03*
X445008Y112776D03*
D17*
X289560Y213360D02*
X289560Y216408D01*
X268224Y237744D01*
X256032Y237744D01*
X237744Y219456D01*
D18*
X289560Y213360D03*
X237744Y219456D03*
D17*
X155448Y242316D02*
X124968Y242316D01*
X89916Y207264D01*
X70104Y207264D01*
X67056Y204216D01*
X67056Y198120D01*
X73152Y192024D01*
D18*
X155448Y242316D03*
X73152Y192024D03*
D17*
X67056Y260604D02*
X50292Y260604D01*
X67056Y260604D02*
X71628Y265176D01*
X82296Y275844D02*
X141732Y275844D01*
X82296Y275844D02*
X71628Y265176D01*
D18*
X50292Y260604D03*
X71628Y265176D03*
X141732Y275844D03*
M02*
