G04 EAGLE Gerber RS-274X export*
G75*
%MOMM*%
%FSLAX34Y34*%
%LPD*%
%INSoldermask Top*%
%IPPOS*%
%AMOC8*
5,1,8,0,0,1.08239X$1,22.5*%
G01*
%ADD10C,3.403200*%
%ADD11P,1.951982X8X22.500000*%
%ADD12R,1.461200X1.461200*%
%ADD13C,1.461200*%
%ADD14R,1.203200X1.303200*%
%ADD15R,1.303200X1.203200*%
%ADD16C,1.711200*%
%ADD17R,1.003200X1.003200*%
%ADD18R,1.728200X0.853200*%
%ADD19R,0.803200X1.403200*%
%ADD20R,1.853200X0.853200*%
%ADD21R,1.731200X0.853200*%
%ADD22R,2.303200X1.203200*%
%ADD23R,6.053200X5.103200*%
%ADD24R,1.753200X0.903200*%
%ADD25R,1.403200X0.603200*%
%ADD26R,0.853200X1.303200*%
%ADD27R,0.853200X1.403200*%
%ADD28R,1.303200X0.853200*%
%ADD29R,1.403200X0.853200*%
%ADD30P,1.869504X8X22.500000*%
%ADD31P,1.869504X8X112.500000*%
%ADD32P,1.869504X8X202.500000*%
%ADD33C,0.959600*%


D10*
X25400Y25400D03*
X469900Y292100D03*
X25400Y292100D03*
D11*
X205740Y38100D03*
X316230Y19050D03*
X180340Y36830D03*
D12*
X402590Y167640D03*
D13*
X382590Y167640D03*
D14*
X328930Y169300D03*
X328930Y186300D03*
X60960Y242960D03*
X60960Y259960D03*
X351790Y186300D03*
X351790Y169300D03*
X476250Y133740D03*
X476250Y150740D03*
X17780Y229480D03*
X17780Y212480D03*
X17780Y182000D03*
X17780Y199000D03*
X351790Y154550D03*
X351790Y137550D03*
D15*
X435220Y166370D03*
X418220Y166370D03*
D12*
X449580Y167640D03*
D13*
X469580Y167640D03*
D14*
X83820Y55000D03*
X83820Y72000D03*
X204470Y167250D03*
X204470Y150250D03*
X226060Y72000D03*
X226060Y55000D03*
X226060Y135500D03*
X226060Y118500D03*
X17780Y242960D03*
X17780Y259960D03*
D16*
X30560Y59690D02*
X45640Y59690D01*
X45640Y85090D02*
X30560Y85090D01*
X30560Y110490D02*
X45640Y110490D01*
X45640Y135890D02*
X30560Y135890D01*
X30560Y161290D02*
X45640Y161290D01*
D17*
X331470Y135050D03*
X331470Y157050D03*
D18*
X127820Y245110D03*
X127820Y232410D03*
X127820Y219710D03*
X127820Y207010D03*
X182060Y207010D03*
X182060Y219710D03*
X182060Y232410D03*
X182060Y245110D03*
D19*
X330860Y95450D03*
X340360Y95450D03*
X349860Y95450D03*
X349860Y120450D03*
X330860Y120450D03*
D20*
X247900Y87630D03*
X247900Y62230D03*
X310900Y62230D03*
X310900Y87630D03*
D21*
X375480Y149860D03*
X375480Y137160D03*
X375480Y124460D03*
X375480Y111760D03*
X429700Y111760D03*
X429700Y124460D03*
X429700Y137160D03*
X429700Y149860D03*
D20*
X371090Y87630D03*
X371090Y62230D03*
X434090Y62230D03*
X434090Y87630D03*
D22*
X470220Y188020D03*
X470220Y233620D03*
D23*
X402220Y210820D03*
D18*
X127820Y95250D03*
X127820Y82550D03*
X127820Y69850D03*
X127820Y57150D03*
X182060Y57150D03*
X182060Y69850D03*
X182060Y82550D03*
X182060Y95250D03*
D24*
X182190Y113030D03*
X182190Y125730D03*
X182190Y138430D03*
X182190Y151130D03*
X182190Y163830D03*
X182190Y176530D03*
X182190Y189230D03*
X127690Y189230D03*
X127690Y176530D03*
X127690Y163830D03*
X127690Y151130D03*
X127690Y138430D03*
X127690Y125730D03*
X127690Y113030D03*
D18*
X251010Y187960D03*
X251010Y175260D03*
X251010Y162560D03*
X251010Y149860D03*
X251010Y137160D03*
X251010Y124460D03*
X251010Y111760D03*
X305250Y111760D03*
X305250Y124460D03*
X305250Y137160D03*
X305250Y149860D03*
X305250Y162560D03*
X305250Y175260D03*
X305250Y187960D03*
D25*
X103480Y184000D03*
X103480Y190500D03*
X103480Y197000D03*
X84480Y197000D03*
X84480Y184000D03*
D18*
X127820Y300990D03*
X127820Y288290D03*
X127820Y275590D03*
X127820Y262890D03*
X182060Y262890D03*
X182060Y275590D03*
X182060Y288290D03*
X182060Y300990D03*
X251010Y300990D03*
X251010Y288290D03*
X251010Y275590D03*
X251010Y262890D03*
X305250Y262890D03*
X305250Y275590D03*
X305250Y288290D03*
X305250Y300990D03*
D11*
X323850Y234950D03*
X359410Y234950D03*
X341630Y234950D03*
D26*
X330760Y16170D03*
X349960Y16170D03*
X340360Y37170D03*
D27*
X330760Y55540D03*
X349960Y55540D03*
X340360Y76540D03*
D28*
X454320Y48970D03*
X454320Y29770D03*
X475320Y39370D03*
D29*
X475320Y66600D03*
X475320Y85800D03*
X454320Y76200D03*
D15*
X39370Y212480D03*
X39370Y229480D03*
X204470Y86750D03*
X204470Y103750D03*
X204470Y72000D03*
X204470Y55000D03*
X226060Y103750D03*
X226060Y86750D03*
X83820Y212480D03*
X83820Y229480D03*
X83820Y118500D03*
X83820Y135500D03*
X105410Y118500D03*
X105410Y135500D03*
X204470Y135500D03*
X204470Y118500D03*
X62230Y274710D03*
X62230Y291710D03*
X105410Y242960D03*
X105410Y259960D03*
X39370Y242960D03*
X39370Y259960D03*
X83820Y150250D03*
X83820Y167250D03*
X83820Y259960D03*
X83820Y242960D03*
X105410Y212480D03*
X105410Y229480D03*
X83820Y291710D03*
X83820Y274710D03*
X351790Y218050D03*
X351790Y201050D03*
X328930Y201050D03*
X328930Y218050D03*
X105410Y291710D03*
X105410Y274710D03*
X233680Y41520D03*
X233680Y24520D03*
X298450Y41520D03*
X298450Y24520D03*
X39370Y182000D03*
X39370Y199000D03*
X276860Y41520D03*
X276860Y24520D03*
X255270Y24520D03*
X255270Y41520D03*
X372110Y41520D03*
X372110Y24520D03*
X434340Y24520D03*
X434340Y41520D03*
X414020Y41520D03*
X414020Y24520D03*
X392430Y41520D03*
X392430Y24520D03*
X476250Y101990D03*
X476250Y118990D03*
X455930Y118990D03*
X455930Y101990D03*
X60960Y199000D03*
X60960Y182000D03*
X105410Y150250D03*
X105410Y167250D03*
X60960Y229480D03*
X60960Y212480D03*
X105410Y86750D03*
X105410Y103750D03*
X105410Y55000D03*
X105410Y72000D03*
X83820Y103750D03*
X83820Y86750D03*
D16*
X332740Y271860D02*
X332740Y286940D01*
X358140Y286940D02*
X358140Y271860D01*
X383540Y271860D02*
X383540Y286940D01*
X408940Y286940D02*
X408940Y271860D01*
X434340Y271860D02*
X434340Y286940D01*
D30*
X59690Y19050D03*
X85090Y19050D03*
X72390Y36830D03*
X97790Y36830D03*
D18*
X251010Y243840D03*
X251010Y231140D03*
X251010Y218440D03*
X251010Y205740D03*
X305250Y205740D03*
X305250Y218440D03*
X305250Y231140D03*
X305250Y243840D03*
D15*
X204470Y230750D03*
X204470Y213750D03*
X226060Y230750D03*
X226060Y213750D03*
X204470Y262500D03*
X204470Y245500D03*
D14*
X226060Y245500D03*
X226060Y262500D03*
X226060Y150250D03*
X226060Y167250D03*
D15*
X226060Y277250D03*
X226060Y294250D03*
X204470Y277250D03*
X204470Y294250D03*
D30*
X110490Y20320D03*
D14*
X226060Y182000D03*
X226060Y199000D03*
D15*
X204470Y182000D03*
X204470Y199000D03*
X455930Y150740D03*
X455930Y133740D03*
D31*
X129540Y36830D03*
X142240Y19050D03*
X154940Y36830D03*
X167640Y19050D03*
D32*
X218440Y19050D03*
X193040Y19050D03*
D33*
X283464Y62484D03*
X361188Y27432D03*
X437388Y193548D03*
X455676Y91440D03*
X454152Y182880D03*
X167640Y297180D03*
X237744Y294132D03*
X94488Y176784D03*
X73152Y283464D03*
X71628Y243840D03*
X141732Y123444D03*
X318516Y188976D03*
X161544Y99060D03*
X167640Y257556D03*
X214884Y254508D03*
X28956Y220980D03*
X158496Y205740D03*
X288036Y266700D03*
X463296Y85344D03*
X140208Y213360D03*
X160020Y269748D03*
X19812Y97536D03*
X94488Y60960D03*
X274320Y288036D03*
X265176Y217932D03*
X265176Y231648D03*
X141732Y149352D03*
X71628Y134112D03*
X141732Y132588D03*
X114300Y45720D03*
X167640Y205740D03*
X193548Y252984D03*
X19812Y118872D03*
X94488Y220980D03*
X50292Y190500D03*
X141732Y228600D03*
X73152Y201168D03*
X141732Y188976D03*
X114300Y202692D03*
X156972Y225552D03*
X167640Y82296D03*
X170688Y103632D03*
X291084Y231648D03*
X254508Y53340D03*
X169164Y132588D03*
X169164Y182880D03*
X265176Y278892D03*
X237744Y275844D03*
X138684Y254508D03*
X327660Y38100D03*
X318516Y33528D03*
X463296Y38100D03*
X356616Y83820D03*
X330708Y108204D03*
X265176Y243840D03*
X445008Y146304D03*
X445008Y112776D03*
X289560Y213360D03*
X237744Y219456D03*
X155448Y242316D03*
X73152Y192024D03*
X50292Y260604D03*
X71628Y265176D03*
X141732Y275844D03*
M02*
