<?xml version="1.0" encoding="utf-8" ?><!DOCTYPE svg PUBLIC "-//W3C//DTD SVG 1.1//EN" "http://www.w3.org/Graphics/SVG/1.1/DTD/svg11.dtd" 
[ <!ATTLIST svg 
  xmlns:dsy CDATA #FIXED "http://www.3ds.com/print"  
    dsy:text-version CDATA #IMPLIED > 

  <!ATTLIST text 
  xmlns:dsy CDATA #FIXED "http://www.3ds.com/print" 
    dsy:text-version CDATA #IMPLIED > 
]><svg xmlns="http://www.w3.org/2000/svg" xmlns:dsy="http://www.3ds.com/print" dsy:text-version="18000" width="841" height="594" viewBox="0 0 841 594" version="1.1"><g stroke="rgb(0, 0, 0)" stroke-width="0.13" stroke-linecap="butt" stroke-linejoin="miter" fill="none"><path d="M 445 332 L 474.594 332"/><path d="M 445 262 L 474.594 262"/></g><g stroke="rgb(0, 0, 0)" stroke-width="0.35" stroke-linecap="butt" stroke-linejoin="miter" fill="none"><path d="M 398 262 L 398 332"/><path d="M 398 332 L 413.75 332"/><path d="M 413.75 332 L 413.75 322"/><path d="M 413.75 322 L 419.75 322"/><path d="M 419.75 322 L 419.75 332"/><path d="M 419.75 332 L 443 332"/><path d="M 443 332 L 443 262"/><path d="M 408 262 L 398 262"/><path d="M 443 262 L 433 262"/><path d="M 408 262 A 12.5 12.5 0 1 0 433 262"/></g><g stroke="rgb(0, 0, 0)" stroke-width="0.13" stroke-linecap="butt" stroke-linejoin="miter" fill="none"><path d="M 470.594 299.569 L 470.594 299.06 L 469.762 298.893 L 468.985 298.601 L 468.264 298.187 L 467.588 297.648 L 467.17 297.648 L 467.17 300.048 L 467.629 300.048 L 467.629 298.132 L 468.309 298.686 L 469.021 299.105 L 469.777 299.398 L 470.594 299.569 L 470.594 299.569 z M 468.884 296.347 L 469.676 296.272 L 470.241 296.035 L 470.584 295.656 L 470.695 295.132 L 470.584 294.613 L 470.241 294.234 L 469.676 294.002 L 468.884 293.922 L 468.098 294.002 L 467.785 294.098 L 467.528 294.234 L 467.185 294.613 L 467.069 295.132 L 467.185 295.656 L 467.533 296.035 L 468.098 296.272 L 468.884 296.347 L 468.884 296.347 z M 468.884 295.863 L 468.274 295.823 L 467.835 295.697 L 467.578 295.47 L 467.487 295.132 L 467.578 294.799 L 467.835 294.572 L 468.274 294.446 L 468.884 294.406 L 469.5 294.446 L 469.938 294.572 L 470.196 294.799 L 470.281 295.132 L 470.196 295.47 L 469.938 295.697 L 469.5 295.823 L 468.884 295.863 L 468.884 295.863 z" stroke="none" fill-rule="evenodd" fill="rgb(0, 0, 0)"/><path d="M 472.076 330.068 L 472.594 332 L 473.112 330.068"/><path d="M 473.112 263.932 L 472.594 262 L 472.076 263.932"/><path d="M 472.594 332 L 472.594 262"/></g></svg>