<?xml version="1.0" encoding="utf-8" ?><!DOCTYPE svg PUBLIC "-//W3C//DTD SVG 1.1//EN" "http://www.w3.org/Graphics/SVG/1.1/DTD/svg11.dtd" 
[ <!ATTLIST svg 
  xmlns:dsy CDATA #FIXED "http://www.3ds.com/print"  
    dsy:text-version CDATA #IMPLIED > 

  <!ATTLIST text 
  xmlns:dsy CDATA #FIXED "http://www.3ds.com/print" 
    dsy:text-version CDATA #IMPLIED > 
]><svg xmlns="http://www.w3.org/2000/svg" xmlns:dsy="http://www.3ds.com/print" dsy:text-version="18000" width="841" height="594" viewBox="0 0 841 594" version="1.1"><g stroke="rgb(0, 0, 0)" stroke-width="0.13" stroke-linecap="butt" stroke-linejoin="miter" fill="none"><path d="M 453.274 397.22 L 503.039 397.22"/><path d="M 453.274 196.78 L 503.039 196.78"/></g><g stroke="rgb(0, 0, 0)" stroke-width="0.35" stroke-linecap="butt" stroke-linejoin="miter" fill="none"><path d="M 404.726 196.78 L 389.726 397.22"/><path d="M 389.726 397.22 L 424.726 397.22"/><path d="M 424.726 397.22 L 420.72 388.057"/><path d="M 420.72 388.057 L 426.218 385.654"/><path d="M 426.218 385.654 L 431.274 397.22"/><path d="M 431.274 397.22 L 451.274 397.22"/><path d="M 451.274 397.22 L 451.274 196.78"/><path d="M 451.274 196.78 L 431.274 196.78"/><path d="M 431.274 196.78 L 426.218 208.346"/><path d="M 426.218 208.346 L 420.72 205.943"/><path d="M 420.72 205.943 L 424.726 196.78"/><path d="M 424.726 196.78 L 404.726 196.78"/><circle cx="408.575" cy="389.22" r="4.20001"/></g><g stroke="rgb(0, 0, 0)" stroke-width="0.13" stroke-linecap="butt" stroke-linejoin="miter" fill="none"><path d="M 499.039 307.571 L 499.039 305.165 L 498.605 305.165 L 498.605 307.066 L 498.368 306.96 L 498.172 306.779 L 497.814 306.219 L 497.662 305.921 L 497.445 305.589 L 497.193 305.352 L 496.896 305.215 L 496.558 305.165 L 496.134 305.251 L 495.801 305.488 L 495.589 305.851 L 495.514 306.32 L 495.6 306.804 L 495.837 307.172 L 496.215 307.409 L 496.714 307.49 L 496.785 307.49 L 496.785 307.031 L 496.744 307.031 L 496.401 306.986 L 496.149 306.849 L 495.988 306.633 L 495.932 306.345 L 495.983 306.053 L 496.109 305.836 L 496.306 305.695 L 496.553 305.644 L 496.785 305.679 L 496.981 305.775 L 497.153 305.937 L 497.304 306.159 L 497.466 306.456 L 497.778 306.95 L 498.111 307.298 L 498.514 307.505 L 499.024 307.571 L 499.039 307.571 L 499.039 307.571 z M 497.329 303.819 L 498.121 303.744 L 498.686 303.507 L 499.029 303.129 L 499.14 302.604 L 499.029 302.085 L 498.686 301.706 L 498.121 301.474 L 497.329 301.394 L 496.543 301.474 L 496.23 301.57 L 495.973 301.706 L 495.63 302.085 L 495.514 302.604 L 495.63 303.129 L 495.978 303.507 L 496.543 303.744 L 497.329 303.819 L 497.329 303.819 z M 497.329 303.335 L 496.719 303.295 L 496.28 303.169 L 496.023 302.942 L 495.932 302.604 L 496.023 302.271 L 496.28 302.044 L 496.719 301.918 L 497.329 301.878 L 497.945 301.918 L 498.383 302.044 L 498.641 302.271 L 498.726 302.604 L 498.641 302.942 L 498.383 303.169 L 497.945 303.295 L 497.329 303.335 L 497.329 303.335 z M 497.329 300.083 L 498.121 300.008 L 498.686 299.771 L 499.029 299.393 L 499.14 298.868 L 499.029 298.349 L 498.686 297.97 L 498.121 297.738 L 497.329 297.658 L 496.543 297.738 L 496.23 297.834 L 495.973 297.97 L 495.63 298.349 L 495.514 298.868 L 495.63 299.393 L 495.978 299.771 L 496.543 300.008 L 497.329 300.083 L 497.329 300.083 z M 497.329 299.599 L 496.719 299.559 L 496.28 299.433 L 496.023 299.206 L 495.932 298.868 L 496.023 298.535 L 496.28 298.308 L 496.719 298.182 L 497.329 298.142 L 497.945 298.182 L 498.383 298.308 L 498.641 298.535 L 498.726 298.868 L 498.641 299.206 L 498.383 299.433 L 497.945 299.559 L 497.329 299.599 L 497.329 299.599 z M 499.039 295.48 L 499.039 294.784 L 498.288 294.784 L 498.288 295.48 L 499.039 295.48 L 499.039 295.48 z M 499.039 291.119 L 499.039 290.665 L 498.172 290.665 L 498.172 290.165 L 497.768 290.165 L 497.768 290.665 L 495.615 290.665 L 495.615 291.124 L 497.728 292.657 L 498.172 292.657 L 498.172 291.119 L 499.039 291.119 L 499.039 291.119 z M 497.768 292.233 L 496.2 291.119 L 497.768 291.119 L 497.768 292.233 L 497.768 292.233 z M 499.039 287.383 L 499.039 286.929 L 498.172 286.929 L 498.172 286.429 L 497.768 286.429 L 497.768 286.929 L 495.615 286.929 L 495.615 287.388 L 497.728 288.921 L 498.172 288.921 L 498.172 287.383 L 499.039 287.383 L 499.039 287.383 z M 497.768 288.497 L 496.2 287.383 L 497.768 287.383 L 497.768 288.497 L 497.768 288.497 z" stroke="none" fill-rule="evenodd" fill="rgb(0, 0, 0)"/><path d="M 500.521 395.288 L 501.039 397.22 L 501.557 395.288"/><path d="M 501.557 198.712 L 501.039 196.78 L 500.521 198.712"/><path d="M 501.039 397.22 L 501.039 196.78"/></g></svg>