<?xml version="1.0" encoding="utf-8"?>
<!-- Generator: Adobe Illustrator 22.0.1, SVG Export Plug-In . SVG Version: 6.00 Build 0)  -->
<svg version="1.1" id="Calque_1" dsy:text-version="18000" xmlns:dsy="http://www.3ds.com/print"
	 xmlns="http://www.w3.org/2000/svg" xmlns:xlink="http://www.w3.org/1999/xlink" x="0px" y="0px" viewBox="0 0 344 1189.8"
	 style="enable-background:new 0 0 344 1189.8;" xml:space="preserve">
<style type="text/css">
	.st0{fill:none;stroke:#FF0000;stroke-width:2.834646e-02;}
</style>
<g>
	<circle class="st0" cx="77.3" cy="362.7" r="11.3"/>
	<circle class="st0" cx="77.3" cy="816.3" r="11.3"/>
	<circle class="st0" cx="247.4" cy="589.5" r="11.3"/>
	<path class="st0" d="M105.7,476.1v-17"/>
	<path class="st0" d="M105.7,476.1h113.4"/>
	<path class="st0" d="M219.1,459.1v17"/>
	<path class="st0" d="M219.1,459.1H105.7"/>
	<path class="st0" d="M219.1,719.9H105.7"/>
	<path class="st0" d="M219.1,719.9v-17"/>
	<path class="st0" d="M105.7,702.9h113.4"/>
	<path class="st0" d="M105.7,702.9v17"/>
	<circle class="st0" cx="183.8" cy="1074.2" r="19.1"/>
	<circle class="st0" cx="178.7" cy="105.7" r="19.1"/>
	<path class="st0" d="M49,929.6c0,125.2,101.5,226.8,226.8,226.8c0,0,0,0,0,0"/>
	<path class="st0" d="M275.8,1109.2v47.3"/>
	<path class="st0" d="M275.8,1038.3c-19.6,0.2-35.3,16.2-35.1,35.8c0.2,19.3,15.8,34.9,35.1,35.1"/>
	<path class="st0" d="M275.8,1038.3V147.8"/>
	<path class="st0" d="M49,249.3v680.3"/>
	<path class="st0" d="M275.8,62.7c-23.5,0-42.5,19.1-42.5,42.5c0,23.5,19,42.5,42.5,42.5"/>
	<path class="st0" d="M275.8,22.6C150.5,22.6,49,124.1,49,249.3c0,0,0,0,0,0"/>
	<path class="st0" d="M275.8,22.6v40.2"/>
</g>
</svg>
