<?xml version="1.0" encoding="utf-8" ?><!DOCTYPE svg PUBLIC "-//W3C//DTD SVG 1.1//EN" "http://www.w3.org/Graphics/SVG/1.1/DTD/svg11.dtd" 
[ <!ATTLIST svg 
  xmlns:dsy CDATA #FIXED "http://www.3ds.com/print"  
    dsy:text-version CDATA #IMPLIED > 

  <!ATTLIST text 
  xmlns:dsy CDATA #FIXED "http://www.3ds.com/print" 
    dsy:text-version CDATA #IMPLIED > 
]><svg xmlns="http://www.w3.org/2000/svg" xmlns:dsy="http://www.3ds.com/print" dsy:text-version="18000" width="210" height="297" viewBox="0 0 210 297" version="1.1"><g stroke="rgb(0, 0, 0)" stroke-width="0.13" stroke-linecap="butt" stroke-linejoin="miter" fill="none"><path d="M 139.667 247.109 L 185.699 247.109"/><path d="M 139.667 61.279 L 185.699 61.279"/></g><g stroke="rgb(0, 0, 0)" stroke-width="0.35" stroke-linecap="butt" stroke-linejoin="miter" fill="none"><path d="M 112.333 15.1667 L 112.333 24.6123"/><path d="M 112.333 24.6123 A 10 10 0 0 0 112.333 44.6123"/><path d="M 121 44.6123 L 112.333 44.6123"/><path d="M 137.667 61.279 A 16.6667 16.6667 0 0 0 121 44.6123"/><path d="M 137.667 247.109 L 137.667 61.279"/><path d="M 122.846 255.901 A 10.0178 10.0178 0 0 0 137.667 247.109"/><path d="M 122.846 255.901 A 15.0816 15.0816 0 0 0 115.616 254.054"/><path d="M 112.333 254.054 L 115.616 254.054"/><path d="M 112.333 254.054 A 8.33334 8.33334 0 0 0 112.333 270.721"/><path d="M 112.333 270.721 L 112.333 281.833"/><path d="M 94.1515 206.204 A 40 40 0 0 0 112.333 281.833"/><path d="M 94.1515 206.204 A 33.3333 33.3333 0 0 0 112.333 176.514"/><path d="M 112.333 120.486 L 112.333 176.514"/><path d="M 112.333 120.486 A 33.3333 33.3333 0 0 0 94.1515 90.7956"/><path d="M 74.3367 42.6664 A 40 40 0 0 0 94.1515 90.7956"/><path d="M 81.5117 38.1365 A 6.66666 6.66666 0 0 0 74.3367 42.6664"/><path d="M 81.5117 38.1365 A 10 10 0 0 0 92.5363 26.0449"/><path d="M 96.386 18.4832 A 6.66666 6.66666 0 0 0 92.5363 26.0449"/><path d="M 112.333 15.1667 A 40 40 0 0 0 96.3859 18.4831"/><circle cx="118.397" cy="55.6319" r="2.86667"/><circle cx="127.649" cy="247.109" r="2.86667"/><path d="M 91 68.5 L 91 55.1667"/><path d="M 91 68.5 L 95 68.5"/><path d="M 95 55.1667 L 95 68.5"/><path d="M 95 55.1667 L 91 55.1667"/><path d="M 91 241.833 L 91 228.5"/><path d="M 91 241.833 L 95 241.833"/><path d="M 95 228.5 L 95 241.833"/><path d="M 95 228.5 L 91 228.5"/></g><g stroke="rgb(0, 0, 0)" stroke-width="0.13" stroke-linecap="butt" stroke-linejoin="miter" fill="none"><path d="M 181.699 164.765 L 181.699 162.359 L 181.265 162.359 L 181.265 164.26 L 181.028 164.154 L 180.831 163.973 L 180.473 163.413 L 180.322 163.116 L 180.105 162.783 L 179.853 162.546 L 179.556 162.409 L 179.218 162.359 L 178.794 162.445 L 178.461 162.682 L 178.249 163.045 L 178.174 163.514 L 178.259 163.998 L 178.496 164.366 L 178.875 164.603 L 179.374 164.684 L 179.445 164.684 L 179.445 164.225 L 179.404 164.225 L 179.061 164.18 L 178.809 164.043 L 178.648 163.827 L 178.592 163.539 L 178.643 163.247 L 178.769 163.03 L 178.965 162.889 L 179.213 162.838 L 179.445 162.873 L 179.641 162.969 L 179.813 163.131 L 179.964 163.353 L 180.125 163.65 L 180.438 164.144 L 180.771 164.492 L 181.174 164.699 L 181.684 164.765 L 181.699 164.765 L 181.699 164.765 z M 181.699 160.499 L 181.699 159.99 L 180.867 159.823 L 180.09 159.531 L 179.369 159.117 L 178.693 158.578 L 178.275 158.578 L 178.275 160.978 L 178.734 160.978 L 178.734 159.062 L 179.414 159.617 L 180.125 160.035 L 180.882 160.328 L 181.699 160.499 L 181.699 160.499 z M 179.813 156.687 L 179.954 156.945 L 180.151 157.121 L 180.398 157.232 L 180.695 157.267 L 181.144 157.187 L 181.492 156.955 L 181.714 156.576 L 181.8 156.062 L 181.714 155.553 L 181.492 155.174 L 181.144 154.942 L 180.695 154.857 L 180.398 154.897 L 180.151 155.003 L 179.954 155.185 L 179.813 155.437 L 179.692 155.235 L 179.525 155.094 L 179.324 155.008 L 179.076 154.978 L 178.718 155.058 L 178.431 155.27 L 178.244 155.613 L 178.174 156.062 L 178.244 156.516 L 178.431 156.859 L 178.718 157.076 L 179.076 157.151 L 179.324 157.126 L 179.525 157.04 L 179.813 156.687 L 179.813 156.687 z M 180.685 156.783 L 180.418 156.738 L 180.216 156.592 L 180.085 156.365 L 180.04 156.062 L 180.085 155.764 L 180.216 155.538 L 180.418 155.391 L 180.685 155.341 L 180.973 155.391 L 181.19 155.538 L 181.331 155.764 L 181.376 156.062 L 181.331 156.365 L 181.19 156.592 L 180.973 156.738 L 180.685 156.783 L 180.685 156.783 z M 179.117 156.672 L 178.895 156.632 L 178.723 156.511 L 178.618 156.319 L 178.577 156.062 L 178.618 155.81 L 178.723 155.618 L 178.895 155.497 L 179.117 155.452 L 179.344 155.497 L 179.52 155.618 L 179.636 155.81 L 179.672 156.062 L 179.631 156.319 L 179.52 156.511 L 179.344 156.632 L 179.117 156.672 L 179.117 156.672 z M 181.699 152.674 L 181.699 151.978 L 180.947 151.978 L 180.947 152.674 L 181.699 152.674 L 181.699 152.674 z M 181.699 149.291 L 181.699 148.782 L 180.867 148.615 L 180.09 148.323 L 179.369 147.909 L 178.693 147.37 L 178.275 147.37 L 178.275 149.77 L 178.734 149.77 L 178.734 147.854 L 179.414 148.408 L 180.125 148.827 L 180.882 149.12 L 181.699 149.291 L 181.699 149.291 z M 180.786 146.105 L 181.2 145.994 L 181.522 145.747 L 181.724 145.384 L 181.8 144.92 L 181.709 144.41 L 181.462 144.012 L 181.069 143.76 L 180.564 143.664 L 180.095 143.75 L 179.727 143.992 L 179.49 144.37 L 179.404 144.859 L 179.465 145.237 L 179.631 145.53 L 178.688 145.389 L 178.688 143.855 L 178.275 143.855 L 178.275 145.726 L 180.13 146.004 L 180.13 145.6 L 179.893 145.308 L 179.808 144.935 L 179.863 144.612 L 180.025 144.365 L 180.272 144.208 L 180.589 144.153 L 180.907 144.208 L 181.154 144.37 L 181.311 144.617 L 181.366 144.935 L 181.331 145.202 L 181.215 145.409 L 181.033 145.56 L 180.786 145.636 L 180.786 146.105 L 180.786 146.105 z" stroke="none" fill-rule="evenodd" fill="rgb(0, 0, 0)"/><path d="M 184.217 63.2108 L 183.699 61.279 L 183.181 63.2108"/><path d="M 183.181 245.177 L 183.699 247.109 L 184.217 245.177"/><path d="M 183.699 247.109 L 183.699 61.279"/></g></svg>