<?xml version="1.0" encoding="utf-8" ?><!DOCTYPE svg PUBLIC "-//W3C//DTD SVG 1.1//EN" "http://www.w3.org/Graphics/SVG/1.1/DTD/svg11.dtd" 
[ <!ATTLIST svg 
  xmlns:dsy CDATA #FIXED "http://www.3ds.com/print"  
    dsy:text-version CDATA #IMPLIED > 

  <!ATTLIST text 
  xmlns:dsy CDATA #FIXED "http://www.3ds.com/print" 
    dsy:text-version CDATA #IMPLIED > 
]><svg xmlns="http://www.w3.org/2000/svg" xmlns:dsy="http://www.3ds.com/print" dsy:text-version="18000" width="297" height="420" viewBox="0 0 297 420" version="1.1"><g stroke="rgb(0, 0, 0)" stroke-width="0.13" stroke-linecap="butt" stroke-linejoin="miter" fill="none"><path d="M 186.5 410 L 47.9802 410"/><path d="M 186.5 10 L 47.9802 10"/></g><g stroke="rgb(0, 0, 0)" stroke-width="0.35" stroke-linecap="butt" stroke-linejoin="miter" fill="none"><path d="M 188.5 10 L 188.5 24.1685"/><path d="M 188.5 24.1685 A 15 15 0 0 0 188.5 54.1685"/><path d="M 188.5 368.331 L 188.5 54.1685"/><path d="M 188.5 368.331 A 12.5 12.5 0 0 0 188.5 393.331"/><path d="M 188.5 393.331 L 188.5 410"/><path d="M 108.5 330 A 80 80 0 0 0 188.5 410"/><path d="M 108.5 90 L 108.5 330"/><path d="M 188.5 10 A 80 80 0 0 0 108.5 90"/><circle cx="154.248" cy="39.3489" r="6.75"/><circle cx="156.05" cy="381.008" r="6.75"/><circle cx="178.5" cy="210" r="4"/><circle cx="118.5" cy="130" r="4"/><circle cx="118.5" cy="290" r="4"/></g><g stroke="rgb(0, 0, 0)" stroke-width="0.13" stroke-linecap="butt" stroke-linejoin="miter" fill="none"><path d="M 47.9802 213.459 L 47.9802 213.005 L 47.1128 213.005 L 47.1128 212.505 L 46.7093 212.505 L 46.7093 213.005 L 44.5558 213.005 L 44.5558 213.464 L 46.669 214.997 L 47.1128 214.997 L 47.1128 213.459 L 47.9802 213.459 L 47.9802 213.459 z M 46.7093 214.573 L 45.1409 213.459 L 46.7093 213.459 L 46.7093 214.573 L 46.7093 214.573 z M 46.2705 211.215 L 47.0623 211.14 L 47.6272 210.903 L 47.9701 210.524 L 48.0811 210 L 47.9701 209.481 L 47.6272 209.102 L 47.0623 208.87 L 46.2705 208.79 L 45.4838 208.87 L 45.1711 208.966 L 44.9139 209.102 L 44.571 209.481 L 44.455 210 L 44.571 210.524 L 44.919 210.903 L 45.4838 211.14 L 46.2705 211.215 L 46.2705 211.215 z M 46.2705 210.731 L 45.6603 210.691 L 45.2215 210.565 L 44.9643 210.338 L 44.8736 210 L 44.9643 209.667 L 45.2215 209.44 L 45.6603 209.314 L 46.2705 209.274 L 46.8858 209.314 L 47.3246 209.44 L 47.5818 209.667 L 47.6675 210 L 47.5818 210.338 L 47.3246 210.565 L 46.8858 210.691 L 46.2705 210.731 L 46.2705 210.731 z M 46.2705 207.479 L 47.0623 207.404 L 47.6272 207.167 L 47.9701 206.788 L 48.0811 206.264 L 47.9701 205.745 L 47.6272 205.366 L 47.0623 205.134 L 46.2705 205.054 L 45.4838 205.134 L 45.1711 205.23 L 44.9139 205.366 L 44.571 205.745 L 44.455 206.264 L 44.571 206.788 L 44.919 207.167 L 45.4838 207.404 L 46.2705 207.479 L 46.2705 207.479 z M 46.2705 206.995 L 45.6603 206.955 L 45.2215 206.829 L 44.9643 206.602 L 44.8736 206.264 L 44.9643 205.931 L 45.2215 205.704 L 45.6603 205.578 L 46.2705 205.538 L 46.8858 205.578 L 47.3246 205.704 L 47.5818 205.931 L 47.6675 206.264 L 47.5818 206.602 L 47.3246 206.829 L 46.8858 206.955 L 46.2705 206.995 L 46.2705 206.995 z" stroke="none" fill-rule="evenodd" fill="rgb(0, 0, 0)"/><path d="M 50.4978 11.9319 L 49.9802 10 L 49.4626 11.9319"/><path d="M 49.4626 408.068 L 49.9802 410 L 50.4978 408.068"/><path d="M 49.9802 410 L 49.9802 10"/></g><g stroke="rgb(0, 0, 0)" stroke-width="0.13" stroke-linecap="butt" stroke-linejoin="miter" fill="none"><path d="M 229.126 256.809 L 228.869 256.95 L 228.692 257.147 L 228.581 257.394 L 228.546 257.692 L 228.627 258.14 L 228.859 258.488 L 229.237 258.71 L 229.751 258.796 L 230.261 258.71 L 230.639 258.488 L 230.871 258.14 L 230.957 257.692 L 230.916 257.394 L 230.811 257.147 L 230.629 256.95 L 230.377 256.809 L 230.579 256.688 L 230.72 256.522 L 230.806 256.32 L 230.836 256.073 L 230.755 255.715 L 230.543 255.427 L 230.2 255.241 L 229.751 255.17 L 229.298 255.241 L 228.955 255.427 L 228.738 255.715 L 228.662 256.073 L 228.687 256.32 L 228.773 256.522 L 229.126 256.809 L 229.126 256.809 z M 229.03 257.681 L 229.076 257.414 L 229.222 257.212 L 229.449 257.081 L 229.751 257.036 L 230.049 257.081 L 230.276 257.212 L 230.422 257.414 L 230.473 257.681 L 230.422 257.969 L 230.276 258.186 L 230.049 258.327 L 229.751 258.372 L 229.449 258.327 L 229.222 258.186 L 229.076 257.969 L 229.03 257.681 L 229.03 257.681 z M 229.141 256.113 L 229.182 255.891 L 229.303 255.72 L 229.494 255.614 L 229.751 255.573 L 230.004 255.614 L 230.195 255.72 L 230.316 255.891 L 230.362 256.113 L 230.316 256.34 L 230.195 256.516 L 230.004 256.632 L 229.751 256.668 L 229.494 256.627 L 229.303 256.516 L 229.182 256.34 L 229.141 256.113 L 229.141 256.113 z M 232.272 256.986 L 232.348 257.777 L 232.585 258.342 L 232.963 258.685 L 233.487 258.796 L 234.007 258.685 L 234.385 258.342 L 234.617 257.777 L 234.698 256.986 L 234.617 256.199 L 234.521 255.886 L 234.385 255.629 L 234.007 255.286 L 233.487 255.17 L 232.963 255.286 L 232.585 255.634 L 232.348 256.199 L 232.272 256.986 L 232.272 256.986 z M 232.756 256.986 L 232.797 256.375 L 232.923 255.937 L 233.15 255.679 L 233.487 255.589 L 233.82 255.679 L 234.047 255.937 L 234.173 256.375 L 234.214 256.986 L 234.173 257.601 L 234.047 258.04 L 233.82 258.297 L 233.487 258.382 L 233.15 258.297 L 232.923 258.04 L 232.797 257.601 L 232.756 256.986 L 232.756 256.986 z" stroke="none" fill-rule="evenodd" fill="rgb(0, 0, 0)"/><path d="M 110.432 260.178 L 108.5 260.695 L 110.432 261.213"/><path d="M 186.568 261.213 L 188.5 260.695 L 186.568 260.178"/><path d="M 108.5 260.695 L 235.006 260.695"/></g></svg>