<?xml version="1.0" encoding="utf-8" ?><!DOCTYPE svg PUBLIC "-//W3C//DTD SVG 1.1//EN" "http://www.w3.org/Graphics/SVG/1.1/DTD/svg11.dtd" 
[ <!ATTLIST svg 
  xmlns:dsy CDATA #FIXED "http://www.3ds.com/print"  
    dsy:text-version CDATA #IMPLIED > 

  <!ATTLIST text 
  xmlns:dsy CDATA #FIXED "http://www.3ds.com/print" 
    dsy:text-version CDATA #IMPLIED > 
]><svg xmlns="http://www.w3.org/2000/svg" xmlns:dsy="http://www.3ds.com/print" dsy:text-version="18000" width="297" height="420" viewBox="0 0 297 420" version="1.1"><g stroke="rgb(0, 0, 0)" stroke-width="0.13" stroke-linecap="butt" stroke-linejoin="miter" fill="none"><path d="M 131.5 410 L 45.5208 410"/><path d="M 131.5 10 L 45.5208 10"/></g><g stroke="rgb(0, 0, 0)" stroke-width="0.35" stroke-linecap="butt" stroke-linejoin="miter" fill="none"><path d="M 83.5 68.3375 L 83.5 54.1685"/><path d="M 133.5 68.3375 L 83.5 68.3375"/><path d="M 133.5 368.331 L 133.5 68.3375"/><path d="M 133.5 393.331 A 12.5 12.5 0 0 0 133.5 368.331"/><path d="M 133.5 393.331 L 133.5 410"/><path d="M 133.5 410 A 80 80 0 0 0 213.5 330"/><path d="M 213.5 90 L 213.5 330"/><path d="M 213.5 90 A 80 80 0 0 0 133.5 10"/><path d="M 83.5 10 L 133.5 10"/><path d="M 83.5 24.1685 L 83.5 10"/><path d="M 133.5 54.1685 A 15 15 0 0 0 133.5 24.1685"/><circle cx="167.752" cy="39.3489" r="6.75"/><circle cx="165.95" cy="381.008" r="6.75"/><circle cx="143.5" cy="210" r="4"/><circle cx="203.5" cy="290" r="4"/><circle cx="203.5" cy="130" r="4"/><path d="M 99.5 54.1685 L 109.5 54.1685"/><path d="M 99.5 58.1685 L 99.5 54.1685"/><path d="M 99.5 58.1685 L 93.5 58.1685"/><path d="M 93.5 54.1685 L 93.5 58.1685"/><path d="M 83.5 54.1685 L 93.5 54.1685"/><path d="M 93.5 24.1685 L 83.5 24.1685"/><path d="M 93.5 20.1685 L 93.5 24.1685"/><path d="M 93.5 20.1685 L 99.5 20.1685"/><path d="M 99.5 24.1685 L 99.5 20.1685"/><path d="M 109.5 24.1685 L 99.5 24.1685"/><path d="M 109.5 20.1685 L 109.5 24.1685"/><path d="M 109.5 20.1685 L 115.5 20.1685"/><path d="M 115.5 24.1685 L 115.5 20.1685"/><path d="M 133.5 24.1685 L 115.5 24.1685"/><path d="M 115.5 54.1685 L 133.5 54.1685"/><path d="M 115.5 58.1685 L 115.5 54.1685"/><path d="M 115.5 58.1685 L 109.5 58.1685"/><path d="M 109.5 54.1685 L 109.5 58.1685"/></g><g stroke="rgb(0, 0, 0)" stroke-width="0.13" stroke-linecap="butt" stroke-linejoin="miter" fill="none"><path d="M 149.618 420.01 L 149.115 418.352 L 148.636 418.352 L 149.171 420.01 L 149.618 420.01 z M 151.375 418.352 L 150.896 418.352 L 150.407 420.01 L 150.852 420.01 L 151.375 418.352 z M 154.098 419.148 L 153.654 419.148 L 153.654 420.01 L 154.098 420.01 L 154.098 419.148 z M 152.439 419.148 L 151.995 419.148 L 151.995 420.01 L 152.439 420.01 L 152.439 419.148 z M 157.157 420.01 L 157.134 419.844 L 156.912 419.411 L 156.559 419.148 L 156.09 419.052 L 155.631 419.154 L 155.278 419.436 L 155.051 419.895 L 155.036 420.01 L 157.157 420.01 z M 156.705 419.91 L 156.718 420.01 L 155.474 420.01 L 155.49 419.91 L 155.626 419.653 L 155.833 419.496 L 156.105 419.441 L 156.373 419.496 L 156.579 419.653 L 156.705 419.91 z M 163.226 418.236 L 162.788 418.236 L 162.788 419.562 L 162.45 419.179 L 162.243 419.088 L 162.006 419.052 L 161.577 419.154 L 161.244 419.436 L 161.027 419.89 L 161.012 420.01 L 163.226 420.01 L 163.226 418.236 z M 161.804 419.522 L 162.082 419.451 L 162.374 419.522 L 162.596 419.718 L 162.713 420.01 L 161.469 420.01 L 161.592 419.723 L 161.804 419.522 z M 166.265 420.01 L 166.242 419.844 L 166.02 419.411 L 165.667 419.148 L 165.198 419.052 L 164.739 419.154 L 164.386 419.436 L 164.159 419.895 L 164.144 420.01 L 166.265 420.01 z M 165.813 419.91 L 165.827 420.01 L 164.582 420.01 L 164.598 419.91 L 164.734 419.653 L 164.941 419.496 L 165.213 419.441 L 165.48 419.496 L 165.687 419.653 L 165.813 419.91 z M 171.285 419.617 L 172.294 419.617 L 172.294 419.239 L 171.285 419.239 L 171.285 419.073 L 171.321 418.871 L 171.437 418.735 L 171.633 418.654 L 171.916 418.624 L 172.294 418.644 L 172.294 418.261 L 171.815 418.236 L 171.381 418.281 L 171.079 418.417 L 170.897 418.654 L 170.842 418.992 L 170.842 419.239 L 170.03 419.239 L 170.03 419.617 L 170.842 419.617 L 170.842 420.01 L 171.285 420.01 L 171.285 419.617 z M 175.264 419.87 L 175.204 419.511 L 175.027 419.259 L 174.72 419.108 L 174.286 419.052 L 173.862 419.113 L 173.55 419.285 L 173.353 419.552 L 173.288 419.905 L 173.288 419.935 L 173.686 419.935 L 173.721 419.723 L 173.832 419.572 L 174.014 419.481 L 174.271 419.446 L 174.518 419.471 L 174.695 419.547 L 174.801 419.678 L 174.836 419.86 L 174.822 420.01 L 175.264 420.01 L 175.264 419.87 z M 178.454 420.01 L 178.371 419.643 L 178.154 419.325 L 177.816 419.128 L 177.377 419.052 L 176.893 419.154 L 176.525 419.436 L 176.293 419.895 L 176.278 420.01 L 176.725 420.01 L 176.853 419.713 L 177.08 419.511 L 177.377 419.441 L 177.64 419.486 L 177.836 419.602 L 177.968 419.794 L 178.015 420.01 L 178.454 420.01 z M 181.445 420.01 L 181.422 419.844 L 181.2 419.411 L 180.847 419.148 L 180.378 419.052 L 179.919 419.154 L 179.566 419.436 L 179.339 419.895 L 179.324 420.01 L 181.445 420.01 z M 180.994 419.91 L 181.007 420.01 L 179.762 420.01 L 179.778 419.91 L 179.914 419.653 L 180.121 419.496 L 180.393 419.441 L 180.661 419.496 L 180.867 419.653 L 180.994 419.91 z" stroke="none" fill-rule="evenodd" fill="rgb(0, 0, 0)"/></g><g stroke="rgb(0, 0, 0)" stroke-width="0.13" stroke-linecap="butt" stroke-linejoin="miter" fill="none"><path d="M 45.5208 213.459 L 45.5208 213.005 L 44.6534 213.005 L 44.6534 212.505 L 44.2499 212.505 L 44.2499 213.005 L 42.0964 213.005 L 42.0964 213.464 L 44.2096 214.997 L 44.6534 214.997 L 44.6534 213.459 L 45.5208 213.459 L 45.5208 213.459 z M 44.2499 214.573 L 42.6815 213.459 L 44.2499 213.459 L 44.2499 214.573 L 44.2499 214.573 z M 43.8111 211.215 L 44.6029 211.14 L 45.1678 210.903 L 45.5107 210.524 L 45.6217 210 L 45.5107 209.481 L 45.1678 209.102 L 44.6029 208.87 L 43.8111 208.79 L 43.0244 208.87 L 42.7117 208.966 L 42.4545 209.102 L 42.1116 209.481 L 41.9956 210 L 42.1116 210.524 L 42.4596 210.903 L 43.0244 211.14 L 43.8111 211.215 L 43.8111 211.215 z M 43.8111 210.731 L 43.2009 210.691 L 42.7622 210.565 L 42.5049 210.338 L 42.4142 210 L 42.5049 209.667 L 42.7622 209.44 L 43.2009 209.314 L 43.8111 209.274 L 44.4264 209.314 L 44.8652 209.44 L 45.1224 209.667 L 45.2081 210 L 45.1224 210.338 L 44.8652 210.565 L 44.4264 210.691 L 43.8111 210.731 L 43.8111 210.731 z M 43.8111 207.479 L 44.6029 207.404 L 45.1678 207.167 L 45.5107 206.788 L 45.6217 206.264 L 45.5107 205.745 L 45.1678 205.366 L 44.6029 205.134 L 43.8111 205.054 L 43.0244 205.134 L 42.7117 205.23 L 42.4545 205.366 L 42.1116 205.745 L 41.9956 206.264 L 42.1116 206.788 L 42.4596 207.167 L 43.0244 207.404 L 43.8111 207.479 L 43.8111 207.479 z M 43.8111 206.995 L 43.2009 206.955 L 42.7622 206.829 L 42.5049 206.602 L 42.4142 206.264 L 42.5049 205.931 L 42.7622 205.704 L 43.2009 205.578 L 43.8111 205.538 L 44.4264 205.578 L 44.8652 205.704 L 45.1224 205.931 L 45.2081 206.264 L 45.1224 206.602 L 44.8652 206.829 L 44.4264 206.955 L 43.8111 206.995 L 43.8111 206.995 z" stroke="none" fill-rule="evenodd" fill="rgb(0, 0, 0)"/><path d="M 47.0032 408.068 L 47.5208 410 L 48.0384 408.068"/><path d="M 48.0384 11.9319 L 47.5208 10 L 47.0032 11.9319"/><path d="M 47.5208 410 L 47.5208 10"/></g></svg>