<?xml version="1.0" encoding="utf-8" ?><!DOCTYPE svg PUBLIC "-//W3C//DTD SVG 1.1//EN" "http://www.w3.org/Graphics/SVG/1.1/DTD/svg11.dtd" 
[ <!ATTLIST svg 
  xmlns:dsy CDATA #FIXED "http://www.3ds.com/print"  
    dsy:text-version CDATA #IMPLIED > 

  <!ATTLIST text 
  xmlns:dsy CDATA #FIXED "http://www.3ds.com/print" 
    dsy:text-version CDATA #IMPLIED > 
]><svg xmlns="http://www.w3.org/2000/svg" xmlns:dsy="http://www.3ds.com/print" dsy:text-version="18000" width="210" height="297" viewBox="0 0 210 297" version="1.1"><g stroke="rgb(0, 0, 0)" stroke-width="0.13" stroke-linecap="butt" stroke-linejoin="miter" fill="none"><path d="M 68.05 146.5 L 68.05 91.3144"/><path d="M 141.95 146.5 L 141.95 91.3144"/></g><g stroke="rgb(0, 0, 0)" stroke-width="0.35" stroke-linecap="butt" stroke-linejoin="miter" fill="none"><path d="M 141.95 148.5 L 141.95 158.5"/><path d="M 141.95 158.5 L 135.95 158.5"/><path d="M 135.95 158.5 L 135.95 168.5"/><path d="M 135.95 168.5 L 68.05 168.5"/><path d="M 68.05 168.5 L 68.05 148.5"/><path d="M 68.05 128.5 L 68.05 148.5"/><path d="M 135.95 128.5 L 68.05 128.5"/><path d="M 135.95 138.5 L 135.95 128.5"/><path d="M 141.95 138.5 L 135.95 138.5"/><path d="M 141.95 148.5 L 141.95 138.5"/></g><g stroke="rgb(0, 0, 0)" stroke-width="0.13" stroke-linecap="butt" stroke-linejoin="miter" fill="none"><path d="M 98.695 91.3144 L 99.2043 91.3144 L 99.3708 90.4823 L 99.6633 89.7056 L 100.077 88.9844 L 100.616 88.3086 L 100.616 87.89 L 98.2159 87.89 L 98.2159 88.349 L 100.132 88.349 L 99.5775 89.0298 L 99.1589 89.7409 L 98.8664 90.4974 L 98.695 91.3144 L 98.695 91.3144 z M 101.861 90.215 L 101.861 90.2503 L 101.942 90.7344 L 102.179 91.0975 L 102.552 91.3295 L 103.046 91.4153 L 103.571 91.3295 L 103.964 91.1076 L 104.216 90.7546 L 104.307 90.3007 L 104.267 90.0032 L 104.156 89.7611 L 103.974 89.5745 L 103.732 89.4383 L 104.06 89.166 L 104.176 88.7323 L 104.1 88.3389 L 103.883 88.0413 L 103.53 87.8547 L 103.046 87.7892 L 102.592 87.8699 L 102.244 88.0918 L 102.017 88.4448 L 101.942 88.9138 L 101.942 88.9491 L 102.391 88.9491 L 102.431 88.6264 L 102.562 88.3944 L 102.774 88.2532 L 103.071 88.2027 L 103.334 88.2431 L 103.525 88.349 L 103.641 88.5204 L 103.687 88.7524 L 103.641 88.9996 L 103.52 89.166 L 103.309 89.2668 L 103.021 89.2971 L 102.824 89.2921 L 102.824 89.6905 L 103.071 89.6804 L 103.389 89.7258 L 103.626 89.8468 L 103.767 90.0435 L 103.818 90.3007 L 103.762 90.5932 L 103.616 90.8101 L 103.384 90.9462 L 103.077 90.9916 L 102.759 90.9412 L 102.527 90.7899 L 102.381 90.5478 L 102.325 90.215 L 101.861 90.215 L 101.861 90.215 z M 106.52 91.3144 L 107.216 91.3144 L 107.216 90.563 L 106.52 90.563 L 106.52 91.3144 L 106.52 91.3144 z M 109.394 90.447 L 109.469 90.8454 L 109.686 91.153 L 110.029 91.3447 L 110.483 91.4153 L 110.781 91.38 L 111.048 91.2892 L 111.275 91.1328 L 111.466 90.9109 L 111.618 90.6336 L 111.729 90.2906 L 111.794 89.8972 L 111.819 89.4434 L 111.734 88.7323 L 111.487 88.2128 L 111.093 87.9001 L 110.554 87.7892 L 110.059 87.88 L 109.686 88.122 L 109.444 88.4952 L 109.363 88.9642 L 109.444 89.4484 L 109.681 89.8166 L 110.034 90.0485 L 110.483 90.1242 L 110.957 90.0284 L 111.315 89.7359 L 111.234 90.2957 L 111.073 90.6941 L 110.826 90.9311 L 110.488 91.0068 L 110.226 90.9715 L 110.034 90.8605 L 109.908 90.684 L 109.858 90.447 L 109.394 90.447 L 109.394 90.447 z M 109.853 88.9592 L 109.903 88.6465 L 110.044 88.3994 L 110.266 88.2431 L 110.554 88.1876 L 110.851 88.2431 L 111.078 88.3994 L 111.219 88.6415 L 111.275 88.9542 L 111.219 89.2719 L 111.078 89.5089 L 110.846 89.6552 L 110.538 89.7056 L 110.261 89.6552 L 110.044 89.5089 L 109.903 89.2769 L 109.853 88.9592 L 109.853 88.9592 z" stroke="none" fill-rule="evenodd" fill="rgb(0, 0, 0)"/><path d="M 140.018 93.832 L 141.95 93.3144 L 140.018 92.7968"/><path d="M 69.9818 92.7968 L 68.05 93.3144 L 69.9818 93.832"/><path d="M 68.05 93.3144 L 141.95 93.3144"/></g></svg>