<?xml version="1.0" encoding="utf-8" ?><!DOCTYPE svg PUBLIC "-//W3C//DTD SVG 1.1//EN" "http://www.w3.org/Graphics/SVG/1.1/DTD/svg11.dtd" 
[ <!ATTLIST svg 
  xmlns:dsy CDATA #FIXED "http://www.3ds.com/print"  
    dsy:text-version CDATA #IMPLIED > 

  <!ATTLIST text 
  xmlns:dsy CDATA #FIXED "http://www.3ds.com/print" 
    dsy:text-version CDATA #IMPLIED > 
]><svg xmlns="http://www.w3.org/2000/svg" xmlns:dsy="http://www.3ds.com/print" dsy:text-version="18000" width="297" height="210" viewBox="0 0 297 210" version="1.1"><g stroke="rgb(0, 0, 0)" stroke-width="0.13" stroke-linecap="butt" stroke-linejoin="miter" fill="none"><path d="M 136.5 124 L 97.8243 124"/><path d="M 136.5 86 L 97.8243 86"/></g><g stroke="rgb(0, 0, 0)" stroke-width="0.35" stroke-linecap="butt" stroke-linejoin="miter" fill="none"><path d="M 138.5 105 L 138.5 124"/><path d="M 138.5 124 L 151.956 124"/><path d="M 151.956 124 L 157.956 124"/><path d="M 157.956 124 L 157.956 128"/><path d="M 158.5 128 L 157.956 128"/><path d="M 158.5 82 L 158.5 128"/><path d="M 157.956 82 L 158.5 82"/><path d="M 157.956 86 L 157.956 82"/><path d="M 151.956 86 L 157.956 86"/><path d="M 138.5 86 L 151.956 86"/><path d="M 138.5 105 L 138.5 86"/></g><g stroke="rgb(0, 0, 0)" stroke-width="0.13" stroke-linecap="butt" stroke-linejoin="miter" fill="none"><path d="M 96.7249 108.139 L 96.7602 108.139 L 97.2444 108.058 L 97.6075 107.821 L 97.8395 107.448 L 97.9252 106.954 L 97.8395 106.429 L 97.6176 106.036 L 97.2645 105.784 L 96.8106 105.693 L 96.5131 105.733 L 96.271 105.844 L 96.0844 106.026 L 95.9482 106.268 L 95.6759 105.94 L 95.2422 105.824 L 94.8488 105.9 L 94.5513 106.117 L 94.3647 106.47 L 94.2991 106.954 L 94.3798 107.408 L 94.6017 107.756 L 94.9547 107.983 L 95.4238 108.058 L 95.4591 108.058 L 95.4591 107.609 L 95.1363 107.569 L 94.9043 107.438 L 94.7631 107.226 L 94.7127 106.929 L 94.753 106.666 L 94.8589 106.475 L 95.0304 106.359 L 95.2624 106.313 L 95.5095 106.359 L 95.6759 106.48 L 95.7768 106.691 L 95.807 106.979 L 95.802 107.176 L 96.2004 107.176 L 96.1903 106.929 L 96.2357 106.611 L 96.3568 106.374 L 96.5534 106.233 L 96.8106 106.182 L 97.1031 106.238 L 97.32 106.384 L 97.4562 106.616 L 97.5016 106.923 L 97.4511 107.241 L 97.2998 107.473 L 97.0578 107.619 L 96.7249 107.675 L 96.7249 108.139 L 96.7249 108.139 z M 95.9382 103.757 L 96.0794 104.015 L 96.2761 104.191 L 96.5232 104.302 L 96.8207 104.337 L 97.2696 104.257 L 97.6176 104.025 L 97.8395 103.646 L 97.9252 103.132 L 97.8395 102.623 L 97.6176 102.244 L 97.2696 102.012 L 96.8207 101.927 L 96.5232 101.967 L 96.2761 102.073 L 96.0794 102.254 L 95.9382 102.507 L 95.8171 102.305 L 95.6507 102.164 L 95.449 102.078 L 95.2019 102.048 L 94.8438 102.128 L 94.5563 102.34 L 94.3697 102.683 L 94.2991 103.132 L 94.3697 103.586 L 94.5563 103.929 L 94.8438 104.146 L 95.2019 104.221 L 95.449 104.196 L 95.6507 104.11 L 95.9382 103.757 L 95.9382 103.757 z M 96.8106 103.853 L 96.5434 103.808 L 96.3416 103.662 L 96.2105 103.435 L 96.1651 103.132 L 96.2105 102.834 L 96.3416 102.607 L 96.5434 102.461 L 96.8106 102.411 L 97.0981 102.461 L 97.315 102.607 L 97.4562 102.834 L 97.5016 103.132 L 97.4562 103.435 L 97.315 103.662 L 97.0981 103.808 L 96.8106 103.853 L 96.8106 103.853 z M 95.2422 103.742 L 95.0203 103.702 L 94.8488 103.581 L 94.7429 103.389 L 94.7026 103.132 L 94.7429 102.88 L 94.8488 102.688 L 95.0203 102.567 L 95.2422 102.522 L 95.4691 102.567 L 95.6457 102.688 L 95.7617 102.88 L 95.797 103.132 L 95.7566 103.389 L 95.6457 103.581 L 95.4691 103.702 L 95.2422 103.742 L 95.2422 103.742 z" stroke="none" fill-rule="evenodd" fill="rgb(0, 0, 0)"/><path d="M 99.3067 122.068 L 99.8243 124 L 100.342 122.068"/><path d="M 100.342 87.9319 L 99.8243 86 L 99.3067 87.9319"/><path d="M 99.8243 124 L 99.8243 86"/></g></svg>