<?xml version="1.0" encoding="utf-8" ?><!DOCTYPE svg PUBLIC "-//W3C//DTD SVG 1.1//EN" "http://www.w3.org/Graphics/SVG/1.1/DTD/svg11.dtd" 
[ <!ATTLIST svg 
  xmlns:dsy CDATA #FIXED "http://www.3ds.com/print"  
    dsy:text-version CDATA #IMPLIED > 

  <!ATTLIST text 
  xmlns:dsy CDATA #FIXED "http://www.3ds.com/print" 
    dsy:text-version CDATA #IMPLIED > 
]><svg xmlns="http://www.w3.org/2000/svg" xmlns:dsy="http://www.3ds.com/print" dsy:text-version="18000" width="297" height="210" viewBox="0 0 297 210" version="1.1"><g stroke="rgb(0, 0, 0)" stroke-width="0.13" stroke-linecap="butt" stroke-linejoin="miter" fill="none"><path d="M 134 128 L 91.6893 128"/><path d="M 134 82 L 91.6893 82"/></g><g stroke="rgb(0, 0, 0)" stroke-width="0.35" stroke-linecap="butt" stroke-linejoin="miter" fill="none"><path d="M 161 105 L 161 124"/><path d="M 161 124 L 155.542 124"/><path d="M 155.542 124 L 149.542 124"/><path d="M 149.542 124 L 149.542 128"/><path d="M 136 128 L 149.542 128"/><path d="M 136 82 L 136 128"/><path d="M 149.542 82 L 136 82"/><path d="M 149.542 86 L 149.542 82"/><path d="M 155.542 86 L 149.542 86"/><path d="M 161 86 L 155.542 86"/><path d="M 161 105 L 161 86"/></g><g stroke="rgb(0, 0, 0)" stroke-width="0.13" stroke-linecap="butt" stroke-linejoin="miter" fill="none"><path d="M 91.6893 106.591 L 91.6893 106.137 L 90.8219 106.137 L 90.8219 105.637 L 90.4184 105.637 L 90.4184 106.137 L 88.265 106.137 L 88.265 106.596 L 90.3781 108.129 L 90.8219 108.129 L 90.8219 106.591 L 91.6893 106.591 L 91.6893 106.591 z M 90.4184 107.705 L 88.85 106.591 L 90.4184 106.591 L 90.4184 107.705 L 90.4184 107.705 z M 89.1324 101.922 L 88.7239 102.017 L 88.4213 102.239 L 88.2297 102.582 L 88.1641 103.026 L 88.1994 103.324 L 88.2952 103.581 L 88.4516 103.808 L 88.6735 103.999 L 88.9508 104.151 L 89.2887 104.262 L 89.6872 104.332 L 90.136 104.352 L 90.8521 104.272 L 91.3716 104.025 L 91.6843 103.626 L 91.7902 103.082 L 91.6994 102.592 L 91.4624 102.219 L 91.0892 101.977 L 90.6151 101.891 L 90.136 101.977 L 89.7678 102.209 L 89.5359 102.567 L 89.4552 103.011 L 89.556 103.49 L 89.8435 103.848 L 89.2887 103.772 L 88.8903 103.611 L 88.6533 103.364 L 88.5726 103.021 L 88.6129 102.769 L 88.7189 102.577 L 88.8954 102.451 L 89.1324 102.386 L 89.1324 101.922 L 89.1324 101.922 z M 90.6202 102.381 L 90.9379 102.436 L 91.1799 102.577 L 91.3413 102.804 L 91.3918 103.087 L 91.3413 103.384 L 91.185 103.611 L 90.9429 103.757 L 90.6252 103.803 L 90.3125 103.752 L 90.0755 103.611 L 89.9242 103.379 L 89.8687 103.066 L 89.9242 102.794 L 90.0704 102.577 L 90.3075 102.436 L 90.6202 102.381 L 90.6202 102.381 z" stroke="none" fill-rule="evenodd" fill="rgb(0, 0, 0)"/><path d="M 94.207 83.9319 L 93.6893 82 L 93.1717 83.9319"/><path d="M 93.1717 126.068 L 93.6893 128 L 94.207 126.068"/><path d="M 93.6893 128 L 93.6893 82"/></g></svg>