<?xml version="1.0" encoding="utf-8" ?><!DOCTYPE svg PUBLIC "-//W3C//DTD SVG 1.1//EN" "http://www.w3.org/Graphics/SVG/1.1/DTD/svg11.dtd" 
[ <!ATTLIST svg 
  xmlns:dsy CDATA #FIXED "http://www.3ds.com/print"  
    dsy:text-version CDATA #IMPLIED > 

  <!ATTLIST text 
  xmlns:dsy CDATA #FIXED "http://www.3ds.com/print" 
    dsy:text-version CDATA #IMPLIED > 
]><svg xmlns="http://www.w3.org/2000/svg" xmlns:dsy="http://www.3ds.com/print" dsy:text-version="18000" width="297" height="210" viewBox="0 0 297 210" version="1.1"><g stroke="rgb(0, 0, 0)" stroke-width="0.13" stroke-linecap="butt" stroke-linejoin="miter" fill="none"><path d="M 81 103 L 81 47.9124"/><path d="M 216 73 L 216 47.9124"/></g><g stroke="rgb(0, 0, 0)" stroke-width="0.35" stroke-linecap="butt" stroke-linejoin="miter" fill="none"><path d="M 81 105 L 81 125"/><path d="M 81 125 L 87 125"/><path d="M 87 125 L 87 135"/><path d="M 87 135 L 216 135"/><path d="M 216 135 L 216 105"/><path d="M 216 75 L 216 105"/><path d="M 87 75 L 216 75"/><path d="M 87 85 L 87 75"/><path d="M 81 85 L 87 85"/><path d="M 81 105 L 81 85"/></g><g stroke="rgb(0, 0, 0)" stroke-width="0.13" stroke-linecap="butt" stroke-linejoin="miter" fill="none"><path d="M 255.727 47.9124 L 256.185 47.9124 L 256.185 44.3872 L 255.843 44.3872 L 255.752 44.6948 L 255.57 44.9016 L 255.293 45.0226 L 254.91 45.063 L 254.91 45.4211 L 255.727 45.4211 L 255.727 47.9124 L 255.727 47.9124 z M 258.282 46.813 L 258.282 46.8483 L 258.363 47.3324 L 258.6 47.6956 L 258.973 47.9276 L 259.468 48.0133 L 259.992 47.9276 L 260.385 47.7056 L 260.638 47.3526 L 260.728 46.8987 L 260.688 46.6012 L 260.577 46.3591 L 260.396 46.1725 L 260.153 46.0363 L 260.481 45.764 L 260.597 45.3303 L 260.522 44.9369 L 260.305 44.6394 L 259.952 44.4528 L 259.468 44.3872 L 259.014 44.4679 L 258.666 44.6898 L 258.439 45.0428 L 258.363 45.5118 L 258.363 45.5471 L 258.812 45.5471 L 258.852 45.2244 L 258.983 44.9924 L 259.195 44.8512 L 259.493 44.8008 L 259.755 44.8411 L 259.947 44.947 L 260.063 45.1185 L 260.108 45.3504 L 260.063 45.5976 L 259.942 45.764 L 259.73 45.8649 L 259.442 45.8951 L 259.246 45.8901 L 259.246 46.2885 L 259.493 46.2784 L 259.811 46.3238 L 260.048 46.4448 L 260.189 46.6415 L 260.239 46.8987 L 260.184 47.1912 L 260.037 47.4081 L 259.805 47.5443 L 259.498 47.5896 L 259.18 47.5392 L 258.948 47.3879 L 258.802 47.1458 L 258.746 46.813 L 258.282 46.813 L 258.282 46.813 z M 262.039 46.9996 L 262.15 47.4131 L 262.397 47.7359 L 262.76 47.9376 L 263.224 48.0133 L 263.733 47.9225 L 264.132 47.6754 L 264.384 47.282 L 264.48 46.7777 L 264.394 46.3087 L 264.152 45.9405 L 263.773 45.7035 L 263.284 45.6178 L 262.906 45.6783 L 262.614 45.8447 L 262.755 44.9016 L 264.288 44.9016 L 264.288 44.4881 L 262.417 44.4881 L 262.139 46.344 L 262.543 46.344 L 262.835 46.1069 L 263.209 46.0212 L 263.531 46.0767 L 263.779 46.2381 L 263.935 46.4852 L 263.99 46.8029 L 263.935 47.1206 L 263.773 47.3678 L 263.526 47.5241 L 263.209 47.5796 L 262.941 47.5443 L 262.735 47.4283 L 262.583 47.2467 L 262.508 46.9996 L 262.039 46.9996 L 262.039 46.9996 z" stroke="none" fill-rule="evenodd" fill="rgb(0, 0, 0)"/><path d="M 214.068 50.4301 L 216 49.9124 L 214.068 49.3948"/><path d="M 82.9319 49.3948 L 81 49.9124 L 82.9319 50.4301"/><path d="M 81 49.9124 L 264.807 49.9124"/></g></svg>