G04 EAGLE Gerber RS-274X export*
G75*
%MOMM*%
%FSLAX34Y34*%
%LPD*%
%INBottom Copper*%
%IPPOS*%
%AMOC8*
5,1,8,0,0,1.08239X$1,22.5*%
G01*
%ADD10R,1.308000X1.308000*%
%ADD11C,1.308000*%
%ADD12R,1.258000X1.258000*%
%ADD13C,1.258000*%
%ADD14R,1.650000X1.650000*%
%ADD15C,1.650000*%
%ADD16C,1.358000*%
%ADD17P,1.732040X8X22.500000*%
%ADD18C,1.508000*%
%ADD19C,0.152400*%
%ADD20C,0.756400*%


D10*
X279400Y609600D03*
D11*
X329400Y609600D03*
D10*
X330200Y469900D03*
D11*
X330200Y419900D03*
D10*
X558800Y419100D03*
D11*
X608800Y419100D03*
D12*
X698500Y444500D03*
D13*
X698500Y424500D03*
D12*
X609600Y533400D03*
D13*
X609600Y513400D03*
D14*
X698500Y508000D03*
D15*
X698500Y533400D03*
D16*
X431800Y367900D03*
X431800Y317900D03*
D17*
X127000Y469900D03*
X736600Y292100D03*
X127000Y215900D03*
X482600Y292100D03*
X190500Y469900D03*
X190500Y647700D03*
D18*
X96440Y508000D02*
X81360Y508000D01*
X81360Y533400D02*
X96440Y533400D01*
X96440Y584200D02*
X81360Y584200D01*
X81360Y609600D02*
X96440Y609600D01*
D19*
X88900Y609600D02*
X88900Y584200D01*
X165100Y508000D01*
X165100Y254000D01*
D20*
X165100Y254000D03*
D19*
X279400Y431800D02*
X279400Y508000D01*
X279400Y431800D02*
X279400Y393700D01*
X279400Y508000D02*
X330200Y558800D01*
X316700Y469100D02*
X279400Y431800D01*
D20*
X279400Y393700D03*
D19*
X329400Y469100D02*
X330200Y469900D01*
X329400Y469100D02*
X316700Y469100D01*
X330200Y608800D02*
X329400Y609600D01*
X330200Y608800D02*
X330200Y558800D01*
D20*
X482600Y520700D03*
D19*
X457200Y546100D01*
X431800Y546100D01*
X406400Y571500D01*
X406400Y609600D01*
D20*
X406400Y609600D03*
X508000Y482600D03*
X546100Y520700D03*
D19*
X508000Y482600D01*
D20*
X444500Y609600D03*
X444500Y571500D03*
D19*
X444500Y609600D01*
D20*
X457200Y533400D03*
X457200Y469900D03*
D19*
X457200Y533400D01*
X673100Y533400D02*
X698500Y533400D01*
X673100Y533400D02*
X558800Y419100D01*
D20*
X228600Y228600D03*
X431800Y190500D03*
D19*
X419100Y203200D01*
X254000Y203200D01*
X228600Y228600D01*
D20*
X431800Y215900D03*
X546100Y190500D03*
D19*
X431800Y203200D02*
X431800Y215900D01*
X431800Y203200D02*
X533400Y203200D01*
X546100Y190500D01*
D20*
X457200Y241300D03*
X393700Y292100D03*
D19*
X431800Y241300D02*
X457200Y241300D01*
X431800Y241300D02*
X393700Y279400D01*
X393700Y292100D01*
M02*
