G04 EAGLE Gerber RS-274X export*
G75*
%MOMM*%
%FSLAX34Y34*%
%LPD*%
%IN*%
%IPPOS*%
%AMOC8*
5,1,8,0,0,1.08239X$1,22.5*%
G01*
%ADD10C,0.254000*%


D10*
X50800Y139700D02*
X800100Y139700D01*
X800100Y698500D01*
X50800Y698500D01*
X50800Y139700D01*
X92200Y672576D02*
X92132Y671531D01*
X91995Y670492D01*
X91790Y669465D01*
X91519Y668453D01*
X91183Y667461D01*
X90782Y666493D01*
X90318Y665554D01*
X89795Y664646D01*
X89213Y663775D01*
X88575Y662944D01*
X87884Y662157D01*
X87143Y661416D01*
X86356Y660725D01*
X85525Y660088D01*
X84654Y659506D01*
X83746Y658982D01*
X82807Y658518D01*
X81839Y658117D01*
X80847Y657781D01*
X79835Y657510D01*
X78808Y657305D01*
X77769Y657169D01*
X76724Y657100D01*
X75676Y657100D01*
X74631Y657169D01*
X73592Y657305D01*
X72565Y657510D01*
X71553Y657781D01*
X70561Y658117D01*
X69593Y658518D01*
X68654Y658982D01*
X67746Y659506D01*
X66875Y660088D01*
X66044Y660725D01*
X65257Y661416D01*
X64516Y662157D01*
X63825Y662944D01*
X63188Y663775D01*
X62606Y664646D01*
X62082Y665554D01*
X61618Y666493D01*
X61217Y667461D01*
X60881Y668453D01*
X60610Y669465D01*
X60405Y670492D01*
X60269Y671531D01*
X60200Y672576D01*
X60200Y673624D01*
X60269Y674669D01*
X60405Y675708D01*
X60610Y676735D01*
X60881Y677747D01*
X61217Y678739D01*
X61618Y679707D01*
X62082Y680646D01*
X62606Y681554D01*
X63188Y682425D01*
X63825Y683256D01*
X64516Y684043D01*
X65257Y684784D01*
X66044Y685475D01*
X66875Y686113D01*
X67746Y686695D01*
X68654Y687218D01*
X69593Y687682D01*
X70561Y688083D01*
X71553Y688419D01*
X72565Y688690D01*
X73592Y688895D01*
X74631Y689032D01*
X75676Y689100D01*
X76724Y689100D01*
X77769Y689032D01*
X78808Y688895D01*
X79835Y688690D01*
X80847Y688419D01*
X81839Y688083D01*
X82807Y687682D01*
X83746Y687218D01*
X84654Y686695D01*
X85525Y686113D01*
X86356Y685475D01*
X87143Y684784D01*
X87884Y684043D01*
X88575Y683256D01*
X89213Y682425D01*
X89795Y681554D01*
X90318Y680646D01*
X90782Y679707D01*
X91183Y678739D01*
X91519Y677747D01*
X91790Y676735D01*
X91995Y675708D01*
X92132Y674669D01*
X92200Y673624D01*
X92200Y672576D01*
X92200Y164576D02*
X92132Y163531D01*
X91995Y162492D01*
X91790Y161465D01*
X91519Y160453D01*
X91183Y159461D01*
X90782Y158493D01*
X90318Y157554D01*
X89795Y156646D01*
X89213Y155775D01*
X88575Y154944D01*
X87884Y154157D01*
X87143Y153416D01*
X86356Y152725D01*
X85525Y152088D01*
X84654Y151506D01*
X83746Y150982D01*
X82807Y150518D01*
X81839Y150117D01*
X80847Y149781D01*
X79835Y149510D01*
X78808Y149305D01*
X77769Y149169D01*
X76724Y149100D01*
X75676Y149100D01*
X74631Y149169D01*
X73592Y149305D01*
X72565Y149510D01*
X71553Y149781D01*
X70561Y150117D01*
X69593Y150518D01*
X68654Y150982D01*
X67746Y151506D01*
X66875Y152088D01*
X66044Y152725D01*
X65257Y153416D01*
X64516Y154157D01*
X63825Y154944D01*
X63188Y155775D01*
X62606Y156646D01*
X62082Y157554D01*
X61618Y158493D01*
X61217Y159461D01*
X60881Y160453D01*
X60610Y161465D01*
X60405Y162492D01*
X60269Y163531D01*
X60200Y164576D01*
X60200Y165624D01*
X60269Y166669D01*
X60405Y167708D01*
X60610Y168735D01*
X60881Y169747D01*
X61217Y170739D01*
X61618Y171707D01*
X62082Y172646D01*
X62606Y173554D01*
X63188Y174425D01*
X63825Y175256D01*
X64516Y176043D01*
X65257Y176784D01*
X66044Y177475D01*
X66875Y178113D01*
X67746Y178695D01*
X68654Y179218D01*
X69593Y179682D01*
X70561Y180083D01*
X71553Y180419D01*
X72565Y180690D01*
X73592Y180895D01*
X74631Y181032D01*
X75676Y181100D01*
X76724Y181100D01*
X77769Y181032D01*
X78808Y180895D01*
X79835Y180690D01*
X80847Y180419D01*
X81839Y180083D01*
X82807Y179682D01*
X83746Y179218D01*
X84654Y178695D01*
X85525Y178113D01*
X86356Y177475D01*
X87143Y176784D01*
X87884Y176043D01*
X88575Y175256D01*
X89213Y174425D01*
X89795Y173554D01*
X90318Y172646D01*
X90782Y171707D01*
X91183Y170739D01*
X91519Y169747D01*
X91790Y168735D01*
X91995Y167708D01*
X92132Y166669D01*
X92200Y165624D01*
X92200Y164576D01*
X790700Y164576D02*
X790632Y163531D01*
X790495Y162492D01*
X790290Y161465D01*
X790019Y160453D01*
X789683Y159461D01*
X789282Y158493D01*
X788818Y157554D01*
X788295Y156646D01*
X787713Y155775D01*
X787075Y154944D01*
X786384Y154157D01*
X785643Y153416D01*
X784856Y152725D01*
X784025Y152088D01*
X783154Y151506D01*
X782246Y150982D01*
X781307Y150518D01*
X780339Y150117D01*
X779347Y149781D01*
X778335Y149510D01*
X777308Y149305D01*
X776269Y149169D01*
X775224Y149100D01*
X774176Y149100D01*
X773131Y149169D01*
X772092Y149305D01*
X771065Y149510D01*
X770053Y149781D01*
X769061Y150117D01*
X768093Y150518D01*
X767154Y150982D01*
X766246Y151506D01*
X765375Y152088D01*
X764544Y152725D01*
X763757Y153416D01*
X763016Y154157D01*
X762325Y154944D01*
X761688Y155775D01*
X761106Y156646D01*
X760582Y157554D01*
X760118Y158493D01*
X759717Y159461D01*
X759381Y160453D01*
X759110Y161465D01*
X758905Y162492D01*
X758769Y163531D01*
X758700Y164576D01*
X758700Y165624D01*
X758769Y166669D01*
X758905Y167708D01*
X759110Y168735D01*
X759381Y169747D01*
X759717Y170739D01*
X760118Y171707D01*
X760582Y172646D01*
X761106Y173554D01*
X761688Y174425D01*
X762325Y175256D01*
X763016Y176043D01*
X763757Y176784D01*
X764544Y177475D01*
X765375Y178113D01*
X766246Y178695D01*
X767154Y179218D01*
X768093Y179682D01*
X769061Y180083D01*
X770053Y180419D01*
X771065Y180690D01*
X772092Y180895D01*
X773131Y181032D01*
X774176Y181100D01*
X775224Y181100D01*
X776269Y181032D01*
X777308Y180895D01*
X778335Y180690D01*
X779347Y180419D01*
X780339Y180083D01*
X781307Y179682D01*
X782246Y179218D01*
X783154Y178695D01*
X784025Y178113D01*
X784856Y177475D01*
X785643Y176784D01*
X786384Y176043D01*
X787075Y175256D01*
X787713Y174425D01*
X788295Y173554D01*
X788818Y172646D01*
X789282Y171707D01*
X789683Y170739D01*
X790019Y169747D01*
X790290Y168735D01*
X790495Y167708D01*
X790632Y166669D01*
X790700Y165624D01*
X790700Y164576D01*
X790700Y672576D02*
X790632Y671531D01*
X790495Y670492D01*
X790290Y669465D01*
X790019Y668453D01*
X789683Y667461D01*
X789282Y666493D01*
X788818Y665554D01*
X788295Y664646D01*
X787713Y663775D01*
X787075Y662944D01*
X786384Y662157D01*
X785643Y661416D01*
X784856Y660725D01*
X784025Y660088D01*
X783154Y659506D01*
X782246Y658982D01*
X781307Y658518D01*
X780339Y658117D01*
X779347Y657781D01*
X778335Y657510D01*
X777308Y657305D01*
X776269Y657169D01*
X775224Y657100D01*
X774176Y657100D01*
X773131Y657169D01*
X772092Y657305D01*
X771065Y657510D01*
X770053Y657781D01*
X769061Y658117D01*
X768093Y658518D01*
X767154Y658982D01*
X766246Y659506D01*
X765375Y660088D01*
X764544Y660725D01*
X763757Y661416D01*
X763016Y662157D01*
X762325Y662944D01*
X761688Y663775D01*
X761106Y664646D01*
X760582Y665554D01*
X760118Y666493D01*
X759717Y667461D01*
X759381Y668453D01*
X759110Y669465D01*
X758905Y670492D01*
X758769Y671531D01*
X758700Y672576D01*
X758700Y673624D01*
X758769Y674669D01*
X758905Y675708D01*
X759110Y676735D01*
X759381Y677747D01*
X759717Y678739D01*
X760118Y679707D01*
X760582Y680646D01*
X761106Y681554D01*
X761688Y682425D01*
X762325Y683256D01*
X763016Y684043D01*
X763757Y684784D01*
X764544Y685475D01*
X765375Y686113D01*
X766246Y686695D01*
X767154Y687218D01*
X768093Y687682D01*
X769061Y688083D01*
X770053Y688419D01*
X771065Y688690D01*
X772092Y688895D01*
X773131Y689032D01*
X774176Y689100D01*
X775224Y689100D01*
X776269Y689032D01*
X777308Y688895D01*
X778335Y688690D01*
X779347Y688419D01*
X780339Y688083D01*
X781307Y687682D01*
X782246Y687218D01*
X783154Y686695D01*
X784025Y686113D01*
X784856Y685475D01*
X785643Y684784D01*
X786384Y684043D01*
X787075Y683256D01*
X787713Y682425D01*
X788295Y681554D01*
X788818Y680646D01*
X789282Y679707D01*
X789683Y678739D01*
X790019Y677747D01*
X790290Y676735D01*
X790495Y675708D01*
X790632Y674669D01*
X790700Y673624D01*
X790700Y672576D01*
M02*
