G04 EAGLE Gerber RS-274X export*
G75*
%MOMM*%
%FSLAX34Y34*%
%LPD*%
%INSolderpaste Top*%
%IPPOS*%
%AMOC8*
5,1,8,0,0,1.08239X$1,22.5*%
G01*
%ADD10R,2.220000X1.510000*%
%ADD11R,1.510000X2.220000*%
%ADD12R,1.500000X1.300000*%
%ADD13R,1.470000X1.020000*%
%ADD14R,0.600000X1.150000*%
%ADD15R,1.525000X0.650000*%
%ADD16R,1.400000X0.570000*%
%ADD17R,1.200000X0.650000*%
%ADD18R,3.150000X2.000000*%
%ADD19R,0.750000X1.250000*%
%ADD20R,1.550000X2.200000*%
%ADD21R,1.250000X0.750000*%
%ADD22R,2.200000X1.550000*%
%ADD23R,1.100000X1.000000*%
%ADD24R,1.000000X1.100000*%
%ADD25R,2.000000X1.600000*%
%ADD26R,1.600000X2.000000*%
%ADD27R,1.600000X1.300000*%
%ADD28R,1.300000X1.600000*%


D10*
X203200Y284300D03*
X203200Y325300D03*
D11*
X299900Y279400D03*
X258900Y279400D03*
D12*
X406400Y644500D03*
X406400Y625500D03*
D13*
X622300Y576200D03*
X622300Y592200D03*
D14*
X466700Y216200D03*
X457200Y216200D03*
X447700Y216200D03*
X447700Y190200D03*
X466700Y190200D03*
D15*
X484320Y412750D03*
X484320Y425450D03*
X484320Y438150D03*
X484320Y450850D03*
X484320Y463550D03*
X484320Y476250D03*
X484320Y488950D03*
X484320Y501650D03*
X430080Y501650D03*
X430080Y488950D03*
X430080Y476250D03*
X430080Y463550D03*
X430080Y450850D03*
X430080Y438150D03*
X430080Y425450D03*
X430080Y412750D03*
D16*
X683750Y611900D03*
D17*
X682750Y596900D03*
D16*
X683750Y581900D03*
D18*
X704500Y596900D03*
D19*
X482600Y555000D03*
X482600Y588000D03*
D20*
X546100Y592000D03*
X546100Y551000D03*
D21*
X626100Y635000D03*
X593100Y635000D03*
D22*
X512900Y635000D03*
X553900Y635000D03*
D17*
X421300Y276300D03*
X421300Y257100D03*
X442300Y266700D03*
D23*
X355600Y287900D03*
X355600Y270900D03*
D24*
X211700Y190500D03*
X194700Y190500D03*
X262500Y190500D03*
X245500Y190500D03*
X313300Y190500D03*
X296300Y190500D03*
X364100Y190500D03*
X347100Y190500D03*
X414900Y190500D03*
X397900Y190500D03*
X414900Y228600D03*
X397900Y228600D03*
X364100Y228600D03*
X347100Y228600D03*
X313300Y228600D03*
X296300Y228600D03*
X262500Y228600D03*
X245500Y228600D03*
D25*
X228600Y417800D03*
X228600Y445800D03*
D24*
X211700Y228600D03*
X194700Y228600D03*
X529200Y228600D03*
X512200Y228600D03*
X580000Y228600D03*
X563000Y228600D03*
X630800Y228600D03*
X613800Y228600D03*
X681600Y228600D03*
X664600Y228600D03*
X732400Y228600D03*
X715400Y228600D03*
X732400Y190500D03*
X715400Y190500D03*
X681600Y190500D03*
X664600Y190500D03*
X630800Y190500D03*
X613800Y190500D03*
X580000Y190500D03*
X563000Y190500D03*
D26*
X229900Y368300D03*
X201900Y368300D03*
D24*
X529200Y190500D03*
X512200Y190500D03*
D26*
X280700Y330200D03*
X252700Y330200D03*
X356900Y330200D03*
X328900Y330200D03*
D27*
X457200Y644500D03*
X457200Y625500D03*
D28*
X441300Y546100D03*
X422300Y546100D03*
D27*
X393700Y593700D03*
X393700Y574700D03*
M02*
