G04 EAGLE Gerber RS-274X export*
G75*
%MOMM*%
%FSLAX34Y34*%
%LPD*%
%INSoldermask Top*%
%IPPOS*%
%AMOC8*
5,1,8,0,0,1.08239X$1,22.5*%
G01*
%ADD10C,3.403200*%
%ADD11R,2.423200X1.713200*%
%ADD12R,1.713200X2.423200*%
%ADD13R,1.511200X1.511200*%
%ADD14C,1.511200*%
%ADD15R,1.461200X1.461200*%
%ADD16C,1.461200*%
%ADD17R,1.703200X1.503200*%
%ADD18R,1.673200X1.223200*%
%ADD19R,0.803200X1.353200*%
%ADD20R,1.728200X0.853200*%
%ADD21R,1.603200X0.773200*%
%ADD22R,1.403200X0.853200*%
%ADD23R,3.353200X2.203200*%
%ADD24R,0.953200X1.453200*%
%ADD25R,1.753200X2.403200*%
%ADD26R,1.453200X0.953200*%
%ADD27R,2.403200X1.753200*%
%ADD28R,1.853200X1.853200*%
%ADD29C,1.853200*%
%ADD30C,1.561200*%
%ADD31P,1.951982X8X22.500000*%
%ADD32R,1.203200X1.303200*%
%ADD33R,2.203200X1.803200*%
%ADD34R,1.803200X2.203200*%
%ADD35R,1.803200X1.503200*%
%ADD36R,1.503200X1.803200*%
%ADD37C,1.711200*%
%ADD38C,0.959600*%


D10*
X76200Y673100D03*
X76200Y165100D03*
X774700Y165100D03*
X774700Y673100D03*
D11*
X203200Y284300D03*
X203200Y325300D03*
D12*
X299900Y279400D03*
X258900Y279400D03*
D13*
X279400Y609600D03*
D14*
X329400Y609600D03*
D13*
X330200Y469900D03*
D14*
X330200Y419900D03*
D13*
X558800Y419100D03*
D14*
X608800Y419100D03*
D15*
X698500Y444500D03*
D16*
X698500Y424500D03*
D17*
X406400Y644500D03*
X406400Y625500D03*
D18*
X622300Y576200D03*
X622300Y592200D03*
D15*
X609600Y533400D03*
D16*
X609600Y513400D03*
D19*
X466700Y216200D03*
X457200Y216200D03*
X447700Y216200D03*
X447700Y190200D03*
X466700Y190200D03*
D20*
X484320Y412750D03*
X484320Y425450D03*
X484320Y438150D03*
X484320Y450850D03*
X484320Y463550D03*
X484320Y476250D03*
X484320Y488950D03*
X484320Y501650D03*
X430080Y501650D03*
X430080Y488950D03*
X430080Y476250D03*
X430080Y463550D03*
X430080Y450850D03*
X430080Y438150D03*
X430080Y425450D03*
X430080Y412750D03*
D21*
X683750Y611900D03*
D22*
X682750Y596900D03*
D21*
X683750Y581900D03*
D23*
X704500Y596900D03*
D24*
X482600Y555000D03*
X482600Y588000D03*
D25*
X546100Y592000D03*
X546100Y551000D03*
D26*
X626100Y635000D03*
X593100Y635000D03*
D27*
X512900Y635000D03*
X553900Y635000D03*
D28*
X698500Y508000D03*
D29*
X698500Y533400D03*
D30*
X431800Y367900D03*
X431800Y317900D03*
D22*
X421300Y276300D03*
X421300Y257100D03*
X442300Y266700D03*
D31*
X127000Y469900D03*
X736600Y292100D03*
X127000Y215900D03*
D32*
X211700Y190500D03*
X194700Y190500D03*
X262500Y190500D03*
X245500Y190500D03*
X313300Y190500D03*
X296300Y190500D03*
X364100Y190500D03*
X347100Y190500D03*
X414900Y190500D03*
X397900Y190500D03*
X414900Y228600D03*
X397900Y228600D03*
X364100Y228600D03*
X347100Y228600D03*
X313300Y228600D03*
X296300Y228600D03*
X262500Y228600D03*
X245500Y228600D03*
D33*
X228600Y417800D03*
X228600Y445800D03*
D32*
X211700Y228600D03*
X194700Y228600D03*
X529200Y228600D03*
X512200Y228600D03*
X580000Y228600D03*
X563000Y228600D03*
X630800Y228600D03*
X613800Y228600D03*
X681600Y228600D03*
X664600Y228600D03*
X732400Y228600D03*
X715400Y228600D03*
X732400Y190500D03*
X715400Y190500D03*
X681600Y190500D03*
X664600Y190500D03*
X630800Y190500D03*
X613800Y190500D03*
X580000Y190500D03*
X563000Y190500D03*
D34*
X229900Y368300D03*
X201900Y368300D03*
D32*
X529200Y190500D03*
X512200Y190500D03*
D34*
X280700Y330200D03*
X252700Y330200D03*
X356900Y330200D03*
X328900Y330200D03*
D35*
X457200Y644500D03*
X457200Y625500D03*
D36*
X441300Y546100D03*
X422300Y546100D03*
D35*
X393700Y593700D03*
X393700Y574700D03*
D31*
X482600Y292100D03*
X190500Y469900D03*
X190500Y647700D03*
D37*
X96440Y508000D02*
X81360Y508000D01*
X81360Y533400D02*
X96440Y533400D01*
X96440Y584200D02*
X81360Y584200D01*
X81360Y609600D02*
X96440Y609600D01*
D32*
X347100Y266700D03*
X364100Y266700D03*
D38*
X165100Y254000D03*
X279400Y393700D03*
X482600Y520700D03*
X406400Y609600D03*
X508000Y482600D03*
X546100Y520700D03*
X444500Y609600D03*
X444500Y571500D03*
X457200Y533400D03*
X457200Y469900D03*
X228600Y228600D03*
X431800Y190500D03*
X431800Y215900D03*
X546100Y190500D03*
M02*
