G04 EAGLE Gerber RS-274X export*
G75*
%MOMM*%
%FSLAX34Y34*%
%LPD*%
%INSoldermask Bottom*%
%IPPOS*%
%AMOC8*
5,1,8,0,0,1.08239X$1,22.5*%
G01*
%ADD10C,3.403200*%
%ADD11R,1.511200X1.511200*%
%ADD12C,1.511200*%
%ADD13R,1.461200X1.461200*%
%ADD14C,1.461200*%
%ADD15R,1.853200X1.853200*%
%ADD16C,1.853200*%
%ADD17C,1.561200*%
%ADD18P,1.951982X8X22.500000*%
%ADD19C,1.711200*%
%ADD20C,0.959600*%


D10*
X76200Y673100D03*
X76200Y165100D03*
X774700Y165100D03*
X774700Y673100D03*
D11*
X279400Y609600D03*
D12*
X329400Y609600D03*
D11*
X330200Y469900D03*
D12*
X330200Y419900D03*
D11*
X558800Y419100D03*
D12*
X608800Y419100D03*
D13*
X698500Y444500D03*
D14*
X698500Y424500D03*
D13*
X609600Y533400D03*
D14*
X609600Y513400D03*
D15*
X698500Y508000D03*
D16*
X698500Y533400D03*
D17*
X431800Y367900D03*
X431800Y317900D03*
D18*
X127000Y469900D03*
X736600Y292100D03*
X127000Y215900D03*
X482600Y292100D03*
X190500Y469900D03*
X190500Y647700D03*
D19*
X96440Y508000D02*
X81360Y508000D01*
X81360Y533400D02*
X96440Y533400D01*
X96440Y584200D02*
X81360Y584200D01*
X81360Y609600D02*
X96440Y609600D01*
D20*
X165100Y254000D03*
X279400Y393700D03*
X482600Y520700D03*
X406400Y609600D03*
X508000Y482600D03*
X546100Y520700D03*
X444500Y609600D03*
X444500Y571500D03*
X457200Y533400D03*
X457200Y469900D03*
X228600Y228600D03*
X431800Y190500D03*
X431800Y215900D03*
X546100Y190500D03*
X457200Y241300D03*
X393700Y292100D03*
M02*
