M48
;GenerationSoftware,Autodesk,EAGLE,9.6.2*%
;CreationDate,2021-12-28T11:29:59Z*%
FMAT,2
ICI,OFF
METRIC,TZ,000.000
T4C0.350
T3C0.750
T2C1.000
T1C3.200
%
G90
M71
T1
X96520Y77470
X96520Y2540
X5080Y2540
X5080Y77470
T2
X10160Y24130
X68580Y72390
X10160Y21590
X10160Y19050
X10160Y16510
X10160Y13970
X10160Y11430
X91440Y22860
X91440Y20320
X91440Y17780
X91440Y15240
X91440Y12700
X91440Y10160
X12700Y5080
X15240Y5080
X19050Y5080
X21590Y5080
X48260Y19050
X48260Y21590
X48260Y24130
X12700Y27940
X48260Y31750
X48260Y34290
X48260Y36830
X48260Y39370
X48260Y41910
X48260Y44450
X48260Y46990
X48260Y49530
X91440Y27940
X88900Y27940
X91440Y30480
X88900Y30480
X91440Y33020
X88900Y33020
X91440Y35560
X88900Y35560
X91440Y38100
X88900Y38100
X91440Y40640
X88900Y40640
X91440Y43180
X88900Y43180
X91440Y45720
X88900Y45720
X91440Y48260
X88900Y48260
X91440Y50800
X88900Y50800
X91440Y53340
X88900Y53340
X91440Y55880
X88900Y55880
X91440Y58420
X88900Y58420
X91440Y60960
X88900Y60960
X91440Y63500
X88900Y63500
X91440Y66040
X88900Y66040
X91440Y68580
X88900Y68580
X91440Y71120
X88900Y71120
X91440Y73660
X88900Y73660
X91440Y76200
X88900Y76200
X10160Y76200
X12700Y76200
X10160Y73660
X12700Y73660
X10160Y71120
X12700Y71120
X10160Y68580
X12700Y68580
X10160Y66040
X12700Y66040
X10160Y63500
X12700Y63500
X10160Y60960
X12700Y60960
X10160Y58420
X12700Y58420
X10160Y55880
X12700Y55880
X10160Y53340
X12700Y53340
X10160Y50800
X12700Y50800
X10160Y48260
X12700Y48260
X10160Y45720
X12700Y45720
X10160Y43180
X12700Y43180
X10160Y40640
X12700Y40640
X10160Y38100
X12700Y38100
X10160Y35560
X12700Y35560
X10160Y33020
X12700Y33020
X10160Y30480
X12700Y30480
X10160Y27940
X48260Y26670
X68580Y77470
X68580Y74930
X48260Y29210
X68580Y69850
X68580Y67310
X68580Y64770
X68580Y62230
X68580Y59690
X68580Y57150
X68580Y54610
X68580Y52070
X68580Y49530
X68580Y46990
X68580Y44450
X68580Y41910
X68580Y39370
X68580Y36830
X68580Y34290
X68580Y31750
X68580Y29210
X68580Y26670
X68580Y24130
X68580Y21590
X68580Y19050
X53340Y19050
X53340Y21590
X53340Y24130
X53340Y26670
X53340Y29210
X53340Y31750
X53340Y34290
X53340Y36830
X53340Y39370
X53340Y41910
X53340Y44450
X53340Y46990
X53340Y49530
X53340Y52070
X53340Y54610
X53340Y57150
X53340Y59690
X53340Y62230
X53340Y64770
X53340Y67310
X53340Y69850
X53340Y72390
X53340Y74930
X53340Y77470
X33020Y19050
X33020Y21590
X33020Y24130
X33020Y26670
X33020Y29210
X33020Y31750
X33020Y34290
X33020Y36830
X33020Y39370
X33020Y41910
X33020Y44450
X33020Y46990
X33020Y49530
X33020Y52070
X33020Y54610
X33020Y57150
X33020Y59690
X33020Y62230
X33020Y64770
X33020Y67310
X33020Y69850
X33020Y72390
X33020Y74930
X33020Y77470
X48260Y77470
X48260Y74930
X48260Y72390
X48260Y69850
X48260Y67310
X48260Y64770
X48260Y62230
X48260Y59690
X48260Y57150
X48260Y54610
X48260Y52070
T3
X49530Y7080
X49530Y5080
X69850Y7080
X69850Y5080
X59690Y7080
X59690Y5080
X33020Y7080
X33020Y5080
T4
X78740Y58420
X78740Y50800
X78740Y31750
X78740Y36830
X78740Y44450
X60960Y60960
X72390Y11430
X55880Y11430
X67310Y8890
X29210Y10160
X12700Y15240
X58420Y21590
X63500Y21590
X12700Y20320
X15240Y13970
X58420Y19050
X63500Y19050
X29210Y77470
X78740Y69850
X78740Y64770
X78740Y25400
M30