<?xml version="1.0" encoding="utf-8" ?><!DOCTYPE svg PUBLIC "-//W3C//DTD SVG 1.1//EN" "http://www.w3.org/Graphics/SVG/1.1/DTD/svg11.dtd" 
[ <!ATTLIST svg 
  xmlns:dsy CDATA #FIXED "http://www.3ds.com/print"  
    dsy:text-version CDATA #IMPLIED > 

  <!ATTLIST text 
  xmlns:dsy CDATA #FIXED "http://www.3ds.com/print" 
    dsy:text-version CDATA #IMPLIED > 
]><svg xmlns="http://www.w3.org/2000/svg" xmlns:dsy="http://www.3ds.com/print" dsy:text-version="18000" width="594" height="420" viewBox="0 0 594 420" version="1.1"><g stroke="rgb(0, 0, 0)" stroke-width="0.35" stroke-linecap="butt" stroke-linejoin="miter" fill="none"><path d="M 210.158 18.0967 L 183.005 360.107"/><path d="M 183.005 360.107 L 182.365 368.167"/><path d="M 219.462 388.167 L 182.365 368.167"/><path d="M 476.699 130.409 L 219.462 388.167"/><circle cx="212.651" cy="366.007" r="4"/><circle cx="274.899" cy="238.923" r="4"/><path d="M 220.448 37.35 A 3.00006 3.00006 0 0 0 225.681 40.2867"/><path d="M 220.441 37.3637 A 3.00006 3.00006 0 1 0 225.673 40.3003"/><path d="M 225.673 40.3003 A 3 3 0 0 0 222.813 35.842"/><path d="M 222.813 35.842 A 3.00006 3.00006 0 0 0 220.441 37.3638"/><path d="M 448.873 138.949 A 3.00006 3.00006 0 0 0 454.105 141.886"/><path d="M 448.865 138.963 A 3.00006 3.00006 0 1 0 454.097 141.9"/><path d="M 454.097 141.899 A 3 3 0 0 0 451.237 137.441"/><path d="M 451.237 137.441 A 3.00006 3.00006 0 0 0 448.865 138.963"/><path d="M 282.399 143.137 L 282.925 142.964"/><path d="M 281.815 143.224 L 282.399 143.137"/><path d="M 281.354 143.425 L 281.815 143.224"/><path d="M 281.239 143.606 L 281.354 143.425"/><path d="M 281.21 143.858 L 281.239 143.606"/><path d="M 281.246 144.139 L 281.21 143.858"/><path d="M 281.368 144.34 L 281.246 144.139"/><path d="M 281.563 144.456 L 281.368 144.34"/><path d="M 281.837 144.492 L 281.563 144.456"/><path d="M 282.262 144.427 L 281.837 144.492"/><path d="M 282.608 144.24 L 282.262 144.427"/><path d="M 282.838 143.951 L 282.608 144.24"/><path d="M 282.925 143.577 L 282.838 143.951"/><path d="M 282.925 142.964 L 282.925 143.577"/><path d="M 290.05 144.117 L 289.856 143.642"/><path d="M 290.353 144.405 L 290.05 144.117"/><path d="M 290.756 144.499 L 290.353 144.405"/><path d="M 291.181 144.405 L 290.756 144.499"/><path d="M 291.498 144.117 L 291.181 144.405"/><path d="M 291.693 143.649 L 291.498 144.117"/><path d="M 291.765 142.993 L 291.693 143.649"/><path d="M 291.693 142.352 L 291.765 142.993"/><path d="M 291.498 141.876 L 291.693 142.352"/><path d="M 291.181 141.595 L 291.498 141.876"/><path d="M 290.756 141.495 L 291.181 141.595"/><path d="M 290.353 141.595 L 290.756 141.495"/><path d="M 290.05 141.876 L 290.353 141.595"/><path d="M 289.856 142.352 L 290.05 141.876"/><path d="M 289.791 142.993 L 289.856 142.352"/><path d="M 289.856 143.642 L 289.791 142.993"/><path d="M 300.417 142.15 L 300.482 142.647"/><path d="M 300.237 141.783 L 300.417 142.15"/><path d="M 299.942 141.559 L 300.237 141.783"/><path d="M 299.56 141.48 L 299.942 141.559"/><path d="M 299.171 141.559 L 299.56 141.48"/><path d="M 298.876 141.783 L 299.171 141.559"/><path d="M 298.681 142.15 L 298.876 141.783"/><path d="M 298.602 142.647 L 298.681 142.15"/><path d="M 300.482 142.647 L 298.602 142.647"/><path d="M 308.422 143.137 L 308.948 142.964"/><path d="M 307.838 143.224 L 308.422 143.137"/><path d="M 307.377 143.425 L 307.838 143.224"/><path d="M 307.262 143.606 L 307.377 143.425"/><path d="M 307.233 143.858 L 307.262 143.606"/><path d="M 307.269 144.139 L 307.233 143.858"/><path d="M 307.392 144.34 L 307.269 144.139"/><path d="M 307.586 144.456 L 307.392 144.34"/><path d="M 307.86 144.492 L 307.586 144.456"/><path d="M 308.285 144.427 L 307.86 144.492"/><path d="M 308.631 144.24 L 308.285 144.427"/><path d="M 308.861 143.951 L 308.631 144.24"/><path d="M 308.948 143.577 L 308.861 143.951"/><path d="M 308.948 142.964 L 308.948 143.577"/><path d="M 325.771 143.137 L 326.296 142.964"/><path d="M 325.187 143.224 L 325.771 143.137"/><path d="M 324.726 143.425 L 325.187 143.224"/><path d="M 324.611 143.606 L 324.726 143.425"/><path d="M 324.582 143.858 L 324.611 143.606"/><path d="M 324.618 144.139 L 324.582 143.858"/><path d="M 324.74 144.34 L 324.618 144.139"/><path d="M 324.935 144.456 L 324.74 144.34"/><path d="M 325.209 144.492 L 324.935 144.456"/><path d="M 325.634 144.427 L 325.209 144.492"/><path d="M 325.979 144.24 L 325.634 144.427"/><path d="M 326.21 143.951 L 325.979 144.24"/><path d="M 326.296 143.577 L 326.21 143.951"/><path d="M 326.296 142.964 L 326.296 143.577"/><path d="M 333.595 141.732 L 333.595 143.67"/><path d="M 332.5 141.732 L 333.595 141.732"/><path d="M 333.595 143.67 L 333.638 144.297"/><path d="M 332.5 141.192 L 332.5 141.732"/><path d="M 333.638 144.297 L 333.84 144.729"/><path d="M 333.84 144.729 L 334.243 144.982"/><path d="M 334.243 144.982 L 334.928 145.068"/><path d="M 334.928 145.068 L 335.677 145.032"/><path d="M 335.677 145.032 L 335.677 144.485"/><path d="M 335.677 144.485 L 335.129 144.528"/><path d="M 335.129 144.528 L 334.632 144.47"/><path d="M 334.632 144.47 L 334.366 144.29"/><path d="M 334.366 144.29 L 334.25 143.987"/><path d="M 334.25 143.987 L 334.229 143.562"/><path d="M 334.229 143.562 L 334.229 141.732"/><path d="M 334.229 141.732 L 335.677 141.732"/><path d="M 335.677 141.732 L 335.677 141.192"/><path d="M 335.677 141.192 L 334.229 141.192"/><path d="M 334.229 141.192 L 334.229 140.061"/><path d="M 334.229 140.061 L 333.595 140.061"/><path d="M 333.595 140.061 L 333.595 141.192"/><path d="M 333.595 141.192 L 332.5 141.192"/><path d="M 272.262 144.931 L 272.896 144.931"/><path d="M 272.262 141.062 L 272.262 144.931"/><path d="M 272.896 144.931 L 272.896 142.719"/><path d="M 272.838 141.062 L 272.262 141.062"/><path d="M 272.896 142.719 L 272.961 142.186"/><path d="M 272.961 142.186 L 273.155 141.804"/><path d="M 273.155 141.804 L 273.472 141.574"/><path d="M 273.472 141.574 L 273.897 141.495"/><path d="M 273.897 141.495 L 274.214 141.545"/><path d="M 274.214 141.545 L 274.452 141.689"/><path d="M 274.452 141.689 L 274.596 141.934"/><path d="M 274.596 141.934 L 274.647 142.266"/><path d="M 274.647 142.266 L 275.288 142.266"/><path d="M 275.288 142.266 L 275.201 141.682"/><path d="M 275.201 141.682 L 274.964 141.264"/><path d="M 274.964 141.264 L 274.567 141.012"/><path d="M 274.567 141.012 L 274.027 140.925"/><path d="M 274.027 140.925 L 273.66 140.983"/><path d="M 273.66 140.983 L 273.343 141.127"/><path d="M 273.343 141.127 L 273.062 141.372"/><path d="M 273.062 141.372 L 272.838 141.704"/><path d="M 272.838 141.704 L 272.838 141.062"/><path d="M 278.299 144.398 L 278.299 141.192"/><path d="M 279.611 144.398 L 278.299 144.398"/><path d="M 278.299 141.192 L 276.671 141.192"/><path d="M 279.611 144.931 L 279.611 144.398"/><path d="M 276.671 141.192 L 276.671 141.732"/><path d="M 276.671 141.732 L 277.665 141.732"/><path d="M 277.665 141.732 L 277.665 144.398"/><path d="M 277.665 144.398 L 276.368 144.398"/><path d="M 276.368 144.398 L 276.368 144.931"/><path d="M 276.368 144.931 L 279.611 144.931"/><path d="M 336.405 146.127 L 336.405 146.632"/><path d="M 340.742 146.127 L 336.405 146.127"/><path d="M 336.405 146.632 L 340.742 146.632"/><path d="M 340.742 146.632 L 340.742 146.127"/><path d="M 278.321 139.758 L 277.651 139.758"/><path d="M 278.321 140.479 L 278.321 139.758"/><path d="M 277.651 139.758 L 277.651 140.479"/><path d="M 277.651 140.479 L 278.321 140.479"/><path d="M 285.036 144.931 L 285.67 144.931"/><path d="M 285.036 141.062 L 285.036 144.931"/><path d="M 285.67 144.931 L 285.67 142.698"/><path d="M 285.641 141.062 L 285.036 141.062"/><path d="M 285.67 142.698 L 285.734 142.186"/><path d="M 285.734 142.186 L 285.943 141.812"/><path d="M 285.943 141.812 L 286.268 141.581"/><path d="M 286.268 141.581 L 286.7 141.495"/><path d="M 286.7 141.495 L 287.046 141.567"/><path d="M 287.046 141.567 L 287.262 141.761"/><path d="M 287.262 141.761 L 287.37 142.085"/><path d="M 287.37 142.085 L 287.406 142.518"/><path d="M 287.406 142.518 L 287.406 144.931"/><path d="M 287.406 144.931 L 288.04 144.931"/><path d="M 288.04 144.931 L 288.04 142.388"/><path d="M 288.04 142.388 L 288.011 141.876"/><path d="M 288.011 141.876 L 287.881 141.451"/><path d="M 287.881 141.451 L 287.456 141.062"/><path d="M 287.456 141.062 L 286.794 140.925"/><path d="M 286.794 140.925 L 286.426 140.976"/><path d="M 286.426 140.976 L 286.116 141.113"/><path d="M 286.116 141.113 L 285.85 141.343"/><path d="M 285.85 141.343 L 285.641 141.653"/><path d="M 285.641 141.653 L 285.641 141.062"/><path d="M 355.792 144.931 L 356.448 144.931"/><path d="M 355.792 141.372 L 355.792 144.931"/><path d="M 356.448 144.931 L 356.448 139.895"/><path d="M 354.625 141.372 L 355.792 141.372"/><path d="M 356.448 139.895 L 355.958 139.895"/><path d="M 355.958 139.895 L 355.828 140.335"/><path d="M 355.828 140.335 L 355.569 140.63"/><path d="M 355.569 140.63 L 355.173 140.803"/><path d="M 355.173 140.803 L 354.625 140.861"/><path d="M 354.625 140.861 L 354.625 141.372"/><path d="M 268.847 144.931 L 269.51 144.931"/><path d="M 268.847 140.536 L 268.847 144.931"/><path d="M 269.51 144.931 L 269.51 140.536"/><path d="M 267.327 140.536 L 268.847 140.536"/><path d="M 269.51 140.536 L 271.023 140.536"/><path d="M 271.023 140.536 L 271.023 139.931"/><path d="M 271.023 139.931 L 267.327 139.931"/><path d="M 267.327 139.931 L 267.327 140.536"/><path d="M 341.095 143.361 L 341.095 143.411"/><path d="M 341.758 143.361 L 341.095 143.361"/><path d="M 341.095 143.411 L 341.21 144.103"/><path d="M 341.837 143.836 L 341.758 143.361"/><path d="M 341.21 144.103 L 341.549 144.621"/><path d="M 341.549 144.621 L 342.082 144.953"/><path d="M 342.082 144.953 L 342.788 145.075"/><path d="M 342.788 145.075 L 343.537 144.953"/><path d="M 343.537 144.953 L 344.099 144.636"/><path d="M 344.099 144.636 L 344.459 144.132"/><path d="M 344.459 144.132 L 344.589 143.483"/><path d="M 344.589 143.483 L 344.531 143.058"/><path d="M 344.531 143.058 L 344.373 142.712"/><path d="M 344.373 142.712 L 344.113 142.446"/><path d="M 344.113 142.446 L 343.768 142.251"/><path d="M 343.768 142.251 L 344.236 141.862"/><path d="M 344.236 141.862 L 344.402 141.242"/><path d="M 344.402 141.242 L 344.294 140.68"/><path d="M 344.294 140.68 L 343.984 140.255"/><path d="M 343.984 140.255 L 343.479 139.989"/><path d="M 343.479 139.989 L 342.788 139.895"/><path d="M 342.788 139.895 L 342.139 140.01"/><path d="M 342.139 140.01 L 341.642 140.327"/><path d="M 341.642 140.327 L 341.318 140.832"/><path d="M 341.318 140.832 L 341.21 141.502"/><path d="M 341.21 141.502 L 341.21 141.552"/><path d="M 341.21 141.552 L 341.851 141.552"/><path d="M 341.851 141.552 L 341.909 141.091"/><path d="M 341.909 141.091 L 342.096 140.76"/><path d="M 342.096 140.76 L 342.399 140.558"/><path d="M 342.399 140.558 L 342.824 140.486"/><path d="M 342.824 140.486 L 343.198 140.544"/><path d="M 343.198 140.544 L 343.472 140.695"/><path d="M 343.472 140.695 L 343.638 140.94"/><path d="M 343.638 140.94 L 343.703 141.271"/><path d="M 343.703 141.271 L 343.638 141.624"/><path d="M 343.638 141.624 L 343.465 141.862"/><path d="M 343.465 141.862 L 343.162 142.006"/><path d="M 343.162 142.006 L 342.752 142.049"/><path d="M 342.752 142.049 L 342.471 142.042"/><path d="M 342.471 142.042 L 342.471 142.611"/><path d="M 342.471 142.611 L 342.824 142.597"/><path d="M 342.824 142.597 L 343.278 142.662"/><path d="M 343.278 142.662 L 343.616 142.835"/><path d="M 343.616 142.835 L 343.818 143.116"/><path d="M 343.818 143.116 L 343.89 143.483"/><path d="M 343.89 143.483 L 343.811 143.901"/><path d="M 343.811 143.901 L 343.602 144.211"/><path d="M 343.602 144.211 L 343.271 144.405"/><path d="M 343.271 144.405 L 342.831 144.47"/><path d="M 342.831 144.47 L 342.377 144.398"/><path d="M 342.377 144.398 L 342.046 144.182"/><path d="M 342.046 144.182 L 341.837 143.836"/><path d="M 294.971 140.291 L 294.971 144.398"/><path d="M 293.977 140.291 L 294.971 140.291"/><path d="M 294.971 144.398 L 293.667 144.398"/><path d="M 293.977 139.758 L 293.977 140.291"/><path d="M 293.667 144.398 L 293.667 144.931"/><path d="M 293.667 144.931 L 296.902 144.931"/><path d="M 296.902 144.931 L 296.902 144.398"/><path d="M 296.902 144.398 L 295.605 144.398"/><path d="M 295.605 144.398 L 295.605 139.758"/><path d="M 295.605 139.758 L 293.977 139.758"/><path d="M 292.384 144.758 L 292.384 141.062"/><path d="M 292.298 145.486 L 292.384 144.758"/><path d="M 292.384 141.062 L 291.779 141.062"/><path d="M 292.017 146.012 L 292.298 145.486"/><path d="M 291.779 141.062 L 291.779 141.689"/><path d="M 291.779 141.689 L 291.282 141.12"/><path d="M 291.282 141.12 L 290.979 140.976"/><path d="M 290.979 140.976 L 290.641 140.925"/><path d="M 290.641 140.925 L 290.028 141.07"/><path d="M 290.028 141.07 L 289.553 141.473"/><path d="M 289.553 141.473 L 289.243 142.121"/><path d="M 289.243 142.121 L 289.135 142.993"/><path d="M 289.135 142.993 L 289.243 143.872"/><path d="M 289.243 143.872 L 289.553 144.521"/><path d="M 289.553 144.521 L 290.028 144.931"/><path d="M 290.028 144.931 L 290.641 145.068"/><path d="M 290.641 145.068 L 290.987 145.018"/><path d="M 290.987 145.018 L 291.275 144.888"/><path d="M 291.275 144.888 L 291.779 144.34"/><path d="M 291.779 144.34 L 291.779 144.888"/><path d="M 291.779 144.888 L 291.722 145.32"/><path d="M 291.722 145.32 L 291.563 145.63"/><path d="M 291.563 145.63 L 291.26 145.81"/><path d="M 291.26 145.81 L 290.807 145.875"/><path d="M 290.807 145.875 L 290.41 145.832"/><path d="M 290.41 145.832 L 290.129 145.724"/><path d="M 290.129 145.724 L 289.964 145.536"/><path d="M 289.964 145.536 L 289.913 145.284"/><path d="M 289.913 145.284 L 289.301 145.284"/><path d="M 289.301 145.284 L 289.301 145.313"/><path d="M 289.301 145.313 L 289.394 145.774"/><path d="M 289.394 145.774 L 289.683 146.12"/><path d="M 289.683 146.12 L 290.144 146.343"/><path d="M 290.144 146.343 L 290.771 146.423"/><path d="M 290.771 146.423 L 291.52 146.315"/><path d="M 291.52 146.315 L 292.017 146.012"/><path d="M 282.997 144.427 L 282.997 144.448"/><path d="M 282.399 144.895 L 282.997 144.427"/><path d="M 282.997 144.448 L 283.033 144.693"/><path d="M 281.729 145.047 L 282.399 144.895"/><path d="M 283.033 144.693 L 283.141 144.866"/><path d="M 283.141 144.866 L 283.595 145.003"/><path d="M 283.595 145.003 L 283.948 144.946"/><path d="M 283.948 144.946 L 283.948 144.456"/><path d="M 283.948 144.456 L 283.796 144.477"/><path d="M 283.796 144.477 L 283.595 144.384"/><path d="M 283.595 144.384 L 283.559 144.095"/><path d="M 283.559 144.095 L 283.559 142.093"/><path d="M 283.559 142.093 L 283.472 141.581"/><path d="M 283.472 141.581 L 283.22 141.221"/><path d="M 283.22 141.221 L 282.781 141.005"/><path d="M 282.781 141.005 L 282.161 140.925"/><path d="M 282.161 140.925 L 281.556 141.012"/><path d="M 281.556 141.012 L 281.109 141.257"/><path d="M 281.109 141.257 L 280.828 141.639"/><path d="M 280.828 141.639 L 280.734 142.143"/><path d="M 280.734 142.143 L 280.734 142.186"/><path d="M 280.734 142.186 L 281.304 142.186"/><path d="M 281.304 142.186 L 281.354 141.884"/><path d="M 281.354 141.884 L 281.513 141.668"/><path d="M 281.513 141.668 L 281.772 141.538"/><path d="M 281.772 141.538 L 282.139 141.487"/><path d="M 282.139 141.487 L 282.492 141.523"/><path d="M 282.492 141.523 L 282.745 141.632"/><path d="M 282.745 141.632 L 282.896 141.819"/><path d="M 282.896 141.819 L 282.946 142.078"/><path d="M 282.946 142.078 L 282.917 142.381"/><path d="M 282.917 142.381 L 282.802 142.532"/><path d="M 282.802 142.532 L 282.514 142.604"/><path d="M 282.514 142.604 L 281.974 142.662"/><path d="M 281.974 142.662 L 281.354 142.791"/><path d="M 281.354 142.791 L 280.915 143.022"/><path d="M 280.915 143.022 L 280.655 143.382"/><path d="M 280.655 143.382 L 280.576 143.915"/><path d="M 280.576 143.915 L 280.648 144.391"/><path d="M 280.648 144.391 L 280.871 144.744"/><path d="M 280.871 144.744 L 281.232 144.967"/><path d="M 281.232 144.967 L 281.729 145.047"/><path d="M 301.707 146.127 L 301.707 146.632"/><path d="M 306.044 146.127 L 301.707 146.127"/><path d="M 301.707 146.632 L 306.044 146.632"/><path d="M 306.044 146.632 L 306.044 146.127"/><path d="M 331.39 141.062 L 330.756 141.062"/><path d="M 331.39 144.931 L 331.39 141.062"/><path d="M 330.756 141.062 L 330.756 143.296"/><path d="M 330.785 144.931 L 331.39 144.931"/><path d="M 330.756 143.296 L 330.684 143.815"/><path d="M 330.684 143.815 L 330.475 144.189"/><path d="M 330.475 144.189 L 330.151 144.42"/><path d="M 330.151 144.42 L 329.726 144.492"/><path d="M 329.726 144.492 L 329.387 144.434"/><path d="M 329.387 144.434 L 329.171 144.261"/><path d="M 329.171 144.261 L 329.049 143.966"/><path d="M 329.049 143.966 L 329.02 143.548"/><path d="M 329.02 143.548 L 329.02 141.062"/><path d="M 329.02 141.062 L 328.386 141.062"/><path d="M 328.386 141.062 L 328.386 143.606"/><path d="M 328.386 143.606 L 328.407 144.117"/><path d="M 328.407 144.117 L 328.544 144.542"/><path d="M 328.544 144.542 L 328.962 144.931"/><path d="M 328.962 144.931 L 329.632 145.068"/><path d="M 329.632 145.068 L 329.992 145.018"/><path d="M 329.992 145.018 L 330.302 144.888"/><path d="M 330.302 144.888 L 330.569 144.665"/><path d="M 330.569 144.665 L 330.785 144.34"/><path d="M 330.785 144.34 L 330.785 144.931"/><path d="M 326.368 144.427 L 326.368 144.448"/><path d="M 325.771 144.895 L 326.368 144.427"/><path d="M 326.368 144.448 L 326.405 144.693"/><path d="M 325.1 145.047 L 325.771 144.895"/><path d="M 326.405 144.693 L 326.513 144.866"/><path d="M 326.513 144.866 L 326.966 145.003"/><path d="M 326.966 145.003 L 327.32 144.946"/><path d="M 327.32 144.946 L 327.32 144.456"/><path d="M 327.32 144.456 L 327.168 144.477"/><path d="M 327.168 144.477 L 326.966 144.384"/><path d="M 326.966 144.384 L 326.93 144.095"/><path d="M 326.93 144.095 L 326.93 142.093"/><path d="M 326.93 142.093 L 326.844 141.581"/><path d="M 326.844 141.581 L 326.592 141.221"/><path d="M 326.592 141.221 L 326.152 141.005"/><path d="M 326.152 141.005 L 325.533 140.925"/><path d="M 325.533 140.925 L 324.928 141.012"/><path d="M 324.928 141.012 L 324.481 141.257"/><path d="M 324.481 141.257 L 324.2 141.639"/><path d="M 324.2 141.639 L 324.106 142.143"/><path d="M 324.106 142.143 L 324.106 142.186"/><path d="M 324.106 142.186 L 324.675 142.186"/><path d="M 324.675 142.186 L 324.726 141.884"/><path d="M 324.726 141.884 L 324.884 141.668"/><path d="M 324.884 141.668 L 325.144 141.538"/><path d="M 325.144 141.538 L 325.511 141.487"/><path d="M 325.511 141.487 L 325.864 141.523"/><path d="M 325.864 141.523 L 326.116 141.632"/><path d="M 326.116 141.632 L 326.268 141.819"/><path d="M 326.268 141.819 L 326.318 142.078"/><path d="M 326.318 142.078 L 326.289 142.381"/><path d="M 326.289 142.381 L 326.174 142.532"/><path d="M 326.174 142.532 L 325.886 142.604"/><path d="M 325.886 142.604 L 325.345 142.662"/><path d="M 325.345 142.662 L 324.726 142.791"/><path d="M 324.726 142.791 L 324.286 143.022"/><path d="M 324.286 143.022 L 324.027 143.382"/><path d="M 324.027 143.382 L 323.948 143.915"/><path d="M 323.948 143.915 L 324.02 144.391"/><path d="M 324.02 144.391 L 324.243 144.744"/><path d="M 324.243 144.744 L 324.603 144.967"/><path d="M 324.603 144.967 L 325.1 145.047"/><path d="M 346.75 144.931 L 347.745 144.931"/><path d="M 346.75 143.858 L 346.75 144.931"/><path d="M 347.745 144.931 L 347.745 143.858"/><path d="M 347.745 143.858 L 346.75 143.858"/><path d="M 312.219 144.931 L 312.889 144.931"/><path d="M 310.785 141.062 L 312.219 144.931"/><path d="M 312.889 144.931 L 314.301 141.062"/><path d="M 311.448 141.062 L 310.785 141.062"/><path d="M 314.301 141.062 L 313.645 141.062"/><path d="M 313.645 141.062 L 312.557 144.182"/><path d="M 312.557 144.182 L 311.448 141.062"/><path d="M 298.602 143.18 L 301.138 143.18"/><path d="M 298.602 143.202 L 298.602 143.18"/><path d="M 301.138 143.18 L 301.145 142.885"/><path d="M 298.674 143.757 L 298.602 143.202"/><path d="M 301.145 142.885 L 301.03 142.057"/><path d="M 301.03 142.057 L 300.713 141.437"/><path d="M 300.713 141.437 L 300.209 141.062"/><path d="M 300.209 141.062 L 299.539 140.925"/><path d="M 299.539 140.925 L 298.883 141.07"/><path d="M 298.883 141.07 L 298.379 141.473"/><path d="M 298.379 141.473 L 298.054 142.129"/><path d="M 298.054 142.129 L 297.939 142.993"/><path d="M 297.939 142.993 L 298.047 143.879"/><path d="M 298.047 143.879 L 298.371 144.528"/><path d="M 298.371 144.528 L 298.868 144.931"/><path d="M 298.868 144.931 L 299.517 145.068"/><path d="M 299.517 145.068 L 300.079 144.974"/><path d="M 300.079 144.974 L 300.54 144.729"/><path d="M 300.54 144.729 L 300.879 144.34"/><path d="M 300.879 144.34 L 301.073 143.822"/><path d="M 301.073 143.822 L 300.446 143.822"/><path d="M 300.446 143.822 L 300.317 144.11"/><path d="M 300.317 144.11 L 300.129 144.326"/><path d="M 300.129 144.326 L 299.596 144.499"/><path d="M 299.596 144.499 L 299.185 144.42"/><path d="M 299.185 144.42 L 298.876 144.168"/><path d="M 298.876 144.168 L 298.674 143.757"/><path d="M 314.719 146.127 L 314.719 146.632"/><path d="M 319.056 146.127 L 314.719 146.127"/><path d="M 314.719 146.632 L 319.056 146.632"/><path d="M 319.056 146.632 L 319.056 146.127"/><path d="M 351.455 144.931 L 352.111 144.931"/><path d="M 351.455 141.372 L 351.455 144.931"/><path d="M 352.111 144.931 L 352.111 139.895"/><path d="M 350.288 141.372 L 351.455 141.372"/><path d="M 352.111 139.895 L 351.621 139.895"/><path d="M 351.621 139.895 L 351.491 140.335"/><path d="M 351.491 140.335 L 351.232 140.63"/><path d="M 351.232 140.63 L 350.835 140.803"/><path d="M 350.835 140.803 L 350.288 140.861"/><path d="M 350.288 140.861 L 350.288 141.372"/><path d="M 319.733 144.931 L 320.367 144.931"/><path d="M 319.733 139.758 L 319.733 144.931"/><path d="M 320.367 144.931 L 320.367 142.698"/><path d="M 320.367 139.758 L 319.733 139.758"/><path d="M 320.367 142.698 L 320.432 142.186"/><path d="M 320.432 142.186 L 320.641 141.812"/><path d="M 320.641 141.812 L 320.965 141.581"/><path d="M 320.965 141.581 L 321.397 141.495"/><path d="M 321.397 141.495 L 321.743 141.567"/><path d="M 321.743 141.567 L 321.959 141.761"/><path d="M 321.959 141.761 L 322.067 142.085"/><path d="M 322.067 142.085 L 322.103 142.518"/><path d="M 322.103 142.518 L 322.103 144.931"/><path d="M 322.103 144.931 L 322.737 144.931"/><path d="M 322.737 144.931 L 322.737 142.388"/><path d="M 322.737 142.388 L 322.709 141.876"/><path d="M 322.709 141.876 L 322.579 141.451"/><path d="M 322.579 141.451 L 322.154 141.062"/><path d="M 322.154 141.062 L 321.491 140.925"/><path d="M 321.491 140.925 L 321.131 140.976"/><path d="M 321.131 140.976 L 320.821 141.113"/><path d="M 320.821 141.113 L 320.562 141.329"/><path d="M 320.562 141.329 L 320.367 141.624"/><path d="M 320.367 141.624 L 320.367 139.758"/><path d="M 309.02 144.427 L 309.02 144.448"/><path d="M 308.422 144.895 L 309.02 144.427"/><path d="M 309.02 144.448 L 309.056 144.693"/><path d="M 307.752 145.047 L 308.422 144.895"/><path d="M 309.056 144.693 L 309.164 144.866"/><path d="M 309.164 144.866 L 309.618 145.003"/><path d="M 309.618 145.003 L 309.971 144.946"/><path d="M 309.971 144.946 L 309.971 144.456"/><path d="M 309.971 144.456 L 309.82 144.477"/><path d="M 309.82 144.477 L 309.618 144.384"/><path d="M 309.618 144.384 L 309.582 144.095"/><path d="M 309.582 144.095 L 309.582 142.093"/><path d="M 309.582 142.093 L 309.495 141.581"/><path d="M 309.495 141.581 L 309.243 141.221"/><path d="M 309.243 141.221 L 308.804 141.005"/><path d="M 308.804 141.005 L 308.184 140.925"/><path d="M 308.184 140.925 L 307.579 141.012"/><path d="M 307.579 141.012 L 307.132 141.257"/><path d="M 307.132 141.257 L 306.851 141.639"/><path d="M 306.851 141.639 L 306.758 142.143"/><path d="M 306.758 142.143 L 306.758 142.186"/><path d="M 306.758 142.186 L 307.327 142.186"/><path d="M 307.327 142.186 L 307.377 141.884"/><path d="M 307.377 141.884 L 307.536 141.668"/><path d="M 307.536 141.668 L 307.795 141.538"/><path d="M 307.795 141.538 L 308.162 141.487"/><path d="M 308.162 141.487 L 308.515 141.523"/><path d="M 308.515 141.523 L 308.768 141.632"/><path d="M 308.768 141.632 L 308.919 141.819"/><path d="M 308.919 141.819 L 308.969 142.078"/><path d="M 308.969 142.078 L 308.941 142.381"/><path d="M 308.941 142.381 L 308.825 142.532"/><path d="M 308.825 142.532 L 308.537 142.604"/><path d="M 308.537 142.604 L 307.997 142.662"/><path d="M 307.997 142.662 L 307.377 142.791"/><path d="M 307.377 142.791 L 306.938 143.022"/><path d="M 306.938 143.022 L 306.678 143.382"/><path d="M 306.678 143.382 L 306.599 143.915"/><path d="M 306.599 143.915 L 306.671 144.391"/><path d="M 306.671 144.391 L 306.894 144.744"/><path d="M 306.894 144.744 L 307.255 144.967"/><path d="M 307.255 144.967 L 307.752 145.047"/><path d="M 371.808 97.2757 L 394.693 104.505"/><path d="M 399.366 105.981 L 476.699 130.409"/><path d="M 286.582 55.5308 L 210.158 18.0967"/><path d="M 371.808 97.2757 L 290.983 57.6862"/><path d="M 286.582 55.5308 L 277.785 73.4919"/><path d="M 277.785 73.4919 L 282.185 75.6473"/><path d="M 282.185 75.6473 L 290.983 57.6862"/><path d="M 394.693 104.505 L 388.669 123.576"/><path d="M 388.669 123.576 L 393.341 125.052"/><path d="M 393.341 125.052 L 399.366 105.981"/><path d="M 240.473 84.5645 L 243.068 79.2659"/><path d="M 243.068 79.2659 L 248.367 81.8613"/><path d="M 248.367 81.8613 L 245.772 87.1598"/><path d="M 245.772 87.1598 L 240.473 84.5645"/><path d="M 258 62.1938 L 255.405 67.4924"/><path d="M 255.405 67.4924 L 250.107 64.8971"/><path d="M 250.107 64.8971 L 252.702 59.5985"/><path d="M 252.702 59.5985 L 258 62.1938"/></g><g stroke="rgb(0, 0, 0)" stroke-width="0.13" stroke-linecap="butt" stroke-linejoin="miter" fill="none"><path d="M 331.928 396.519 L 331.05 399.5 L 330.147 396.519 L 329.668 396.519 L 330.798 400.024 L 331.302 400.024 L 332.407 396.519 L 331.928 396.519 L 331.928 396.519 z M 335.13 397.316 L 334.686 397.316 L 334.686 398.879 L 334.636 399.242 L 334.49 399.505 L 334.263 399.666 L 333.965 399.716 L 333.728 399.676 L 333.577 399.555 L 333.491 399.348 L 333.471 399.056 L 333.471 397.316 L 333.027 397.316 L 333.027 399.096 L 333.042 399.454 L 333.138 399.752 L 333.431 400.024 L 333.9 400.12 L 334.152 400.085 L 334.369 399.994 L 334.555 399.837 L 334.707 399.61 L 334.707 400.024 L 335.13 400.024 L 335.13 397.316 L 335.13 397.316 z M 336.467 398.799 L 338.242 398.799 L 338.247 398.592 L 338.166 398.012 L 337.944 397.578 L 337.591 397.316 L 337.122 397.22 L 336.663 397.321 L 336.31 397.603 L 336.083 398.062 L 336.003 398.667 L 336.078 399.288 L 336.305 399.742 L 336.653 400.024 L 337.107 400.12 L 337.501 400.054 L 337.823 399.883 L 338.06 399.61 L 338.197 399.247 L 337.758 399.247 L 337.667 399.449 L 337.536 399.6 L 337.163 399.721 L 336.875 399.666 L 336.658 399.489 L 336.517 399.202 L 336.467 398.814 L 336.467 398.799 L 336.467 398.799 z M 336.467 398.425 L 336.522 398.077 L 336.658 397.82 L 336.865 397.664 L 337.137 397.608 L 337.405 397.664 L 337.612 397.82 L 337.738 398.077 L 337.783 398.425 L 336.467 398.425 L 336.467 398.425 z M 343.815 399.605 L 343.815 400.024 L 344.259 400.024 L 344.259 396.403 L 343.82 396.403 L 343.82 397.729 L 343.482 397.346 L 343.275 397.255 L 343.038 397.22 L 342.609 397.321 L 342.277 397.603 L 342.06 398.057 L 341.984 398.667 L 342.06 399.278 L 342.277 399.737 L 342.609 400.024 L 343.038 400.12 L 343.275 400.085 L 343.487 399.994 L 343.815 399.605 L 343.815 399.605 z M 343.114 397.618 L 343.406 397.689 L 343.628 397.886 L 343.759 398.214 L 343.81 398.667 L 343.759 399.126 L 343.628 399.454 L 343.406 399.656 L 343.114 399.721 L 342.836 399.656 L 342.625 399.454 L 342.483 399.121 L 342.438 398.667 L 342.483 398.219 L 342.625 397.891 L 342.836 397.689 L 343.114 397.618 L 343.114 397.618 z M 345.575 398.799 L 347.35 398.799 L 347.355 398.592 L 347.274 398.012 L 347.052 397.578 L 346.699 397.316 L 346.23 397.22 L 345.772 397.321 L 345.418 397.603 L 345.192 398.062 L 345.111 398.667 L 345.186 399.288 L 345.413 399.742 L 345.761 400.024 L 346.215 400.12 L 346.609 400.054 L 346.931 399.883 L 347.168 399.61 L 347.305 399.247 L 346.866 399.247 L 346.775 399.449 L 346.644 399.6 L 346.271 399.721 L 345.983 399.666 L 345.766 399.489 L 345.625 399.202 L 345.575 398.814 L 345.575 398.799 L 345.575 398.799 z M 345.575 398.425 L 345.63 398.077 L 345.766 397.82 L 345.973 397.664 L 346.246 397.608 L 346.513 397.664 L 346.72 397.82 L 346.846 398.077 L 346.891 398.425 L 345.575 398.425 L 345.575 398.425 z M 351.874 397.785 L 351.874 400.024 L 352.318 400.024 L 352.318 397.785 L 353.326 397.785 L 353.326 397.407 L 352.318 397.407 L 352.318 397.24 L 352.353 397.038 L 352.469 396.902 L 352.666 396.822 L 352.948 396.791 L 353.326 396.811 L 353.326 396.428 L 352.847 396.403 L 352.413 396.448 L 352.111 396.585 L 351.929 396.822 L 351.874 397.159 L 351.874 397.407 L 351.062 397.407 L 351.062 397.785 L 351.874 397.785 L 351.874 397.785 z M 355.903 399.671 L 355.903 399.686 L 355.929 399.858 L 356.004 399.979 L 356.322 400.074 L 356.569 400.034 L 356.569 399.691 L 356.463 399.706 L 356.322 399.641 L 356.297 399.439 L 356.297 398.037 L 356.236 397.679 L 356.06 397.427 L 355.752 397.275 L 355.318 397.22 L 354.895 397.281 L 354.582 397.452 L 354.385 397.719 L 354.32 398.072 L 354.32 398.103 L 354.718 398.103 L 354.754 397.891 L 354.865 397.739 L 355.046 397.649 L 355.303 397.613 L 355.55 397.639 L 355.727 397.714 L 355.833 397.845 L 355.868 398.027 L 355.848 398.239 L 355.767 398.345 L 355.566 398.395 L 355.187 398.435 L 354.754 398.526 L 354.446 398.688 L 354.264 398.94 L 354.209 399.313 L 354.259 399.646 L 354.416 399.893 L 354.668 400.049 L 355.016 400.105 L 355.485 399.999 L 355.903 399.671 L 355.903 399.671 z M 355.853 399.076 L 355.792 399.338 L 355.631 399.54 L 355.389 399.671 L 355.091 399.716 L 354.9 399.691 L 354.764 399.61 L 354.678 399.469 L 354.653 399.273 L 354.673 399.096 L 354.754 398.97 L 355.076 398.829 L 355.485 398.768 L 355.853 398.647 L 355.853 399.076 L 355.853 399.076 z M 359.055 398.214 L 359.494 398.214 L 359.403 397.81 L 359.187 397.492 L 358.849 397.296 L 358.41 397.22 L 357.926 397.321 L 357.558 397.603 L 357.326 398.062 L 357.245 398.677 L 357.321 399.288 L 357.548 399.742 L 357.906 400.024 L 358.395 400.12 L 358.828 400.044 L 359.166 399.832 L 359.398 399.5 L 359.499 399.056 L 359.076 399.056 L 359 399.338 L 358.859 399.55 L 358.657 399.681 L 358.41 399.721 L 358.102 399.656 L 357.88 399.454 L 357.744 399.126 L 357.699 398.662 L 357.744 398.208 L 357.885 397.881 L 358.112 397.679 L 358.41 397.608 L 358.672 397.654 L 358.869 397.77 L 359 397.961 L 359.055 398.214 L 359.055 398.214 z M 360.755 398.799 L 362.53 398.799 L 362.535 398.592 L 362.455 398.012 L 362.233 397.578 L 361.88 397.316 L 361.411 397.22 L 360.952 397.321 L 360.599 397.603 L 360.372 398.062 L 360.291 398.667 L 360.367 399.288 L 360.594 399.742 L 360.942 400.024 L 361.396 400.12 L 361.789 400.054 L 362.112 399.883 L 362.349 399.61 L 362.485 399.247 L 362.046 399.247 L 361.955 399.449 L 361.824 399.6 L 361.451 399.721 L 361.164 399.666 L 360.947 399.489 L 360.805 399.202 L 360.755 398.814 L 360.755 398.799 L 360.755 398.799 z M 360.755 398.425 L 360.811 398.077 L 360.947 397.82 L 361.153 397.664 L 361.426 397.608 L 361.693 397.664 L 361.9 397.82 L 362.026 398.077 L 362.071 398.425 L 360.755 398.425 L 360.755 398.425 z" stroke="none" fill-rule="evenodd" fill="rgb(0, 0, 0)"/></g><g stroke="rgb(0, 0, 0)" stroke-width="0.13" stroke-linecap="butt" stroke-linejoin="miter" fill="none"><path d="M 329.991 406.071 L 332.21 406.071 L 332.21 405.647 L 330.455 405.647 L 330.455 404.462 L 332.019 404.462 L 332.019 404.043 L 330.455 404.043 L 330.455 402.994 L 332.17 402.994 L 332.17 402.571 L 329.991 402.571 L 329.991 406.071 L 329.991 406.071 z M 334.767 404.26 L 335.206 404.26 L 335.115 403.857 L 334.898 403.539 L 334.56 403.342 L 334.122 403.267 L 333.637 403.368 L 333.269 403.65 L 333.037 404.109 L 332.957 404.724 L 333.032 405.335 L 333.259 405.788 L 333.617 406.071 L 334.106 406.167 L 334.54 406.091 L 334.878 405.879 L 335.11 405.546 L 335.211 405.103 L 334.787 405.103 L 334.712 405.385 L 334.57 405.597 L 334.369 405.728 L 334.122 405.768 L 333.814 405.703 L 333.592 405.501 L 333.456 405.173 L 333.41 404.709 L 333.456 404.255 L 333.597 403.927 L 333.824 403.726 L 334.122 403.655 L 334.384 403.701 L 334.581 403.817 L 334.712 404.008 L 334.767 404.26 L 334.767 404.26 z M 336.078 406.071 L 336.522 406.071 L 336.522 404.507 L 336.568 404.149 L 336.714 403.887 L 336.941 403.726 L 337.243 403.665 L 337.485 403.716 L 337.637 403.852 L 337.712 404.079 L 337.738 404.381 L 337.738 406.071 L 338.181 406.071 L 338.181 404.291 L 338.161 403.933 L 338.07 403.635 L 337.773 403.363 L 337.309 403.267 L 337.057 403.302 L 336.84 403.398 L 336.658 403.549 L 336.522 403.756 L 336.522 402.45 L 336.078 402.45 L 336.078 406.071 L 336.078 406.071 z M 339.503 404.845 L 341.278 404.845 L 341.283 404.639 L 341.202 404.059 L 340.98 403.625 L 340.627 403.363 L 340.158 403.267 L 339.699 403.368 L 339.346 403.65 L 339.119 404.109 L 339.039 404.714 L 339.114 405.335 L 339.341 405.788 L 339.689 406.071 L 340.143 406.167 L 340.537 406.101 L 340.859 405.93 L 341.096 405.657 L 341.233 405.294 L 340.794 405.294 L 340.703 405.496 L 340.572 405.647 L 340.199 405.768 L 339.911 405.713 L 339.694 405.536 L 339.553 405.249 L 339.503 404.86 L 339.503 404.845 L 339.503 404.845 z M 339.503 404.472 L 339.558 404.124 L 339.694 403.867 L 339.901 403.711 L 340.173 403.655 L 340.441 403.711 L 340.648 403.867 L 340.774 404.124 L 340.819 404.472 L 339.503 404.472 L 339.503 404.472 z M 343.033 402.823 L 343.033 405.698 L 342.12 405.698 L 342.12 406.071 L 344.385 406.071 L 344.385 405.698 L 343.477 405.698 L 343.477 402.45 L 342.337 402.45 L 342.337 402.823 L 343.033 402.823 L 343.033 402.823 z M 346.069 402.823 L 346.069 405.698 L 345.156 405.698 L 345.156 406.071 L 347.421 406.071 L 347.421 405.698 L 346.513 405.698 L 346.513 402.45 L 345.373 402.45 L 345.373 402.823 L 346.069 402.823 L 346.069 402.823 z M 348.611 404.845 L 350.386 404.845 L 350.391 404.639 L 350.31 404.059 L 350.089 403.625 L 349.736 403.363 L 349.266 403.267 L 348.808 403.368 L 348.455 403.65 L 348.228 404.109 L 348.147 404.714 L 348.223 405.335 L 348.449 405.788 L 348.797 406.071 L 349.251 406.167 L 349.645 406.101 L 349.967 405.93 L 350.205 405.657 L 350.341 405.294 L 349.902 405.294 L 349.811 405.496 L 349.68 405.647 L 349.307 405.768 L 349.019 405.713 L 348.803 405.536 L 348.661 405.249 L 348.611 404.86 L 348.611 404.845 L 348.611 404.845 z M 348.611 404.472 L 348.666 404.124 L 348.803 403.867 L 349.009 403.711 L 349.282 403.655 L 349.549 403.711 L 349.756 403.867 L 349.882 404.124 L 349.927 404.472 L 348.611 404.472 L 348.611 404.472 z M 354.991 406.071 L 355.687 406.071 L 355.687 405.319 L 354.991 405.319 L 354.991 406.071 L 354.991 406.071 z M 354.991 404.114 L 355.687 404.114 L 355.687 403.363 L 354.991 403.363 L 354.991 404.114 L 354.991 404.114 z" stroke="none" fill-rule="evenodd" fill="rgb(0, 0, 0)"/></g><g stroke="rgb(0, 0, 0)" stroke-width="0.13" stroke-linecap="butt" stroke-linejoin="miter" fill="none"><path d="M 364.356 406.071 L 364.815 406.071 L 364.815 402.546 L 364.472 402.546 L 364.381 402.853 L 364.199 403.06 L 363.922 403.181 L 363.539 403.221 L 363.539 403.579 L 364.356 403.579 L 364.356 406.071 L 364.356 406.071 z M 367.135 406.071 L 367.831 406.071 L 367.831 405.319 L 367.135 405.319 L 367.135 406.071 L 367.135 406.071 z M 367.135 404.114 L 367.831 404.114 L 367.831 403.363 L 367.135 403.363 L 367.135 404.114 L 367.135 404.114 z M 370.428 406.071 L 370.887 406.071 L 370.887 402.546 L 370.544 402.546 L 370.453 402.853 L 370.272 403.06 L 369.994 403.181 L 369.611 403.221 L 369.611 403.579 L 370.428 403.579 L 370.428 406.071 L 370.428 406.071 z" stroke="none" fill-rule="evenodd" fill="rgb(0, 0, 0)"/></g></svg>