<?xml version="1.0" encoding="utf-8" ?><!DOCTYPE svg PUBLIC "-//W3C//DTD SVG 1.1//EN" "http://www.w3.org/Graphics/SVG/1.1/DTD/svg11.dtd" 
[ <!ATTLIST svg 
  xmlns:dsy CDATA #FIXED "http://www.3ds.com/print"  
    dsy:text-version CDATA #IMPLIED > 

  <!ATTLIST text 
  xmlns:dsy CDATA #FIXED "http://www.3ds.com/print" 
    dsy:text-version CDATA #IMPLIED > 
]><svg xmlns="http://www.w3.org/2000/svg" xmlns:dsy="http://www.3ds.com/print" dsy:text-version="18000" width="420" height="297" viewBox="0 0 420 297" version="1.1"><g stroke="rgb(0, 0, 0)" stroke-width="0.35" stroke-linecap="butt" stroke-linejoin="miter" fill="none"><path d="M 399.5 114.85 A 3 3 0 0 0 393.5 114.85"/><path d="M 399.5 182.15 L 399.5 114.85"/><path d="M 393.5 114.85 L 393.5 182.15"/><path d="M 393.5 182.15 A 3 3 0 1 0 399.5 182.15"/><path d="M 26.5 114.85 L 26.5 182.15"/><path d="M 26.5 114.85 A 3 3 0 0 0 20.5 114.85"/><path d="M 20.5 182.15 A 3 3 0 1 0 26.5 182.15"/><path d="M 20.5 182.15 L 20.5 114.85"/><path d="M 361.311 107.5 L 405 107.5"/><path d="M 361.311 107.5 L 58.689 107.5"/><path d="M 405 107.5 L 405 189.5"/><path d="M 58.689 107.5 L 15 107.5"/><path d="M 365.269 189.5 L 405 189.5"/><path d="M 15 107.5 L 15 189.5"/><path d="M 54.7313 189.5 L 365.269 189.5"/><path d="M 54.7313 189.5 L 15 189.5"/><path d="M 291.023 147.818 L 286.023 147.818"/><path d="M 291.023 147.818 L 291.023 153.818"/><path d="M 286.023 153.818 L 291.023 153.818"/><path d="M 286.023 153.818 L 286.023 147.818"/><path d="M 150.134 147.818 L 145.134 147.818"/><path d="M 150.134 147.818 L 150.134 153.818"/><path d="M 145.134 153.818 L 150.134 153.818"/><path d="M 145.134 153.818 L 145.134 147.818"/></g></svg>