<?xml version="1.0" encoding="utf-8" ?><!DOCTYPE svg PUBLIC "-//W3C//DTD SVG 1.1//EN" "http://www.w3.org/Graphics/SVG/1.1/DTD/svg11.dtd" 
[ <!ATTLIST svg 
  xmlns:dsy CDATA #FIXED "http://www.3ds.com/print"  
    dsy:text-version CDATA #IMPLIED > 

  <!ATTLIST text 
  xmlns:dsy CDATA #FIXED "http://www.3ds.com/print" 
    dsy:text-version CDATA #IMPLIED > 
]><svg xmlns="http://www.w3.org/2000/svg" xmlns:dsy="http://www.3ds.com/print" dsy:text-version="18000" width="297" height="210" viewBox="0 0 297 210" version="1.1"><g stroke="rgb(0, 0, 0)" stroke-width="0.13" stroke-linecap="butt" stroke-linejoin="miter" fill="none"><path d="M 240.741 82.6087 L 240.743 82.6068"/><path d="M 239.574 82.3618 L 240.392 81.5442"/><path d="M 238.407 82.115 L 240.441 80.0804"/><path d="M 237.239 81.8681 L 240.669 78.438"/><path d="M 236.072 81.6212 L 241.063 76.6304"/><path d="M 234.905 81.3743 L 241.715 74.5634"/><path d="M 233.737 81.1274 L 241.963 72.9015"/><path d="M 232.57 80.8806 L 240.796 72.6546"/><path d="M 231.403 80.6337 L 239.629 72.4077"/><path d="M 230.235 80.3868 L 238.461 72.1608"/><path d="M 229.068 80.1399 L 237.294 71.914"/><path d="M 227.901 79.8931 L 236.127 71.6671"/><path d="M 226.733 79.6462 L 234.959 71.4202"/><path d="M 225.566 79.3993 L 233.792 71.1733"/><path d="M 224.399 79.1524 L 232.625 70.9265"/><path d="M 223.231 78.9056 L 231.457 70.6796"/><path d="M 222.064 78.6587 L 230.29 70.4327"/><path d="M 220.897 78.4118 L 229.123 70.1858"/><path d="M 219.729 78.1649 L 227.955 69.939"/><path d="M 218.562 77.9181 L 226.788 69.6921"/><path d="M 217.395 77.6712 L 225.621 69.4452"/><path d="M 216.227 77.4243 L 224.453 69.1983"/><path d="M 215.06 77.1774 L 223.286 68.9515"/><path d="M 213.893 76.9306 L 222.119 68.7046"/><path d="M 212.725 76.6837 L 220.951 68.4577"/><path d="M 211.558 76.4368 L 219.784 68.2108"/><path d="M 210.391 76.1899 L 218.617 67.964"/><path d="M 209.223 75.9431 L 217.449 67.7171"/><path d="M 208.056 75.6962 L 216.282 67.4702"/><path d="M 206.889 75.4493 L 215.115 67.2233"/><path d="M 205.721 75.2024 L 213.947 66.9765"/><path d="M 204.554 74.9556 L 212.78 66.7296"/><path d="M 203.387 74.7087 L 211.613 66.4827"/><path d="M 202.219 74.4618 L 210.445 66.2358"/><path d="M 201.052 74.2149 L 209.278 65.989"/><path d="M 199.884 73.968 L 208.11 65.7421"/><path d="M 198.717 73.7212 L 206.943 65.4952"/><path d="M 197.55 73.4743 L 205.776 65.2483"/><path d="M 196.382 73.2274 L 204.608 65.0014"/><path d="M 195.215 72.9806 L 203.441 64.7546"/><path d="M 194.048 72.7337 L 202.274 64.5077"/><path d="M 192.88 72.4868 L 201.106 64.2608"/><path d="M 191.713 72.2399 L 199.939 64.0139"/><path d="M 190.546 71.9931 L 198.772 63.7671"/><path d="M 189.378 71.7462 L 197.604 63.5202"/><path d="M 188.211 71.4993 L 196.437 63.2733"/><path d="M 187.044 71.2524 L 195.27 63.0264"/><path d="M 185.876 71.0056 L 194.102 62.7796"/><path d="M 184.709 70.7587 L 192.935 62.5327"/><path d="M 183.542 70.5118 L 191.768 62.2858"/><path d="M 182.374 70.2649 L 190.6 62.0389"/><path d="M 181.207 70.0181 L 189.433 61.7921"/><path d="M 180.04 69.7712 L 188.266 61.5452"/><path d="M 178.872 69.5243 L 187.098 61.2983"/><path d="M 177.705 69.2774 L 185.931 61.0515"/><path d="M 176.538 69.0305 L 184.764 60.8046"/><path d="M 175.37 68.7837 L 183.596 60.5577"/><path d="M 174.203 68.5368 L 182.429 60.3108"/><path d="M 173.036 68.2899 L 181.262 60.0639"/><path d="M 171.868 68.043 L 180.094 59.8171"/><path d="M 170.701 67.7962 L 178.927 59.5702"/><path d="M 169.534 67.5493 L 177.76 59.3233"/><path d="M 168.366 67.3024 L 176.592 59.0764"/><path d="M 167.199 67.0555 L 175.425 58.8296"/><path d="M 166.032 66.8087 L 174.258 58.5827"/><path d="M 164.864 66.5618 L 173.09 58.3358"/><path d="M 163.697 66.3149 L 171.923 58.0889"/><path d="M 162.53 66.068 L 170.756 57.8421"/><path d="M 161.362 65.8212 L 169.588 57.5952"/><path d="M 160.195 65.5743 L 168.421 57.3483"/><path d="M 159.028 65.3274 L 167.254 57.1014"/><path d="M 157.86 65.0805 L 166.086 56.8546"/><path d="M 156.693 64.8337 L 164.919 56.6077"/><path d="M 155.526 64.5868 L 163.752 56.3608"/><path d="M 154.358 64.3399 L 162.584 56.1139"/><path d="M 153.191 64.093 L 161.417 55.8671"/><path d="M 152.024 63.8462 L 160.25 55.6202"/><path d="M 150.856 63.5993 L 159.082 55.3733"/><path d="M 149.689 63.3524 L 157.915 55.1264"/><path d="M 148.522 63.1055 L 156.748 54.8796"/><path d="M 147.354 62.8587 L 155.58 54.6327"/><path d="M 146.187 62.6118 L 154.413 54.3858"/><path d="M 145.02 62.3649 L 153.246 54.1389"/><path d="M 143.852 62.118 L 152.078 53.8921"/><path d="M 142.685 61.8712 L 150.911 53.6452"/><path d="M 141.518 61.6243 L 149.744 53.3983"/><path d="M 140.35 61.3774 L 148.576 53.1514"/><path d="M 139.183 61.1305 L 147.409 52.9046"/><path d="M 138.016 60.8837 L 146.242 52.6577"/><path d="M 136.848 60.6368 L 145.074 52.4108"/><path d="M 135.681 60.3899 L 143.907 52.1639"/><path d="M 134.514 60.143 L 142.74 51.9171"/><path d="M 133.346 59.8961 L 141.572 51.6702"/><path d="M 132.179 59.6493 L 140.405 51.4233"/><path d="M 131.012 59.4024 L 139.238 51.1764"/><path d="M 129.844 59.1555 L 138.07 50.9296"/><path d="M 128.677 58.9086 L 136.903 50.6827"/><path d="M 127.51 58.6618 L 135.736 50.4358"/><path d="M 126.342 58.4149 L 134.568 50.1889"/><path d="M 125.175 58.168 L 133.401 49.942"/><path d="M 124.008 57.9211 L 132.234 49.6952"/><path d="M 122.84 57.6743 L 131.066 49.4483"/><path d="M 121.673 57.4274 L 129.899 49.2014"/><path d="M 120.506 57.1805 L 128.731 48.9545"/><path d="M 119.338 56.9337 L 127.564 48.7077"/><path d="M 118.171 56.6868 L 126.397 48.4608"/><path d="M 117.003 56.4399 L 125.229 48.2139"/><path d="M 115.836 56.193 L 124.062 47.967"/><path d="M 114.669 55.9462 L 122.895 47.7202"/><path d="M 113.501 55.6993 L 121.727 47.4733"/><path d="M 112.334 55.4524 L 120.56 47.2264"/><path d="M 111.167 55.2055 L 119.393 46.9795"/><path d="M 109.999 54.9586 L 118.225 46.7327"/><path d="M 108.832 54.7118 L 117.058 46.4858"/><path d="M 107.665 54.4649 L 115.891 46.2389"/><path d="M 106.497 54.218 L 114.723 45.992"/><path d="M 105.33 53.9711 L 113.556 45.7452"/><path d="M 104.163 53.7243 L 112.389 45.4983"/><path d="M 102.995 53.4774 L 111.221 45.2514"/><path d="M 101.828 53.2305 L 110.054 45.0045"/><path d="M 100.661 52.9836 L 108.887 44.7577"/><path d="M 99.4934 52.7368 L 107.719 44.5108"/><path d="M 98.3261 52.4899 L 106.552 44.2639"/><path d="M 97.1587 52.243 L 105.385 44.017"/><path d="M 95.9914 51.9961 L 104.217 43.7702"/><path d="M 94.8241 51.7493 L 103.05 43.5233"/><path d="M 93.6567 51.5024 L 101.883 43.2764"/><path d="M 92.4894 51.2555 L 100.715 43.0295"/><path d="M 91.322 51.0086 L 99.548 42.7827"/><path d="M 90.1547 50.7618 L 98.3807 42.5358"/><path d="M 88.9874 50.5149 L 97.2133 42.2889"/><path d="M 87.82 50.268 L 96.046 42.042"/><path d="M 86.6527 50.0211 L 94.8787 41.7952"/><path d="M 85.4854 49.7743 L 93.7113 41.5483"/><path d="M 84.318 49.5274 L 92.544 41.3014"/><path d="M 83.1507 49.2805 L 91.3767 41.0545"/><path d="M 81.9833 49.0336 L 90.2093 40.8076"/><path d="M 80.816 48.7868 L 89.042 40.5608"/><path d="M 79.6487 48.5399 L 87.8746 40.3139"/><path d="M 78.4813 48.293 L 86.7073 40.067"/><path d="M 77.314 48.0461 L 85.54 39.8202"/><path d="M 76.1467 47.7993 L 84.3726 39.5733"/><path d="M 74.9793 47.5524 L 83.2053 39.3264"/><path d="M 73.812 47.3055 L 82.0379 39.0795"/><path d="M 72.6446 47.0586 L 80.8706 38.8327"/><path d="M 71.4773 46.8118 L 79.7033 38.5858"/><path d="M 70.31 46.5649 L 78.5359 38.3389"/><path d="M 69.1426 46.318 L 77.3686 38.092"/><path d="M 67.9753 46.0711 L 76.2013 37.8452"/><path d="M 66.8079 45.8242 L 75.0339 37.5983"/><path d="M 65.6406 45.5774 L 73.8666 37.3514"/><path d="M 64.4733 45.3305 L 72.6992 37.1045"/><path d="M 64.0049 44.3847 L 71.5319 36.8577"/><path d="M 64.0288 42.9465 L 70.3646 36.6108"/><path d="M 64.2369 41.3242 L 69.1972 36.3639"/><path d="M 64.6059 39.541 L 68.0299 36.117"/><path d="M 65.2261 37.5066 L 66.8626 35.8701"/><path d="M 142.005 167.203 L 142.047 167.161"/><path d="M 148.756 160.452 L 148.905 160.303"/><path d="M 141.327 166.466 L 141.775 166.018"/><path d="M 147.521 160.273 L 148.228 159.566"/><path d="M 140.65 165.729 L 142.26 164.12"/><path d="M 145.518 160.862 L 147.55 158.829"/><path d="M 139.973 164.992 L 146.873 158.092"/><path d="M 139.296 164.256 L 146.196 157.355"/><path d="M 138.618 163.519 L 145.519 156.618"/><path d="M 137.941 162.782 L 144.841 155.881"/><path d="M 137.264 162.045 L 144.164 155.144"/><path d="M 136.587 161.308 L 143.487 154.407"/><path d="M 135.909 160.571 L 142.81 153.67"/><path d="M 135.232 159.834 L 142.132 152.933"/><path d="M 134.555 159.097 L 141.455 152.196"/><path d="M 133.878 158.36 L 140.778 151.459"/><path d="M 133.2 157.623 L 140.101 150.722"/><path d="M 132.523 156.886 L 139.423 149.985"/><path d="M 131.846 156.149 L 138.746 149.248"/><path d="M 131.169 155.412 L 138.069 148.511"/><path d="M 130.491 154.675 L 137.392 147.775"/><path d="M 129.814 153.938 L 136.714 147.038"/><path d="M 129.137 153.201 L 136.037 146.301"/><path d="M 128.46 152.464 L 135.36 145.564"/><path d="M 127.782 151.727 L 134.683 144.827"/><path d="M 127.105 150.99 L 134.006 144.09"/><path d="M 126.428 150.253 L 133.328 143.353"/><path d="M 125.751 149.516 L 132.651 142.616"/><path d="M 125.073 148.779 L 131.974 141.879"/><path d="M 124.396 148.042 L 131.297 141.142"/><path d="M 123.719 147.305 L 130.619 140.405"/><path d="M 123.042 146.568 L 129.942 139.668"/><path d="M 122.364 145.831 L 129.265 138.931"/><path d="M 121.687 145.094 L 128.588 138.194"/><path d="M 121.01 144.357 L 127.91 137.457"/><path d="M 120.333 143.62 L 127.233 136.72"/><path d="M 119.655 142.883 L 126.556 135.983"/><path d="M 118.978 142.147 L 125.879 135.246"/><path d="M 118.301 141.41 L 125.201 134.509"/><path d="M 117.624 140.673 L 124.524 133.772"/><path d="M 116.946 139.936 L 123.847 133.035"/><path d="M 116.269 139.199 L 123.17 132.298"/><path d="M 115.592 138.462 L 122.492 131.561"/><path d="M 114.915 137.725 L 121.815 130.824"/><path d="M 114.237 136.988 L 121.138 130.087"/><path d="M 113.56 136.251 L 120.461 129.35"/><path d="M 112.883 135.514 L 119.783 128.613"/><path d="M 112.206 134.777 L 119.106 127.876"/><path d="M 111.528 134.04 L 118.429 127.139"/><path d="M 110.851 133.303 L 117.752 126.403"/><path d="M 110.174 132.566 L 117.074 125.666"/><path d="M 109.497 131.829 L 116.397 124.929"/><path d="M 108.819 131.092 L 115.72 124.192"/><path d="M 108.142 130.355 L 115.043 123.455"/><path d="M 107.465 129.618 L 114.365 122.718"/><path d="M 106.788 128.881 L 113.688 121.981"/><path d="M 106.11 128.144 L 113.011 121.244"/><path d="M 105.433 127.407 L 112.334 120.507"/><path d="M 104.756 126.67 L 111.656 119.77"/><path d="M 104.079 125.933 L 110.979 119.033"/><path d="M 103.401 125.196 L 110.302 118.296"/><path d="M 102.724 124.459 L 109.625 117.559"/><path d="M 102.047 123.722 L 108.947 116.822"/><path d="M 101.37 122.985 L 108.27 116.085"/><path d="M 100.692 122.248 L 107.593 115.348"/><path d="M 100.015 121.511 L 106.916 114.611"/><path d="M 99.3379 120.775 L 106.238 113.874"/><path d="M 98.6607 120.038 L 105.561 113.137"/><path d="M 97.9834 119.301 L 104.884 112.4"/><path d="M 97.3062 118.564 L 104.207 111.663"/><path d="M 96.6289 117.827 L 103.529 110.926"/><path d="M 95.9517 117.09 L 102.852 110.189"/><path d="M 95.2744 116.353 L 102.175 109.452"/><path d="M 94.5972 115.616 L 101.498 108.715"/><path d="M 93.9199 114.879 L 100.82 107.978"/><path d="M 93.2427 114.142 L 100.143 107.241"/><path d="M 92.5654 113.405 L 99.4659 106.504"/><path d="M 91.8882 112.668 L 98.7886 105.767"/><path d="M 91.2109 111.931 L 98.1114 105.031"/><path d="M 90.5337 111.194 L 97.4341 104.294"/><path d="M 89.8564 110.457 L 96.7569 103.557"/><path d="M 89.1792 109.72 L 96.0796 102.82"/><path d="M 88.502 108.983 L 95.4024 102.083"/><path d="M 87.8247 108.246 L 94.7251 101.346"/><path d="M 87.1475 107.509 L 94.0479 100.609"/><path d="M 86.4702 106.772 L 93.3706 99.8717"/><path d="M 85.793 106.035 L 92.6934 99.1348"/><path d="M 85.1157 105.298 L 92.0161 98.3978"/><path d="M 84.4385 104.561 L 91.3389 97.6608"/><path d="M 83.7612 103.824 L 90.6617 96.9239"/><path d="M 83.084 103.087 L 89.9844 96.1869"/><path d="M 82.4067 102.35 L 89.3072 95.4499"/><path d="M 81.7295 101.613 L 88.6299 94.713"/><path d="M 81.0522 100.876 L 87.9527 93.976"/><path d="M 80.375 100.139 L 87.2754 93.239"/><path d="M 79.6977 99.4025 L 86.5982 92.5021"/><path d="M 79.0205 98.6655 L 85.9209 91.7651"/><path d="M 78.3432 97.9286 L 85.2437 91.0281"/><path d="M 77.666 97.1916 L 84.5664 90.2912"/><path d="M 76.9887 96.4546 L 83.8892 89.5542"/><path d="M 76.3115 95.7177 L 83.2119 88.8172"/><path d="M 75.6342 94.9807 L 82.5347 88.0803"/><path d="M 74.957 94.2438 L 81.8574 87.3433"/><path d="M 74.2798 93.5068 L 81.1802 86.6063"/><path d="M 73.6025 92.7698 L 80.5029 85.8694"/><path d="M 72.9253 92.0328 L 79.8257 85.1324"/><path d="M 72.248 91.2959 L 79.1484 84.3954"/><path d="M 71.5708 90.5589 L 78.4712 83.6585"/><path d="M 70.8935 89.822 L 77.794 82.9215"/><path d="M 70.2163 89.085 L 77.1167 82.1845"/><path d="M 69.539 88.348 L 76.4395 81.4476"/><path d="M 68.8618 87.6111 L 75.7622 80.7106"/><path d="M 68.1845 86.8741 L 75.085 79.9736"/><path d="M 67.5073 86.1371 L 74.4077 79.2367"/><path d="M 66.83 85.4002 L 73.7305 78.4997"/><path d="M 66.1528 84.6632 L 73.0532 77.7627"/><path d="M 65.4755 83.9262 L 72.376 77.0258"/><path d="M 64.7983 83.1893 L 71.6987 76.2888"/><path d="M 64.121 82.4523 L 71.0215 75.5518"/><path d="M 63.4438 81.7153 L 70.3442 74.8149"/><path d="M 62.7665 80.9783 L 69.667 74.0779"/><path d="M 62.0893 80.2414 L 68.9897 73.3409"/><path d="M 61.4121 79.5044 L 68.3125 72.604"/><path d="M 60.7348 78.7675 L 67.6352 71.867"/><path d="M 60.0576 78.0305 L 66.958 71.1301"/><path d="M 59.3803 77.2935 L 66.2807 70.3931"/><path d="M 58.7031 76.5565 L 65.6035 69.6561"/><path d="M 58.0258 75.8196 L 64.9262 68.9192"/><path d="M 57.3486 75.0826 L 64.249 68.1822"/><path d="M 56.6713 74.3457 L 63.5718 67.4452"/><path d="M 55.9941 73.6087 L 62.8945 66.7083"/><path d="M 55.3168 72.8717 L 62.2173 65.9713"/><path d="M 54.6396 72.1348 L 61.54 65.2343"/><path d="M 53.9623 71.3978 L 60.8628 64.4974"/><path d="M 53.2851 70.6608 L 60.1855 63.7604"/><path d="M 52.6078 69.9239 L 59.5083 63.0234"/><path d="M 51.9306 69.1869 L 58.831 62.2865"/><path d="M 51.2533 68.4499 L 58.1538 61.5495"/><path d="M 50.5761 67.713 L 57.4765 60.8125"/><path d="M 49.8988 66.976 L 56.7993 60.0756"/><path d="M 49.2216 66.239 L 56.122 59.3386"/><path d="M 48.5443 65.5021 L 55.4448 58.6016"/><path d="M 47.8671 64.7651 L 54.7675 57.8647"/><path d="M 47.1898 64.0281 L 54.0903 57.1277"/><path d="M 46.5126 63.2912 L 53.413 56.3907"/><path d="M 45.8354 62.5542 L 52.7358 55.6538"/><path d="M 45.1581 61.8172 L 52.0585 54.9168"/><path d="M 44.5199 61.0412 L 51.239 54.3222"/><path d="M 44.2374 59.9096 L 50.011 54.136"/><path d="M 44.6972 58.0356 L 48.0387 54.694"/><path d="M 36.9959 39.93 A 4.175 2.59307 -42.582 1 0 31.2155 45.2415"/><path d="M 36.5304 39.4234 A 3.925 2.4378 -42.582 1 0 30.7505 44.7352"/></g><g stroke="rgb(0, 0, 0)" stroke-width="0.35" stroke-linecap="butt" stroke-linejoin="miter" fill="none"><path d="M 29.2783 47.5962 L 29.4732 39.6397"/><path d="M 32.2627 46.3807 L 29.2783 47.5962"/><path d="M 37.6309 40.621 L 37.7374 36.2738"/><path d="M 37.7374 36.2738 L 29.4732 39.6397"/><path d="M 39.5369 42.4896 L 39.4322 42.5811"/><path d="M 39.5369 42.4896 L 39.7317 34.5331"/><path d="M 39.7317 34.5331 L 37.7374 36.2738"/></g><g stroke="rgb(0, 0, 0)" stroke-width="0.13" stroke-linecap="butt" stroke-linejoin="miter" fill="none"><path d="M 19.0362 35.6722 L 19.0973 33.1742"/></g><g stroke="rgb(0, 0, 0)" stroke-width="0.35" stroke-linecap="butt" stroke-linejoin="miter" fill="none"><path d="M 26.6727 26.5624 A 6.5 4.36935 -358.597 0 0 17.7599 30.4283"/><path d="M 17.7599 30.4283 A 6.5 4.36935 -358.597 0 0 19.0973 33.1742"/><path d="M 17.6988 32.9263 A 6.5 4.36935 -178.597 0 0 19.0361 35.6722"/><path d="M 36.825 29.4308 A 2.00833 1.38499 -329.249 0 0 37.7571 29.4968"/><path d="M 42.4862 28.2821 L 38.7566 27.2284"/><path d="M 42.4033 31.6684 L 42.4862 28.2821"/><path d="M 26.6727 26.5624 L 36.825 29.4308"/><path d="M 19.0973 33.1742 L 25.7438 39.1023"/><path d="M 19.0362 35.6722 L 25.6935 41.61"/><path d="M 26.8781 44.1791 A 2.00513 0.920984 -296.77 0 0 25.6935 41.61"/><path d="M 26.8475 45.4281 L 26.8781 44.1791"/><path d="M 29.2783 47.5962 L 26.8475 45.4281"/><path d="M 29.4732 39.6397 L 27.0315 37.4619"/><path d="M 27.0315 37.4619 L 27.0009 38.7109"/><path d="M 26.6521 39.4264 A 2.00535 0.921019 -296.771 0 0 27.0009 38.7109"/><path d="M 25.7438 39.1023 A 2.00456 0.920799 -296.775 0 0 26.6521 39.4264"/><path d="M 40.9089 39.376 L 39.5369 42.4896"/><path d="M 35.1824 34.1422 A 2 1.34441 -358.597 0 0 36.0399 33.3937"/><path d="M 27.0315 37.4619 L 35.1824 34.1422"/><path d="M 42.4862 28.2821 L 39.7317 34.5331"/><path d="M 38.7566 27.2284 L 36.0399 33.3937"/></g><g stroke="rgb(0, 0, 0)" stroke-width="0.13" stroke-linecap="butt" stroke-linejoin="miter" fill="none"><path d="M 25.7438 39.1023 L 27.0039 38.5891"/><path d="M 36.825 29.4308 L 34.6542 34.3573"/></g><g stroke="rgb(0, 0, 0)" stroke-width="0.35" stroke-linecap="butt" stroke-linejoin="miter" fill="none"><path d="M 26.0056 30.6047 A 4.15 2.78966 -178.597 0 0 22.5837 30.5197"/><path d="M 22.6173 30.51 A 4 2.68883 -178.597 0 0 20.6381 31.7651"/><path d="M 25.9687 30.5922 A 4 2.68883 -178.597 0 0 22.6173 30.51"/><path d="M 26.6505 30.8818 A 4 2.68883 -178.597 0 0 25.9687 30.5922"/><path d="M 27.8837 31.9425 A 4 2.68883 -178.597 0 0 26.6505 30.8818"/><path d="M 26.7996 28.4157 A 4.15 2.78966 -358.597 1 0 22.4908 33.0943"/><path d="M 22.4908 33.0943 A 4.15 2.78966 -358.597 0 0 25.9678 33.1796"/><path d="M 25.9678 33.1796 A 4.15 2.78966 -358.597 0 0 26.7996 28.4157"/><path d="M 20.29 30.618 A 4 2.68883 -358.597 0 0 22.5161 33.1027"/><path d="M 25.9383 33.1878 A 4 2.68883 -358.597 0 0 28.2876 30.8136"/><path d="M 28.2876 30.8136 A 4 2.68883 -358.597 0 0 26.7062 28.6059"/><path d="M 26.7062 28.6059 A 4 2.68883 -358.597 0 0 20.29 30.618"/><path d="M 56.9253 42.0596 A 3.25 0.641798 -258.059 0 0 56.9794 42.0847"/><path d="M 56.9794 42.0847 A 3.25 0.641798 -258.059 0 0 58.3243 35.7254"/><path d="M 58.3243 35.7254 A 3.25 0.641798 -258.059 0 0 58.2645 35.7264"/><path d="M 56.9743 42.1657 A 3.4 0.671419 -258.059 1 0 58.3524 35.6492"/><path d="M 58.3524 35.6492 A 3.4 0.671419 -258.059 0 0 56.9812 39.6492"/><path d="M 56.9812 39.6492 A 3.4 0.671419 -258.059 0 0 56.9743 42.1657"/><path d="M 45.7785 51.75 A 3.925 2.4378 -222.582 0 0 45.5987 49.2913"/><path d="M 45.5987 49.2913 A 3.925 2.4378 -222.582 0 0 39.387 53.1902"/><path d="M 39.387 53.1902 A 3.925 2.4378 -222.582 0 0 39.8188 54.6031"/><path d="M 39.8188 54.6031 A 3.925 2.4378 -222.582 0 0 42.2534 54.9894"/><path d="M 45.9831 50.8383 A 3.775 2.34463 -222.582 1 0 42.3504 54.9597"/><path d="M 42.3504 54.9597 A 3.775 2.34463 -222.582 0 0 45.7407 51.8441"/><path d="M 45.7407 51.8441 A 3.775 2.34463 -222.582 0 0 45.9831 50.8383"/><path d="M 58.7077 35.3489 A 3.775 0.745472 -258.059 1 0 57.1776 42.5841"/><path d="M 57.1776 42.5841 A 3.775 0.745472 -258.059 0 0 58.864 36.4115"/><path d="M 58.864 36.4115 A 3.775 0.745472 -258.059 0 0 58.7077 35.3489"/><path d="M 58.464 35.065 A 3.925 0.775095 -258.059 1 0 56.8397 42.7451"/><path d="M 56.8397 42.7451 A 3.925 0.775095 -258.059 0 0 57.0091 42.6987"/><path d="M 58.6001 35.176 A 3.925 0.775095 -258.059 0 0 58.464 35.065"/></g><g stroke="rgb(0, 0, 0)" stroke-width="0.13" stroke-linecap="butt" stroke-linejoin="miter" fill="none"><path d="M 42.0986 31.604 A 4.175 0.824463 -78.0587 1 0 40.4744 39.284"/><path d="M 42.0635 31.5965 A 3.925 0.775095 -78.0587 1 0 40.4392 39.2766"/></g><g stroke="rgb(0, 0, 0)" stroke-width="0.35" stroke-linecap="butt" stroke-linejoin="miter" fill="none"><path d="M 40.1478 52.159 A 3.25 2.01856 -222.582 0 0 40.3157 54.1463"/><path d="M 40.3157 54.1463 A 3.25 2.01856 -222.582 0 0 45.1018 49.7482"/><path d="M 45.1018 49.7482 A 3.25 2.01856 -222.582 0 0 43.1409 49.4117"/><path d="M 43.1825 49.3985 A 3.4 2.11172 -222.582 0 0 40.1294 52.204"/><path d="M 40.1294 52.204 A 3.4 2.11172 -222.582 0 0 45.2858 52.214"/><path d="M 45.2858 52.214 A 3.4 2.11172 -222.582 0 0 43.1825 49.3985"/><path d="M 17.6988 32.9263 L 17.7599 30.4283"/><path d="M 36.5304 39.4234 L 45.5987 49.2913"/><path d="M 30.7505 44.7352 L 39.8188 54.6031"/><path d="M 42.3504 54.9597 L 42.2534 54.9894"/><path d="M 45.7408 51.8441 L 45.7785 51.75"/><path d="M 57.1776 42.5841 L 57.0091 42.6987"/><path d="M 58.7077 35.3489 L 58.6001 35.176"/><path d="M 42.0635 31.5965 L 58.464 35.065"/><path d="M 40.4392 39.2766 L 56.8397 42.7451"/><path d="M 40.4392 39.2767 A 0.0719147 0.0719147 0 0 0 40.4069 39.2765"/><path d="M 42.0338 31.5835 A 0.0724106 0.0724106 0 0 0 42.0635 31.5965"/><path d="M 160.603 188.067 L 160.378 187.699 L 160.227 187.46"/><path d="M 162.738 191.676 A 6.27715 4.21955 -358.598 0 0 171.072 194.08"/></g><g stroke="rgb(0, 0, 0)" stroke-width="0.13" stroke-linecap="butt" stroke-linejoin="miter" fill="none"><path d="M 162.8 189.178 A 6.40588 3.97866 -42.582 0 0 162.738 191.676"/></g><g stroke="rgb(0, 0, 0)" stroke-width="0.35" stroke-linecap="butt" stroke-linejoin="miter" fill="none"><path d="M 162.8 189.178 A 6.27713 4.21953 -358.597 0 0 171.951 191.303"/><path d="M 171.951 191.303 A 6.67492 6.67492 0 0 0 172.696 190.946"/><path d="M 171.072 194.08 A 7.61424 7.61424 0 0 0 171.89 193.801"/><path d="M 172.696 190.946 A 6.27686 4.21943 -358.598 0 0 174.733 186.8"/><path d="M 174.733 186.8 A 6.27638 4.2192 -358.593 0 0 173.275 184.912"/><path d="M 171.89 193.801 A 6.27899 4.22058 -358.584 0 0 174.621 191.358"/><path d="M 173.275 184.912 A 1994.21 1994.21 0 0 0 169.421 182.003"/><path d="M 169.421 182.002 L 168.968 181.628 L 168.515 181.206 L 168.068 180.772 L 167.679 180.412 L 167.484 180.247 L 167.193 180.026"/><path d="M 167.193 180.026 L 166.827 179.802 L 166.458 179.642 L 166.084 179.547"/><path d="M 166.084 179.547 A 5.00404 3.10798 -42.582 0 0 165.799 179.513"/><path d="M 166.565 179.587 A 4.875 3.02784 -42.582 0 0 159.453 186.123"/></g><g stroke="rgb(0, 0, 0)" stroke-width="0.13" stroke-linecap="butt" stroke-linejoin="miter" fill="none"><path d="M 161.44 181.438 L 166.084 179.547"/></g><g stroke="rgb(0, 0, 0)" stroke-width="0.35" stroke-linecap="butt" stroke-linejoin="miter" fill="none"><path d="M 165.799 179.513 A 5.00404 3.10798 -42.582 0 0 161.44 181.438"/></g><g stroke="rgb(0, 0, 0)" stroke-width="0.13" stroke-linecap="butt" stroke-linejoin="miter" fill="none"><path d="M 160.664 185.569 L 169.421 182.002"/></g><g stroke="rgb(0, 0, 0)" stroke-width="0.35" stroke-linecap="butt" stroke-linejoin="miter" fill="none"><path d="M 160.664 185.569 L 160.493 185.212 L 160.368 184.803 L 160.294 184.362 L 160.278 183.905 L 160.324 183.447 L 160.413 183.066 L 160.546 182.699 L 160.72 182.351 L 160.861 182.122 L 161.019 181.905 L 161.219 181.666 L 161.44 181.438"/><path d="M 160.603 188.067 A 1305.99 1305.99 0 0 0 162.738 191.676"/><path d="M 160.664 185.569 A 1305.99 1305.99 0 0 0 162.8 189.178"/><path d="M 151.018 173.343 A 3.925 2.4378 -42.582 0 0 151.197 175.803"/><path d="M 154.542 170.105 A 3.925 2.4378 -42.582 0 0 151.018 173.343"/><path d="M 155.745 169.948 A 3.925 2.4378 -42.582 0 0 154.542 170.105"/><path d="M 154.446 170.135 A 3.775 2.34463 -42.582 0 0 151.056 173.249"/><path d="M 156.977 170.491 A 3.925 2.4378 -42.582 0 0 155.745 169.948"/><path d="M 170.299 187.669 A 4.15 2.78966 -358.597 0 0 166.914 187.596"/><path d="M 166.948 187.586 A 4 2.68883 -358.597 0 0 164.969 188.841"/><path d="M 170.299 187.668 A 4 2.68883 -358.597 0 0 166.948 187.586"/><path d="M 172.214 189.019 A 4 2.68883 -358.597 0 0 170.299 187.668"/><path d="M 170.298 190.256 A 4.15 2.78966 -358.597 1 0 166.822 190.171"/><path d="M 166.822 190.171 A 4.15 2.78966 -358.597 0 0 170.298 190.256"/><path d="M 172.618 187.89 A 4 2.68883 -358.597 0 0 164.62 187.694"/><path d="M 164.62 187.694 A 4 2.68883 -358.597 0 0 166.884 190.192"/><path d="M 170.27 190.264 A 4 2.68883 -358.597 0 0 170.74 190.1"/><path d="M 170.74 190.1 A 4 2.68883 -358.597 0 0 172.618 187.89"/><path d="M 174.621 191.358 A 6.5 6.5 0 0 0 174.733 186.8"/><path d="M 166.565 179.587 L 167.193 180.026"/><path d="M 159.453 186.123 L 160.227 187.46"/><path d="M 151.056 173.249 L 151.018 173.343"/><path d="M 154.446 170.135 L 154.542 170.105"/><path d="M 159.183 184.493 L 151.197 175.803"/><path d="M 164.963 179.181 L 156.977 170.491"/><path d="M 267.346 88.1282 L 266.92 88.001 L 266.514 87.9227 L 266.147 87.8912 L 265.81 87.9007 L 265.58 87.936 L 265.465 87.9697 L 265.452 87.9761 L 265.451 87.9774 L 265.45 87.9779"/><path d="M 265.45 87.9779 L 265.451 87.9786"/><path d="M 265.451 87.9789 A 0.229723 0.229723 0 0 0 265.511 87.9564"/><path d="M 272.476 89.924 A 6.27714 4.21955 -358.597 0 0 280.974 88.036"/></g><g stroke="rgb(0, 0, 0)" stroke-width="0.13" stroke-linecap="butt" stroke-linejoin="miter" fill="none"><path d="M 272.537 87.426 A 6.40588 1.26501 -78.0587 0 0 272.476 89.924"/></g><g stroke="rgb(0, 0, 0)" stroke-width="0.35" stroke-linecap="butt" stroke-linejoin="miter" fill="none"><path d="M 272.537 87.426 A 6.27713 4.21953 -358.597 0 0 281.361 84.9608"/><path d="M 281.361 84.9608 A 3.03954 3.03954 0 0 0 281.556 84.356"/><path d="M 280.974 88.036 A 3.44528 3.44528 0 0 0 281.3 87.4588"/><path d="M 281.556 84.356 A 2.88462 2.88462 0 0 0 281.451 82.8073"/><path d="M 281.451 82.8071 A 6.27711 4.21951 -358.597 0 0 276.029 79.5021"/><path d="M 281.299 87.4588 L 281.339 87.3647"/><path d="M 276.029 79.5019 A 3322.07 3322.07 0 0 0 270.326 79.0063"/><path d="M 270.326 79.0067 L 269.954 78.9609 L 269.59 78.8895 L 269.167 78.7754 L 268.774 78.6408 L 268.217 78.4139 L 267.785 78.2355 L 267.566 78.1722 L 267.475 78.1617"/><path d="M 267.475 78.162 A 0.338923 0.338923 0 0 0 267.288 78.2044"/><path d="M 267.288 78.2046 A 5.00404 0.988178 -78.0587 0 0 267.195 78.272"/><path d="M 266.694 78.1347 A 4.875 0.962696 -78.0587 0 0 264.678 87.668"/></g><g stroke="rgb(0, 0, 0)" stroke-width="0.13" stroke-linecap="butt" stroke-linejoin="miter" fill="none"><path d="M 265.74 81.7175 L 267.288 78.2046"/></g><g stroke="rgb(0, 0, 0)" stroke-width="0.35" stroke-linecap="butt" stroke-linejoin="miter" fill="none"><path d="M 267.195 78.272 A 5.00404 0.988178 -78.0587 0 0 265.74 81.7175"/></g><g stroke="rgb(0, 0, 0)" stroke-width="0.13" stroke-linecap="butt" stroke-linejoin="miter" fill="none"><path d="M 267.407 85.6302 L 270.326 79.0067"/></g><g stroke="rgb(0, 0, 0)" stroke-width="0.35" stroke-linecap="butt" stroke-linejoin="miter" fill="none"><path d="M 267.407 85.6302 L 267.081 85.4893 L 266.773 85.3036 L 266.49 85.0777 L 266.24 84.8166 L 266.093 84.6251 L 265.963 84.422 L 265.853 84.2093 L 265.761 83.9887 L 265.635 83.5309 L 265.591 83.2266 L 265.576 82.9206 L 265.586 82.6137 L 265.619 82.3096 L 265.74 81.7175"/><path d="M 267.346 88.128 A 2843.5 2843.5 0 0 0 272.476 89.9239"/><path d="M 267.407 85.63 A 2843.5 2843.5 0 0 0 272.537 87.4258"/><path d="M 248.13 83.1181 A 3.925 0.775095 -78.0587 0 0 248.266 83.2291"/><path d="M 249.721 75.5954 A 3.925 0.775095 -78.0587 0 0 248.13 83.1181"/><path d="M 249.506 75.7463 A 3.775 0.745472 -78.0587 0 0 248.023 82.9452"/><path d="M 249.891 75.549 A 3.925 0.775095 -78.0587 0 0 249.721 75.5954"/><path d="M 249.553 75.71 A 3.775 0.745472 -78.0587 0 0 249.506 75.7463"/></g><g stroke="rgb(0, 0, 0)" stroke-width="0.13" stroke-linecap="butt" stroke-linejoin="miter" fill="none"><path d="M 265.533 79.9911 A 3.925 0.775095 -78.0587 0 0 264.368 85.4926"/></g><g stroke="rgb(0, 0, 0)" stroke-width="0.35" stroke-linecap="butt" stroke-linejoin="miter" fill="none"><path d="M 277.051 83.6863 A 4.15 2.78966 -358.597 0 0 273.633 83.6025"/><path d="M 273.666 83.5929 A 4 2.68883 -358.597 0 0 271.687 84.8477"/><path d="M 277.017 83.6747 A 4 2.68883 -358.597 0 0 273.666 83.5929"/><path d="M 278.932 85.0252 A 4 2.68883 -358.597 0 0 277.017 83.6747"/><path d="M 277.017 86.2624 A 4.15 2.78966 -358.597 1 0 273.541 86.1775"/><path d="M 273.541 86.1775 A 4.15 2.78966 -358.597 0 0 277.017 86.2624"/><path d="M 279.336 83.8966 A 4 2.68883 -358.597 0 0 271.339 83.7007"/><path d="M 271.339 83.7007 A 4 2.68883 -358.597 0 0 273.569 86.187"/><path d="M 276.987 86.2707 A 4 2.68883 -358.597 0 0 279.174 84.61"/><path d="M 279.174 84.61 A 4 2.68883 -358.597 0 0 279.336 83.8966"/><path d="M 281.339 87.3647 A 6.5 6.5 0 0 0 281.451 82.8071"/><path d="M 266.694 78.1347 L 267.475 78.1617"/><path d="M 264.678 87.668 L 265.451 87.9786"/><path d="M 248.023 82.9452 L 248.13 83.1181"/><path d="M 249.553 75.71 L 249.721 75.5954"/><path d="M 264.348 86.6302 L 248.266 83.2291"/><path d="M 265.972 78.95 L 249.891 75.549"/><path d="M 66.373 35.7666 A 4.875 0.962696 -258.059 0 0 63.9847 43.7955"/><path d="M 63.9847 43.7955 A 4.875 0.962696 -258.059 0 0 64.3556 45.3056"/><path d="M 242.591 73.9286 A 4 0.789906 -258.059 1 0 240.936 81.7554"/><path d="M 240.936 81.7554 A 4 0.789906 -258.059 0 0 242.895 75.1676"/><path d="M 242.895 75.1676 A 4 0.789906 -258.059 0 0 242.591 73.9286"/><path d="M 242.772 73.0725 A 4.875 0.962696 -258.059 1 0 240.755 82.6115"/><path d="M 240.755 82.6115 A 4.875 0.962696 -258.059 0 0 243.143 74.5826"/><path d="M 243.143 74.5826 A 4.875 0.962696 -258.059 0 0 242.772 73.0725"/><path d="M 64.3556 45.3056 L 240.755 82.6115"/><path d="M 66.373 35.7666 L 242.772 73.0725"/><path d="M 51.9594 54.8089 A 4.875 3.02784 -222.582 0 0 44.2443 59.6515"/><path d="M 44.2443 59.6515 A 4.875 3.02784 -222.582 0 0 44.7806 61.4064"/><path d="M 148.851 161.538 A 4 2.48438 -222.582 1 0 142.961 166.951"/><path d="M 142.961 166.951 A 4 2.48438 -222.582 0 0 149.291 162.978"/><path d="M 149.291 162.978 A 4 2.48438 -222.582 0 0 148.851 161.538"/><path d="M 149.495 160.946 A 4.875 3.02784 -222.582 1 0 142.317 167.543"/><path d="M 142.317 167.543 A 4.875 3.02784 -222.582 0 0 150.032 162.7"/><path d="M 150.032 162.7 A 4.875 3.02784 -222.582 0 0 149.495 160.946"/><path d="M 44.7806 61.4064 L 142.317 167.543"/><path d="M 51.9594 54.8089 L 149.495 160.946"/><path d="M 273.64 69.9508 A 4 2.68883 -178.597 0 0 281.637 70.1464"/><path d="M 280.056 67.9387 A 4 2.68883 -178.597 0 0 273.64 69.9508"/><path d="M 281.637 70.1464 A 4 2.68883 -178.597 0 0 280.056 67.9387"/><path d="M 275.355 68.9624 A 2.77171 1.86316 -358.597 1 0 279.973 69.0755"/><path d="M 276.369 68.375 A 2.83052 1.91029 -357.488 0 0 275.355 68.9624"/><path d="M 279.314 68.5866 A 3.20345 3.20345 0 0 0 278.996 68.4422"/><path d="M 279.973 69.0755 A 2.86711 1.91171 -359.907 0 0 279.314 68.5866"/><path d="M 280.02 69.1268 A 2.8117 1.89004 -358.597 0 0 279.337 68.6155"/><path d="M 276.178 68.4632 A 2.8117 1.89004 -358.597 0 0 275.309 69.0084"/><path d="M 279.337 68.6155 A 3.1474 3.1474 0 0 0 279.167 68.5333"/><path d="M 275.362 69.0538 A 2.73061 1.83554 -358.597 0 0 275.319 71.0374"/><path d="M 279.906 71.1506 A 2.73061 1.83554 -358.597 0 0 279.961 69.1664"/><path d="M 273.579 72.4488 A 4 2.68883 -178.597 0 0 281.576 72.6444"/><path d="M 281.576 72.6444 L 281.637 70.1464"/><path d="M 273.579 72.4488 L 273.64 69.9508"/><path d="M 276.148 69.64 A 1.5 1.00831 -358.597 0 0 276.982 70.5715"/><path d="M 278.267 70.6035 A 1.5 1.00831 -358.597 0 0 279.147 69.7134"/><path d="M 279.147 69.7134 A 1.5 1.00831 -358.597 0 0 278.554 68.8855"/><path d="M 278.554 68.8855 A 1.5 1.00831 -358.597 0 0 276.148 69.64"/><path d="M 276.706 70.4552 A 1.84457 1.84457 0 0 0 276.972 70.5681"/><path d="M 276.972 70.5684 A 2.26308 2.26308 0 0 0 278.279 70.6005"/><path d="M 278.279 70.6002 A 1.56 1.04864 -358.597 1 0 276.706 70.4552"/><path d="M 276.764 68.2369 A 2.24012 1.50582 -178.597 1 0 279.003 68.4507"/><path d="M 279.003 68.4506 A 2.66624 2.66624 0 0 0 278.6 68.2818"/><path d="M 278.6 68.2817 A 2.24012 1.50582 -178.597 0 0 276.764 68.2369"/><path d="M 276.764 68.2369 A 3.17516 3.17516 0 0 0 275.362 69.0534"/><path d="M 279.081 68.4849 A 3.175 3.175 0 0 0 278.6 68.2817"/><path d="M 279.961 69.1664 A 3.17541 3.17541 0 0 0 279.081 68.4849"/><path d="M 166.682 174.017 A 4 2.68883 -178.597 0 0 174.68 174.213"/><path d="M 173.099 172.005 A 4 2.68883 -178.597 0 0 166.682 174.017"/><path d="M 174.68 174.213 A 4 2.68883 -178.597 0 0 173.099 172.005"/><path d="M 168.397 173.029 A 2.77171 1.86316 -358.597 1 0 173.015 173.142"/><path d="M 169.412 172.441 A 2.83052 1.91029 -357.488 0 0 168.397 173.029"/><path d="M 172.356 172.653 A 3.20345 3.20345 0 0 0 172.038 172.508"/><path d="M 173.015 173.142 A 2.86711 1.91171 -359.907 0 0 172.356 172.653"/><path d="M 173.062 173.193 A 2.8117 1.89004 -358.597 0 0 172.379 172.682"/><path d="M 169.221 172.529 A 2.8117 1.89004 -358.597 0 0 168.351 173.075"/><path d="M 172.379 172.682 A 3.1474 3.1474 0 0 0 172.21 172.6"/><path d="M 168.404 173.12 A 2.73061 1.83554 -358.597 0 0 168.362 175.104"/><path d="M 172.948 175.217 A 2.73061 1.83554 -358.597 0 0 173.004 173.233"/><path d="M 166.621 176.515 A 4 2.68883 -178.597 0 0 174.619 176.711"/><path d="M 174.619 176.711 L 174.68 174.213"/><path d="M 166.621 176.515 L 166.682 174.017"/><path d="M 169.191 173.706 A 1.5 1.00831 -358.597 0 0 170.025 174.638"/><path d="M 171.31 174.67 A 1.5 1.00831 -358.597 0 0 172.19 173.78"/><path d="M 172.19 173.78 A 1.5 1.00831 -358.597 0 0 171.597 172.952"/><path d="M 171.597 172.952 A 1.5 1.00831 -358.597 0 0 169.191 173.706"/><path d="M 169.748 174.521 A 1.84457 1.84457 0 0 0 170.014 174.634"/><path d="M 170.014 174.635 A 2.26308 2.26308 0 0 0 171.322 174.667"/><path d="M 171.321 174.666 A 1.56 1.04864 -358.597 1 0 169.748 174.521"/><path d="M 169.806 172.303 A 2.24012 1.50582 -178.597 1 0 172.045 172.517"/><path d="M 172.045 172.517 A 2.66624 2.66624 0 0 0 171.643 172.348"/><path d="M 171.643 172.348 A 2.24012 1.50582 -178.597 0 0 169.806 172.303"/><path d="M 169.806 172.303 A 3.17516 3.17516 0 0 0 168.405 173.12"/><path d="M 172.123 172.551 A 3.175 3.175 0 0 0 171.643 172.348"/><path d="M 173.004 173.233 A 3.17541 3.17541 0 0 0 172.123 172.551"/><path d="M 22.4321 16.3926 A 4 2.68883 -178.597 0 0 30.4297 16.5882"/><path d="M 28.8484 14.3805 A 4 2.68883 -178.597 0 0 22.4321 16.3926"/><path d="M 30.4297 16.5882 A 4 2.68883 -178.597 0 0 28.8484 14.3805"/><path d="M 24.1472 15.4042 A 2.77171 1.86316 -358.597 1 0 28.7651 15.5172"/><path d="M 25.1618 14.8168 A 2.83052 1.91029 -357.488 0 0 24.1472 15.4042"/><path d="M 28.106 15.0284 A 3.20345 3.20345 0 0 0 27.7881 14.884"/><path d="M 28.7651 15.5172 A 2.86711 1.91171 -359.907 0 0 28.106 15.0284"/><path d="M 28.8119 15.5686 A 2.8117 1.89004 -358.597 0 0 28.129 15.0572"/><path d="M 24.9707 14.905 A 2.8117 1.89004 -358.597 0 0 24.101 15.4501"/><path d="M 28.129 15.0572 A 3.1474 3.1474 0 0 0 27.9597 14.975"/><path d="M 24.154 15.4956 A 2.73061 1.83554 -358.597 0 0 24.1116 17.4791"/><path d="M 28.6981 17.5924 A 2.73061 1.83554 -358.597 0 0 28.7538 15.6082"/><path d="M 22.371 18.8905 A 4 2.68883 -178.597 0 0 30.3686 19.0862"/><path d="M 30.3686 19.0862 L 30.4297 16.5882"/><path d="M 22.371 18.8906 L 22.4321 16.3926"/><path d="M 24.9405 16.0818 A 1.5 1.00831 -358.597 0 0 25.7745 17.0133"/><path d="M 27.0594 17.0452 A 1.5 1.00831 -358.597 0 0 27.9396 16.1552"/><path d="M 27.9396 16.1552 A 1.5 1.00831 -358.597 0 0 27.3466 15.3272"/><path d="M 27.3466 15.3272 A 1.5 1.00831 -358.597 0 0 24.9405 16.0818"/><path d="M 25.4983 16.897 A 1.84457 1.84457 0 0 0 25.7642 17.0099"/><path d="M 25.7641 17.0102 A 2.26308 2.26308 0 0 0 27.0713 17.0422"/><path d="M 27.0712 17.0419 A 1.56 1.04864 -358.597 1 0 25.4983 16.8969"/><path d="M 25.5562 14.6786 A 2.24012 1.50582 -178.597 1 0 27.795 14.8924"/><path d="M 27.795 14.8924 A 2.66624 2.66624 0 0 0 27.3928 14.7236"/><path d="M 27.3928 14.7235 A 2.24012 1.50582 -178.597 0 0 25.5562 14.6786"/><path d="M 25.5562 14.6786 A 3.17516 3.17516 0 0 0 24.1545 15.4951"/><path d="M 27.8732 14.9267 A 3.175 3.175 0 0 0 27.3928 14.7235"/><path d="M 28.7538 15.6082 A 3.17541 3.17541 0 0 0 27.8732 14.9267"/></g></svg>