<?xml version="1.0" encoding="utf-8" ?><!DOCTYPE svg PUBLIC "-//W3C//DTD SVG 1.1//EN" "http://www.w3.org/Graphics/SVG/1.1/DTD/svg11.dtd" 
[ <!ATTLIST svg 
  xmlns:dsy CDATA #FIXED "http://www.3ds.com/print"  
    dsy:text-version CDATA #IMPLIED > 

  <!ATTLIST text 
  xmlns:dsy CDATA #FIXED "http://www.3ds.com/print" 
    dsy:text-version CDATA #IMPLIED > 
]><svg xmlns="http://www.w3.org/2000/svg" xmlns:dsy="http://www.3ds.com/print" dsy:text-version="18000" width="1189" height="841" viewBox="0 0 1189 841" version="1.1"><g stroke="rgb(0, 0, 0)" stroke-width="0.35" stroke-linecap="butt" stroke-linejoin="miter" fill="none"><path d="M 832.232 441.045 L 831.715 450.107"/><path d="M 833.013 401.985 A 42.8939 30.5626 -244.012 0 0 826.211 399.909"/><path d="M 826.378 415.438 L 826.821 415.677 L 827.253 415.954 L 827.846 416.412 L 828.389 416.921 L 828.874 417.46 L 829.389 418.136 L 829.661 418.541 L 829.929 418.978 L 830.376 419.805 L 830.732 420.572 L 831.139 421.598 L 831.363 422.251 L 831.698 423.391 L 831.992 424.622 L 832.239 425.939 L 832.434 427.339 L 832.583 428.913 L 832.65 430.101 L 832.682 431.423 L 832.675 432.754 L 832.604 434.535 L 832.422 437.718 L 832.232 441.045"/><path d="M 789.143 410.048 L 806.14 403.933 L 810.993 402.188 L 812.371 401.69 L 813.757 401.21 L 815.216 400.768 L 816.696 400.394 L 818.216 400.091 L 819.382 399.912 L 820.531 399.786 L 821.678 399.708 L 822.824 399.681 L 823.667 399.694 L 824.508 399.735 L 825.361 399.807 L 826.211 399.909"/><path d="M 679.555 652.439 L 676.557 634.206 L 676.179 631.91 L 675.934 630.406 L 675.684 628.605 L 675.569 627.555 L 675.48 626.54 L 675.412 625.523 L 675.362 624.473 L 675.332 623.423 L 675.321 622.331 L 675.331 621.24 L 675.391 619.391 L 675.501 617.589 L 675.662 615.769 L 675.875 613.922"/><path d="M 687.028 697.886 L 679.555 652.44"/><path d="M 846.094 461.413 L 846.067 461.883"/><path d="M 826.378 415.438 L 825.8 415.186 L 825.171 414.978 L 824.462 414.817 L 824.145 414.766"/><path d="M 833.013 401.985 L 833.773 402.378 L 834.518 402.802 L 835.245 403.254 L 835.982 403.754 L 836.982 404.505 L 837.921 405.296 L 838.745 406.064 L 839.451 406.786 L 840.128 407.538 L 840.774 408.32 L 841.443 409.204 L 842.123 410.188 L 842.754 411.197 L 843.361 412.267"/><path d="M 800.765 421.809 L 814.512 416.863 L 817.339 415.844 L 818.37 415.483 L 819.198 415.229 L 819.978 415.031 L 820.746 414.876 L 821.315 414.787 L 821.846 414.728 L 822.354 414.693 L 822.838 414.681 L 823.509 414.702 L 823.957 414.723 L 824.18 414.746"/><path d="M 701.374 692.685 L 694.356 650.005"/><path d="M 694.356 650.003 L 691.865 634.856 L 691.144 630.475 L 690.797 628.357 L 690.643 627.338 L 690.576 626.828 L 690.445 625.496 L 690.358 624.065 L 690.322 622.574 L 690.339 621.028"/><path d="M 1086.78 579.821 A 7 3.16632 -235.857 0 0 1086.09 576.815"/><path d="M 1086.09 576.815 A 7 3.16632 -235.857 0 0 1084.15 576.735"/><path d="M 1086.38 579.096 A 6.25 2.82709 -235.857 0 0 1085.67 577.436"/><path d="M 1085.67 577.436 A 6.25 2.82709 -235.857 0 0 1084.76 577.199"/><path d="M 841.37 410.86 L 1086.09 576.815"/><path d="M 832.966 422.077 L 1066.92 580.729"/><path d="M 1089.34 583.068 A 7 2.39044 -176.268 0 0 1087.35 581.225"/><path d="M 1087.76 584.443 A 7 2.39044 -176.268 0 0 1089.34 583.068"/><path d="M 1088.59 583.019 A 6.25 2.13434 -176.268 0 0 1087.48 581.689"/><path d="M 1087.77 583.985 A 6.25 2.13434 -176.268 0 0 1088.59 583.019"/><path d="M 1089.34 583.068 L 1088.18 600.827"/><path d="M 1087.76 584.443 A 7 5.17609 -289.788 0 0 1079.99 576.026"/><path d="M 1034.75 592.302 L 1079.99 576.026"/><path d="M 602.378 581.414 A 0.00622559 0.00622559 0 0 0 602.376 581.402"/><path d="M 602.376 581.402 L 602.354 581.399 L 602.261 581.405 L 601.605 581.508 L 600.467 581.725 L 599.552 581.91 L 596.612 582.53 L 593.53 583.203 L 588.869 584.249"/><path d="M 584.858 584.913 A 7 3.16571 -132.429 0 0 585.159 585.346"/><path d="M 584.858 584.913 L 584.867 584.84 L 584.865 584.694 L 584.832 584.376 L 584.773 583.903 L 584.693 583.093 L 584.652 582.291 L 584.66 581.427 L 584.725 580.591 L 584.854 579.794 L 584.943 579.416 L 585.049 579.053 L 585.234 578.562 L 585.456 578.117 L 585.716 577.728 L 586.013 577.406"/><path d="M 585.159 585.346 L 585.189 585.256 L 585.239 585.195 L 585.284 585.161 L 585.382 585.11 L 585.603 585.032 L 585.955 584.935 L 587.095 584.659 L 588.869 584.249"/><path d="M 709.513 483.488 L 602.388 581.405"/><path d="M 719.817 455.103 L 586.013 577.406"/><path d="M 343.207 513.184 L 343.13 513.564 L 343.112 513.952 L 343.152 514.314 L 343.244 514.67 L 343.381 515.015 L 343.513 515.275 L 343.663 515.526 L 343.88 515.839 L 344.115 516.139 L 344.367 516.426 L 344.631 516.702 L 345.19 517.218 L 345.779 517.69 L 346.392 518.117 L 347.027 518.499 L 347.429 518.711"/><path d="M 343.207 513.184 L 343.352 512.772 L 343.545 512.376 L 343.777 511.989 L 344.036 511.614 L 344.412 511.129 L 344.814 510.656 L 345.237 510.191 L 345.909 509.496"/><path d="M 350.96 505.278 L 350.916 505.276 L 350.771 505.331 L 350.605 505.426 L 350.141 505.75 L 349.431 506.307 L 348.596 507.007 L 347.573 507.913 L 346.528 508.888 L 345.909 509.496"/><path d="M 347.429 518.71 A 8.16998 8.16998 0 0 0 348.689 519.218"/><path d="M 675.809 603.636 L 602.376 581.402"/><path d="M 586.8 576.686 L 350.96 505.278"/><path d="M 675.461 618.158 L 596.531 594.26"/><path d="M 566.999 585.318 L 348.689 519.217"/><path d="M 690.014 701.367 L 689.808 700.976 L 689.522 700.567 L 689.169 700.164 L 688.777 699.782 L 688.504 699.538 L 687.947 699.067 L 687.38 698.608 L 686.259 697.71"/><path d="M 686.259 697.71 L 684.972 696.643 L 684.348 696.1 L 683.453 695.272 L 682.603 694.417"/><path d="M 690.014 701.367 A 7 0.894348 -223.373 0 0 690.213 701.258"/><path d="M 586.492 587.602 L 586.505 587.993 L 586.582 588.38 L 586.653 588.582 L 586.744 588.779 L 586.855 588.968 L 586.982 589.15 L 587.164 589.37 L 587.361 589.577 L 587.616 589.814 L 587.883 590.037 L 588.24 590.309 L 588.606 590.567 L 589.358 591.051 L 590.129 591.503 L 590.915 591.93 L 591.94 592.447 L 592.983 592.929"/><path d="M 584.289 589.19 A 7 0.894348 -223.373 0 0 586.492 587.602"/><path d="M 584.289 589.19 L 584.531 589.563 L 584.658 589.8 L 584.867 590.254 L 585.114 590.838 L 585.354 591.34 L 585.536 591.639 L 585.734 591.886"/><path d="M 584.289 589.19 A 224.943 224.943 0 0 0 585.171 588.557"/><path d="M 585.172 588.557 A 38.3336 38.3336 0 0 0 586.492 587.602"/><path d="M 596.531 594.26 L 595.451 593.907 L 594.384 593.513 L 592.983 592.929"/><path d="M 585.734 591.886 L 682.603 694.417"/><path d="M 611.527 598.8 L 683.211 674.675"/><path d="M 566.999 585.318 L 567.54 585.472 L 568.102 585.614 L 568.854 585.784 L 569.625 585.94 L 570.741 586.139 L 571.887 586.32 L 573.931 586.595 L 576.026 586.828 L 578.224 587.03 L 580.459 587.199"/><path d="M 584.762 587.28 L 584.754 587.339 L 584.717 587.383 L 584.656 587.401 L 584.513 587.41 L 584.128 587.402 L 582.614 587.331 L 580.459 587.199"/><path d="M 584.762 587.28 A 13.0098 13.0098 0 0 0 584.907 587.599"/><path d="M 584.907 587.599 L 584.913 587.665 L 584.939 587.795 L 585.045 588.183 L 585.172 588.557"/><path d="M 584.762 587.28 A 7 4.54785 -104.297 0 0 584.907 587.599"/><path d="M 362.028 642.864 A 12.5208 12.5208 0 0 0 362.07 643.122"/><path d="M 362.48 644.894 L 362.458 644.783 L 362.401 644.56 L 362.263 644.037 L 362.07 643.122"/><path d="M 362.48 644.894 A 7 4.54785 -104.297 0 0 362.878 645.546"/><path d="M 362.878 645.546 L 362.864 645.431 L 362.875 645.379 L 362.937 645.312 L 362.981 645.293 L 363.077 645.269 L 363.304 645.24 L 363.881 645.205 L 364.145 645.194 L 365.845 645.124 L 368.668 644.988 L 371.95 644.785"/><path d="M 371.95 644.785 L 375.494 644.507 L 377.278 644.341 L 379.073 644.155 L 380.889 643.945 L 383.643 643.577 L 385.03 643.366 L 386.427 643.131 L 388.316 642.77 L 389.285 642.559 L 390.259 642.325"/><path d="M 362.028 642.864 L 361.918 641.875 L 361.892 641.374 L 361.886 640.873 L 361.915 640.123 L 361.989 639.382 L 362.108 638.658 L 362.274 637.958 L 362.518 637.201 L 362.662 636.842 L 362.821 636.498 L 363.054 636.066 L 363.312 635.669 L 363.593 635.31 L 363.948 634.947 L 364.33 634.649 L 364.732 634.424 L 364.94 634.34 L 365.15 634.276"/><path d="M 586.209 592.389 L 390.259 642.325"/><path d="M 562.55 583.971 L 365.15 634.276"/><path d="M 832.645 433.714 L 824.765 444.116"/><path d="M 828.05 416.592 L 814.317 434.724"/><path d="M 705.781 494.887 L 699.932 492.245"/><path d="M 686.043 485.974 L 567.317 432.364"/><path d="M 701.608 508.363 L 688.683 502.527"/><path d="M 674.794 496.256 L 575.198 451.283"/><path d="M 690.398 548.03 L 619.586 565.685"/><path d="M 694.637 532.545 L 641.292 545.845"/><path d="M 612.758 552.959 L 610.408 553.545"/><path d="M 780.071 654.437 L 780.183 654.833 L 780.319 655.237 L 780.651 656.07 L 780.916 656.657 L 781.513 657.866"/><path d="M 777.884 645.749 L 780.071 654.437"/><path d="M 693.335 703.534 A 7 3.27722 -80.442 0 0 694.419 703.35"/><path d="M 691.557 701.643 A 7 3.27722 -80.442 0 0 693.335 703.534"/><path d="M 362.648 645.184 A 7 3.27722 -80.442 0 0 364.736 648.203"/><path d="M 674.864 686.226 L 399.76 639.903"/><path d="M 693.335 703.534 L 364.736 648.203"/><path d="M 787.274 669.074 A 7 5.06152 -70.9649 0 0 787.501 669.145"/><path d="M 786.753 668.848 A 7 5.06152 -70.9649 0 0 787.274 669.074"/><path d="M 779.339 651.527 L 691.659 621.276"/><path d="M 787.274 669.074 L 786.686 668.872"/><path d="M 747.775 655.447 L 692.092 636.235"/><path d="M 675.977 630.675 L 625.037 613.101"/><path d="M 453.102 61.6796 L 397.236 145.312"/><path d="M 377.89 174.271 L 323.293 256.004"/><path d="M 468.8 63.3835 L 468.528 63.7899"/><path d="M 460.712 75.4908 L 392.584 177.478"/><path d="M 373.302 206.344 L 334.281 264.759"/><path d="M 403.503 74.4485 A 7 3.63367 -140.221 0 0 405.615 80.8562"/><path d="M 221.681 292.842 A 7 3.63367 -140.221 0 0 223.794 299.25"/><path d="M 404.079 74.9284 A 6.25 3.24432 -140.221 0 0 405.52 80.1736"/><path d="M 403.503 74.4485 L 221.681 292.842"/><path d="M 391.622 110.6 L 234.856 298.899"/><path d="M 787.348 645.542 A 77.6998 77.6998 0 0 0 788.284 645.852"/><path d="M 786.886 645.709 A 6.43213 6.43213 0 0 0 787.348 645.542"/><path d="M 786.206 645.837 L 786.413 645.821 L 786.616 645.783 L 786.886 645.709"/><path d="M 786.248 647.912 L 786.202 647.54 L 786.174 647.151 L 786.165 646.708 L 786.178 646.25 L 786.206 645.837"/><path d="M 786.248 647.912 L 786.585 648.304 L 786.908 648.704 L 787.552 649.509 L 788.198 650.295 L 788.862 651.063 L 789.545 651.804"/><path d="M 786.107 646.507 L 786.166 646.661"/><path d="M 786.107 646.507 L 786.03 646.595"/><path d="M 786.03 646.595 L 786.168 646.954"/><path d="M 786.795 648.562 L 786.994 649.067"/><path d="M 787.163 649.024 A 2.45728 2.45728 0 0 0 786.994 649.067"/><path d="M 808.935 747.915 L 808.86 747.634 L 808.753 747.349 L 808.609 747.026 L 808.293 746.388 L 808.099 746.004"/><path d="M 811.077 748.405 L 811.079 748.121 L 811.139 747.853 L 811.24 747.606 L 811.367 747.37"/><path d="M 808.099 746.004 L 807.699 745.173 L 807.306 744.235 L 807.12 743.71 L 806.989 743.286 L 806.877 742.86"/><path d="M 784.875 646.274 A 6.25 2.89734 -193.397 0 0 786.03 646.595"/><path d="M 784.875 646.274 L 784.891 646.538 L 784.868 646.767 L 784.837 646.905 L 784.756 647.147 L 784.658 647.367 L 784.474 647.718 L 784.356 647.951 L 784.323 648.036 L 784.311 648.099 L 784.313 648.123"/><path d="M 808.935 747.915 A 6.25 2.89734 -193.397 0 0 811.077 748.405"/><path d="M 784.875 646.274 A 205.614 205.614 0 0 0 786.107 646.507"/><path d="M 784.313 648.123 L 806.877 742.86"/><path d="M 785.962 644.976 A 6.25 3.2608 -69.5612 0 0 785.925 646.473"/><path d="M 786.094 644.127 A 6.25 3.2608 -69.5612 0 0 785.962 644.976"/><path d="M 786.359 645.489 A 5.5 2.86951 -69.5612 0 0 786.359 645.828"/><path d="M 730.913 627.286 A 6.32245 4.29535 -261.339 0 0 732.793 628.944"/><path d="M 784.318 648.146 L 732.793 628.944"/><path d="M 786.021 642.031 A 6.25 3.47339 -276.356 0 0 786.282 645.172"/><path d="M 786.282 645.172 A 6.25 3.47339 -276.356 0 0 786.451 645.816"/><path d="M 730.676 627.229 A 6.25 4.22339 -259.36 0 0 733.006 629.044"/><path d="M 733.006 629.044 A 6.25 4.22339 -259.36 0 0 733.104 629.06"/><path d="M 682.286 619.515 L 733.006 629.044"/><path d="M 809.931 748.248 A 6.25 3.75348 -71.7787 0 0 811.941 751.122"/><path d="M 825.718 755.658 L 811.941 751.122"/><path d="M 811.546 750.977 A 6.25 3.89056 -67.8721 0 0 811.751 751.05"/><path d="M 809.677 748.185 A 6.25 3.89056 -67.8721 0 0 811.546 750.977"/><path d="M 804.959 734.805 L 700.288 692.243"/><path d="M 811.546 750.977 L 692.161 702.432"/><path d="M 1016.13 579.478 L 1061.87 577.306"/><path d="M 1033.13 591.185 L 1038.57 590.926"/><path d="M 846.328 462.082 L 831.082 418.261"/><path d="M 864.378 475.918 L 849.56 433.329"/><path d="M 337.429 260.045 L 362.836 279.501"/><path d="M 327.135 267.906 L 360.806 293.691"/><path d="M 232.362 294.364 L 334.216 479.59"/><path d="M 221.409 300.387 L 335.81 508.432"/><path d="M 361.95 642.734 A 6.25 3.65674 -72.1993 0 0 363.143 646.751"/><path d="M 202.37 592.099 A 6.25 3.65674 -72.1993 0 0 204.43 596.026"/><path d="M 336.971 625.454 L 208.251 584.125"/><path d="M 363.291 647.033 L 204.43 596.026"/><path d="M 200.496 592.337 A 6.25 0.647705 -21.2751 0 0 202.37 592.099"/><path d="M 153.958 472.82 A 6.25 0.647705 -21.2751 0 0 155.832 472.582"/><path d="M 211.063 585.028 L 174.343 490.723"/><path d="M 200.495 592.337 L 153.958 472.82"/><path d="M 155.84 469.452 A 6.25 4.11664 -77.7594 0 0 155.632 472.636"/><path d="M 332.012 501.525 L 161.442 464.52"/><path d="M 337.494 515.505 L 158.625 476.699"/><path d="M 366.728 633.874 L 183.531 482.103"/><path d="M 361.917 646.121 L 155.811 475.37"/><path d="M 351.449 359.092 L 337.1 275.537"/><path d="M 345.685 399.381 L 323.341 269.271"/><path d="M 324.48 255.577 L 248.022 283.085"/><path d="M 330.369 266.742 L 235.869 300.742"/><path d="M 153.977 468.363 A 6.25 0.452393 -338.777 0 0 157.251 470.077"/><path d="M 221.287 295.107 A 6.25 0.452393 -338.777 0 0 221.249 295.136"/><path d="M 221.249 295.136 A 6.25 0.452393 -338.777 0 0 221.321 295.254"/><path d="M 153.977 468.363 L 221.249 295.136"/><path d="M 168.602 465.233 L 227.979 312.335"/><path d="M 379.756 528.624 A 6.25 3.65674 -72.1993 0 0 381.606 532.138"/><path d="M 591.826 609.589 L 633.418 642.357"/><path d="M 589.976 620.862 L 626.169 649.377"/><path d="M 627.187 650.179 L 672.418 685.814"/><path d="M 405.755 638.376 L 457.288 640.948"/><path d="M 498.573 643.009 L 640.737 650.104"/><path d="M 660.95 651.113 L 679.489 652.039"/><path d="M 694.816 652.804 L 781.135 657.112"/><path d="M 504.576 653.321 L 639.737 660.067"/><path d="M 670.878 661.621 L 681.149 662.134"/><path d="M 696.476 662.899 L 764.334 666.286"/><path d="M 700.792 689.147 L 786.72 658.232"/><path d="M 717.288 693.84 L 787.351 668.632"/><path d="M 328.326 494.822 L 319.276 490.585"/><path d="M 379.998 530.056 L 373.893 527.198"/><path d="M 309.18 488.731 L 316.147 472.674"/><path d="M 322.439 458.174 L 325.201 451.807"/><path d="M 329.3 442.362 L 344.572 407.165"/><path d="M 318.124 493.241 L 322.24 483.754"/><path d="M 328.532 469.254 L 330.068 465.713"/><path d="M 333.528 457.74 L 338.119 447.16"/><path d="M 309.997 486.849 L 296.889 482.533"/><path d="M 258.442 469.874 L 177.189 443.121"/><path d="M 297.367 493.218 L 258.508 480.424"/><path d="M 250.533 477.798 L 173.774 452.524"/><path d="M 56.1481 484.216 L 118.254 461.872"/><path d="M 133.363 456.436 L 149.583 450.6"/><path d="M 159.035 447.2 L 162.708 445.878"/><path d="M 68.9251 490.247 L 133.46 467.028"/><path d="M 148.569 461.592 L 152.077 460.331"/><path d="M 219.043 361.353 L 180.318 444.151"/><path d="M 225.092 352.845 L 256.022 363.333"/><path d="M 273.557 369.279 L 333.046 389.452"/><path d="M 216.387 360.452 L 263.159 376.313"/><path d="M 280.694 382.259 L 345.015 404.07"/><path d="M 21.9602 419.776 A 5 3.6972 -109.788 0 0 19.8458 423.155"/><path d="M 19.8458 423.155 A 5 3.6972 -109.788 0 0 19.834 423.469"/><path d="M 20.8288 421.795 A 4.25 3.14264 -109.788 0 0 20.4243 423.351"/><path d="M 213.55 350.846 L 212.938 351.066"/><path d="M 191.4 358.815 L 141.032 376.936"/><path d="M 131.58 380.337 L 94.7688 393.581"/><path d="M 217.521 360.045 L 208.14 363.42"/><path d="M 192.553 369.028 L 143.525 386.667"/><path d="M 134.073 390.067 L 38.7646 424.357"/><path d="M 213.067 351.398 L 235.421 325.87"/><path d="M 220.17 358.465 L 240.549 335.194"/><path d="M 249.311 325.187 L 257.03 316.373"/><path d="M 343.289 385.428 L 264.693 309.869"/><path d="M 345.406 401.335 L 255.522 314.924"/><path d="M 128.266 350.08 A 5 3.6972 -109.788 0 0 128.253 350.085"/><path d="M 128.253 350.085 A 5 3.6972 -109.788 0 0 127.312 350.655"/><path d="M 244.331 308.322 L 240.747 309.612"/><path d="M 228.838 313.897 L 227.134 314.51"/><path d="M 128.266 350.08 L 128.253 350.085"/><path d="M 258.333 313.912 L 245.625 318.484"/><path d="M 233.716 322.769 L 222.337 326.863"/><path d="M 206.75 332.471 L 136.148 357.872"/><path d="M 127.441 350.569 L 221.257 294.948"/><path d="M 132.541 359.171 L 215.476 310.001"/><path d="M 254.852 304.448 L 277.592 289.09"/><path d="M 259.439 313.417 L 323.493 270.157"/><path d="M 160.292 452.102 L 135.961 357.144"/><path d="M 154.072 468.117 L 125.36 356.06"/><path d="M 20.5559 425.676 A 5 2.90094 -251.268 0 0 22.1177 429.272"/><path d="M 25.3289 419.801 L 152.765 463.015"/><path d="M 22.1177 429.272 L 154.477 474.155"/><path d="M 21.0539 420.371 A 5 1.56946 -303.256 0 0 21.205 423.004"/><path d="M 21.0539 420.371 L 127.15 350.794"/><path d="M 35.1032 423.116 L 127.086 362.795"/><path d="M 19.3752 426.584 A 5 3.54175 -204.129 0 0 20.8833 428.008"/><path d="M 19.9716 423.274 A 5 3.54175 -204.129 0 0 19.3752 426.584"/><path d="M 20.0597 426.278 A 4.25 3.0105 -204.129 0 0 20.6091 427.023"/><path d="M 20.5666 423.464 A 4.25 3.0105 -204.129 0 0 20.0597 426.278"/><path d="M 21.1368 422.828 A 4.25 3.0105 -204.129 0 0 20.5666 423.464"/><path d="M 33.2234 433.038 L 57.5212 487.282"/><path d="M 19.3753 426.584 L 48.9165 492.534"/><path d="M 50.7151 494.071 A 5 2.91437 -71.7754 0 0 51.8919 495.167"/><path d="M 174.246 524.925 L 57.1064 486.355"/><path d="M 178.948 537.001 L 51.8919 495.167"/><path d="M 196.741 533.76 L 175.916 492.026"/><path d="M 201.967 592.205 A 5 3.55847 -14.3419 0 0 202.403 592.693"/><path d="M 208.756 579.101 L 197.486 535.022"/><path d="M 299.733 492.367 L 295.997 493.711"/><path d="M 273.819 501.691 L 227.353 518.408"/><path d="M 213.693 523.323 L 194.906 530.082"/><path d="M 292.246 505.688 L 236.297 525.818"/><path d="M 222.636 530.732 L 198.6 539.38"/><path d="M 795.707 697.008 L 785.921 663.776"/><path d="M 702.772 693.253 L 795.958 697.018"/><path d="M 723.268 701.587 L 797.764 704.597"/><path d="M 379.201 513.828 L 578.392 442.163"/><path d="M 391.231 517.471 L 580.931 449.221"/><path d="M 263.809 466.43 A 3.75 2.77289 -109.788 0 0 262.376 466.44"/><path d="M 262.376 466.44 A 3.75 2.77289 -109.788 0 0 261.511 467.027"/><path d="M 340.092 438.479 L 316.314 447.034"/><path d="M 304.405 451.319 L 262.376 466.44"/><path d="M 338.89 446.882 L 319.973 453.689"/><path d="M 308.064 457.973 L 296.147 462.261"/><path d="M 337.404 457.271 L 322.907 459.024"/><path d="M 309.531 460.642 L 263.195 466.246"/><path d="M 336.304 464.959 L 326.802 466.108"/><path d="M 313.426 467.726 L 276.404 472.203"/><path d="M 263.811 466.43 A 3.75 2.85474 -63.239 0 0 262.478 467.029"/><path d="M 331.038 499.754 L 265.334 466.62"/><path d="M 307.233 496.149 L 261.957 473.317"/><path d="M 262.478 467.029 A 3.75 1.98303 -135.055 0 0 260.991 467.319"/><path d="M 260.991 467.32 L 245.57 482.771"/><path d="M 264.382 474.54 L 254.28 484.661"/><path d="M 249.6 302.35 L 258.148 305.765"/><path d="M 240.35 306.732 L 255.366 312.729"/><path d="M 215.373 310.266 L 213.665 311.075"/><path d="M 307.073 275.124 L 239.408 307.178"/><path d="M 228.091 312.54 L 227.856 312.651"/><path d="M 211.424 320.436 L 144.012 352.37"/><path d="M 87.1596 388.978 L 128.547 368.5"/><path d="M 137.709 363.967 L 148.455 358.65"/><path d="M 35.1848 423.062 L 130.45 375.926"/><path d="M 139.612 371.393 L 166.029 358.322"/><path d="M 199.42 351.345 L 180.278 351.272"/><path d="M 196.511 358.834 L 165.236 358.714"/><path d="M 154.765 351.174 L 164.381 351.211"/><path d="M 136.335 358.603 L 164.352 358.711"/><path d="M 187.011 339.573 L 163.496 351.207"/><path d="M 248.99 317.274 L 245.822 318.841"/><path d="M 234.608 324.39 L 220.607 331.317"/><path d="M 204.008 339.53 L 166.029 358.322"/><path d="M 361.958 527.843 A 7 5.67712 -242.204 0 0 369.471 525.51"/><path d="M 354.972 524.161 L 361.958 527.843"/><path d="M 217.513 476.684 A 6.25 4.64294 -286.681 0 0 211.138 467.948"/><path d="M 196.903 472.213 L 211.138 467.948"/><path d="M 160.291 464.405 L 208.17 469.176"/></g><g stroke="rgb(0, 0, 0)" stroke-width="0.13" stroke-linecap="butt" stroke-linejoin="miter" fill="none"><path d="M 875.362 479.558 L 875.835 479.18"/></g><g stroke="rgb(0, 0, 0)" stroke-width="0.35" stroke-linecap="butt" stroke-linejoin="miter" fill="none"><path d="M 880.437 487.532 A 5 2.95435 -308.592 0 0 875.362 479.558"/><path d="M 880.654 487.406 A 5 2.95435 -308.592 0 0 875.835 479.18"/><path d="M 875.753 482.234 A 2.09998 1.24084 -308.592 0 0 875.812 484.241"/><path d="M 878.528 483.946 A 2.09998 1.24084 -308.592 0 0 875.753 482.234"/><path d="M 876.029 482.094 A 2.09998 1.24084 -308.592 0 0 878.57 485.278"/><path d="M 878.372 485.516 A 2.09998 1.24084 -308.592 0 0 878.528 483.946"/><path d="M 877.841 485.69 A 2.09998 1.24084 -308.592 0 0 878.372 485.516"/><path d="M 868.899 479.244 L 875.362 479.558"/><path d="M 868.313 478.815 L 875.835 479.18"/><path d="M 880.468 487.554 L 880.654 487.406"/><path d="M 723.453 446.285 L 724.184 444.651 L 724.968 443.043 L 725.801 441.465 L 726.68 439.92 L 727.602 438.413 L 728.297 437.342 L 729.258 435.947 L 730.269 434.572 L 731.286 433.277 L 732.326 432.038 L 733.017 431.258 L 733.712 430.507 L 734.782 429.416 L 735.141 429.067 L 736.172 428.109 L 737.221 427.203 L 738.258 426.376 L 739.257 425.641 L 740.257 424.968 L 740.935 424.549 L 741.616 424.157"/></g><g stroke="rgb(0, 0, 0)" stroke-width="0.13" stroke-linecap="butt" stroke-linejoin="miter" fill="none"><path d="M 741.616 424.157 L 742.991 426.961 L 744.499 429.918 L 746.138 433.018 L 747.861 436.164 L 749.339 438.785 L 751.055 441.751 L 752.855 444.786 L 755.27 448.754 L 756.873 451.332 L 758.525 453.95 L 760.572 457.147 L 763.853 462.175 L 765.855 465.19 L 768.962 469.787 L 770.435 471.927 L 772.449 474.803 L 773.881 476.804 L 775.332 478.777 L 777.072 481.057 L 777.962 482.182 L 778.866 483.296 L 780.311 485.009 L 781.798 486.689 L 783.331 488.332 L 784.91 489.937 L 786.715 491.666 L 788.575 493.344 L 790.49 494.972 L 792.456 496.553 L 793.756 497.554 L 795.15 498.594 L 796.565 499.619 L 798.886 501.245 L 800.463 502.32 L 803.672 504.459 L 806.98 506.638 L 810.18 508.765 L 811.786 509.853 L 814.192 511.521 L 816.753 513.359 L 819.143 515.146 L 821.365 516.875 L 823.769 518.821 L 825.39 520.174 L 826.997 521.541 L 830.062 524.215 L 832.448 526.349 L 834.799 528.492 L 837.89 531.358 L 839.927 533.27 L 843.963 537.093 L 850.128 542.95 L 853.214 545.86 L 856.317 548.754 L 858.734 550.981 L 863.184 555.014 L 865.22 556.826 L 867.945 559.221 L 870.695 561.602 L 874.45 564.795 L 878.249 567.962 L 882.092 571.102 L 886.096 574.31 L 890.141 577.488 L 894.225 580.632 L 898.356 583.748 L 902.528 586.824 L 906.277 589.525 L 910.063 592.188 L 913.886 594.806 L 917.749 597.374 L 921.096 599.529 L 924.477 601.636 L 927.585 603.508 L 930.726 605.331 L 933.708 606.996 L 935.138 607.771 L 937.888 609.218 L 940.658 610.614 L 943.388 611.93 L 944.054 612.24 L 946.729 613.442 L 948.073 614.015 L 949.421 614.568 L 951.226 615.273 L 953.038 615.94 L 954.859 616.569 L 957.357 617.369 L 959.866 618.102 L 962.384 618.775 L 964.91 619.393 L 966.816 619.826 L 968.727 620.236 L 970.869 620.671 L 973.017 621.084 L 975.528 621.544 L 980.199 622.355 L 984.453 623.068 L 990.896 624.153 L 994.783 624.833 L 999.089 625.624 L 1003.38 626.463 L 1005.88 626.979 L 1009.24 627.705 L 1012.63 628.478 L 1016.03 629.301 L 1019.24 630.116 L 1021.63 630.751 L 1024.02 631.41 L 1026.46 632.106 L 1028.91 632.829 L 1031.4 633.591 L 1033.9 634.379 L 1037.38 635.52 L 1040.85 636.71 L 1044.32 637.949 L 1046.61 638.793 L 1048.88 639.656 L 1051.15 640.537 L 1053.41 641.433 L 1056.96 642.886 L 1060.25 644.282 L 1064.81 646.286 L 1067.82 647.653 L 1070.5 648.899 L 1073.14 650.151 L 1075.86 651.468 L 1079.81 653.427 L 1082.39 654.736 L 1085.74 656.473 L 1089.01 658.21 L 1092.19 659.942 L 1096.61 662.42 L 1098.78 663.674 L 1100.92 664.928 L 1102.95 666.147 L 1104.95 667.366 L 1107.66 669.056 L 1110.28 670.744 L 1113.34 672.772 L 1116.3 674.821 L 1119.25 676.941 L 1120.69 678.017 L 1122.11 679.098 L 1123.47 680.163 L 1124.81 681.237 L 1126.18 682.372 L 1127.53 683.52 L 1129.3 685.082 L 1130.96 686.624 L 1132.54 688.156 L 1134.08 689.732 L 1135.47 691.242 L 1136.64 692.595 L 1137.82 694.027 L 1138.97 695.533 L 1139.31 696.002"/><path d="M 1117.32 714.655 A 25.7501 0.148315 -220.209 0 0 1139.31 696.002"/><path d="M 723.453 446.285 L 724.581 448.159 L 726.616 451.439 L 727.515 452.849 L 729.311 455.602 L 731.257 458.495 L 733.271 461.397 L 734.392 462.974 L 736.13 465.367 L 737.922 467.773 L 740.356 470.943 L 742.943 474.198 L 744.005 475.5 L 746.405 478.374 L 748.881 481.239 L 750.953 483.558 L 752.704 485.463 L 754.492 487.353 L 755.541 488.436 L 757.626 490.512 L 759.779 492.552 L 761.56 494.163 L 763.387 495.746 L 765.543 497.53 L 767.756 499.268 L 770.022 500.957 L 772.276 502.549 L 774.57 504.088 L 776.898 505.57 L 779.252 506.999 L 780.946 507.988 L 782.647 508.953 L 784.493 509.973 L 786.344 510.972 L 790.016 512.909 L 793.683 514.824 L 797.134 516.656 L 797.987 517.119 L 800.447 518.489 L 802.878 519.909 L 804.08 520.64 L 805.271 521.388 L 807.232 522.671 L 809.08 523.946 L 810.428 524.919 L 811.759 525.913 L 813.122 526.965 L 814.47 528.035 L 815.978 529.26 L 817.836 530.804 L 819.671 532.369 L 820.976 533.503 L 823.068 535.359 L 825.137 537.234 L 827.184 539.124 L 829.214 541.029 L 833.232 544.87 L 835.068 546.651 L 838.728 550.227 L 843.771 555.181 L 848.845 560.141 L 853.634 564.756 L 856.106 567.102 L 859.979 570.722 L 863.899 574.315 L 866.822 576.949 L 869.77 579.567 L 873.785 583.073 L 877.842 586.547 L 881.939 589.989 L 886.076 593.396 L 890.185 596.711 L 894.336 599.989 L 898.146 602.932 L 901.998 605.838 L 905.894 608.702 L 909.377 611.193 L 912.901 613.643 L 916.212 615.875 L 919.419 617.969 L 921.339 619.189 L 923.273 620.393 L 925.542 621.77 L 928.408 623.455 L 931.299 625.092 L 933.376 626.225 L 935.371 627.274 L 937.867 628.524 L 940.402 629.718 L 942.972 630.852 L 945.569 631.921 L 947.865 632.804 L 950.173 633.636 L 952.488 634.419 L 954.941 635.196 L 957.395 635.922 L 959.848 636.604 L 961.732 637.1 L 963.615 637.575 L 965.913 638.128 L 968.205 638.656 L 970.628 639.191 L 973.042 639.706 L 978.504 640.826 L 985.895 642.312 L 989.572 643.069 L 993.833 643.984 L 996.129 644.499 L 998.428 645.033 L 1001.5 645.779 L 1004.57 646.568 L 1007.64 647.404 L 1010.82 648.319 L 1013.86 649.248 L 1016.9 650.231 L 1019.15 650.993 L 1021.4 651.785 L 1024.41 652.896 L 1027.43 654.058 L 1030.43 655.269 L 1033.57 656.591 L 1036.69 657.96 L 1039.79 659.373 L 1043.03 660.907 L 1046.24 662.475 L 1048.55 663.639 L 1052.54 665.707 L 1055.36 667.205 L 1059.88 669.684 L 1062.9 671.382 L 1066.94 673.708 L 1069.47 675.206 L 1071.96 676.703 L 1075.47 678.866 L 1078.87 681.025 L 1082.49 683.399 L 1085.98 685.766 L 1089.32 688.125 L 1092.12 690.175 L 1094.81 692.214 L 1097.35 694.217 L 1099.78 696.208 L 1102.11 698.204 L 1104.33 700.186 L 1106.44 702.158 L 1108.13 703.802 L 1109.73 705.438 L 1110.95 706.736 L 1112.34 708.27 L 1113.64 709.789 L 1114.88 711.314 L 1115.62 712.275 L 1116.37 713.294 L 1117.32 714.655"/><path d="M 1139.31 696.002 L 1143.15 694.84 L 1146.95 693.653 L 1150.72 692.433 L 1154.48 691.167 L 1158.22 689.849"/></g><g stroke="rgb(0, 0, 0)" stroke-width="0.35" stroke-linecap="butt" stroke-linejoin="miter" fill="none"><path d="M 786.094 406.856 L 789.999 410.936 L 793.93 414.97 L 797.888 418.957 L 801.874 422.897 L 805.681 426.592 L 809.392 430.129 L 813.219 433.709 L 816.011 436.28 L 818.765 438.781 L 821.923 441.609 L 825.117 444.425 L 829.142 447.912 L 830.425 449.01 L 835.582 453.356 L 839.499 456.588 L 842.707 459.193 L 847.752 463.217 L 851.873 466.442 L 856.027 469.638 L 860.215 472.811 L 863.376 475.175 L 866.552 477.523 L 869.904 479.976 L 873.263 482.41 L 877.058 485.132 L 880.86 487.831 L 885.763 491.277 L 889.872 494.138 L 895.787 498.217 L 901.72 502.271 L 910.186 508.006 L 915.177 511.365 L 925.185 518.071 L 936.367 525.539 L 955.083 538.044 L 964.441 544.321 L 978.476 553.785 L 995.289 565.205 L 1005.03 571.861 L 1016.48 579.723 L 1039.3 595.442 L 1053.6 605.273 L 1060.75 610.172 L 1076.87 621.15 L 1083.94 625.951 L 1088.6 629.123 L 1093.27 632.318 L 1097.83 635.467 L 1102.42 638.664 L 1105.56 640.875 L 1108.69 643.113 L 1113.73 646.77 L 1115.37 647.98 L 1119.2 650.861 L 1123.04 653.815 L 1125.1 655.435 L 1127.16 657.081 L 1128.93 658.525 L 1130.7 659.99 L 1133.43 662.305 L 1135.13 663.788 L 1137.63 666.028 L 1139.4 667.652 L 1141.18 669.334 L 1143.16 671.273 L 1143.74 671.847 L 1145.86 674.028 L 1147.91 676.229 L 1148.37 676.74 L 1150.2 678.83 L 1151.18 679.998 L 1152.61 681.767 L 1153.9 683.441 L 1155.03 684.985 L 1156.15 686.598 L 1157.1 688.038 L 1158.22 689.849"/><path d="M 741.616 424.157 L 743.589 423.095 L 745.569 422.081 L 747.554 421.115 L 749.96 420.004 L 752.372 418.951 L 754.79 417.948 L 756.608 417.225 L 758.431 416.524 L 762.089 415.174 L 766.539 413.607 L 769.515 412.587 L 775.497 410.555 L 780.196 408.94 L 786.094 406.856"/><path d="M 1156.2 723.944 A 25.7501 19.0406 -289.788 0 0 1158.22 689.849"/><path d="M 1156.2 723.944 L 1149.67 729.398 L 1146.39 732.124 L 1141.47 736.198 L 1137.77 739.233 L 1134.06 742.244 L 1129.79 745.648 L 1126.81 747.994 L 1122.52 751.294 L 1120.36 752.926 L 1118.17 754.544 L 1115.24 756.678 L 1112.28 758.779 L 1109.28 760.842 L 1106.26 762.859 L 1103.21 764.823 L 1100.12 766.728 L 1097.45 768.314 L 1094.76 769.847 L 1092.17 771.256 L 1090.01 772.381 L 1087.9 773.439 L 1085.39 774.641 L 1082.74 775.836 L 1081.54 776.355 L 1079.08 777.375 L 1076.53 778.367 L 1074.82 778.999"/></g><g stroke="rgb(0, 0, 0)" stroke-width="0.13" stroke-linecap="butt" stroke-linejoin="miter" fill="none"><path d="M 1136.95 730.508 L 1143.29 728.417 L 1146.49 727.339 L 1151.33 725.671 L 1156.2 723.944"/><path d="M 1136.95 730.508 L 1132.93 733.287 L 1126.14 738.032 L 1120.89 741.769 L 1114.17 746.603 L 1106.49 752.189 L 1102.69 754.961 L 1097.05 759.039 L 1094.14 761.121 L 1090.71 763.537 L 1087.16 765.994 L 1083.25 768.636 L 1081.21 769.977 L 1079.11 771.332 L 1076.42 773.03 L 1073.6 774.75 L 1071.03 776.269 L 1068.34 777.806 L 1066.64 778.752 L 1064.93 779.674 L 1063.25 780.564 L 1060.8 781.812 L 1057.75 783.308 L 1054.53 784.805 L 1052.85 785.551 L 1051.14 786.293 L 1048.17 787.53 L 1045.09 788.746 L 1041.93 789.932 L 1038.67 791.081 L 1035.49 792.144 L 1032.27 793.162"/></g><g stroke="rgb(0, 0, 0)" stroke-width="0.35" stroke-linecap="butt" stroke-linejoin="miter" fill="none"><path d="M 1032.27 793.162 L 1032.25 793.167"/><path d="M 718.255 624.473 L 717.809 624.59"/><path d="M 718.255 624.473 L 718.511 623.783 L 718.67 623.438 L 718.849 623.101 L 719.035 622.792 L 719.24 622.493 L 719.59 622.055 L 719.982 621.65 L 720.415 621.287 L 720.886 620.969 L 721.395 620.704 L 721.935 620.497"/><path d="M 717.809 624.59 L 718.057 623.919 L 718.373 623.273 L 718.559 622.958 L 718.764 622.652 L 718.981 622.366 L 719.215 622.094 L 719.633 621.681 L 720.094 621.314 L 720.597 620.999 L 721.138 620.742 L 721.71 620.552"/><path d="M 721.71 620.552 L 722.129 620.459 L 722.558 620.402 L 722.992 620.381 L 723.521 620.406 L 724.049 620.482 L 724.571 620.609 L 725.105 620.793 L 725.621 621.024 L 726.114 621.297 L 726.49 621.543 L 726.848 621.81 L 727.204 622.11 L 727.54 622.427 L 727.871 622.778 L 728.18 623.145 L 728.582 623.691 L 728.938 624.257 L 729.25 624.841 L 729.537 625.485 L 729.774 626.14 L 729.961 626.803 L 730.022 627.068"/><path d="M 783.496 639.477 L 784.248 640.118 L 784.941 640.792 L 785.576 641.489 L 786.153 642.201 L 786.533 642.718 L 786.887 643.239 L 787.351 643.992 L 787.764 644.747 L 788.129 645.501 L 788.386 646.097 L 788.616 646.692 L 788.947 647.703 L 789.204 648.702 L 789.387 649.684 L 789.501 650.648 L 789.544 651.591 L 789.528 652.374 L 789.461 653.14 L 789.343 653.888 L 789.173 654.615 L 788.966 655.273"/><path d="M 730.022 627.068 L 735.191 628.321 L 740.436 629.558 L 743.969 630.377 L 751.082 631.999 L 761.819 634.421 L 769.929 636.268 L 778.057 638.167 L 783.496 639.477"/></g><g stroke="rgb(0, 0, 0)" stroke-width="0.13" stroke-linecap="butt" stroke-linejoin="miter" fill="none"><path d="M 1136.95 730.508 A 25.7501 19.1694 -288.096 0 0 1139.31 696.002"/><path d="M 1136.95 730.508 L 1136.37 730.515 L 1135.75 730.457 L 1135.11 730.336 L 1134.46 730.157 L 1134.01 730.007 L 1133.57 729.835 L 1132.65 729.427 L 1131.81 728.987 L 1130.96 728.489 L 1130.11 727.938 L 1129.47 727.495 L 1128.84 727.027 L 1127.57 726.026 L 1126.33 724.949 L 1125.09 723.804 L 1123.73 722.444 L 1122.4 721.02 L 1121.11 719.539 L 1119.84 718.009 L 1118.62 716.435 L 1117.32 714.655"/></g><g stroke="rgb(0, 0, 0)" stroke-width="0.35" stroke-linecap="butt" stroke-linejoin="miter" fill="none"><path d="M 809.635 744.831 L 809.825 745.325 L 810.088 745.817 L 810.419 746.306 L 810.814 746.792 L 811.111 747.114 L 811.434 747.434 L 812.148 748.07 L 812.825 748.607 L 813.557 749.14 L 814.282 749.631 L 815.044 750.119 L 815.965 750.677 L 816.927 751.232 L 818.229 751.949 L 819.581 752.661 L 821.304 753.534 L 823.077 754.403 L 825.095 755.365 L 829.25 757.291 L 833.288 759.122 L 838.126 761.292 L 850.654 766.906 L 863.598 772.755 L 873.704 777.327 L 877.306 778.946 L 884.436 782.111 L 889.905 784.486 L 893.714 786.103 L 898.219 787.966 L 901.706 789.365 L 905.832 790.962 L 908.147 791.829 L 911.251 792.955 L 914.375 794.044 L 917.519 795.091 L 921.293 796.281 L 925.061 797.392 L 928.479 798.332 L 930.456 798.844 L 933.272 799.534 L 936.106 800.179 L 938.789 800.74 L 941.721 801.295 L 944.622 801.783 L 946.811 802.108 L 948.961 802.389 L 950.606 802.577 L 952.212 802.736"/></g><g stroke="rgb(0, 0, 0)" stroke-width="0.13" stroke-linecap="butt" stroke-linejoin="miter" fill="none"><path d="M 1117.32 714.655 L 1113.24 718.383 L 1111.44 720.051 L 1107.9 723.369 L 1101.69 729.281 L 1095.57 735.14 L 1092.53 738.03 L 1089.49 740.898 L 1087.22 743.009 L 1083.04 746.841 L 1081.12 748.564 L 1077.84 751.463 L 1074.49 754.341 L 1071.83 756.566 L 1069.1 758.782 L 1067.4 760.128 L 1065.67 761.472 L 1064.01 762.735 L 1062.31 763.996 L 1060.33 765.432 L 1058.28 766.865 L 1055.56 768.705 L 1054.15 769.624 L 1052.7 770.539 L 1050.92 771.635 L 1049.16 772.683 L 1047.43 773.675 L 1045.79 774.575 L 1044.53 775.245 L 1043.24 775.91 L 1041.46 776.787 L 1039.61 777.652 L 1037.7 778.501 L 1035.43 779.443 L 1033.08 780.355 L 1030.65 781.233 L 1028.13 782.071 L 1026.65 782.535 L 1025.14 782.984 L 1023.6 783.421 L 1022.05 783.842 L 1019.72 784.435 L 1017.36 784.991 L 1014.97 785.512 L 1013 785.912 L 1011.02 786.288 L 1008.92 786.66 L 1006.81 787.007 L 1003.34 787.523 L 999.852 787.977 L 996.342 788.372 L 992.817 788.708 L 990.302 788.914 L 987.781 789.091 L 985.196 789.244 L 982.606 789.368 L 979.963 789.466 L 977.315 789.535 L 973.754 789.583 L 970.178 789.58 L 967.511 789.545 L 964.836 789.481 L 961.815 789.375 L 958.791 789.233 L 955.773 789.056 L 952.144 788.795 L 948.762 788.504 L 945.408 788.171 L 942.092 787.796 L 937.825 787.247 L 933.659 786.636 L 931.215 786.242 L 928.817 785.83 L 924.908 785.102 L 921.667 784.442 L 918.017 783.63 L 915.229 782.96 L 912.094 782.155 L 908.995 781.307 L 905.927 780.419 L 903.689 779.741 L 901.465 779.043 L 899.164 778.298 L 896.875 777.534 L 894.358 776.67 L 891.644 775.711 L 888.938 774.731 L 884.588 773.108 L 880.251 771.445 L 875.932 769.753 L 873.162 768.654 L 867.631 766.437 L 858.886 762.909 L 852.271 760.254 L 848.971 758.941 L 844.024 756.997 L 840.314 755.561 L 836.6 754.147 L 831.093 752.098 L 825.552 750.104 L 821.021 748.531 L 816.443 746.999 L 812.393 745.693 L 809.635 744.831"/></g><g stroke="rgb(0, 0, 0)" stroke-width="0.35" stroke-linecap="butt" stroke-linejoin="miter" fill="none"><path d="M 805.358 730.529 A 658.189 658.189 0 0 0 809.635 744.831"/><path d="M 672.638 616.418 L 675.126 606.36 L 677.636 596.44 L 680.777 584.279 L 684.561 569.888 L 686.562 562.345 L 689.143 552.688 L 691.728 543.126 L 694.209 534.086 L 696.719 525.125 L 698.693 518.239 L 700.703 511.388 L 702.757 504.573 L 704.266 499.688 L 705.803 494.815 L 708.16 487.553 L 709.517 483.477 L 710.861 479.512 L 713.115 473.03 L 714.309 469.682 L 715.524 466.342 L 716.676 463.238 L 717.848 460.146 L 719.63 455.574 L 721.515 450.908 L 723.453 446.285"/><path d="M 678.294 611.096 A 31.7742 7.49005 -227.305 0 0 672.638 616.418"/><path d="M 680.442 610.241 A 11.0794 5.51501 -274.44 0 0 678.294 611.096"/><path d="M 680.442 610.241 L 680.821 610.276 L 681.191 610.359 L 681.549 610.486 L 681.8 610.602 L 682.045 610.738 L 682.307 610.908 L 682.562 611.1 L 682.942 611.434 L 683.307 611.814 L 683.658 612.239 L 683.993 612.708 L 684.315 613.224"/><path d="M 684.315 613.224 A 150.321 150.321 0 0 0 688.291 619.671"/><path d="M 688.292 619.671 L 690.725 620.27 L 693.318 620.86 L 695.187 621.256 L 698.366 621.878 L 701.081 622.361 L 703.97 622.83 L 707.489 623.346 L 710.996 623.809 L 713.194 624.077 L 717.809 624.59"/><path d="M 788.966 655.273 L 789.419 658.446 L 789.893 661.598 L 790.391 664.754 L 790.909 667.893 L 791.473 671.166 L 792.057 674.419 L 793.127 680.071 L 794.252 685.672 L 795.429 691.23 L 796.659 696.754 L 797.394 699.944 L 798.659 705.254 L 800.135 711.198 L 801.659 717.088 L 803.232 722.943 L 804.282 726.735 L 805.358 730.529"/></g><g stroke="rgb(0, 0, 0)" stroke-width="0.13" stroke-linecap="butt" stroke-linejoin="miter" fill="none"><path d="M 678.941 611.114 L 678.294 611.096"/></g><g stroke="rgb(0, 0, 0)" stroke-width="0.35" stroke-linecap="butt" stroke-linejoin="miter" fill="none"><path d="M 678.941 611.114 A 31.3701 7.31537 -227.247 0 0 673.297 616.441"/><path d="M 673.297 616.441 L 672.638 616.418"/><path d="M 680.766 610.268 A 10.4984 5.3548 -274.011 0 0 678.941 611.114"/><path d="M 952.286 801.992 L 953.583 802.1 L 954.842 802.186 L 956.448 802.265 L 957.955 802.298 L 959.347 802.283 L 960.051 802.251 L 960.711 802.203"/><path d="M 1032.27 793.161 A 934.43 934.43 0 0 0 1074.82 778.999"/><path d="M 952.212 802.736 L 954.253 802.907 L 956.296 803.049 L 958.364 803.166 L 960.433 803.255 L 962.53 803.318 L 964.627 803.354 L 966.75 803.365 L 968.874 803.351 L 971.016 803.311 L 973.158 803.247 L 975.312 803.158 L 977.464 803.047 L 979.628 802.911 L 981.79 802.753 L 983.966 802.572 L 986.139 802.37 L 989.058 802.064 L 991.972 801.72 L 994.933 801.334 L 997.889 800.91 L 1000.89 800.441 L 1003.89 799.934 L 1006.93 799.38 L 1009.97 798.788 L 1012.73 798.214 L 1015.49 797.607 L 1018.29 796.959 L 1021.07 796.277 L 1023.88 795.554 L 1026.67 794.796 L 1029.47 794 L 1032.25 793.167"/><path d="M 962.151 801.998 L 961.722 802.078 L 961.256 802.145 L 960.215 802.241 L 959.037 802.291 L 958.098 802.299 L 957.093 802.285 L 955.964 802.245 L 954.771 802.182 L 952.285 801.992"/><path d="M 678.941 611.114 A 31.3879 7.32074 -227.254 0 0 673.297 616.441"/><path d="M 680.767 610.268 A 11.0342 5.49359 -274.339 0 0 678.941 611.114"/><path d="M 718.255 624.473 L 718.383 624.102 L 718.531 623.738 L 718.698 623.382 L 718.886 623.036 L 719.206 622.54 L 719.571 622.077 L 719.981 621.652 L 720.434 621.273 L 720.902 620.96 L 721.404 620.7 L 721.934 620.497"/><path d="M 1022.83 583.064 L 1022.68 583.987"/><path d="M 1022.83 583.064 L 1021.85 583.417"/><path d="M 1020.55 581.956 L 1022.83 583.064"/></g><g stroke="rgb(0, 0, 0)" stroke-width="0.13" stroke-linecap="butt" stroke-linejoin="miter" fill="none"><path d="M 1020.55 581.956 L 1020.01 582.15"/></g><g stroke="rgb(0, 0, 0)" stroke-width="0.35" stroke-linecap="butt" stroke-linejoin="miter" fill="none"><path d="M 1020.55 581.956 A 3.5 2.58801 -109.788 0 0 1019.37 581.707"/><path d="M 1085.99 598.047 L 1057.83 608.176"/><path d="M 1085.99 598.047 L 1146.61 674.814"/><path d="M 1154.23 725.593 L 1153.6 735.238"/><path d="M 1153.6 735.238 L 1134 742.289"/><path d="M 1045.75 599.883 L 1088.23 584.602"/><path d="M 1088.23 584.602 L 1087.76 584.443"/><path d="M 1088.23 584.602 L 1087.24 599.638"/></g><g stroke="rgb(0, 0, 0)" stroke-width="0.13" stroke-linecap="butt" stroke-linejoin="miter" fill="none"><path d="M 482.993 328.487 L 364.903 370.973"/><path d="M 509.862 329.665 L 525.989 331.405"/></g><g stroke="rgb(0, 0, 0)" stroke-width="0.35" stroke-linecap="butt" stroke-linejoin="miter" fill="none"><path d="M 525.989 331.405 L 532.37 335.975"/></g><g stroke="rgb(0, 0, 0)" stroke-width="0.13" stroke-linecap="butt" stroke-linejoin="miter" fill="none"><path d="M 361.094 397.596 L 532.37 335.975"/><path d="M 480.148 328.362 L 365.076 369.762"/></g><g stroke="rgb(0, 0, 0)" stroke-width="0.35" stroke-linecap="butt" stroke-linejoin="miter" fill="none"><path d="M 525.937 330.369 A 1 0.35614 -263.84 0 0 525.989 331.405"/><path d="M 533.484 338.158 A 2.25 1.66376 -109.788 0 0 532.37 335.975"/></g><g stroke="rgb(0, 0, 0)" stroke-width="0.13" stroke-linecap="butt" stroke-linejoin="miter" fill="none"><path d="M 360.704 400.32 L 533.484 338.158"/></g><g stroke="rgb(0, 0, 0)" stroke-width="0.35" stroke-linecap="butt" stroke-linejoin="miter" fill="none"><path d="M 533.484 338.158 L 549.983 408.74"/></g><g stroke="rgb(0, 0, 0)" stroke-width="0.13" stroke-linecap="butt" stroke-linejoin="miter" fill="none"><path d="M 549.983 408.74 L 349.158 480.992"/><path d="M 573.22 441.513 L 550.228 409.456"/><path d="M 367.162 510.183 L 348.785 484.56"/><path d="M 550.228 409.456 L 349.054 481.835"/></g><g stroke="rgb(0, 0, 0)" stroke-width="0.35" stroke-linecap="butt" stroke-linejoin="miter" fill="none"><path d="M 549.983 408.74 A 1 0.739441 -109.788 0 0 550.228 409.456"/><path d="M 550.868 409.43 A 2.25 0.543335 -215.649 0 0 550.228 409.456"/><path d="M 573.86 441.487 L 550.868 409.43"/><path d="M 560.669 403.428 A 7.5 3.45306 -13.3796 0 0 562.086 400.438"/><path d="M 563.526 427.078 A 57.2219 36.8829 -258.849 0 0 562.142 400.624"/><path d="M 558.282 404.844 A 7.5 3.45306 -13.3796 0 0 562.131 400.633"/><path d="M 488.871 113.023 A 7.5 3.45306 -13.3796 0 0 492.576 108.431"/><path d="M 549.273 405.701 A 7.5 3.45306 -13.3796 0 0 558.282 404.844"/><path d="M 562.131 400.633 L 492.719 108.812"/><path d="M 531.12 335.08 L 508.978 241.99"/><path d="M 493.38 176.413 L 478.224 112.694"/><path d="M 489.606 112.684 A 7.5 3.45306 -13.3796 0 0 492.676 108.847"/><path d="M 485.931 102.48 A 7.5 4.60846 -27.0445 0 0 487.35 100.977"/><path d="M 478.083 112.317 A 7.5 3.45306 -13.3796 0 0 489.606 112.684"/><path d="M 474.649 102.791 A 7.5 4.60846 -27.0445 0 0 485.931 102.48"/><path d="M 488.464 96.9942 L 489.178 98.4969 L 489.846 100.037 L 490.471 101.612 L 491.051 103.22 L 491.584 104.851 L 492.124 106.695 L 492.571 108.413 L 492.676 108.847"/><path d="M 478.083 112.317 A 38.0948 21.5455 -263.929 0 0 474.855 103.32"/><path d="M 486.317 102.118 A 7.5 4.60846 -27.0445 0 0 488.253 96.4492"/><path d="M 467.399 65.0601 A 7.5 4.60846 -27.0445 0 0 469.335 59.3917"/><path d="M 474.893 103.27 A 7.5 4.60846 -27.0445 0 0 486.317 102.118"/><path d="M 455.975 66.2122 A 7.5 4.60846 -27.0445 0 0 467.399 65.0601"/><path d="M 488.253 96.4492 L 469.335 59.3917"/><path d="M 474.893 103.27 L 455.975 66.2122"/><path d="M 467.932 64.5201 A 7.5 4.60846 -27.0445 0 0 469.335 59.3916"/><path d="M 414.867 83.6119 A 7.5 1.17523 -162.199 0 0 401.461 79.9562"/><path d="M 455.976 66.2119 A 7.5 4.60846 -27.0445 0 0 467.932 64.5201"/><path d="M 415.743 84.5418 A 7.5 1.17523 -162.199 0 0 414.867 83.6119"/><path d="M 403.388 74.5857 L 404.084 72.8939 L 404.814 71.2267 L 405.578 69.5862 L 406.376 67.9741 L 407.206 66.3919 L 408.069 64.8407 L 408.964 63.3227 L 409.89 61.8395 L 410.81 60.4454 L 411.965 58.7993 L 413.161 57.2077 L 414.472 55.5803 L 415.522 54.3598 L 416.638 53.1382 L 417.781 51.9631 L 418.95 50.836 L 420.308 49.6174 L 421.03 49.0067 L 422.391 47.9233 L 423.423 47.1592 L 424.483 46.424 L 425.615 45.6929 L 426.759 45.0085 L 427.918 44.3692 L 429.183 43.7336 L 430.465 43.1517 L 431.699 42.6516 L 432.946 42.2043 L 434.205 41.8113 L 435.477 41.4727 L 436.587 41.2255 L 437.703 41.022 L 438.823 40.8628 L 440.028 40.7424 L 441.53 40.6658 L 442.391 40.6589 L 443.24 40.679 L 444.12 40.7285 L 445.402 40.8521 L 446.654 41.034 L 447.722 41.2377 L 448.77 41.4821 L 449.56 41.6968 L 450.474 41.977 L 451.36 42.2838 L 452.292 42.6445 L 453.242 43.0526 L 454.366 43.5922 L 455.494 44.1974 L 456.596 44.8544 L 457.672 45.5612 L 458.846 46.4121 L 459.994 47.3303 L 461.104 48.3057 L 462.175 49.3359 L 463.208 50.4215 L 464.202 51.5577 L 465.154 52.7424 L 466.069 53.9779 L 466.831 55.0889 L 467.496 56.1265 L 468.135 57.19 L 469.045 58.8318 L 469.335 59.3916"/><path d="M 346.235 507.825 A 7.5 3.4538 -193.386 0 0 350.026 503.427"/><path d="M 335.49 507.085 A 7.5 3.4538 -193.386 0 0 346.235 507.825"/><path d="M 350.082 503.613 L 350.526 505.477"/><path d="M 354.193 520.884 L 380.261 630.425"/><path d="M 335.536 507.28 L 365.402 632.775"/><path d="M 337.228 478.654 A 7.5 0.416809 -171.858 0 0 349.054 480.116"/><path d="M 338.278 508.98 A 7.5 3.4538 -193.386 0 0 350.071 503.621"/><path d="M 334.452 477.903 A 7.5 0.416809 -171.858 0 0 337.228 478.654"/><path d="M 335.479 507.094 A 7.5 3.4538 -193.386 0 0 338.278 508.98"/><path d="M 349.284 480.07 L 349.072 481.677 L 348.897 483.284 L 348.759 484.887 L 348.658 486.484 L 348.593 488.074 L 348.565 489.653 L 348.574 491.219 L 348.619 492.77 L 348.701 494.303 L 348.818 495.815 L 348.971 497.304 L 349.18 498.918 L 349.471 500.727 L 349.844 502.621 L 350.071 503.621"/><path d="M 334.438 477.924 L 334.19 479.799 L 333.983 481.676 L 333.817 483.552 L 333.693 485.427 L 333.61 487.297 L 333.569 489.162 L 333.57 491.02 L 333.612 492.867 L 333.697 494.704 L 333.824 496.527 L 333.994 498.336 L 334.206 500.127 L 334.534 502.363 L 334.93 504.565 L 335.193 505.836 L 335.479 507.094"/><path d="M 415.205 83.8386 A 7.5 1.17523 -162.199 0 0 401.461 79.9562"/><path d="M 399.282 133.431 A 7.5 1.17523 -162.199 0 0 385.542 129.685"/><path d="M 415.743 84.5419 A 7.5 1.17523 -162.199 0 0 415.205 83.8386"/><path d="M 401.461 79.9563 L 385.538 129.549"/><path d="M 415.743 84.5419 L 399.857 134.02"/><path d="M 382.281 143.902 A 7.5 0.416809 -171.858 0 0 395.593 146.102"/><path d="M 334.449 477.925 A 7.5 0.416809 -171.858 0 0 349.062 480.118"/><path d="M 349.062 480.118 A 7.5 0.416809 -171.858 0 0 349.298 480.049"/><path d="M 382.23 143.94 L 334.449 477.925"/><path d="M 397.073 146.107 L 349.298 480.049"/><path d="M 399.488 133.581 A 7.5 1.17523 -162.199 0 0 385.579 129.571"/><path d="M 382.275 143.944 A 7.5 0.416809 -171.858 0 0 396.6 146.145"/><path d="M 399.861 134.157 A 7.5 1.17523 -162.199 0 0 399.488 133.581"/><path d="M 396.6 146.145 A 7.5 0.416809 -171.858 0 0 397.123 146.068"/><path d="M 385.579 129.571 A 56.09 35.6065 -259.356 0 0 382.275 143.944"/><path d="M 399.861 134.157 A 43.8882 26.2574 -259.351 0 0 397.123 146.068"/><path d="M 448.529 193.747 L 449.496 193.95"/><path d="M 449.388 193.274 A 2.25 1.05914 -192.598 0 0 448.529 193.747"/><path d="M 449.878 193.74 A 1 0.470703 -192.598 0 0 449.496 193.95"/><path d="M 448.529 193.747 L 388.085 215.494"/><path d="M 388.086 215.493 L 389.052 215.696"/><path d="M 389.052 215.696 L 449.496 193.95"/><path d="M 389.052 215.696 A 1 0.065918 -351.1 0 0 388.853 215.695"/><path d="M 388.086 215.494 A 2.25 0.148254 -351.1 0 0 387.637 215.491"/><path d="M 388.853 215.695 L 387.059 216.104"/><path d="M 387.637 215.491 L 387.13 215.606"/><path d="M 365.135 369.348 L 479.5 328.202"/><path d="M 479.963 328.354 A 1.48108 0.431702 -321.793 0 0 479.5 328.202"/></g><g stroke="rgb(0, 0, 0)" stroke-width="0.13" stroke-linecap="butt" stroke-linejoin="miter" fill="none"><path d="M 388.853 215.695 L 368.778 343.884"/><path d="M 389.052 215.696 L 366.668 358.636"/><path d="M 449.496 193.95 L 479.5 328.202"/><path d="M 449.878 193.74 L 479.963 328.354"/></g><g stroke="rgb(0, 0, 0)" stroke-width="0.35" stroke-linecap="butt" stroke-linejoin="miter" fill="none"><path d="M 449.878 193.74 L 493.818 176.83"/><path d="M 529.288 329.284 L 493.818 176.83"/><path d="M 526.414 330.39 L 529.288 329.284"/><path d="M 479.963 328.354 L 526.414 330.39"/><path d="M 493.329 176.364 L 449.388 193.274"/><path d="M 493.329 176.364 L 493.818 176.83"/><path d="M 560.669 403.428 A 7.5 3.45306 -13.3796 0 0 562.086 400.438"/><path d="M 563.526 427.078 A 57.2219 36.8829 -258.849 0 0 562.142 400.624"/><path d="M 558.282 404.844 A 7.5 3.45306 -13.3796 0 0 562.131 400.633"/><path d="M 488.871 113.023 A 7.5 3.45306 -13.3796 0 0 492.576 108.431"/><path d="M 549.273 405.701 A 7.5 3.45306 -13.3796 0 0 558.282 404.844"/><path d="M 562.131 400.633 L 492.719 108.812"/><path d="M 531.12 335.08 L 508.978 241.99"/><path d="M 493.38 176.413 L 478.224 112.694"/><path d="M 489.606 112.684 A 7.5 3.45306 -13.3796 0 0 492.676 108.847"/><path d="M 485.931 102.48 A 7.5 4.60846 -27.0445 0 0 487.35 100.977"/><path d="M 478.083 112.317 A 7.5 3.45306 -13.3796 0 0 489.606 112.684"/><path d="M 474.649 102.791 A 7.5 4.60846 -27.0445 0 0 485.931 102.48"/><path d="M 488.464 96.9942 L 489.178 98.4969 L 489.846 100.037 L 490.471 101.612 L 491.051 103.22 L 491.584 104.851 L 492.124 106.695 L 492.571 108.413 L 492.676 108.847"/><path d="M 478.083 112.317 A 38.0948 21.5455 -263.929 0 0 474.855 103.32"/><path d="M 486.317 102.118 A 7.5 4.60846 -27.0445 0 0 488.253 96.4492"/><path d="M 467.399 65.0601 A 7.5 4.60846 -27.0445 0 0 469.335 59.3917"/><path d="M 474.893 103.27 A 7.5 4.60846 -27.0445 0 0 486.317 102.118"/><path d="M 455.975 66.2122 A 7.5 4.60846 -27.0445 0 0 467.399 65.0601"/><path d="M 488.253 96.4492 L 469.335 59.3917"/><path d="M 474.893 103.27 L 455.975 66.2122"/><path d="M 467.932 64.5201 A 7.5 4.60846 -27.0445 0 0 469.335 59.3916"/><path d="M 414.867 83.6119 A 7.5 1.17523 -162.199 0 0 401.461 79.9562"/><path d="M 455.976 66.2119 A 7.5 4.60846 -27.0445 0 0 467.932 64.5201"/><path d="M 415.743 84.5418 A 7.5 1.17523 -162.199 0 0 414.867 83.6119"/><path d="M 403.388 74.5857 L 404.084 72.8939 L 404.814 71.2267 L 405.578 69.5862 L 406.376 67.9741 L 407.206 66.3919 L 408.069 64.8407 L 408.964 63.3227 L 409.89 61.8395 L 410.81 60.4454 L 411.965 58.7993 L 413.161 57.2077 L 414.472 55.5803 L 415.522 54.3598 L 416.638 53.1382 L 417.781 51.9631 L 418.95 50.836 L 420.308 49.6174 L 421.03 49.0067 L 422.391 47.9233 L 423.423 47.1592 L 424.483 46.424 L 425.615 45.6929 L 426.759 45.0085 L 427.918 44.3692 L 429.183 43.7336 L 430.465 43.1517 L 431.699 42.6516 L 432.946 42.2043 L 434.205 41.8113 L 435.477 41.4727 L 436.587 41.2255 L 437.703 41.022 L 438.823 40.8628 L 440.028 40.7424 L 441.53 40.6658 L 442.391 40.6589 L 443.24 40.679 L 444.12 40.7285 L 445.402 40.8521 L 446.654 41.034 L 447.722 41.2377 L 448.77 41.4821 L 449.56 41.6968 L 450.474 41.977 L 451.36 42.2838 L 452.292 42.6445 L 453.242 43.0526 L 454.366 43.5922 L 455.494 44.1974 L 456.596 44.8544 L 457.672 45.5612 L 458.846 46.4121 L 459.994 47.3303 L 461.104 48.3057 L 462.175 49.3359 L 463.208 50.4215 L 464.202 51.5577 L 465.154 52.7424 L 466.069 53.9779 L 466.831 55.0889 L 467.496 56.1265 L 468.135 57.19 L 469.045 58.8318 L 469.335 59.3916"/><path d="M 346.235 507.825 A 7.5 3.4538 -193.386 0 0 350.026 503.427"/><path d="M 335.49 507.085 A 7.5 3.4538 -193.386 0 0 346.235 507.825"/><path d="M 350.082 503.613 L 350.526 505.477"/><path d="M 354.193 520.884 L 380.261 630.425"/><path d="M 335.536 507.28 L 365.402 632.775"/><path d="M 337.228 478.654 A 7.5 0.416809 -171.858 0 0 349.054 480.116"/><path d="M 338.278 508.98 A 7.5 3.4538 -193.386 0 0 350.071 503.621"/><path d="M 334.452 477.903 A 7.5 0.416809 -171.858 0 0 337.228 478.654"/><path d="M 335.479 507.094 A 7.5 3.4538 -193.386 0 0 338.278 508.98"/><path d="M 349.284 480.07 L 349.072 481.677 L 348.897 483.284 L 348.759 484.887 L 348.658 486.484 L 348.593 488.074 L 348.565 489.653 L 348.574 491.219 L 348.619 492.77 L 348.701 494.303 L 348.818 495.815 L 348.971 497.304 L 349.18 498.918 L 349.471 500.727 L 349.844 502.621 L 350.071 503.621"/><path d="M 334.438 477.924 L 334.19 479.799 L 333.983 481.676 L 333.817 483.552 L 333.693 485.427 L 333.61 487.297 L 333.569 489.162 L 333.57 491.02 L 333.612 492.867 L 333.697 494.704 L 333.824 496.527 L 333.994 498.336 L 334.206 500.127 L 334.534 502.363 L 334.93 504.565 L 335.193 505.836 L 335.479 507.094"/><path d="M 415.205 83.8386 A 7.5 1.17523 -162.199 0 0 401.461 79.9562"/><path d="M 399.282 133.431 A 7.5 1.17523 -162.199 0 0 385.542 129.685"/><path d="M 415.743 84.5419 A 7.5 1.17523 -162.199 0 0 415.205 83.8386"/><path d="M 401.461 79.9563 L 385.538 129.549"/><path d="M 415.743 84.5419 L 399.857 134.02"/><path d="M 382.281 143.902 A 7.5 0.416809 -171.858 0 0 395.593 146.102"/><path d="M 334.449 477.925 A 7.5 0.416809 -171.858 0 0 349.062 480.118"/><path d="M 349.062 480.118 A 7.5 0.416809 -171.858 0 0 349.298 480.049"/><path d="M 382.23 143.94 L 334.449 477.925"/><path d="M 397.073 146.107 L 349.298 480.049"/><path d="M 399.488 133.581 A 7.5 1.17523 -162.199 0 0 385.579 129.571"/><path d="M 382.275 143.944 A 7.5 0.416809 -171.858 0 0 396.6 146.145"/><path d="M 399.861 134.157 A 7.5 1.17523 -162.199 0 0 399.488 133.581"/><path d="M 396.6 146.145 A 7.5 0.416809 -171.858 0 0 397.123 146.068"/><path d="M 385.579 129.571 A 56.09 35.6065 -259.356 0 0 382.275 143.944"/><path d="M 399.861 134.157 A 43.8882 26.2574 -259.351 0 0 397.123 146.068"/><path d="M 574.651 455.591 L 570.312 453.041"/><path d="M 487.401 603.122 A 7 4.66217 -301.06 0 0 485.223 601.967"/><path d="M 486.323 603.396 A 7 4.66217 -301.06 0 0 484.424 602.448"/><path d="M 485.223 601.967 A 7 4.66217 -301.06 0 0 482.166 602.229"/><path d="M 482.166 602.229 A 7 4.66217 -301.06 0 0 480.49 604.883"/><path d="M 484.424 602.448 A 7 4.66217 -301.06 0 0 481.784 602.501"/><path d="M 381.084 532.623 A 10.3782 4.99762 -302.054 0 0 382.431 529.434"/><path d="M 381.014 532.669 L 381.084 532.623"/><path d="M 439.281 615.385 L 381.014 532.669"/><path d="M 466.7 654.309 L 447.909 627.633"/><path d="M 496.761 656.237 L 504.145 653.58"/><path d="M 503.507 643.255 A 7.46814 4.13171 -317.149 0 0 498.952 642.561"/><path d="M 529.27 644.541 L 590.348 622.566"/><path d="M 592.906 610.002 A 6.97559 4.42432 -278.84 0 0 590.161 609.749"/><path d="M 594.885 611.998 A 6.97119 4.42206 -278.861 0 0 592.906 610.002"/><path d="M 602.67 618.133 L 608.537 616.022"/><path d="M 610.433 553.63 A 7.15741 4.66779 -300.241 0 0 609.32 556.102"/><path d="M 610.433 553.63 L 582.633 459.937"/><path d="M 582.633 459.937 L 582.546 459.947"/><path d="M 575.998 455.107 A 10.2126 5.07629 -293.807 0 0 582.546 459.947"/><path d="M 575.998 455.107 L 544.544 466.423"/><path d="M 539.795 468.132 L 420.245 511.143"/><path d="M 415.08 513.002 L 397.436 519.35"/><path d="M 381.882 532.142 A 10.3804 4.99823 -302.056 0 0 383.176 529.66"/><path d="M 381.813 532.188 L 381.882 532.142"/><path d="M 440.089 614.917 L 381.813 532.188"/><path d="M 440.754 615.009 A 4.4715 4.4715 0 0 0 440.089 614.917"/><path d="M 467.499 653.828 L 448.873 627.387"/><path d="M 468.499 651.916 A 8.57208 4.67529 -304.112 0 0 467.499 653.828"/><path d="M 473.618 652.339 A 8.58209 4.6781 -304.146 0 0 468.88 651.635"/><path d="M 468.88 651.635 A 2.55908 2.55908 0 0 0 468.499 651.916"/><path d="M 496.394 656.175 L 504.944 653.099"/><path d="M 503.297 652.223 A 6.96582 3.70337 -319.146 0 0 504.944 653.099"/><path d="M 498.215 643.876 A 7.46857 4.13196 -317.147 0 0 503.297 652.223"/><path d="M 505.281 643.336 A 7.46869 4.13202 -317.147 0 0 499.325 642.286"/><path d="M 499.325 642.286 A 7.46576 4.13116 -317.145 0 0 498.215 643.876"/><path d="M 505.293 643.344 L 505.281 643.336"/><path d="M 528.797 644.517 L 591.147 622.085"/><path d="M 590.55 609.475 A 6.97522 4.42419 -278.841 0 0 591.147 622.085"/><path d="M 593.705 609.521 A 6.97705 4.4248 -278.838 0 0 590.55 609.475"/><path d="M 596.552 613.312 A 6.97632 4.42505 -278.832 0 0 593.705 609.521"/><path d="M 602.502 618 L 608.4 615.877"/><path d="M 618.318 604.881 A 14.4997 14.4997 0 0 0 618.912 606.617"/><path d="M 617.933 600.74 A 8.41449 4.78174 -293.324 0 0 618.318 604.881"/><path d="M 620.281 586.823 L 615.199 569.695"/><path d="M 381.014 532.669 L 381.813 532.188"/><path d="M 439.335 615.371 L 440.089 614.917"/><path d="M 466.7 654.309 L 467.499 653.828"/><path d="M 504.145 653.58 L 504.944 653.099"/><path d="M 590.348 622.566 L 591.147 622.085"/><path d="M 433.975 491.911 A 0.849976 0.532654 -315.936 1 0 432.753 490.729"/><path d="M 432.753 490.729 A 0.849976 0.532654 -315.936 0 0 433.854 491.991"/><path d="M 430.443 489.306 A 3.5 2.1933 -315.936 0 0 430.818 492.611"/><path d="M 430.818 492.611 L 432.347 494.707"/><path d="M 433.671 492.024 A 0.849976 0.532654 -315.936 0 0 432.65 491.036"/><path d="M 433.854 491.991 A 0.849976 0.532654 -315.936 0 0 433.975 491.911"/><path d="M 437.309 492.922 L 435.504 490.449"/><path d="M 435.504 490.449 A 3.5 2.1933 -315.936 0 0 430.849 488.886"/><path d="M 430.849 488.886 A 3.5 2.1933 -315.936 0 0 431.224 492.191"/><path d="M 431.224 492.191 L 432.912 494.504"/></g><g stroke="rgb(0, 0, 0)" stroke-width="0.13" stroke-linecap="butt" stroke-linejoin="miter" fill="none"><path d="M 430.818 492.611 L 431.224 492.191"/></g><g stroke="rgb(0, 0, 0)" stroke-width="0.35" stroke-linecap="butt" stroke-linejoin="miter" fill="none"><path d="M 430.443 489.306 L 430.849 488.886"/><path d="M 420.133 516.865 A 0.849976 0.593933 -302.397 0 0 419.321 515.584"/><path d="M 419.498 515.363 A 0.849976 0.593933 -302.397 0 0 420.409 516.798"/><path d="M 420.409 516.798 A 0.849976 0.593933 -302.397 0 0 419.577 515.324"/><path d="M 414.525 511.884 L 417.181 517.227"/><path d="M 417.181 517.227 A 3.5 2.44556 -302.397 0 0 421.375 519.324"/><path d="M 419.577 515.324 A 0.849976 0.593933 -302.397 0 0 419.498 515.363"/><path d="M 419.617 509.879 L 414.978 511.597"/><path d="M 414.978 511.597 L 417.634 516.939"/><path d="M 417.634 516.939 A 3.5 2.44556 -302.397 0 0 421.828 519.036"/><path d="M 421.828 519.036 A 3.5 2.44556 -302.397 0 0 422.273 515.222"/><path d="M 422.273 515.222 L 419.617 509.879"/></g><g stroke="rgb(0, 0, 0)" stroke-width="0.13" stroke-linecap="butt" stroke-linejoin="miter" fill="none"><path d="M 417.181 517.227 L 417.634 516.939"/></g><g stroke="rgb(0, 0, 0)" stroke-width="0.35" stroke-linecap="butt" stroke-linejoin="miter" fill="none"><path d="M 414.978 511.597 L 414.525 511.884"/><path d="M 421.375 519.324 L 421.828 519.036"/><path d="M 511.507 464.014 A 0.849976 0.542175 -136.27 0 0 510.278 462.839"/><path d="M 511.348 464.111 A 0.849976 0.542175 -136.27 0 0 511.507 464.014"/><path d="M 511.213 464.133 A 0.849976 0.542175 -136.27 0 0 510.173 463.138"/><path d="M 507.964 461.425 A 3.5 2.23248 -136.27 0 0 508.201 464.567"/><path d="M 509.733 466.866 L 508.201 464.567"/><path d="M 510.278 462.839 A 0.849976 0.542175 -136.27 0 0 511.348 464.111"/><path d="M 513.185 462.703 L 514.755 465.059"/><path d="M 508.363 461.007 A 3.5 2.23248 -136.27 0 0 508.6 464.15"/><path d="M 513.185 462.703 A 3.5 2.23248 -136.27 0 0 508.363 461.007"/><path d="M 510.28 466.669 L 508.601 464.15"/></g><g stroke="rgb(0, 0, 0)" stroke-width="0.13" stroke-linecap="butt" stroke-linejoin="miter" fill="none"><path d="M 508.201 464.567 L 508.601 464.15"/></g><g stroke="rgb(0, 0, 0)" stroke-width="0.35" stroke-linecap="butt" stroke-linejoin="miter" fill="none"><path d="M 508.363 461.007 L 507.964 461.425"/><path d="M 544.045 470.55 A 0.849976 0.535278 -121.385 0 0 544.93 472.002"/><path d="M 544.11 470.52 A 0.849976 0.535278 -121.385 0 0 544.045 470.55"/><path d="M 541.88 472.314 L 539.218 466.974"/><path d="M 541.88 472.314 A 3.5 2.20398 -121.385 0 0 545.813 474.567"/><path d="M 544.61 472.037 A 0.849976 0.535278 -121.385 0 0 543.867 470.819"/><path d="M 544.93 472.002 A 0.849976 0.535278 -121.385 0 0 544.11 470.52"/><path d="M 542.377 472.011 L 539.715 466.671"/><path d="M 546.31 474.264 A 3.5 2.20398 -121.385 0 0 546.597 470.541"/><path d="M 542.377 472.011 A 3.5 2.20398 -121.385 0 0 546.31 474.264"/><path d="M 543.935 465.201 L 546.597 470.541"/><path d="M 539.715 466.671 L 543.935 465.201"/></g><g stroke="rgb(0, 0, 0)" stroke-width="0.13" stroke-linecap="butt" stroke-linejoin="miter" fill="none"><path d="M 541.88 472.314 L 542.377 472.011"/></g><g stroke="rgb(0, 0, 0)" stroke-width="0.35" stroke-linecap="butt" stroke-linejoin="miter" fill="none"><path d="M 539.715 466.671 L 539.218 466.974"/><path d="M 546.31 474.264 L 545.813 474.567"/><path d="M 219.174 474.74 A 2.25 1.30542 -71.2681 1 0 220.619 470.478"/><path d="M 218.477 473.049 A 2.25 1.30542 -71.2681 0 0 219.174 474.74"/><path d="M 220.619 470.478 A 2.25 1.30542 -71.2681 0 0 218.477 473.049"/><path d="M 217.783 476.743 A 144.843 144.843 0 0 0 220.124 475.211"/><path d="M 220.124 475.211 A 3.00012 1.74072 -251.27 0 0 221.521 473.235"/><path d="M 221.521 473.235 A 3 1.74054 -251.268 0 0 221.591 470.506"/><path d="M 221.591 470.506 A 3.00085 1.74084 -251.264 0 0 220.606 469.716"/><path d="M 220.606 469.716 L 219.673 469.655 L 217.796 469.566 L 215.633 469.5"/><path d="M 209.816 468.239 A 6.25 4.69183 -287.228 0 0 207.57 469.016"/></g><g stroke="rgb(0, 0, 0)" stroke-width="0.13" stroke-linecap="butt" stroke-linejoin="miter" fill="none"><path d="M 220.606 469.716 A 3.67572 2.7594 -287.228 0 0 218.175 468.271"/></g><g stroke="rgb(0, 0, 0)" stroke-width="0.35" stroke-linecap="butt" stroke-linejoin="miter" fill="none"><path d="M 218.175 468.27 L 213.991 468.255"/><path d="M 221.591 470.506 A 3.75 3.75 0 0 0 218.175 468.27"/><path d="M 372.035 527.505 A 2.25 1.30542 -71.2681 0 0 373.516 526.735"/><path d="M 371.325 526.071 A 2.25 1.30542 -71.2681 0 0 372.035 527.505"/></g><g stroke="rgb(0, 0, 0)" stroke-width="0.13" stroke-linecap="butt" stroke-linejoin="miter" fill="none"><path d="M 366.538 528.388 L 366.683 528.025"/></g><g stroke="rgb(0, 0, 0)" stroke-width="0.35" stroke-linecap="butt" stroke-linejoin="miter" fill="none"><path d="M 373.893 527.198 A 4.7099 4.7099 0 0 0 374.077 526.905"/><path d="M 372.63 528.323 A 3.17053 1.83948 -251.25 0 0 373.893 527.198"/><path d="M 372.124 528.436 A 1.4386 1.4386 0 0 0 372.629 528.323"/><path d="M 372.124 528.435 L 371.309 528.449 L 369.679 528.449 L 368.631 528.435 L 366.538 528.388"/><path d="M 366.538 528.388 L 366.162 528.365 L 366.094 528.352 L 366.074 528.344 L 366.063 528.334 L 366.061 528.329 L 366.062 528.321"/><path d="M 366.062 528.321 L 366.07 528.31 L 366.109 528.282 L 366.392 528.152 L 367.072 527.843 L 367.458 527.645"/></g><g stroke="rgb(0, 0, 0)" stroke-width="0.13" stroke-linecap="butt" stroke-linejoin="miter" fill="none"><path d="M 371.065 528.598 A 3.62897 2.94318 -242.204 0 0 372.124 528.435"/></g><g stroke="rgb(0, 0, 0)" stroke-width="0.35" stroke-linecap="butt" stroke-linejoin="miter" fill="none"><path d="M 361.246 527.468 A 7 5.67712 -242.204 0 0 362.52 528.093"/><path d="M 367.458 527.645 A 6.60938 5.36035 -242.204 0 0 369.805 525.611"/><path d="M 371.065 528.598 A 3.75 3.75 0 0 0 372.63 528.323"/><path d="M 371.065 528.598 L 364.817 528.349"/></g></svg>