<?xml version="1.0" encoding="utf-8" ?><!DOCTYPE svg PUBLIC "-//W3C//DTD SVG 1.1//EN" "http://www.w3.org/Graphics/SVG/1.1/DTD/svg11.dtd" 
[ <!ATTLIST svg 
  xmlns:dsy CDATA #FIXED "http://www.3ds.com/print"  
    dsy:text-version CDATA #IMPLIED > 

  <!ATTLIST text 
  xmlns:dsy CDATA #FIXED "http://www.3ds.com/print" 
    dsy:text-version CDATA #IMPLIED > 
]><svg xmlns="http://www.w3.org/2000/svg" xmlns:dsy="http://www.3ds.com/print" dsy:text-version="18000" width="841" height="594" viewBox="0 0 841 594" version="1.1"><g stroke="rgb(0, 0, 0)" stroke-width="0.35" stroke-linecap="butt" stroke-linejoin="miter" fill="none"><circle cx="442.872" cy="145.858" r="5"/><path d="M 251.077 191.653 A 38 38 0 0 0 192.998 195.687"/><path d="M 251.077 191.653 L 346.963 191.653"/><path d="M 346.963 191.653 L 346.963 174.79"/><path d="M 346.963 174.79 L 352.963 174.79"/><path d="M 352.963 174.79 L 352.963 191.653"/><path d="M 352.963 191.653 L 472.788 191.653"/><path d="M 472.788 191.653 L 472.788 174.79"/><path d="M 472.788 174.79 L 478.788 174.79"/><path d="M 478.788 174.79 L 478.788 191.653"/><path d="M 478.788 191.653 L 570.654 191.653"/><path d="M 627.926 191.653 A 32.0455 32.0455 0 0 0 570.654 191.653"/><path d="M 627.926 191.653 L 627.926 204.062"/><path d="M 627.926 204.062 L 727.926 204.062"/><path d="M 727.926 178.328 L 727.926 204.062"/><path d="M 727.926 178.328 L 416.124 112.434"/><path d="M 416.124 118.242 L 416.124 112.434"/><path d="M 410.124 118.242 L 416.124 118.242"/><path d="M 410.124 112.419 L 410.124 118.242"/><path d="M 410.124 112.419 L 112.998 191.653"/><path d="M 112.998 191.653 L 112.998 205.687"/><path d="M 112.998 205.687 L 192.998 205.687"/><path d="M 192.998 195.687 L 192.998 205.687"/><circle cx="382.872" cy="145.858" r="5"/><circle cx="192.872" cy="181.858" r="5"/><circle cx="633.376" cy="181.859" r="5"/></g></svg>