<?xml version="1.0" encoding="utf-8" ?><!DOCTYPE svg PUBLIC "-//W3C//DTD SVG 1.1//EN" "http://www.w3.org/Graphics/SVG/1.1/DTD/svg11.dtd" 
[ <!ATTLIST svg 
  xmlns:dsy CDATA #FIXED "http://www.3ds.com/print"  
    dsy:text-version CDATA #IMPLIED > 

  <!ATTLIST text 
  xmlns:dsy CDATA #FIXED "http://www.3ds.com/print" 
    dsy:text-version CDATA #IMPLIED > 
]><svg xmlns="http://www.w3.org/2000/svg" xmlns:dsy="http://www.3ds.com/print" dsy:text-version="18000" width="420" height="297" viewBox="0 0 420 297" version="1.1"><g stroke="rgb(0, 0, 0)" stroke-width="0.35" stroke-linecap="butt" stroke-linejoin="miter" fill="none"><path d="M 75.0001 215.113 L 85.0001 215.113"/><path d="M 85.0001 215.113 L 85.0001 208.113"/><path d="M 85.0001 208.113 L 91.0001 208.113"/><path d="M 91.0001 208.113 L 91.0001 215.113"/><path d="M 91.0001 215.113 L 99.0001 215.113"/><path d="M 99.0001 215.113 L 99.0001 208.113"/><path d="M 99.0001 208.113 L 105 208.113"/><path d="M 105 208.113 L 105 215.113"/><path d="M 105 215.113 L 288.775 126.905"/><path d="M 311.314 116.087 A 12.5 12.5 0 1 0 288.775 126.905"/><path d="M 311.314 116.087 L 345 99.9179"/><path d="M 345 99.9179 L 336.346 81.8873"/><path d="M 105 195.113 L 75.0001 195.113"/><path d="M 75.0001 195.113 L 75.0001 215.113"/><path d="M 105 195.113 L 299.895 99.7272"/><path d="M 305.51 96.979 L 336.346 81.8873"/><path d="M 309.757 101.632 L 305.51 96.979"/><path d="M 309.757 101.632 L 305.326 105.677"/><path d="M 305.326 105.677 L 299.895 99.7272"/></g></svg>