<?xml version="1.0" encoding="utf-8" ?><!DOCTYPE svg PUBLIC "-//W3C//DTD SVG 1.1//EN" "http://www.w3.org/Graphics/SVG/1.1/DTD/svg11.dtd" 
[ <!ATTLIST svg 
  xmlns:dsy CDATA #FIXED "http://www.3ds.com/print"  
    dsy:text-version CDATA #IMPLIED > 

  <!ATTLIST text 
  xmlns:dsy CDATA #FIXED "http://www.3ds.com/print" 
    dsy:text-version CDATA #IMPLIED > 
]><svg xmlns="http://www.w3.org/2000/svg" xmlns:dsy="http://www.3ds.com/print" dsy:text-version="18000" width="420" height="297" viewBox="0 0 420 297" version="1.1"><g stroke="rgb(0, 0, 0)" stroke-width="0.35" stroke-linecap="butt" stroke-linejoin="miter" fill="none"><path d="M 377.717 163.702 L 57.7165 163.702"/><path d="M 214.717 144.702 L 214.717 138.702"/><path d="M 220.717 144.702 L 214.717 144.702"/><path d="M 220.717 138.702 L 220.717 144.702"/><path d="M 214.717 138.702 L 74.204 138.702"/><path d="M 57.7165 163.702 L 57.7165 154.141"/><path d="M 377.717 154.292 L 377.717 163.702"/><path d="M 57.7165 154.141 A 14.5154 14 -295.161 0 0 74.1683 142.417"/><path d="M 74.1684 142.417 A 14.7342 14.7342 0 0 0 74.2039 138.702"/><path d="M 362.857 138.702 L 220.717 138.702"/><path d="M 362.857 138.702 A 14.7301 14.7301 0 0 0 362.903 142.32"/><path d="M 362.903 142.32 A 14.5156 14 -244.837 0 0 377.717 154.292"/></g></svg>