<?xml version="1.0" encoding="utf-8" ?><!DOCTYPE svg PUBLIC "-//W3C//DTD SVG 1.1//EN" "http://www.w3.org/Graphics/SVG/1.1/DTD/svg11.dtd" 
[ <!ATTLIST svg 
  xmlns:dsy CDATA #FIXED "http://www.3ds.com/print"  
    dsy:text-version CDATA #IMPLIED > 

  <!ATTLIST text 
  xmlns:dsy CDATA #FIXED "http://www.3ds.com/print" 
    dsy:text-version CDATA #IMPLIED > 
]><svg xmlns="http://www.w3.org/2000/svg" xmlns:dsy="http://www.3ds.com/print" dsy:text-version="18000" width="841" height="594" viewBox="0 0 841 594" version="1.1"><g stroke="rgb(0, 0, 0)" stroke-width="0.13" stroke-linecap="butt" stroke-linejoin="miter" fill="none"><path d="M 81.8283 384.112 L 81.8283 414.836"/><path d="M 706.983 384.112 L 706.983 414.836"/></g><g stroke="rgb(0, 0, 0)" stroke-width="0.35" stroke-linecap="butt" stroke-linejoin="miter" fill="none"><path d="M 125.671 225.111 L 119.527 247.112"/><path d="M 119.527 247.112 L 129.527 247.112"/><path d="M 129.527 247.112 L 129.527 252.112"/><path d="M 129.527 252.112 L 118.131 252.112"/><path d="M 118.131 252.112 L 88.8096 357.112"/><path d="M 88.8096 357.112 L 98.8096 357.112"/><path d="M 98.8096 357.112 L 98.8096 362.112"/><path d="M 98.8096 362.112 L 87.4133 362.112"/><path d="M 87.4133 362.112 L 81.8283 382.112"/><path d="M 81.8283 382.112 L 706.983 382.112"/><path d="M 701.398 362.112 L 706.983 382.112"/><path d="M 690.002 362.112 L 701.398 362.112"/><path d="M 690.002 357.112 L 690.002 362.112"/><path d="M 700.002 357.112 L 690.002 357.112"/><path d="M 687.436 312.112 L 700.002 357.112"/><path d="M 700.636 303.612 L 687.436 312.112"/><path d="M 691.84 272.112 L 700.636 303.612"/><path d="M 676.266 272.112 L 691.84 272.112"/><path d="M 670.681 252.112 L 676.266 272.112"/><path d="M 659.285 252.112 L 670.681 252.112"/><path d="M 659.285 247.112 L 659.285 252.112"/><path d="M 669.285 247.112 L 659.285 247.112"/><path d="M 663.141 225.111 L 669.285 247.112"/><path d="M 125.671 225.111 L 663.141 225.111"/><circle cx="680.043" cy="284.418" r="1.7"/><circle cx="119.863" cy="287.818" r="1.7"/></g><g stroke="rgb(0, 0, 0)" stroke-width="0.13" stroke-linecap="butt" stroke-linejoin="miter" fill="none"><path d="M 386.276 408.279 L 386.18 407.871 L 385.958 407.568 L 385.615 407.376 L 385.172 407.311 L 384.874 407.346 L 384.617 407.442 L 384.39 407.598 L 384.198 407.82 L 384.047 408.098 L 383.936 408.435 L 383.865 408.834 L 383.845 409.283 L 383.926 409.999 L 384.173 410.518 L 384.572 410.831 L 385.116 410.937 L 385.605 410.846 L 385.979 410.609 L 386.221 410.236 L 386.306 409.762 L 386.221 409.283 L 385.989 408.915 L 385.631 408.683 L 385.187 408.602 L 384.708 408.703 L 384.35 408.99 L 384.425 408.435 L 384.587 408.037 L 384.834 407.8 L 385.177 407.719 L 385.429 407.76 L 385.621 407.866 L 385.747 408.042 L 385.812 408.279 L 386.276 408.279 L 386.276 408.279 z M 385.817 409.767 L 385.762 410.085 L 385.621 410.327 L 385.394 410.488 L 385.111 410.538 L 384.814 410.488 L 384.587 410.332 L 384.44 410.09 L 384.395 409.772 L 384.445 409.459 L 384.587 409.222 L 384.819 409.071 L 385.131 409.015 L 385.404 409.071 L 385.621 409.217 L 385.762 409.454 L 385.817 409.767 L 385.817 409.767 z M 387.571 410.836 L 389.977 410.836 L 389.977 410.402 L 388.076 410.402 L 388.181 410.165 L 388.363 409.969 L 388.923 409.61 L 389.22 409.459 L 389.553 409.242 L 389.79 408.99 L 389.926 408.693 L 389.977 408.355 L 389.891 407.931 L 389.654 407.598 L 389.291 407.386 L 388.822 407.311 L 388.338 407.397 L 387.97 407.634 L 387.733 408.012 L 387.652 408.511 L 387.652 408.582 L 388.111 408.582 L 388.111 408.541 L 388.156 408.198 L 388.292 407.946 L 388.509 407.785 L 388.797 407.729 L 389.089 407.78 L 389.306 407.906 L 389.447 408.103 L 389.498 408.35 L 389.462 408.582 L 389.367 408.778 L 389.205 408.95 L 388.983 409.101 L 388.686 409.263 L 388.192 409.575 L 387.844 409.908 L 387.637 410.312 L 387.571 410.821 L 387.571 410.836 L 387.571 410.836 z M 391.287 409.923 L 391.398 410.337 L 391.645 410.659 L 392.008 410.861 L 392.472 410.937 L 392.982 410.846 L 393.38 410.599 L 393.632 410.206 L 393.728 409.701 L 393.642 409.232 L 393.4 408.864 L 393.022 408.627 L 392.533 408.541 L 392.155 408.602 L 391.862 408.768 L 392.003 407.825 L 393.536 407.825 L 393.536 407.412 L 391.665 407.412 L 391.388 409.268 L 391.791 409.268 L 392.084 409.031 L 392.457 408.945 L 392.78 409 L 393.027 409.162 L 393.183 409.409 L 393.239 409.726 L 393.183 410.044 L 393.022 410.291 L 392.775 410.448 L 392.457 410.503 L 392.19 410.468 L 391.983 410.352 L 391.832 410.17 L 391.756 409.923 L 391.287 409.923 L 391.287 409.923 z M 395.926 410.836 L 396.622 410.836 L 396.622 410.085 L 395.926 410.085 L 395.926 410.836 L 395.926 410.836 z M 399.919 410.836 L 400.378 410.836 L 400.378 407.311 L 400.035 407.311 L 399.944 407.618 L 399.763 407.825 L 399.485 407.946 L 399.102 407.987 L 399.102 408.345 L 399.919 408.345 L 399.919 410.836 L 399.919 410.836 z M 404.956 408.279 L 404.86 407.871 L 404.639 407.568 L 404.296 407.376 L 403.852 407.311 L 403.554 407.346 L 403.297 407.442 L 403.07 407.598 L 402.878 407.82 L 402.727 408.098 L 402.616 408.435 L 402.546 408.834 L 402.525 409.283 L 402.606 409.999 L 402.853 410.518 L 403.252 410.831 L 403.796 410.937 L 404.286 410.846 L 404.659 410.609 L 404.901 410.236 L 404.987 409.762 L 404.901 409.283 L 404.669 408.915 L 404.311 408.683 L 403.867 408.602 L 403.388 408.703 L 403.03 408.99 L 403.105 408.435 L 403.267 408.037 L 403.514 407.8 L 403.857 407.719 L 404.109 407.76 L 404.301 407.866 L 404.427 408.042 L 404.492 408.279 L 404.956 408.279 L 404.956 408.279 z M 404.497 409.767 L 404.442 410.085 L 404.301 410.327 L 404.074 410.488 L 403.791 410.538 L 403.494 410.488 L 403.267 410.332 L 403.121 410.09 L 403.075 409.772 L 403.126 409.459 L 403.267 409.222 L 403.499 409.071 L 403.811 409.015 L 404.084 409.071 L 404.301 409.217 L 404.442 409.454 L 404.497 409.767 L 404.497 409.767 z" stroke="none" fill-rule="evenodd" fill="rgb(0, 0, 0)"/><path d="M 83.7601 412.318 L 81.8283 412.836 L 83.7601 413.354"/><path d="M 705.052 413.354 L 706.983 412.836 L 705.052 412.318"/><path d="M 81.8283 412.836 L 706.983 412.836"/></g></svg>