<?xml version="1.0" encoding="utf-8" ?><!DOCTYPE svg PUBLIC "-//W3C//DTD SVG 1.1//EN" "http://www.w3.org/Graphics/SVG/1.1/DTD/svg11.dtd" 
[ <!ATTLIST svg 
  xmlns:dsy CDATA #FIXED "http://www.3ds.com/print"  
    dsy:text-version CDATA #IMPLIED > 

  <!ATTLIST text 
  xmlns:dsy CDATA #FIXED "http://www.3ds.com/print" 
    dsy:text-version CDATA #IMPLIED > 
]><svg xmlns="http://www.w3.org/2000/svg" xmlns:dsy="http://www.3ds.com/print" dsy:text-version="18000" width="594" height="420" viewBox="0 0 594 420" version="1.1"><g stroke="rgb(0, 0, 0)" stroke-width="0.13" stroke-linecap="butt" stroke-linejoin="miter" fill="none"><path d="M 507.789 366.682 L 582.62 366.682"/><path d="M 507.789 156.682 L 582.62 156.682"/></g><g stroke="rgb(0, 0, 0)" stroke-width="0.35" stroke-linecap="butt" stroke-linejoin="miter" fill="none"><circle cx="432.852" cy="137.158" r="14"/><path d="M 49.1478 62.9219 A 17.208 13.9872 -432.863 0 0 54.3394 65.8752"/><path d="M 49.1478 62.9219 L 32.3815 131.664"/><path d="M 32.3815 131.664 L 33.3825 132.774 L 34.2607 133.983 L 35.0074 135.278 L 35.6153 136.643 L 36.0788 138.064 L 36.394 139.526 L 36.531 140.634 L 36.5831 141.75"/><path d="M 36.5831 141.75 L 36.5352 143.067 L 36.3693 144.376 L 36.0868 145.664 L 35.6897 146.921 L 35.1812 148.138 L 34.5649 149.304 L 33.8456 150.409 L 33.0318 151.44 L 32.1272 152.393 L 31.139 153.258 L 30.075 154.029 L 28.9439 154.696 L 27.7552 155.255 L 26.5191 155.7"/><path d="M 554.266 141.75 L 554.314 143.067 L 554.48 144.376 L 554.762 145.664 L 555.159 146.921 L 555.668 148.138 L 556.284 149.304 L 557.003 150.409 L 557.817 151.44 L 558.722 152.393 L 559.71 153.258 L 560.774 154.029 L 561.905 154.696 L 563.094 155.255 L 564.33 155.7"/><path d="M 558.467 131.664 L 557.466 132.774 L 556.588 133.983 L 555.841 135.278 L 555.234 136.643 L 554.77 138.064 L 554.455 139.526 L 554.318 140.634 L 554.266 141.75"/><path d="M 541.701 62.9219 L 558.467 131.664"/><path d="M 536.509 65.8752 A 17.208 13.9872 -107.137 0 0 541.701 62.9219"/><path d="M 518.35 52.8122 L 518.804 54.2473 L 519.359 55.6466 L 520.012 57.0027 L 520.903 58.5294 L 521.405 59.2722 L 521.94 59.9916 L 522.493 60.6671 L 523.076 61.3163 L 524.021 62.2486 L 525.033 63.1069 L 526.108 63.8824 L 527.244 64.5659 L 528.55 65.1964 L 529.913 65.6915 L 530.612 65.8838 L 531.321 66.0372 L 532.278 66.1783 L 533.242 66.2442 L 534.209 66.2323 L 535.368 66.1121 L 536.509 65.8752"/><path d="M 519.738 38.6821 A 17.2396 14.0012 -107.189 0 0 518.35 52.8123"/><path d="M 426.48 57.0238 A 16.1162 11.5 -315.645 0 0 446.164 60.8309"/><path d="M 144.684 60.8309 A 16.1162 11.5 -404.355 0 0 164.369 57.0238"/><path d="M 72.4988 52.8122 A 17.2396 14.0012 -432.811 0 0 71.1107 38.6821"/><path d="M 72.4988 52.8122 L 72.045 54.2473 L 71.4903 55.6466 L 70.837 57.0027 L 69.9458 58.5294 L 69.4438 59.2722 L 68.9084 59.9916 L 68.3558 60.6671 L 67.7726 61.3163 L 66.828 62.2486 L 65.8162 63.1069 L 64.7405 63.8824 L 63.6045 64.5659 L 62.2989 65.1964 L 60.9358 65.6915 L 60.2365 65.8838 L 59.5276 66.0372 L 58.5711 66.1783 L 57.6066 66.2442 L 56.64 66.2323 L 55.4806 66.1121 L 54.3394 65.8752"/><circle cx="530.449" cy="143.267" r="1.7"/><circle cx="490.174" cy="356.214" r="1.7"/><circle cx="62.1498" cy="143.267" r="1.7"/><circle cx="100.675" cy="356.214" r="1.7"/><path d="M 564.33 155.7 L 564.569 156.682"/><path d="M 85.7889 366.682 L 115.789 366.682"/><path d="M 465.789 366.682 L 505.789 366.682"/><path d="M 26.5191 155.7 L 26.2795 156.682"/><path d="M 115.789 366.682 L 115.789 336.682"/><path d="M 465.789 336.682 L 115.789 336.682"/><path d="M 465.789 336.682 L 465.789 366.682"/><path d="M 505.789 366.682 L 505.789 156.682"/><path d="M 564.569 156.682 L 505.789 156.682"/><path d="M 85.7889 156.682 L 26.2795 156.682"/><path d="M 85.7889 156.682 L 85.7889 366.682"/><path d="M 446.164 60.8309 A 16.076 11.4854 -315.612 0 0 448.644 56.6821"/><path d="M 426.156 56.6821 A 22.5367 22.5367 0 0 0 426.48 57.0238"/><path d="M 164.693 56.6821 L 426.156 56.6821"/><path d="M 164.369 57.0238 A 22.5367 22.5367 0 0 0 164.693 56.6821"/><path d="M 142.205 56.6821 A 16.076 11.4854 -404.388 0 0 144.684 60.8309"/><path d="M 125.789 56.6821 L 142.205 56.6821"/><path d="M 125.789 56.6821 L 125.789 38.6821"/><path d="M 125.789 38.6821 L 71.1107 38.6821"/><path d="M 519.738 38.6821 L 465.789 38.6821"/><path d="M 465.789 38.6821 L 465.789 56.6821"/><path d="M 448.644 56.6821 L 465.789 56.6821"/></g><g stroke="rgb(0, 0, 0)" stroke-width="0.13" stroke-linecap="butt" stroke-linejoin="miter" fill="none"><path d="M 578.62 266.649 L 578.62 264.243 L 578.187 264.243 L 578.187 266.144 L 577.95 266.038 L 577.753 265.857 L 577.395 265.297 L 577.244 265 L 577.027 264.667 L 576.775 264.43 L 576.477 264.294 L 576.139 264.243 L 575.716 264.329 L 575.383 264.566 L 575.171 264.929 L 575.095 265.398 L 575.181 265.882 L 575.418 266.25 L 575.796 266.487 L 576.296 266.568 L 576.366 266.568 L 576.366 266.109 L 576.326 266.109 L 575.983 266.064 L 575.731 265.928 L 575.569 265.711 L 575.514 265.423 L 575.564 265.131 L 575.69 264.914 L 575.887 264.773 L 576.134 264.722 L 576.366 264.757 L 576.563 264.853 L 576.734 265.015 L 576.886 265.237 L 577.047 265.534 L 577.36 266.028 L 577.693 266.376 L 578.096 266.583 L 578.605 266.649 L 578.62 266.649 L 578.62 266.649 z M 578.62 261.773 L 578.62 261.314 L 575.095 261.314 L 575.095 261.657 L 575.403 261.748 L 575.61 261.929 L 575.731 262.207 L 575.771 262.59 L 576.129 262.59 L 576.129 261.773 L 578.62 261.773 L 578.62 261.773 z M 576.911 259.161 L 577.703 259.086 L 578.267 258.849 L 578.61 258.471 L 578.721 257.946 L 578.61 257.427 L 578.267 257.048 L 577.703 256.816 L 576.911 256.736 L 576.124 256.816 L 575.811 256.912 L 575.554 257.048 L 575.211 257.427 L 575.095 257.946 L 575.211 258.471 L 575.559 258.849 L 576.124 259.086 L 576.911 259.161 L 576.911 259.161 z M 576.911 258.677 L 576.301 258.637 L 575.862 258.511 L 575.605 258.284 L 575.514 257.946 L 575.605 257.613 L 575.862 257.386 L 576.301 257.26 L 576.911 257.22 L 577.526 257.26 L 577.965 257.386 L 578.222 257.613 L 578.308 257.946 L 578.222 258.284 L 577.965 258.511 L 577.526 258.637 L 576.911 258.677 L 576.911 258.677 z" stroke="none" fill-rule="evenodd" fill="rgb(0, 0, 0)"/><path d="M 581.138 158.614 L 580.62 156.682 L 580.103 158.614"/><path d="M 580.103 364.75 L 580.62 366.682 L 581.138 364.75"/><path d="M 580.62 366.682 L 580.62 156.682"/></g></svg>