<?xml version="1.0" encoding="utf-8" ?><!DOCTYPE svg PUBLIC "-//W3C//DTD SVG 1.1//EN" "http://www.w3.org/Graphics/SVG/1.1/DTD/svg11.dtd" 
[ <!ATTLIST svg 
  xmlns:dsy CDATA #FIXED "http://www.3ds.com/print"  
    dsy:text-version CDATA #IMPLIED > 

  <!ATTLIST text 
  xmlns:dsy CDATA #FIXED "http://www.3ds.com/print" 
    dsy:text-version CDATA #IMPLIED > 
]><svg xmlns="http://www.w3.org/2000/svg" xmlns:dsy="http://www.3ds.com/print" dsy:text-version="18000" width="594" height="420" viewBox="0 0 594 420" version="1.1"><g stroke="rgb(0, 0, 0)" stroke-width="0.13" stroke-linecap="butt" stroke-linejoin="miter" fill="none"><path d="M 476.64 287.94 L 509.903 287.94"/><path d="M 476.64 132.06 L 509.903 132.06"/></g><g stroke="rgb(0, 0, 0)" stroke-width="0.35" stroke-linecap="butt" stroke-linejoin="miter" fill="none"><path d="M 474.64 287.94 L 474.64 132.06"/><path d="M 474.64 132.06 L 139.36 132.06"/><path d="M 139.36 132.06 L 119.36 287.94"/><path d="M 139.36 287.94 L 119.36 287.94"/><path d="M 139.36 272.94 L 139.36 287.94"/><path d="M 145.36 272.94 L 139.36 272.94"/><path d="M 145.36 287.94 L 145.36 272.94"/><path d="M 453.36 287.94 L 145.36 287.94"/><path d="M 453.36 272.94 L 453.36 287.94"/><path d="M 459.36 272.94 L 453.36 272.94"/><path d="M 459.36 287.94 L 459.36 272.94"/><path d="M 474.64 287.94 L 459.36 287.94"/><circle cx="413.34" cy="274.24" r="1.7"/><circle cx="273.34" cy="275.94" r="1.7"/></g><g stroke="rgb(0, 0, 0)" stroke-width="0.13" stroke-linecap="butt" stroke-linejoin="miter" fill="none"><path d="M 505.903 219.431 L 505.903 218.972 L 502.378 218.972 L 502.378 219.315 L 502.685 219.406 L 502.892 219.587 L 503.013 219.865 L 503.053 220.248 L 503.411 220.248 L 503.411 219.431 L 505.903 219.431 L 505.903 219.431 z M 504.99 216.855 L 505.404 216.744 L 505.726 216.497 L 505.928 216.134 L 506.004 215.67 L 505.913 215.16 L 505.666 214.762 L 505.272 214.51 L 504.768 214.414 L 504.299 214.5 L 503.931 214.742 L 503.694 215.12 L 503.608 215.609 L 503.669 215.987 L 503.835 216.28 L 502.892 216.139 L 502.892 214.605 L 502.479 214.605 L 502.479 216.477 L 504.334 216.754 L 504.334 216.35 L 504.097 216.058 L 504.012 215.685 L 504.067 215.362 L 504.229 215.115 L 504.476 214.959 L 504.793 214.903 L 505.111 214.959 L 505.358 215.12 L 505.515 215.367 L 505.57 215.685 L 505.535 215.952 L 505.419 216.159 L 505.237 216.31 L 504.99 216.386 L 504.99 216.855 L 504.99 216.855 z M 504.99 213.119 L 505.404 213.008 L 505.726 212.761 L 505.928 212.398 L 506.004 211.934 L 505.913 211.424 L 505.666 211.026 L 505.272 210.774 L 504.768 210.678 L 504.299 210.764 L 503.931 211.006 L 503.694 211.384 L 503.608 211.873 L 503.669 212.251 L 503.835 212.544 L 502.892 212.403 L 502.892 210.869 L 502.479 210.869 L 502.479 212.74 L 504.334 213.018 L 504.334 212.614 L 504.097 212.322 L 504.012 211.949 L 504.067 211.626 L 504.229 211.379 L 504.476 211.222 L 504.793 211.167 L 505.111 211.222 L 505.358 211.384 L 505.515 211.631 L 505.57 211.949 L 505.535 212.216 L 505.419 212.423 L 505.237 212.574 L 504.99 212.65 L 504.99 213.119 L 504.99 213.119 z M 505.903 208.48 L 505.903 207.784 L 505.151 207.784 L 505.151 208.48 L 505.903 208.48 L 505.903 208.48 z M 504.017 205.021 L 504.158 205.279 L 504.355 205.455 L 504.602 205.566 L 504.899 205.601 L 505.348 205.521 L 505.696 205.289 L 505.918 204.91 L 506.004 204.396 L 505.918 203.887 L 505.696 203.508 L 505.348 203.276 L 504.899 203.191 L 504.602 203.231 L 504.355 203.337 L 504.158 203.518 L 504.017 203.771 L 503.896 203.569 L 503.729 203.428 L 503.527 203.342 L 503.28 203.312 L 502.922 203.392 L 502.635 203.604 L 502.448 203.947 L 502.378 204.396 L 502.448 204.85 L 502.635 205.193 L 502.922 205.41 L 503.28 205.485 L 503.527 205.46 L 503.729 205.374 L 504.017 205.021 L 504.017 205.021 z M 504.889 205.117 L 504.622 205.072 L 504.42 204.926 L 504.289 204.699 L 504.244 204.396 L 504.289 204.098 L 504.42 203.871 L 504.622 203.725 L 504.889 203.675 L 505.177 203.725 L 505.393 203.871 L 505.535 204.098 L 505.58 204.396 L 505.535 204.699 L 505.393 204.926 L 505.177 205.072 L 504.889 205.117 L 504.889 205.117 z M 503.321 205.006 L 503.099 204.966 L 502.927 204.845 L 502.821 204.653 L 502.781 204.396 L 502.821 204.144 L 502.927 203.952 L 503.099 203.831 L 503.321 203.786 L 503.548 203.831 L 503.724 203.952 L 503.84 204.144 L 503.875 204.396 L 503.835 204.653 L 503.724 204.845 L 503.548 204.966 L 503.321 205.006 L 503.321 205.006 z M 504.017 201.285 L 504.158 201.543 L 504.355 201.719 L 504.602 201.83 L 504.899 201.865 L 505.348 201.785 L 505.696 201.553 L 505.918 201.174 L 506.004 200.66 L 505.918 200.151 L 505.696 199.772 L 505.348 199.54 L 504.899 199.455 L 504.602 199.495 L 504.355 199.601 L 504.158 199.782 L 504.017 200.035 L 503.896 199.833 L 503.729 199.692 L 503.527 199.606 L 503.28 199.576 L 502.922 199.656 L 502.635 199.868 L 502.448 200.211 L 502.378 200.66 L 502.448 201.114 L 502.635 201.457 L 502.922 201.674 L 503.28 201.749 L 503.527 201.724 L 503.729 201.638 L 504.017 201.285 L 504.017 201.285 z M 504.889 201.381 L 504.622 201.336 L 504.42 201.189 L 504.289 200.963 L 504.244 200.66 L 504.289 200.362 L 504.42 200.135 L 504.622 199.989 L 504.889 199.939 L 505.177 199.989 L 505.393 200.135 L 505.535 200.362 L 505.58 200.66 L 505.535 200.963 L 505.393 201.189 L 505.177 201.336 L 504.889 201.381 L 504.889 201.381 z M 503.321 201.27 L 503.099 201.23 L 502.927 201.109 L 502.821 200.917 L 502.781 200.66 L 502.821 200.408 L 502.927 200.216 L 503.099 200.095 L 503.321 200.05 L 503.548 200.095 L 503.724 200.216 L 503.84 200.408 L 503.875 200.66 L 503.835 200.917 L 503.724 201.109 L 503.548 201.23 L 503.321 201.27 L 503.321 201.27 z" stroke="none" fill-rule="evenodd" fill="rgb(0, 0, 0)"/><path d="M 507.385 286.008 L 507.903 287.94 L 508.421 286.008"/><path d="M 508.421 133.992 L 507.903 132.06 L 507.385 133.992"/><path d="M 507.903 287.94 L 507.903 132.06"/></g></svg>