<?xml version="1.0" encoding="utf-8" ?><!DOCTYPE svg PUBLIC "-//W3C//DTD SVG 1.1//EN" "http://www.w3.org/Graphics/SVG/1.1/DTD/svg11.dtd" 
[ <!ATTLIST svg 
  xmlns:dsy CDATA #FIXED "http://www.3ds.com/print"  
    dsy:text-version CDATA #IMPLIED > 

  <!ATTLIST text 
  xmlns:dsy CDATA #FIXED "http://www.3ds.com/print" 
    dsy:text-version CDATA #IMPLIED > 
]><svg xmlns="http://www.w3.org/2000/svg" xmlns:dsy="http://www.3ds.com/print" dsy:text-version="18000" width="420" height="297" viewBox="0 0 420 297" version="1.1"><g stroke="rgb(0, 0, 0)" stroke-width="0.13" stroke-linecap="butt" stroke-linejoin="miter" fill="none"><path d="M 58.651 225.762 L 58.651 243.471"/><path d="M 368.651 225.762 L 368.651 243.471"/></g><g stroke="rgb(0, 0, 0)" stroke-width="0.35" stroke-linecap="butt" stroke-linejoin="miter" fill="none"><path d="M 38.371 223.762 L 38.371 67.8823"/><path d="M 38.371 67.8823 L 373.651 67.8823"/><path d="M 373.651 67.8823 L 393.651 223.762"/><path d="M 373.651 223.762 L 393.651 223.762"/><path d="M 373.651 208.762 L 373.651 223.762"/><path d="M 368.651 208.762 L 373.651 208.762"/><path d="M 368.651 223.762 L 368.651 208.762"/><path d="M 58.651 223.762 L 368.651 223.762"/><path d="M 58.651 208.762 L 58.651 223.762"/><path d="M 53.651 208.762 L 58.651 208.762"/><path d="M 53.651 223.762 L 53.651 208.762"/><path d="M 38.371 223.762 L 53.651 223.762"/><circle cx="99.671" cy="210.062" r="1.70001"/><circle cx="239.671" cy="211.762" r="1.70001"/></g><g stroke="rgb(0, 0, 0)" stroke-width="0.13" stroke-linecap="butt" stroke-linejoin="miter" fill="none"><path d="M 208.644 238.371 L 208.644 238.407 L 208.725 238.891 L 208.962 239.254 L 209.335 239.486 L 209.829 239.572 L 210.354 239.486 L 210.747 239.264 L 210.999 238.911 L 211.09 238.457 L 211.05 238.159 L 210.939 237.917 L 210.757 237.731 L 210.515 237.595 L 210.843 237.322 L 210.959 236.889 L 210.883 236.495 L 210.666 236.198 L 210.313 236.011 L 209.829 235.945 L 209.375 236.026 L 209.027 236.248 L 208.8 236.601 L 208.725 237.07 L 208.725 237.105 L 209.174 237.105 L 209.214 236.783 L 209.345 236.551 L 209.557 236.409 L 209.854 236.359 L 210.117 236.399 L 210.308 236.505 L 210.424 236.677 L 210.47 236.909 L 210.424 237.156 L 210.303 237.322 L 210.091 237.423 L 209.804 237.453 L 209.607 237.448 L 209.607 237.847 L 209.854 237.837 L 210.172 237.882 L 210.409 238.003 L 210.55 238.2 L 210.601 238.457 L 210.545 238.75 L 210.399 238.966 L 210.167 239.103 L 209.859 239.148 L 209.542 239.098 L 209.31 238.946 L 209.163 238.704 L 209.108 238.371 L 208.644 238.371 L 208.644 238.371 z M 213.56 239.471 L 214.019 239.471 L 214.019 235.945 L 213.676 235.945 L 213.585 236.253 L 213.404 236.46 L 213.126 236.581 L 212.743 236.621 L 212.743 236.979 L 213.56 236.979 L 213.56 239.471 L 213.56 239.471 z M 216.172 237.761 L 216.247 238.553 L 216.484 239.118 L 216.863 239.461 L 217.387 239.572 L 217.906 239.461 L 218.285 239.118 L 218.517 238.553 L 218.597 237.761 L 218.517 236.974 L 218.421 236.662 L 218.285 236.404 L 217.906 236.061 L 217.387 235.945 L 216.863 236.061 L 216.484 236.409 L 216.247 236.974 L 216.172 237.761 L 216.172 237.761 z M 216.656 237.761 L 216.696 237.151 L 216.822 236.712 L 217.049 236.455 L 217.387 236.364 L 217.72 236.455 L 217.947 236.712 L 218.073 237.151 L 218.113 237.761 L 218.073 238.376 L 217.947 238.815 L 217.72 239.072 L 217.387 239.158 L 217.049 239.072 L 216.822 238.815 L 216.696 238.376 L 216.656 237.761 L 216.656 237.761 z" stroke="none" fill-rule="evenodd" fill="rgb(0, 0, 0)"/><path d="M 366.719 241.988 L 368.651 241.471 L 366.719 240.953"/><path d="M 60.5828 240.953 L 58.651 241.471 L 60.5828 241.988"/><path d="M 58.651 241.471 L 368.651 241.471"/></g></svg>