<?xml version="1.0" encoding="utf-8" ?><!DOCTYPE svg PUBLIC "-//W3C//DTD SVG 1.1//EN" "http://www.w3.org/Graphics/SVG/1.1/DTD/svg11.dtd" 
[ <!ATTLIST svg 
  xmlns:dsy CDATA #FIXED "http://www.3ds.com/print"  
    dsy:text-version CDATA #IMPLIED > 

  <!ATTLIST text 
  xmlns:dsy CDATA #FIXED "http://www.3ds.com/print" 
    dsy:text-version CDATA #IMPLIED > 
]><svg xmlns="http://www.w3.org/2000/svg" xmlns:dsy="http://www.3ds.com/print" dsy:text-version="18000" width="420" height="297" viewBox="0 0 420 297" version="1.1"><g stroke="rgb(0, 0, 0)" stroke-width="0.13" stroke-linecap="butt" stroke-linejoin="miter" fill="none"><path d="M 232 168.5 L 250.073 168.5"/><path d="M 232 128.5 L 250.073 128.5"/></g><g stroke="rgb(0, 0, 0)" stroke-width="0.35" stroke-linecap="butt" stroke-linejoin="miter" fill="none"><path d="M 190 128.5 L 195 128.5"/><path d="M 190 168.5 L 190 128.5"/><path d="M 207.5 168.5 L 190 168.5"/><path d="M 207.5 158.5 L 207.5 168.5"/><path d="M 212.5 158.5 L 207.5 158.5"/><path d="M 212.5 168.5 L 212.5 158.5"/><path d="M 230 168.5 L 212.5 168.5"/><path d="M 230 128.5 L 230 168.5"/><path d="M 225 128.5 L 230 128.5"/><path d="M 195 128.5 A 15 15 0 1 0 225 128.5"/></g><g stroke="rgb(0, 0, 0)" stroke-width="0.13" stroke-linecap="butt" stroke-linejoin="miter" fill="none"><path d="M 246.073 150.091 L 246.073 149.637 L 245.205 149.637 L 245.205 149.137 L 244.802 149.137 L 244.802 149.637 L 242.649 149.637 L 242.649 150.096 L 244.762 151.629 L 245.205 151.629 L 245.205 150.091 L 246.073 150.091 L 246.073 150.091 z M 244.802 151.205 L 243.234 150.091 L 244.802 150.091 L 244.802 151.205 L 244.802 151.205 z M 244.363 147.847 L 245.155 147.772 L 245.72 147.535 L 246.063 147.156 L 246.174 146.632 L 246.063 146.113 L 245.72 145.734 L 245.155 145.502 L 244.363 145.422 L 243.576 145.502 L 243.264 145.598 L 243.007 145.734 L 242.664 146.113 L 242.548 146.632 L 242.664 147.156 L 243.012 147.535 L 243.576 147.772 L 244.363 147.847 L 244.363 147.847 z M 244.363 147.363 L 243.753 147.323 L 243.314 147.197 L 243.057 146.97 L 242.966 146.632 L 243.057 146.299 L 243.314 146.072 L 243.753 145.946 L 244.363 145.906 L 244.979 145.946 L 245.417 146.072 L 245.674 146.299 L 245.76 146.632 L 245.674 146.97 L 245.417 147.197 L 244.979 147.323 L 244.363 147.363 L 244.363 147.363 z" stroke="none" fill-rule="evenodd" fill="rgb(0, 0, 0)"/><path d="M 247.555 166.568 L 248.073 168.5 L 248.591 166.568"/><path d="M 248.591 130.432 L 248.073 128.5 L 247.555 130.432"/><path d="M 248.073 168.5 L 248.073 128.5"/></g></svg>