<?xml version="1.0" encoding="utf-8" ?><!DOCTYPE svg PUBLIC "-//W3C//DTD SVG 1.1//EN" "http://www.w3.org/Graphics/SVG/1.1/DTD/svg11.dtd" 
[ <!ATTLIST svg 
  xmlns:dsy CDATA #FIXED "http://www.3ds.com/print"  
    dsy:text-version CDATA #IMPLIED > 

  <!ATTLIST text 
  xmlns:dsy CDATA #FIXED "http://www.3ds.com/print" 
    dsy:text-version CDATA #IMPLIED > 
]><svg xmlns="http://www.w3.org/2000/svg" xmlns:dsy="http://www.3ds.com/print" dsy:text-version="18000" width="420" height="297" viewBox="0 0 420 297" version="1.1"><g stroke="rgb(0, 0, 0)" stroke-width="0.13" stroke-linecap="butt" stroke-linejoin="miter" fill="none"><path d="M 232 163.5 L 244.433 163.5"/><path d="M 232 133.5 L 244.433 133.5"/></g><g stroke="rgb(0, 0, 0)" stroke-width="0.35" stroke-linecap="butt" stroke-linejoin="miter" fill="none"><path d="M 190 133.5 L 195 133.5"/><path d="M 190 163.5 L 190 133.5"/><path d="M 207.5 163.5 L 190 163.5"/><path d="M 207.5 153.5 L 207.5 163.5"/><path d="M 212.5 153.5 L 207.5 153.5"/><path d="M 212.5 163.5 L 212.5 153.5"/><path d="M 230 163.5 L 212.5 163.5"/><path d="M 230 133.5 L 230 163.5"/><path d="M 225 133.5 L 230 133.5"/><path d="M 195 133.5 A 15 15 0 1 0 225 133.5"/></g><g stroke="rgb(0, 0, 0)" stroke-width="0.13" stroke-linecap="butt" stroke-linejoin="miter" fill="none"><path d="M 239.333 151.639 L 239.369 151.639 L 239.853 151.558 L 240.216 151.321 L 240.448 150.948 L 240.534 150.454 L 240.448 149.929 L 240.226 149.536 L 239.873 149.284 L 239.419 149.193 L 239.122 149.233 L 238.88 149.344 L 238.693 149.526 L 238.557 149.768 L 238.284 149.44 L 237.851 149.324 L 237.457 149.4 L 237.16 149.617 L 236.973 149.97 L 236.908 150.454 L 236.988 150.908 L 237.21 151.256 L 237.563 151.483 L 238.032 151.558 L 238.068 151.558 L 238.068 151.109 L 237.745 151.069 L 237.513 150.938 L 237.372 150.726 L 237.321 150.429 L 237.362 150.166 L 237.467 149.975 L 237.639 149.859 L 237.871 149.813 L 238.118 149.859 L 238.284 149.98 L 238.385 150.191 L 238.416 150.479 L 238.411 150.676 L 238.809 150.676 L 238.799 150.429 L 238.844 150.111 L 238.965 149.874 L 239.162 149.733 L 239.419 149.682 L 239.712 149.738 L 239.929 149.884 L 240.065 150.116 L 240.11 150.423 L 240.06 150.741 L 239.908 150.973 L 239.666 151.119 L 239.333 151.175 L 239.333 151.639 L 239.333 151.639 z M 238.723 147.847 L 239.515 147.772 L 240.08 147.535 L 240.423 147.156 L 240.534 146.632 L 240.423 146.113 L 240.08 145.734 L 239.515 145.502 L 238.723 145.422 L 237.936 145.502 L 237.624 145.598 L 237.367 145.734 L 237.024 146.113 L 236.908 146.632 L 237.024 147.156 L 237.372 147.535 L 237.936 147.772 L 238.723 147.847 L 238.723 147.847 z M 238.723 147.363 L 238.113 147.323 L 237.674 147.197 L 237.417 146.97 L 237.326 146.632 L 237.417 146.299 L 237.674 146.072 L 238.113 145.946 L 238.723 145.906 L 239.338 145.946 L 239.777 146.072 L 240.034 146.299 L 240.12 146.632 L 240.034 146.97 L 239.777 147.197 L 239.338 147.323 L 238.723 147.363 L 238.723 147.363 z" stroke="none" fill-rule="evenodd" fill="rgb(0, 0, 0)"/><path d="M 241.915 161.568 L 242.433 163.5 L 242.951 161.568"/><path d="M 242.951 135.432 L 242.433 133.5 L 241.915 135.432"/><path d="M 242.433 163.5 L 242.433 133.5"/></g></svg>