<?xml version="1.0" encoding="utf-8" ?><!DOCTYPE svg PUBLIC "-//W3C//DTD SVG 1.1//EN" "http://www.w3.org/Graphics/SVG/1.1/DTD/svg11.dtd" 
[ <!ATTLIST svg 
  xmlns:dsy CDATA #FIXED "http://www.3ds.com/print"  
    dsy:text-version CDATA #IMPLIED > 

  <!ATTLIST text 
  xmlns:dsy CDATA #FIXED "http://www.3ds.com/print" 
    dsy:text-version CDATA #IMPLIED > 
]><svg xmlns="http://www.w3.org/2000/svg" xmlns:dsy="http://www.3ds.com/print" dsy:text-version="18000" width="420" height="297" viewBox="0 0 420 297" version="1.1"><g stroke="rgb(0, 0, 0)" stroke-width="0.13" stroke-linecap="butt" stroke-linejoin="miter" fill="none"><path d="M 232 163.5 L 243.328 163.5"/><path d="M 232 133.5 L 243.328 133.5"/></g><g stroke="rgb(0, 0, 0)" stroke-width="0.35" stroke-linecap="butt" stroke-linejoin="miter" fill="none"><path d="M 190 133.5 L 195 133.5"/><path d="M 190 163.5 L 190 133.5"/><path d="M 207 163.5 L 190 163.5"/><path d="M 207 153.5 L 207 163.5"/><path d="M 213 153.5 L 207 153.5"/><path d="M 213 163.5 L 213 153.5"/><path d="M 230 163.5 L 213 163.5"/><path d="M 230 133.5 L 230 163.5"/><path d="M 225 133.5 L 230 133.5"/><path d="M 195 133.5 A 15 15 0 1 0 225 133.5"/></g><g stroke="rgb(0, 0, 0)" stroke-width="0.13" stroke-linecap="butt" stroke-linejoin="miter" fill="none"><path d="M 238.228 151.639 L 238.264 151.639 L 238.748 151.558 L 239.111 151.321 L 239.343 150.948 L 239.429 150.454 L 239.343 149.929 L 239.121 149.536 L 238.768 149.284 L 238.314 149.193 L 238.017 149.233 L 237.775 149.344 L 237.588 149.526 L 237.452 149.768 L 237.179 149.44 L 236.746 149.324 L 236.352 149.4 L 236.055 149.617 L 235.868 149.97 L 235.803 150.454 L 235.883 150.908 L 236.105 151.256 L 236.458 151.483 L 236.927 151.558 L 236.963 151.558 L 236.963 151.109 L 236.64 151.069 L 236.408 150.938 L 236.267 150.726 L 236.216 150.429 L 236.257 150.166 L 236.362 149.975 L 236.534 149.859 L 236.766 149.813 L 237.013 149.859 L 237.179 149.98 L 237.28 150.191 L 237.311 150.479 L 237.306 150.676 L 237.704 150.676 L 237.694 150.429 L 237.739 150.111 L 237.86 149.874 L 238.057 149.733 L 238.314 149.682 L 238.607 149.738 L 238.824 149.884 L 238.96 150.116 L 239.005 150.423 L 238.955 150.741 L 238.803 150.973 L 238.561 151.119 L 238.228 151.175 L 238.228 151.639 L 238.228 151.639 z M 237.618 147.847 L 238.41 147.772 L 238.975 147.535 L 239.318 147.156 L 239.429 146.632 L 239.318 146.113 L 238.975 145.734 L 238.41 145.502 L 237.618 145.422 L 236.831 145.502 L 236.519 145.598 L 236.262 145.734 L 235.919 146.113 L 235.803 146.632 L 235.919 147.156 L 236.267 147.535 L 236.831 147.772 L 237.618 147.847 L 237.618 147.847 z M 237.618 147.363 L 237.008 147.323 L 236.569 147.197 L 236.312 146.97 L 236.221 146.632 L 236.312 146.299 L 236.569 146.072 L 237.008 145.946 L 237.618 145.906 L 238.234 145.946 L 238.672 146.072 L 238.929 146.299 L 239.015 146.632 L 238.929 146.97 L 238.672 147.197 L 238.234 147.323 L 237.618 147.363 L 237.618 147.363 z" stroke="none" fill-rule="evenodd" fill="rgb(0, 0, 0)"/><path d="M 240.81 161.568 L 241.328 163.5 L 241.846 161.568"/><path d="M 241.846 135.432 L 241.328 133.5 L 240.81 135.432"/><path d="M 241.328 163.5 L 241.328 133.5"/></g></svg>