<?xml version="1.0" encoding="utf-8" ?><!DOCTYPE svg PUBLIC "-//W3C//DTD SVG 1.1//EN" "http://www.w3.org/Graphics/SVG/1.1/DTD/svg11.dtd" 
[ <!ATTLIST svg 
  xmlns:dsy CDATA #FIXED "http://www.3ds.com/print"  
    dsy:text-version CDATA #IMPLIED > 

  <!ATTLIST text 
  xmlns:dsy CDATA #FIXED "http://www.3ds.com/print" 
    dsy:text-version CDATA #IMPLIED > 
]><svg xmlns="http://www.w3.org/2000/svg" xmlns:dsy="http://www.3ds.com/print" dsy:text-version="18000" width="841" height="594" viewBox="0 0 841 594" version="1.1"><g stroke="rgb(0, 0, 0)" stroke-width="0.13" stroke-linecap="butt" stroke-linejoin="miter" fill="none"><path d="M 100.135 254.485 L 100.135 217.724"/><path d="M 740.865 254.485 L 740.865 217.724"/></g><g stroke="rgb(0, 0, 0)" stroke-width="0.35" stroke-linecap="butt" stroke-linejoin="miter" fill="none"><path d="M 100.135 256.485 L 106.75 337.515"/><path d="M 106.75 337.515 L 734.25 337.515"/><path d="M 734.25 337.515 L 740.865 256.485"/><path d="M 740.865 256.485 L 100.135 256.485"/><circle cx="534.612" cy="328.615" r="1.7"/><circle cx="306.388" cy="328.615" r="1.7"/></g><g stroke="rgb(0, 0, 0)" stroke-width="0.13" stroke-linecap="butt" stroke-linejoin="miter" fill="none"><path d="M 412.37 215.167 L 412.274 214.759 L 412.053 214.456 L 411.71 214.265 L 411.266 214.199 L 410.968 214.234 L 410.711 214.33 L 410.484 214.487 L 410.292 214.709 L 410.141 214.986 L 410.03 215.324 L 409.96 215.722 L 409.939 216.171 L 410.02 216.887 L 410.267 217.407 L 410.666 217.719 L 411.21 217.825 L 411.7 217.734 L 412.073 217.497 L 412.315 217.124 L 412.401 216.65 L 412.315 216.171 L 412.083 215.803 L 411.725 215.571 L 411.281 215.49 L 410.802 215.591 L 410.444 215.879 L 410.519 215.324 L 410.681 214.925 L 410.928 214.688 L 411.271 214.608 L 411.523 214.648 L 411.715 214.754 L 411.841 214.93 L 411.906 215.167 L 412.37 215.167 L 412.37 215.167 z M 411.911 216.655 L 411.856 216.973 L 411.715 217.215 L 411.488 217.376 L 411.205 217.427 L 410.908 217.376 L 410.681 217.22 L 410.535 216.978 L 410.489 216.66 L 410.54 216.348 L 410.681 216.111 L 410.913 215.959 L 411.225 215.904 L 411.498 215.959 L 411.715 216.105 L 411.856 216.343 L 411.911 216.655 L 411.911 216.655 z M 415.173 217.724 L 415.627 217.724 L 415.627 216.857 L 416.126 216.857 L 416.126 216.453 L 415.627 216.453 L 415.627 214.3 L 415.168 214.3 L 413.635 216.413 L 413.635 216.857 L 415.173 216.857 L 415.173 217.724 L 415.173 217.724 z M 414.059 216.453 L 415.173 214.885 L 415.173 216.453 L 414.059 216.453 L 414.059 216.453 z M 417.417 216.015 L 417.492 216.806 L 417.729 217.371 L 418.107 217.714 L 418.632 217.825 L 419.151 217.714 L 419.53 217.371 L 419.762 216.806 L 419.842 216.015 L 419.762 215.228 L 419.666 214.915 L 419.53 214.658 L 419.151 214.315 L 418.632 214.199 L 418.107 214.315 L 417.729 214.663 L 417.492 215.228 L 417.417 216.015 L 417.417 216.015 z M 417.901 216.015 L 417.941 215.404 L 418.067 214.966 L 418.294 214.709 L 418.632 214.618 L 418.965 214.709 L 419.192 214.966 L 419.318 215.404 L 419.358 216.015 L 419.318 216.63 L 419.192 217.069 L 418.965 217.326 L 418.632 217.412 L 418.294 217.326 L 418.067 217.069 L 417.941 216.63 L 417.901 216.015 L 417.901 216.015 z M 422.02 217.724 L 422.716 217.724 L 422.716 216.973 L 422.02 216.973 L 422.02 217.724 L 422.02 217.724 z M 425.403 217.724 L 425.912 217.724 L 426.079 216.892 L 426.371 216.116 L 426.785 215.394 L 427.324 214.719 L 427.324 214.3 L 424.924 214.3 L 424.924 214.759 L 426.84 214.759 L 426.286 215.44 L 425.867 216.151 L 425.574 216.907 L 425.403 217.724 L 425.403 217.724 z M 428.569 216.625 L 428.569 216.66 L 428.65 217.144 L 428.887 217.508 L 429.26 217.74 L 429.754 217.825 L 430.279 217.74 L 430.672 217.518 L 430.924 217.165 L 431.015 216.711 L 430.975 216.413 L 430.864 216.171 L 430.682 215.984 L 430.44 215.848 L 430.768 215.576 L 430.884 215.142 L 430.808 214.749 L 430.591 214.451 L 430.238 214.265 L 429.754 214.199 L 429.3 214.28 L 428.952 214.502 L 428.725 214.855 L 428.65 215.324 L 428.65 215.359 L 429.099 215.359 L 429.139 215.036 L 429.27 214.804 L 429.482 214.663 L 429.78 214.613 L 430.042 214.653 L 430.233 214.759 L 430.349 214.93 L 430.395 215.162 L 430.349 215.41 L 430.228 215.576 L 430.017 215.677 L 429.729 215.707 L 429.532 215.702 L 429.532 216.1 L 429.78 216.09 L 430.097 216.136 L 430.334 216.257 L 430.475 216.453 L 430.526 216.711 L 430.47 217.003 L 430.324 217.22 L 430.092 217.356 L 429.785 217.402 L 429.467 217.351 L 429.235 217.2 L 429.089 216.958 L 429.033 216.625 L 428.569 216.625 L 428.569 216.625 z" stroke="none" fill-rule="evenodd" fill="rgb(0, 0, 0)"/><path d="M 738.933 220.242 L 740.865 219.724 L 738.933 219.207"/><path d="M 102.067 219.207 L 100.135 219.724 L 102.067 220.242"/><path d="M 100.135 219.724 L 740.865 219.724"/></g></svg>