M48
;GenerationSoftware,Autodesk,EAGLE,9.6.2*%
;CreationDate,2021-12-28T11:26:55Z*%
FMAT,2
ICI,OFF
METRIC,TZ,000.000
T8C0.300
T7C0.350
T6C0.500
T5C0.700
T4C1.016
T3C1.300
T2C1.400
T1C3.200
%
G90
M71
T1
X3000Y33000
X3000Y3000
X43900Y2600
X43800Y33000
T2
X13500Y15650
X13500Y26350
X8100Y20650
T3
X18000Y17650
X18000Y23650
T4
X44200Y27600
X44400Y24000
X44400Y20300
X44500Y8200
X44400Y16100
X44500Y12100
X4100Y24250
X4100Y21710
X4100Y19170
X4100Y16630
X4100Y14090
X4100Y11550
T5
X28000Y28460
X28000Y33540
X28000Y31000
X35000Y33540
X35000Y31000
X35000Y28460
T6
X25700Y31100
T7
X10600Y12900
X16600Y12900
X40600Y13600
X43200Y22600
X40700Y20800
X40400Y23200
X19500Y7900
X9000Y9000
X22700Y8000
X30500Y24200
X37600Y22100
T8
X36000Y18000
X22800Y12000
X34300Y6100
X42000Y10000
X12000Y6000
X40500Y24900
X25100Y11200
X29100Y18300
X29700Y9900
X40600Y15200
X30500Y18100
X29300Y14200
X30500Y19300
X40500Y19300
X29400Y21400
X30100Y3500
X30500Y23000
X30100Y2500
X30500Y15900
X15000Y10100
X25500Y15700
X18000Y10100
X25600Y22700
X39000Y26000
X39000Y18000
X13800Y4900
X42000Y18000
X25500Y16900
X9000Y3000
X25100Y8900
X32600Y3400
X21000Y18000
X36000Y22000
X36000Y14000
X42000Y14000
X36000Y10000
X36000Y26000
X22800Y21900
M30