<?xml version="1.0" encoding="utf-8" ?><!DOCTYPE svg PUBLIC "-//W3C//DTD SVG 1.1//EN" "http://www.w3.org/Graphics/SVG/1.1/DTD/svg11.dtd" 
[ <!ATTLIST svg 
  xmlns:dsy CDATA #FIXED "http://www.3ds.com/print"  
    dsy:text-version CDATA #IMPLIED > 

  <!ATTLIST text 
  xmlns:dsy CDATA #FIXED "http://www.3ds.com/print" 
    dsy:text-version CDATA #IMPLIED > 
]><svg xmlns="http://www.w3.org/2000/svg" xmlns:dsy="http://www.3ds.com/print" dsy:text-version="18000" width="297" height="210" viewBox="0 0 297 210" version="1.1"><g stroke="rgb(0, 0, 0)" stroke-width="0.35" stroke-linecap="butt" stroke-linejoin="miter" fill="none"><path d="M 13.5 171.613 L 23.5 171.613"/><path d="M 23.5 171.613 L 23.5 164.613"/><path d="M 23.5 164.613 L 29.5 164.613"/><path d="M 29.5 164.613 L 29.5 171.613"/><path d="M 29.5 171.613 L 37.5 171.613"/><path d="M 37.5 171.613 L 37.5 164.613"/><path d="M 37.5 164.613 L 43.5 164.613"/><path d="M 43.5 164.613 L 43.5 171.613"/><path d="M 43.5 171.613 L 227.275 83.4046"/><path d="M 249.813 72.5867 A 12.5 12.5 0 1 0 227.275 83.4046"/><path d="M 249.814 72.5867 L 283.5 56.4179"/><path d="M 283.5 56.4179 L 274.846 38.3873"/><path d="M 43.5 151.613 L 274.846 38.3873"/><path d="M 43.5 151.613 L 13.5 151.613"/><path d="M 13.5 151.613 L 13.5 171.613"/></g></svg>