<?xml version="1.0" encoding="utf-8" ?><!DOCTYPE svg PUBLIC "-//W3C//DTD SVG 1.1//EN" "http://www.w3.org/Graphics/SVG/1.1/DTD/svg11.dtd" 
[ <!ATTLIST svg 
  xmlns:dsy CDATA #FIXED "http://www.3ds.com/print"  
    dsy:text-version CDATA #IMPLIED > 

  <!ATTLIST text 
  xmlns:dsy CDATA #FIXED "http://www.3ds.com/print" 
    dsy:text-version CDATA #IMPLIED > 
]><svg xmlns="http://www.w3.org/2000/svg" xmlns:dsy="http://www.3ds.com/print" dsy:text-version="18000" width="297" height="210" viewBox="0 0 297 210" version="1.1"><g stroke="rgb(0, 0, 0)" stroke-width="0.35" stroke-linecap="butt" stroke-linejoin="miter" fill="none"><path d="M 149.502 97.378 L 149.502 57.378"/><path d="M 146.502 57.378 L 149.502 57.378"/><path d="M 146.502 67.378 L 146.502 57.378"/><path d="M 140.502 67.378 L 146.502 67.378"/><path d="M 140.502 57.378 L 140.502 67.378"/><path d="M 132.502 57.378 L 140.502 57.378"/><path d="M 132.502 67.378 L 132.502 57.378"/><path d="M 126.502 67.378 L 132.502 67.378"/><path d="M 126.502 57.378 L 126.502 67.378"/><path d="M 123.502 57.378 L 126.502 57.378"/><path d="M 123.502 57.378 L 123.502 97.378"/><path d="M 126.502 97.378 L 123.502 97.378"/><path d="M 146.502 97.378 A 9.99999 9.99999 0 1 0 126.502 97.378"/><path d="M 149.502 97.378 L 146.502 97.378"/></g></svg>