<?xml version="1.0" encoding="utf-8" ?><!DOCTYPE svg PUBLIC "-//W3C//DTD SVG 1.1//EN" "http://www.w3.org/Graphics/SVG/1.1/DTD/svg11.dtd" 
[ <!ATTLIST svg 
  xmlns:dsy CDATA #FIXED "http://www.3ds.com/print"  
    dsy:text-version CDATA #IMPLIED > 

  <!ATTLIST text 
  xmlns:dsy CDATA #FIXED "http://www.3ds.com/print" 
    dsy:text-version CDATA #IMPLIED > 
]><svg xmlns="http://www.w3.org/2000/svg" xmlns:dsy="http://www.3ds.com/print" dsy:text-version="18000" width="420" height="297" viewBox="0 0 420 297" version="1.1"><g stroke="rgb(0, 0, 0)" stroke-width="0.35" stroke-linecap="butt" stroke-linejoin="miter" fill="none"><path d="M 55.8346 83.9072 L 375.835 83.9072"/><path d="M 218.835 64.9072 L 218.835 58.9072"/><path d="M 212.835 64.9072 L 218.835 64.9072"/><path d="M 212.835 58.9072 L 212.835 64.9072"/><path d="M 358.586 58.9072 L 358.469 58.9072"/><path d="M 359.431 58.9072 L 358.586 58.9072"/><path d="M 218.835 58.9072 L 358.469 58.9072"/><path d="M 375.835 83.9072 L 375.835 70.6068"/><path d="M 375.835 70.6068 L 375.835 69.297"/><path d="M 358.495 59.102 L 358.469 58.9072"/><path d="M 359.431 58.9072 A 14.5155 14 -244.838 0 0 375.835 69.297"/><path d="M 358.495 59.102 A 14.5156 14 -244.838 0 0 375.835 70.6068"/><path d="M 55.8346 69.4706 A 14.5156 14.0001 -295.163 0 0 70.5772 58.9072"/><path d="M 55.8346 70.8669 L 55.8346 83.9072"/><path d="M 71.5492 58.9072 L 212.835 58.9072"/><path d="M 71.5361 59.005 L 71.5492 58.9072"/><path d="M 55.8346 70.8669 A 14.5154 14 -295.161 0 0 71.5361 59.005"/><path d="M 55.8346 70.8669 L 55.8346 69.4706"/><path d="M 70.5772 58.9072 L 71.4902 58.9072"/><path d="M 71.4902 58.9072 L 71.5492 58.9072"/></g></svg>