<?xml version="1.0" encoding="utf-8" ?><!DOCTYPE svg PUBLIC "-//W3C//DTD SVG 1.1//EN" "http://www.w3.org/Graphics/SVG/1.1/DTD/svg11.dtd" 
[ <!ATTLIST svg 
  xmlns:dsy CDATA #FIXED "http://www.3ds.com/print"  
    dsy:text-version CDATA #IMPLIED > 

  <!ATTLIST text 
  xmlns:dsy CDATA #FIXED "http://www.3ds.com/print" 
    dsy:text-version CDATA #IMPLIED > 
]><svg xmlns="http://www.w3.org/2000/svg" xmlns:dsy="http://www.3ds.com/print" dsy:text-version="18000" width="420" height="297" viewBox="0 0 420 297" version="1.1"><g stroke="rgb(0, 0, 0)" stroke-width="0.35" stroke-linecap="butt" stroke-linejoin="miter" fill="none"><path d="M 24.4948 255.575 L 179.476 36.7781"/><path d="M 209.514 36.7781 A 18.4052 18.4052 0 0 0 179.476 36.7781"/><path d="M 209.514 36.7781 L 364.495 255.575"/><path d="M 364.495 255.575 L 244.495 255.575"/><path d="M 244.495 255.575 L 244.495 250.575"/><path d="M 244.495 250.575 L 238.495 250.575"/><path d="M 238.495 250.575 L 238.495 255.575"/><path d="M 238.495 255.575 L 150.495 255.575"/><path d="M 150.495 255.575 L 150.495 250.575"/><path d="M 150.495 250.575 L 144.495 250.575"/><path d="M 144.495 250.575 L 144.495 255.575"/><path d="M 144.495 255.575 L 24.4948 255.575"/><circle cx="350.353" cy="250.575" r="3.20001"/><circle cx="40.3527" cy="250.575" r="3.20001"/><circle cx="194.495" cy="45.5747" r="4"/><circle cx="194.495" cy="165.575" r="4"/><path d="M 357.284 249.656 L 356.465 247.832"/><path d="M 358.284 249.656 L 357.284 249.656"/><path d="M 356.465 247.832 L 357.465 247.832"/><path d="M 357.465 247.832 L 358.284 249.656"/><path d="M 343.924 252.462 L 342.924 252.462"/><path d="M 343.924 252.462 L 344.487 254.381"/><path d="M 342.924 252.462 L 343.487 254.381"/><path d="M 343.487 254.381 L 344.487 254.381"/></g></svg>