<?xml version="1.0" encoding="utf-8" ?><!DOCTYPE svg PUBLIC "-//W3C//DTD SVG 1.1//EN" "http://www.w3.org/Graphics/SVG/1.1/DTD/svg11.dtd" 
[ <!ATTLIST svg 
  xmlns:dsy CDATA #FIXED "http://www.3ds.com/print"  
    dsy:text-version CDATA #IMPLIED > 

  <!ATTLIST text 
  xmlns:dsy CDATA #FIXED "http://www.3ds.com/print" 
    dsy:text-version CDATA #IMPLIED > 
]><svg xmlns="http://www.w3.org/2000/svg" xmlns:dsy="http://www.3ds.com/print" dsy:text-version="18000" width="297" height="210" viewBox="0 0 297 210" version="1.1"><g stroke="rgb(0, 0, 0)" stroke-width="0.35" stroke-linecap="butt" stroke-linejoin="miter" fill="none"><path d="M 126.447 122.978 L 161.447 122.978"/><path d="M 161.447 77.9782 L 126.447 77.9782"/><path d="M 126.447 77.9782 L 126.447 92.9782"/><path d="M 126.447 92.9782 L 131.447 92.9782"/><path d="M 131.447 92.9782 L 131.447 98.9782"/><path d="M 131.447 98.9782 L 126.447 98.9782"/><path d="M 126.447 98.9782 L 126.447 106.978"/><path d="M 126.447 106.978 L 131.447 106.978"/><path d="M 131.447 106.978 L 131.447 112.978"/><path d="M 131.447 112.978 L 126.447 112.978"/><path d="M 126.447 112.978 L 126.447 122.978"/><path d="M 161.447 93.1239 L 161.447 77.9782"/><path d="M 161.447 122.978 L 161.447 112.781"/><path d="M 161.447 93.1239 A 10 10 0 1 0 161.447 112.781"/></g></svg>