M48
;GenerationSoftware,Autodesk,EAGLE,9.6.2*%
;CreationDate,2021-12-28T16:23:35Z*%
FMAT,2
ICI,OFF
METRIC,TZ,000.000
T6C0.350
T5C0.750
T4C1.000
T3C1.400
T2C2.330
T1C3.200
%
G90
M71
T1
X62230Y41910
X2540Y1270
X2540Y41910
X62230Y1270
T2
X48895Y21590
X54295Y16240
X48895Y10890
X48895Y36830
X54295Y31480
X48895Y26130
T3
X44395Y34830
X44395Y19590
X44395Y13590
X44395Y28830
T4
X60960Y26670
X3810Y30480
X60960Y29210
X60960Y31750
X60960Y34290
X60960Y13970
X60960Y16510
X60960Y19050
X60960Y21590
X60960Y5715
X60960Y8255
X3810Y8255
X3810Y27940
X3810Y5715
X3810Y34290
X3810Y36830
X3810Y12065
X3810Y14605
T5
X43180Y5715
X43180Y3715
X35560Y3810
X35560Y5810
T6
X34290Y32766
X15240Y19050
X8255Y24130
X32385Y22860
X37465Y15240
X31115Y17780
X36195Y34925
X29845Y21590
X30480Y32385
X37465Y20955
X34290Y27368
X13970Y22860
M30