<?xml version="1.0" encoding="utf-8" ?><!DOCTYPE svg PUBLIC "-//W3C//DTD SVG 1.1//EN" "http://www.w3.org/Graphics/SVG/1.1/DTD/svg11.dtd" 
[ <!ATTLIST svg 
  xmlns:dsy CDATA #FIXED "http://www.3ds.com/print"  
    dsy:text-version CDATA #IMPLIED > 

  <!ATTLIST text 
  xmlns:dsy CDATA #FIXED "http://www.3ds.com/print" 
    dsy:text-version CDATA #IMPLIED > 
]><svg xmlns="http://www.w3.org/2000/svg" xmlns:dsy="http://www.3ds.com/print" dsy:text-version="18000" width="841" height="594" viewBox="0 0 841 594" version="1.1"><g stroke="rgb(0, 0, 0)" stroke-width="0.13" stroke-linecap="butt" stroke-linejoin="miter" fill="none"><path d="M 121.786 115 L 121.786 83.1396"/><path d="M 446.024 115 L 446.024 83.1396"/></g><g stroke="rgb(0, 0, 0)" stroke-width="0.35" stroke-linecap="butt" stroke-linejoin="miter" fill="none"><circle cx="755.5" cy="411.964" r="2.14999"/><circle cx="89.5" cy="442.794" r="2.14999"/><circle cx="755.5" cy="180.436" r="2.14999"/><circle cx="89.5" cy="149.607" r="2.14999"/><path d="M 446.024 477 L 130.833 477"/><path d="M 67.5 458.429 L 127.5 467"/><path d="M 127.5 467 L 130.833 477"/><path d="M 67.5 163.694 L 67.5 141.286"/><path d="M 67.5 458.429 L 67.5 436.512"/><path d="M 446.024 117 L 121.786 117"/><path d="M 121.786 125.776 L 121.786 121.002"/><path d="M 67.5 141.286 L 121.786 125.776"/><path d="M 121.786 121.002 L 121.786 117"/><path d="M 121.786 421.002 L 121.786 171.002"/><path d="M 67.5 436.512 L 121.786 421.002"/><path d="M 121.786 171.002 L 67.5 163.694"/><path d="M 717.5 452.13 L 446.024 477"/><path d="M 717.5 437 L 717.5 452.13"/><path d="M 773.5 423 L 717.5 437"/><path d="M 773.5 423 L 773.5 401"/><path d="M 717.5 387 L 717.5 199.941"/><path d="M 773.5 401 L 717.5 387"/><path d="M 717.5 199.941 L 773.5 190.882"/><path d="M 773.5 190.882 L 773.5 168.2"/><path d="M 717.5 141.87 L 446.024 117"/><path d="M 773.5 168.2 L 717.5 157"/><path d="M 717.5 157 L 717.5 141.87"/><path d="M 647.5 407 L 177.5 407"/><path d="M 647.5 407 L 647.5 177"/><path d="M 177.5 177 L 647.5 177"/><path d="M 177.5 177 L 177.5 407"/></g><g stroke="rgb(0, 0, 0)" stroke-width="0.13" stroke-linecap="butt" stroke-linejoin="miter" fill="none"><path d="M 422.896 485.352 L 422.018 488.332 L 421.115 485.352 L 420.636 485.352 L 421.766 488.857 L 422.27 488.857 L 423.375 485.352 L 422.896 485.352 L 422.896 485.352 z M 426.098 486.148 L 425.654 486.148 L 425.654 487.712 L 425.604 488.075 L 425.457 488.337 L 425.231 488.499 L 424.933 488.549 L 424.696 488.509 L 424.545 488.388 L 424.459 488.181 L 424.439 487.888 L 424.439 486.148 L 423.995 486.148 L 423.995 487.929 L 424.01 488.287 L 424.106 488.584 L 424.398 488.857 L 424.867 488.952 L 425.12 488.917 L 425.336 488.826 L 425.523 488.67 L 425.674 488.443 L 425.674 488.857 L 426.098 488.857 L 426.098 486.148 L 426.098 486.148 z M 427.434 487.631 L 429.21 487.631 L 429.215 487.424 L 429.134 486.844 L 428.912 486.411 L 428.559 486.148 L 428.09 486.053 L 427.631 486.153 L 427.278 486.436 L 427.051 486.895 L 426.97 487.5 L 427.046 488.12 L 427.273 488.574 L 427.621 488.857 L 428.075 488.952 L 428.468 488.887 L 428.791 488.715 L 429.028 488.443 L 429.164 488.08 L 428.725 488.08 L 428.635 488.282 L 428.504 488.433 L 428.13 488.554 L 427.843 488.499 L 427.626 488.322 L 427.485 488.035 L 427.434 487.646 L 427.434 487.631 L 427.434 487.631 z M 427.434 487.258 L 427.49 486.91 L 427.626 486.653 L 427.833 486.496 L 428.105 486.441 L 428.372 486.496 L 428.579 486.653 L 428.705 486.91 L 428.751 487.258 L 427.434 487.258 L 427.434 487.258 z M 434.782 488.438 L 434.782 488.857 L 435.226 488.857 L 435.226 485.236 L 434.787 485.236 L 434.787 486.562 L 434.45 486.179 L 434.243 486.088 L 434.006 486.053 L 433.577 486.153 L 433.244 486.436 L 433.027 486.89 L 432.952 487.5 L 433.027 488.11 L 433.244 488.569 L 433.577 488.857 L 434.006 488.952 L 434.243 488.917 L 434.455 488.826 L 434.782 488.438 L 434.782 488.438 z M 434.081 486.451 L 434.374 486.522 L 434.596 486.718 L 434.727 487.046 L 434.777 487.5 L 434.727 487.959 L 434.596 488.287 L 434.374 488.488 L 434.081 488.554 L 433.804 488.488 L 433.592 488.287 L 433.451 487.954 L 433.406 487.5 L 433.451 487.051 L 433.592 486.723 L 433.804 486.522 L 434.081 486.451 L 434.081 486.451 z M 436.542 487.631 L 438.318 487.631 L 438.323 487.424 L 438.242 486.844 L 438.02 486.411 L 437.667 486.148 L 437.198 486.053 L 436.739 486.153 L 436.386 486.436 L 436.159 486.895 L 436.078 487.5 L 436.154 488.12 L 436.381 488.574 L 436.729 488.857 L 437.183 488.952 L 437.576 488.887 L 437.899 488.715 L 438.136 488.443 L 438.272 488.08 L 437.833 488.08 L 437.743 488.282 L 437.612 488.433 L 437.238 488.554 L 436.951 488.499 L 436.734 488.322 L 436.593 488.035 L 436.542 487.646 L 436.542 487.631 L 436.542 487.631 z M 436.542 487.258 L 436.598 486.91 L 436.734 486.653 L 436.941 486.496 L 437.213 486.441 L 437.48 486.496 L 437.687 486.653 L 437.813 486.91 L 437.859 487.258 L 436.542 487.258 L 436.542 487.258 z M 442.841 486.617 L 442.841 488.857 L 443.285 488.857 L 443.285 486.617 L 444.294 486.617 L 444.294 486.239 L 443.285 486.239 L 443.285 486.073 L 443.321 485.871 L 443.437 485.735 L 443.633 485.654 L 443.916 485.624 L 444.294 485.644 L 444.294 485.261 L 443.815 485.236 L 443.381 485.281 L 443.078 485.417 L 442.897 485.654 L 442.841 485.992 L 442.841 486.239 L 442.029 486.239 L 442.029 486.617 L 442.841 486.617 L 442.841 486.617 z M 446.871 488.504 L 446.871 488.519 L 446.896 488.69 L 446.972 488.811 L 447.29 488.907 L 447.537 488.867 L 447.537 488.524 L 447.431 488.539 L 447.29 488.473 L 447.264 488.272 L 447.264 486.87 L 447.204 486.512 L 447.027 486.259 L 446.72 486.108 L 446.286 486.053 L 445.862 486.113 L 445.55 486.285 L 445.353 486.552 L 445.287 486.905 L 445.287 486.935 L 445.686 486.935 L 445.721 486.723 L 445.832 486.572 L 446.014 486.481 L 446.271 486.446 L 446.518 486.471 L 446.694 486.547 L 446.8 486.678 L 446.836 486.86 L 446.815 487.071 L 446.735 487.177 L 446.533 487.228 L 446.155 487.268 L 445.721 487.359 L 445.413 487.52 L 445.232 487.772 L 445.176 488.146 L 445.227 488.478 L 445.383 488.726 L 445.635 488.882 L 445.983 488.937 L 446.452 488.831 L 446.871 488.504 L 446.871 488.504 z M 446.82 487.909 L 446.76 488.171 L 446.599 488.372 L 446.357 488.504 L 446.059 488.549 L 445.867 488.524 L 445.731 488.443 L 445.645 488.302 L 445.62 488.105 L 445.64 487.929 L 445.721 487.803 L 446.044 487.661 L 446.452 487.601 L 446.82 487.48 L 446.82 487.909 L 446.82 487.909 z M 450.023 487.046 L 450.462 487.046 L 450.371 486.643 L 450.154 486.325 L 449.816 486.128 L 449.377 486.053 L 448.893 486.153 L 448.525 486.436 L 448.293 486.895 L 448.212 487.51 L 448.288 488.12 L 448.515 488.574 L 448.873 488.857 L 449.362 488.952 L 449.796 488.877 L 450.134 488.665 L 450.366 488.332 L 450.467 487.888 L 450.043 487.888 L 449.967 488.171 L 449.826 488.383 L 449.625 488.514 L 449.377 488.554 L 449.07 488.488 L 448.848 488.287 L 448.712 487.959 L 448.666 487.495 L 448.712 487.041 L 448.853 486.713 L 449.08 486.512 L 449.377 486.441 L 449.64 486.486 L 449.836 486.602 L 449.967 486.794 L 450.023 487.046 L 450.023 487.046 z M 451.723 487.631 L 453.498 487.631 L 453.503 487.424 L 453.422 486.844 L 453.2 486.411 L 452.847 486.148 L 452.378 486.053 L 451.919 486.153 L 451.566 486.436 L 451.339 486.895 L 451.259 487.5 L 451.334 488.12 L 451.561 488.574 L 451.909 488.857 L 452.363 488.952 L 452.756 488.887 L 453.079 488.715 L 453.316 488.443 L 453.452 488.08 L 453.014 488.08 L 452.923 488.282 L 452.792 488.433 L 452.418 488.554 L 452.131 488.499 L 451.914 488.322 L 451.773 488.035 L 451.723 487.646 L 451.723 487.631 L 451.723 487.631 z M 451.723 487.258 L 451.778 486.91 L 451.914 486.653 L 452.121 486.496 L 452.393 486.441 L 452.661 486.496 L 452.867 486.653 L 452.993 486.91 L 453.039 487.258 L 451.723 487.258 L 451.723 487.258 z" stroke="none" fill-rule="evenodd" fill="rgb(0, 0, 0)"/></g><g stroke="rgb(0, 0, 0)" stroke-width="0.13" stroke-linecap="butt" stroke-linejoin="miter" fill="none"><path d="M 420.959 494.903 L 423.178 494.903 L 423.178 494.48 L 421.423 494.48 L 421.423 493.295 L 422.986 493.295 L 422.986 492.876 L 421.423 492.876 L 421.423 491.827 L 423.138 491.827 L 423.138 491.403 L 420.959 491.403 L 420.959 494.903 L 420.959 494.903 z M 425.735 493.093 L 426.174 493.093 L 426.083 492.689 L 425.866 492.372 L 425.528 492.175 L 425.089 492.099 L 424.605 492.2 L 424.237 492.483 L 424.005 492.942 L 423.924 493.557 L 424 494.167 L 424.227 494.621 L 424.585 494.903 L 425.074 494.999 L 425.508 494.924 L 425.846 494.712 L 426.078 494.379 L 426.179 493.935 L 425.755 493.935 L 425.679 494.218 L 425.538 494.429 L 425.336 494.561 L 425.089 494.601 L 424.782 494.535 L 424.56 494.334 L 424.424 494.006 L 424.378 493.542 L 424.424 493.088 L 424.565 492.76 L 424.792 492.558 L 425.089 492.488 L 425.352 492.533 L 425.548 492.649 L 425.679 492.841 L 425.735 493.093 L 425.735 493.093 z M 427.046 494.903 L 427.49 494.903 L 427.49 493.34 L 427.535 492.982 L 427.682 492.72 L 427.908 492.558 L 428.211 492.498 L 428.453 492.548 L 428.604 492.684 L 428.68 492.911 L 428.705 493.214 L 428.705 494.903 L 429.149 494.903 L 429.149 493.123 L 429.129 492.765 L 429.038 492.468 L 428.741 492.195 L 428.277 492.099 L 428.024 492.135 L 427.808 492.231 L 427.626 492.382 L 427.49 492.589 L 427.49 491.282 L 427.046 491.282 L 427.046 494.903 L 427.046 494.903 z M 430.47 493.678 L 432.246 493.678 L 432.251 493.471 L 432.17 492.891 L 431.948 492.458 L 431.595 492.195 L 431.126 492.099 L 430.667 492.2 L 430.314 492.483 L 430.087 492.942 L 430.006 493.547 L 430.082 494.167 L 430.309 494.621 L 430.657 494.903 L 431.111 494.999 L 431.504 494.934 L 431.827 494.762 L 432.064 494.49 L 432.2 494.127 L 431.761 494.127 L 431.671 494.329 L 431.54 494.48 L 431.166 494.601 L 430.879 494.545 L 430.662 494.369 L 430.521 494.081 L 430.47 493.693 L 430.47 493.678 L 430.47 493.678 z M 430.47 493.305 L 430.526 492.957 L 430.662 492.7 L 430.869 492.543 L 431.141 492.488 L 431.408 492.543 L 431.615 492.7 L 431.741 492.957 L 431.787 493.305 L 430.47 493.305 L 430.47 493.305 z M 434.001 491.656 L 434.001 494.53 L 433.088 494.53 L 433.088 494.903 L 435.352 494.903 L 435.352 494.53 L 434.444 494.53 L 434.444 491.282 L 433.305 491.282 L 433.305 491.656 L 434.001 491.656 L 434.001 491.656 z M 437.037 491.656 L 437.037 494.53 L 436.124 494.53 L 436.124 494.903 L 438.388 494.903 L 438.388 494.53 L 437.48 494.53 L 437.48 491.282 L 436.341 491.282 L 436.341 491.656 L 437.037 491.656 L 437.037 491.656 z M 439.578 493.678 L 441.354 493.678 L 441.359 493.471 L 441.278 492.891 L 441.056 492.458 L 440.703 492.195 L 440.234 492.099 L 439.775 492.2 L 439.422 492.483 L 439.195 492.942 L 439.114 493.547 L 439.19 494.167 L 439.417 494.621 L 439.765 494.903 L 440.219 494.999 L 440.612 494.934 L 440.935 494.762 L 441.172 494.49 L 441.308 494.127 L 440.87 494.127 L 440.779 494.329 L 440.648 494.48 L 440.274 494.601 L 439.987 494.545 L 439.77 494.369 L 439.629 494.081 L 439.578 493.693 L 439.578 493.678 L 439.578 493.678 z M 439.578 493.305 L 439.634 492.957 L 439.77 492.7 L 439.977 492.543 L 440.249 492.488 L 440.516 492.543 L 440.723 492.7 L 440.849 492.957 L 440.895 493.305 L 439.578 493.305 L 439.578 493.305 z M 445.958 494.903 L 446.654 494.903 L 446.654 494.152 L 445.958 494.152 L 445.958 494.903 L 445.958 494.903 z M 445.958 492.947 L 446.654 492.947 L 446.654 492.195 L 445.958 492.195 L 445.958 492.947 L 445.958 492.947 z" stroke="none" fill-rule="evenodd" fill="rgb(0, 0, 0)"/></g><g stroke="rgb(0, 0, 0)" stroke-width="0.13" stroke-linecap="butt" stroke-linejoin="miter" fill="none"><path d="M 455.323 494.903 L 455.782 494.903 L 455.782 491.378 L 455.439 491.378 L 455.349 491.686 L 455.167 491.893 L 454.89 492.014 L 454.506 492.054 L 454.506 492.412 L 455.323 492.412 L 455.323 494.903 L 455.323 494.903 z M 458.102 494.903 L 458.798 494.903 L 458.798 494.152 L 458.102 494.152 L 458.102 494.903 L 458.102 494.903 z M 458.102 492.947 L 458.798 492.947 L 458.798 492.195 L 458.102 492.195 L 458.102 492.947 L 458.102 492.947 z M 461.395 494.903 L 461.854 494.903 L 461.854 491.378 L 461.511 491.378 L 461.421 491.686 L 461.239 491.893 L 460.962 492.014 L 460.578 492.054 L 460.578 492.412 L 461.395 492.412 L 461.395 494.903 L 461.395 494.903 z" stroke="none" fill-rule="evenodd" fill="rgb(0, 0, 0)"/></g><g stroke="rgb(0, 0, 0)" stroke-width="0.13" stroke-linecap="butt" stroke-linejoin="miter" fill="none"><path d="M 273.294 82.0402 L 273.294 82.0755 L 273.375 82.5597 L 273.612 82.9228 L 273.985 83.1548 L 274.479 83.2405 L 275.004 83.1548 L 275.397 82.9329 L 275.649 82.5799 L 275.74 82.1259 L 275.7 81.8284 L 275.589 81.5864 L 275.407 81.3997 L 275.165 81.2635 L 275.493 80.9912 L 275.609 80.5575 L 275.533 80.1641 L 275.316 79.8666 L 274.963 79.68 L 274.479 79.6144 L 274.025 79.6951 L 273.677 79.9171 L 273.45 80.2701 L 273.375 80.7391 L 273.375 80.7744 L 273.823 80.7744 L 273.864 80.4516 L 273.995 80.2196 L 274.207 80.0784 L 274.504 80.028 L 274.767 80.0683 L 274.958 80.1743 L 275.074 80.3457 L 275.12 80.5777 L 275.074 80.8248 L 274.953 80.9912 L 274.741 81.0921 L 274.454 81.1224 L 274.257 81.1173 L 274.257 81.5157 L 274.504 81.5056 L 274.822 81.551 L 275.059 81.6721 L 275.2 81.8688 L 275.251 82.1259 L 275.195 82.4185 L 275.049 82.6353 L 274.817 82.7715 L 274.509 82.8169 L 274.192 82.7664 L 273.96 82.6151 L 273.813 82.3731 L 273.758 82.0402 L 273.294 82.0402 L 273.294 82.0402 z M 277.07 83.1396 L 279.476 83.1396 L 279.476 82.7059 L 277.575 82.7059 L 277.681 82.4689 L 277.862 82.2722 L 278.422 81.9141 L 278.719 81.7629 L 279.052 81.546 L 279.289 81.2938 L 279.425 80.9963 L 279.476 80.6584 L 279.39 80.2347 L 279.153 79.9019 L 278.79 79.6901 L 278.321 79.6144 L 277.837 79.7002 L 277.469 79.9372 L 277.232 80.3154 L 277.151 80.8147 L 277.151 80.8853 L 277.61 80.8853 L 277.61 80.845 L 277.655 80.502 L 277.791 80.2499 L 278.008 80.0885 L 278.296 80.033 L 278.588 80.0834 L 278.805 80.2095 L 278.946 80.4063 L 278.997 80.6533 L 278.961 80.8853 L 278.866 81.082 L 278.704 81.2535 L 278.482 81.4048 L 278.185 81.5662 L 277.691 81.8788 L 277.343 82.2117 L 277.136 82.6151 L 277.07 83.1245 L 277.07 83.1396 L 277.07 83.1396 z M 282.314 83.1396 L 282.768 83.1396 L 282.768 82.2722 L 283.267 82.2722 L 283.267 81.8688 L 282.768 81.8688 L 282.768 79.7153 L 282.309 79.7153 L 280.776 81.8284 L 280.776 82.2722 L 282.314 82.2722 L 282.314 83.1396 L 282.314 83.1396 z M 281.2 81.8688 L 282.314 80.3003 L 282.314 81.8688 L 281.2 81.8688 L 281.2 81.8688 z M 285.425 83.1396 L 286.121 83.1396 L 286.121 82.3882 L 285.425 82.3882 L 285.425 83.1396 L 285.425 83.1396 z M 288.278 83.1396 L 290.684 83.1396 L 290.684 82.7059 L 288.783 82.7059 L 288.889 82.4689 L 289.07 82.2722 L 289.63 81.9141 L 289.927 81.7629 L 290.26 81.546 L 290.497 81.2938 L 290.634 80.9963 L 290.684 80.6584 L 290.598 80.2347 L 290.361 79.9019 L 289.998 79.6901 L 289.529 79.6144 L 289.045 79.7002 L 288.677 79.9372 L 288.44 80.3154 L 288.359 80.8147 L 288.359 80.8853 L 288.818 80.8853 L 288.818 80.845 L 288.863 80.502 L 289 80.2499 L 289.216 80.0885 L 289.504 80.033 L 289.796 80.0834 L 290.013 80.2095 L 290.154 80.4063 L 290.205 80.6533 L 290.17 80.8853 L 290.074 81.082 L 289.912 81.2535 L 289.69 81.4048 L 289.393 81.5662 L 288.899 81.8788 L 288.551 82.2117 L 288.344 82.6151 L 288.278 83.1245 L 288.278 83.1396 L 288.278 83.1396 z M 293.522 83.1396 L 293.976 83.1396 L 293.976 82.2722 L 294.475 82.2722 L 294.475 81.8688 L 293.976 81.8688 L 293.976 79.7153 L 293.517 79.7153 L 291.984 81.8284 L 291.984 82.2722 L 293.522 82.2722 L 293.522 83.1396 L 293.522 83.1396 z M 292.408 81.8688 L 293.522 80.3003 L 293.522 81.8688 L 292.408 81.8688 L 292.408 81.8688 z" stroke="none" fill-rule="evenodd" fill="rgb(0, 0, 0)"/><path d="M 444.092 85.6573 L 446.024 85.1396 L 444.092 84.622"/><path d="M 123.718 84.622 L 121.786 85.1396 L 123.718 85.6573"/><path d="M 121.786 85.1396 L 446.024 85.1396"/></g></svg>