<?xml version="1.0" encoding="utf-8" ?><!DOCTYPE svg PUBLIC "-//W3C//DTD SVG 1.1//EN" "http://www.w3.org/Graphics/SVG/1.1/DTD/svg11.dtd" 
[ <!ATTLIST svg 
  xmlns:dsy CDATA #FIXED "http://www.3ds.com/print"  
    dsy:text-version CDATA #IMPLIED > 

  <!ATTLIST text 
  xmlns:dsy CDATA #FIXED "http://www.3ds.com/print" 
    dsy:text-version CDATA #IMPLIED > 
]><svg xmlns="http://www.w3.org/2000/svg" xmlns:dsy="http://www.3ds.com/print" dsy:text-version="18000" width="841" height="594" viewBox="0 0 841 594" version="1.1"><g stroke="rgb(0, 0, 0)" stroke-width="0.13" stroke-linecap="butt" stroke-linejoin="miter" fill="none"><path d="M 130.833 479 L 130.833 544.366"/><path d="M 446.024 479 L 446.024 544.366"/></g><g stroke="rgb(0, 0, 0)" stroke-width="0.35" stroke-linecap="butt" stroke-linejoin="miter" fill="none"><circle cx="755.5" cy="411.964" r="2.14999"/><circle cx="89.5" cy="442.794" r="2.14999"/><circle cx="755.5" cy="180.436" r="2.14999"/><circle cx="89.5" cy="149.607" r="2.14999"/><path d="M 446.024 477 L 130.833 477"/><path d="M 67.5 458.429 L 127.5 467"/><path d="M 127.5 467 L 130.833 477"/><path d="M 67.5 163.694 L 67.5 141.286"/><path d="M 67.5 458.429 L 67.5 436.512"/><path d="M 446.024 117 L 121.786 117"/><path d="M 121.786 125.776 L 121.786 121.002"/><path d="M 67.5 141.286 L 121.786 125.776"/><path d="M 121.786 121.002 L 121.786 117"/><path d="M 121.786 421.002 L 121.786 171.002"/><path d="M 67.5 436.512 L 121.786 421.002"/><path d="M 121.786 171.002 L 67.5 163.694"/><path d="M 717.5 452.13 L 446.024 477"/><path d="M 717.5 437 L 717.5 452.13"/><path d="M 773.5 423 L 717.5 437"/><path d="M 773.5 423 L 773.5 401"/><path d="M 717.5 387 L 717.5 199.941"/><path d="M 773.5 401 L 717.5 387"/><path d="M 717.5 199.941 L 773.5 190.882"/><path d="M 773.5 190.882 L 773.5 168.2"/><path d="M 717.5 141.87 L 446.024 117"/><path d="M 717.5 157 L 717.5 141.87"/><path d="M 773.5 168.2 L 717.5 157"/></g><g stroke="rgb(0, 0, 0)" stroke-width="0.13" stroke-linecap="butt" stroke-linejoin="miter" fill="none"><path d="M 277.818 539.267 L 277.818 539.302 L 277.898 539.786 L 278.135 540.15 L 278.509 540.382 L 279.003 540.467 L 279.527 540.382 L 279.921 540.16 L 280.173 539.807 L 280.264 539.353 L 280.223 539.055 L 280.112 538.813 L 279.931 538.626 L 279.689 538.49 L 280.017 538.218 L 280.133 537.784 L 280.057 537.391 L 279.84 537.093 L 279.487 536.907 L 279.003 536.841 L 278.549 536.922 L 278.201 537.144 L 277.974 537.497 L 277.898 537.966 L 277.898 538.001 L 278.347 538.001 L 278.388 537.678 L 278.519 537.446 L 278.731 537.305 L 279.028 537.255 L 279.29 537.295 L 279.482 537.401 L 279.598 537.572 L 279.643 537.804 L 279.598 538.052 L 279.477 538.218 L 279.265 538.319 L 278.978 538.349 L 278.781 538.344 L 278.781 538.742 L 279.028 538.732 L 279.346 538.778 L 279.583 538.899 L 279.724 539.096 L 279.774 539.353 L 279.719 539.645 L 279.573 539.862 L 279.341 539.998 L 279.033 540.044 L 278.715 539.993 L 278.483 539.842 L 278.337 539.6 L 278.282 539.267 L 277.818 539.267 L 277.818 539.267 z M 282.734 540.366 L 283.193 540.366 L 283.193 536.841 L 282.85 536.841 L 282.759 537.149 L 282.578 537.356 L 282.3 537.477 L 281.917 537.517 L 281.917 537.875 L 282.734 537.875 L 282.734 540.366 L 282.734 540.366 z M 285.31 539.454 L 285.421 539.867 L 285.668 540.19 L 286.031 540.392 L 286.495 540.467 L 287.004 540.376 L 287.403 540.129 L 287.655 539.736 L 287.751 539.232 L 287.665 538.763 L 287.423 538.395 L 287.045 538.157 L 286.556 538.072 L 286.177 538.132 L 285.885 538.299 L 286.026 537.356 L 287.559 537.356 L 287.559 536.942 L 285.688 536.942 L 285.411 538.798 L 285.814 538.798 L 286.107 538.561 L 286.48 538.475 L 286.803 538.531 L 287.05 538.692 L 287.206 538.939 L 287.262 539.257 L 287.206 539.575 L 287.045 539.822 L 286.798 539.978 L 286.48 540.034 L 286.213 539.998 L 286.006 539.882 L 285.855 539.701 L 285.779 539.454 L 285.31 539.454 L 285.31 539.454 z M 289.949 540.366 L 290.645 540.366 L 290.645 539.615 L 289.949 539.615 L 289.949 540.366 L 289.949 540.366 z M 293.942 540.366 L 294.401 540.366 L 294.401 536.841 L 294.058 536.841 L 293.967 537.149 L 293.786 537.356 L 293.508 537.477 L 293.125 537.517 L 293.125 537.875 L 293.942 537.875 L 293.942 540.366 L 293.942 540.366 z M 296.558 539.499 L 296.634 539.897 L 296.851 540.205 L 297.194 540.397 L 297.648 540.467 L 297.945 540.432 L 298.213 540.341 L 298.439 540.185 L 298.631 539.963 L 298.782 539.686 L 298.893 539.343 L 298.959 538.949 L 298.984 538.495 L 298.898 537.784 L 298.651 537.265 L 298.258 536.952 L 297.718 536.841 L 297.224 536.932 L 296.851 537.174 L 296.609 537.547 L 296.528 538.016 L 296.609 538.5 L 296.846 538.869 L 297.199 539.101 L 297.648 539.176 L 298.122 539.08 L 298.48 538.788 L 298.399 539.348 L 298.238 539.746 L 297.991 539.983 L 297.653 540.059 L 297.39 540.023 L 297.199 539.913 L 297.073 539.736 L 297.022 539.499 L 296.558 539.499 L 296.558 539.499 z M 297.017 538.011 L 297.068 537.699 L 297.209 537.451 L 297.431 537.295 L 297.718 537.24 L 298.016 537.295 L 298.243 537.451 L 298.384 537.693 L 298.439 538.006 L 298.384 538.324 L 298.243 538.561 L 298.011 538.707 L 297.703 538.758 L 297.426 538.707 L 297.209 538.561 L 297.068 538.329 L 297.017 538.011 L 297.017 538.011 z" stroke="none" fill-rule="evenodd" fill="rgb(0, 0, 0)"/><path d="M 132.765 541.849 L 130.833 542.366 L 132.765 542.884"/><path d="M 444.092 542.884 L 446.024 542.366 L 444.092 541.849"/><path d="M 130.833 542.366 L 446.024 542.366"/></g></svg>