<?xml version="1.0" encoding="utf-8" ?><!DOCTYPE svg PUBLIC "-//W3C//DTD SVG 1.1//EN" "http://www.w3.org/Graphics/SVG/1.1/DTD/svg11.dtd" 
[ <!ATTLIST svg 
  xmlns:dsy CDATA #FIXED "http://www.3ds.com/print"  
    dsy:text-version CDATA #IMPLIED > 

  <!ATTLIST text 
  xmlns:dsy CDATA #FIXED "http://www.3ds.com/print" 
    dsy:text-version CDATA #IMPLIED > 
]><svg xmlns="http://www.w3.org/2000/svg" xmlns:dsy="http://www.3ds.com/print" dsy:text-version="18000" width="841" height="594" viewBox="0 0 841 594" version="1.1"><g stroke="rgb(0, 0, 0)" stroke-width="0.13" stroke-linecap="butt" stroke-linejoin="miter" fill="none"><path d="M 111.081 135.367 L 106.133 106.475"/><path d="M 577.145 55.5562 L 572.197 26.6641"/></g><g stroke="rgb(0, 0, 0)" stroke-width="0.35" stroke-linecap="butt" stroke-linejoin="miter" fill="none"><circle cx="521.91" cy="457.866" r="12.5"/><circle cx="521.91" cy="107.55" r="12.5"/><circle cx="72.3625" cy="411.284" r="2.14999"/><circle cx="683.78" cy="51.7704" r="2.14999"/><circle cx="72.3624" cy="179.757" r="2.14999"/><circle cx="683.78" cy="542.043" r="2.14999"/><path d="M 693.075 556.081 L 701.418 522.708"/><path d="M 785.5 494.681 L 701.418 522.708"/><path d="M 785.5 95.9328 L 785.5 494.681"/><path d="M 785.5 95.9328 L 695.355 68.8893"/><path d="M 691.985 37.9194 L 695.355 68.8893"/><path d="M 669.61 41.7512 L 691.985 37.9194"/><path d="M 669.61 41.7512 L 661.418 82.7083"/><path d="M 577.482 57.5275 L 661.418 82.7083"/><path d="M 669.449 552.035 L 693.075 556.081"/><path d="M 562.968 533.804 L 669.449 516.544"/><path d="M 669.449 552.035 L 669.449 516.544"/><path d="M 107.565 455.829 L 562.968 533.804"/><path d="M 55.5 423.389 L 111.418 432.708"/><path d="M 107.565 455.829 L 111.418 432.708"/><path d="M 55.5 402.028 L 55.5 423.389"/><path d="M 55.5 193.389 L 111.418 202.708"/><path d="M 111.418 392.708 L 111.418 202.708"/><path d="M 55.5 402.028 L 111.418 392.708"/><path d="M 111.418 137.339 L 577.482 57.5275"/><path d="M 55.5 168.685 L 55.5 193.389"/><path d="M 55.5 168.685 L 111.418 152.708"/><path d="M 111.418 137.339 L 111.418 152.708"/></g><g stroke="rgb(0, 0, 0)" stroke-width="0.13" stroke-linecap="butt" stroke-linejoin="miter" fill="none"><path d="M 330.233 68.0994 L 330.68 68.0228 L 330.534 67.1678 L 331.026 67.0835 L 330.958 66.6858 L 330.465 66.7701 L 330.102 64.6475 L 329.65 64.725 L 328.495 67.0666 L 328.57 67.504 L 330.086 67.2444 L 330.233 68.0994 L 330.233 68.0994 z M 328.919 67.0349 L 329.753 65.3008 L 330.018 66.8467 L 328.919 67.0349 L 328.919 67.0349 z M 332.951 67.6339 L 333.453 67.5479 L 333.476 66.6996 L 333.634 65.8848 L 333.919 65.1041 L 334.337 64.3469 L 334.267 63.9343 L 331.9 64.3395 L 331.978 64.7919 L 333.867 64.4684 L 333.435 65.2331 L 333.142 66.0046 L 332.982 66.7997 L 332.951 67.6339 L 332.951 67.6339 z M 336.111 67.0927 L 338.482 66.6866 L 338.409 66.2591 L 336.535 66.58 L 336.599 66.3286 L 336.745 66.104 L 337.236 65.6566 L 337.504 65.4573 L 337.796 65.1873 L 337.987 64.8987 L 338.071 64.5825 L 338.063 64.241 L 337.907 63.8378 L 337.618 63.5498 L 337.224 63.4023 L 336.749 63.4069 L 336.286 63.5731 L 335.963 63.8689 L 335.794 64.2817 L 335.798 64.7875 L 335.81 64.8571 L 336.263 64.7796 L 336.256 64.7398 L 336.243 64.3942 L 336.334 64.1226 L 336.521 63.9269 L 336.795 63.8237 L 337.092 63.8241 L 337.327 63.9117 L 337.499 64.0818 L 337.59 64.3168 L 337.595 64.5515 L 337.533 64.7615 L 337.403 64.9578 L 337.21 65.1443 L 336.944 65.3536 L 336.51 65.7452 L 336.223 66.132 L 336.087 66.5646 L 336.109 67.0778 L 336.111 67.0927 L 336.111 67.0927 z M 340.663 66.313 L 341.349 66.1956 L 341.223 65.455 L 340.537 65.5724 L 340.663 66.313 L 340.663 66.313 z M 343.754 63.8702 L 343.524 64.0527 L 343.384 64.2764 L 343.316 64.5387 L 343.331 64.838 L 343.487 65.2667 L 343.774 65.5706 L 344.184 65.7255 L 344.706 65.7231 L 345.194 65.5527 L 345.529 65.2701 L 345.699 64.8879 L 345.708 64.4311 L 345.618 64.1446 L 345.471 63.9189 L 345.259 63.7557 L 344.987 63.6591 L 345.165 63.5057 L 345.276 63.3178 L 345.327 63.1046 L 345.315 62.8558 L 345.175 62.5165 L 344.918 62.2689 L 344.548 62.1429 L 344.094 62.149 L 343.658 62.2953 L 343.352 62.5371 L 343.187 62.8571 L 343.173 63.2227 L 343.239 63.462 L 343.358 63.6464 L 343.754 63.8702 L 343.754 63.8702 z M 343.807 64.7463 L 343.807 64.4752 L 343.917 64.2516 L 344.118 64.0841 L 344.409 63.9883 L 344.71 63.9828 L 344.956 64.0737 L 345.134 64.2479 L 345.229 64.5029 L 345.227 64.7947 L 345.12 65.0331 L 344.92 65.2106 L 344.634 65.3056 L 344.328 65.312 L 344.081 65.2111 L 343.9 65.022 L 343.807 64.7463 L 343.807 64.7463 z M 343.652 63.1816 L 343.654 62.9561 L 343.744 62.7667 L 343.915 62.6299 L 344.162 62.5468 L 344.417 62.5439 L 344.624 62.616 L 344.772 62.7646 L 344.855 62.9756 L 344.848 63.207 L 344.759 63.4014 L 344.589 63.5481 L 344.347 63.6254 L 344.086 63.6291 L 343.879 63.5521 L 343.73 63.3985 L 343.652 63.1816 L 343.652 63.1816 z M 346.984 64.3045 L 347.164 64.6934 L 347.462 64.9698 L 347.854 65.1074 L 348.324 65.1036 L 348.81 64.9282 L 349.161 64.6173 L 349.344 64.187 L 349.353 63.6738 L 349.189 63.226 L 348.889 62.9039 L 348.476 62.7341 L 347.979 62.7322 L 347.616 62.8557 L 347.356 63.0691 L 347.336 62.1157 L 348.847 61.8569 L 348.778 61.4493 L 346.933 61.7651 L 346.973 63.6412 L 347.371 63.5731 L 347.619 63.2902 L 347.973 63.1426 L 348.3 63.1428 L 348.571 63.2602 L 348.767 63.4774 L 348.875 63.7812 L 348.874 64.1037 L 348.757 64.3745 L 348.539 64.5703 L 348.236 64.6786 L 347.966 64.689 L 347.743 64.6096 L 347.563 64.4561 L 347.447 64.2253 L 346.984 64.3045 L 346.984 64.3045 z" stroke="none" fill-rule="evenodd" fill="rgb(0, 0, 0)"/><path d="M 108.288 107.61 L 106.471 108.447 L 108.462 108.631"/><path d="M 570.718 29.4717 L 572.535 28.6354 L 570.543 28.4512"/><path d="M 106.471 108.447 L 572.535 28.6354"/></g></svg>