<?xml version="1.0" encoding="utf-8" ?><!DOCTYPE svg PUBLIC "-//W3C//DTD SVG 1.1//EN" "http://www.w3.org/Graphics/SVG/1.1/DTD/svg11.dtd" 
[ <!ATTLIST svg 
  xmlns:dsy CDATA #FIXED "http://www.3ds.com/print"  
    dsy:text-version CDATA #IMPLIED > 

  <!ATTLIST text 
  xmlns:dsy CDATA #FIXED "http://www.3ds.com/print" 
    dsy:text-version CDATA #IMPLIED > 
]><svg xmlns="http://www.w3.org/2000/svg" xmlns:dsy="http://www.3ds.com/print" dsy:text-version="18000" width="841" height="594" viewBox="0 0 841 594" version="1.1"><g stroke="rgb(0, 0, 0)" stroke-width="0.13" stroke-linecap="butt" stroke-linejoin="miter" fill="none"><path d="M 107.922 378.382 L 107.922 430.932"/><path d="M 733.078 378.382 L 733.078 430.932"/></g><g stroke="rgb(0, 0, 0)" stroke-width="0.35" stroke-linecap="butt" stroke-linejoin="miter" fill="none"><path d="M 144.868 217.618 L 141.005 234.221"/><path d="M 141.005 234.221 L 150.744 236.487"/><path d="M 150.744 236.487 L 149.372 242.328"/><path d="M 149.372 242.328 L 139.645 240.065"/><path d="M 139.645 240.065 L 113.841 350.949"/><path d="M 113.841 350.949 L 123.581 353.216"/><path d="M 123.581 353.216 L 122.221 359.06"/><path d="M 122.221 359.06 L 112.481 356.793"/><path d="M 112.481 356.793 L 107.922 376.382"/><path d="M 107.922 376.382 L 733.078 376.382"/><path d="M 726.916 357.101 L 733.078 376.382"/><path d="M 724.998 351.101 L 726.916 357.101"/><path d="M 709.916 303.908 L 724.998 351.101"/><path d="M 722.792 294.925 L 709.916 303.908"/><path d="M 712.847 264.348 L 722.792 294.925"/><path d="M 697.273 264.348 L 712.847 264.348"/><path d="M 691.366 245.865 L 697.273 264.348"/><path d="M 689.449 239.865 L 691.366 245.865"/><path d="M 682.339 217.618 L 689.449 239.865"/><path d="M 144.868 217.618 L 682.339 217.618"/><circle cx="701.509" cy="276.925" r="1.7"/><circle cx="141.849" cy="280.325" r="1.7"/></g><g stroke="rgb(0, 0, 0)" stroke-width="0.13" stroke-linecap="butt" stroke-linejoin="miter" fill="none"><path d="M 412.37 424.375 L 412.274 423.966 L 412.053 423.664 L 411.71 423.472 L 411.266 423.406 L 410.968 423.442 L 410.711 423.538 L 410.484 423.694 L 410.292 423.916 L 410.141 424.193 L 410.03 424.531 L 409.96 424.93 L 409.939 425.378 L 410.02 426.095 L 410.267 426.614 L 410.666 426.927 L 411.21 427.033 L 411.7 426.942 L 412.073 426.705 L 412.315 426.332 L 412.401 425.857 L 412.315 425.378 L 412.083 425.01 L 411.725 424.778 L 411.281 424.698 L 410.802 424.798 L 410.444 425.086 L 410.519 424.531 L 410.681 424.133 L 410.928 423.896 L 411.271 423.815 L 411.523 423.855 L 411.715 423.961 L 411.841 424.138 L 411.906 424.375 L 412.37 424.375 L 412.37 424.375 z M 411.911 425.863 L 411.856 426.18 L 411.715 426.422 L 411.488 426.584 L 411.205 426.634 L 410.908 426.584 L 410.681 426.427 L 410.535 426.185 L 410.489 425.868 L 410.54 425.555 L 410.681 425.318 L 410.913 425.167 L 411.225 425.111 L 411.498 425.167 L 411.715 425.313 L 411.856 425.55 L 411.911 425.863 L 411.911 425.863 z M 413.665 426.932 L 416.071 426.932 L 416.071 426.498 L 414.17 426.498 L 414.276 426.261 L 414.457 426.064 L 415.017 425.706 L 415.315 425.555 L 415.647 425.338 L 415.884 425.086 L 416.021 424.788 L 416.071 424.45 L 415.985 424.027 L 415.748 423.694 L 415.385 423.482 L 414.916 423.406 L 414.432 423.492 L 414.064 423.729 L 413.827 424.107 L 413.746 424.607 L 413.746 424.677 L 414.205 424.677 L 414.205 424.637 L 414.25 424.294 L 414.387 424.042 L 414.603 423.881 L 414.891 423.825 L 415.183 423.876 L 415.4 424.002 L 415.541 424.198 L 415.592 424.445 L 415.557 424.677 L 415.461 424.874 L 415.299 425.046 L 415.077 425.197 L 414.78 425.358 L 414.286 425.671 L 413.938 426.004 L 413.731 426.407 L 413.665 426.917 L 413.665 426.932 L 413.665 426.932 z M 417.381 426.019 L 417.492 426.432 L 417.739 426.755 L 418.102 426.957 L 418.566 427.033 L 419.076 426.942 L 419.474 426.695 L 419.726 426.301 L 419.822 425.797 L 419.736 425.328 L 419.494 424.96 L 419.116 424.723 L 418.627 424.637 L 418.249 424.698 L 417.956 424.864 L 418.097 423.921 L 419.631 423.921 L 419.631 423.507 L 417.759 423.507 L 417.482 425.363 L 417.886 425.363 L 418.178 425.126 L 418.551 425.04 L 418.874 425.096 L 419.121 425.257 L 419.277 425.504 L 419.333 425.822 L 419.277 426.14 L 419.116 426.387 L 418.869 426.543 L 418.551 426.599 L 418.284 426.564 L 418.077 426.448 L 417.926 426.266 L 417.85 426.019 L 417.381 426.019 L 417.381 426.019 z M 422.02 426.932 L 422.716 426.932 L 422.716 426.18 L 422.02 426.18 L 422.02 426.932 L 422.02 426.932 z M 426.013 426.932 L 426.472 426.932 L 426.472 423.406 L 426.129 423.406 L 426.038 423.714 L 425.857 423.921 L 425.58 424.042 L 425.196 424.082 L 425.196 424.44 L 426.013 424.44 L 426.013 426.932 L 426.013 426.932 z M 431.05 424.375 L 430.955 423.966 L 430.733 423.664 L 430.39 423.472 L 429.946 423.406 L 429.648 423.442 L 429.391 423.538 L 429.164 423.694 L 428.973 423.916 L 428.821 424.193 L 428.71 424.531 L 428.64 424.93 L 428.62 425.378 L 428.7 426.095 L 428.947 426.614 L 429.346 426.927 L 429.89 427.033 L 430.38 426.942 L 430.753 426.705 L 430.995 426.332 L 431.081 425.857 L 430.995 425.378 L 430.763 425.01 L 430.405 424.778 L 429.961 424.698 L 429.482 424.798 L 429.124 425.086 L 429.2 424.531 L 429.361 424.133 L 429.608 423.896 L 429.951 423.815 L 430.203 423.855 L 430.395 423.961 L 430.521 424.138 L 430.586 424.375 L 431.05 424.375 L 431.05 424.375 z M 430.591 425.863 L 430.536 426.18 L 430.395 426.422 L 430.168 426.584 L 429.885 426.634 L 429.588 426.584 L 429.361 426.427 L 429.215 426.185 L 429.169 425.868 L 429.22 425.555 L 429.361 425.318 L 429.593 425.167 L 429.906 425.111 L 430.178 425.167 L 430.395 425.313 L 430.536 425.55 L 430.591 425.863 L 430.591 425.863 z" stroke="none" fill-rule="evenodd" fill="rgb(0, 0, 0)"/><path d="M 109.854 428.414 L 107.922 428.932 L 109.854 429.449"/><path d="M 731.146 429.449 L 733.078 428.932 L 731.146 428.414"/><path d="M 107.922 428.932 L 733.078 428.932"/></g></svg>