<?xml version="1.0" encoding="utf-8" ?><!DOCTYPE svg PUBLIC "-//W3C//DTD SVG 1.1//EN" "http://www.w3.org/Graphics/SVG/1.1/DTD/svg11.dtd" 
[ <!ATTLIST svg 
  xmlns:dsy CDATA #FIXED "http://www.3ds.com/print"  
    dsy:text-version CDATA #IMPLIED > 

  <!ATTLIST text 
  xmlns:dsy CDATA #FIXED "http://www.3ds.com/print" 
    dsy:text-version CDATA #IMPLIED > 
]><svg xmlns="http://www.w3.org/2000/svg" xmlns:dsy="http://www.3ds.com/print" dsy:text-version="18000" width="841" height="594" viewBox="0 0 841 594" version="1.1"><g stroke="rgb(0, 0, 0)" stroke-width="0.13" stroke-linecap="butt" stroke-linejoin="miter" fill="none"><path d="M 393.5 324.5 L 386.269 324.5"/><path d="M 393.5 269.5 L 386.269 269.5"/></g><g stroke="rgb(0, 0, 0)" stroke-width="0.35" stroke-linecap="butt" stroke-linejoin="miter" fill="none"><path d="M 445.5 304.5 L 445.5 324.5"/><path d="M 425.5 304.5 L 445.5 304.5"/><path d="M 410.5 289.5 A 15 15 0 0 0 425.5 304.5"/><path d="M 410.5 269.5 L 410.5 289.5"/><path d="M 395.5 269.5 L 410.5 269.5"/><path d="M 395.5 324.5 L 395.5 269.5"/><path d="M 405.5 324.5 L 395.5 324.5"/><path d="M 422.5 324.5 L 405.5 324.5"/><path d="M 422.5 314.5 L 422.5 324.5"/><path d="M 428.5 314.5 L 422.5 314.5"/><path d="M 428.5 324.5 L 428.5 314.5"/><path d="M 445.5 324.5 L 428.5 324.5"/></g><g stroke="rgb(0, 0, 0)" stroke-width="0.13" stroke-linecap="butt" stroke-linejoin="miter" fill="none"><path d="M 385.356 300.119 L 385.77 300.008 L 386.092 299.761 L 386.294 299.398 L 386.37 298.934 L 386.279 298.424 L 386.032 298.026 L 385.638 297.774 L 385.134 297.678 L 384.665 297.764 L 384.297 298.006 L 384.06 298.384 L 383.974 298.873 L 384.035 299.251 L 384.201 299.544 L 383.258 299.403 L 383.258 297.869 L 382.844 297.869 L 382.844 299.74 L 384.7 300.018 L 384.7 299.614 L 384.463 299.322 L 384.378 298.949 L 384.433 298.626 L 384.594 298.379 L 384.842 298.222 L 385.159 298.167 L 385.477 298.222 L 385.724 298.384 L 385.88 298.631 L 385.936 298.949 L 385.901 299.216 L 385.785 299.423 L 385.603 299.574 L 385.356 299.65 L 385.356 300.119 L 385.356 300.119 z M 385.356 296.383 L 385.77 296.272 L 386.092 296.025 L 386.294 295.662 L 386.37 295.198 L 386.279 294.688 L 386.032 294.29 L 385.638 294.038 L 385.134 293.942 L 384.665 294.028 L 384.297 294.27 L 384.06 294.648 L 383.974 295.137 L 384.035 295.515 L 384.201 295.808 L 383.258 295.667 L 383.258 294.133 L 382.844 294.133 L 382.844 296.004 L 384.7 296.282 L 384.7 295.878 L 384.463 295.586 L 384.378 295.213 L 384.433 294.89 L 384.594 294.643 L 384.842 294.486 L 385.159 294.431 L 385.477 294.486 L 385.724 294.648 L 385.88 294.895 L 385.936 295.213 L 385.901 295.48 L 385.785 295.687 L 385.603 295.838 L 385.356 295.914 L 385.356 296.383 L 385.356 296.383 z" stroke="none" fill-rule="evenodd" fill="rgb(0, 0, 0)"/><path d="M 388.786 271.432 L 388.269 269.5 L 387.751 271.432"/><path d="M 387.751 322.568 L 388.269 324.5 L 388.786 322.568"/><path d="M 388.269 324.5 L 388.269 269.5"/></g></svg>