<?xml version="1.0" encoding="utf-8" ?><!DOCTYPE svg PUBLIC "-//W3C//DTD SVG 1.1//EN" "http://www.w3.org/Graphics/SVG/1.1/DTD/svg11.dtd" 
[ <!ATTLIST svg 
  xmlns:dsy CDATA #FIXED "http://www.3ds.com/print"  
    dsy:text-version CDATA #IMPLIED > 

  <!ATTLIST text 
  xmlns:dsy CDATA #FIXED "http://www.3ds.com/print" 
    dsy:text-version CDATA #IMPLIED > 
]><svg xmlns="http://www.w3.org/2000/svg" xmlns:dsy="http://www.3ds.com/print" dsy:text-version="18000" width="841" height="594" viewBox="0 0 841 594" version="1.1"><g stroke="rgb(0, 0, 0)" stroke-width="0.13" stroke-linecap="butt" stroke-linejoin="miter" fill="none"><path d="M 546.75 254.485 L 546.75 225.624"/><path d="M 740.865 254.485 L 740.865 225.624"/></g><g stroke="rgb(0, 0, 0)" stroke-width="0.35" stroke-linecap="butt" stroke-linejoin="miter" fill="none"><path d="M 734.25 337.515 L 740.865 256.485"/><path d="M 546.75 256.485 L 740.865 256.485"/><path d="M 546.75 266.485 L 546.75 256.485"/><path d="M 540.75 266.485 L 546.75 266.485"/><path d="M 540.75 256.485 L 540.75 266.485"/><path d="M 282.75 256.485 L 540.75 256.485"/><path d="M 282.75 266.485 L 282.75 256.485"/><path d="M 276.75 266.485 L 282.75 266.485"/><path d="M 276.75 256.485 L 276.75 266.485"/><path d="M 100.135 256.485 L 276.75 256.485"/><path d="M 100.135 256.485 L 106.75 337.515"/><path d="M 146.455 337.515 L 691.134 337.515"/><path d="M 691.134 327.515 L 691.134 337.515"/><path d="M 691.134 327.515 L 697.134 327.515"/><path d="M 697.134 337.515 L 697.134 327.515"/><path d="M 697.134 337.515 L 734.25 337.515"/><path d="M 106.75 337.515 L 140.455 337.515"/><path d="M 140.455 327.515 L 140.455 337.515"/><path d="M 140.455 327.515 L 146.455 327.515"/><path d="M 146.455 337.515 L 146.455 327.515"/><circle cx="541.134" cy="328.615" r="1.7"/><circle cx="296.455" cy="328.615" r="1.7"/></g><g stroke="rgb(0, 0, 0)" stroke-width="0.13" stroke-linecap="butt" stroke-linejoin="miter" fill="none"><path d="M 634.376 225.624 L 634.835 225.624 L 634.835 222.099 L 634.492 222.099 L 634.402 222.406 L 634.22 222.613 L 633.943 222.734 L 633.559 222.775 L 633.559 223.133 L 634.376 223.133 L 634.376 225.624 L 634.376 225.624 z M 636.993 224.757 L 637.068 225.155 L 637.285 225.463 L 637.628 225.654 L 638.082 225.725 L 638.38 225.69 L 638.647 225.599 L 638.874 225.442 L 639.066 225.22 L 639.217 224.943 L 639.328 224.6 L 639.393 224.207 L 639.419 223.753 L 639.333 223.042 L 639.086 222.522 L 638.692 222.21 L 638.153 222.099 L 637.659 222.19 L 637.285 222.432 L 637.043 222.805 L 636.963 223.274 L 637.043 223.758 L 637.28 224.126 L 637.633 224.358 L 638.082 224.434 L 638.556 224.338 L 638.914 224.045 L 638.834 224.605 L 638.672 225.004 L 638.425 225.241 L 638.087 225.316 L 637.825 225.281 L 637.633 225.17 L 637.507 224.994 L 637.457 224.757 L 636.993 224.757 L 636.993 224.757 z M 637.452 223.269 L 637.502 222.956 L 637.643 222.709 L 637.865 222.553 L 638.153 222.497 L 638.45 222.553 L 638.677 222.709 L 638.818 222.951 L 638.874 223.264 L 638.818 223.581 L 638.677 223.818 L 638.445 223.965 L 638.138 224.015 L 637.86 223.965 L 637.643 223.818 L 637.502 223.586 L 637.452 223.269 L 637.452 223.269 z M 642.217 225.624 L 642.67 225.624 L 642.67 224.757 L 643.17 224.757 L 643.17 224.353 L 642.67 224.353 L 642.67 222.2 L 642.212 222.2 L 640.678 224.313 L 640.678 224.757 L 642.217 224.757 L 642.217 225.624 L 642.217 225.624 z M 641.102 224.353 L 642.217 222.785 L 642.217 224.353 L 641.102 224.353 L 641.102 224.353 z M 645.327 225.624 L 646.023 225.624 L 646.023 224.873 L 645.327 224.873 L 645.327 225.624 L 645.327 225.624 z M 649.32 225.624 L 649.779 225.624 L 649.779 222.099 L 649.436 222.099 L 649.346 222.406 L 649.164 222.613 L 648.887 222.734 L 648.503 222.775 L 648.503 223.133 L 649.32 223.133 L 649.32 225.624 L 649.32 225.624 z M 653.057 225.624 L 653.515 225.624 L 653.515 222.099 L 653.172 222.099 L 653.082 222.406 L 652.9 222.613 L 652.623 222.734 L 652.24 222.775 L 652.24 223.133 L 653.057 223.133 L 653.057 225.624 L 653.057 225.624 z" stroke="none" fill-rule="evenodd" fill="rgb(0, 0, 0)"/><path d="M 738.933 228.142 L 740.865 227.624 L 738.933 227.106"/><path d="M 548.682 227.106 L 546.75 227.624 L 548.682 228.142"/><path d="M 546.75 227.624 L 740.865 227.624"/></g></svg>