<?xml version="1.0" encoding="utf-8" ?><!DOCTYPE svg PUBLIC "-//W3C//DTD SVG 1.1//EN" "http://www.w3.org/Graphics/SVG/1.1/DTD/svg11.dtd" 
[ <!ATTLIST svg 
  xmlns:dsy CDATA #FIXED "http://www.3ds.com/print"  
    dsy:text-version CDATA #IMPLIED > 

  <!ATTLIST text 
  xmlns:dsy CDATA #FIXED "http://www.3ds.com/print" 
    dsy:text-version CDATA #IMPLIED > 
]><svg xmlns="http://www.w3.org/2000/svg" xmlns:dsy="http://www.3ds.com/print" dsy:text-version="18000" width="841" height="594" viewBox="0 0 841 594" version="1.1"><g stroke="rgb(0, 0, 0)" stroke-width="0.13" stroke-linecap="butt" stroke-linejoin="miter" fill="none"><path d="M 442.5 314.5 L 457.365 314.5"/><path d="M 442.5 279.5 L 457.365 279.5"/></g><g stroke="rgb(0, 0, 0)" stroke-width="0.35" stroke-linecap="butt" stroke-linejoin="miter" fill="none"><path d="M 400.5 279.5 L 405.5 279.5"/><path d="M 400.5 314.5 L 400.5 279.5"/><path d="M 417.5 314.5 L 400.5 314.5"/><path d="M 417.5 304.5 L 417.5 314.5"/><path d="M 423.5 304.5 L 417.5 304.5"/><path d="M 423.5 314.5 L 423.5 304.5"/><path d="M 440.5 314.5 L 423.5 314.5"/><path d="M 440.5 279.5 L 440.5 314.5"/><path d="M 435.5 279.5 L 440.5 279.5"/><path d="M 405.5 279.5 A 15 15 0 1 0 435.5 279.5"/></g><g stroke="rgb(0, 0, 0)" stroke-width="0.13" stroke-linecap="butt" stroke-linejoin="miter" fill="none"><path d="M 452.266 300.139 L 452.301 300.139 L 452.785 300.058 L 453.148 299.821 L 453.38 299.448 L 453.466 298.954 L 453.38 298.429 L 453.158 298.036 L 452.805 297.784 L 452.351 297.693 L 452.054 297.733 L 451.812 297.844 L 451.625 298.026 L 451.489 298.268 L 451.217 297.94 L 450.783 297.824 L 450.39 297.9 L 450.092 298.117 L 449.905 298.47 L 449.84 298.954 L 449.921 299.408 L 450.143 299.756 L 450.496 299.983 L 450.965 300.058 L 451 300.058 L 451 299.609 L 450.677 299.569 L 450.445 299.438 L 450.304 299.226 L 450.253 298.929 L 450.294 298.666 L 450.4 298.475 L 450.571 298.359 L 450.803 298.313 L 451.05 298.359 L 451.217 298.48 L 451.318 298.691 L 451.348 298.979 L 451.343 299.176 L 451.741 299.176 L 451.731 298.929 L 451.777 298.611 L 451.898 298.374 L 452.094 298.233 L 452.351 298.182 L 452.644 298.238 L 452.861 298.384 L 452.997 298.616 L 453.042 298.923 L 452.992 299.241 L 452.841 299.473 L 452.599 299.619 L 452.266 299.675 L 452.266 300.139 L 452.266 300.139 z M 452.452 296.383 L 452.866 296.272 L 453.189 296.025 L 453.39 295.662 L 453.466 295.198 L 453.375 294.688 L 453.128 294.29 L 452.735 294.038 L 452.23 293.942 L 451.761 294.028 L 451.393 294.27 L 451.156 294.648 L 451.07 295.137 L 451.131 295.515 L 451.297 295.808 L 450.354 295.667 L 450.354 294.133 L 449.941 294.133 L 449.941 296.004 L 451.797 296.282 L 451.797 295.878 L 451.56 295.586 L 451.474 295.213 L 451.529 294.89 L 451.691 294.643 L 451.938 294.486 L 452.256 294.431 L 452.573 294.486 L 452.82 294.648 L 452.977 294.895 L 453.032 295.213 L 452.997 295.48 L 452.881 295.687 L 452.699 295.838 L 452.452 295.914 L 452.452 296.383 L 452.452 296.383 z" stroke="none" fill-rule="evenodd" fill="rgb(0, 0, 0)"/><path d="M 454.848 312.568 L 455.365 314.5 L 455.883 312.568"/><path d="M 455.883 281.432 L 455.365 279.5 L 454.848 281.432"/><path d="M 455.365 314.5 L 455.365 279.5"/></g></svg>