<?xml version="1.0" encoding="utf-8" ?><!DOCTYPE svg PUBLIC "-//W3C//DTD SVG 1.1//EN" "http://www.w3.org/Graphics/SVG/1.1/DTD/svg11.dtd" 
[ <!ATTLIST svg 
  xmlns:dsy CDATA #FIXED "http://www.3ds.com/print"  
    dsy:text-version CDATA #IMPLIED > 

  <!ATTLIST text 
  xmlns:dsy CDATA #FIXED "http://www.3ds.com/print" 
    dsy:text-version CDATA #IMPLIED > 
]><svg xmlns="http://www.w3.org/2000/svg" xmlns:dsy="http://www.3ds.com/print" dsy:text-version="18000" width="841" height="594" viewBox="0 0 841 594" version="1.1"><g stroke="rgb(0, 0, 0)" stroke-width="0.13" stroke-linecap="butt" stroke-linejoin="miter" fill="none"><path d="M 600.14 388.1 L 621.722 388.1"/><path d="M 600.14 205.9 L 621.722 205.9"/></g><g stroke="rgb(0, 0, 0)" stroke-width="0.35" stroke-linecap="butt" stroke-linejoin="miter" fill="none"><path d="M 598.14 388.1 L 598.14 205.9"/><path d="M 262.86 205.9 L 598.14 205.9"/><path d="M 262.86 205.9 L 242.86 388.1"/><path d="M 287.86 388.1 L 242.86 388.1"/><path d="M 287.86 373.1 L 287.86 388.1"/><path d="M 293.86 373.1 L 287.86 373.1"/><path d="M 293.86 388.1 L 293.86 373.1"/><path d="M 576.86 388.1 L 293.86 388.1"/><path d="M 576.86 373.1 L 576.86 388.1"/><path d="M 582.86 373.1 L 576.86 373.1"/><path d="M 582.86 388.1 L 582.86 373.1"/><path d="M 598.14 388.1 L 582.86 388.1"/><circle cx="536.84" cy="374.4" r="1.70001"/><circle cx="396.84" cy="376.1" r="1.70001"/></g><g stroke="rgb(0, 0, 0)" stroke-width="0.13" stroke-linecap="butt" stroke-linejoin="miter" fill="none"><path d="M 617.722 304.563 L 617.722 304.104 L 614.197 304.104 L 614.197 304.447 L 614.505 304.538 L 614.711 304.719 L 614.832 304.997 L 614.873 305.38 L 615.231 305.38 L 615.231 304.563 L 617.722 304.563 L 617.722 304.563 z M 615.836 301.361 L 615.977 301.619 L 616.174 301.795 L 616.421 301.906 L 616.719 301.941 L 617.167 301.861 L 617.515 301.629 L 617.737 301.25 L 617.823 300.736 L 617.737 300.227 L 617.515 299.848 L 617.167 299.616 L 616.719 299.531 L 616.421 299.571 L 616.174 299.677 L 615.977 299.859 L 615.836 300.111 L 615.715 299.909 L 615.548 299.768 L 615.347 299.682 L 615.1 299.652 L 614.742 299.732 L 614.454 299.944 L 614.268 300.287 L 614.197 300.736 L 614.268 301.19 L 614.454 301.533 L 614.742 301.75 L 615.1 301.825 L 615.347 301.8 L 615.548 301.714 L 615.836 301.361 L 615.836 301.361 z M 616.708 301.457 L 616.441 301.412 L 616.239 301.266 L 616.108 301.039 L 616.063 300.736 L 616.108 300.439 L 616.239 300.212 L 616.441 300.065 L 616.708 300.015 L 616.996 300.065 L 617.213 300.212 L 617.354 300.439 L 617.399 300.736 L 617.354 301.039 L 617.213 301.266 L 616.996 301.412 L 616.708 301.457 L 616.708 301.457 z M 615.14 301.346 L 614.918 301.306 L 614.747 301.185 L 614.641 300.993 L 614.6 300.736 L 614.641 300.484 L 614.747 300.292 L 614.918 300.171 L 615.14 300.126 L 615.367 300.171 L 615.543 300.292 L 615.659 300.484 L 615.695 300.736 L 615.654 300.993 L 615.543 301.185 L 615.367 301.306 L 615.14 301.346 L 615.14 301.346 z M 617.722 298.231 L 617.722 295.825 L 617.288 295.825 L 617.288 297.726 L 617.051 297.62 L 616.855 297.439 L 616.497 296.879 L 616.345 296.581 L 616.128 296.249 L 615.876 296.012 L 615.579 295.875 L 615.241 295.825 L 614.817 295.911 L 614.484 296.148 L 614.273 296.511 L 614.197 296.98 L 614.283 297.464 L 614.52 297.832 L 614.898 298.069 L 615.397 298.15 L 615.468 298.15 L 615.468 297.691 L 615.427 297.691 L 615.084 297.646 L 614.832 297.509 L 614.671 297.293 L 614.615 297.005 L 614.666 296.713 L 614.792 296.496 L 614.989 296.354 L 615.236 296.304 L 615.468 296.339 L 615.664 296.435 L 615.836 296.597 L 615.987 296.818 L 616.149 297.116 L 616.461 297.61 L 616.794 297.958 L 617.198 298.165 L 617.707 298.231 L 617.722 298.231 L 617.722 298.231 z M 617.722 293.612 L 617.722 292.916 L 616.971 292.916 L 616.971 293.612 L 617.722 293.612 L 617.722 293.612 z M 617.722 290.759 L 617.722 288.353 L 617.288 288.353 L 617.288 290.254 L 617.051 290.148 L 616.855 289.967 L 616.497 289.407 L 616.345 289.109 L 616.128 288.777 L 615.876 288.539 L 615.579 288.403 L 615.241 288.353 L 614.817 288.439 L 614.484 288.676 L 614.273 289.039 L 614.197 289.508 L 614.283 289.992 L 614.52 290.36 L 614.898 290.597 L 615.397 290.678 L 615.468 290.678 L 615.468 290.219 L 615.427 290.219 L 615.084 290.174 L 614.832 290.037 L 614.671 289.82 L 614.615 289.533 L 614.666 289.241 L 614.792 289.024 L 614.989 288.882 L 615.236 288.832 L 615.468 288.867 L 615.664 288.963 L 615.836 289.125 L 615.987 289.346 L 616.149 289.644 L 616.461 290.138 L 616.794 290.486 L 617.198 290.693 L 617.707 290.759 L 617.722 290.759 L 617.722 290.759 z" stroke="none" fill-rule="evenodd" fill="rgb(0, 0, 0)"/><path d="M 619.204 386.168 L 619.722 388.1 L 620.24 386.168"/><path d="M 620.24 207.832 L 619.722 205.9 L 619.204 207.832"/><path d="M 619.722 388.1 L 619.722 205.9"/></g></svg>