<?xml version="1.0" encoding="utf-8" ?><!DOCTYPE svg PUBLIC "-//W3C//DTD SVG 1.1//EN" "http://www.w3.org/Graphics/SVG/1.1/DTD/svg11.dtd" 
[ <!ATTLIST svg 
  xmlns:dsy CDATA #FIXED "http://www.3ds.com/print"  
    dsy:text-version CDATA #IMPLIED > 

  <!ATTLIST text 
  xmlns:dsy CDATA #FIXED "http://www.3ds.com/print" 
    dsy:text-version CDATA #IMPLIED > 
]><svg xmlns="http://www.w3.org/2000/svg" xmlns:dsy="http://www.3ds.com/print" dsy:text-version="18000" width="841" height="594" viewBox="0 0 841 594" version="1.1"><g stroke="rgb(0, 0, 0)" stroke-width="0.13" stroke-linecap="butt" stroke-linejoin="miter" fill="none"><path d="M 146.575 215.618 L 146.575 201.198"/><path d="M 684.045 215.618 L 684.045 201.198"/></g><g stroke="rgb(0, 0, 0)" stroke-width="0.35" stroke-linecap="butt" stroke-linejoin="miter" fill="none"><path d="M 146.575 217.618 L 141.876 234.004"/><path d="M 141.876 234.004 L 151.489 236.761"/><path d="M 151.489 236.761 L 149.835 242.528"/><path d="M 149.835 242.528 L 140.223 239.772"/><path d="M 140.223 239.772 L 108.943 348.856"/><path d="M 108.943 348.856 L 118.556 351.612"/><path d="M 118.556 351.612 L 116.902 357.38"/><path d="M 116.902 357.38 L 107.289 354.624"/><path d="M 107.289 354.624 L 101.05 376.382"/><path d="M 101.05 376.382 L 281.03 376.382"/><path d="M 281.03 376.382 L 281.03 366.382"/><path d="M 281.03 366.382 L 287.03 366.382"/><path d="M 287.03 366.382 L 287.03 376.382"/><path d="M 287.03 376.382 L 545.03 376.382"/><path d="M 545.03 376.382 L 545.03 366.382"/><path d="M 545.03 366.382 L 551.03 366.382"/><path d="M 551.03 366.382 L 551.03 376.382"/><path d="M 551.03 376.382 L 729.57 376.382"/><path d="M 726.703 366.382 L 729.57 376.382"/><path d="M 739.95 358.267 L 726.703 366.382"/><path d="M 735.503 342.758 L 739.95 358.267"/><path d="M 725.89 345.515 L 735.503 342.758"/><path d="M 724.236 339.747 L 725.89 345.515"/><path d="M 733.849 336.991 L 724.236 339.747"/><path d="M 731.269 327.992 L 733.849 336.991"/><path d="M 715.695 327.992 L 731.269 327.992"/><path d="M 709.015 304.698 L 715.695 327.992"/><path d="M 722.004 295.684 L 709.015 304.698"/><path d="M 713.142 264.776 L 722.004 295.684"/><path d="M 697.568 264.776 L 713.142 264.776"/><path d="M 684.045 217.618 L 697.568 264.776"/><path d="M 146.575 217.618 L 684.045 217.618"/><circle cx="706.222" cy="276.925" r="1.7"/><circle cx="141.94" cy="277.318" r="1.7"/></g><g stroke="rgb(0, 0, 0)" stroke-width="0.13" stroke-linecap="butt" stroke-linejoin="miter" fill="none"><path d="M 404.72 200.286 L 404.83 200.699 L 405.078 201.022 L 405.441 201.224 L 405.905 201.299 L 406.414 201.208 L 406.812 200.961 L 407.065 200.568 L 407.16 200.064 L 407.075 199.595 L 406.833 199.227 L 406.454 198.989 L 405.965 198.904 L 405.587 198.964 L 405.294 199.131 L 405.436 198.188 L 406.969 198.188 L 406.969 197.774 L 405.098 197.774 L 404.82 199.63 L 405.224 199.63 L 405.516 199.393 L 405.89 199.307 L 406.212 199.363 L 406.459 199.524 L 406.616 199.771 L 406.671 200.089 L 406.616 200.407 L 406.454 200.654 L 406.207 200.81 L 405.89 200.866 L 405.622 200.83 L 405.415 200.714 L 405.264 200.533 L 405.189 200.286 L 404.72 200.286 L 404.72 200.286 z M 408.435 200.099 L 408.435 200.134 L 408.516 200.618 L 408.753 200.982 L 409.126 201.214 L 409.621 201.299 L 410.145 201.214 L 410.538 200.992 L 410.791 200.639 L 410.881 200.185 L 410.841 199.887 L 410.73 199.645 L 410.548 199.458 L 410.306 199.322 L 410.634 199.05 L 410.75 198.616 L 410.675 198.223 L 410.458 197.925 L 410.105 197.739 L 409.621 197.673 L 409.167 197.754 L 408.819 197.976 L 408.592 198.329 L 408.516 198.798 L 408.516 198.833 L 408.965 198.833 L 409.005 198.51 L 409.136 198.278 L 409.348 198.137 L 409.646 198.087 L 409.908 198.127 L 410.1 198.233 L 410.216 198.404 L 410.261 198.636 L 410.216 198.884 L 410.095 199.05 L 409.883 199.151 L 409.595 199.181 L 409.399 199.176 L 409.399 199.574 L 409.646 199.564 L 409.963 199.61 L 410.201 199.731 L 410.342 199.927 L 410.392 200.185 L 410.337 200.477 L 410.19 200.694 L 409.958 200.83 L 409.651 200.876 L 409.333 200.825 L 409.101 200.674 L 408.955 200.432 L 408.899 200.099 L 408.435 200.099 L 408.435 200.099 z M 412.741 201.198 L 413.251 201.198 L 413.417 200.366 L 413.71 199.59 L 414.123 198.868 L 414.663 198.193 L 414.663 197.774 L 412.262 197.774 L 412.262 198.233 L 414.179 198.233 L 413.624 198.914 L 413.205 199.625 L 412.913 200.381 L 412.741 201.198 L 412.741 201.198 z M 416.83 201.198 L 417.526 201.198 L 417.526 200.447 L 416.83 200.447 L 416.83 201.198 L 416.83 201.198 z M 421.192 201.198 L 421.646 201.198 L 421.646 200.331 L 422.145 200.331 L 422.145 199.927 L 421.646 199.927 L 421.646 197.774 L 421.187 197.774 L 419.654 199.887 L 419.654 200.331 L 421.192 200.331 L 421.192 201.198 L 421.192 201.198 z M 420.077 199.927 L 421.192 198.359 L 421.192 199.927 L 420.077 199.927 L 420.077 199.927 z M 423.949 201.198 L 424.459 201.198 L 424.625 200.366 L 424.918 199.59 L 425.331 198.868 L 425.871 198.193 L 425.871 197.774 L 423.47 197.774 L 423.47 198.233 L 425.387 198.233 L 424.832 198.914 L 424.413 199.625 L 424.121 200.381 L 423.949 201.198 L 423.949 201.198 z" stroke="none" fill-rule="evenodd" fill="rgb(0, 0, 0)"/><path d="M 682.114 203.716 L 684.045 203.198 L 682.114 202.681"/><path d="M 148.507 202.681 L 146.575 203.198 L 148.507 203.716"/><path d="M 146.575 203.198 L 684.045 203.198"/></g></svg>