<?xml version="1.0" encoding="utf-8" ?><!DOCTYPE svg PUBLIC "-//W3C//DTD SVG 1.1//EN" "http://www.w3.org/Graphics/SVG/1.1/DTD/svg11.dtd" 
[ <!ATTLIST svg 
  xmlns:dsy CDATA #FIXED "http://www.3ds.com/print"  
    dsy:text-version CDATA #IMPLIED > 

  <!ATTLIST text 
  xmlns:dsy CDATA #FIXED "http://www.3ds.com/print" 
    dsy:text-version CDATA #IMPLIED > 
]><svg xmlns="http://www.w3.org/2000/svg" xmlns:dsy="http://www.3ds.com/print" dsy:text-version="18000" width="841" height="594" viewBox="0 0 841 594" version="1.1"><g stroke="rgb(0, 0, 0)" stroke-width="0.13" stroke-linecap="butt" stroke-linejoin="miter" fill="none"><path d="M 100.135 254.485 L 100.135 218.916"/><path d="M 740.865 254.485 L 740.865 218.916"/></g><g stroke="rgb(0, 0, 0)" stroke-width="0.35" stroke-linecap="butt" stroke-linejoin="miter" fill="none"><path d="M 106.75 337.515 L 734.25 337.515"/><path d="M 734.25 337.515 L 740.865 256.485"/><path d="M 740.865 256.485 L 100.135 256.485"/><path d="M 100.135 256.485 L 104.301 307.515"/><path d="M 104.301 307.515 L 106.75 337.515"/><circle cx="534.612" cy="328.615" r="1.7"/><circle cx="302.976" cy="328.615" r="1.7"/></g><g stroke="rgb(0, 0, 0)" stroke-width="0.13" stroke-linecap="butt" stroke-linejoin="miter" fill="none"><path d="M 412.37 216.359 L 412.274 215.951 L 412.053 215.648 L 411.71 215.456 L 411.266 215.391 L 410.968 215.426 L 410.711 215.522 L 410.484 215.678 L 410.292 215.9 L 410.141 216.178 L 410.03 216.516 L 409.96 216.914 L 409.939 217.363 L 410.02 218.079 L 410.267 218.598 L 410.666 218.911 L 411.21 219.017 L 411.7 218.926 L 412.073 218.689 L 412.315 218.316 L 412.401 217.842 L 412.315 217.363 L 412.083 216.995 L 411.725 216.763 L 411.281 216.682 L 410.802 216.783 L 410.444 217.07 L 410.519 216.516 L 410.681 216.117 L 410.928 215.88 L 411.271 215.799 L 411.523 215.84 L 411.715 215.946 L 411.841 216.122 L 411.906 216.359 L 412.37 216.359 L 412.37 216.359 z M 411.911 217.847 L 411.856 218.165 L 411.715 218.407 L 411.488 218.568 L 411.205 218.619 L 410.908 218.568 L 410.681 218.412 L 410.535 218.17 L 410.489 217.852 L 410.54 217.539 L 410.681 217.302 L 410.913 217.151 L 411.225 217.095 L 411.498 217.151 L 411.715 217.297 L 411.856 217.534 L 411.911 217.847 L 411.911 217.847 z M 415.173 218.916 L 415.627 218.916 L 415.627 218.049 L 416.126 218.049 L 416.126 217.645 L 415.627 217.645 L 415.627 215.492 L 415.168 215.492 L 413.635 217.605 L 413.635 218.049 L 415.173 218.049 L 415.173 218.916 L 415.173 218.916 z M 414.059 217.645 L 415.173 216.077 L 415.173 217.645 L 414.059 217.645 L 414.059 217.645 z M 417.417 217.206 L 417.492 217.998 L 417.729 218.563 L 418.107 218.906 L 418.632 219.017 L 419.151 218.906 L 419.53 218.563 L 419.762 217.998 L 419.842 217.206 L 419.762 216.42 L 419.666 216.107 L 419.53 215.85 L 419.151 215.507 L 418.632 215.391 L 418.107 215.507 L 417.729 215.855 L 417.492 216.42 L 417.417 217.206 L 417.417 217.206 z M 417.901 217.206 L 417.941 216.596 L 418.067 216.157 L 418.294 215.9 L 418.632 215.809 L 418.965 215.9 L 419.192 216.157 L 419.318 216.596 L 419.358 217.206 L 419.318 217.822 L 419.192 218.26 L 418.965 218.518 L 418.632 218.603 L 418.294 218.518 L 418.067 218.26 L 417.941 217.822 L 417.901 217.206 L 417.901 217.206 z M 422.02 218.916 L 422.716 218.916 L 422.716 218.165 L 422.02 218.165 L 422.02 218.916 L 422.02 218.916 z M 425.403 218.916 L 425.912 218.916 L 426.079 218.084 L 426.371 217.307 L 426.785 216.586 L 427.324 215.91 L 427.324 215.492 L 424.924 215.492 L 424.924 215.951 L 426.84 215.951 L 426.286 216.632 L 425.867 217.343 L 425.574 218.099 L 425.403 218.916 L 425.403 218.916 z M 428.569 217.817 L 428.569 217.852 L 428.65 218.336 L 428.887 218.699 L 429.26 218.931 L 429.754 219.017 L 430.279 218.931 L 430.672 218.709 L 430.924 218.356 L 431.015 217.902 L 430.975 217.605 L 430.864 217.363 L 430.682 217.176 L 430.44 217.04 L 430.768 216.768 L 430.884 216.334 L 430.808 215.941 L 430.591 215.643 L 430.238 215.456 L 429.754 215.391 L 429.3 215.472 L 428.952 215.693 L 428.725 216.046 L 428.65 216.516 L 428.65 216.551 L 429.099 216.551 L 429.139 216.228 L 429.27 215.996 L 429.482 215.855 L 429.78 215.804 L 430.042 215.845 L 430.233 215.951 L 430.349 216.122 L 430.395 216.354 L 430.349 216.601 L 430.228 216.768 L 430.017 216.869 L 429.729 216.899 L 429.532 216.894 L 429.532 217.292 L 429.78 217.282 L 430.097 217.327 L 430.334 217.448 L 430.475 217.645 L 430.526 217.902 L 430.47 218.195 L 430.324 218.412 L 430.092 218.548 L 429.785 218.593 L 429.467 218.543 L 429.235 218.392 L 429.089 218.15 L 429.033 217.817 L 428.569 217.817 L 428.569 217.817 z" stroke="none" fill-rule="evenodd" fill="rgb(0, 0, 0)"/><path d="M 738.933 221.434 L 740.865 220.916 L 738.933 220.398"/><path d="M 102.067 220.398 L 100.135 220.916 L 102.067 221.434"/><path d="M 100.135 220.916 L 740.865 220.916"/></g></svg>