<?xml version="1.0" encoding="utf-8" ?><!DOCTYPE svg PUBLIC "-//W3C//DTD SVG 1.1//EN" "http://www.w3.org/Graphics/SVG/1.1/DTD/svg11.dtd" 
[ <!ATTLIST svg 
  xmlns:dsy CDATA #FIXED "http://www.3ds.com/print"  
    dsy:text-version CDATA #IMPLIED > 

  <!ATTLIST text 
  xmlns:dsy CDATA #FIXED "http://www.3ds.com/print" 
    dsy:text-version CDATA #IMPLIED > 
]><svg xmlns="http://www.w3.org/2000/svg" xmlns:dsy="http://www.3ds.com/print" dsy:text-version="18000" width="841" height="594" viewBox="0 0 841 594" version="1.1"><g stroke="rgb(0, 0, 0)" stroke-width="0.13" stroke-linecap="butt" stroke-linejoin="miter" fill="none"><path d="M 107.922 378.382 L 107.922 445.383"/><path d="M 733.078 378.382 L 733.078 445.383"/></g><g stroke="rgb(0, 0, 0)" stroke-width="0.35" stroke-linecap="butt" stroke-linejoin="miter" fill="none"><path d="M 144.868 217.618 L 139.691 239.865"/><path d="M 139.691 239.865 L 149.691 239.865"/><path d="M 149.691 239.865 L 149.691 245.865"/><path d="M 149.691 245.865 L 138.295 245.865"/><path d="M 138.295 245.865 L 113.806 351.101"/><path d="M 113.806 351.101 L 123.806 351.101"/><path d="M 123.806 351.101 L 123.806 357.101"/><path d="M 123.806 357.101 L 112.409 357.101"/><path d="M 112.409 357.101 L 107.922 376.382"/><path d="M 107.922 376.382 L 733.078 376.382"/><path d="M 726.916 357.101 L 733.078 376.382"/><path d="M 714.998 357.101 L 726.916 357.101"/><path d="M 714.998 351.101 L 714.998 357.101"/><path d="M 724.998 351.101 L 714.998 351.101"/><path d="M 709.916 303.908 L 724.998 351.101"/><path d="M 722.792 294.925 L 709.916 303.908"/><path d="M 712.847 264.348 L 722.792 294.925"/><path d="M 697.273 264.348 L 712.847 264.348"/><path d="M 691.366 245.865 L 697.273 264.348"/><path d="M 679.449 245.865 L 691.366 245.865"/><path d="M 679.449 239.865 L 679.449 245.865"/><path d="M 689.449 239.865 L 679.449 239.865"/><path d="M 682.339 217.618 L 689.449 239.865"/><path d="M 144.868 217.618 L 682.339 217.618"/><circle cx="701.509" cy="276.925" r="1.7"/><circle cx="141.849" cy="280.325" r="1.7"/></g><g stroke="rgb(0, 0, 0)" stroke-width="0.13" stroke-linecap="butt" stroke-linejoin="miter" fill="none"><path d="M 412.37 438.826 L 412.274 438.418 L 412.053 438.115 L 411.71 437.924 L 411.266 437.858 L 410.968 437.893 L 410.711 437.989 L 410.484 438.146 L 410.292 438.367 L 410.141 438.645 L 410.03 438.983 L 409.96 439.381 L 409.939 439.83 L 410.02 440.546 L 410.267 441.066 L 410.666 441.378 L 411.21 441.484 L 411.7 441.393 L 412.073 441.156 L 412.315 440.783 L 412.401 440.309 L 412.315 439.83 L 412.083 439.462 L 411.725 439.23 L 411.281 439.149 L 410.802 439.25 L 410.444 439.537 L 410.519 438.983 L 410.681 438.584 L 410.928 438.347 L 411.271 438.267 L 411.523 438.307 L 411.715 438.413 L 411.841 438.589 L 411.906 438.826 L 412.37 438.826 L 412.37 438.826 z M 411.911 440.314 L 411.856 440.632 L 411.715 440.874 L 411.488 441.035 L 411.205 441.086 L 410.908 441.035 L 410.681 440.879 L 410.535 440.637 L 410.489 440.319 L 410.54 440.007 L 410.681 439.769 L 410.913 439.618 L 411.225 439.563 L 411.498 439.618 L 411.715 439.764 L 411.856 440.001 L 411.911 440.314 L 411.911 440.314 z M 413.665 441.383 L 416.071 441.383 L 416.071 440.95 L 414.17 440.95 L 414.276 440.713 L 414.457 440.516 L 415.017 440.158 L 415.315 440.007 L 415.647 439.79 L 415.884 439.537 L 416.021 439.24 L 416.071 438.902 L 415.985 438.478 L 415.748 438.146 L 415.385 437.934 L 414.916 437.858 L 414.432 437.944 L 414.064 438.181 L 413.827 438.559 L 413.746 439.058 L 413.746 439.129 L 414.205 439.129 L 414.205 439.089 L 414.25 438.746 L 414.387 438.494 L 414.603 438.332 L 414.891 438.277 L 415.183 438.327 L 415.4 438.453 L 415.541 438.65 L 415.592 438.897 L 415.557 439.129 L 415.461 439.326 L 415.299 439.497 L 415.077 439.648 L 414.78 439.81 L 414.286 440.123 L 413.938 440.455 L 413.731 440.859 L 413.665 441.368 L 413.665 441.383 L 413.665 441.383 z M 417.381 440.47 L 417.492 440.884 L 417.739 441.207 L 418.102 441.409 L 418.566 441.484 L 419.076 441.393 L 419.474 441.146 L 419.726 440.753 L 419.822 440.249 L 419.736 439.78 L 419.494 439.411 L 419.116 439.174 L 418.627 439.089 L 418.249 439.149 L 417.956 439.316 L 418.097 438.373 L 419.631 438.373 L 419.631 437.959 L 417.759 437.959 L 417.482 439.815 L 417.886 439.815 L 418.178 439.578 L 418.551 439.492 L 418.874 439.548 L 419.121 439.709 L 419.277 439.956 L 419.333 440.274 L 419.277 440.592 L 419.116 440.839 L 418.869 440.995 L 418.551 441.05 L 418.284 441.015 L 418.077 440.899 L 417.926 440.718 L 417.85 440.47 L 417.381 440.47 L 417.381 440.47 z M 422.02 441.383 L 422.716 441.383 L 422.716 440.632 L 422.02 440.632 L 422.02 441.383 L 422.02 441.383 z M 426.013 441.383 L 426.472 441.383 L 426.472 437.858 L 426.129 437.858 L 426.038 438.166 L 425.857 438.373 L 425.58 438.494 L 425.196 438.534 L 425.196 438.892 L 426.013 438.892 L 426.013 441.383 L 426.013 441.383 z M 431.05 438.826 L 430.955 438.418 L 430.733 438.115 L 430.39 437.924 L 429.946 437.858 L 429.648 437.893 L 429.391 437.989 L 429.164 438.146 L 428.973 438.367 L 428.821 438.645 L 428.71 438.983 L 428.64 439.381 L 428.62 439.83 L 428.7 440.546 L 428.947 441.066 L 429.346 441.378 L 429.89 441.484 L 430.38 441.393 L 430.753 441.156 L 430.995 440.783 L 431.081 440.309 L 430.995 439.83 L 430.763 439.462 L 430.405 439.23 L 429.961 439.149 L 429.482 439.25 L 429.124 439.537 L 429.2 438.983 L 429.361 438.584 L 429.608 438.347 L 429.951 438.267 L 430.203 438.307 L 430.395 438.413 L 430.521 438.589 L 430.586 438.826 L 431.05 438.826 L 431.05 438.826 z M 430.591 440.314 L 430.536 440.632 L 430.395 440.874 L 430.168 441.035 L 429.885 441.086 L 429.588 441.035 L 429.361 440.879 L 429.215 440.637 L 429.169 440.319 L 429.22 440.007 L 429.361 439.769 L 429.593 439.618 L 429.906 439.563 L 430.178 439.618 L 430.395 439.764 L 430.536 440.001 L 430.591 440.314 L 430.591 440.314 z" stroke="none" fill-rule="evenodd" fill="rgb(0, 0, 0)"/><path d="M 109.854 442.866 L 107.922 443.383 L 109.854 443.901"/><path d="M 731.146 443.901 L 733.078 443.383 L 731.146 442.866"/><path d="M 107.922 443.383 L 733.078 443.383"/></g></svg>