<?xml version="1.0" encoding="utf-8" ?><!DOCTYPE svg PUBLIC "-//W3C//DTD SVG 1.1//EN" "http://www.w3.org/Graphics/SVG/1.1/DTD/svg11.dtd" 
[ <!ATTLIST svg 
  xmlns:dsy CDATA #FIXED "http://www.3ds.com/print"  
    dsy:text-version CDATA #IMPLIED > 

  <!ATTLIST text 
  xmlns:dsy CDATA #FIXED "http://www.3ds.com/print" 
    dsy:text-version CDATA #IMPLIED > 
]><svg xmlns="http://www.w3.org/2000/svg" xmlns:dsy="http://www.3ds.com/print" dsy:text-version="18000" width="841" height="594" viewBox="0 0 841 594" version="1.1"><g stroke="rgb(0, 0, 0)" stroke-width="0.13" stroke-linecap="butt" stroke-linejoin="miter" fill="none"><path d="M 388.55 337 L 377.462 337"/><path d="M 388.55 257 L 377.462 257"/></g><g stroke="rgb(0, 0, 0)" stroke-width="0.35" stroke-linecap="butt" stroke-linejoin="miter" fill="none"><path d="M 450.45 312 L 450.45 337"/><path d="M 425.55 312 L 450.45 312"/><path d="M 410.55 312 L 425.55 312"/><path d="M 410.55 282 L 410.55 312"/><path d="M 440.55 282 A 15 15 0 1 0 410.55 282"/><path d="M 450.45 282 L 440.55 282"/><path d="M 450.45 257 L 450.45 282"/><path d="M 390.55 257 L 450.45 257"/><path d="M 390.55 257 L 390.55 337"/><path d="M 390.55 337 L 422.55 337"/><path d="M 422.55 327 L 422.55 337"/><path d="M 428.45 327 L 422.55 327"/><path d="M 428.45 337 L 428.45 327"/><path d="M 450.45 337 L 428.45 337"/></g><g stroke="rgb(0, 0, 0)" stroke-width="0.13" stroke-linecap="butt" stroke-linejoin="miter" fill="none"><path d="M 375.576 299.493 L 375.717 299.751 L 375.914 299.927 L 376.161 300.038 L 376.459 300.073 L 376.908 299.993 L 377.256 299.761 L 377.477 299.382 L 377.563 298.868 L 377.477 298.359 L 377.256 297.98 L 376.908 297.748 L 376.459 297.663 L 376.161 297.703 L 375.914 297.809 L 375.717 297.99 L 375.576 298.243 L 375.455 298.041 L 375.289 297.9 L 375.087 297.814 L 374.84 297.784 L 374.482 297.864 L 374.194 298.076 L 374.008 298.419 L 373.937 298.868 L 374.008 299.322 L 374.194 299.665 L 374.482 299.882 L 374.84 299.957 L 375.087 299.932 L 375.289 299.846 L 375.576 299.493 L 375.576 299.493 z M 376.449 299.589 L 376.181 299.544 L 375.98 299.398 L 375.849 299.171 L 375.803 298.868 L 375.849 298.57 L 375.98 298.344 L 376.181 298.197 L 376.449 298.147 L 376.736 298.197 L 376.953 298.344 L 377.094 298.57 L 377.14 298.868 L 377.094 299.171 L 376.953 299.398 L 376.736 299.544 L 376.449 299.589 L 376.449 299.589 z M 374.88 299.478 L 374.658 299.438 L 374.487 299.317 L 374.381 299.125 L 374.341 298.868 L 374.381 298.616 L 374.487 298.424 L 374.658 298.303 L 374.88 298.258 L 375.107 298.303 L 375.284 298.424 L 375.4 298.616 L 375.435 298.868 L 375.395 299.125 L 375.284 299.317 L 375.107 299.438 L 374.88 299.478 L 374.88 299.478 z M 375.753 296.347 L 376.544 296.272 L 377.109 296.035 L 377.452 295.656 L 377.563 295.132 L 377.452 294.613 L 377.109 294.234 L 376.544 294.002 L 375.753 293.922 L 374.966 294.002 L 374.653 294.098 L 374.396 294.234 L 374.053 294.613 L 373.937 295.132 L 374.053 295.656 L 374.401 296.035 L 374.966 296.272 L 375.753 296.347 L 375.753 296.347 z M 375.753 295.863 L 375.142 295.823 L 374.704 295.697 L 374.446 295.47 L 374.356 295.132 L 374.446 294.799 L 374.704 294.572 L 375.142 294.446 L 375.753 294.406 L 376.368 294.446 L 376.807 294.572 L 377.064 294.799 L 377.15 295.132 L 377.064 295.47 L 376.807 295.697 L 376.368 295.823 L 375.753 295.863 L 375.753 295.863 z" stroke="none" fill-rule="evenodd" fill="rgb(0, 0, 0)"/><path d="M 379.98 258.932 L 379.462 257 L 378.945 258.932"/><path d="M 378.945 335.068 L 379.462 337 L 379.98 335.068"/><path d="M 379.462 337 L 379.462 257"/></g></svg>