<?xml version="1.0" encoding="utf-8" ?><!DOCTYPE svg PUBLIC "-//W3C//DTD SVG 1.1//EN" "http://www.w3.org/Graphics/SVG/1.1/DTD/svg11.dtd" 
[ <!ATTLIST svg 
  xmlns:dsy CDATA #FIXED "http://www.3ds.com/print"  
    dsy:text-version CDATA #IMPLIED > 

  <!ATTLIST text 
  xmlns:dsy CDATA #FIXED "http://www.3ds.com/print" 
    dsy:text-version CDATA #IMPLIED > 
]><svg xmlns="http://www.w3.org/2000/svg" xmlns:dsy="http://www.3ds.com/print" dsy:text-version="18000" width="841" height="594" viewBox="0 0 841 594" version="1.1"><g stroke="rgb(0, 0, 0)" stroke-width="0.13" stroke-linecap="butt" stroke-linejoin="miter" fill="none"><path d="M 370.809 302.019 L 379.856 311.579"/><path d="M 384.608 288.959 L 393.655 298.518"/></g><g stroke="rgb(0, 0, 0)" stroke-width="0.35" stroke-linecap="butt" stroke-linejoin="miter" fill="none"><path d="M 369.434 319.567 L 369.434 300.567"/><path d="M 369.434 300.567 L 383.233 287.506"/><path d="M 383.233 287.506 L 379.109 283.149"/><path d="M 379.109 283.149 L 371.846 290.023"/><path d="M 371.846 290.023 L 367.722 285.665"/><path d="M 367.722 285.665 L 374.985 278.791"/><path d="M 374.985 278.791 L 370.86 274.433"/><path d="M 370.86 274.433 L 351.434 292.819"/><path d="M 351.434 292.819 L 351.434 319.567"/><path d="M 351.434 319.567 L 357.434 319.567"/><path d="M 357.434 319.567 L 357.434 309.567"/><path d="M 357.434 309.567 L 363.434 309.567"/><path d="M 363.434 309.567 L 363.434 319.567"/><path d="M 363.434 319.567 L 369.434 319.567"/></g><g stroke="rgb(0, 0, 0)" stroke-width="0.13" stroke-linecap="butt" stroke-linejoin="miter" fill="none"><path d="M 382.583 303.49 L 382.917 303.174 L 380.494 300.614 L 380.245 300.85 L 380.39 301.136 L 380.4 301.411 L 380.282 301.689 L 380.031 301.982 L 380.278 302.242 L 380.871 301.68 L 382.583 303.49 L 382.583 303.49 z M 383.888 301.061 L 384.216 301.299 L 384.585 301.373 L 384.966 301.276 L 385.344 301.016 L 385.536 300.786 L 385.668 300.536 L 385.725 300.266 L 385.712 299.973 L 385.631 299.668 L 385.476 299.343 L 385.253 299.012 L 384.959 298.665 L 384.408 298.207 L 383.872 298 L 383.371 298.043 L 382.903 298.334 L 382.606 298.739 L 382.502 299.172 L 382.583 299.609 L 382.846 300.005 L 383.238 300.301 L 383.663 300.406 L 384.079 300.332 L 384.457 300.078 L 384.735 299.683 L 384.794 299.224 L 385.12 299.686 L 385.277 300.086 L 385.261 300.428 L 385.067 300.716 L 384.852 300.87 L 384.637 300.921 L 384.424 300.88 L 384.224 300.742 L 383.888 301.061 L 383.888 301.061 z M 383.198 299.665 L 383.02 299.404 L 382.953 299.127 L 383.006 298.861 L 383.177 298.623 L 383.431 298.459 L 383.703 298.416 L 383.972 298.495 L 384.228 298.684 L 384.406 298.953 L 384.466 299.222 L 384.398 299.488 L 384.209 299.736 L 383.973 299.89 L 383.715 299.933 L 383.453 299.861 L 383.198 299.665 L 383.198 299.665 z" stroke="none" fill-rule="evenodd" fill="rgb(0, 0, 0)"/><path d="M 379.528 308.422 L 378.481 310.126 L 380.24 309.174"/><path d="M 391.233 298.77 L 392.281 297.066 L 390.522 298.018"/><path d="M 378.481 310.126 L 392.281 297.066"/></g></svg>