<?xml version="1.0" encoding="utf-8" ?><!DOCTYPE svg PUBLIC "-//W3C//DTD SVG 1.1//EN" "http://www.w3.org/Graphics/SVG/1.1/DTD/svg11.dtd" 
[ <!ATTLIST svg 
  xmlns:dsy CDATA #FIXED "http://www.3ds.com/print"  
    dsy:text-version CDATA #IMPLIED > 

  <!ATTLIST text 
  xmlns:dsy CDATA #FIXED "http://www.3ds.com/print" 
    dsy:text-version CDATA #IMPLIED > 
]><svg xmlns="http://www.w3.org/2000/svg" xmlns:dsy="http://www.3ds.com/print" dsy:text-version="18000" width="841" height="594" viewBox="0 0 841 594" version="1.1"><g stroke="rgb(0, 0, 0)" stroke-width="0.13" stroke-linecap="butt" stroke-linejoin="miter" fill="none"><path d="M 100.135 254.485 L 100.135 202.817"/><path d="M 740.865 254.485 L 740.865 202.817"/></g><g stroke="rgb(0, 0, 0)" stroke-width="0.35" stroke-linecap="butt" stroke-linejoin="miter" fill="none"><path d="M 106.75 337.515 L 734.25 337.515"/><path d="M 734.25 337.515 L 740.865 256.485"/><path d="M 740.865 256.485 L 100.135 256.485"/><path d="M 100.135 256.485 L 103.443 301.515"/><path d="M 103.443 301.515 L 113.443 301.515"/><path d="M 113.443 301.515 L 113.443 307.515"/><path d="M 113.443 307.515 L 104.301 307.515"/><path d="M 104.301 307.515 L 106.75 337.515"/><circle cx="534.612" cy="328.615" r="1.7"/><circle cx="302.976" cy="328.615" r="1.7"/></g><g stroke="rgb(0, 0, 0)" stroke-width="0.13" stroke-linecap="butt" stroke-linejoin="miter" fill="none"><path d="M 412.37 200.26 L 412.274 199.852 L 412.053 199.549 L 411.71 199.358 L 411.266 199.292 L 410.968 199.327 L 410.711 199.423 L 410.484 199.579 L 410.292 199.801 L 410.141 200.079 L 410.03 200.417 L 409.96 200.815 L 409.939 201.264 L 410.02 201.98 L 410.267 202.499 L 410.666 202.812 L 411.21 202.918 L 411.7 202.827 L 412.073 202.59 L 412.315 202.217 L 412.401 201.743 L 412.315 201.264 L 412.083 200.896 L 411.725 200.664 L 411.281 200.583 L 410.802 200.684 L 410.444 200.971 L 410.519 200.417 L 410.681 200.018 L 410.928 199.781 L 411.271 199.701 L 411.523 199.741 L 411.715 199.847 L 411.841 200.023 L 411.906 200.26 L 412.37 200.26 L 412.37 200.26 z M 411.911 201.748 L 411.856 202.066 L 411.715 202.308 L 411.488 202.469 L 411.205 202.52 L 410.908 202.469 L 410.681 202.313 L 410.535 202.071 L 410.489 201.753 L 410.54 201.44 L 410.681 201.203 L 410.913 201.052 L 411.225 200.997 L 411.498 201.052 L 411.715 201.198 L 411.856 201.435 L 411.911 201.748 L 411.911 201.748 z M 415.173 202.817 L 415.627 202.817 L 415.627 201.95 L 416.126 201.95 L 416.126 201.546 L 415.627 201.546 L 415.627 199.393 L 415.168 199.393 L 413.635 201.506 L 413.635 201.95 L 415.173 201.95 L 415.173 202.817 L 415.173 202.817 z M 414.059 201.546 L 415.173 199.978 L 415.173 201.546 L 414.059 201.546 L 414.059 201.546 z M 417.417 201.108 L 417.492 201.899 L 417.729 202.464 L 418.107 202.807 L 418.632 202.918 L 419.151 202.807 L 419.53 202.464 L 419.762 201.899 L 419.842 201.108 L 419.762 200.321 L 419.666 200.008 L 419.53 199.751 L 419.151 199.408 L 418.632 199.292 L 418.107 199.408 L 417.729 199.756 L 417.492 200.321 L 417.417 201.108 L 417.417 201.108 z M 417.901 201.108 L 417.941 200.497 L 418.067 200.059 L 418.294 199.801 L 418.632 199.711 L 418.965 199.801 L 419.192 200.059 L 419.318 200.497 L 419.358 201.108 L 419.318 201.723 L 419.192 202.162 L 418.965 202.419 L 418.632 202.505 L 418.294 202.419 L 418.067 202.162 L 417.941 201.723 L 417.901 201.108 L 417.901 201.108 z M 422.02 202.817 L 422.716 202.817 L 422.716 202.066 L 422.02 202.066 L 422.02 202.817 L 422.02 202.817 z M 425.403 202.817 L 425.912 202.817 L 426.079 201.985 L 426.371 201.208 L 426.785 200.487 L 427.324 199.811 L 427.324 199.393 L 424.924 199.393 L 424.924 199.852 L 426.84 199.852 L 426.286 200.533 L 425.867 201.244 L 425.574 202 L 425.403 202.817 L 425.403 202.817 z M 428.569 201.718 L 428.569 201.753 L 428.65 202.237 L 428.887 202.6 L 429.26 202.832 L 429.754 202.918 L 430.279 202.832 L 430.672 202.61 L 430.924 202.257 L 431.015 201.803 L 430.975 201.506 L 430.864 201.264 L 430.682 201.077 L 430.44 200.941 L 430.768 200.669 L 430.884 200.235 L 430.808 199.842 L 430.591 199.544 L 430.238 199.358 L 429.754 199.292 L 429.3 199.373 L 428.952 199.595 L 428.725 199.948 L 428.65 200.417 L 428.65 200.452 L 429.099 200.452 L 429.139 200.129 L 429.27 199.897 L 429.482 199.756 L 429.78 199.706 L 430.042 199.746 L 430.233 199.852 L 430.349 200.023 L 430.395 200.255 L 430.349 200.502 L 430.228 200.669 L 430.017 200.77 L 429.729 200.8 L 429.532 200.795 L 429.532 201.193 L 429.78 201.183 L 430.097 201.229 L 430.334 201.35 L 430.475 201.546 L 430.526 201.803 L 430.47 202.096 L 430.324 202.313 L 430.092 202.449 L 429.785 202.494 L 429.467 202.444 L 429.235 202.293 L 429.089 202.051 L 429.033 201.718 L 428.569 201.718 L 428.569 201.718 z" stroke="none" fill-rule="evenodd" fill="rgb(0, 0, 0)"/><path d="M 738.933 205.335 L 740.865 204.817 L 738.933 204.3"/><path d="M 102.067 204.3 L 100.135 204.817 L 102.067 205.335"/><path d="M 100.135 204.817 L 740.865 204.817"/></g></svg>