<?xml version="1.0" encoding="utf-8" ?><!DOCTYPE svg PUBLIC "-//W3C//DTD SVG 1.1//EN" "http://www.w3.org/Graphics/SVG/1.1/DTD/svg11.dtd" 
[ <!ATTLIST svg 
  xmlns:dsy CDATA #FIXED "http://www.3ds.com/print"  
    dsy:text-version CDATA #IMPLIED > 

  <!ATTLIST text 
  xmlns:dsy CDATA #FIXED "http://www.3ds.com/print" 
    dsy:text-version CDATA #IMPLIED > 
]><svg xmlns="http://www.w3.org/2000/svg" xmlns:dsy="http://www.3ds.com/print" dsy:text-version="18000" width="841" height="594" viewBox="0 0 841 594" version="1.1"><g stroke="rgb(0, 0, 0)" stroke-width="0.13" stroke-linecap="butt" stroke-linejoin="miter" fill="none"><path d="M 568.5 427.732 L 639.621 427.732"/><path d="M 568.5 166.268 L 639.621 166.268"/></g><g stroke="rgb(0, 0, 0)" stroke-width="0.35" stroke-linecap="butt" stroke-linejoin="miter" fill="none"><circle cx="486.023" cy="434.428" r="14"/><path d="M 560.26 50.7233 A 17.208 13.9872 -342.863 0 0 557.306 55.915"/><path d="M 560.26 50.7234 L 491.518 33.9571"/><path d="M 491.518 33.9571 L 490.408 34.9581 L 489.199 35.8362 L 487.904 36.5829 L 486.538 37.1909 L 485.117 37.6544 L 483.656 37.9696 L 482.548 38.1066 L 481.432 38.1586"/><path d="M 481.432 38.1586 L 480.114 38.1108 L 478.806 37.9449 L 477.518 37.6624 L 476.26 37.2653 L 475.043 36.7568 L 473.878 36.1405 L 472.772 35.4211 L 471.741 34.6074 L 470.789 33.7028 L 469.923 32.7146 L 469.153 31.6506 L 468.485 30.5195 L 467.926 29.3307 L 467.482 28.0947"/><path d="M 481.432 555.841 L 480.114 555.889 L 478.806 556.055 L 477.518 556.338 L 476.26 556.735 L 475.043 557.243 L 473.878 557.86 L 472.772 558.579 L 471.741 559.393 L 470.789 560.297 L 469.923 561.285 L 469.153 562.349 L 468.485 563.481 L 467.926 564.669 L 467.482 565.905"/><path d="M 491.518 560.043 L 490.408 559.042 L 489.199 558.164 L 487.904 557.417 L 486.538 556.809 L 485.117 556.346 L 483.656 556.03 L 482.548 555.893 L 481.432 555.841"/><path d="M 560.26 543.277 L 491.518 560.043"/><path d="M 557.306 538.085 A 17.208 13.9872 -17.137 0 0 560.26 543.277"/><path d="M 570.369 519.926 L 568.934 520.38 L 567.535 520.934 L 566.179 521.588 L 564.652 522.479 L 563.909 522.981 L 563.19 523.516 L 562.515 524.069 L 561.865 524.652 L 560.933 525.596 L 560.075 526.608 L 559.299 527.684 L 558.616 528.82 L 557.985 530.126 L 557.49 531.489 L 557.298 532.188 L 557.144 532.897 L 557.003 533.853 L 556.937 534.818 L 556.949 535.784 L 557.07 536.944 L 557.306 538.085"/><path d="M 584.499 521.314 A 17.2396 14.0012 -17.1891 0 0 570.369 519.926"/><path d="M 566.158 428.055 A 16.1161 11.5 -225.645 0 0 562.351 447.74"/><path d="M 562.351 146.26 A 16.1161 11.5 -314.355 0 0 566.158 165.945"/><path d="M 570.369 74.0744 A 17.2396 14.0012 -342.811 0 0 584.499 72.6863"/><path d="M 570.369 74.0743 L 568.934 73.6205 L 567.535 73.0659 L 566.179 72.4125 L 564.652 71.5214 L 563.909 71.0193 L 563.19 70.4839 L 562.515 69.9314 L 561.865 69.3481 L 560.933 68.4036 L 560.075 67.3918 L 559.299 66.316 L 558.616 65.1801 L 557.985 63.8745 L 557.49 62.5114 L 557.298 61.8121 L 557.144 61.1031 L 557.003 60.1467 L 556.937 59.1822 L 556.949 58.2156 L 557.07 57.0562 L 557.306 55.915"/><circle cx="479.914" cy="63.7253" r="1.70001"/><circle cx="268.499" cy="99.9921" r="1.70001"/><circle cx="479.914" cy="532.025" r="1.70001"/><path d="M 256.499 478.008 L 266.499 478.008"/><path d="M 266.499 484.008 L 266.499 478.008"/><path d="M 266.499 484.008 L 256.499 484.008"/><circle cx="268.499" cy="494.008" r="1.70001"/><path d="M 266.499 109.992 L 256.499 109.992"/><path d="M 266.499 115.992 L 266.499 109.992"/><path d="M 256.499 115.992 L 266.499 115.992"/><path d="M 256.499 484.008 L 256.499 507.365"/><path d="M 256.499 87.3645 L 256.499 109.992"/><path d="M 256.499 457.365 L 256.499 478.008"/><path d="M 256.499 115.992 L 256.499 137.365"/><path d="M 467.482 565.905 L 466.499 566.145"/><path d="M 467.482 28.0947 L 466.499 27.855"/><path d="M 256.499 507.365 L 466.499 507.365"/><path d="M 466.499 566.145 L 466.499 507.365"/><path d="M 466.499 87.3645 L 466.499 27.855"/><path d="M 466.499 87.3645 L 256.499 87.3645"/><path d="M 256.499 137.365 L 276.499 137.365"/><path d="M 276.499 457.365 L 276.499 137.365"/><path d="M 276.499 457.365 L 256.499 457.365"/><path d="M 562.351 447.74 A 16.076 11.4854 -225.612 0 0 566.499 450.219"/><path d="M 566.5 427.732 A 22.5367 22.5367 0 0 0 566.158 428.055"/><path d="M 566.5 166.268 L 566.5 427.732"/><path d="M 566.158 165.945 A 22.5367 22.5367 0 0 0 566.5 166.268"/><path d="M 566.499 143.781 A 16.076 11.4854 -314.388 0 0 562.351 146.26"/><path d="M 566.5 127.365 L 566.5 143.781"/><path d="M 566.5 127.365 L 584.5 127.365"/><path d="M 584.5 127.365 L 584.5 72.6863"/><path d="M 584.5 521.314 L 584.5 467.365"/><path d="M 584.5 467.365 L 566.5 467.365"/><path d="M 566.5 450.219 L 566.5 467.365"/></g><g stroke="rgb(0, 0, 0)" stroke-width="0.13" stroke-linecap="butt" stroke-linejoin="miter" fill="none"><path d="M 635.621 307.571 L 635.621 305.165 L 635.188 305.165 L 635.188 307.066 L 634.951 306.96 L 634.754 306.779 L 634.396 306.219 L 634.245 305.921 L 634.028 305.589 L 633.776 305.352 L 633.478 305.215 L 633.14 305.165 L 632.717 305.251 L 632.384 305.488 L 632.172 305.851 L 632.096 306.32 L 632.182 306.804 L 632.419 307.172 L 632.797 307.409 L 633.297 307.49 L 633.367 307.49 L 633.367 307.031 L 633.327 307.031 L 632.984 306.986 L 632.732 306.849 L 632.57 306.633 L 632.515 306.345 L 632.565 306.053 L 632.691 305.836 L 632.888 305.695 L 633.135 305.644 L 633.367 305.679 L 633.564 305.775 L 633.735 305.937 L 633.887 306.159 L 634.048 306.456 L 634.361 306.95 L 634.693 307.298 L 635.097 307.505 L 635.606 307.571 L 635.621 307.571 L 635.621 307.571 z M 633.065 301.394 L 632.656 301.49 L 632.353 301.711 L 632.162 302.054 L 632.096 302.498 L 632.132 302.796 L 632.227 303.053 L 632.384 303.28 L 632.606 303.471 L 632.883 303.623 L 633.221 303.734 L 633.619 303.804 L 634.068 303.825 L 634.784 303.744 L 635.304 303.497 L 635.616 303.098 L 635.722 302.554 L 635.632 302.064 L 635.395 301.691 L 635.021 301.449 L 634.547 301.363 L 634.068 301.449 L 633.7 301.681 L 633.468 302.039 L 633.387 302.483 L 633.488 302.962 L 633.776 303.32 L 633.221 303.245 L 632.822 303.083 L 632.585 302.836 L 632.505 302.493 L 632.545 302.241 L 632.651 302.049 L 632.828 301.923 L 633.065 301.858 L 633.065 301.394 L 633.065 301.394 z M 634.552 301.853 L 634.87 301.908 L 635.112 302.049 L 635.273 302.276 L 635.324 302.559 L 635.273 302.856 L 635.117 303.083 L 634.875 303.229 L 634.557 303.275 L 634.245 303.224 L 634.008 303.083 L 633.856 302.851 L 633.801 302.538 L 633.856 302.266 L 634.003 302.049 L 634.24 301.908 L 634.552 301.853 L 634.552 301.853 z M 635.621 298.959 L 635.621 298.5 L 632.096 298.5 L 632.096 298.843 L 632.404 298.934 L 632.611 299.115 L 632.732 299.393 L 632.772 299.776 L 633.13 299.776 L 633.13 298.959 L 635.621 298.959 L 635.621 298.959 z M 635.621 295.48 L 635.621 294.784 L 634.87 294.784 L 634.87 295.48 L 635.621 295.48 L 635.621 295.48 z M 635.621 291.119 L 635.621 290.665 L 634.754 290.665 L 634.754 290.165 L 634.351 290.165 L 634.351 290.665 L 632.197 290.665 L 632.197 291.124 L 634.31 292.657 L 634.754 292.657 L 634.754 291.119 L 635.621 291.119 L 635.621 291.119 z M 634.351 292.233 L 632.782 291.119 L 634.351 291.119 L 634.351 292.233 L 634.351 292.233 z M 633.065 286.45 L 632.656 286.545 L 632.353 286.767 L 632.162 287.11 L 632.096 287.554 L 632.132 287.852 L 632.227 288.109 L 632.384 288.336 L 632.606 288.527 L 632.883 288.679 L 633.221 288.79 L 633.619 288.86 L 634.068 288.88 L 634.784 288.8 L 635.304 288.553 L 635.616 288.154 L 635.722 287.61 L 635.632 287.12 L 635.395 286.747 L 635.021 286.505 L 634.547 286.419 L 634.068 286.505 L 633.7 286.737 L 633.468 287.095 L 633.387 287.539 L 633.488 288.018 L 633.776 288.376 L 633.221 288.3 L 632.822 288.139 L 632.585 287.892 L 632.505 287.549 L 632.545 287.297 L 632.651 287.105 L 632.828 286.979 L 633.065 286.914 L 633.065 286.45 L 633.065 286.45 z M 634.552 286.909 L 634.87 286.964 L 635.112 287.105 L 635.273 287.332 L 635.324 287.615 L 635.273 287.912 L 635.117 288.139 L 634.875 288.285 L 634.557 288.331 L 634.245 288.28 L 634.008 288.139 L 633.856 287.907 L 633.801 287.594 L 633.856 287.322 L 634.003 287.105 L 634.24 286.964 L 634.552 286.909 L 634.552 286.909 z" stroke="none" fill-rule="evenodd" fill="rgb(0, 0, 0)"/><path d="M 638.139 168.2 L 637.621 166.268 L 637.104 168.2"/><path d="M 637.104 425.8 L 637.621 427.732 L 638.139 425.8"/><path d="M 637.621 427.732 L 637.621 166.268"/></g></svg>