<?xml version="1.0" encoding="utf-8" ?><!DOCTYPE svg PUBLIC "-//W3C//DTD SVG 1.1//EN" "http://www.w3.org/Graphics/SVG/1.1/DTD/svg11.dtd" 
[ <!ATTLIST svg 
  xmlns:dsy CDATA #FIXED "http://www.3ds.com/print"  
    dsy:text-version CDATA #IMPLIED > 

  <!ATTLIST text 
  xmlns:dsy CDATA #FIXED "http://www.3ds.com/print" 
    dsy:text-version CDATA #IMPLIED > 
]><svg xmlns="http://www.w3.org/2000/svg" xmlns:dsy="http://www.3ds.com/print" dsy:text-version="18000" width="841" height="594" viewBox="0 0 841 594" version="1.1"><g stroke="rgb(0, 0, 0)" stroke-width="0.13" stroke-linecap="butt" stroke-linejoin="miter" fill="none"><path d="M 282.75 254.485 L 282.75 225.121"/><path d="M 540.75 254.485 L 540.75 225.121"/></g><g stroke="rgb(0, 0, 0)" stroke-width="0.35" stroke-linecap="butt" stroke-linejoin="miter" fill="none"><path d="M 546.75 256.485 L 740.865 256.485"/><path d="M 546.75 266.485 L 546.75 256.485"/><path d="M 540.75 266.485 L 546.75 266.485"/><path d="M 540.75 256.485 L 540.75 266.485"/><path d="M 282.75 256.485 L 540.75 256.485"/><path d="M 282.75 266.485 L 282.75 256.485"/><path d="M 276.75 266.485 L 282.75 266.485"/><path d="M 276.75 256.485 L 276.75 266.485"/><path d="M 100.135 256.485 L 276.75 256.485"/><path d="M 146.455 337.515 L 691.134 337.515"/><path d="M 691.134 327.515 L 691.134 337.515"/><path d="M 691.134 327.515 L 697.134 327.515"/><path d="M 697.134 337.515 L 697.134 327.515"/><circle cx="541.134" cy="328.615" r="1.7"/><circle cx="296.455" cy="328.615" r="1.7"/><path d="M 140.455 327.515 L 140.455 337.515"/><path d="M 140.455 327.515 L 146.455 327.515"/><path d="M 146.455 337.515 L 146.455 327.515"/><path d="M 697.134 337.515 L 716.75 337.515"/><path d="M 126.75 337.515 L 140.455 337.515"/><path d="M 735.15 326.485 L 740.865 256.485"/><path d="M 100.135 256.485 L 105.85 326.485"/><path d="M 105.85 326.485 L 126.75 326.485"/><path d="M 126.75 337.515 L 126.75 326.485"/><path d="M 716.75 337.515 L 716.75 326.485"/><path d="M 716.75 326.485 L 735.15 326.485"/></g><g stroke="rgb(0, 0, 0)" stroke-width="0.13" stroke-linecap="butt" stroke-linejoin="miter" fill="none"><path d="M 406.783 225.121 L 409.189 225.121 L 409.189 224.688 L 407.288 224.688 L 407.394 224.451 L 407.575 224.254 L 408.135 223.896 L 408.433 223.745 L 408.765 223.528 L 409.002 223.276 L 409.139 222.978 L 409.189 222.64 L 409.103 222.216 L 408.866 221.884 L 408.503 221.672 L 408.034 221.596 L 407.55 221.682 L 407.182 221.919 L 406.945 222.297 L 406.864 222.796 L 406.864 222.867 L 407.323 222.867 L 407.323 222.827 L 407.368 222.484 L 407.505 222.232 L 407.721 222.07 L 408.009 222.015 L 408.301 222.065 L 408.518 222.191 L 408.659 222.388 L 408.71 222.635 L 408.675 222.867 L 408.579 223.064 L 408.417 223.235 L 408.195 223.387 L 407.898 223.548 L 407.404 223.861 L 407.056 224.193 L 406.849 224.597 L 406.783 225.106 L 406.783 225.121 L 406.783 225.121 z M 410.499 224.209 L 410.61 224.622 L 410.857 224.945 L 411.22 225.147 L 411.684 225.222 L 412.194 225.132 L 412.592 224.884 L 412.844 224.491 L 412.94 223.987 L 412.854 223.518 L 412.612 223.15 L 412.234 222.912 L 411.745 222.827 L 411.367 222.887 L 411.074 223.054 L 411.215 222.111 L 412.749 222.111 L 412.749 221.697 L 410.878 221.697 L 410.6 223.553 L 411.004 223.553 L 411.296 223.316 L 411.669 223.23 L 411.992 223.286 L 412.239 223.447 L 412.396 223.694 L 412.451 224.012 L 412.396 224.33 L 412.234 224.577 L 411.987 224.733 L 411.669 224.789 L 411.402 224.753 L 411.195 224.637 L 411.044 224.456 L 410.968 224.209 L 410.499 224.209 L 410.499 224.209 z M 414.861 223.235 L 414.603 223.376 L 414.427 223.573 L 414.316 223.82 L 414.281 224.118 L 414.361 224.567 L 414.593 224.915 L 414.972 225.137 L 415.486 225.222 L 415.995 225.137 L 416.374 224.915 L 416.606 224.567 L 416.691 224.118 L 416.651 223.82 L 416.545 223.573 L 416.364 223.376 L 416.111 223.235 L 416.313 223.114 L 416.454 222.948 L 416.54 222.746 L 416.57 222.499 L 416.49 222.141 L 416.278 221.853 L 415.935 221.667 L 415.486 221.596 L 415.032 221.667 L 414.689 221.853 L 414.472 222.141 L 414.397 222.499 L 414.422 222.746 L 414.508 222.948 L 414.861 223.235 L 414.861 223.235 z M 414.765 224.108 L 414.81 223.84 L 414.956 223.639 L 415.183 223.508 L 415.486 223.462 L 415.784 223.508 L 416.01 223.639 L 416.157 223.84 L 416.207 224.108 L 416.157 224.395 L 416.01 224.612 L 415.784 224.753 L 415.486 224.799 L 415.183 224.753 L 414.956 224.612 L 414.81 224.395 L 414.765 224.108 L 414.765 224.108 z M 414.876 222.539 L 414.916 222.317 L 415.037 222.146 L 415.229 222.04 L 415.486 222 L 415.738 222.04 L 415.93 222.146 L 416.051 222.317 L 416.096 222.539 L 416.051 222.766 L 415.93 222.943 L 415.738 223.059 L 415.486 223.094 L 415.229 223.054 L 415.037 222.943 L 414.916 222.766 L 414.876 222.539 L 414.876 222.539 z" stroke="none" fill-rule="evenodd" fill="rgb(0, 0, 0)"/><path d="M 538.818 227.639 L 540.75 227.121 L 538.818 226.604"/><path d="M 284.682 226.604 L 282.75 227.121 L 284.682 227.639"/><path d="M 282.75 227.121 L 540.75 227.121"/></g></svg>