<?xml version="1.0" encoding="utf-8" ?><!DOCTYPE svg PUBLIC "-//W3C//DTD SVG 1.1//EN" "http://www.w3.org/Graphics/SVG/1.1/DTD/svg11.dtd" 
[ <!ATTLIST svg 
  xmlns:dsy CDATA #FIXED "http://www.3ds.com/print"  
    dsy:text-version CDATA #IMPLIED > 

  <!ATTLIST text 
  xmlns:dsy CDATA #FIXED "http://www.3ds.com/print" 
    dsy:text-version CDATA #IMPLIED > 
]><svg xmlns="http://www.w3.org/2000/svg" xmlns:dsy="http://www.3ds.com/print" dsy:text-version="18000" width="841" height="594" viewBox="0 0 841 594" version="1.1"><g stroke="rgb(128, 128, 128)" stroke-width="0.13" stroke-linecap="butt" stroke-linejoin="miter" fill="none"><path d="M 600.14 389.2 L 639.243 389.2"/><path d="M 600.14 204.8 L 639.243 204.8"/></g><g stroke="rgb(0, 0, 0)" stroke-width="0.35" stroke-linecap="butt" stroke-linejoin="miter" fill="none"><path d="M 598.14 389.2 L 598.14 204.8"/><path d="M 262.86 204.8 L 598.14 204.8"/><path d="M 262.86 204.8 L 242.86 389.2"/><path d="M 287.86 389.2 L 242.86 389.2"/><path d="M 287.86 359.2 L 287.86 389.2"/><path d="M 293.86 359.2 L 287.86 359.2"/><path d="M 293.86 389.2 L 293.86 359.2"/><path d="M 576.86 389.2 L 293.86 389.2"/><path d="M 576.86 359.2 L 576.86 389.2"/><path d="M 582.86 359.2 L 576.86 359.2"/><path d="M 582.86 389.2 L 582.86 359.2"/><path d="M 598.14 389.2 L 582.86 389.2"/><circle cx="536.84" cy="375.5" r="1.70001"/><circle cx="396.84" cy="377.2" r="1.70001"/></g><g stroke="rgb(128, 128, 128)" stroke-width="0.13" stroke-linecap="butt" stroke-linejoin="miter" fill="none"><path d="M 635.243 304.563 L 635.243 304.104 L 631.718 304.104 L 631.718 304.447 L 632.026 304.538 L 632.232 304.719 L 632.354 304.997 L 632.394 305.38 L 632.752 305.38 L 632.752 304.563 L 635.243 304.563 L 635.243 304.563 z M 633.357 301.361 L 633.498 301.619 L 633.695 301.795 L 633.942 301.906 L 634.24 301.941 L 634.689 301.861 L 635.036 301.629 L 635.258 301.25 L 635.344 300.736 L 635.258 300.227 L 635.036 299.848 L 634.689 299.616 L 634.24 299.531 L 633.942 299.571 L 633.695 299.677 L 633.498 299.859 L 633.357 300.111 L 633.236 299.909 L 633.07 299.768 L 632.868 299.682 L 632.621 299.652 L 632.263 299.732 L 631.975 299.944 L 631.789 300.287 L 631.718 300.736 L 631.789 301.19 L 631.975 301.533 L 632.263 301.75 L 632.621 301.825 L 632.868 301.8 L 633.07 301.714 L 633.357 301.361 L 633.357 301.361 z M 634.23 301.457 L 633.962 301.412 L 633.761 301.266 L 633.629 301.039 L 633.584 300.736 L 633.629 300.439 L 633.761 300.212 L 633.962 300.065 L 634.23 300.015 L 634.517 300.065 L 634.734 300.212 L 634.875 300.439 L 634.921 300.736 L 634.875 301.039 L 634.734 301.266 L 634.517 301.412 L 634.23 301.457 L 634.23 301.457 z M 632.661 301.346 L 632.439 301.306 L 632.268 301.185 L 632.162 300.993 L 632.122 300.736 L 632.162 300.484 L 632.268 300.292 L 632.439 300.171 L 632.661 300.126 L 632.888 300.171 L 633.065 300.292 L 633.181 300.484 L 633.216 300.736 L 633.176 300.993 L 633.065 301.185 L 632.888 301.306 L 632.661 301.346 L 632.661 301.346 z M 635.243 296.723 L 635.243 296.269 L 634.376 296.269 L 634.376 295.769 L 633.972 295.769 L 633.972 296.269 L 631.819 296.269 L 631.819 296.728 L 633.932 298.261 L 634.376 298.261 L 634.376 296.723 L 635.243 296.723 L 635.243 296.723 z M 633.972 297.837 L 632.404 296.723 L 633.972 296.723 L 633.972 297.837 L 633.972 297.837 z M 635.243 293.612 L 635.243 292.916 L 634.492 292.916 L 634.492 293.612 L 635.243 293.612 L 635.243 293.612 z M 635.243 289.251 L 635.243 288.797 L 634.376 288.797 L 634.376 288.297 L 633.972 288.297 L 633.972 288.797 L 631.819 288.797 L 631.819 289.256 L 633.932 290.789 L 634.376 290.789 L 634.376 289.251 L 635.243 289.251 L 635.243 289.251 z M 633.972 290.365 L 632.404 289.251 L 633.972 289.251 L 633.972 290.365 L 633.972 290.365 z" stroke="none" fill-rule="evenodd" fill="rgb(128, 128, 128)"/><path d="M 636.726 387.268 L 637.243 389.2 L 637.761 387.268"/><path d="M 637.761 206.732 L 637.243 204.8 L 636.726 206.732"/><path d="M 637.243 389.2 L 637.243 204.8"/></g></svg>