<?xml version="1.0" encoding="utf-8" ?><!DOCTYPE svg PUBLIC "-//W3C//DTD SVG 1.1//EN" "http://www.w3.org/Graphics/SVG/1.1/DTD/svg11.dtd" 
[ <!ATTLIST svg 
  xmlns:dsy CDATA #FIXED "http://www.3ds.com/print"  
    dsy:text-version CDATA #IMPLIED > 

  <!ATTLIST text 
  xmlns:dsy CDATA #FIXED "http://www.3ds.com/print" 
    dsy:text-version CDATA #IMPLIED > 
]><svg xmlns="http://www.w3.org/2000/svg" xmlns:dsy="http://www.3ds.com/print" dsy:text-version="18000" width="841" height="594" viewBox="0 0 841 594" version="1.1"><g stroke="rgb(0, 0, 0)" stroke-width="0.13" stroke-linecap="butt" stroke-linejoin="miter" fill="none"><path d="M 285.849 378.382 L 285.849 416.538"/><path d="M 543.849 378.382 L 543.849 416.538"/></g><g stroke="rgb(0, 0, 0)" stroke-width="0.35" stroke-linecap="butt" stroke-linejoin="miter" fill="none"><path d="M 140.18 217.618 L 136.316 234.221"/><path d="M 136.316 234.221 L 146.056 236.487"/><path d="M 146.056 236.487 L 144.683 242.328"/><path d="M 144.683 242.328 L 134.957 240.065"/><path d="M 134.957 240.065 L 109.153 350.949"/><path d="M 109.153 350.949 L 118.892 353.216"/><path d="M 118.892 353.216 L 117.532 359.06"/><path d="M 117.532 359.06 L 107.793 356.793"/><path d="M 107.793 356.793 L 103.234 376.382"/><path d="M 103.234 376.382 L 279.849 376.382"/><path d="M 279.849 376.382 L 279.849 366.382"/><path d="M 279.849 366.382 L 285.849 366.382"/><path d="M 285.849 366.382 L 285.849 376.382"/><path d="M 285.849 376.382 L 543.849 376.382"/><path d="M 543.849 376.382 L 543.849 366.382"/><path d="M 543.849 366.382 L 549.849 366.382"/><path d="M 549.849 366.382 L 549.849 376.382"/><path d="M 549.849 376.382 L 728.389 376.382"/><path d="M 725.193 366.382 L 728.389 376.382"/><path d="M 737.766 356.991 L 725.193 366.382"/><path d="M 733.201 342.706 L 737.766 356.991"/><path d="M 723.675 345.75 L 733.201 342.706"/><path d="M 721.849 340.035 L 723.675 345.75"/><path d="M 731.374 336.991 L 721.849 340.035"/><path d="M 728.178 326.991 L 731.374 336.991"/><path d="M 712.604 326.991 L 728.178 326.991"/><path d="M 705.227 303.908 L 712.604 326.991"/><path d="M 717.947 294.976 L 705.227 303.908"/><path d="M 708.159 264.348 L 717.947 294.976"/><path d="M 692.585 264.348 L 708.159 264.348"/><path d="M 677.65 217.618 L 692.585 264.348"/><path d="M 140.18 217.618 L 677.65 217.618"/><circle cx="701.68" cy="276.925" r="1.7"/><circle cx="135.855" cy="280.325" r="1.7"/></g><g stroke="rgb(0, 0, 0)" stroke-width="0.13" stroke-linecap="butt" stroke-linejoin="miter" fill="none"><path d="M 409.883 412.538 L 412.288 412.538 L 412.288 412.104 L 410.387 412.104 L 410.493 411.867 L 410.674 411.67 L 411.234 411.312 L 411.532 411.161 L 411.865 410.944 L 412.102 410.692 L 412.238 410.394 L 412.288 410.056 L 412.202 409.633 L 411.965 409.3 L 411.602 409.088 L 411.133 409.013 L 410.649 409.098 L 410.281 409.335 L 410.044 409.714 L 409.963 410.213 L 409.963 410.283 L 410.422 410.283 L 410.422 410.243 L 410.468 409.9 L 410.604 409.648 L 410.821 409.487 L 411.108 409.431 L 411.401 409.482 L 411.617 409.608 L 411.759 409.804 L 411.809 410.051 L 411.774 410.283 L 411.678 410.48 L 411.517 410.652 L 411.295 410.803 L 410.997 410.964 L 410.503 411.277 L 410.155 411.61 L 409.948 412.013 L 409.883 412.523 L 409.883 412.538 L 409.883 412.538 z M 413.598 411.625 L 413.709 412.038 L 413.956 412.361 L 414.32 412.563 L 414.784 412.639 L 415.293 412.548 L 415.691 412.301 L 415.944 411.907 L 416.039 411.403 L 415.954 410.934 L 415.712 410.566 L 415.333 410.329 L 414.844 410.243 L 414.466 410.304 L 414.173 410.47 L 414.315 409.527 L 415.848 409.527 L 415.848 409.113 L 413.977 409.113 L 413.699 410.969 L 414.103 410.969 L 414.395 410.732 L 414.768 410.647 L 415.091 410.702 L 415.338 410.863 L 415.495 411.111 L 415.55 411.428 L 415.495 411.746 L 415.333 411.993 L 415.086 412.149 L 414.768 412.205 L 414.501 412.17 L 414.294 412.054 L 414.143 411.872 L 414.067 411.625 L 413.598 411.625 L 413.598 411.625 z M 417.96 410.652 L 417.703 410.793 L 417.526 410.989 L 417.415 411.237 L 417.38 411.534 L 417.461 411.983 L 417.693 412.331 L 418.071 412.553 L 418.585 412.639 L 419.095 412.553 L 419.473 412.331 L 419.705 411.983 L 419.79 411.534 L 419.75 411.237 L 419.644 410.989 L 419.463 410.793 L 419.211 410.652 L 419.412 410.531 L 419.553 410.364 L 419.639 410.162 L 419.669 409.915 L 419.589 409.557 L 419.377 409.27 L 419.034 409.083 L 418.585 409.013 L 418.131 409.083 L 417.788 409.27 L 417.571 409.557 L 417.496 409.915 L 417.521 410.162 L 417.607 410.364 L 417.96 410.652 L 417.96 410.652 z M 417.864 411.524 L 417.909 411.257 L 418.056 411.055 L 418.283 410.924 L 418.585 410.879 L 418.883 410.924 L 419.11 411.055 L 419.256 411.257 L 419.306 411.524 L 419.256 411.812 L 419.11 412.028 L 418.883 412.17 L 418.585 412.215 L 418.283 412.17 L 418.056 412.028 L 417.909 411.812 L 417.864 411.524 L 417.864 411.524 z M 417.975 409.956 L 418.015 409.734 L 418.136 409.562 L 418.328 409.456 L 418.585 409.416 L 418.837 409.456 L 419.029 409.562 L 419.15 409.734 L 419.195 409.956 L 419.15 410.183 L 419.029 410.359 L 418.837 410.475 L 418.585 410.51 L 418.328 410.47 L 418.136 410.359 L 418.015 410.183 L 417.975 409.956 L 417.975 409.956 z" stroke="none" fill-rule="evenodd" fill="rgb(0, 0, 0)"/><path d="M 287.781 414.02 L 285.849 414.538 L 287.781 415.055"/><path d="M 541.917 415.055 L 543.849 414.538 L 541.917 414.02"/><path d="M 285.849 414.538 L 543.849 414.538"/></g></svg>