<?xml version="1.0" encoding="utf-8" ?><!DOCTYPE svg PUBLIC "-//W3C//DTD SVG 1.1//EN" "http://www.w3.org/Graphics/SVG/1.1/DTD/svg11.dtd" 
[ <!ATTLIST svg 
  xmlns:dsy CDATA #FIXED "http://www.3ds.com/print"  
    dsy:text-version CDATA #IMPLIED > 

  <!ATTLIST text 
  xmlns:dsy CDATA #FIXED "http://www.3ds.com/print" 
    dsy:text-version CDATA #IMPLIED > 
]><svg xmlns="http://www.w3.org/2000/svg" xmlns:dsy="http://www.3ds.com/print" dsy:text-version="18000" width="841" height="594" viewBox="0 0 841 594" version="1.1"><g stroke="rgb(0, 0, 0)" stroke-width="0.13" stroke-linecap="butt" stroke-linejoin="miter" fill="none"><path d="M 388.5 337 L 378.862 337"/><path d="M 388.5 257 L 378.862 257"/></g><g stroke="rgb(0, 0, 0)" stroke-width="0.35" stroke-linecap="butt" stroke-linejoin="miter" fill="none"><path d="M 450.5 312 L 450.5 337"/><path d="M 435.5 312 L 450.5 312"/><path d="M 410.5 312 L 435.5 312"/><path d="M 410.5 282 L 410.5 312"/><path d="M 440.5 282 A 15 15 0 1 0 410.5 282"/><path d="M 440.5 282 L 450.5 282"/><path d="M 450.5 282 L 450.5 257"/><path d="M 390.5 257 L 450.5 257"/><path d="M 390.5 257 L 390.5 337"/><path d="M 390.5 337 L 422.5 337"/><path d="M 422.5 327 L 422.5 337"/><path d="M 428.5 327 L 422.5 327"/><path d="M 428.5 337 L 428.5 327"/><path d="M 450.5 337 L 428.5 337"/></g><g stroke="rgb(0, 0, 0)" stroke-width="0.13" stroke-linecap="butt" stroke-linejoin="miter" fill="none"><path d="M 376.976 299.493 L 377.117 299.751 L 377.314 299.927 L 377.561 300.038 L 377.858 300.073 L 378.307 299.993 L 378.655 299.761 L 378.877 299.382 L 378.963 298.868 L 378.877 298.359 L 378.655 297.98 L 378.307 297.748 L 377.858 297.663 L 377.561 297.703 L 377.314 297.809 L 377.117 297.99 L 376.976 298.243 L 376.855 298.041 L 376.688 297.9 L 376.487 297.814 L 376.24 297.784 L 375.881 297.864 L 375.594 298.076 L 375.407 298.419 L 375.337 298.868 L 375.407 299.322 L 375.594 299.665 L 375.881 299.882 L 376.24 299.957 L 376.487 299.932 L 376.688 299.846 L 376.976 299.493 L 376.976 299.493 z M 377.848 299.589 L 377.581 299.544 L 377.379 299.398 L 377.248 299.171 L 377.203 298.868 L 377.248 298.57 L 377.379 298.344 L 377.581 298.197 L 377.848 298.147 L 378.136 298.197 L 378.353 298.344 L 378.494 298.57 L 378.539 298.868 L 378.494 299.171 L 378.353 299.398 L 378.136 299.544 L 377.848 299.589 L 377.848 299.589 z M 376.28 299.478 L 376.058 299.438 L 375.887 299.317 L 375.781 299.125 L 375.74 298.868 L 375.781 298.616 L 375.887 298.424 L 376.058 298.303 L 376.28 298.258 L 376.507 298.303 L 376.683 298.424 L 376.799 298.616 L 376.835 298.868 L 376.794 299.125 L 376.683 299.317 L 376.507 299.438 L 376.28 299.478 L 376.28 299.478 z M 377.152 296.347 L 377.944 296.272 L 378.509 296.035 L 378.852 295.656 L 378.963 295.132 L 378.852 294.613 L 378.509 294.234 L 377.944 294.002 L 377.152 293.922 L 376.366 294.002 L 376.053 294.098 L 375.796 294.234 L 375.453 294.613 L 375.337 295.132 L 375.453 295.656 L 375.801 296.035 L 376.366 296.272 L 377.152 296.347 L 377.152 296.347 z M 377.152 295.863 L 376.542 295.823 L 376.103 295.697 L 375.846 295.47 L 375.755 295.132 L 375.846 294.799 L 376.103 294.572 L 376.542 294.446 L 377.152 294.406 L 377.768 294.446 L 378.206 294.572 L 378.464 294.799 L 378.549 295.132 L 378.464 295.47 L 378.206 295.697 L 377.768 295.823 L 377.152 295.863 L 377.152 295.863 z" stroke="none" fill-rule="evenodd" fill="rgb(0, 0, 0)"/><path d="M 381.38 258.932 L 380.862 257 L 380.344 258.932"/><path d="M 380.344 335.068 L 380.862 337 L 381.38 335.068"/><path d="M 380.862 337 L 380.862 257"/></g></svg>