<?xml version="1.0" encoding="utf-8" ?><!DOCTYPE svg PUBLIC "-//W3C//DTD SVG 1.1//EN" "http://www.w3.org/Graphics/SVG/1.1/DTD/svg11.dtd" 
[ <!ATTLIST svg 
  xmlns:dsy CDATA #FIXED "http://www.3ds.com/print"  
    dsy:text-version CDATA #IMPLIED > 

  <!ATTLIST text 
  xmlns:dsy CDATA #FIXED "http://www.3ds.com/print" 
    dsy:text-version CDATA #IMPLIED > 
]><svg xmlns="http://www.w3.org/2000/svg" xmlns:dsy="http://www.3ds.com/print" dsy:text-version="18000" width="841" height="594" viewBox="0 0 841 594" version="1.1"><g stroke="rgb(0, 0, 0)" stroke-width="0.13" stroke-linecap="butt" stroke-linejoin="miter" fill="none"><path d="M 357.76 277.5 L 357.76 268.018"/><path d="M 385.26 277.5 L 385.26 268.018"/></g><g stroke="rgb(0, 0, 0)" stroke-width="0.35" stroke-linecap="butt" stroke-linejoin="miter" fill="none"><path d="M 357.76 304.5 L 357.76 314.5"/><path d="M 357.76 314.5 L 385.26 314.5"/><path d="M 385.26 314.5 L 385.26 300"/><path d="M 375.26 300 L 385.26 300"/><path d="M 375.26 294 L 375.26 300"/><path d="M 385.26 294 L 375.26 294"/><path d="M 385.26 279.5 L 385.26 294"/><path d="M 357.76 279.5 L 385.26 279.5"/><path d="M 357.76 289.5 L 357.76 279.5"/><path d="M 357.76 304.5 A 7.5 7.5 0 0 0 357.76 289.5"/></g><g stroke="rgb(0, 0, 0)" stroke-width="0.13" stroke-linecap="butt" stroke-linejoin="miter" fill="none"><path d="M 364.675 268.018 L 367.081 268.018 L 367.081 267.584 L 365.18 267.584 L 365.286 267.347 L 365.467 267.15 L 366.027 266.792 L 366.325 266.641 L 366.657 266.424 L 366.894 266.172 L 367.031 265.874 L 367.081 265.536 L 366.995 265.113 L 366.758 264.78 L 366.395 264.568 L 365.926 264.492 L 365.442 264.578 L 365.074 264.815 L 364.837 265.193 L 364.756 265.693 L 364.756 265.763 L 365.215 265.763 L 365.215 265.723 L 365.26 265.38 L 365.397 265.128 L 365.613 264.967 L 365.901 264.911 L 366.193 264.961 L 366.41 265.088 L 366.551 265.284 L 366.602 265.531 L 366.567 265.763 L 366.471 265.96 L 366.309 266.132 L 366.087 266.283 L 365.79 266.444 L 365.296 266.757 L 364.948 267.09 L 364.741 267.493 L 364.675 268.003 L 364.675 268.018 L 364.675 268.018 z M 368.941 268.018 L 369.45 268.018 L 369.617 267.186 L 369.909 266.409 L 370.323 265.688 L 370.862 265.012 L 370.862 264.593 L 368.462 264.593 L 368.462 265.052 L 370.378 265.052 L 369.824 265.733 L 369.405 266.444 L 369.112 267.201 L 368.941 268.018 L 368.941 268.018 z M 373.03 268.018 L 373.726 268.018 L 373.726 267.266 L 373.03 267.266 L 373.03 268.018 L 373.03 268.018 z M 375.863 267.105 L 375.974 267.518 L 376.221 267.841 L 376.584 268.043 L 377.048 268.119 L 377.558 268.028 L 377.956 267.781 L 378.208 267.387 L 378.304 266.883 L 378.218 266.414 L 377.976 266.046 L 377.598 265.809 L 377.109 265.723 L 376.731 265.784 L 376.438 265.95 L 376.579 265.007 L 378.113 265.007 L 378.113 264.593 L 376.242 264.593 L 375.964 266.449 L 376.368 266.449 L 376.66 266.212 L 377.033 266.126 L 377.356 266.182 L 377.603 266.343 L 377.76 266.59 L 377.815 266.908 L 377.76 267.226 L 377.598 267.473 L 377.351 267.629 L 377.033 267.685 L 376.766 267.65 L 376.559 267.534 L 376.408 267.352 L 376.332 267.105 L 375.863 267.105 L 375.863 267.105 z" stroke="none" fill-rule="evenodd" fill="rgb(0, 0, 0)"/><path d="M 383.328 270.535 L 385.26 270.018 L 383.328 269.5"/><path d="M 359.692 269.5 L 357.76 270.018 L 359.692 270.535"/><path d="M 357.76 270.018 L 385.26 270.018"/></g></svg>