G04 EAGLE Gerber RS-274X export*
G75*
%MOMM*%
%FSLAX34Y34*%
%LPD*%
%INTop Copper*%
%IPPOS*%
%AMOC8*
5,1,8,0,0,1.08239X$1,22.5*%
G01*
%ADD10R,1.258000X1.258000*%
%ADD11C,1.258000*%
%ADD12R,1.100000X1.000000*%
%ADD13R,1.000000X1.100000*%
%ADD14R,0.800000X0.800000*%
%ADD15R,2.100000X1.000000*%
%ADD16R,5.850000X4.900000*%
%ADD17R,1.150000X0.600000*%
%ADD18R,1.981200X0.558800*%
%ADD19C,1.508000*%
%ADD20C,0.152400*%
%ADD21C,0.756400*%

G36*
X325634Y22902D02*
X325634Y22902D01*
X325653Y22900D01*
X325755Y22922D01*
X325857Y22939D01*
X325874Y22948D01*
X325894Y22952D01*
X325983Y23005D01*
X326074Y23054D01*
X326088Y23068D01*
X326105Y23078D01*
X326172Y23157D01*
X326244Y23232D01*
X326252Y23250D01*
X326265Y23265D01*
X326304Y23361D01*
X326347Y23455D01*
X326349Y23475D01*
X326357Y23493D01*
X326375Y23660D01*
X326375Y30755D01*
X326361Y30846D01*
X326353Y30936D01*
X326341Y30966D01*
X326336Y30998D01*
X326293Y31079D01*
X326257Y31163D01*
X326231Y31195D01*
X326220Y31216D01*
X326197Y31238D01*
X326152Y31294D01*
X309604Y47842D01*
X309530Y47895D01*
X309460Y47955D01*
X309430Y47967D01*
X309404Y47986D01*
X309317Y48013D01*
X309232Y48047D01*
X309191Y48051D01*
X309169Y48058D01*
X309137Y48057D01*
X309065Y48065D01*
X297878Y48065D01*
X296985Y48958D01*
X296985Y62802D01*
X297878Y63695D01*
X311722Y63695D01*
X312615Y62802D01*
X312615Y51615D01*
X312629Y51524D01*
X312637Y51434D01*
X312649Y51404D01*
X312654Y51372D01*
X312697Y51291D01*
X312733Y51207D01*
X312759Y51175D01*
X312770Y51154D01*
X312793Y51132D01*
X312838Y51076D01*
X316454Y47460D01*
X316512Y47418D01*
X316564Y47369D01*
X316611Y47347D01*
X316653Y47317D01*
X316722Y47296D01*
X316787Y47265D01*
X316839Y47260D01*
X316889Y47244D01*
X316960Y47246D01*
X317031Y47238D01*
X317082Y47249D01*
X317134Y47251D01*
X317202Y47275D01*
X317272Y47290D01*
X317317Y47317D01*
X317365Y47335D01*
X317421Y47380D01*
X317483Y47417D01*
X317517Y47456D01*
X317557Y47489D01*
X317596Y47549D01*
X317643Y47604D01*
X317662Y47652D01*
X317690Y47696D01*
X317708Y47765D01*
X317735Y47832D01*
X317743Y47903D01*
X317751Y47934D01*
X317749Y47958D01*
X317753Y47998D01*
X317753Y55167D01*
X327152Y64566D01*
X327205Y64640D01*
X327265Y64710D01*
X327277Y64740D01*
X327296Y64766D01*
X327323Y64853D01*
X327357Y64938D01*
X327361Y64979D01*
X327368Y65001D01*
X327367Y65033D01*
X327375Y65105D01*
X327375Y74212D01*
X328268Y75105D01*
X340532Y75105D01*
X341425Y74212D01*
X341425Y62948D01*
X340532Y62055D01*
X331425Y62055D01*
X331334Y62041D01*
X331244Y62033D01*
X331214Y62021D01*
X331182Y62016D01*
X331101Y61973D01*
X331017Y61937D01*
X330985Y61911D01*
X330964Y61900D01*
X330942Y61877D01*
X330886Y61832D01*
X322550Y53496D01*
X322497Y53422D01*
X322437Y53352D01*
X322425Y53322D01*
X322406Y53296D01*
X322379Y53209D01*
X322345Y53124D01*
X322341Y53083D01*
X322334Y53061D01*
X322335Y53029D01*
X322327Y52957D01*
X322327Y41903D01*
X322328Y41894D01*
X322328Y41891D01*
X322331Y41873D01*
X322341Y41812D01*
X322349Y41722D01*
X322361Y41692D01*
X322366Y41660D01*
X322409Y41579D01*
X322445Y41495D01*
X322471Y41463D01*
X322482Y41442D01*
X322505Y41420D01*
X322550Y41364D01*
X330226Y33688D01*
X330300Y33635D01*
X330370Y33575D01*
X330400Y33563D01*
X330426Y33544D01*
X330513Y33517D01*
X330598Y33483D01*
X330639Y33479D01*
X330661Y33472D01*
X330693Y33473D01*
X330765Y33465D01*
X336532Y33465D01*
X337425Y32572D01*
X337425Y23660D01*
X337428Y23640D01*
X337426Y23621D01*
X337448Y23519D01*
X337464Y23417D01*
X337474Y23400D01*
X337478Y23380D01*
X337531Y23291D01*
X337580Y23200D01*
X337594Y23186D01*
X337604Y23169D01*
X337683Y23102D01*
X337758Y23031D01*
X337776Y23022D01*
X337791Y23009D01*
X337887Y22970D01*
X337981Y22927D01*
X338001Y22925D01*
X338019Y22917D01*
X338186Y22899D01*
X346598Y22899D01*
X346618Y22902D01*
X346637Y22900D01*
X346739Y22922D01*
X346841Y22939D01*
X346858Y22948D01*
X346878Y22952D01*
X346967Y23005D01*
X347058Y23054D01*
X347072Y23068D01*
X347089Y23078D01*
X347156Y23157D01*
X347228Y23232D01*
X347236Y23250D01*
X347249Y23265D01*
X347288Y23361D01*
X347331Y23455D01*
X347333Y23475D01*
X347341Y23493D01*
X347359Y23660D01*
X347359Y26417D01*
X353138Y26417D01*
X353158Y26420D01*
X353177Y26418D01*
X353279Y26440D01*
X353381Y26457D01*
X353398Y26466D01*
X353418Y26470D01*
X353507Y26523D01*
X353598Y26572D01*
X353612Y26586D01*
X353629Y26596D01*
X353696Y26675D01*
X353767Y26750D01*
X353776Y26768D01*
X353789Y26783D01*
X353828Y26879D01*
X353871Y26973D01*
X353873Y26993D01*
X353881Y27011D01*
X353899Y27178D01*
X353899Y27941D01*
X353901Y27941D01*
X353901Y27178D01*
X353904Y27158D01*
X353902Y27139D01*
X353924Y27037D01*
X353941Y26935D01*
X353950Y26918D01*
X353954Y26898D01*
X354007Y26809D01*
X354056Y26718D01*
X354070Y26704D01*
X354080Y26687D01*
X354159Y26620D01*
X354234Y26549D01*
X354252Y26540D01*
X354267Y26527D01*
X354363Y26488D01*
X354457Y26445D01*
X354477Y26443D01*
X354495Y26435D01*
X354662Y26417D01*
X360441Y26417D01*
X360441Y23660D01*
X360444Y23640D01*
X360442Y23621D01*
X360464Y23519D01*
X360480Y23417D01*
X360490Y23400D01*
X360494Y23380D01*
X360547Y23291D01*
X360596Y23200D01*
X360610Y23186D01*
X360620Y23169D01*
X360699Y23102D01*
X360774Y23031D01*
X360792Y23022D01*
X360807Y23009D01*
X360903Y22970D01*
X360997Y22927D01*
X361017Y22925D01*
X361035Y22917D01*
X361202Y22899D01*
X484340Y22899D01*
X484360Y22902D01*
X484379Y22900D01*
X484481Y22922D01*
X484583Y22939D01*
X484600Y22948D01*
X484620Y22952D01*
X484709Y23005D01*
X484800Y23054D01*
X484814Y23068D01*
X484831Y23078D01*
X484898Y23157D01*
X484969Y23232D01*
X484978Y23250D01*
X484991Y23265D01*
X485030Y23361D01*
X485073Y23455D01*
X485075Y23475D01*
X485083Y23493D01*
X485101Y23660D01*
X485101Y203200D01*
X485098Y203220D01*
X485100Y203239D01*
X485078Y203341D01*
X485061Y203443D01*
X485052Y203460D01*
X485048Y203480D01*
X484995Y203569D01*
X484946Y203660D01*
X484932Y203674D01*
X484922Y203691D01*
X484843Y203758D01*
X484768Y203830D01*
X484750Y203838D01*
X484735Y203851D01*
X484639Y203890D01*
X484545Y203933D01*
X484525Y203935D01*
X484507Y203943D01*
X484340Y203961D01*
X479124Y203961D01*
X479109Y203959D01*
X479093Y203961D01*
X478927Y203935D01*
X473344Y202439D01*
X466456Y202439D01*
X460873Y203935D01*
X460857Y203937D01*
X460842Y203943D01*
X460676Y203961D01*
X445261Y203961D01*
X445261Y219376D01*
X445259Y219391D01*
X445261Y219407D01*
X445235Y219573D01*
X443739Y225156D01*
X443739Y232044D01*
X445235Y237627D01*
X445237Y237643D01*
X445243Y237658D01*
X445261Y237824D01*
X445261Y243040D01*
X445258Y243060D01*
X445260Y243079D01*
X445238Y243181D01*
X445222Y243283D01*
X445212Y243300D01*
X445208Y243320D01*
X445155Y243409D01*
X445106Y243500D01*
X445092Y243514D01*
X445082Y243531D01*
X445003Y243598D01*
X444928Y243669D01*
X444910Y243678D01*
X444895Y243691D01*
X444799Y243730D01*
X444705Y243773D01*
X444685Y243775D01*
X444667Y243783D01*
X444500Y243801D01*
X266700Y243801D01*
X266680Y243798D01*
X266661Y243800D01*
X266559Y243778D01*
X266457Y243761D01*
X266440Y243752D01*
X266420Y243748D01*
X266331Y243695D01*
X266240Y243646D01*
X266226Y243632D01*
X266209Y243622D01*
X266142Y243543D01*
X266071Y243468D01*
X266062Y243450D01*
X266049Y243435D01*
X266010Y243339D01*
X265967Y243245D01*
X265965Y243225D01*
X265957Y243207D01*
X265939Y243040D01*
X265939Y126057D01*
X265950Y125987D01*
X265952Y125915D01*
X265970Y125866D01*
X265979Y125815D01*
X266012Y125751D01*
X266037Y125684D01*
X266069Y125643D01*
X266094Y125597D01*
X266146Y125548D01*
X266190Y125492D01*
X266234Y125464D01*
X266272Y125428D01*
X266337Y125398D01*
X266397Y125359D01*
X266448Y125346D01*
X266495Y125324D01*
X266566Y125316D01*
X266636Y125299D01*
X266688Y125303D01*
X266739Y125297D01*
X266810Y125312D01*
X266881Y125318D01*
X266929Y125338D01*
X266980Y125349D01*
X267041Y125386D01*
X267107Y125414D01*
X267163Y125459D01*
X267191Y125476D01*
X267206Y125493D01*
X267238Y125519D01*
X268946Y127227D01*
X273148Y127227D01*
X273168Y127230D01*
X273187Y127228D01*
X273289Y127250D01*
X273391Y127266D01*
X273408Y127276D01*
X273428Y127280D01*
X273517Y127333D01*
X273608Y127382D01*
X273622Y127396D01*
X273639Y127406D01*
X273706Y127485D01*
X273778Y127560D01*
X273786Y127578D01*
X273799Y127593D01*
X273838Y127689D01*
X273881Y127783D01*
X273883Y127803D01*
X273891Y127821D01*
X273909Y127988D01*
X273909Y141674D01*
X274082Y142321D01*
X274417Y142900D01*
X274890Y143373D01*
X275469Y143708D01*
X276116Y143881D01*
X304177Y143881D01*
X304177Y117602D01*
X304180Y117582D01*
X304178Y117563D01*
X304200Y117461D01*
X304217Y117359D01*
X304226Y117342D01*
X304230Y117322D01*
X304283Y117233D01*
X304332Y117142D01*
X304346Y117128D01*
X304356Y117111D01*
X304435Y117044D01*
X304510Y116973D01*
X304528Y116964D01*
X304543Y116951D01*
X304639Y116912D01*
X304733Y116869D01*
X304753Y116867D01*
X304771Y116859D01*
X304938Y116841D01*
X305701Y116841D01*
X305701Y116839D01*
X304938Y116839D01*
X304918Y116836D01*
X304899Y116838D01*
X304797Y116816D01*
X304695Y116799D01*
X304678Y116790D01*
X304658Y116786D01*
X304569Y116733D01*
X304478Y116684D01*
X304464Y116670D01*
X304447Y116660D01*
X304380Y116581D01*
X304309Y116506D01*
X304300Y116488D01*
X304287Y116473D01*
X304248Y116377D01*
X304205Y116283D01*
X304203Y116263D01*
X304195Y116245D01*
X304177Y116078D01*
X304177Y89799D01*
X278492Y89799D01*
X278422Y89788D01*
X278350Y89786D01*
X278301Y89768D01*
X278250Y89760D01*
X278186Y89726D01*
X278119Y89701D01*
X278078Y89669D01*
X278032Y89644D01*
X277983Y89593D01*
X277927Y89548D01*
X277899Y89504D01*
X277863Y89466D01*
X277833Y89401D01*
X277794Y89341D01*
X277781Y89290D01*
X277759Y89243D01*
X277751Y89172D01*
X277734Y89102D01*
X277738Y89050D01*
X277732Y88999D01*
X277747Y88928D01*
X277753Y88857D01*
X277773Y88809D01*
X277784Y88758D01*
X277821Y88697D01*
X277849Y88631D01*
X277894Y88575D01*
X277911Y88547D01*
X277928Y88532D01*
X277954Y88500D01*
X278024Y88430D01*
X278098Y88376D01*
X278168Y88317D01*
X278198Y88305D01*
X278224Y88286D01*
X278311Y88259D01*
X278396Y88225D01*
X278437Y88221D01*
X278459Y88214D01*
X278491Y88215D01*
X278563Y88207D01*
X360914Y88207D01*
X360934Y88210D01*
X360953Y88208D01*
X361055Y88230D01*
X361157Y88246D01*
X361174Y88256D01*
X361194Y88260D01*
X361283Y88313D01*
X361374Y88362D01*
X361388Y88376D01*
X361405Y88386D01*
X361472Y88465D01*
X361544Y88540D01*
X361552Y88558D01*
X361565Y88573D01*
X361604Y88669D01*
X361647Y88763D01*
X361649Y88783D01*
X361657Y88801D01*
X361675Y88968D01*
X361675Y99672D01*
X362568Y100565D01*
X384832Y100565D01*
X385725Y99672D01*
X385725Y91924D01*
X385739Y91834D01*
X385747Y91743D01*
X385759Y91714D01*
X385764Y91682D01*
X385807Y91601D01*
X385843Y91517D01*
X385869Y91485D01*
X385880Y91464D01*
X385903Y91442D01*
X385948Y91386D01*
X388904Y88430D01*
X390690Y86644D01*
X394386Y82948D01*
X394460Y82895D01*
X394530Y82835D01*
X394560Y82823D01*
X394586Y82804D01*
X394673Y82777D01*
X394758Y82743D01*
X394799Y82739D01*
X394821Y82732D01*
X394853Y82733D01*
X394924Y82725D01*
X404032Y82725D01*
X404925Y81832D01*
X404925Y70568D01*
X404032Y69675D01*
X400948Y69675D01*
X400928Y69672D01*
X400909Y69674D01*
X400807Y69652D01*
X400705Y69636D01*
X400688Y69626D01*
X400668Y69622D01*
X400579Y69569D01*
X400488Y69520D01*
X400474Y69506D01*
X400457Y69496D01*
X400390Y69417D01*
X400318Y69342D01*
X400310Y69324D01*
X400297Y69309D01*
X400258Y69213D01*
X400215Y69119D01*
X400213Y69099D01*
X400205Y69081D01*
X400187Y68914D01*
X400187Y65778D01*
X400198Y65708D01*
X400200Y65636D01*
X400218Y65587D01*
X400226Y65536D01*
X400260Y65472D01*
X400285Y65405D01*
X400317Y65364D01*
X400342Y65318D01*
X400394Y65269D01*
X400438Y65213D01*
X400482Y65185D01*
X400520Y65149D01*
X400585Y65119D01*
X400645Y65080D01*
X400696Y65067D01*
X400743Y65045D01*
X400814Y65037D01*
X400884Y65020D01*
X400936Y65024D01*
X400987Y65018D01*
X401058Y65033D01*
X401129Y65039D01*
X401177Y65059D01*
X401228Y65070D01*
X401289Y65107D01*
X401355Y65135D01*
X401411Y65180D01*
X401439Y65197D01*
X401454Y65214D01*
X401486Y65240D01*
X402033Y65787D01*
X430538Y65787D01*
X430628Y65801D01*
X430719Y65809D01*
X430748Y65821D01*
X430780Y65826D01*
X430861Y65869D01*
X430945Y65905D01*
X430977Y65931D01*
X430998Y65942D01*
X431020Y65965D01*
X431076Y66010D01*
X444961Y79895D01*
X444988Y79933D01*
X445022Y79964D01*
X445060Y80032D01*
X445105Y80095D01*
X445118Y80139D01*
X445141Y80179D01*
X445154Y80256D01*
X445177Y80330D01*
X445176Y80376D01*
X445184Y80421D01*
X445173Y80498D01*
X445171Y80576D01*
X445155Y80619D01*
X445149Y80665D01*
X445113Y80734D01*
X445087Y80807D01*
X445058Y80843D01*
X445037Y80884D01*
X444981Y80938D01*
X444933Y80999D01*
X444894Y81024D01*
X444861Y81056D01*
X444742Y81122D01*
X444726Y81132D01*
X444721Y81133D01*
X444714Y81137D01*
X444525Y81215D01*
X441975Y83765D01*
X440595Y87097D01*
X440595Y90703D01*
X441975Y94035D01*
X444525Y96585D01*
X447857Y97965D01*
X466543Y97965D01*
X469875Y96585D01*
X472425Y94035D01*
X473805Y90703D01*
X473805Y87097D01*
X472425Y83765D01*
X469875Y81215D01*
X466543Y79835D01*
X451684Y79835D01*
X451594Y79821D01*
X451503Y79813D01*
X451474Y79801D01*
X451442Y79796D01*
X451361Y79753D01*
X451277Y79717D01*
X451245Y79691D01*
X451224Y79680D01*
X451202Y79657D01*
X451146Y79612D01*
X444147Y72613D01*
X444090Y72534D01*
X444028Y72459D01*
X444019Y72435D01*
X444004Y72414D01*
X443975Y72321D01*
X443940Y72230D01*
X443939Y72204D01*
X443931Y72179D01*
X443934Y72081D01*
X443930Y71984D01*
X443937Y71959D01*
X443938Y71933D01*
X443971Y71841D01*
X443998Y71748D01*
X444013Y71726D01*
X444022Y71702D01*
X444083Y71626D01*
X444139Y71546D01*
X444160Y71530D01*
X444176Y71510D01*
X444258Y71457D01*
X444336Y71399D01*
X444361Y71391D01*
X444383Y71377D01*
X444477Y71353D01*
X444570Y71323D01*
X444596Y71323D01*
X444621Y71317D01*
X444718Y71324D01*
X444816Y71325D01*
X444847Y71334D01*
X444867Y71336D01*
X444897Y71349D01*
X444977Y71372D01*
X447857Y72565D01*
X466543Y72565D01*
X469875Y71185D01*
X472425Y68635D01*
X473805Y65303D01*
X473805Y61697D01*
X472425Y58365D01*
X469875Y55815D01*
X466543Y54435D01*
X447857Y54435D01*
X444977Y55628D01*
X444882Y55650D01*
X444789Y55679D01*
X444763Y55678D01*
X444737Y55684D01*
X444641Y55675D01*
X444543Y55673D01*
X444519Y55664D01*
X444493Y55661D01*
X444404Y55622D01*
X444312Y55588D01*
X444292Y55572D01*
X444268Y55561D01*
X444196Y55495D01*
X444120Y55435D01*
X444106Y55413D01*
X444087Y55395D01*
X444040Y55310D01*
X443987Y55228D01*
X443981Y55202D01*
X443968Y55179D01*
X443951Y55083D01*
X443927Y54989D01*
X443929Y54963D01*
X443924Y54937D01*
X443939Y54841D01*
X443946Y54744D01*
X443956Y54720D01*
X443960Y54694D01*
X444004Y54607D01*
X444042Y54518D01*
X444063Y54492D01*
X444072Y54475D01*
X444095Y54451D01*
X444147Y54387D01*
X451146Y47388D01*
X451220Y47335D01*
X451290Y47275D01*
X451320Y47263D01*
X451346Y47244D01*
X451433Y47217D01*
X451518Y47183D01*
X451559Y47179D01*
X451581Y47172D01*
X451613Y47173D01*
X451684Y47165D01*
X466543Y47165D01*
X469875Y45785D01*
X472425Y43235D01*
X473805Y39903D01*
X473805Y36297D01*
X472425Y32965D01*
X469875Y30415D01*
X466543Y29035D01*
X447857Y29035D01*
X444525Y30415D01*
X441975Y32965D01*
X440595Y36297D01*
X440595Y39903D01*
X441975Y43235D01*
X444525Y45785D01*
X444714Y45863D01*
X444753Y45887D01*
X444797Y45903D01*
X444857Y45952D01*
X444923Y45993D01*
X444953Y46028D01*
X444989Y46057D01*
X445031Y46122D01*
X445080Y46182D01*
X445097Y46225D01*
X445122Y46264D01*
X445141Y46339D01*
X445169Y46412D01*
X445170Y46458D01*
X445182Y46502D01*
X445176Y46580D01*
X445179Y46658D01*
X445166Y46702D01*
X445163Y46747D01*
X445132Y46819D01*
X445110Y46894D01*
X445084Y46932D01*
X445066Y46974D01*
X444981Y47081D01*
X444970Y47096D01*
X444966Y47099D01*
X444961Y47105D01*
X431076Y60990D01*
X431002Y61043D01*
X430932Y61103D01*
X430902Y61115D01*
X430876Y61134D01*
X430789Y61161D01*
X430704Y61195D01*
X430663Y61199D01*
X430641Y61206D01*
X430609Y61205D01*
X430538Y61213D01*
X422958Y61213D01*
X422887Y61202D01*
X422815Y61200D01*
X422766Y61182D01*
X422715Y61174D01*
X422652Y61140D01*
X422584Y61115D01*
X422543Y61083D01*
X422498Y61058D01*
X422448Y61006D01*
X422392Y60962D01*
X422364Y60918D01*
X422328Y60880D01*
X422298Y60815D01*
X422259Y60755D01*
X422246Y60704D01*
X422225Y60657D01*
X422217Y60586D01*
X422199Y60516D01*
X422203Y60464D01*
X422197Y60413D01*
X422213Y60342D01*
X422218Y60271D01*
X422239Y60223D01*
X422250Y60172D01*
X422287Y60111D01*
X422315Y60045D01*
X422359Y59989D01*
X422376Y59961D01*
X422394Y59946D01*
X422419Y59914D01*
X422433Y59900D01*
X422768Y59321D01*
X422941Y58674D01*
X422941Y54863D01*
X415662Y54863D01*
X415642Y54860D01*
X415623Y54862D01*
X415521Y54840D01*
X415419Y54823D01*
X415402Y54814D01*
X415382Y54810D01*
X415293Y54757D01*
X415202Y54708D01*
X415188Y54694D01*
X415171Y54684D01*
X415104Y54605D01*
X415033Y54530D01*
X415024Y54512D01*
X415011Y54497D01*
X414972Y54401D01*
X414929Y54307D01*
X414927Y54287D01*
X414919Y54269D01*
X414901Y54102D01*
X414901Y53339D01*
X414899Y53339D01*
X414899Y54102D01*
X414896Y54122D01*
X414898Y54141D01*
X414876Y54243D01*
X414859Y54345D01*
X414850Y54362D01*
X414846Y54382D01*
X414793Y54471D01*
X414744Y54562D01*
X414730Y54576D01*
X414720Y54593D01*
X414641Y54660D01*
X414566Y54731D01*
X414548Y54740D01*
X414533Y54753D01*
X414437Y54792D01*
X414343Y54835D01*
X414323Y54837D01*
X414305Y54845D01*
X414138Y54863D01*
X406859Y54863D01*
X406859Y58674D01*
X407032Y59321D01*
X407367Y59900D01*
X407381Y59914D01*
X407422Y59972D01*
X407472Y60024D01*
X407494Y60071D01*
X407524Y60113D01*
X407545Y60182D01*
X407575Y60247D01*
X407581Y60299D01*
X407596Y60348D01*
X407595Y60420D01*
X407603Y60491D01*
X407592Y60542D01*
X407590Y60594D01*
X407566Y60662D01*
X407550Y60732D01*
X407524Y60776D01*
X407506Y60825D01*
X407461Y60881D01*
X407424Y60943D01*
X407385Y60977D01*
X407352Y61017D01*
X407292Y61056D01*
X407237Y61103D01*
X407189Y61122D01*
X407145Y61150D01*
X407076Y61168D01*
X407009Y61195D01*
X406938Y61203D01*
X406907Y61211D01*
X406883Y61209D01*
X406842Y61213D01*
X404521Y61213D01*
X404450Y61202D01*
X404378Y61200D01*
X404329Y61182D01*
X404278Y61174D01*
X404215Y61140D01*
X404147Y61115D01*
X404107Y61083D01*
X404061Y61058D01*
X404011Y61006D01*
X403955Y60962D01*
X403927Y60918D01*
X403891Y60880D01*
X403861Y60815D01*
X403822Y60755D01*
X403810Y60704D01*
X403788Y60657D01*
X403780Y60586D01*
X403762Y60516D01*
X403766Y60464D01*
X403761Y60413D01*
X403776Y60342D01*
X403781Y60271D01*
X403802Y60223D01*
X403813Y60172D01*
X403850Y60111D01*
X403878Y60045D01*
X403923Y59989D01*
X403939Y59961D01*
X403957Y59946D01*
X403983Y59914D01*
X404925Y58972D01*
X404925Y47708D01*
X404032Y46815D01*
X391768Y46815D01*
X390875Y47708D01*
X390875Y50292D01*
X390872Y50312D01*
X390874Y50331D01*
X390852Y50433D01*
X390836Y50535D01*
X390826Y50552D01*
X390822Y50572D01*
X390769Y50661D01*
X390720Y50752D01*
X390706Y50766D01*
X390696Y50783D01*
X390617Y50850D01*
X390542Y50922D01*
X390524Y50930D01*
X390509Y50943D01*
X390413Y50982D01*
X390319Y51025D01*
X390299Y51027D01*
X390281Y51035D01*
X390114Y51053D01*
X389576Y51053D01*
X389556Y51050D01*
X389537Y51052D01*
X389435Y51030D01*
X389333Y51014D01*
X389316Y51004D01*
X389296Y51000D01*
X389207Y50947D01*
X389116Y50898D01*
X389102Y50884D01*
X389085Y50874D01*
X389018Y50795D01*
X388946Y50720D01*
X388938Y50702D01*
X388925Y50687D01*
X388886Y50591D01*
X388843Y50497D01*
X388841Y50477D01*
X388833Y50459D01*
X388815Y50292D01*
X388815Y48958D01*
X387922Y48065D01*
X374078Y48065D01*
X373185Y48958D01*
X373185Y62802D01*
X374078Y63695D01*
X387922Y63695D01*
X388815Y62802D01*
X388815Y56388D01*
X388818Y56371D01*
X388816Y56354D01*
X388816Y56352D01*
X388816Y56349D01*
X388838Y56247D01*
X388854Y56145D01*
X388864Y56128D01*
X388868Y56108D01*
X388921Y56019D01*
X388970Y55928D01*
X388984Y55914D01*
X388994Y55897D01*
X389073Y55830D01*
X389148Y55758D01*
X389166Y55750D01*
X389181Y55737D01*
X389277Y55698D01*
X389371Y55655D01*
X389391Y55653D01*
X389409Y55645D01*
X389576Y55627D01*
X390114Y55627D01*
X390134Y55630D01*
X390153Y55628D01*
X390255Y55650D01*
X390357Y55666D01*
X390374Y55676D01*
X390394Y55680D01*
X390483Y55733D01*
X390574Y55782D01*
X390588Y55796D01*
X390605Y55806D01*
X390672Y55885D01*
X390744Y55960D01*
X390752Y55978D01*
X390765Y55993D01*
X390804Y56089D01*
X390847Y56183D01*
X390849Y56203D01*
X390857Y56221D01*
X390875Y56388D01*
X390875Y58972D01*
X391768Y59865D01*
X394852Y59865D01*
X394872Y59868D01*
X394891Y59866D01*
X394993Y59888D01*
X395095Y59904D01*
X395112Y59914D01*
X395132Y59918D01*
X395221Y59971D01*
X395312Y60020D01*
X395326Y60034D01*
X395343Y60044D01*
X395410Y60123D01*
X395482Y60198D01*
X395490Y60216D01*
X395503Y60231D01*
X395542Y60327D01*
X395585Y60421D01*
X395587Y60441D01*
X395595Y60459D01*
X395613Y60626D01*
X395613Y68914D01*
X395610Y68934D01*
X395612Y68953D01*
X395590Y69055D01*
X395574Y69157D01*
X395564Y69174D01*
X395560Y69194D01*
X395507Y69283D01*
X395458Y69374D01*
X395444Y69388D01*
X395434Y69405D01*
X395355Y69472D01*
X395280Y69544D01*
X395262Y69552D01*
X395247Y69565D01*
X395151Y69604D01*
X395057Y69647D01*
X395037Y69649D01*
X395019Y69657D01*
X394852Y69675D01*
X391768Y69675D01*
X390875Y70568D01*
X390875Y79676D01*
X390861Y79766D01*
X390853Y79857D01*
X390841Y79886D01*
X390836Y79918D01*
X390793Y79999D01*
X390757Y80083D01*
X390731Y80115D01*
X390720Y80136D01*
X390697Y80158D01*
X390652Y80214D01*
X387456Y83410D01*
X387382Y83463D01*
X387312Y83523D01*
X387282Y83535D01*
X387256Y83554D01*
X387169Y83581D01*
X387084Y83615D01*
X387043Y83619D01*
X387021Y83626D01*
X386989Y83625D01*
X386918Y83633D01*
X276353Y83633D01*
X269493Y90493D01*
X269493Y102877D01*
X269479Y102968D01*
X269471Y103058D01*
X269459Y103088D01*
X269454Y103120D01*
X269411Y103201D01*
X269375Y103285D01*
X269349Y103317D01*
X269338Y103338D01*
X269315Y103360D01*
X269270Y103416D01*
X267246Y105440D01*
X267172Y105493D01*
X267135Y105525D01*
X267128Y105532D01*
X267126Y105532D01*
X267102Y105553D01*
X267072Y105565D01*
X267046Y105584D01*
X266959Y105611D01*
X266950Y105614D01*
X266905Y105635D01*
X266896Y105636D01*
X266874Y105645D01*
X266833Y105649D01*
X266811Y105656D01*
X266779Y105655D01*
X266707Y105663D01*
X266700Y105663D01*
X266680Y105660D01*
X266661Y105662D01*
X266609Y105651D01*
X266565Y105650D01*
X266522Y105634D01*
X266457Y105624D01*
X266440Y105614D01*
X266420Y105610D01*
X266364Y105576D01*
X266334Y105565D01*
X266308Y105544D01*
X266240Y105508D01*
X266226Y105494D01*
X266209Y105484D01*
X266159Y105425D01*
X266142Y105412D01*
X266129Y105392D01*
X266071Y105330D01*
X266062Y105312D01*
X266049Y105297D01*
X266017Y105217D01*
X266009Y105205D01*
X266005Y105189D01*
X265967Y105107D01*
X265965Y105087D01*
X265957Y105069D01*
X265939Y104902D01*
X265939Y23660D01*
X265942Y23640D01*
X265940Y23621D01*
X265962Y23519D01*
X265979Y23417D01*
X265988Y23400D01*
X265992Y23380D01*
X266045Y23291D01*
X266094Y23200D01*
X266108Y23186D01*
X266118Y23169D01*
X266197Y23102D01*
X266272Y23031D01*
X266290Y23022D01*
X266305Y23009D01*
X266401Y22970D01*
X266495Y22927D01*
X266515Y22925D01*
X266533Y22917D01*
X266700Y22899D01*
X325614Y22899D01*
X325634Y22902D01*
G37*
%LPC*%
G36*
X409268Y92035D02*
X409268Y92035D01*
X408375Y92928D01*
X408375Y105192D01*
X409268Y106085D01*
X418375Y106085D01*
X418465Y106099D01*
X418556Y106107D01*
X418586Y106119D01*
X418618Y106124D01*
X418699Y106167D01*
X418783Y106203D01*
X418815Y106229D01*
X418836Y106240D01*
X418858Y106263D01*
X418914Y106308D01*
X419070Y106464D01*
X419112Y106522D01*
X419161Y106574D01*
X419183Y106621D01*
X419213Y106663D01*
X419234Y106732D01*
X419265Y106797D01*
X419270Y106849D01*
X419286Y106898D01*
X419284Y106970D01*
X419292Y107041D01*
X419281Y107092D01*
X419279Y107144D01*
X419255Y107212D01*
X419240Y107282D01*
X419213Y107327D01*
X419195Y107375D01*
X419150Y107431D01*
X419113Y107493D01*
X419074Y107527D01*
X419041Y107567D01*
X418981Y107606D01*
X418926Y107653D01*
X418878Y107672D01*
X418834Y107700D01*
X418765Y107718D01*
X418698Y107745D01*
X418627Y107753D01*
X418596Y107761D01*
X418573Y107759D01*
X418532Y107763D01*
X405128Y107763D01*
X405057Y107752D01*
X404985Y107750D01*
X404936Y107732D01*
X404885Y107724D01*
X404822Y107690D01*
X404754Y107665D01*
X404714Y107633D01*
X404668Y107608D01*
X404618Y107557D01*
X404562Y107512D01*
X404534Y107468D01*
X404498Y107430D01*
X404468Y107365D01*
X404429Y107305D01*
X404416Y107254D01*
X404395Y107207D01*
X404387Y107136D01*
X404369Y107066D01*
X404373Y107014D01*
X404367Y106963D01*
X404383Y106892D01*
X404388Y106821D01*
X404409Y106773D01*
X404420Y106722D01*
X404457Y106661D01*
X404485Y106595D01*
X404529Y106539D01*
X404546Y106511D01*
X404564Y106496D01*
X404589Y106464D01*
X404933Y106120D01*
X405268Y105541D01*
X405441Y104894D01*
X405441Y100583D01*
X398662Y100583D01*
X398642Y100580D01*
X398623Y100582D01*
X398521Y100560D01*
X398419Y100543D01*
X398402Y100534D01*
X398382Y100530D01*
X398293Y100477D01*
X398202Y100428D01*
X398188Y100414D01*
X398171Y100404D01*
X398104Y100325D01*
X398033Y100250D01*
X398024Y100232D01*
X398011Y100217D01*
X397972Y100121D01*
X397929Y100027D01*
X397927Y100007D01*
X397919Y99989D01*
X397901Y99822D01*
X397901Y99059D01*
X397899Y99059D01*
X397899Y99822D01*
X397896Y99842D01*
X397898Y99861D01*
X397876Y99963D01*
X397859Y100065D01*
X397850Y100082D01*
X397846Y100102D01*
X397793Y100191D01*
X397744Y100282D01*
X397730Y100296D01*
X397720Y100313D01*
X397641Y100380D01*
X397566Y100451D01*
X397548Y100460D01*
X397533Y100473D01*
X397437Y100512D01*
X397343Y100555D01*
X397323Y100557D01*
X397305Y100565D01*
X397138Y100583D01*
X390359Y100583D01*
X390359Y104894D01*
X390532Y105541D01*
X390867Y106120D01*
X391340Y106593D01*
X391592Y106739D01*
X391629Y106769D01*
X391671Y106791D01*
X391720Y106843D01*
X391777Y106888D01*
X391779Y106892D01*
X391782Y106894D01*
X391808Y106936D01*
X391840Y106970D01*
X391870Y107032D01*
X391910Y107095D01*
X391911Y107099D01*
X391913Y107103D01*
X391925Y107151D01*
X391944Y107193D01*
X391952Y107260D01*
X391970Y107334D01*
X391970Y107338D01*
X391971Y107342D01*
X391966Y107393D01*
X391971Y107437D01*
X391957Y107502D01*
X391951Y107579D01*
X391949Y107583D01*
X391949Y107587D01*
X391928Y107634D01*
X391919Y107677D01*
X391885Y107735D01*
X391855Y107805D01*
X391852Y107809D01*
X391850Y107812D01*
X391841Y107822D01*
X391807Y107865D01*
X391793Y107889D01*
X391778Y107901D01*
X391750Y107936D01*
X386333Y113353D01*
X386333Y132779D01*
X386322Y132850D01*
X386320Y132922D01*
X386302Y132971D01*
X386294Y133022D01*
X386260Y133085D01*
X386235Y133153D01*
X386203Y133193D01*
X386178Y133239D01*
X386127Y133289D01*
X386082Y133345D01*
X386038Y133373D01*
X386000Y133409D01*
X385935Y133439D01*
X385875Y133478D01*
X385824Y133490D01*
X385777Y133512D01*
X385706Y133520D01*
X385636Y133538D01*
X385584Y133534D01*
X385533Y133539D01*
X385462Y133524D01*
X385391Y133519D01*
X385343Y133498D01*
X385292Y133487D01*
X385231Y133450D01*
X385165Y133422D01*
X385109Y133377D01*
X385081Y133361D01*
X385066Y133343D01*
X385034Y133317D01*
X384832Y133115D01*
X362568Y133115D01*
X361675Y134008D01*
X361675Y145272D01*
X362568Y146165D01*
X363329Y146165D01*
X363399Y146176D01*
X363471Y146178D01*
X363520Y146196D01*
X363571Y146204D01*
X363635Y146238D01*
X363702Y146263D01*
X363743Y146295D01*
X363789Y146320D01*
X363838Y146372D01*
X363894Y146416D01*
X363922Y146460D01*
X363958Y146498D01*
X363988Y146563D01*
X364027Y146623D01*
X364040Y146674D01*
X364062Y146721D01*
X364070Y146792D01*
X364087Y146862D01*
X364083Y146914D01*
X364089Y146965D01*
X364074Y147036D01*
X364068Y147107D01*
X364048Y147155D01*
X364037Y147206D01*
X364000Y147267D01*
X363972Y147333D01*
X363927Y147389D01*
X363910Y147417D01*
X363893Y147432D01*
X363867Y147464D01*
X362448Y148883D01*
X362374Y148936D01*
X362305Y148995D01*
X362275Y149007D01*
X362249Y149026D01*
X362161Y149053D01*
X362077Y149087D01*
X362036Y149092D01*
X362013Y149099D01*
X361981Y149098D01*
X361910Y149106D01*
X357954Y149106D01*
X354846Y152214D01*
X354846Y156170D01*
X354831Y156260D01*
X354824Y156351D01*
X354811Y156381D01*
X354806Y156413D01*
X354763Y156493D01*
X354728Y156577D01*
X354702Y156609D01*
X354691Y156630D01*
X354668Y156652D01*
X354623Y156708D01*
X336948Y174383D01*
X336854Y174450D01*
X336760Y174521D01*
X336754Y174523D01*
X336748Y174526D01*
X336638Y174561D01*
X336526Y174597D01*
X336519Y174597D01*
X336513Y174599D01*
X336397Y174596D01*
X336280Y174595D01*
X336273Y174593D01*
X336268Y174592D01*
X336250Y174586D01*
X336119Y174548D01*
X334543Y173895D01*
X330937Y173895D01*
X327605Y175275D01*
X325055Y177825D01*
X323675Y181157D01*
X323675Y199843D01*
X325055Y203175D01*
X327605Y205725D01*
X330937Y207105D01*
X334543Y207105D01*
X337875Y205725D01*
X340425Y203175D01*
X341805Y199843D01*
X341805Y181157D01*
X340487Y177976D01*
X340461Y177863D01*
X340432Y177749D01*
X340433Y177743D01*
X340431Y177737D01*
X340442Y177620D01*
X340451Y177504D01*
X340454Y177498D01*
X340454Y177492D01*
X340502Y177384D01*
X340547Y177278D01*
X340552Y177272D01*
X340554Y177267D01*
X340567Y177253D01*
X340652Y177147D01*
X357857Y159942D01*
X357931Y159889D01*
X358000Y159830D01*
X358030Y159817D01*
X358056Y159799D01*
X358143Y159772D01*
X358228Y159738D01*
X358269Y159733D01*
X358292Y159726D01*
X358324Y159727D01*
X358395Y159719D01*
X362351Y159719D01*
X365459Y156611D01*
X365459Y152655D01*
X365474Y152565D01*
X365481Y152474D01*
X365494Y152444D01*
X365499Y152412D01*
X365542Y152332D01*
X365577Y152248D01*
X365603Y152216D01*
X365614Y152195D01*
X365637Y152173D01*
X365682Y152117D01*
X371411Y146388D01*
X371485Y146335D01*
X371555Y146275D01*
X371585Y146263D01*
X371611Y146244D01*
X371698Y146217D01*
X371783Y146183D01*
X371824Y146179D01*
X371846Y146172D01*
X371878Y146173D01*
X371950Y146165D01*
X384832Y146165D01*
X385034Y145963D01*
X385092Y145921D01*
X385144Y145871D01*
X385191Y145849D01*
X385233Y145819D01*
X385302Y145798D01*
X385367Y145768D01*
X385419Y145762D01*
X385469Y145747D01*
X385540Y145749D01*
X385611Y145741D01*
X385662Y145752D01*
X385714Y145753D01*
X385782Y145778D01*
X385852Y145793D01*
X385897Y145820D01*
X385945Y145837D01*
X386001Y145882D01*
X386063Y145919D01*
X386097Y145959D01*
X386137Y145991D01*
X386176Y146051D01*
X386223Y146106D01*
X386242Y146154D01*
X386270Y146198D01*
X386288Y146267D01*
X386315Y146334D01*
X386323Y146405D01*
X386331Y146437D01*
X386329Y146460D01*
X386333Y146501D01*
X386333Y150082D01*
X386319Y150173D01*
X386311Y150263D01*
X386299Y150293D01*
X386294Y150325D01*
X386251Y150406D01*
X386215Y150490D01*
X386189Y150522D01*
X386178Y150543D01*
X386155Y150565D01*
X386110Y150621D01*
X362348Y174383D01*
X362254Y174450D01*
X362160Y174521D01*
X362154Y174523D01*
X362148Y174526D01*
X362038Y174561D01*
X361926Y174597D01*
X361919Y174597D01*
X361913Y174599D01*
X361797Y174596D01*
X361680Y174595D01*
X361673Y174593D01*
X361668Y174592D01*
X361650Y174586D01*
X361519Y174548D01*
X359943Y173895D01*
X356337Y173895D01*
X353005Y175275D01*
X350455Y177825D01*
X349075Y181157D01*
X349075Y199843D01*
X350455Y203175D01*
X353005Y205725D01*
X356337Y207105D01*
X359943Y207105D01*
X363275Y205725D01*
X365825Y203175D01*
X367205Y199843D01*
X367205Y181157D01*
X365887Y177976D01*
X365861Y177863D01*
X365832Y177749D01*
X365833Y177743D01*
X365831Y177737D01*
X365842Y177620D01*
X365851Y177504D01*
X365854Y177498D01*
X365854Y177492D01*
X365902Y177384D01*
X365947Y177278D01*
X365952Y177272D01*
X365954Y177267D01*
X365967Y177253D01*
X366052Y177147D01*
X390639Y152560D01*
X390675Y152534D01*
X390704Y152502D01*
X390774Y152463D01*
X390839Y152416D01*
X390881Y152403D01*
X390919Y152382D01*
X390997Y152368D01*
X391074Y152344D01*
X391118Y152345D01*
X391161Y152337D01*
X391240Y152348D01*
X391320Y152350D01*
X391361Y152365D01*
X391404Y152372D01*
X391538Y152430D01*
X391551Y152435D01*
X391553Y152437D01*
X391558Y152439D01*
X391919Y152648D01*
X392566Y152821D01*
X396377Y152821D01*
X396377Y145542D01*
X396380Y145522D01*
X396378Y145503D01*
X396400Y145401D01*
X396417Y145299D01*
X396426Y145282D01*
X396430Y145262D01*
X396483Y145173D01*
X396532Y145082D01*
X396546Y145068D01*
X396556Y145051D01*
X396635Y144984D01*
X396710Y144913D01*
X396728Y144904D01*
X396743Y144891D01*
X396839Y144852D01*
X396933Y144809D01*
X396953Y144807D01*
X396971Y144799D01*
X397138Y144781D01*
X398662Y144781D01*
X398682Y144784D01*
X398701Y144782D01*
X398803Y144804D01*
X398905Y144821D01*
X398922Y144830D01*
X398942Y144834D01*
X399031Y144887D01*
X399122Y144936D01*
X399136Y144950D01*
X399153Y144960D01*
X399220Y145039D01*
X399291Y145114D01*
X399300Y145132D01*
X399313Y145147D01*
X399352Y145243D01*
X399395Y145337D01*
X399397Y145357D01*
X399405Y145375D01*
X399423Y145542D01*
X399423Y152821D01*
X403335Y152821D01*
X403344Y152822D01*
X403391Y152817D01*
X403395Y152818D01*
X403399Y152818D01*
X403515Y152844D01*
X403632Y152869D01*
X403635Y152871D01*
X403639Y152872D01*
X403740Y152934D01*
X403843Y152996D01*
X403845Y152998D01*
X403848Y153000D01*
X403925Y153091D01*
X404003Y153182D01*
X404004Y153186D01*
X404007Y153189D01*
X404049Y153298D01*
X404095Y153411D01*
X404095Y153415D01*
X404096Y153418D01*
X404097Y153430D01*
X404113Y153577D01*
X404113Y166378D01*
X404099Y166468D01*
X404091Y166559D01*
X404079Y166588D01*
X404074Y166620D01*
X404031Y166701D01*
X403995Y166785D01*
X403969Y166817D01*
X403958Y166838D01*
X403935Y166860D01*
X403890Y166916D01*
X392545Y178261D01*
X392507Y178288D01*
X392476Y178322D01*
X392408Y178360D01*
X392345Y178405D01*
X392301Y178418D01*
X392261Y178441D01*
X392184Y178454D01*
X392110Y178477D01*
X392064Y178476D01*
X392019Y178484D01*
X391942Y178473D01*
X391864Y178471D01*
X391821Y178455D01*
X391775Y178449D01*
X391706Y178413D01*
X391633Y178387D01*
X391597Y178358D01*
X391556Y178337D01*
X391502Y178281D01*
X391441Y178233D01*
X391416Y178194D01*
X391384Y178161D01*
X391318Y178042D01*
X391308Y178026D01*
X391307Y178021D01*
X391303Y178014D01*
X391225Y177825D01*
X388675Y175275D01*
X385343Y173895D01*
X381737Y173895D01*
X378405Y175275D01*
X375855Y177825D01*
X374475Y181157D01*
X374475Y199843D01*
X375855Y203175D01*
X378405Y205725D01*
X381737Y207105D01*
X385343Y207105D01*
X388675Y205725D01*
X391225Y203175D01*
X392605Y199843D01*
X392605Y184984D01*
X392619Y184894D01*
X392627Y184803D01*
X392639Y184774D01*
X392644Y184742D01*
X392687Y184661D01*
X392723Y184577D01*
X392749Y184545D01*
X392760Y184524D01*
X392783Y184502D01*
X392828Y184446D01*
X399827Y177447D01*
X399906Y177390D01*
X399981Y177328D01*
X400005Y177319D01*
X400026Y177304D01*
X400119Y177275D01*
X400210Y177240D01*
X400236Y177239D01*
X400261Y177231D01*
X400359Y177234D01*
X400456Y177230D01*
X400481Y177237D01*
X400507Y177238D01*
X400599Y177271D01*
X400692Y177298D01*
X400714Y177313D01*
X400738Y177322D01*
X400814Y177383D01*
X400894Y177439D01*
X400910Y177460D01*
X400930Y177476D01*
X400983Y177558D01*
X401041Y177636D01*
X401049Y177661D01*
X401063Y177683D01*
X401087Y177777D01*
X401117Y177870D01*
X401117Y177896D01*
X401123Y177921D01*
X401116Y178018D01*
X401115Y178116D01*
X401106Y178147D01*
X401104Y178167D01*
X401091Y178197D01*
X401068Y178277D01*
X399875Y181157D01*
X399875Y199843D01*
X401255Y203175D01*
X403805Y205725D01*
X407137Y207105D01*
X410743Y207105D01*
X414075Y205725D01*
X416625Y203175D01*
X418005Y199843D01*
X418005Y181157D01*
X417245Y179322D01*
X417230Y179258D01*
X417205Y179197D01*
X417196Y179115D01*
X417189Y179083D01*
X417190Y179063D01*
X417187Y179031D01*
X417187Y177128D01*
X417201Y177037D01*
X417209Y176947D01*
X417221Y176917D01*
X417226Y176885D01*
X417269Y176804D01*
X417305Y176720D01*
X417331Y176688D01*
X417342Y176667D01*
X417365Y176645D01*
X417410Y176589D01*
X426389Y167610D01*
X426463Y167557D01*
X426533Y167497D01*
X426563Y167485D01*
X426589Y167466D01*
X426676Y167439D01*
X426761Y167405D01*
X426802Y167401D01*
X426824Y167394D01*
X426856Y167395D01*
X426928Y167387D01*
X440287Y167387D01*
X440402Y167406D01*
X440518Y167423D01*
X440524Y167425D01*
X440530Y167426D01*
X440632Y167481D01*
X440737Y167534D01*
X440742Y167539D01*
X440747Y167542D01*
X440827Y167626D01*
X440909Y167710D01*
X440913Y167716D01*
X440916Y167720D01*
X440924Y167737D01*
X440990Y167857D01*
X441975Y170235D01*
X444525Y172785D01*
X447857Y174165D01*
X466543Y174165D01*
X469875Y172785D01*
X472425Y170235D01*
X473805Y166903D01*
X473805Y163297D01*
X472425Y159965D01*
X469875Y157415D01*
X466543Y156035D01*
X447857Y156035D01*
X444525Y157415D01*
X441975Y159965D01*
X440990Y162343D01*
X440928Y162443D01*
X440869Y162543D01*
X440864Y162547D01*
X440861Y162552D01*
X440770Y162627D01*
X440682Y162703D01*
X440676Y162705D01*
X440671Y162709D01*
X440563Y162751D01*
X440454Y162795D01*
X440446Y162796D01*
X440442Y162797D01*
X440423Y162798D01*
X440287Y162813D01*
X424718Y162813D01*
X418486Y169045D01*
X418428Y169087D01*
X418376Y169136D01*
X418329Y169158D01*
X418287Y169188D01*
X418218Y169209D01*
X418153Y169240D01*
X418101Y169245D01*
X418051Y169261D01*
X417980Y169259D01*
X417909Y169267D01*
X417858Y169256D01*
X417806Y169254D01*
X417738Y169230D01*
X417668Y169215D01*
X417623Y169188D01*
X417575Y169170D01*
X417519Y169125D01*
X417457Y169088D01*
X417423Y169049D01*
X417383Y169016D01*
X417344Y168956D01*
X417297Y168901D01*
X417278Y168853D01*
X417250Y168809D01*
X417232Y168740D01*
X417205Y168673D01*
X417197Y168602D01*
X417189Y168571D01*
X417191Y168547D01*
X417187Y168507D01*
X417187Y152566D01*
X417190Y152546D01*
X417188Y152527D01*
X417210Y152425D01*
X417226Y152323D01*
X417236Y152306D01*
X417240Y152286D01*
X417293Y152197D01*
X417342Y152106D01*
X417356Y152092D01*
X417366Y152075D01*
X417445Y152008D01*
X417520Y151936D01*
X417538Y151928D01*
X417553Y151915D01*
X417649Y151876D01*
X417743Y151833D01*
X417763Y151831D01*
X417781Y151823D01*
X417948Y151805D01*
X420532Y151805D01*
X421425Y150912D01*
X421425Y138648D01*
X420532Y137755D01*
X409448Y137755D01*
X409428Y137752D01*
X409409Y137754D01*
X409307Y137732D01*
X409205Y137716D01*
X409188Y137706D01*
X409168Y137702D01*
X409079Y137649D01*
X408988Y137600D01*
X408974Y137586D01*
X408957Y137576D01*
X408890Y137497D01*
X408818Y137422D01*
X408810Y137404D01*
X408797Y137389D01*
X408758Y137293D01*
X408715Y137199D01*
X408713Y137179D01*
X408705Y137161D01*
X408687Y136994D01*
X408687Y131683D01*
X408701Y131592D01*
X408709Y131502D01*
X408721Y131472D01*
X408726Y131440D01*
X408769Y131359D01*
X408805Y131275D01*
X408831Y131243D01*
X408842Y131222D01*
X408865Y131200D01*
X408910Y131144D01*
X410886Y129168D01*
X410960Y129115D01*
X411030Y129055D01*
X411060Y129043D01*
X411086Y129024D01*
X411173Y128997D01*
X411258Y128963D01*
X411299Y128959D01*
X411321Y128952D01*
X411353Y128953D01*
X411425Y128945D01*
X417496Y128945D01*
X417586Y128959D01*
X417677Y128967D01*
X417706Y128979D01*
X417738Y128984D01*
X417819Y129027D01*
X417903Y129063D01*
X417935Y129089D01*
X417956Y129100D01*
X417978Y129123D01*
X418034Y129168D01*
X429290Y140424D01*
X430853Y141987D01*
X440287Y141987D01*
X440402Y142006D01*
X440518Y142023D01*
X440524Y142025D01*
X440530Y142026D01*
X440632Y142081D01*
X440737Y142134D01*
X440742Y142139D01*
X440747Y142142D01*
X440827Y142226D01*
X440909Y142310D01*
X440913Y142316D01*
X440916Y142320D01*
X440924Y142337D01*
X440990Y142457D01*
X441975Y144835D01*
X444525Y147385D01*
X447857Y148765D01*
X466543Y148765D01*
X469875Y147385D01*
X472425Y144835D01*
X473805Y141503D01*
X473805Y137897D01*
X472425Y134565D01*
X469875Y132015D01*
X466543Y130635D01*
X447857Y130635D01*
X444525Y132015D01*
X441975Y134565D01*
X440990Y136943D01*
X440928Y137043D01*
X440869Y137143D01*
X440864Y137147D01*
X440861Y137152D01*
X440770Y137227D01*
X440682Y137303D01*
X440676Y137305D01*
X440671Y137309D01*
X440563Y137351D01*
X440454Y137395D01*
X440446Y137396D01*
X440442Y137397D01*
X440423Y137398D01*
X440287Y137413D01*
X433062Y137413D01*
X432972Y137399D01*
X432881Y137391D01*
X432852Y137379D01*
X432820Y137374D01*
X432739Y137331D01*
X432655Y137295D01*
X432623Y137269D01*
X432602Y137258D01*
X432580Y137235D01*
X432524Y137190D01*
X421648Y126314D01*
X421595Y126240D01*
X421535Y126170D01*
X421523Y126140D01*
X421504Y126114D01*
X421477Y126027D01*
X421443Y125942D01*
X421439Y125901D01*
X421432Y125879D01*
X421433Y125847D01*
X421425Y125776D01*
X421425Y115788D01*
X420532Y114895D01*
X409268Y114895D01*
X408375Y115788D01*
X408375Y124895D01*
X408361Y124986D01*
X408353Y125076D01*
X408341Y125106D01*
X408336Y125138D01*
X408312Y125183D01*
X408311Y125186D01*
X408303Y125201D01*
X408293Y125219D01*
X408257Y125303D01*
X408231Y125335D01*
X408220Y125356D01*
X408197Y125378D01*
X408195Y125380D01*
X408185Y125397D01*
X408174Y125407D01*
X408152Y125434D01*
X406740Y126846D01*
X406682Y126888D01*
X406630Y126937D01*
X406583Y126959D01*
X406541Y126989D01*
X406472Y127010D01*
X406407Y127041D01*
X406355Y127046D01*
X406305Y127062D01*
X406234Y127060D01*
X406163Y127068D01*
X406112Y127057D01*
X406060Y127055D01*
X405992Y127031D01*
X405922Y127016D01*
X405877Y126989D01*
X405829Y126971D01*
X405773Y126926D01*
X405711Y126889D01*
X405677Y126850D01*
X405637Y126817D01*
X405598Y126757D01*
X405551Y126702D01*
X405532Y126654D01*
X405504Y126610D01*
X405486Y126541D01*
X405459Y126474D01*
X405451Y126403D01*
X405443Y126372D01*
X405445Y126348D01*
X405441Y126308D01*
X405441Y123443D01*
X399423Y123443D01*
X399423Y129961D01*
X403335Y129961D01*
X403344Y129962D01*
X403391Y129957D01*
X403395Y129958D01*
X403399Y129958D01*
X403515Y129984D01*
X403632Y130009D01*
X403635Y130011D01*
X403639Y130012D01*
X403740Y130074D01*
X403843Y130136D01*
X403845Y130138D01*
X403848Y130140D01*
X403925Y130231D01*
X404003Y130322D01*
X404004Y130326D01*
X404007Y130329D01*
X404049Y130438D01*
X404095Y130551D01*
X404095Y130555D01*
X404096Y130558D01*
X404097Y130570D01*
X404113Y130717D01*
X404113Y135983D01*
X404094Y136100D01*
X404076Y136219D01*
X404074Y136222D01*
X404074Y136225D01*
X404018Y136330D01*
X403963Y136437D01*
X403960Y136440D01*
X403958Y136443D01*
X403873Y136524D01*
X403786Y136608D01*
X403783Y136610D01*
X403780Y136612D01*
X403672Y136662D01*
X403564Y136714D01*
X403560Y136714D01*
X403557Y136716D01*
X403439Y136729D01*
X403320Y136743D01*
X403315Y136743D01*
X403313Y136743D01*
X403300Y136740D01*
X403294Y136739D01*
X399423Y136739D01*
X399423Y144018D01*
X399420Y144038D01*
X399422Y144057D01*
X399400Y144159D01*
X399383Y144261D01*
X399374Y144278D01*
X399370Y144298D01*
X399317Y144387D01*
X399268Y144478D01*
X399254Y144492D01*
X399244Y144509D01*
X399165Y144576D01*
X399090Y144647D01*
X399072Y144656D01*
X399057Y144669D01*
X398961Y144708D01*
X398867Y144751D01*
X398847Y144753D01*
X398829Y144761D01*
X398662Y144779D01*
X397138Y144779D01*
X397118Y144776D01*
X397099Y144778D01*
X396997Y144756D01*
X396895Y144739D01*
X396878Y144730D01*
X396858Y144726D01*
X396769Y144673D01*
X396678Y144624D01*
X396664Y144610D01*
X396647Y144600D01*
X396580Y144521D01*
X396509Y144446D01*
X396500Y144428D01*
X396487Y144413D01*
X396448Y144317D01*
X396405Y144223D01*
X396403Y144203D01*
X396395Y144185D01*
X396377Y144018D01*
X396377Y136739D01*
X392566Y136739D01*
X391865Y136927D01*
X391746Y136939D01*
X391629Y136952D01*
X391624Y136951D01*
X391620Y136951D01*
X391505Y136925D01*
X391388Y136900D01*
X391385Y136897D01*
X391381Y136897D01*
X391279Y136835D01*
X391177Y136773D01*
X391174Y136770D01*
X391171Y136768D01*
X391095Y136678D01*
X391017Y136587D01*
X391016Y136583D01*
X391013Y136579D01*
X390970Y136469D01*
X390925Y136358D01*
X390925Y136353D01*
X390923Y136350D01*
X390923Y136337D01*
X390907Y136192D01*
X390907Y130508D01*
X390926Y130392D01*
X390944Y130273D01*
X390946Y130270D01*
X390946Y130266D01*
X391002Y130161D01*
X391057Y130055D01*
X391060Y130052D01*
X391062Y130048D01*
X391147Y129967D01*
X391233Y129884D01*
X391237Y129882D01*
X391240Y129879D01*
X391347Y129829D01*
X391455Y129777D01*
X391459Y129777D01*
X391463Y129775D01*
X391579Y129762D01*
X391699Y129748D01*
X391704Y129748D01*
X391707Y129748D01*
X391721Y129751D01*
X391865Y129773D01*
X392566Y129961D01*
X396377Y129961D01*
X396377Y122682D01*
X396380Y122662D01*
X396378Y122643D01*
X396400Y122541D01*
X396417Y122439D01*
X396426Y122422D01*
X396430Y122402D01*
X396483Y122313D01*
X396532Y122222D01*
X396546Y122208D01*
X396556Y122191D01*
X396635Y122124D01*
X396710Y122053D01*
X396728Y122044D01*
X396743Y122031D01*
X396839Y121992D01*
X396933Y121949D01*
X396953Y121947D01*
X396971Y121939D01*
X397138Y121921D01*
X397901Y121921D01*
X397901Y121919D01*
X397138Y121919D01*
X397118Y121916D01*
X397099Y121918D01*
X396997Y121896D01*
X396895Y121879D01*
X396878Y121870D01*
X396858Y121866D01*
X396769Y121813D01*
X396678Y121764D01*
X396664Y121750D01*
X396647Y121740D01*
X396580Y121661D01*
X396509Y121586D01*
X396500Y121568D01*
X396487Y121553D01*
X396448Y121457D01*
X396405Y121363D01*
X396403Y121343D01*
X396395Y121325D01*
X396377Y121158D01*
X396377Y113879D01*
X394112Y113879D01*
X394041Y113868D01*
X393969Y113866D01*
X393921Y113848D01*
X393870Y113840D01*
X393806Y113806D01*
X393738Y113781D01*
X393698Y113749D01*
X393652Y113724D01*
X393603Y113672D01*
X393547Y113627D01*
X393519Y113584D01*
X393483Y113546D01*
X393453Y113481D01*
X393414Y113420D01*
X393401Y113370D01*
X393379Y113323D01*
X393371Y113252D01*
X393354Y113182D01*
X393358Y113130D01*
X393352Y113079D01*
X393368Y113008D01*
X393373Y112936D01*
X393393Y112889D01*
X393404Y112838D01*
X393441Y112776D01*
X393470Y112710D01*
X393514Y112655D01*
X393531Y112627D01*
X393547Y112613D01*
X393551Y112607D01*
X393556Y112603D01*
X393575Y112579D01*
X393595Y112559D01*
X393669Y112506D01*
X393738Y112447D01*
X393768Y112435D01*
X393795Y112416D01*
X393881Y112389D01*
X393966Y112355D01*
X394007Y112351D01*
X394030Y112344D01*
X394062Y112345D01*
X394133Y112337D01*
X424627Y112337D01*
X424718Y112351D01*
X424808Y112359D01*
X424838Y112371D01*
X424870Y112376D01*
X424951Y112419D01*
X425035Y112455D01*
X425067Y112481D01*
X425088Y112492D01*
X425110Y112515D01*
X425166Y112560D01*
X429193Y116587D01*
X440287Y116587D01*
X440402Y116606D01*
X440518Y116623D01*
X440524Y116625D01*
X440530Y116626D01*
X440632Y116681D01*
X440737Y116734D01*
X440742Y116739D01*
X440747Y116742D01*
X440827Y116826D01*
X440909Y116910D01*
X440913Y116916D01*
X440916Y116920D01*
X440924Y116937D01*
X440990Y117057D01*
X441975Y119435D01*
X444525Y121985D01*
X447857Y123365D01*
X466543Y123365D01*
X469875Y121985D01*
X472425Y119435D01*
X473805Y116103D01*
X473805Y112497D01*
X472425Y109165D01*
X469875Y106615D01*
X466543Y105235D01*
X447857Y105235D01*
X444525Y106615D01*
X441975Y109165D01*
X440990Y111543D01*
X440928Y111643D01*
X440869Y111743D01*
X440864Y111747D01*
X440861Y111752D01*
X440770Y111827D01*
X440682Y111903D01*
X440676Y111905D01*
X440671Y111909D01*
X440563Y111951D01*
X440454Y111995D01*
X440446Y111996D01*
X440442Y111997D01*
X440423Y111998D01*
X440287Y112013D01*
X431403Y112013D01*
X431312Y111999D01*
X431222Y111991D01*
X431192Y111979D01*
X431160Y111974D01*
X431079Y111931D01*
X430995Y111895D01*
X430963Y111869D01*
X430942Y111858D01*
X430920Y111835D01*
X430864Y111790D01*
X421648Y102574D01*
X421601Y102508D01*
X421590Y102497D01*
X421587Y102491D01*
X421535Y102430D01*
X421523Y102400D01*
X421504Y102374D01*
X421477Y102287D01*
X421443Y102202D01*
X421439Y102161D01*
X421432Y102139D01*
X421433Y102107D01*
X421425Y102035D01*
X421425Y92928D01*
X420532Y92035D01*
X409268Y92035D01*
G37*
%LPD*%
%LPC*%
G36*
X307223Y118363D02*
X307223Y118363D01*
X307223Y143881D01*
X335284Y143881D01*
X335931Y143708D01*
X336510Y143373D01*
X336983Y142900D01*
X337318Y142321D01*
X337491Y141674D01*
X337491Y118363D01*
X307223Y118363D01*
G37*
%LPD*%
%LPC*%
G36*
X307223Y89799D02*
X307223Y89799D01*
X307223Y115317D01*
X337491Y115317D01*
X337491Y92006D01*
X337318Y91359D01*
X336983Y90780D01*
X336510Y90307D01*
X335931Y89972D01*
X335284Y89799D01*
X307223Y89799D01*
G37*
%LPD*%
%LPC*%
G36*
X280137Y173895D02*
X280137Y173895D01*
X276805Y175275D01*
X274255Y177825D01*
X272875Y181157D01*
X272875Y199843D01*
X274255Y203175D01*
X276805Y205725D01*
X280137Y207105D01*
X283743Y207105D01*
X287075Y205725D01*
X289625Y203175D01*
X291005Y199843D01*
X291005Y181157D01*
X289625Y177825D01*
X287075Y175275D01*
X283743Y173895D01*
X280137Y173895D01*
G37*
%LPD*%
%LPC*%
G36*
X308863Y192023D02*
X308863Y192023D01*
X308863Y208005D01*
X309701Y207873D01*
X311210Y207382D01*
X312623Y206662D01*
X313907Y205729D01*
X315029Y204607D01*
X315962Y203323D01*
X316682Y201910D01*
X317173Y200401D01*
X317421Y198833D01*
X317421Y192023D01*
X308863Y192023D01*
G37*
%LPD*%
%LPC*%
G36*
X308863Y188977D02*
X308863Y188977D01*
X317421Y188977D01*
X317421Y182167D01*
X317173Y180599D01*
X316682Y179090D01*
X315962Y177677D01*
X315029Y176393D01*
X313907Y175271D01*
X312623Y174338D01*
X311210Y173618D01*
X309701Y173127D01*
X308863Y172995D01*
X308863Y188977D01*
G37*
%LPD*%
%LPC*%
G36*
X297259Y192023D02*
X297259Y192023D01*
X297259Y198833D01*
X297507Y200401D01*
X297998Y201910D01*
X298718Y203323D01*
X299651Y204607D01*
X300773Y205729D01*
X302057Y206662D01*
X303470Y207382D01*
X304979Y207873D01*
X305817Y208005D01*
X305817Y192023D01*
X297259Y192023D01*
G37*
%LPD*%
%LPC*%
G36*
X304979Y173127D02*
X304979Y173127D01*
X303470Y173618D01*
X302057Y174338D01*
X300773Y175271D01*
X299651Y176393D01*
X298718Y177677D01*
X297998Y179090D01*
X297507Y180599D01*
X297259Y182167D01*
X297259Y188977D01*
X305817Y188977D01*
X305817Y172995D01*
X304979Y173127D01*
G37*
%LPD*%
%LPC*%
G36*
X352923Y70103D02*
X352923Y70103D01*
X352923Y76121D01*
X357234Y76121D01*
X357881Y75948D01*
X358460Y75613D01*
X358933Y75140D01*
X359268Y74561D01*
X359441Y73914D01*
X359441Y70103D01*
X352923Y70103D01*
G37*
%LPD*%
%LPC*%
G36*
X416423Y77723D02*
X416423Y77723D01*
X416423Y83741D01*
X420734Y83741D01*
X421381Y83568D01*
X421960Y83233D01*
X422433Y82760D01*
X422768Y82181D01*
X422941Y81534D01*
X422941Y77723D01*
X416423Y77723D01*
G37*
%LPD*%
%LPC*%
G36*
X343359Y70103D02*
X343359Y70103D01*
X343359Y73914D01*
X343532Y74561D01*
X343867Y75140D01*
X344340Y75613D01*
X344919Y75948D01*
X345566Y76121D01*
X349877Y76121D01*
X349877Y70103D01*
X343359Y70103D01*
G37*
%LPD*%
%LPC*%
G36*
X399423Y113879D02*
X399423Y113879D01*
X399423Y120397D01*
X405441Y120397D01*
X405441Y116086D01*
X405268Y115439D01*
X404933Y114860D01*
X404460Y114387D01*
X403881Y114052D01*
X403234Y113879D01*
X399423Y113879D01*
G37*
%LPD*%
%LPC*%
G36*
X399423Y91019D02*
X399423Y91019D01*
X399423Y97537D01*
X405441Y97537D01*
X405441Y93226D01*
X405268Y92579D01*
X404933Y92000D01*
X404460Y91527D01*
X403881Y91192D01*
X403234Y91019D01*
X399423Y91019D01*
G37*
%LPD*%
%LPC*%
G36*
X406859Y77723D02*
X406859Y77723D01*
X406859Y81534D01*
X407032Y82181D01*
X407367Y82760D01*
X407840Y83233D01*
X408419Y83568D01*
X409066Y83741D01*
X413377Y83741D01*
X413377Y77723D01*
X406859Y77723D01*
G37*
%LPD*%
%LPC*%
G36*
X416423Y68659D02*
X416423Y68659D01*
X416423Y74677D01*
X422941Y74677D01*
X422941Y70865D01*
X422768Y70219D01*
X422433Y69640D01*
X421960Y69167D01*
X421381Y68832D01*
X420734Y68659D01*
X416423Y68659D01*
G37*
%LPD*%
%LPC*%
G36*
X416423Y45799D02*
X416423Y45799D01*
X416423Y51817D01*
X422941Y51817D01*
X422941Y48005D01*
X422768Y47359D01*
X422433Y46780D01*
X421960Y46307D01*
X421381Y45972D01*
X420734Y45799D01*
X416423Y45799D01*
G37*
%LPD*%
%LPC*%
G36*
X352923Y61039D02*
X352923Y61039D01*
X352923Y67057D01*
X359441Y67057D01*
X359441Y63245D01*
X359268Y62599D01*
X358933Y62020D01*
X358460Y61547D01*
X357881Y61212D01*
X357234Y61039D01*
X352923Y61039D01*
G37*
%LPD*%
%LPC*%
G36*
X392566Y91019D02*
X392566Y91019D01*
X391919Y91192D01*
X391340Y91527D01*
X390867Y92000D01*
X390532Y92579D01*
X390359Y93226D01*
X390359Y97537D01*
X396377Y97537D01*
X396377Y91019D01*
X392566Y91019D01*
G37*
%LPD*%
%LPC*%
G36*
X409066Y45799D02*
X409066Y45799D01*
X408419Y45972D01*
X407840Y46307D01*
X407367Y46780D01*
X407032Y47359D01*
X406859Y48006D01*
X406859Y51817D01*
X413377Y51817D01*
X413377Y45799D01*
X409066Y45799D01*
G37*
%LPD*%
%LPC*%
G36*
X409066Y68659D02*
X409066Y68659D01*
X408419Y68832D01*
X407840Y69167D01*
X407367Y69640D01*
X407032Y70219D01*
X406859Y70866D01*
X406859Y74677D01*
X413377Y74677D01*
X413377Y68659D01*
X409066Y68659D01*
G37*
%LPD*%
%LPC*%
G36*
X345566Y61039D02*
X345566Y61039D01*
X344919Y61212D01*
X344340Y61547D01*
X343867Y62020D01*
X343532Y62599D01*
X343359Y63246D01*
X343359Y67057D01*
X349877Y67057D01*
X349877Y61039D01*
X345566Y61039D01*
G37*
%LPD*%
%LPC*%
G36*
X382523Y37403D02*
X382523Y37403D01*
X382523Y44581D01*
X383576Y44371D01*
X385183Y43706D01*
X386629Y42739D01*
X387859Y41509D01*
X388826Y40063D01*
X389491Y38456D01*
X389701Y37403D01*
X382523Y37403D01*
G37*
%LPD*%
%LPC*%
G36*
X306323Y37403D02*
X306323Y37403D01*
X306323Y44581D01*
X307376Y44371D01*
X308983Y43706D01*
X310429Y42739D01*
X311659Y41509D01*
X312626Y40063D01*
X313291Y38456D01*
X313501Y37403D01*
X306323Y37403D01*
G37*
%LPD*%
%LPC*%
G36*
X372299Y37403D02*
X372299Y37403D01*
X372509Y38456D01*
X373174Y40063D01*
X374141Y41509D01*
X375371Y42739D01*
X376817Y43706D01*
X378424Y44371D01*
X379477Y44581D01*
X379477Y37403D01*
X372299Y37403D01*
G37*
%LPD*%
%LPC*%
G36*
X306323Y34357D02*
X306323Y34357D01*
X313501Y34357D01*
X313291Y33304D01*
X312626Y31697D01*
X311659Y30251D01*
X310429Y29021D01*
X308983Y28054D01*
X307376Y27389D01*
X306323Y27179D01*
X306323Y34357D01*
G37*
%LPD*%
%LPC*%
G36*
X382523Y34357D02*
X382523Y34357D01*
X389701Y34357D01*
X389491Y33304D01*
X388826Y31697D01*
X387859Y30251D01*
X386629Y29021D01*
X385183Y28054D01*
X383576Y27389D01*
X382523Y27179D01*
X382523Y34357D01*
G37*
%LPD*%
%LPC*%
G36*
X296099Y37403D02*
X296099Y37403D01*
X296309Y38456D01*
X296974Y40063D01*
X297941Y41509D01*
X299171Y42739D01*
X300617Y43706D01*
X302224Y44371D01*
X303277Y44581D01*
X303277Y37403D01*
X296099Y37403D01*
G37*
%LPD*%
%LPC*%
G36*
X378424Y27389D02*
X378424Y27389D01*
X376817Y28054D01*
X375371Y29021D01*
X374141Y30251D01*
X373174Y31697D01*
X372509Y33304D01*
X372299Y34357D01*
X379477Y34357D01*
X379477Y27179D01*
X378424Y27389D01*
G37*
%LPD*%
%LPC*%
G36*
X302224Y27389D02*
X302224Y27389D01*
X300617Y28054D01*
X299171Y29021D01*
X297941Y30251D01*
X296974Y31697D01*
X296309Y33304D01*
X296099Y34357D01*
X303277Y34357D01*
X303277Y27179D01*
X302224Y27389D01*
G37*
%LPD*%
%LPC*%
G36*
X355423Y29463D02*
X355423Y29463D01*
X355423Y34481D01*
X358234Y34481D01*
X358881Y34308D01*
X359460Y33973D01*
X359933Y33500D01*
X360268Y32921D01*
X360441Y32274D01*
X360441Y29463D01*
X355423Y29463D01*
G37*
%LPD*%
%LPC*%
G36*
X347359Y29463D02*
X347359Y29463D01*
X347359Y32274D01*
X347532Y32921D01*
X347867Y33500D01*
X348340Y33973D01*
X348919Y34308D01*
X349566Y34481D01*
X352377Y34481D01*
X352377Y29463D01*
X347359Y29463D01*
G37*
%LPD*%
%LPC*%
G36*
X380999Y35879D02*
X380999Y35879D01*
X380999Y35881D01*
X381001Y35881D01*
X381001Y35879D01*
X380999Y35879D01*
G37*
%LPD*%
%LPC*%
G36*
X304799Y35879D02*
X304799Y35879D01*
X304799Y35881D01*
X304801Y35881D01*
X304801Y35879D01*
X304799Y35879D01*
G37*
%LPD*%
%LPC*%
G36*
X307339Y190499D02*
X307339Y190499D01*
X307339Y190501D01*
X307341Y190501D01*
X307341Y190499D01*
X307339Y190499D01*
G37*
%LPD*%
%LPC*%
G36*
X351399Y68579D02*
X351399Y68579D01*
X351399Y68581D01*
X351401Y68581D01*
X351401Y68579D01*
X351399Y68579D01*
G37*
%LPD*%
%LPC*%
G36*
X414899Y76199D02*
X414899Y76199D01*
X414899Y76201D01*
X414901Y76201D01*
X414901Y76199D01*
X414899Y76199D01*
G37*
%LPD*%
D10*
X304800Y55880D03*
D11*
X304800Y35880D03*
D12*
X334400Y68580D03*
X351400Y68580D03*
X397900Y53340D03*
X414900Y53340D03*
D10*
X381000Y55880D03*
D11*
X381000Y35880D03*
D13*
X105410Y29600D03*
X105410Y46600D03*
D12*
X397900Y76200D03*
X414900Y76200D03*
D14*
X353900Y27940D03*
X331900Y27940D03*
D15*
X373700Y94040D03*
X373700Y139640D03*
D16*
X305700Y116840D03*
D17*
X106380Y80620D03*
X106380Y71120D03*
X106380Y61620D03*
X132380Y61620D03*
X132380Y80620D03*
D18*
X227838Y107950D03*
X227838Y120650D03*
X227838Y133350D03*
X227838Y146050D03*
X178562Y146050D03*
X178562Y133350D03*
X178562Y120650D03*
X178562Y107950D03*
D13*
X397900Y99060D03*
X414900Y99060D03*
D12*
X129540Y112640D03*
X129540Y95640D03*
X129540Y29600D03*
X129540Y46600D03*
D13*
X70240Y30480D03*
X87240Y30480D03*
X87240Y53340D03*
X70240Y53340D03*
X397900Y121920D03*
X414900Y121920D03*
X397900Y144780D03*
X414900Y144780D03*
X70240Y187960D03*
X87240Y187960D03*
X70240Y210820D03*
X87240Y210820D03*
D12*
X106680Y211700D03*
X106680Y194700D03*
X129540Y194700D03*
X129540Y211700D03*
X129540Y161680D03*
X129540Y178680D03*
X106680Y161680D03*
X106680Y178680D03*
X106680Y145660D03*
X106680Y128660D03*
X129540Y145660D03*
X129540Y128660D03*
D19*
X58340Y137160D02*
X43260Y137160D01*
X43260Y162560D02*
X58340Y162560D01*
X58340Y78740D02*
X43260Y78740D01*
X43260Y104140D02*
X58340Y104140D01*
X449660Y165100D02*
X464740Y165100D01*
X464740Y139700D02*
X449660Y139700D01*
X449660Y114300D02*
X464740Y114300D01*
X464740Y88900D02*
X449660Y88900D01*
X449660Y63500D02*
X464740Y63500D01*
X464740Y38100D02*
X449660Y38100D01*
X281940Y182960D02*
X281940Y198040D01*
X307340Y198040D02*
X307340Y182960D01*
X332740Y182960D02*
X332740Y198040D01*
X358140Y198040D02*
X358140Y182960D01*
X383540Y182960D02*
X383540Y198040D01*
X408940Y198040D02*
X408940Y182960D01*
D20*
X373700Y140865D02*
X360153Y154413D01*
X373700Y140865D02*
X373700Y139640D01*
X304800Y55880D02*
X320040Y40640D01*
X331900Y28780D01*
X331900Y27940D01*
X320040Y54220D02*
X334400Y68580D01*
X320040Y54220D02*
X320040Y40640D01*
D21*
X360153Y154413D03*
D20*
X332740Y181825D02*
X332740Y190500D01*
X332740Y181825D02*
X360153Y154413D01*
X397900Y58420D02*
X397900Y53340D01*
X397900Y58420D02*
X397900Y76200D01*
X402980Y63500D02*
X397900Y58420D01*
X431800Y63500D02*
X457200Y63500D01*
X431800Y63500D02*
X402980Y63500D01*
X431800Y63500D02*
X457200Y38100D01*
X431800Y63500D02*
X457200Y88900D01*
X380060Y94040D02*
X373700Y94040D01*
X380060Y94040D02*
X388180Y85920D01*
X397900Y76200D01*
X267970Y107950D02*
X227838Y107950D01*
X267970Y107950D02*
X271780Y104140D01*
X271780Y91440D01*
X277300Y85920D02*
X388180Y85920D01*
X277300Y85920D02*
X271780Y91440D01*
X383540Y53340D02*
X397900Y53340D01*
X383540Y53340D02*
X381000Y55880D01*
X276490Y146050D02*
X227838Y146050D01*
X276490Y146050D02*
X305700Y116840D01*
X50800Y137160D02*
X50800Y162560D01*
X50800Y168520D01*
X70240Y187960D01*
X105410Y29600D02*
X129540Y29600D01*
X83820Y78740D02*
X50800Y78740D01*
X83820Y78740D02*
X91440Y71120D01*
X106380Y71120D01*
X78740Y38980D02*
X70240Y30480D01*
X78740Y38980D02*
X78740Y40640D01*
X78740Y73660D01*
X83820Y78740D01*
X95104Y39906D02*
X105410Y29600D01*
X95104Y39906D02*
X95104Y40640D01*
D21*
X95104Y40640D03*
X78740Y40640D03*
D20*
X140970Y146050D02*
X178562Y146050D01*
X140970Y146050D02*
X139700Y147320D01*
X139700Y149860D01*
D21*
X117486Y152400D03*
D20*
X122547Y152400D02*
X123093Y152946D01*
X122547Y152400D02*
X117486Y152400D01*
X136614Y152946D02*
X139700Y149860D01*
X136614Y152946D02*
X123093Y152946D01*
D21*
X88900Y83820D03*
D20*
X83820Y78740D01*
X50800Y78740D02*
X50800Y104140D01*
D21*
X271144Y121920D03*
D20*
X269874Y120650D01*
X227838Y120650D01*
X87240Y187960D02*
X87240Y193820D01*
X70240Y210820D01*
X87240Y210820D02*
X88120Y211700D01*
X106680Y211700D01*
X106680Y194700D02*
X123680Y211700D01*
X129540Y211700D01*
X129540Y194700D02*
X129540Y178680D01*
X129540Y161680D02*
X123680Y161680D01*
X106680Y178680D01*
X106680Y161680D02*
X106680Y145660D01*
X106680Y128660D02*
X123680Y145660D01*
X129540Y145660D01*
X129540Y128660D02*
X119146Y128660D01*
X117486Y127000D01*
D21*
X117486Y127000D03*
X117828Y111787D03*
D20*
X120395Y109220D01*
X126120Y109220D02*
X129540Y112640D01*
X126120Y109220D02*
X120395Y109220D01*
X118500Y95640D02*
X129540Y95640D01*
X118500Y95640D02*
X116840Y93980D01*
D21*
X116840Y93980D03*
X116840Y43180D03*
D20*
X116840Y48260D01*
X124460Y55880D01*
X130200Y61620D01*
X132380Y61620D01*
X129540Y50800D02*
X129540Y46600D01*
X129540Y50800D02*
X124460Y55880D01*
X132080Y80620D02*
X132380Y80620D01*
X132080Y80620D02*
X126340Y80620D01*
X119380Y60570D02*
X105410Y46600D01*
X119380Y73660D02*
X126340Y80620D01*
X119380Y73660D02*
X119380Y60570D01*
X70240Y65160D02*
X70240Y53340D01*
X70240Y65160D02*
X71120Y66040D01*
D21*
X71120Y66040D03*
X119380Y73660D03*
D20*
X140970Y107950D02*
X178562Y107950D01*
X140970Y107950D02*
X137160Y104140D01*
X137160Y101753D01*
X137326Y101587D01*
X137326Y89693D01*
X137160Y89527D01*
X137160Y85700D02*
X132080Y80620D01*
X137160Y85700D02*
X137160Y89527D01*
X106380Y61620D02*
X92100Y61620D01*
X87240Y56760D02*
X87240Y53340D01*
X87240Y56760D02*
X92100Y61620D01*
X87240Y53340D02*
X87240Y30480D01*
X430140Y114300D02*
X457200Y114300D01*
X430140Y114300D02*
X425890Y110050D01*
X414900Y99060D01*
X388620Y114300D02*
X388620Y151345D01*
X388620Y114300D02*
X392870Y110050D01*
X425890Y110050D01*
X358140Y181825D02*
X358140Y190500D01*
X358140Y181825D02*
X388620Y151345D01*
X414900Y144780D02*
X414900Y175865D01*
X425665Y165100D02*
X457200Y165100D01*
X425665Y165100D02*
X414900Y175865D01*
X414900Y184540D02*
X408940Y190500D01*
X414900Y184540D02*
X414900Y175865D01*
X406400Y130420D02*
X414460Y122360D01*
X414900Y121920D01*
X431800Y139700D02*
X457200Y139700D01*
X431800Y139700D02*
X414460Y122360D01*
X406400Y167640D02*
X383540Y190500D01*
X406400Y167640D02*
X406400Y130420D01*
X178562Y120650D02*
X118110Y120650D01*
X111760Y114300D01*
X111760Y99060D01*
X106380Y92130D02*
X106380Y88900D01*
X106380Y80620D01*
X106380Y92130D02*
X106380Y93680D01*
X111760Y99060D01*
M02*
