G04 EAGLE Gerber RS-274X export*
G75*
%MOMM*%
%FSLAX34Y34*%
%LPD*%
%INSoldermask Bottom*%
%IPPOS*%
%AMOC8*
5,1,8,0,0,1.08239X$1,22.5*%
G01*
%ADD10C,3.403200*%
%ADD11R,1.461200X1.461200*%
%ADD12C,1.461200*%
%ADD13C,1.711200*%
%ADD14C,0.959600*%


D10*
X38100Y38100D03*
X38100Y228600D03*
X469900Y228600D03*
D11*
X304800Y55880D03*
D12*
X304800Y35880D03*
D11*
X381000Y55880D03*
D12*
X381000Y35880D03*
D13*
X58340Y137160D02*
X43260Y137160D01*
X43260Y162560D02*
X58340Y162560D01*
X58340Y78740D02*
X43260Y78740D01*
X43260Y104140D02*
X58340Y104140D01*
X449660Y165100D02*
X464740Y165100D01*
X464740Y139700D02*
X449660Y139700D01*
X449660Y114300D02*
X464740Y114300D01*
X464740Y88900D02*
X449660Y88900D01*
X449660Y63500D02*
X464740Y63500D01*
X464740Y38100D02*
X449660Y38100D01*
X281940Y182960D02*
X281940Y198040D01*
X307340Y198040D02*
X307340Y182960D01*
X332740Y182960D02*
X332740Y198040D01*
X358140Y198040D02*
X358140Y182960D01*
X383540Y182960D02*
X383540Y198040D01*
X408940Y198040D02*
X408940Y182960D01*
D14*
X360153Y154413D03*
X95104Y40640D03*
X78740Y40640D03*
X117486Y152400D03*
X88900Y83820D03*
X271144Y121920D03*
X117486Y127000D03*
X117828Y111787D03*
X116840Y93980D03*
X116840Y43180D03*
X71120Y66040D03*
X119380Y73660D03*
M02*
